G04 #@! TF.GenerationSoftware,KiCad,Pcbnew,(5.1.5)-3*
G04 #@! TF.CreationDate,2020-09-27T14:55:58+01:00*
G04 #@! TF.ProjectId,Alligator_Components,416c6c69-6761-4746-9f72-5f436f6d706f,rev?*
G04 #@! TF.SameCoordinates,Original*
G04 #@! TF.FileFunction,Soldermask,Bot*
G04 #@! TF.FilePolarity,Negative*
%FSLAX46Y46*%
G04 Gerber Fmt 4.6, Leading zero omitted, Abs format (unit mm)*
G04 Created by KiCad (PCBNEW (5.1.5)-3) date 2020-09-27 14:55:58*
%MOMM*%
%LPD*%
G04 APERTURE LIST*
%ADD10C,0.100000*%
G04 APERTURE END LIST*
D10*
G36*
X106773126Y-153826900D02*
G01*
X106908365Y-153853801D01*
X107163149Y-153959336D01*
X107392448Y-154112549D01*
X107587451Y-154307552D01*
X107740664Y-154536851D01*
X107846199Y-154791635D01*
X107900000Y-155062112D01*
X107900000Y-155337888D01*
X107846199Y-155608365D01*
X107740664Y-155863149D01*
X107587451Y-156092448D01*
X107392448Y-156287451D01*
X107163149Y-156440664D01*
X106908365Y-156546199D01*
X106773127Y-156573099D01*
X106637889Y-156600000D01*
X106362111Y-156600000D01*
X106226873Y-156573099D01*
X106091635Y-156546199D01*
X105836851Y-156440664D01*
X105607552Y-156287451D01*
X105412549Y-156092448D01*
X105259336Y-155863149D01*
X105153801Y-155608365D01*
X105100000Y-155337888D01*
X105100000Y-155062112D01*
X105153801Y-154791635D01*
X105259336Y-154536851D01*
X105412549Y-154307552D01*
X105607552Y-154112549D01*
X105836851Y-153959336D01*
X106091635Y-153853801D01*
X106226874Y-153826900D01*
X106362111Y-153800000D01*
X106637889Y-153800000D01*
X106773126Y-153826900D01*
G37*
G36*
X111373126Y-153826900D02*
G01*
X111508365Y-153853801D01*
X111763149Y-153959336D01*
X111992448Y-154112549D01*
X112187451Y-154307552D01*
X112340664Y-154536851D01*
X112446199Y-154791635D01*
X112500000Y-155062112D01*
X112500000Y-155337888D01*
X112446199Y-155608365D01*
X112340664Y-155863149D01*
X112187451Y-156092448D01*
X111992448Y-156287451D01*
X111763149Y-156440664D01*
X111508365Y-156546199D01*
X111373127Y-156573099D01*
X111237889Y-156600000D01*
X110962111Y-156600000D01*
X110826873Y-156573099D01*
X110691635Y-156546199D01*
X110436851Y-156440664D01*
X110207552Y-156287451D01*
X110012549Y-156092448D01*
X109859336Y-155863149D01*
X109753801Y-155608365D01*
X109700000Y-155337888D01*
X109700000Y-155062112D01*
X109753801Y-154791635D01*
X109859336Y-154536851D01*
X110012549Y-154307552D01*
X110207552Y-154112549D01*
X110436851Y-153959336D01*
X110691635Y-153853801D01*
X110826874Y-153826900D01*
X110962111Y-153800000D01*
X111237889Y-153800000D01*
X111373126Y-153826900D01*
G37*
G36*
X116273126Y-153826900D02*
G01*
X116408365Y-153853801D01*
X116663149Y-153959336D01*
X116892448Y-154112549D01*
X117087451Y-154307552D01*
X117240664Y-154536851D01*
X117346199Y-154791635D01*
X117400000Y-155062112D01*
X117400000Y-155337888D01*
X117346199Y-155608365D01*
X117240664Y-155863149D01*
X117087451Y-156092448D01*
X116892448Y-156287451D01*
X116663149Y-156440664D01*
X116408365Y-156546199D01*
X116273127Y-156573099D01*
X116137889Y-156600000D01*
X115862111Y-156600000D01*
X115726873Y-156573099D01*
X115591635Y-156546199D01*
X115336851Y-156440664D01*
X115107552Y-156287451D01*
X114912549Y-156092448D01*
X114759336Y-155863149D01*
X114653801Y-155608365D01*
X114600000Y-155337888D01*
X114600000Y-155062112D01*
X114653801Y-154791635D01*
X114759336Y-154536851D01*
X114912549Y-154307552D01*
X115107552Y-154112549D01*
X115336851Y-153959336D01*
X115591635Y-153853801D01*
X115726874Y-153826900D01*
X115862111Y-153800000D01*
X116137889Y-153800000D01*
X116273126Y-153826900D01*
G37*
G36*
X152666703Y-151061486D02*
G01*
X152957883Y-151182097D01*
X153219940Y-151357198D01*
X153442802Y-151580060D01*
X153617903Y-151842117D01*
X153738514Y-152133297D01*
X153800000Y-152442412D01*
X153800000Y-152757588D01*
X153738514Y-153066703D01*
X153617903Y-153357883D01*
X153442802Y-153619940D01*
X153219940Y-153842802D01*
X152957883Y-154017903D01*
X152666703Y-154138514D01*
X152357588Y-154200000D01*
X152042412Y-154200000D01*
X151733297Y-154138514D01*
X151442117Y-154017903D01*
X151180060Y-153842802D01*
X150957198Y-153619940D01*
X150782097Y-153357883D01*
X150661486Y-153066703D01*
X150600000Y-152757588D01*
X150600000Y-152442412D01*
X150661486Y-152133297D01*
X150782097Y-151842117D01*
X150957198Y-151580060D01*
X151180060Y-151357198D01*
X151442117Y-151182097D01*
X151733297Y-151061486D01*
X152042412Y-151000000D01*
X152357588Y-151000000D01*
X152666703Y-151061486D01*
G37*
G36*
X157247935Y-146962664D02*
G01*
X157402624Y-147026739D01*
X157402626Y-147026740D01*
X157541844Y-147119762D01*
X157660238Y-147238156D01*
X157753260Y-147377374D01*
X157753261Y-147377376D01*
X157817336Y-147532065D01*
X157850000Y-147696281D01*
X157850000Y-147863719D01*
X157817336Y-148027935D01*
X157753261Y-148182624D01*
X157753260Y-148182626D01*
X157660238Y-148321844D01*
X157541844Y-148440238D01*
X157402626Y-148533260D01*
X157402625Y-148533261D01*
X157402624Y-148533261D01*
X157247935Y-148597336D01*
X157083719Y-148630000D01*
X156916281Y-148630000D01*
X156752065Y-148597336D01*
X156597376Y-148533261D01*
X156597375Y-148533261D01*
X156597374Y-148533260D01*
X156458156Y-148440238D01*
X156339762Y-148321844D01*
X156246740Y-148182626D01*
X156246739Y-148182624D01*
X156182664Y-148027935D01*
X156150000Y-147863719D01*
X156150000Y-147696281D01*
X156182664Y-147532065D01*
X156246739Y-147377376D01*
X156246740Y-147377374D01*
X156339762Y-147238156D01*
X156458156Y-147119762D01*
X156597374Y-147026740D01*
X156597376Y-147026739D01*
X156752065Y-146962664D01*
X156916281Y-146930000D01*
X157083719Y-146930000D01*
X157247935Y-146962664D01*
G37*
G36*
X102747935Y-146962664D02*
G01*
X102902624Y-147026739D01*
X102902626Y-147026740D01*
X103041844Y-147119762D01*
X103160238Y-147238156D01*
X103253260Y-147377374D01*
X103253261Y-147377376D01*
X103317336Y-147532065D01*
X103350000Y-147696281D01*
X103350000Y-147863719D01*
X103317336Y-148027935D01*
X103253261Y-148182624D01*
X103253260Y-148182626D01*
X103160238Y-148321844D01*
X103041844Y-148440238D01*
X102902626Y-148533260D01*
X102902625Y-148533261D01*
X102902624Y-148533261D01*
X102747935Y-148597336D01*
X102583719Y-148630000D01*
X102416281Y-148630000D01*
X102252065Y-148597336D01*
X102097376Y-148533261D01*
X102097375Y-148533261D01*
X102097374Y-148533260D01*
X101958156Y-148440238D01*
X101839762Y-148321844D01*
X101746740Y-148182626D01*
X101746739Y-148182624D01*
X101682664Y-148027935D01*
X101650000Y-147863719D01*
X101650000Y-147696281D01*
X101682664Y-147532065D01*
X101746739Y-147377376D01*
X101746740Y-147377374D01*
X101839762Y-147238156D01*
X101958156Y-147119762D01*
X102097374Y-147026740D01*
X102097376Y-147026739D01*
X102252065Y-146962664D01*
X102416281Y-146930000D01*
X102583719Y-146930000D01*
X102747935Y-146962664D01*
G37*
G36*
X102747935Y-144422664D02*
G01*
X102902624Y-144486739D01*
X102902626Y-144486740D01*
X103041844Y-144579762D01*
X103160238Y-144698156D01*
X103253260Y-144837374D01*
X103253261Y-144837376D01*
X103317336Y-144992065D01*
X103350000Y-145156281D01*
X103350000Y-145323719D01*
X103317336Y-145487935D01*
X103253261Y-145642624D01*
X103253260Y-145642626D01*
X103160238Y-145781844D01*
X103041844Y-145900238D01*
X102902626Y-145993260D01*
X102902625Y-145993261D01*
X102902624Y-145993261D01*
X102747935Y-146057336D01*
X102583719Y-146090000D01*
X102416281Y-146090000D01*
X102252065Y-146057336D01*
X102097376Y-145993261D01*
X102097375Y-145993261D01*
X102097374Y-145993260D01*
X101958156Y-145900238D01*
X101839762Y-145781844D01*
X101746740Y-145642626D01*
X101746739Y-145642624D01*
X101682664Y-145487935D01*
X101650000Y-145323719D01*
X101650000Y-145156281D01*
X101682664Y-144992065D01*
X101746739Y-144837376D01*
X101746740Y-144837374D01*
X101839762Y-144698156D01*
X101958156Y-144579762D01*
X102097374Y-144486740D01*
X102097376Y-144486739D01*
X102252065Y-144422664D01*
X102416281Y-144390000D01*
X102583719Y-144390000D01*
X102747935Y-144422664D01*
G37*
G36*
X157247935Y-144422664D02*
G01*
X157402624Y-144486739D01*
X157402626Y-144486740D01*
X157541844Y-144579762D01*
X157660238Y-144698156D01*
X157753260Y-144837374D01*
X157753261Y-144837376D01*
X157817336Y-144992065D01*
X157850000Y-145156281D01*
X157850000Y-145323719D01*
X157817336Y-145487935D01*
X157753261Y-145642624D01*
X157753260Y-145642626D01*
X157660238Y-145781844D01*
X157541844Y-145900238D01*
X157402626Y-145993260D01*
X157402625Y-145993261D01*
X157402624Y-145993261D01*
X157247935Y-146057336D01*
X157083719Y-146090000D01*
X156916281Y-146090000D01*
X156752065Y-146057336D01*
X156597376Y-145993261D01*
X156597375Y-145993261D01*
X156597374Y-145993260D01*
X156458156Y-145900238D01*
X156339762Y-145781844D01*
X156246740Y-145642626D01*
X156246739Y-145642624D01*
X156182664Y-145487935D01*
X156150000Y-145323719D01*
X156150000Y-145156281D01*
X156182664Y-144992065D01*
X156246739Y-144837376D01*
X156246740Y-144837374D01*
X156339762Y-144698156D01*
X156458156Y-144579762D01*
X156597374Y-144486740D01*
X156597376Y-144486739D01*
X156752065Y-144422664D01*
X156916281Y-144390000D01*
X157083719Y-144390000D01*
X157247935Y-144422664D01*
G37*
G36*
X102747935Y-141882664D02*
G01*
X102902624Y-141946739D01*
X102902626Y-141946740D01*
X103041844Y-142039762D01*
X103160238Y-142158156D01*
X103253260Y-142297374D01*
X103253261Y-142297376D01*
X103317336Y-142452065D01*
X103350000Y-142616281D01*
X103350000Y-142783719D01*
X103317336Y-142947935D01*
X103253261Y-143102624D01*
X103253260Y-143102626D01*
X103160238Y-143241844D01*
X103041844Y-143360238D01*
X102902626Y-143453260D01*
X102902625Y-143453261D01*
X102902624Y-143453261D01*
X102747935Y-143517336D01*
X102583719Y-143550000D01*
X102416281Y-143550000D01*
X102252065Y-143517336D01*
X102097376Y-143453261D01*
X102097375Y-143453261D01*
X102097374Y-143453260D01*
X101958156Y-143360238D01*
X101839762Y-143241844D01*
X101746740Y-143102626D01*
X101746739Y-143102624D01*
X101682664Y-142947935D01*
X101650000Y-142783719D01*
X101650000Y-142616281D01*
X101682664Y-142452065D01*
X101746739Y-142297376D01*
X101746740Y-142297374D01*
X101839762Y-142158156D01*
X101958156Y-142039762D01*
X102097374Y-141946740D01*
X102097376Y-141946739D01*
X102252065Y-141882664D01*
X102416281Y-141850000D01*
X102583719Y-141850000D01*
X102747935Y-141882664D01*
G37*
G36*
X157247935Y-141882664D02*
G01*
X157402624Y-141946739D01*
X157402626Y-141946740D01*
X157541844Y-142039762D01*
X157660238Y-142158156D01*
X157753260Y-142297374D01*
X157753261Y-142297376D01*
X157817336Y-142452065D01*
X157850000Y-142616281D01*
X157850000Y-142783719D01*
X157817336Y-142947935D01*
X157753261Y-143102624D01*
X157753260Y-143102626D01*
X157660238Y-143241844D01*
X157541844Y-143360238D01*
X157402626Y-143453260D01*
X157402625Y-143453261D01*
X157402624Y-143453261D01*
X157247935Y-143517336D01*
X157083719Y-143550000D01*
X156916281Y-143550000D01*
X156752065Y-143517336D01*
X156597376Y-143453261D01*
X156597375Y-143453261D01*
X156597374Y-143453260D01*
X156458156Y-143360238D01*
X156339762Y-143241844D01*
X156246740Y-143102626D01*
X156246739Y-143102624D01*
X156182664Y-142947935D01*
X156150000Y-142783719D01*
X156150000Y-142616281D01*
X156182664Y-142452065D01*
X156246739Y-142297376D01*
X156246740Y-142297374D01*
X156339762Y-142158156D01*
X156458156Y-142039762D01*
X156597374Y-141946740D01*
X156597376Y-141946739D01*
X156752065Y-141882664D01*
X156916281Y-141850000D01*
X157083719Y-141850000D01*
X157247935Y-141882664D01*
G37*
G36*
X102747935Y-139342664D02*
G01*
X102902624Y-139406739D01*
X102902626Y-139406740D01*
X103041844Y-139499762D01*
X103160238Y-139618156D01*
X103253260Y-139757374D01*
X103253261Y-139757376D01*
X103317336Y-139912065D01*
X103350000Y-140076281D01*
X103350000Y-140243719D01*
X103317336Y-140407935D01*
X103253261Y-140562624D01*
X103253260Y-140562626D01*
X103160238Y-140701844D01*
X103041844Y-140820238D01*
X102902626Y-140913260D01*
X102902625Y-140913261D01*
X102902624Y-140913261D01*
X102747935Y-140977336D01*
X102583719Y-141010000D01*
X102416281Y-141010000D01*
X102252065Y-140977336D01*
X102097376Y-140913261D01*
X102097375Y-140913261D01*
X102097374Y-140913260D01*
X101958156Y-140820238D01*
X101839762Y-140701844D01*
X101746740Y-140562626D01*
X101746739Y-140562624D01*
X101682664Y-140407935D01*
X101650000Y-140243719D01*
X101650000Y-140076281D01*
X101682664Y-139912065D01*
X101746739Y-139757376D01*
X101746740Y-139757374D01*
X101839762Y-139618156D01*
X101958156Y-139499762D01*
X102097374Y-139406740D01*
X102097376Y-139406739D01*
X102252065Y-139342664D01*
X102416281Y-139310000D01*
X102583719Y-139310000D01*
X102747935Y-139342664D01*
G37*
G36*
X157247935Y-139342664D02*
G01*
X157402624Y-139406739D01*
X157402626Y-139406740D01*
X157541844Y-139499762D01*
X157660238Y-139618156D01*
X157753260Y-139757374D01*
X157753261Y-139757376D01*
X157817336Y-139912065D01*
X157850000Y-140076281D01*
X157850000Y-140243719D01*
X157817336Y-140407935D01*
X157753261Y-140562624D01*
X157753260Y-140562626D01*
X157660238Y-140701844D01*
X157541844Y-140820238D01*
X157402626Y-140913260D01*
X157402625Y-140913261D01*
X157402624Y-140913261D01*
X157247935Y-140977336D01*
X157083719Y-141010000D01*
X156916281Y-141010000D01*
X156752065Y-140977336D01*
X156597376Y-140913261D01*
X156597375Y-140913261D01*
X156597374Y-140913260D01*
X156458156Y-140820238D01*
X156339762Y-140701844D01*
X156246740Y-140562626D01*
X156246739Y-140562624D01*
X156182664Y-140407935D01*
X156150000Y-140243719D01*
X156150000Y-140076281D01*
X156182664Y-139912065D01*
X156246739Y-139757376D01*
X156246740Y-139757374D01*
X156339762Y-139618156D01*
X156458156Y-139499762D01*
X156597374Y-139406740D01*
X156597376Y-139406739D01*
X156752065Y-139342664D01*
X156916281Y-139310000D01*
X157083719Y-139310000D01*
X157247935Y-139342664D01*
G37*
G36*
X102747935Y-136802664D02*
G01*
X102902624Y-136866739D01*
X102902626Y-136866740D01*
X103041844Y-136959762D01*
X103160238Y-137078156D01*
X103253260Y-137217374D01*
X103253261Y-137217376D01*
X103317336Y-137372065D01*
X103350000Y-137536281D01*
X103350000Y-137703719D01*
X103317336Y-137867935D01*
X103253261Y-138022624D01*
X103253260Y-138022626D01*
X103160238Y-138161844D01*
X103041844Y-138280238D01*
X102902626Y-138373260D01*
X102902625Y-138373261D01*
X102902624Y-138373261D01*
X102747935Y-138437336D01*
X102583719Y-138470000D01*
X102416281Y-138470000D01*
X102252065Y-138437336D01*
X102097376Y-138373261D01*
X102097375Y-138373261D01*
X102097374Y-138373260D01*
X101958156Y-138280238D01*
X101839762Y-138161844D01*
X101746740Y-138022626D01*
X101746739Y-138022624D01*
X101682664Y-137867935D01*
X101650000Y-137703719D01*
X101650000Y-137536281D01*
X101682664Y-137372065D01*
X101746739Y-137217376D01*
X101746740Y-137217374D01*
X101839762Y-137078156D01*
X101958156Y-136959762D01*
X102097374Y-136866740D01*
X102097376Y-136866739D01*
X102252065Y-136802664D01*
X102416281Y-136770000D01*
X102583719Y-136770000D01*
X102747935Y-136802664D01*
G37*
G36*
X157247935Y-136802664D02*
G01*
X157402624Y-136866739D01*
X157402626Y-136866740D01*
X157541844Y-136959762D01*
X157660238Y-137078156D01*
X157753260Y-137217374D01*
X157753261Y-137217376D01*
X157817336Y-137372065D01*
X157850000Y-137536281D01*
X157850000Y-137703719D01*
X157817336Y-137867935D01*
X157753261Y-138022624D01*
X157753260Y-138022626D01*
X157660238Y-138161844D01*
X157541844Y-138280238D01*
X157402626Y-138373260D01*
X157402625Y-138373261D01*
X157402624Y-138373261D01*
X157247935Y-138437336D01*
X157083719Y-138470000D01*
X156916281Y-138470000D01*
X156752065Y-138437336D01*
X156597376Y-138373261D01*
X156597375Y-138373261D01*
X156597374Y-138373260D01*
X156458156Y-138280238D01*
X156339762Y-138161844D01*
X156246740Y-138022626D01*
X156246739Y-138022624D01*
X156182664Y-137867935D01*
X156150000Y-137703719D01*
X156150000Y-137536281D01*
X156182664Y-137372065D01*
X156246739Y-137217376D01*
X156246740Y-137217374D01*
X156339762Y-137078156D01*
X156458156Y-136959762D01*
X156597374Y-136866740D01*
X156597376Y-136866739D01*
X156752065Y-136802664D01*
X156916281Y-136770000D01*
X157083719Y-136770000D01*
X157247935Y-136802664D01*
G37*
G36*
X157247935Y-134262664D02*
G01*
X157402624Y-134326739D01*
X157402626Y-134326740D01*
X157541844Y-134419762D01*
X157660238Y-134538156D01*
X157753260Y-134677374D01*
X157753261Y-134677376D01*
X157817336Y-134832065D01*
X157850000Y-134996281D01*
X157850000Y-135163719D01*
X157817336Y-135327935D01*
X157753261Y-135482624D01*
X157753260Y-135482626D01*
X157660238Y-135621844D01*
X157541844Y-135740238D01*
X157402626Y-135833260D01*
X157402625Y-135833261D01*
X157402624Y-135833261D01*
X157247935Y-135897336D01*
X157083719Y-135930000D01*
X156916281Y-135930000D01*
X156752065Y-135897336D01*
X156597376Y-135833261D01*
X156597375Y-135833261D01*
X156597374Y-135833260D01*
X156458156Y-135740238D01*
X156339762Y-135621844D01*
X156246740Y-135482626D01*
X156246739Y-135482624D01*
X156182664Y-135327935D01*
X156150000Y-135163719D01*
X156150000Y-134996281D01*
X156182664Y-134832065D01*
X156246739Y-134677376D01*
X156246740Y-134677374D01*
X156339762Y-134538156D01*
X156458156Y-134419762D01*
X156597374Y-134326740D01*
X156597376Y-134326739D01*
X156752065Y-134262664D01*
X156916281Y-134230000D01*
X157083719Y-134230000D01*
X157247935Y-134262664D01*
G37*
G36*
X102747935Y-134262664D02*
G01*
X102902624Y-134326739D01*
X102902626Y-134326740D01*
X103041844Y-134419762D01*
X103160238Y-134538156D01*
X103253260Y-134677374D01*
X103253261Y-134677376D01*
X103317336Y-134832065D01*
X103350000Y-134996281D01*
X103350000Y-135163719D01*
X103317336Y-135327935D01*
X103253261Y-135482624D01*
X103253260Y-135482626D01*
X103160238Y-135621844D01*
X103041844Y-135740238D01*
X102902626Y-135833260D01*
X102902625Y-135833261D01*
X102902624Y-135833261D01*
X102747935Y-135897336D01*
X102583719Y-135930000D01*
X102416281Y-135930000D01*
X102252065Y-135897336D01*
X102097376Y-135833261D01*
X102097375Y-135833261D01*
X102097374Y-135833260D01*
X101958156Y-135740238D01*
X101839762Y-135621844D01*
X101746740Y-135482626D01*
X101746739Y-135482624D01*
X101682664Y-135327935D01*
X101650000Y-135163719D01*
X101650000Y-134996281D01*
X101682664Y-134832065D01*
X101746739Y-134677376D01*
X101746740Y-134677374D01*
X101839762Y-134538156D01*
X101958156Y-134419762D01*
X102097374Y-134326740D01*
X102097376Y-134326739D01*
X102252065Y-134262664D01*
X102416281Y-134230000D01*
X102583719Y-134230000D01*
X102747935Y-134262664D01*
G37*
G36*
X157247935Y-131722664D02*
G01*
X157402624Y-131786739D01*
X157402626Y-131786740D01*
X157541844Y-131879762D01*
X157660238Y-131998156D01*
X157753260Y-132137374D01*
X157753261Y-132137376D01*
X157817336Y-132292065D01*
X157850000Y-132456281D01*
X157850000Y-132623719D01*
X157817336Y-132787935D01*
X157753261Y-132942624D01*
X157753260Y-132942626D01*
X157660238Y-133081844D01*
X157541844Y-133200238D01*
X157402626Y-133293260D01*
X157402625Y-133293261D01*
X157402624Y-133293261D01*
X157247935Y-133357336D01*
X157083719Y-133390000D01*
X156916281Y-133390000D01*
X156752065Y-133357336D01*
X156597376Y-133293261D01*
X156597375Y-133293261D01*
X156597374Y-133293260D01*
X156458156Y-133200238D01*
X156339762Y-133081844D01*
X156246740Y-132942626D01*
X156246739Y-132942624D01*
X156182664Y-132787935D01*
X156150000Y-132623719D01*
X156150000Y-132456281D01*
X156182664Y-132292065D01*
X156246739Y-132137376D01*
X156246740Y-132137374D01*
X156339762Y-131998156D01*
X156458156Y-131879762D01*
X156597374Y-131786740D01*
X156597376Y-131786739D01*
X156752065Y-131722664D01*
X156916281Y-131690000D01*
X157083719Y-131690000D01*
X157247935Y-131722664D01*
G37*
G36*
X102747935Y-131722664D02*
G01*
X102902624Y-131786739D01*
X102902626Y-131786740D01*
X103041844Y-131879762D01*
X103160238Y-131998156D01*
X103253260Y-132137374D01*
X103253261Y-132137376D01*
X103317336Y-132292065D01*
X103350000Y-132456281D01*
X103350000Y-132623719D01*
X103317336Y-132787935D01*
X103253261Y-132942624D01*
X103253260Y-132942626D01*
X103160238Y-133081844D01*
X103041844Y-133200238D01*
X102902626Y-133293260D01*
X102902625Y-133293261D01*
X102902624Y-133293261D01*
X102747935Y-133357336D01*
X102583719Y-133390000D01*
X102416281Y-133390000D01*
X102252065Y-133357336D01*
X102097376Y-133293261D01*
X102097375Y-133293261D01*
X102097374Y-133293260D01*
X101958156Y-133200238D01*
X101839762Y-133081844D01*
X101746740Y-132942626D01*
X101746739Y-132942624D01*
X101682664Y-132787935D01*
X101650000Y-132623719D01*
X101650000Y-132456281D01*
X101682664Y-132292065D01*
X101746739Y-132137376D01*
X101746740Y-132137374D01*
X101839762Y-131998156D01*
X101958156Y-131879762D01*
X102097374Y-131786740D01*
X102097376Y-131786739D01*
X102252065Y-131722664D01*
X102416281Y-131690000D01*
X102583719Y-131690000D01*
X102747935Y-131722664D01*
G37*
G36*
X157850000Y-130850000D02*
G01*
X156150000Y-130850000D01*
X156150000Y-129150000D01*
X157850000Y-129150000D01*
X157850000Y-130850000D01*
G37*
G36*
X103350000Y-130850000D02*
G01*
X101650000Y-130850000D01*
X101650000Y-129150000D01*
X103350000Y-129150000D01*
X103350000Y-130850000D01*
G37*
G36*
X155850000Y-122350000D02*
G01*
X154150000Y-122350000D01*
X154150000Y-120650000D01*
X155850000Y-120650000D01*
X155850000Y-122350000D01*
G37*
G36*
X155247935Y-118142664D02*
G01*
X155402624Y-118206739D01*
X155402626Y-118206740D01*
X155541844Y-118299762D01*
X155660238Y-118418156D01*
X155753260Y-118557374D01*
X155753261Y-118557376D01*
X155817336Y-118712065D01*
X155850000Y-118876281D01*
X155850000Y-119043719D01*
X155817336Y-119207935D01*
X155753261Y-119362624D01*
X155753260Y-119362626D01*
X155660238Y-119501844D01*
X155541844Y-119620238D01*
X155402626Y-119713260D01*
X155402625Y-119713261D01*
X155402624Y-119713261D01*
X155247935Y-119777336D01*
X155083719Y-119810000D01*
X154916281Y-119810000D01*
X154752065Y-119777336D01*
X154597376Y-119713261D01*
X154597375Y-119713261D01*
X154597374Y-119713260D01*
X154458156Y-119620238D01*
X154339762Y-119501844D01*
X154246740Y-119362626D01*
X154246739Y-119362624D01*
X154182664Y-119207935D01*
X154150000Y-119043719D01*
X154150000Y-118876281D01*
X154182664Y-118712065D01*
X154246739Y-118557376D01*
X154246740Y-118557374D01*
X154339762Y-118418156D01*
X154458156Y-118299762D01*
X154597374Y-118206740D01*
X154597376Y-118206739D01*
X154752065Y-118142664D01*
X154916281Y-118110000D01*
X155083719Y-118110000D01*
X155247935Y-118142664D01*
G37*
G36*
X155247935Y-115602664D02*
G01*
X155402624Y-115666739D01*
X155402626Y-115666740D01*
X155541844Y-115759762D01*
X155660238Y-115878156D01*
X155753260Y-116017374D01*
X155753261Y-116017376D01*
X155817336Y-116172065D01*
X155850000Y-116336281D01*
X155850000Y-116503719D01*
X155817336Y-116667935D01*
X155753261Y-116822624D01*
X155753260Y-116822626D01*
X155660238Y-116961844D01*
X155541844Y-117080238D01*
X155402626Y-117173260D01*
X155402625Y-117173261D01*
X155402624Y-117173261D01*
X155247935Y-117237336D01*
X155083719Y-117270000D01*
X154916281Y-117270000D01*
X154752065Y-117237336D01*
X154597376Y-117173261D01*
X154597375Y-117173261D01*
X154597374Y-117173260D01*
X154458156Y-117080238D01*
X154339762Y-116961844D01*
X154246740Y-116822626D01*
X154246739Y-116822624D01*
X154182664Y-116667935D01*
X154150000Y-116503719D01*
X154150000Y-116336281D01*
X154182664Y-116172065D01*
X154246739Y-116017376D01*
X154246740Y-116017374D01*
X154339762Y-115878156D01*
X154458156Y-115759762D01*
X154597374Y-115666740D01*
X154597376Y-115666739D01*
X154752065Y-115602664D01*
X154916281Y-115570000D01*
X155083719Y-115570000D01*
X155247935Y-115602664D01*
G37*
G36*
X155247935Y-113062664D02*
G01*
X155402624Y-113126739D01*
X155402626Y-113126740D01*
X155541844Y-113219762D01*
X155660238Y-113338156D01*
X155753260Y-113477374D01*
X155753261Y-113477376D01*
X155817336Y-113632065D01*
X155850000Y-113796281D01*
X155850000Y-113963719D01*
X155817336Y-114127935D01*
X155753261Y-114282624D01*
X155753260Y-114282626D01*
X155660238Y-114421844D01*
X155541844Y-114540238D01*
X155402626Y-114633260D01*
X155402625Y-114633261D01*
X155402624Y-114633261D01*
X155247935Y-114697336D01*
X155083719Y-114730000D01*
X154916281Y-114730000D01*
X154752065Y-114697336D01*
X154597376Y-114633261D01*
X154597375Y-114633261D01*
X154597374Y-114633260D01*
X154458156Y-114540238D01*
X154339762Y-114421844D01*
X154246740Y-114282626D01*
X154246739Y-114282624D01*
X154182664Y-114127935D01*
X154150000Y-113963719D01*
X154150000Y-113796281D01*
X154182664Y-113632065D01*
X154246739Y-113477376D01*
X154246740Y-113477374D01*
X154339762Y-113338156D01*
X154458156Y-113219762D01*
X154597374Y-113126740D01*
X154597376Y-113126739D01*
X154752065Y-113062664D01*
X154916281Y-113030000D01*
X155083719Y-113030000D01*
X155247935Y-113062664D01*
G37*
G36*
X102773126Y-101626900D02*
G01*
X102908365Y-101653801D01*
X103163149Y-101759336D01*
X103392448Y-101912549D01*
X103587451Y-102107552D01*
X103740664Y-102336851D01*
X103846199Y-102591635D01*
X103900000Y-102862112D01*
X103900000Y-103137888D01*
X103846199Y-103408365D01*
X103740664Y-103663149D01*
X103587451Y-103892448D01*
X103392448Y-104087451D01*
X103163149Y-104240664D01*
X102908365Y-104346199D01*
X102773127Y-104373099D01*
X102637889Y-104400000D01*
X102362111Y-104400000D01*
X102226874Y-104373100D01*
X102091635Y-104346199D01*
X101836851Y-104240664D01*
X101607552Y-104087451D01*
X101412549Y-103892448D01*
X101259336Y-103663149D01*
X101153801Y-103408365D01*
X101100000Y-103137888D01*
X101100000Y-102862112D01*
X101153801Y-102591635D01*
X101259336Y-102336851D01*
X101412549Y-102107552D01*
X101607552Y-101912549D01*
X101836851Y-101759336D01*
X102091635Y-101653801D01*
X102226874Y-101626900D01*
X102362111Y-101600000D01*
X102637889Y-101600000D01*
X102773126Y-101626900D01*
G37*
G36*
X102747935Y-80462664D02*
G01*
X102902624Y-80526739D01*
X102902626Y-80526740D01*
X103041844Y-80619762D01*
X103160238Y-80738156D01*
X103253260Y-80877374D01*
X103253261Y-80877376D01*
X103317336Y-81032065D01*
X103350000Y-81196281D01*
X103350000Y-81363719D01*
X103317336Y-81527935D01*
X103253261Y-81682624D01*
X103253260Y-81682626D01*
X103160238Y-81821844D01*
X103041844Y-81940238D01*
X102902626Y-82033260D01*
X102902625Y-82033261D01*
X102902624Y-82033261D01*
X102747935Y-82097336D01*
X102583719Y-82130000D01*
X102416281Y-82130000D01*
X102252065Y-82097336D01*
X102097376Y-82033261D01*
X102097375Y-82033261D01*
X102097374Y-82033260D01*
X101958156Y-81940238D01*
X101839762Y-81821844D01*
X101746740Y-81682626D01*
X101746739Y-81682624D01*
X101682664Y-81527935D01*
X101650000Y-81363719D01*
X101650000Y-81196281D01*
X101682664Y-81032065D01*
X101746739Y-80877376D01*
X101746740Y-80877374D01*
X101839762Y-80738156D01*
X101958156Y-80619762D01*
X102097374Y-80526740D01*
X102097376Y-80526739D01*
X102252065Y-80462664D01*
X102416281Y-80430000D01*
X102583719Y-80430000D01*
X102747935Y-80462664D01*
G37*
G36*
X157247935Y-80462664D02*
G01*
X157402624Y-80526739D01*
X157402626Y-80526740D01*
X157541844Y-80619762D01*
X157660238Y-80738156D01*
X157753260Y-80877374D01*
X157753261Y-80877376D01*
X157817336Y-81032065D01*
X157850000Y-81196281D01*
X157850000Y-81363719D01*
X157817336Y-81527935D01*
X157753261Y-81682624D01*
X157753260Y-81682626D01*
X157660238Y-81821844D01*
X157541844Y-81940238D01*
X157402626Y-82033260D01*
X157402625Y-82033261D01*
X157402624Y-82033261D01*
X157247935Y-82097336D01*
X157083719Y-82130000D01*
X156916281Y-82130000D01*
X156752065Y-82097336D01*
X156597376Y-82033261D01*
X156597375Y-82033261D01*
X156597374Y-82033260D01*
X156458156Y-81940238D01*
X156339762Y-81821844D01*
X156246740Y-81682626D01*
X156246739Y-81682624D01*
X156182664Y-81527935D01*
X156150000Y-81363719D01*
X156150000Y-81196281D01*
X156182664Y-81032065D01*
X156246739Y-80877376D01*
X156246740Y-80877374D01*
X156339762Y-80738156D01*
X156458156Y-80619762D01*
X156597374Y-80526740D01*
X156597376Y-80526739D01*
X156752065Y-80462664D01*
X156916281Y-80430000D01*
X157083719Y-80430000D01*
X157247935Y-80462664D01*
G37*
G36*
X102747935Y-77922664D02*
G01*
X102902624Y-77986739D01*
X102902626Y-77986740D01*
X103041844Y-78079762D01*
X103160238Y-78198156D01*
X103253260Y-78337374D01*
X103253261Y-78337376D01*
X103317336Y-78492065D01*
X103350000Y-78656281D01*
X103350000Y-78823719D01*
X103317336Y-78987935D01*
X103253261Y-79142624D01*
X103253260Y-79142626D01*
X103160238Y-79281844D01*
X103041844Y-79400238D01*
X102902626Y-79493260D01*
X102902625Y-79493261D01*
X102902624Y-79493261D01*
X102747935Y-79557336D01*
X102583719Y-79590000D01*
X102416281Y-79590000D01*
X102252065Y-79557336D01*
X102097376Y-79493261D01*
X102097375Y-79493261D01*
X102097374Y-79493260D01*
X101958156Y-79400238D01*
X101839762Y-79281844D01*
X101746740Y-79142626D01*
X101746739Y-79142624D01*
X101682664Y-78987935D01*
X101650000Y-78823719D01*
X101650000Y-78656281D01*
X101682664Y-78492065D01*
X101746739Y-78337376D01*
X101746740Y-78337374D01*
X101839762Y-78198156D01*
X101958156Y-78079762D01*
X102097374Y-77986740D01*
X102097376Y-77986739D01*
X102252065Y-77922664D01*
X102416281Y-77890000D01*
X102583719Y-77890000D01*
X102747935Y-77922664D01*
G37*
G36*
X157247935Y-77922664D02*
G01*
X157402624Y-77986739D01*
X157402626Y-77986740D01*
X157541844Y-78079762D01*
X157660238Y-78198156D01*
X157753260Y-78337374D01*
X157753261Y-78337376D01*
X157817336Y-78492065D01*
X157850000Y-78656281D01*
X157850000Y-78823719D01*
X157817336Y-78987935D01*
X157753261Y-79142624D01*
X157753260Y-79142626D01*
X157660238Y-79281844D01*
X157541844Y-79400238D01*
X157402626Y-79493260D01*
X157402625Y-79493261D01*
X157402624Y-79493261D01*
X157247935Y-79557336D01*
X157083719Y-79590000D01*
X156916281Y-79590000D01*
X156752065Y-79557336D01*
X156597376Y-79493261D01*
X156597375Y-79493261D01*
X156597374Y-79493260D01*
X156458156Y-79400238D01*
X156339762Y-79281844D01*
X156246740Y-79142626D01*
X156246739Y-79142624D01*
X156182664Y-78987935D01*
X156150000Y-78823719D01*
X156150000Y-78656281D01*
X156182664Y-78492065D01*
X156246739Y-78337376D01*
X156246740Y-78337374D01*
X156339762Y-78198156D01*
X156458156Y-78079762D01*
X156597374Y-77986740D01*
X156597376Y-77986739D01*
X156752065Y-77922664D01*
X156916281Y-77890000D01*
X157083719Y-77890000D01*
X157247935Y-77922664D01*
G37*
G36*
X157247935Y-75382664D02*
G01*
X157402624Y-75446739D01*
X157402626Y-75446740D01*
X157541844Y-75539762D01*
X157660238Y-75658156D01*
X157753260Y-75797374D01*
X157753261Y-75797376D01*
X157817336Y-75952065D01*
X157850000Y-76116281D01*
X157850000Y-76283719D01*
X157817336Y-76447935D01*
X157753261Y-76602624D01*
X157753260Y-76602626D01*
X157660238Y-76741844D01*
X157541844Y-76860238D01*
X157402626Y-76953260D01*
X157402625Y-76953261D01*
X157402624Y-76953261D01*
X157247935Y-77017336D01*
X157083719Y-77050000D01*
X156916281Y-77050000D01*
X156752065Y-77017336D01*
X156597376Y-76953261D01*
X156597375Y-76953261D01*
X156597374Y-76953260D01*
X156458156Y-76860238D01*
X156339762Y-76741844D01*
X156246740Y-76602626D01*
X156246739Y-76602624D01*
X156182664Y-76447935D01*
X156150000Y-76283719D01*
X156150000Y-76116281D01*
X156182664Y-75952065D01*
X156246739Y-75797376D01*
X156246740Y-75797374D01*
X156339762Y-75658156D01*
X156458156Y-75539762D01*
X156597374Y-75446740D01*
X156597376Y-75446739D01*
X156752065Y-75382664D01*
X156916281Y-75350000D01*
X157083719Y-75350000D01*
X157247935Y-75382664D01*
G37*
G36*
X102747935Y-75382664D02*
G01*
X102902624Y-75446739D01*
X102902626Y-75446740D01*
X103041844Y-75539762D01*
X103160238Y-75658156D01*
X103253260Y-75797374D01*
X103253261Y-75797376D01*
X103317336Y-75952065D01*
X103350000Y-76116281D01*
X103350000Y-76283719D01*
X103317336Y-76447935D01*
X103253261Y-76602624D01*
X103253260Y-76602626D01*
X103160238Y-76741844D01*
X103041844Y-76860238D01*
X102902626Y-76953260D01*
X102902625Y-76953261D01*
X102902624Y-76953261D01*
X102747935Y-77017336D01*
X102583719Y-77050000D01*
X102416281Y-77050000D01*
X102252065Y-77017336D01*
X102097376Y-76953261D01*
X102097375Y-76953261D01*
X102097374Y-76953260D01*
X101958156Y-76860238D01*
X101839762Y-76741844D01*
X101746740Y-76602626D01*
X101746739Y-76602624D01*
X101682664Y-76447935D01*
X101650000Y-76283719D01*
X101650000Y-76116281D01*
X101682664Y-75952065D01*
X101746739Y-75797376D01*
X101746740Y-75797374D01*
X101839762Y-75658156D01*
X101958156Y-75539762D01*
X102097374Y-75446740D01*
X102097376Y-75446739D01*
X102252065Y-75382664D01*
X102416281Y-75350000D01*
X102583719Y-75350000D01*
X102747935Y-75382664D01*
G37*
G36*
X157247935Y-72842664D02*
G01*
X157402624Y-72906739D01*
X157402626Y-72906740D01*
X157541844Y-72999762D01*
X157660238Y-73118156D01*
X157753260Y-73257374D01*
X157753261Y-73257376D01*
X157817336Y-73412065D01*
X157850000Y-73576281D01*
X157850000Y-73743719D01*
X157817336Y-73907935D01*
X157753261Y-74062624D01*
X157753260Y-74062626D01*
X157660238Y-74201844D01*
X157541844Y-74320238D01*
X157402626Y-74413260D01*
X157402625Y-74413261D01*
X157402624Y-74413261D01*
X157247935Y-74477336D01*
X157083719Y-74510000D01*
X156916281Y-74510000D01*
X156752065Y-74477336D01*
X156597376Y-74413261D01*
X156597375Y-74413261D01*
X156597374Y-74413260D01*
X156458156Y-74320238D01*
X156339762Y-74201844D01*
X156246740Y-74062626D01*
X156246739Y-74062624D01*
X156182664Y-73907935D01*
X156150000Y-73743719D01*
X156150000Y-73576281D01*
X156182664Y-73412065D01*
X156246739Y-73257376D01*
X156246740Y-73257374D01*
X156339762Y-73118156D01*
X156458156Y-72999762D01*
X156597374Y-72906740D01*
X156597376Y-72906739D01*
X156752065Y-72842664D01*
X156916281Y-72810000D01*
X157083719Y-72810000D01*
X157247935Y-72842664D01*
G37*
G36*
X102747935Y-72842664D02*
G01*
X102902624Y-72906739D01*
X102902626Y-72906740D01*
X103041844Y-72999762D01*
X103160238Y-73118156D01*
X103253260Y-73257374D01*
X103253261Y-73257376D01*
X103317336Y-73412065D01*
X103350000Y-73576281D01*
X103350000Y-73743719D01*
X103317336Y-73907935D01*
X103253261Y-74062624D01*
X103253260Y-74062626D01*
X103160238Y-74201844D01*
X103041844Y-74320238D01*
X102902626Y-74413260D01*
X102902625Y-74413261D01*
X102902624Y-74413261D01*
X102747935Y-74477336D01*
X102583719Y-74510000D01*
X102416281Y-74510000D01*
X102252065Y-74477336D01*
X102097376Y-74413261D01*
X102097375Y-74413261D01*
X102097374Y-74413260D01*
X101958156Y-74320238D01*
X101839762Y-74201844D01*
X101746740Y-74062626D01*
X101746739Y-74062624D01*
X101682664Y-73907935D01*
X101650000Y-73743719D01*
X101650000Y-73576281D01*
X101682664Y-73412065D01*
X101746739Y-73257376D01*
X101746740Y-73257374D01*
X101839762Y-73118156D01*
X101958156Y-72999762D01*
X102097374Y-72906740D01*
X102097376Y-72906739D01*
X102252065Y-72842664D01*
X102416281Y-72810000D01*
X102583719Y-72810000D01*
X102747935Y-72842664D01*
G37*
G36*
X102747935Y-70302664D02*
G01*
X102902624Y-70366739D01*
X102902626Y-70366740D01*
X103041844Y-70459762D01*
X103160238Y-70578156D01*
X103253260Y-70717374D01*
X103253261Y-70717376D01*
X103317336Y-70872065D01*
X103350000Y-71036281D01*
X103350000Y-71203719D01*
X103317336Y-71367935D01*
X103253261Y-71522624D01*
X103253260Y-71522626D01*
X103160238Y-71661844D01*
X103041844Y-71780238D01*
X102902626Y-71873260D01*
X102902625Y-71873261D01*
X102902624Y-71873261D01*
X102747935Y-71937336D01*
X102583719Y-71970000D01*
X102416281Y-71970000D01*
X102252065Y-71937336D01*
X102097376Y-71873261D01*
X102097375Y-71873261D01*
X102097374Y-71873260D01*
X101958156Y-71780238D01*
X101839762Y-71661844D01*
X101746740Y-71522626D01*
X101746739Y-71522624D01*
X101682664Y-71367935D01*
X101650000Y-71203719D01*
X101650000Y-71036281D01*
X101682664Y-70872065D01*
X101746739Y-70717376D01*
X101746740Y-70717374D01*
X101839762Y-70578156D01*
X101958156Y-70459762D01*
X102097374Y-70366740D01*
X102097376Y-70366739D01*
X102252065Y-70302664D01*
X102416281Y-70270000D01*
X102583719Y-70270000D01*
X102747935Y-70302664D01*
G37*
G36*
X157247935Y-70302664D02*
G01*
X157402624Y-70366739D01*
X157402626Y-70366740D01*
X157541844Y-70459762D01*
X157660238Y-70578156D01*
X157753260Y-70717374D01*
X157753261Y-70717376D01*
X157817336Y-70872065D01*
X157850000Y-71036281D01*
X157850000Y-71203719D01*
X157817336Y-71367935D01*
X157753261Y-71522624D01*
X157753260Y-71522626D01*
X157660238Y-71661844D01*
X157541844Y-71780238D01*
X157402626Y-71873260D01*
X157402625Y-71873261D01*
X157402624Y-71873261D01*
X157247935Y-71937336D01*
X157083719Y-71970000D01*
X156916281Y-71970000D01*
X156752065Y-71937336D01*
X156597376Y-71873261D01*
X156597375Y-71873261D01*
X156597374Y-71873260D01*
X156458156Y-71780238D01*
X156339762Y-71661844D01*
X156246740Y-71522626D01*
X156246739Y-71522624D01*
X156182664Y-71367935D01*
X156150000Y-71203719D01*
X156150000Y-71036281D01*
X156182664Y-70872065D01*
X156246739Y-70717376D01*
X156246740Y-70717374D01*
X156339762Y-70578156D01*
X156458156Y-70459762D01*
X156597374Y-70366740D01*
X156597376Y-70366739D01*
X156752065Y-70302664D01*
X156916281Y-70270000D01*
X157083719Y-70270000D01*
X157247935Y-70302664D01*
G37*
G36*
X157247935Y-67762664D02*
G01*
X157402624Y-67826739D01*
X157402626Y-67826740D01*
X157541844Y-67919762D01*
X157660238Y-68038156D01*
X157693176Y-68087452D01*
X157753261Y-68177376D01*
X157817336Y-68332065D01*
X157850000Y-68496281D01*
X157850000Y-68663719D01*
X157817336Y-68827935D01*
X157753261Y-68982624D01*
X157753260Y-68982626D01*
X157660238Y-69121844D01*
X157541844Y-69240238D01*
X157402626Y-69333260D01*
X157402625Y-69333261D01*
X157402624Y-69333261D01*
X157247935Y-69397336D01*
X157083719Y-69430000D01*
X156916281Y-69430000D01*
X156752065Y-69397336D01*
X156597376Y-69333261D01*
X156597375Y-69333261D01*
X156597374Y-69333260D01*
X156458156Y-69240238D01*
X156339762Y-69121844D01*
X156246740Y-68982626D01*
X156246739Y-68982624D01*
X156182664Y-68827935D01*
X156150000Y-68663719D01*
X156150000Y-68496281D01*
X156182664Y-68332065D01*
X156246739Y-68177376D01*
X156306824Y-68087452D01*
X156339762Y-68038156D01*
X156458156Y-67919762D01*
X156597374Y-67826740D01*
X156597376Y-67826739D01*
X156752065Y-67762664D01*
X156916281Y-67730000D01*
X157083719Y-67730000D01*
X157247935Y-67762664D01*
G37*
G36*
X102747935Y-67762664D02*
G01*
X102902624Y-67826739D01*
X102902626Y-67826740D01*
X103041844Y-67919762D01*
X103160238Y-68038156D01*
X103193176Y-68087452D01*
X103253261Y-68177376D01*
X103317336Y-68332065D01*
X103350000Y-68496281D01*
X103350000Y-68663719D01*
X103317336Y-68827935D01*
X103253261Y-68982624D01*
X103253260Y-68982626D01*
X103160238Y-69121844D01*
X103041844Y-69240238D01*
X102902626Y-69333260D01*
X102902625Y-69333261D01*
X102902624Y-69333261D01*
X102747935Y-69397336D01*
X102583719Y-69430000D01*
X102416281Y-69430000D01*
X102252065Y-69397336D01*
X102097376Y-69333261D01*
X102097375Y-69333261D01*
X102097374Y-69333260D01*
X101958156Y-69240238D01*
X101839762Y-69121844D01*
X101746740Y-68982626D01*
X101746739Y-68982624D01*
X101682664Y-68827935D01*
X101650000Y-68663719D01*
X101650000Y-68496281D01*
X101682664Y-68332065D01*
X101746739Y-68177376D01*
X101806824Y-68087452D01*
X101839762Y-68038156D01*
X101958156Y-67919762D01*
X102097374Y-67826740D01*
X102097376Y-67826739D01*
X102252065Y-67762664D01*
X102416281Y-67730000D01*
X102583719Y-67730000D01*
X102747935Y-67762664D01*
G37*
G36*
X140273126Y-65626900D02*
G01*
X140408365Y-65653801D01*
X140663149Y-65759336D01*
X140892448Y-65912549D01*
X141087451Y-66107552D01*
X141240664Y-66336851D01*
X141346199Y-66591635D01*
X141400000Y-66862112D01*
X141400000Y-67137888D01*
X141346199Y-67408365D01*
X141240664Y-67663149D01*
X141087451Y-67892448D01*
X140892448Y-68087451D01*
X140663149Y-68240664D01*
X140408365Y-68346199D01*
X140273127Y-68373099D01*
X140137889Y-68400000D01*
X139862111Y-68400000D01*
X139726873Y-68373099D01*
X139591635Y-68346199D01*
X139336851Y-68240664D01*
X139107552Y-68087451D01*
X138912549Y-67892448D01*
X138759336Y-67663149D01*
X138653801Y-67408365D01*
X138600000Y-67137888D01*
X138600000Y-66862112D01*
X138653801Y-66591635D01*
X138759336Y-66336851D01*
X138912549Y-66107552D01*
X139107552Y-65912549D01*
X139336851Y-65759336D01*
X139591635Y-65653801D01*
X139726874Y-65626900D01*
X139862111Y-65600000D01*
X140137889Y-65600000D01*
X140273126Y-65626900D01*
G37*
G36*
X102747935Y-65222664D02*
G01*
X102902624Y-65286739D01*
X102902626Y-65286740D01*
X103041844Y-65379762D01*
X103160238Y-65498156D01*
X103253260Y-65637374D01*
X103253261Y-65637376D01*
X103317336Y-65792065D01*
X103350000Y-65956281D01*
X103350000Y-66123719D01*
X103317336Y-66287935D01*
X103297074Y-66336851D01*
X103253260Y-66442626D01*
X103160238Y-66581844D01*
X103041844Y-66700238D01*
X102902626Y-66793260D01*
X102902625Y-66793261D01*
X102902624Y-66793261D01*
X102747935Y-66857336D01*
X102583719Y-66890000D01*
X102416281Y-66890000D01*
X102252065Y-66857336D01*
X102097376Y-66793261D01*
X102097375Y-66793261D01*
X102097374Y-66793260D01*
X101958156Y-66700238D01*
X101839762Y-66581844D01*
X101746740Y-66442626D01*
X101702926Y-66336851D01*
X101682664Y-66287935D01*
X101650000Y-66123719D01*
X101650000Y-65956281D01*
X101682664Y-65792065D01*
X101746739Y-65637376D01*
X101746740Y-65637374D01*
X101839762Y-65498156D01*
X101958156Y-65379762D01*
X102097374Y-65286740D01*
X102097376Y-65286739D01*
X102252065Y-65222664D01*
X102416281Y-65190000D01*
X102583719Y-65190000D01*
X102747935Y-65222664D01*
G37*
G36*
X157247935Y-65222664D02*
G01*
X157402624Y-65286739D01*
X157402626Y-65286740D01*
X157541844Y-65379762D01*
X157660238Y-65498156D01*
X157753260Y-65637374D01*
X157753261Y-65637376D01*
X157817336Y-65792065D01*
X157850000Y-65956281D01*
X157850000Y-66123719D01*
X157817336Y-66287935D01*
X157797074Y-66336851D01*
X157753260Y-66442626D01*
X157660238Y-66581844D01*
X157541844Y-66700238D01*
X157402626Y-66793260D01*
X157402625Y-66793261D01*
X157402624Y-66793261D01*
X157247935Y-66857336D01*
X157083719Y-66890000D01*
X156916281Y-66890000D01*
X156752065Y-66857336D01*
X156597376Y-66793261D01*
X156597375Y-66793261D01*
X156597374Y-66793260D01*
X156458156Y-66700238D01*
X156339762Y-66581844D01*
X156246740Y-66442626D01*
X156202926Y-66336851D01*
X156182664Y-66287935D01*
X156150000Y-66123719D01*
X156150000Y-65956281D01*
X156182664Y-65792065D01*
X156246739Y-65637376D01*
X156246740Y-65637374D01*
X156339762Y-65498156D01*
X156458156Y-65379762D01*
X156597374Y-65286740D01*
X156597376Y-65286739D01*
X156752065Y-65222664D01*
X156916281Y-65190000D01*
X157083719Y-65190000D01*
X157247935Y-65222664D01*
G37*
G36*
X103350000Y-64350000D02*
G01*
X101650000Y-64350000D01*
X101650000Y-62650000D01*
X103350000Y-62650000D01*
X103350000Y-64350000D01*
G37*
G36*
X157850000Y-64350000D02*
G01*
X156150000Y-64350000D01*
X156150000Y-62650000D01*
X157850000Y-62650000D01*
X157850000Y-64350000D01*
G37*
G36*
X110273126Y-60626900D02*
G01*
X110408365Y-60653801D01*
X110663149Y-60759336D01*
X110892448Y-60912549D01*
X111087451Y-61107552D01*
X111087452Y-61107554D01*
X111240665Y-61336853D01*
X111346199Y-61591636D01*
X111400000Y-61862111D01*
X111400000Y-62137889D01*
X111346199Y-62408364D01*
X111246111Y-62650000D01*
X111240664Y-62663149D01*
X111087451Y-62892448D01*
X110892448Y-63087451D01*
X110663149Y-63240664D01*
X110408365Y-63346199D01*
X110273127Y-63373099D01*
X110137889Y-63400000D01*
X109862111Y-63400000D01*
X109726873Y-63373099D01*
X109591635Y-63346199D01*
X109336851Y-63240664D01*
X109107552Y-63087451D01*
X108912549Y-62892448D01*
X108759336Y-62663149D01*
X108753890Y-62650000D01*
X108653801Y-62408364D01*
X108600000Y-62137889D01*
X108600000Y-61862111D01*
X108653801Y-61591636D01*
X108759335Y-61336853D01*
X108912548Y-61107554D01*
X108912549Y-61107552D01*
X109107552Y-60912549D01*
X109336851Y-60759336D01*
X109591635Y-60653801D01*
X109726874Y-60626900D01*
X109862111Y-60600000D01*
X110137889Y-60600000D01*
X110273126Y-60626900D01*
G37*
G36*
X132267935Y-57007664D02*
G01*
X132422624Y-57071739D01*
X132422626Y-57071740D01*
X132561844Y-57164762D01*
X132680238Y-57283156D01*
X132773260Y-57422374D01*
X132773261Y-57422376D01*
X132837336Y-57577065D01*
X132870000Y-57741281D01*
X132870000Y-57908719D01*
X132837336Y-58072935D01*
X132773261Y-58227624D01*
X132773260Y-58227626D01*
X132680238Y-58366844D01*
X132561844Y-58485238D01*
X132422626Y-58578260D01*
X132422625Y-58578261D01*
X132422624Y-58578261D01*
X132267935Y-58642336D01*
X132103719Y-58675000D01*
X131936281Y-58675000D01*
X131772065Y-58642336D01*
X131617376Y-58578261D01*
X131617375Y-58578261D01*
X131617374Y-58578260D01*
X131478156Y-58485238D01*
X131359762Y-58366844D01*
X131266740Y-58227626D01*
X131266739Y-58227624D01*
X131202664Y-58072935D01*
X131170000Y-57908719D01*
X131170000Y-57741281D01*
X131202664Y-57577065D01*
X131266739Y-57422376D01*
X131266740Y-57422374D01*
X131359762Y-57283156D01*
X131478156Y-57164762D01*
X131617374Y-57071740D01*
X131617376Y-57071739D01*
X131772065Y-57007664D01*
X131936281Y-56975000D01*
X132103719Y-56975000D01*
X132267935Y-57007664D01*
G37*
G36*
X125250000Y-58675000D02*
G01*
X123550000Y-58675000D01*
X123550000Y-56975000D01*
X125250000Y-56975000D01*
X125250000Y-58675000D01*
G37*
G36*
X127187935Y-57007664D02*
G01*
X127342624Y-57071739D01*
X127342626Y-57071740D01*
X127481844Y-57164762D01*
X127600238Y-57283156D01*
X127693260Y-57422374D01*
X127693261Y-57422376D01*
X127757336Y-57577065D01*
X127790000Y-57741281D01*
X127790000Y-57908719D01*
X127757336Y-58072935D01*
X127693261Y-58227624D01*
X127693260Y-58227626D01*
X127600238Y-58366844D01*
X127481844Y-58485238D01*
X127342626Y-58578260D01*
X127342625Y-58578261D01*
X127342624Y-58578261D01*
X127187935Y-58642336D01*
X127023719Y-58675000D01*
X126856281Y-58675000D01*
X126692065Y-58642336D01*
X126537376Y-58578261D01*
X126537375Y-58578261D01*
X126537374Y-58578260D01*
X126398156Y-58485238D01*
X126279762Y-58366844D01*
X126186740Y-58227626D01*
X126186739Y-58227624D01*
X126122664Y-58072935D01*
X126090000Y-57908719D01*
X126090000Y-57741281D01*
X126122664Y-57577065D01*
X126186739Y-57422376D01*
X126186740Y-57422374D01*
X126279762Y-57283156D01*
X126398156Y-57164762D01*
X126537374Y-57071740D01*
X126537376Y-57071739D01*
X126692065Y-57007664D01*
X126856281Y-56975000D01*
X127023719Y-56975000D01*
X127187935Y-57007664D01*
G37*
G36*
X129727935Y-57007664D02*
G01*
X129882624Y-57071739D01*
X129882626Y-57071740D01*
X130021844Y-57164762D01*
X130140238Y-57283156D01*
X130233260Y-57422374D01*
X130233261Y-57422376D01*
X130297336Y-57577065D01*
X130330000Y-57741281D01*
X130330000Y-57908719D01*
X130297336Y-58072935D01*
X130233261Y-58227624D01*
X130233260Y-58227626D01*
X130140238Y-58366844D01*
X130021844Y-58485238D01*
X129882626Y-58578260D01*
X129882625Y-58578261D01*
X129882624Y-58578261D01*
X129727935Y-58642336D01*
X129563719Y-58675000D01*
X129396281Y-58675000D01*
X129232065Y-58642336D01*
X129077376Y-58578261D01*
X129077375Y-58578261D01*
X129077374Y-58578260D01*
X128938156Y-58485238D01*
X128819762Y-58366844D01*
X128726740Y-58227626D01*
X128726739Y-58227624D01*
X128662664Y-58072935D01*
X128630000Y-57908719D01*
X128630000Y-57741281D01*
X128662664Y-57577065D01*
X128726739Y-57422376D01*
X128726740Y-57422374D01*
X128819762Y-57283156D01*
X128938156Y-57164762D01*
X129077374Y-57071740D01*
X129077376Y-57071739D01*
X129232065Y-57007664D01*
X129396281Y-56975000D01*
X129563719Y-56975000D01*
X129727935Y-57007664D01*
G37*
G36*
X134807935Y-57007664D02*
G01*
X134962624Y-57071739D01*
X134962626Y-57071740D01*
X135101844Y-57164762D01*
X135220238Y-57283156D01*
X135313260Y-57422374D01*
X135313261Y-57422376D01*
X135377336Y-57577065D01*
X135410000Y-57741281D01*
X135410000Y-57908719D01*
X135377336Y-58072935D01*
X135313261Y-58227624D01*
X135313260Y-58227626D01*
X135220238Y-58366844D01*
X135101844Y-58485238D01*
X134962626Y-58578260D01*
X134962625Y-58578261D01*
X134962624Y-58578261D01*
X134807935Y-58642336D01*
X134643719Y-58675000D01*
X134476281Y-58675000D01*
X134312065Y-58642336D01*
X134157376Y-58578261D01*
X134157375Y-58578261D01*
X134157374Y-58578260D01*
X134018156Y-58485238D01*
X133899762Y-58366844D01*
X133806740Y-58227626D01*
X133806739Y-58227624D01*
X133742664Y-58072935D01*
X133710000Y-57908719D01*
X133710000Y-57741281D01*
X133742664Y-57577065D01*
X133806739Y-57422376D01*
X133806740Y-57422374D01*
X133899762Y-57283156D01*
X134018156Y-57164762D01*
X134157374Y-57071740D01*
X134157376Y-57071739D01*
X134312065Y-57007664D01*
X134476281Y-56975000D01*
X134643719Y-56975000D01*
X134807935Y-57007664D01*
G37*
G36*
X134807935Y-54467664D02*
G01*
X134962624Y-54531739D01*
X134962626Y-54531740D01*
X135101844Y-54624762D01*
X135220238Y-54743156D01*
X135313260Y-54882374D01*
X135313261Y-54882376D01*
X135377336Y-55037065D01*
X135410000Y-55201281D01*
X135410000Y-55368719D01*
X135377336Y-55532935D01*
X135313261Y-55687624D01*
X135313260Y-55687626D01*
X135220238Y-55826844D01*
X135101844Y-55945238D01*
X134962626Y-56038260D01*
X134962625Y-56038261D01*
X134962624Y-56038261D01*
X134807935Y-56102336D01*
X134643719Y-56135000D01*
X134476281Y-56135000D01*
X134312065Y-56102336D01*
X134157376Y-56038261D01*
X134157375Y-56038261D01*
X134157374Y-56038260D01*
X134018156Y-55945238D01*
X133899762Y-55826844D01*
X133806740Y-55687626D01*
X133806739Y-55687624D01*
X133742664Y-55532935D01*
X133710000Y-55368719D01*
X133710000Y-55201281D01*
X133742664Y-55037065D01*
X133806739Y-54882376D01*
X133806740Y-54882374D01*
X133899762Y-54743156D01*
X134018156Y-54624762D01*
X134157374Y-54531740D01*
X134157376Y-54531739D01*
X134312065Y-54467664D01*
X134476281Y-54435000D01*
X134643719Y-54435000D01*
X134807935Y-54467664D01*
G37*
G36*
X132267935Y-54467664D02*
G01*
X132422624Y-54531739D01*
X132422626Y-54531740D01*
X132561844Y-54624762D01*
X132680238Y-54743156D01*
X132773260Y-54882374D01*
X132773261Y-54882376D01*
X132837336Y-55037065D01*
X132870000Y-55201281D01*
X132870000Y-55368719D01*
X132837336Y-55532935D01*
X132773261Y-55687624D01*
X132773260Y-55687626D01*
X132680238Y-55826844D01*
X132561844Y-55945238D01*
X132422626Y-56038260D01*
X132422625Y-56038261D01*
X132422624Y-56038261D01*
X132267935Y-56102336D01*
X132103719Y-56135000D01*
X131936281Y-56135000D01*
X131772065Y-56102336D01*
X131617376Y-56038261D01*
X131617375Y-56038261D01*
X131617374Y-56038260D01*
X131478156Y-55945238D01*
X131359762Y-55826844D01*
X131266740Y-55687626D01*
X131266739Y-55687624D01*
X131202664Y-55532935D01*
X131170000Y-55368719D01*
X131170000Y-55201281D01*
X131202664Y-55037065D01*
X131266739Y-54882376D01*
X131266740Y-54882374D01*
X131359762Y-54743156D01*
X131478156Y-54624762D01*
X131617374Y-54531740D01*
X131617376Y-54531739D01*
X131772065Y-54467664D01*
X131936281Y-54435000D01*
X132103719Y-54435000D01*
X132267935Y-54467664D01*
G37*
G36*
X129727935Y-54467664D02*
G01*
X129882624Y-54531739D01*
X129882626Y-54531740D01*
X130021844Y-54624762D01*
X130140238Y-54743156D01*
X130233260Y-54882374D01*
X130233261Y-54882376D01*
X130297336Y-55037065D01*
X130330000Y-55201281D01*
X130330000Y-55368719D01*
X130297336Y-55532935D01*
X130233261Y-55687624D01*
X130233260Y-55687626D01*
X130140238Y-55826844D01*
X130021844Y-55945238D01*
X129882626Y-56038260D01*
X129882625Y-56038261D01*
X129882624Y-56038261D01*
X129727935Y-56102336D01*
X129563719Y-56135000D01*
X129396281Y-56135000D01*
X129232065Y-56102336D01*
X129077376Y-56038261D01*
X129077375Y-56038261D01*
X129077374Y-56038260D01*
X128938156Y-55945238D01*
X128819762Y-55826844D01*
X128726740Y-55687626D01*
X128726739Y-55687624D01*
X128662664Y-55532935D01*
X128630000Y-55368719D01*
X128630000Y-55201281D01*
X128662664Y-55037065D01*
X128726739Y-54882376D01*
X128726740Y-54882374D01*
X128819762Y-54743156D01*
X128938156Y-54624762D01*
X129077374Y-54531740D01*
X129077376Y-54531739D01*
X129232065Y-54467664D01*
X129396281Y-54435000D01*
X129563719Y-54435000D01*
X129727935Y-54467664D01*
G37*
G36*
X127187935Y-54467664D02*
G01*
X127342624Y-54531739D01*
X127342626Y-54531740D01*
X127481844Y-54624762D01*
X127600238Y-54743156D01*
X127693260Y-54882374D01*
X127693261Y-54882376D01*
X127757336Y-55037065D01*
X127790000Y-55201281D01*
X127790000Y-55368719D01*
X127757336Y-55532935D01*
X127693261Y-55687624D01*
X127693260Y-55687626D01*
X127600238Y-55826844D01*
X127481844Y-55945238D01*
X127342626Y-56038260D01*
X127342625Y-56038261D01*
X127342624Y-56038261D01*
X127187935Y-56102336D01*
X127023719Y-56135000D01*
X126856281Y-56135000D01*
X126692065Y-56102336D01*
X126537376Y-56038261D01*
X126537375Y-56038261D01*
X126537374Y-56038260D01*
X126398156Y-55945238D01*
X126279762Y-55826844D01*
X126186740Y-55687626D01*
X126186739Y-55687624D01*
X126122664Y-55532935D01*
X126090000Y-55368719D01*
X126090000Y-55201281D01*
X126122664Y-55037065D01*
X126186739Y-54882376D01*
X126186740Y-54882374D01*
X126279762Y-54743156D01*
X126398156Y-54624762D01*
X126537374Y-54531740D01*
X126537376Y-54531739D01*
X126692065Y-54467664D01*
X126856281Y-54435000D01*
X127023719Y-54435000D01*
X127187935Y-54467664D01*
G37*
G36*
X124647935Y-54467664D02*
G01*
X124802624Y-54531739D01*
X124802626Y-54531740D01*
X124941844Y-54624762D01*
X125060238Y-54743156D01*
X125153260Y-54882374D01*
X125153261Y-54882376D01*
X125217336Y-55037065D01*
X125250000Y-55201281D01*
X125250000Y-55368719D01*
X125217336Y-55532935D01*
X125153261Y-55687624D01*
X125153260Y-55687626D01*
X125060238Y-55826844D01*
X124941844Y-55945238D01*
X124802626Y-56038260D01*
X124802625Y-56038261D01*
X124802624Y-56038261D01*
X124647935Y-56102336D01*
X124483719Y-56135000D01*
X124316281Y-56135000D01*
X124152065Y-56102336D01*
X123997376Y-56038261D01*
X123997375Y-56038261D01*
X123997374Y-56038260D01*
X123858156Y-55945238D01*
X123739762Y-55826844D01*
X123646740Y-55687626D01*
X123646739Y-55687624D01*
X123582664Y-55532935D01*
X123550000Y-55368719D01*
X123550000Y-55201281D01*
X123582664Y-55037065D01*
X123646739Y-54882376D01*
X123646740Y-54882374D01*
X123739762Y-54743156D01*
X123858156Y-54624762D01*
X123997374Y-54531740D01*
X123997376Y-54531739D01*
X124152065Y-54467664D01*
X124316281Y-54435000D01*
X124483719Y-54435000D01*
X124647935Y-54467664D01*
G37*
M02*
