M48
; DRILL file {KiCad 9.0.3} date 2026-04-17T11:48:49+0100
; FORMAT={-:-/ absolute / metric / decimal}
; #@! TF.CreationDate,2026-04-17T11:48:49+01:00
; #@! TF.GenerationSoftware,Kicad,Pcbnew,9.0.3
; #@! TF.FileFunction,Plated,1,4,PTH
FMAT,2
METRIC
; #@! TA.AperFunction,Plated,PTH,ViaDrill
T1C0.400
; #@! TA.AperFunction,Plated,PTH,ComponentDrill
T2C0.500
; #@! TA.AperFunction,Plated,PTH,ComponentDrill
T3C0.550
; #@! TA.AperFunction,Plated,PTH,ViaDrill
T4C0.600
; #@! TA.AperFunction,Plated,PTH,ViaDrill
T5C1.000
; #@! TA.AperFunction,Plated,PTH,ComponentDrill
T6C1.000
; #@! TA.AperFunction,Plated,PTH,ComponentDrill
T7C1.300
%
G90
G05
T1
X101.1Y-56.5
X101.6Y-97.5
X101.6Y-106.4
X101.75Y-122.573
X102.6Y-104.9
X103.4Y-121.7
X104.0Y-118.0
X105.3Y-127.4
X105.4Y-131.3
X105.6Y-141.9
X106.4Y-119.1
X107.2Y-128.8
X107.4Y-83.9
X107.4Y-87.3
X107.9Y-74.9
X108.1Y-68.9
X108.3Y-102.4
X108.3Y-106.2
X108.3Y-125.4
X108.5Y-90.9
X108.6Y-96.1
X109.5Y-127.4
X109.6Y-71.3
X109.8Y-92.0
X109.9Y-137.0
X110.2Y-103.7
X110.2Y-121.0
X110.2Y-122.0
X110.5Y-117.9
X111.156Y-110.402
X111.42Y-82.42
X111.9Y-99.4
X112.4Y-96.3
X112.7Y-64.5
X112.7Y-106.4
X113.1Y-117.9
X113.118Y-104.243
X113.2Y-68.2
X113.315Y-77.9
X113.6Y-82.3
X114.1Y-72.5
X114.325Y-92.9
X114.325Y-99.4
X114.585Y-79.565
X114.9Y-121.8
X114.9Y-125.1
X115.2Y-108.9
X115.3Y-104.8
X115.9Y-65.3
X116.2Y-78.6
X116.2Y-119.8
X116.7Y-97.5
X117.4Y-104.8
X117.8Y-111.3
X117.8Y-118.1
X118.5Y-88.1
X118.6Y-67.6
X118.85Y-100.95
X118.9Y-122.0
X119.3Y-116.3
X119.7Y-76.6
X120.3Y-82.2
X120.3Y-108.4
X120.4Y-120.8
X120.8Y-136.3
X121.5Y-125.8
X121.5Y-145.0
X121.6Y-85.2
X121.6Y-143.9
X121.655Y-120.204
X121.7Y-91.5
X121.85Y-132.95
X122.1Y-121.1
X122.1Y-138.4
X122.2Y-130.3
X122.2Y-140.4
X122.3Y-75.7
X122.3Y-80.7
X122.3Y-108.4
X122.368Y-128.468
X122.4Y-115.2
X122.4Y-142.9
X122.636Y-98.17
X123.2Y-152.5
X123.5Y-156.9
X124.0Y-154.7
X124.4Y-68.3
X124.6Y-141.1
X124.8Y-153.3
X124.9Y-82.0
X125.025Y-137.6
X125.1Y-72.5
X125.4Y-83.8
X125.825Y-138.7
X125.9Y-88.0
X125.9Y-91.4
X125.9Y-114.4
X126.0Y-117.2
X126.1Y-152.5
X126.3Y-157.2
X126.4Y-75.9
X126.5Y-110.1
X126.621Y-137.238
X127.025Y-105.897
X127.025Y-104.5
X127.1Y-153.0
X127.2Y-68.3
X127.4Y-114.8
X127.5Y-144.8
X127.525Y-123.775
X127.8Y-93.7
X127.8Y-97.1
X127.8Y-100.9
X128.0Y-112.1
X128.4Y-123.1
X128.6Y-75.8
X128.8Y-108.8
X129.0Y-66.0
X129.125Y-140.8
X129.3Y-158.5
X129.425Y-123.125
X129.7Y-150.7
X129.8Y-108.8
X129.8Y-110.8
X129.9Y-75.8
X130.1Y-93.6
X130.1Y-104.9
X130.2Y-144.9
X130.3Y-125.6
X130.5Y-133.2
X130.9Y-105.8
X131.1Y-87.0
X131.1Y-152.1
X131.2Y-82.4
X131.2Y-103.1
X131.251Y-139.451
X131.5Y-95.2
X131.8Y-156.4
X131.825Y-142.025
X132.0Y-126.6
X132.075Y-138.675
X132.3Y-108.8
X132.3Y-111.4
X132.4Y-80.1
X132.5Y-76.0
X132.5Y-115.7
X132.6Y-152.0
X132.8Y-131.725
X132.8Y-158.7
X133.129Y-73.846
X133.2Y-138.0
X133.3Y-97.0
X133.4Y-152.8
X133.55Y-122.975
X133.767Y-111.347
X133.8Y-145.1
X133.888Y-114.638
X134.275Y-133.3
X134.4Y-123.9
X134.4Y-127.2
X134.4Y-153.3
X135.0Y-105.5
X135.0Y-115.9
X135.025Y-114.525
X135.05Y-137.65
X135.2Y-58.2
X135.2Y-108.8
X135.2Y-136.0
X135.5Y-103.1
X135.725Y-141.325
X135.8Y-144.8
X135.9Y-157.9
X136.0Y-135.1
X136.05Y-124.75
X136.3Y-102.1
X136.4Y-114.3
X136.8Y-136.2
X136.934Y-109.247
X136.95Y-127.0
X137.1Y-91.3
X137.1Y-93.8
X138.0Y-70.0
X138.0Y-74.0
X138.0Y-78.7
X138.4Y-97.8
X138.4Y-158.8
X138.5Y-131.8
X138.5Y-134.8
X138.7Y-138.0
X138.8Y-153.3
X138.9Y-104.5
X139.0Y-156.2
X139.2Y-89.1
X139.9Y-112.4
X139.925Y-113.625
X139.925Y-115.175
X140.4Y-102.2
X140.425Y-140.225
X140.5Y-118.1
X140.8Y-158.0
X140.904Y-144.9
X140.957Y-126.225
X141.3Y-105.8
X141.325Y-111.975
X141.4Y-109.0
X141.4Y-141.1
X141.4Y-150.2
X141.5Y-100.9
X141.6Y-136.8
X141.725Y-125.5
X141.8Y-51.7
X141.8Y-146.5
X141.9Y-104.4
X141.9Y-126.9
X142.0Y-70.0
X142.0Y-93.7
X142.0Y-98.0
X142.1Y-79.9
X142.1Y-119.4
X142.104Y-110.175
X142.525Y-145.2
X142.55Y-124.6
X143.4Y-158.7
X143.5Y-148.4
X143.8Y-105.6
X143.8Y-153.5
X144.0Y-61.7
X144.1Y-98.9
X144.158Y-112.247
X144.2Y-113.9
X144.4Y-116.2
X144.4Y-121.2
X144.6Y-82.4
X144.8Y-138.1
X144.9Y-140.4
X145.0Y-105.7
X145.0Y-107.9
X145.1Y-134.7
X145.2Y-101.6
X145.4Y-128.6
X145.4Y-150.1
X145.5Y-156.8
X145.9Y-130.8
X146.0Y-70.0
X146.0Y-77.0
X146.0Y-79.4
X146.0Y-152.8
X146.3Y-93.7
X146.9Y-154.8
X147.4Y-88.8
X147.4Y-119.6
X147.425Y-114.175
X147.5Y-91.8
X147.5Y-105.4
X147.5Y-126.1
X147.9Y-97.9
X147.9Y-100.2
X147.9Y-110.95
X148.0Y-73.0
X148.0Y-75.0
X148.275Y-125.407
X148.6Y-114.9
X148.6Y-119.9
X148.9Y-95.35
X148.9Y-110.6
X149.0Y-124.7
X149.1Y-112.7
X149.1Y-118.825
X149.1Y-155.5
X149.2Y-108.6
X149.3Y-143.1
X149.3Y-145.3
X149.3Y-147.9
X149.3Y-150.7
X149.5Y-105.3
X149.9Y-153.5
X150.0Y-111.7
X150.2Y-119.7
X150.3Y-117.1
X150.4Y-108.4
X150.4Y-135.6
X150.6Y-118.1
X150.8Y-128.9
X150.9Y-97.3
X150.9Y-132.2
X151.0Y-73.0
X151.0Y-77.0
X151.1Y-103.7
X151.2Y-125.6
X151.6Y-98.95
X151.7Y-155.5
X152.1Y-101.25
X152.2Y-104.5
X152.648Y-98.947
X153.1Y-95.4
X153.2Y-108.6
X153.5Y-138.8
X153.7Y-77.0
X153.7Y-83.7
X153.8Y-98.95
X153.9Y-104.2
X154.6Y-128.4
X155.3Y-108.6
X155.35Y-54.61
X155.4Y-96.2
X155.5Y-99.7
X155.5Y-104.3
X156.4Y-97.5
X157.4Y-96.2
X157.6Y-102.3
X157.6Y-104.3
X157.6Y-108.6
X157.7Y-54.1
X157.7Y-56.9
X157.75Y-89.8
X157.8Y-83.7
T4
X107.3Y-59.3
X108.6Y-131.8
X108.9Y-61.9
X110.5Y-59.4
X114.9Y-127.8
X114.9Y-134.3
X114.9Y-138.8
X114.9Y-143.2
X114.9Y-148.1
X116.7Y-151.0
X119.4Y-152.6
X121.9Y-154.1
X132.4Y-57.4
X132.4Y-60.1
X134.1Y-67.3
X135.9Y-67.3
X136.6Y-52.2
X140.9Y-62.3
X146.1Y-63.4
X147.55Y-83.55
X148.45Y-87.1
X148.9Y-59.0
X149.5Y-63.4
X151.1Y-80.5
X154.1Y-63.1
X155.15Y-87.45
X155.9Y-61.4
T5
X145.6Y-67.35
X149.2Y-68.0
X149.7Y-65.9
X151.8Y-69.4
X154.36Y-66.04
X154.4Y-68.1
T6
X102.5Y-63.5
X102.5Y-66.04
X102.5Y-68.58
X102.5Y-71.12
X102.5Y-73.66
X102.5Y-76.2
X102.5Y-78.74
X102.5Y-81.28
X102.5Y-130.0
X102.5Y-132.54
X102.5Y-135.08
X102.5Y-137.62
X102.5Y-140.16
X102.5Y-142.7
X102.5Y-145.24
X102.5Y-147.78
X117.4Y-54.66
X117.4Y-57.2
X119.94Y-54.66
X119.94Y-57.2
X122.48Y-54.66
X122.48Y-57.2
X125.02Y-54.66
X125.02Y-57.2
X127.56Y-54.66
X127.56Y-57.2
X154.56Y-111.1
X157.1Y-111.1
X157.5Y-63.5
X157.5Y-66.04
X157.5Y-68.58
X157.5Y-71.12
X157.5Y-73.66
X157.5Y-76.2
X157.5Y-78.74
X157.5Y-81.28
X157.5Y-115.08
X157.5Y-117.62
X157.5Y-120.16
X157.5Y-122.7
X157.5Y-130.0
X157.5Y-132.54
X157.5Y-135.08
X157.5Y-137.62
X157.5Y-140.16
X157.5Y-142.7
X157.5Y-145.24
X157.5Y-147.78
T7
X104.3Y-86.8
X106.4Y-155.2
X111.1Y-155.2
X115.75Y-62.95
X116.0Y-155.2
X122.3Y-63.0
T2
G00X157.675Y-150.5
M15
G01X157.025Y-150.5
M16
G05
G00X157.675Y-157.5
M15
G01X157.025Y-157.5
M16
G05
T3
G00X154.65Y-151.65
M15
G01X154.65Y-151.35
M16
G05
G00X154.65Y-156.65
M15
G01X154.65Y-156.35
M16
G05
M30
