G04 #@! TF.GenerationSoftware,KiCad,Pcbnew,(5.1.5)-3*
G04 #@! TF.CreationDate,2020-10-12T14:52:06+01:00*
G04 #@! TF.ProjectId,Retrospector_Components,52657472-6f73-4706-9563-746f725f436f,rev?*
G04 #@! TF.SameCoordinates,Original*
G04 #@! TF.FileFunction,Legend,Bot*
G04 #@! TF.FilePolarity,Positive*
%FSLAX46Y46*%
G04 Gerber Fmt 4.6, Leading zero omitted, Abs format (unit mm)*
G04 Created by KiCad (PCBNEW (5.1.5)-3) date 2020-10-12 14:52:06*
%MOMM*%
%LPD*%
G04 APERTURE LIST*
%ADD10C,0.120000*%
%ADD11C,0.150000*%
G04 APERTURE END LIST*
D10*
X158830000Y-149110000D02*
X156170000Y-149110000D01*
X158830000Y-131270000D02*
X158830000Y-149110000D01*
X156170000Y-131270000D02*
X156170000Y-149110000D01*
X158830000Y-131270000D02*
X156170000Y-131270000D01*
X158830000Y-130000000D02*
X158830000Y-128670000D01*
X158830000Y-128670000D02*
X157500000Y-128670000D01*
X158830000Y-82610000D02*
X156170000Y-82610000D01*
X158830000Y-64770000D02*
X158830000Y-82610000D01*
X156170000Y-64770000D02*
X156170000Y-82610000D01*
X158830000Y-64770000D02*
X156170000Y-64770000D01*
X158830000Y-63500000D02*
X158830000Y-62170000D01*
X158830000Y-62170000D02*
X157500000Y-62170000D01*
X103830000Y-149110000D02*
X101170000Y-149110000D01*
X103830000Y-131270000D02*
X103830000Y-149110000D01*
X101170000Y-131270000D02*
X101170000Y-149110000D01*
X103830000Y-131270000D02*
X101170000Y-131270000D01*
X103830000Y-130000000D02*
X103830000Y-128670000D01*
X103830000Y-128670000D02*
X102500000Y-128670000D01*
X103830000Y-82610000D02*
X101170000Y-82610000D01*
X103830000Y-64770000D02*
X103830000Y-82610000D01*
X101170000Y-64770000D02*
X101170000Y-82610000D01*
X103830000Y-64770000D02*
X101170000Y-64770000D01*
X103830000Y-63500000D02*
X103830000Y-62170000D01*
X103830000Y-62170000D02*
X102500000Y-62170000D01*
D11*
X157833333Y-127122380D02*
X157833333Y-127836666D01*
X157880952Y-127979523D01*
X157976190Y-128074761D01*
X158119047Y-128122380D01*
X158214285Y-128122380D01*
X156928571Y-127122380D02*
X157119047Y-127122380D01*
X157214285Y-127170000D01*
X157261904Y-127217619D01*
X157357142Y-127360476D01*
X157404761Y-127550952D01*
X157404761Y-127931904D01*
X157357142Y-128027142D01*
X157309523Y-128074761D01*
X157214285Y-128122380D01*
X157023809Y-128122380D01*
X156928571Y-128074761D01*
X156880952Y-128027142D01*
X156833333Y-127931904D01*
X156833333Y-127693809D01*
X156880952Y-127598571D01*
X156928571Y-127550952D01*
X157023809Y-127503333D01*
X157214285Y-127503333D01*
X157309523Y-127550952D01*
X157357142Y-127598571D01*
X157404761Y-127693809D01*
X157833333Y-60622380D02*
X157833333Y-61336666D01*
X157880952Y-61479523D01*
X157976190Y-61574761D01*
X158119047Y-61622380D01*
X158214285Y-61622380D01*
X156880952Y-60622380D02*
X157357142Y-60622380D01*
X157404761Y-61098571D01*
X157357142Y-61050952D01*
X157261904Y-61003333D01*
X157023809Y-61003333D01*
X156928571Y-61050952D01*
X156880952Y-61098571D01*
X156833333Y-61193809D01*
X156833333Y-61431904D01*
X156880952Y-61527142D01*
X156928571Y-61574761D01*
X157023809Y-61622380D01*
X157261904Y-61622380D01*
X157357142Y-61574761D01*
X157404761Y-61527142D01*
X102833333Y-127122380D02*
X102833333Y-127836666D01*
X102880952Y-127979523D01*
X102976190Y-128074761D01*
X103119047Y-128122380D01*
X103214285Y-128122380D01*
X101928571Y-127455714D02*
X101928571Y-128122380D01*
X102166666Y-127074761D02*
X102404761Y-127789047D01*
X101785714Y-127789047D01*
X102833333Y-60622380D02*
X102833333Y-61336666D01*
X102880952Y-61479523D01*
X102976190Y-61574761D01*
X103119047Y-61622380D01*
X103214285Y-61622380D01*
X102452380Y-60622380D02*
X101833333Y-60622380D01*
X102166666Y-61003333D01*
X102023809Y-61003333D01*
X101928571Y-61050952D01*
X101880952Y-61098571D01*
X101833333Y-61193809D01*
X101833333Y-61431904D01*
X101880952Y-61527142D01*
X101928571Y-61574761D01*
X102023809Y-61622380D01*
X102309523Y-61622380D01*
X102404761Y-61574761D01*
X102452380Y-61527142D01*
M02*
