G04 #@! TF.GenerationSoftware,KiCad,Pcbnew,9.0.3*
G04 #@! TF.CreationDate,2026-04-17T11:48:44+01:00*
G04 #@! TF.ProjectId,Retrospector_Components,52657472-6f73-4706-9563-746f725f436f,rev?*
G04 #@! TF.SameCoordinates,Original*
G04 #@! TF.FileFunction,Paste,Top*
G04 #@! TF.FilePolarity,Positive*
%FSLAX46Y46*%
G04 Gerber Fmt 4.6, Leading zero omitted, Abs format (unit mm)*
G04 Created by KiCad (PCBNEW 9.0.3) date 2026-04-17 11:48:44*
%MOMM*%
%LPD*%
G01*
G04 APERTURE LIST*
G04 Aperture macros list*
%AMRoundRect*
0 Rectangle with rounded corners*
0 $1 Rounding radius*
0 $2 $3 $4 $5 $6 $7 $8 $9 X,Y pos of 4 corners*
0 Add a 4 corners polygon primitive as box body*
4,1,4,$2,$3,$4,$5,$6,$7,$8,$9,$2,$3,0*
0 Add four circle primitives for the rounded corners*
1,1,$1+$1,$2,$3*
1,1,$1+$1,$4,$5*
1,1,$1+$1,$6,$7*
1,1,$1+$1,$8,$9*
0 Add four rect primitives between the rounded corners*
20,1,$1+$1,$2,$3,$4,$5,0*
20,1,$1+$1,$4,$5,$6,$7,0*
20,1,$1+$1,$6,$7,$8,$9,0*
20,1,$1+$1,$8,$9,$2,$3,0*%
G04 Aperture macros list end*
%ADD10R,0.750000X1.200000*%
%ADD11R,1.200000X0.750000*%
%ADD12R,1.250000X1.000000*%
%ADD13R,2.600000X1.600000*%
%ADD14R,1.600000X2.600000*%
%ADD15R,0.800000X0.900000*%
%ADD16R,0.900000X1.200000*%
%ADD17R,1.300000X1.500000*%
%ADD18RoundRect,0.100000X-0.100000X0.400000X-0.100000X-0.400000X0.100000X-0.400000X0.100000X0.400000X0*%
%ADD19R,0.508000X1.143000*%
%ADD20R,3.000000X2.400000*%
%ADD21RoundRect,0.075000X-0.075000X0.662500X-0.075000X-0.662500X0.075000X-0.662500X0.075000X0.662500X0*%
%ADD22RoundRect,0.075000X-0.662500X0.075000X-0.662500X-0.075000X0.662500X-0.075000X0.662500X0.075000X0*%
%ADD23R,1.350000X0.400000*%
%ADD24R,1.000000X1.250000*%
%ADD25R,1.000000X2.500000*%
%ADD26R,2.500000X1.000000*%
%ADD27R,0.600000X1.550000*%
%ADD28R,2.400000X2.000000*%
%ADD29R,1.500000X2.000000*%
%ADD30R,3.800000X2.000000*%
%ADD31R,0.458000X1.510000*%
%ADD32R,3.000000X1.600000*%
%ADD33R,1.200000X0.900000*%
%ADD34R,1.143000X0.508000*%
%ADD35R,0.600000X1.500000*%
G04 APERTURE END LIST*
D10*
X129300000Y-102950000D03*
X129300000Y-104850000D03*
X139900000Y-99050000D03*
X139900000Y-100950000D03*
X129900000Y-99050000D03*
X129900000Y-100950000D03*
X142800000Y-131675000D03*
X142800000Y-133575000D03*
D11*
X137650000Y-104600000D03*
X135750000Y-104600000D03*
D10*
X120900000Y-128450000D03*
X120900000Y-130350000D03*
D11*
X120350000Y-122000000D03*
X122250000Y-122000000D03*
D10*
X123500000Y-130350000D03*
X123500000Y-128450000D03*
X131725000Y-133575000D03*
X131725000Y-131675000D03*
X156400000Y-94350000D03*
X156400000Y-96250000D03*
D11*
X150450000Y-120700000D03*
X148550000Y-120700000D03*
D10*
X149900000Y-91750000D03*
X149900000Y-89850000D03*
X127800000Y-102950000D03*
X127800000Y-104850000D03*
D12*
X156400000Y-91800000D03*
X156400000Y-89800000D03*
D10*
X154725000Y-102350000D03*
X154725000Y-104250000D03*
X153900000Y-91850000D03*
X153900000Y-89950000D03*
X151700000Y-91750000D03*
X151700000Y-89850000D03*
X153125000Y-104250000D03*
X153125000Y-102350000D03*
D13*
X135000000Y-65800000D03*
X138600000Y-65800000D03*
D14*
X108900000Y-59400000D03*
X108900000Y-55800000D03*
D12*
X156600000Y-102300000D03*
X156600000Y-104300000D03*
D15*
X104850000Y-56700000D03*
X102950000Y-56700000D03*
X103900000Y-58700000D03*
D16*
X138250000Y-52100000D03*
X134950000Y-52100000D03*
D17*
X132000000Y-67150000D03*
X132000000Y-64450000D03*
D16*
X101700000Y-101100000D03*
X101700000Y-98900000D03*
X103500000Y-101100000D03*
X103500000Y-98900000D03*
X105300000Y-101100000D03*
X105300000Y-98900000D03*
D18*
X154450000Y-94400000D03*
X153800000Y-94400000D03*
X153150000Y-94400000D03*
X152500000Y-94400000D03*
X151850000Y-94400000D03*
X151200000Y-94400000D03*
X150550000Y-94400000D03*
X149900000Y-94400000D03*
X149250000Y-94400000D03*
X148600000Y-94400000D03*
X148600000Y-100200000D03*
X149250000Y-100200000D03*
X149900000Y-100200000D03*
X150550000Y-100200000D03*
X151200000Y-100200000D03*
X151850000Y-100200000D03*
X152500000Y-100200000D03*
X153150000Y-100200000D03*
X153800000Y-100200000D03*
X154450000Y-100200000D03*
D19*
X117110000Y-94298000D03*
X115840000Y-94298000D03*
X114570000Y-94298000D03*
X113300000Y-94298000D03*
X112030000Y-94298000D03*
X110760000Y-94298000D03*
X109490000Y-94298000D03*
X109490000Y-100648000D03*
X110760000Y-100648000D03*
X112030000Y-100648000D03*
X113300000Y-100648000D03*
X114570000Y-100648000D03*
X115840000Y-100648000D03*
X117110000Y-100648000D03*
D20*
X132550000Y-100000000D03*
X137250000Y-100000000D03*
D10*
X137325000Y-133550000D03*
X137325000Y-131650000D03*
X107000000Y-100950000D03*
X107000000Y-99050000D03*
D21*
X143775000Y-107262500D03*
X143275000Y-107262500D03*
X142775000Y-107262500D03*
X142275000Y-107262500D03*
X141775000Y-107262500D03*
X141275000Y-107262500D03*
X140775000Y-107262500D03*
X140275000Y-107262500D03*
X139775000Y-107262500D03*
X139275000Y-107262500D03*
X138775000Y-107262500D03*
X138275000Y-107262500D03*
X137775000Y-107262500D03*
X137275000Y-107262500D03*
X136775000Y-107262500D03*
X136275000Y-107262500D03*
X135775000Y-107262500D03*
X135275000Y-107262500D03*
X134775000Y-107262500D03*
X134275000Y-107262500D03*
X133775000Y-107262500D03*
X133275000Y-107262500D03*
X132775000Y-107262500D03*
X132275000Y-107262500D03*
X131775000Y-107262500D03*
X131275000Y-107262500D03*
X130775000Y-107262500D03*
X130275000Y-107262500D03*
X129775000Y-107262500D03*
X129275000Y-107262500D03*
X128775000Y-107262500D03*
X128275000Y-107262500D03*
X127775000Y-107262500D03*
X127275000Y-107262500D03*
X126775000Y-107262500D03*
X126275000Y-107262500D03*
D22*
X124362500Y-109175000D03*
X124362500Y-109675000D03*
X124362500Y-110175000D03*
X124362500Y-110675000D03*
X124362500Y-111175000D03*
X124362500Y-111675000D03*
X124362500Y-112175000D03*
X124362500Y-112675000D03*
X124362500Y-113175000D03*
X124362500Y-113675000D03*
X124362500Y-114175000D03*
X124362500Y-114675000D03*
X124362500Y-115175000D03*
X124362500Y-115675000D03*
X124362500Y-116175000D03*
X124362500Y-116675000D03*
X124362500Y-117175000D03*
X124362500Y-117675000D03*
X124362500Y-118175000D03*
X124362500Y-118675000D03*
X124362500Y-119175000D03*
X124362500Y-119675000D03*
X124362500Y-120175000D03*
X124362500Y-120675000D03*
X124362500Y-121175000D03*
X124362500Y-121675000D03*
X124362500Y-122175000D03*
X124362500Y-122675000D03*
X124362500Y-123175000D03*
X124362500Y-123675000D03*
X124362500Y-124175000D03*
X124362500Y-124675000D03*
X124362500Y-125175000D03*
X124362500Y-125675000D03*
X124362500Y-126175000D03*
X124362500Y-126675000D03*
D21*
X126275000Y-128587500D03*
X126775000Y-128587500D03*
X127275000Y-128587500D03*
X127775000Y-128587500D03*
X128275000Y-128587500D03*
X128775000Y-128587500D03*
X129275000Y-128587500D03*
X129775000Y-128587500D03*
X130275000Y-128587500D03*
X130775000Y-128587500D03*
X131275000Y-128587500D03*
X131775000Y-128587500D03*
X132275000Y-128587500D03*
X132775000Y-128587500D03*
X133275000Y-128587500D03*
X133775000Y-128587500D03*
X134275000Y-128587500D03*
X134775000Y-128587500D03*
X135275000Y-128587500D03*
X135775000Y-128587500D03*
X136275000Y-128587500D03*
X136775000Y-128587500D03*
X137275000Y-128587500D03*
X137775000Y-128587500D03*
X138275000Y-128587500D03*
X138775000Y-128587500D03*
X139275000Y-128587500D03*
X139775000Y-128587500D03*
X140275000Y-128587500D03*
X140775000Y-128587500D03*
X141275000Y-128587500D03*
X141775000Y-128587500D03*
X142275000Y-128587500D03*
X142775000Y-128587500D03*
X143275000Y-128587500D03*
X143775000Y-128587500D03*
D22*
X145687500Y-126675000D03*
X145687500Y-126175000D03*
X145687500Y-125675000D03*
X145687500Y-125175000D03*
X145687500Y-124675000D03*
X145687500Y-124175000D03*
X145687500Y-123675000D03*
X145687500Y-123175000D03*
X145687500Y-122675000D03*
X145687500Y-122175000D03*
X145687500Y-121675000D03*
X145687500Y-121175000D03*
X145687500Y-120675000D03*
X145687500Y-120175000D03*
X145687500Y-119675000D03*
X145687500Y-119175000D03*
X145687500Y-118675000D03*
X145687500Y-118175000D03*
X145687500Y-117675000D03*
X145687500Y-117175000D03*
X145687500Y-116675000D03*
X145687500Y-116175000D03*
X145687500Y-115675000D03*
X145687500Y-115175000D03*
X145687500Y-114675000D03*
X145687500Y-114175000D03*
X145687500Y-113675000D03*
X145687500Y-113175000D03*
X145687500Y-112675000D03*
X145687500Y-112175000D03*
X145687500Y-111675000D03*
X145687500Y-111175000D03*
X145687500Y-110675000D03*
X145687500Y-110175000D03*
X145687500Y-109675000D03*
X145687500Y-109175000D03*
D11*
X150450000Y-115675000D03*
X148550000Y-115675000D03*
X150350000Y-109300000D03*
X148450000Y-109300000D03*
D10*
X145125000Y-133575000D03*
X145125000Y-131675000D03*
D23*
X154650000Y-155300000D03*
X154650000Y-154650000D03*
X154650000Y-154000000D03*
X154650000Y-153350000D03*
X154650000Y-152700000D03*
D24*
X113700000Y-91900000D03*
X111700000Y-91900000D03*
D11*
X104850000Y-54900000D03*
X102950000Y-54900000D03*
D25*
X138100000Y-55100000D03*
X135100000Y-55100000D03*
D26*
X157700000Y-58500000D03*
X157700000Y-55500000D03*
D10*
X140400000Y-51750000D03*
X140400000Y-53650000D03*
D27*
X146205000Y-53600000D03*
X144935000Y-53600000D03*
X143665000Y-53600000D03*
X142395000Y-53600000D03*
X142395000Y-59000000D03*
X143665000Y-59000000D03*
X144935000Y-59000000D03*
X146205000Y-59000000D03*
D16*
X146050000Y-61700000D03*
X142750000Y-61700000D03*
D10*
X147800000Y-57150000D03*
X147800000Y-55250000D03*
D28*
X152300000Y-57900000D03*
X152300000Y-51900000D03*
D29*
X154100000Y-61350000D03*
X151800000Y-61350000D03*
D30*
X151800000Y-67650000D03*
D29*
X149500000Y-61350000D03*
D10*
X143825000Y-138450000D03*
X143825000Y-140350000D03*
X139525000Y-138450000D03*
X139525000Y-140350000D03*
D11*
X138550000Y-157275000D03*
X136650000Y-157275000D03*
X143425000Y-157275000D03*
X141525000Y-157275000D03*
D31*
X145425000Y-143275000D03*
X144625000Y-143275000D03*
X143825000Y-143275000D03*
X143025000Y-143275000D03*
X142225000Y-143275000D03*
X141425000Y-143275000D03*
X140625000Y-143275000D03*
X139825000Y-143275000D03*
X139025000Y-143275000D03*
X138225000Y-143275000D03*
X137425000Y-143275000D03*
X136625000Y-143275000D03*
X135825000Y-143275000D03*
X135025000Y-143275000D03*
X134225000Y-143275000D03*
X133425000Y-143275000D03*
X132625000Y-143275000D03*
X131825000Y-143275000D03*
X131025000Y-143275000D03*
X130225000Y-143275000D03*
X129425000Y-143275000D03*
X128625000Y-143275000D03*
X127825000Y-143275000D03*
X127025000Y-143275000D03*
X126225000Y-143275000D03*
X125425000Y-143275000D03*
X124625000Y-143275000D03*
X124625000Y-154775000D03*
X125425000Y-154775000D03*
X126225000Y-154775000D03*
X127025000Y-154775000D03*
X127825000Y-154775000D03*
X128625000Y-154775000D03*
X129425000Y-154775000D03*
X130225000Y-154775000D03*
X131025000Y-154775000D03*
X131825000Y-154775000D03*
X132625000Y-154775000D03*
X133425000Y-154775000D03*
X134225000Y-154775000D03*
X135025000Y-154775000D03*
X135825000Y-154775000D03*
X136625000Y-154775000D03*
X137425000Y-154775000D03*
X138225000Y-154775000D03*
X139025000Y-154775000D03*
X139825000Y-154775000D03*
X140625000Y-154775000D03*
X141425000Y-154775000D03*
X142225000Y-154775000D03*
X143025000Y-154775000D03*
X143825000Y-154775000D03*
X144625000Y-154775000D03*
X145425000Y-154775000D03*
D10*
X123000000Y-138450000D03*
X123000000Y-140350000D03*
X145700000Y-138450000D03*
X145700000Y-140350000D03*
D32*
X146400000Y-65800000D03*
X142000000Y-65800000D03*
D10*
X113800000Y-113850000D03*
X113800000Y-115750000D03*
D33*
X112000000Y-107800000D03*
X109800000Y-107800000D03*
X112000000Y-111400000D03*
X109800000Y-111400000D03*
X106900000Y-109600000D03*
X104700000Y-109600000D03*
D10*
X103200000Y-113950000D03*
X103200000Y-115850000D03*
D33*
X104700000Y-107800000D03*
X106900000Y-107800000D03*
X104700000Y-111400000D03*
X106900000Y-111400000D03*
X109800000Y-109600000D03*
X112000000Y-109600000D03*
X106700000Y-124300000D03*
X104500000Y-124300000D03*
X109900000Y-126100000D03*
X112100000Y-126100000D03*
D34*
X105198000Y-114090000D03*
X105198000Y-115360000D03*
X105198000Y-116630000D03*
X105198000Y-117900000D03*
X105198000Y-119170000D03*
X105198000Y-120440000D03*
X105198000Y-121710000D03*
X111548000Y-121710000D03*
X111548000Y-120440000D03*
X111548000Y-119170000D03*
X111548000Y-117900000D03*
X111548000Y-116630000D03*
X111548000Y-115360000D03*
X111548000Y-114090000D03*
D33*
X112100000Y-124300000D03*
X109900000Y-124300000D03*
X106700000Y-126100000D03*
X104500000Y-126100000D03*
D10*
X119900000Y-100950000D03*
X119900000Y-99050000D03*
D16*
X101700000Y-93800000D03*
X101700000Y-96000000D03*
X123400000Y-101100000D03*
X123400000Y-98900000D03*
X125200000Y-101100000D03*
X125200000Y-98900000D03*
X121600000Y-101100000D03*
X121600000Y-98900000D03*
D10*
X107000000Y-95850000D03*
X107000000Y-93950000D03*
D16*
X105300000Y-96000000D03*
X105300000Y-93800000D03*
D10*
X115000000Y-70550000D03*
X115000000Y-72450000D03*
X113100000Y-70550000D03*
X113100000Y-72450000D03*
X119000000Y-85850000D03*
X119000000Y-83950000D03*
X109000000Y-85850000D03*
X109000000Y-83950000D03*
D16*
X112400000Y-83800000D03*
X112400000Y-86000000D03*
X110700000Y-86000000D03*
X110700000Y-83800000D03*
X116700000Y-70400000D03*
X116700000Y-72600000D03*
X115500000Y-83800000D03*
X115500000Y-86000000D03*
X109600000Y-72600000D03*
X109600000Y-70400000D03*
X118400000Y-72600000D03*
X118400000Y-70400000D03*
X117300000Y-86000000D03*
X117300000Y-83800000D03*
X111400000Y-70400000D03*
X111400000Y-72600000D03*
D35*
X118395000Y-75400000D03*
X117125000Y-75400000D03*
X115855000Y-75400000D03*
X114585000Y-75400000D03*
X113315000Y-75400000D03*
X112045000Y-75400000D03*
X110775000Y-75400000D03*
X109505000Y-75400000D03*
X109505000Y-80800000D03*
X110775000Y-80800000D03*
X112045000Y-80800000D03*
X113315000Y-80800000D03*
X114585000Y-80800000D03*
X115855000Y-80800000D03*
X117125000Y-80800000D03*
X118395000Y-80800000D03*
D10*
X122400000Y-70550000D03*
X122400000Y-72450000D03*
D16*
X120700000Y-70400000D03*
X120700000Y-72600000D03*
D33*
X105000000Y-53000000D03*
X102800000Y-53000000D03*
D16*
X110550000Y-52100000D03*
X107250000Y-52100000D03*
X103500000Y-96000000D03*
X103500000Y-93800000D03*
D10*
X134400000Y-90250000D03*
X134400000Y-92150000D03*
X137800000Y-83950000D03*
X137800000Y-85850000D03*
X126800000Y-72450000D03*
X126800000Y-70550000D03*
X124600000Y-83850000D03*
X124600000Y-85750000D03*
X135600000Y-72450000D03*
X135600000Y-70550000D03*
X127800000Y-90250000D03*
X127800000Y-92150000D03*
D16*
X133650000Y-72650000D03*
X133650000Y-70450000D03*
X128700000Y-72600000D03*
X128700000Y-70400000D03*
X127900000Y-83800000D03*
X127900000Y-86000000D03*
X144600000Y-89100000D03*
X144600000Y-86900000D03*
X144600000Y-73500000D03*
X144600000Y-75700000D03*
X129600000Y-83800000D03*
X129600000Y-86000000D03*
D19*
X127340000Y-81202000D03*
X128610000Y-81202000D03*
X129880000Y-81202000D03*
X131150000Y-81202000D03*
X132420000Y-81202000D03*
X133690000Y-81202000D03*
X134960000Y-81202000D03*
X134960000Y-74852000D03*
X133690000Y-74852000D03*
X132420000Y-74852000D03*
X131150000Y-74852000D03*
X129880000Y-74852000D03*
X128610000Y-74852000D03*
X127340000Y-74852000D03*
D16*
X132800000Y-83800000D03*
X132800000Y-86000000D03*
X134500000Y-83800000D03*
X134500000Y-86000000D03*
X126200000Y-83800000D03*
X126200000Y-86000000D03*
X136200000Y-83800000D03*
X136200000Y-86000000D03*
D27*
X144655000Y-78400000D03*
X143385000Y-78400000D03*
X142115000Y-78400000D03*
X140845000Y-78400000D03*
X140845000Y-83800000D03*
X142115000Y-83800000D03*
X143385000Y-83800000D03*
X144655000Y-83800000D03*
D16*
X141000000Y-75700000D03*
X141000000Y-73500000D03*
X142800000Y-75700000D03*
X142800000Y-73500000D03*
X142800000Y-86900000D03*
X142800000Y-89100000D03*
X141000000Y-86900000D03*
X141000000Y-89100000D03*
D10*
X119900000Y-94050000D03*
X119900000Y-95950000D03*
D16*
X121600000Y-96100000D03*
X121600000Y-93900000D03*
X123400000Y-93900000D03*
X123400000Y-96100000D03*
X125100000Y-93900000D03*
X125100000Y-96100000D03*
D11*
X120350000Y-109200000D03*
X122250000Y-109200000D03*
X120350000Y-116100000D03*
X122250000Y-116100000D03*
D10*
X103200000Y-118850000D03*
X103200000Y-120750000D03*
X147800000Y-81350000D03*
X147800000Y-79450000D03*
X131200000Y-83950000D03*
X131200000Y-85850000D03*
X135725000Y-138425000D03*
X135725000Y-140325000D03*
D32*
X139000000Y-60100000D03*
X134600000Y-60100000D03*
M02*
