G04 #@! TF.GenerationSoftware,KiCad,Pcbnew,(5.1.5)-3*
G04 #@! TF.CreationDate,2020-10-12T14:52:06+01:00*
G04 #@! TF.ProjectId,Retrospector_Components,52657472-6f73-4706-9563-746f725f436f,rev?*
G04 #@! TF.SameCoordinates,Original*
G04 #@! TF.FileFunction,Soldermask,Bot*
G04 #@! TF.FilePolarity,Negative*
%FSLAX46Y46*%
G04 Gerber Fmt 4.6, Leading zero omitted, Abs format (unit mm)*
G04 Created by KiCad (PCBNEW (5.1.5)-3) date 2020-10-12 14:52:06*
%MOMM*%
%LPD*%
G04 APERTURE LIST*
%ADD10C,0.100000*%
G04 APERTURE END LIST*
D10*
G36*
X102820857Y-156442272D02*
G01*
X103021043Y-156525192D01*
X103021045Y-156525193D01*
X103111738Y-156585792D01*
X103201208Y-156645574D01*
X103354426Y-156798792D01*
X103474808Y-156978957D01*
X103557728Y-157179143D01*
X103600000Y-157391658D01*
X103600000Y-157608342D01*
X103557728Y-157820857D01*
X103486521Y-157992765D01*
X103474807Y-158021045D01*
X103354425Y-158201209D01*
X103201209Y-158354425D01*
X103021045Y-158474807D01*
X103021044Y-158474808D01*
X103021043Y-158474808D01*
X102820857Y-158557728D01*
X102608342Y-158600000D01*
X102391658Y-158600000D01*
X102179143Y-158557728D01*
X101978957Y-158474808D01*
X101978956Y-158474808D01*
X101978955Y-158474807D01*
X101798791Y-158354425D01*
X101645575Y-158201209D01*
X101525193Y-158021045D01*
X101513479Y-157992765D01*
X101442272Y-157820857D01*
X101400000Y-157608342D01*
X101400000Y-157391658D01*
X101442272Y-157179143D01*
X101525192Y-156978957D01*
X101645574Y-156798792D01*
X101798792Y-156645574D01*
X101888262Y-156585792D01*
X101978955Y-156525193D01*
X101978957Y-156525192D01*
X102179143Y-156442272D01*
X102391658Y-156400000D01*
X102608342Y-156400000D01*
X102820857Y-156442272D01*
G37*
G36*
X157723015Y-157007234D02*
G01*
X157817270Y-157035826D01*
X157904128Y-157082253D01*
X157980264Y-157144736D01*
X158042747Y-157220872D01*
X158089174Y-157307730D01*
X158117766Y-157401985D01*
X158127419Y-157500000D01*
X158117766Y-157598015D01*
X158089174Y-157692270D01*
X158042747Y-157779128D01*
X157980264Y-157855264D01*
X157904128Y-157917747D01*
X157817270Y-157964174D01*
X157723015Y-157992766D01*
X157649564Y-158000000D01*
X157050436Y-158000000D01*
X156976985Y-157992766D01*
X156882730Y-157964174D01*
X156795872Y-157917747D01*
X156719736Y-157855264D01*
X156657253Y-157779128D01*
X156610826Y-157692270D01*
X156582234Y-157598015D01*
X156572581Y-157500000D01*
X156582234Y-157401985D01*
X156610826Y-157307730D01*
X156657253Y-157220872D01*
X156719736Y-157144736D01*
X156795872Y-157082253D01*
X156882730Y-157035826D01*
X156976985Y-157007234D01*
X157050436Y-157000000D01*
X157649564Y-157000000D01*
X157723015Y-157007234D01*
G37*
G36*
X154743116Y-155881873D02*
G01*
X154795681Y-155897818D01*
X154832658Y-155909035D01*
X154910453Y-155950618D01*
X154915173Y-155953141D01*
X154987501Y-156012499D01*
X155046859Y-156084827D01*
X155090966Y-156167346D01*
X155118127Y-156256884D01*
X155125000Y-156326668D01*
X155125000Y-156673332D01*
X155118127Y-156743116D01*
X155101238Y-156798791D01*
X155090965Y-156832658D01*
X155049382Y-156910453D01*
X155046859Y-156915173D01*
X154987501Y-156987501D01*
X154915173Y-157046859D01*
X154886576Y-157062144D01*
X154832657Y-157090965D01*
X154809358Y-157098033D01*
X154743115Y-157118127D01*
X154650000Y-157127298D01*
X154556884Y-157118127D01*
X154504319Y-157102182D01*
X154467342Y-157090965D01*
X154384829Y-157046860D01*
X154384827Y-157046859D01*
X154312499Y-156987501D01*
X154253141Y-156915173D01*
X154237856Y-156886576D01*
X154209035Y-156832657D01*
X154198762Y-156798791D01*
X154181873Y-156743115D01*
X154175000Y-156673331D01*
X154175000Y-156326668D01*
X154181873Y-156256884D01*
X154190500Y-156228444D01*
X154209034Y-156167345D01*
X154253142Y-156084827D01*
X154312500Y-156012499D01*
X154384828Y-155953141D01*
X154389548Y-155950618D01*
X154467343Y-155909035D01*
X154490642Y-155901967D01*
X154556885Y-155881873D01*
X154650000Y-155872702D01*
X154743116Y-155881873D01*
G37*
G36*
X116273126Y-153826900D02*
G01*
X116408365Y-153853801D01*
X116663149Y-153959336D01*
X116892448Y-154112549D01*
X117087451Y-154307552D01*
X117240664Y-154536851D01*
X117346199Y-154791635D01*
X117400000Y-155062112D01*
X117400000Y-155337888D01*
X117346199Y-155608365D01*
X117240664Y-155863149D01*
X117087451Y-156092448D01*
X116892448Y-156287451D01*
X116663149Y-156440664D01*
X116408365Y-156546199D01*
X116273127Y-156573099D01*
X116137889Y-156600000D01*
X115862111Y-156600000D01*
X115726873Y-156573099D01*
X115591635Y-156546199D01*
X115336851Y-156440664D01*
X115107552Y-156287451D01*
X114912549Y-156092448D01*
X114759336Y-155863149D01*
X114653801Y-155608365D01*
X114600000Y-155337888D01*
X114600000Y-155062112D01*
X114653801Y-154791635D01*
X114759336Y-154536851D01*
X114912549Y-154307552D01*
X115107552Y-154112549D01*
X115336851Y-153959336D01*
X115591635Y-153853801D01*
X115726874Y-153826900D01*
X115862111Y-153800000D01*
X116137889Y-153800000D01*
X116273126Y-153826900D01*
G37*
G36*
X111373126Y-153826900D02*
G01*
X111508365Y-153853801D01*
X111763149Y-153959336D01*
X111992448Y-154112549D01*
X112187451Y-154307552D01*
X112340664Y-154536851D01*
X112446199Y-154791635D01*
X112500000Y-155062112D01*
X112500000Y-155337888D01*
X112446199Y-155608365D01*
X112340664Y-155863149D01*
X112187451Y-156092448D01*
X111992448Y-156287451D01*
X111763149Y-156440664D01*
X111508365Y-156546199D01*
X111373127Y-156573099D01*
X111237889Y-156600000D01*
X110962111Y-156600000D01*
X110826873Y-156573099D01*
X110691635Y-156546199D01*
X110436851Y-156440664D01*
X110207552Y-156287451D01*
X110012549Y-156092448D01*
X109859336Y-155863149D01*
X109753801Y-155608365D01*
X109700000Y-155337888D01*
X109700000Y-155062112D01*
X109753801Y-154791635D01*
X109859336Y-154536851D01*
X110012549Y-154307552D01*
X110207552Y-154112549D01*
X110436851Y-153959336D01*
X110691635Y-153853801D01*
X110826874Y-153826900D01*
X110962111Y-153800000D01*
X111237889Y-153800000D01*
X111373126Y-153826900D01*
G37*
G36*
X106373126Y-152226900D02*
G01*
X106508365Y-152253801D01*
X106763149Y-152359336D01*
X106992448Y-152512549D01*
X107187451Y-152707552D01*
X107340664Y-152936851D01*
X107446199Y-153191635D01*
X107500000Y-153462112D01*
X107500000Y-153737888D01*
X107446199Y-154008365D01*
X107340664Y-154263149D01*
X107187451Y-154492448D01*
X106992448Y-154687451D01*
X106763149Y-154840664D01*
X106508365Y-154946199D01*
X106373127Y-154973099D01*
X106237889Y-155000000D01*
X105962111Y-155000000D01*
X105826873Y-154973099D01*
X105691635Y-154946199D01*
X105436851Y-154840664D01*
X105207552Y-154687451D01*
X105012549Y-154492448D01*
X104859336Y-154263149D01*
X104753801Y-154008365D01*
X104700000Y-153737888D01*
X104700000Y-153462112D01*
X104753801Y-153191635D01*
X104859336Y-152936851D01*
X105012549Y-152707552D01*
X105207552Y-152512549D01*
X105436851Y-152359336D01*
X105691635Y-152253801D01*
X105826874Y-152226900D01*
X105962111Y-152200000D01*
X106237889Y-152200000D01*
X106373126Y-152226900D01*
G37*
G36*
X154743116Y-150881873D02*
G01*
X154795681Y-150897818D01*
X154832658Y-150909035D01*
X154910453Y-150950618D01*
X154915173Y-150953141D01*
X154987501Y-151012499D01*
X155046859Y-151084827D01*
X155090966Y-151167346D01*
X155118127Y-151256884D01*
X155125000Y-151326668D01*
X155125000Y-151673332D01*
X155118127Y-151743116D01*
X155098033Y-151809359D01*
X155090965Y-151832658D01*
X155049382Y-151910453D01*
X155046859Y-151915173D01*
X154987501Y-151987501D01*
X154915173Y-152046859D01*
X154886576Y-152062144D01*
X154832657Y-152090965D01*
X154809358Y-152098033D01*
X154743115Y-152118127D01*
X154650000Y-152127298D01*
X154556884Y-152118127D01*
X154504319Y-152102182D01*
X154467342Y-152090965D01*
X154384829Y-152046860D01*
X154384827Y-152046859D01*
X154312499Y-151987501D01*
X154253141Y-151915173D01*
X154237856Y-151886576D01*
X154209035Y-151832657D01*
X154201967Y-151809358D01*
X154181873Y-151743115D01*
X154175000Y-151673331D01*
X154175000Y-151326668D01*
X154181873Y-151256884D01*
X154190500Y-151228444D01*
X154209034Y-151167345D01*
X154253142Y-151084827D01*
X154312500Y-151012499D01*
X154336546Y-150992765D01*
X154384828Y-150953141D01*
X154389548Y-150950618D01*
X154467343Y-150909035D01*
X154490642Y-150901967D01*
X154556885Y-150881873D01*
X154650000Y-150872702D01*
X154743116Y-150881873D01*
G37*
G36*
X157723015Y-150007234D02*
G01*
X157817270Y-150035826D01*
X157904128Y-150082253D01*
X157980264Y-150144736D01*
X158042747Y-150220872D01*
X158089174Y-150307730D01*
X158117766Y-150401985D01*
X158127419Y-150500000D01*
X158117766Y-150598015D01*
X158089174Y-150692270D01*
X158042747Y-150779128D01*
X157980264Y-150855264D01*
X157904128Y-150917747D01*
X157817270Y-150964174D01*
X157723015Y-150992766D01*
X157649564Y-151000000D01*
X157050436Y-151000000D01*
X156976985Y-150992766D01*
X156882730Y-150964174D01*
X156795872Y-150917747D01*
X156719736Y-150855264D01*
X156657253Y-150779128D01*
X156610826Y-150692270D01*
X156582234Y-150598015D01*
X156572581Y-150500000D01*
X156582234Y-150401985D01*
X156610826Y-150307730D01*
X156657253Y-150220872D01*
X156719736Y-150144736D01*
X156795872Y-150082253D01*
X156882730Y-150035826D01*
X156976985Y-150007234D01*
X157050436Y-150000000D01*
X157649564Y-150000000D01*
X157723015Y-150007234D01*
G37*
G36*
X102747935Y-146962664D02*
G01*
X102902624Y-147026739D01*
X102902626Y-147026740D01*
X103041844Y-147119762D01*
X103160238Y-147238156D01*
X103253260Y-147377374D01*
X103253261Y-147377376D01*
X103317336Y-147532065D01*
X103350000Y-147696281D01*
X103350000Y-147863719D01*
X103317336Y-148027935D01*
X103253261Y-148182624D01*
X103253260Y-148182626D01*
X103160238Y-148321844D01*
X103041844Y-148440238D01*
X102902626Y-148533260D01*
X102902625Y-148533261D01*
X102902624Y-148533261D01*
X102747935Y-148597336D01*
X102583719Y-148630000D01*
X102416281Y-148630000D01*
X102252065Y-148597336D01*
X102097376Y-148533261D01*
X102097375Y-148533261D01*
X102097374Y-148533260D01*
X101958156Y-148440238D01*
X101839762Y-148321844D01*
X101746740Y-148182626D01*
X101746739Y-148182624D01*
X101682664Y-148027935D01*
X101650000Y-147863719D01*
X101650000Y-147696281D01*
X101682664Y-147532065D01*
X101746739Y-147377376D01*
X101746740Y-147377374D01*
X101839762Y-147238156D01*
X101958156Y-147119762D01*
X102097374Y-147026740D01*
X102097376Y-147026739D01*
X102252065Y-146962664D01*
X102416281Y-146930000D01*
X102583719Y-146930000D01*
X102747935Y-146962664D01*
G37*
G36*
X157747935Y-146962664D02*
G01*
X157902624Y-147026739D01*
X157902626Y-147026740D01*
X158041844Y-147119762D01*
X158160238Y-147238156D01*
X158253260Y-147377374D01*
X158253261Y-147377376D01*
X158317336Y-147532065D01*
X158350000Y-147696281D01*
X158350000Y-147863719D01*
X158317336Y-148027935D01*
X158253261Y-148182624D01*
X158253260Y-148182626D01*
X158160238Y-148321844D01*
X158041844Y-148440238D01*
X157902626Y-148533260D01*
X157902625Y-148533261D01*
X157902624Y-148533261D01*
X157747935Y-148597336D01*
X157583719Y-148630000D01*
X157416281Y-148630000D01*
X157252065Y-148597336D01*
X157097376Y-148533261D01*
X157097375Y-148533261D01*
X157097374Y-148533260D01*
X156958156Y-148440238D01*
X156839762Y-148321844D01*
X156746740Y-148182626D01*
X156746739Y-148182624D01*
X156682664Y-148027935D01*
X156650000Y-147863719D01*
X156650000Y-147696281D01*
X156682664Y-147532065D01*
X156746739Y-147377376D01*
X156746740Y-147377374D01*
X156839762Y-147238156D01*
X156958156Y-147119762D01*
X157097374Y-147026740D01*
X157097376Y-147026739D01*
X157252065Y-146962664D01*
X157416281Y-146930000D01*
X157583719Y-146930000D01*
X157747935Y-146962664D01*
G37*
G36*
X157747935Y-144422664D02*
G01*
X157902624Y-144486739D01*
X157902626Y-144486740D01*
X158041844Y-144579762D01*
X158160238Y-144698156D01*
X158253260Y-144837374D01*
X158253261Y-144837376D01*
X158317336Y-144992065D01*
X158350000Y-145156281D01*
X158350000Y-145323719D01*
X158317336Y-145487935D01*
X158253261Y-145642624D01*
X158253260Y-145642626D01*
X158160238Y-145781844D01*
X158041844Y-145900238D01*
X157902626Y-145993260D01*
X157902625Y-145993261D01*
X157902624Y-145993261D01*
X157747935Y-146057336D01*
X157583719Y-146090000D01*
X157416281Y-146090000D01*
X157252065Y-146057336D01*
X157097376Y-145993261D01*
X157097375Y-145993261D01*
X157097374Y-145993260D01*
X156958156Y-145900238D01*
X156839762Y-145781844D01*
X156746740Y-145642626D01*
X156746739Y-145642624D01*
X156682664Y-145487935D01*
X156650000Y-145323719D01*
X156650000Y-145156281D01*
X156682664Y-144992065D01*
X156746739Y-144837376D01*
X156746740Y-144837374D01*
X156839762Y-144698156D01*
X156958156Y-144579762D01*
X157097374Y-144486740D01*
X157097376Y-144486739D01*
X157252065Y-144422664D01*
X157416281Y-144390000D01*
X157583719Y-144390000D01*
X157747935Y-144422664D01*
G37*
G36*
X102747935Y-144422664D02*
G01*
X102902624Y-144486739D01*
X102902626Y-144486740D01*
X103041844Y-144579762D01*
X103160238Y-144698156D01*
X103253260Y-144837374D01*
X103253261Y-144837376D01*
X103317336Y-144992065D01*
X103350000Y-145156281D01*
X103350000Y-145323719D01*
X103317336Y-145487935D01*
X103253261Y-145642624D01*
X103253260Y-145642626D01*
X103160238Y-145781844D01*
X103041844Y-145900238D01*
X102902626Y-145993260D01*
X102902625Y-145993261D01*
X102902624Y-145993261D01*
X102747935Y-146057336D01*
X102583719Y-146090000D01*
X102416281Y-146090000D01*
X102252065Y-146057336D01*
X102097376Y-145993261D01*
X102097375Y-145993261D01*
X102097374Y-145993260D01*
X101958156Y-145900238D01*
X101839762Y-145781844D01*
X101746740Y-145642626D01*
X101746739Y-145642624D01*
X101682664Y-145487935D01*
X101650000Y-145323719D01*
X101650000Y-145156281D01*
X101682664Y-144992065D01*
X101746739Y-144837376D01*
X101746740Y-144837374D01*
X101839762Y-144698156D01*
X101958156Y-144579762D01*
X102097374Y-144486740D01*
X102097376Y-144486739D01*
X102252065Y-144422664D01*
X102416281Y-144390000D01*
X102583719Y-144390000D01*
X102747935Y-144422664D01*
G37*
G36*
X157747935Y-141882664D02*
G01*
X157902624Y-141946739D01*
X157902626Y-141946740D01*
X158041844Y-142039762D01*
X158160238Y-142158156D01*
X158253260Y-142297374D01*
X158253261Y-142297376D01*
X158317336Y-142452065D01*
X158350000Y-142616281D01*
X158350000Y-142783719D01*
X158317336Y-142947935D01*
X158253261Y-143102624D01*
X158253260Y-143102626D01*
X158160238Y-143241844D01*
X158041844Y-143360238D01*
X157902626Y-143453260D01*
X157902625Y-143453261D01*
X157902624Y-143453261D01*
X157747935Y-143517336D01*
X157583719Y-143550000D01*
X157416281Y-143550000D01*
X157252065Y-143517336D01*
X157097376Y-143453261D01*
X157097375Y-143453261D01*
X157097374Y-143453260D01*
X156958156Y-143360238D01*
X156839762Y-143241844D01*
X156746740Y-143102626D01*
X156746739Y-143102624D01*
X156682664Y-142947935D01*
X156650000Y-142783719D01*
X156650000Y-142616281D01*
X156682664Y-142452065D01*
X156746739Y-142297376D01*
X156746740Y-142297374D01*
X156839762Y-142158156D01*
X156958156Y-142039762D01*
X157097374Y-141946740D01*
X157097376Y-141946739D01*
X157252065Y-141882664D01*
X157416281Y-141850000D01*
X157583719Y-141850000D01*
X157747935Y-141882664D01*
G37*
G36*
X102747935Y-141882664D02*
G01*
X102902624Y-141946739D01*
X102902626Y-141946740D01*
X103041844Y-142039762D01*
X103160238Y-142158156D01*
X103253260Y-142297374D01*
X103253261Y-142297376D01*
X103317336Y-142452065D01*
X103350000Y-142616281D01*
X103350000Y-142783719D01*
X103317336Y-142947935D01*
X103253261Y-143102624D01*
X103253260Y-143102626D01*
X103160238Y-143241844D01*
X103041844Y-143360238D01*
X102902626Y-143453260D01*
X102902625Y-143453261D01*
X102902624Y-143453261D01*
X102747935Y-143517336D01*
X102583719Y-143550000D01*
X102416281Y-143550000D01*
X102252065Y-143517336D01*
X102097376Y-143453261D01*
X102097375Y-143453261D01*
X102097374Y-143453260D01*
X101958156Y-143360238D01*
X101839762Y-143241844D01*
X101746740Y-143102626D01*
X101746739Y-143102624D01*
X101682664Y-142947935D01*
X101650000Y-142783719D01*
X101650000Y-142616281D01*
X101682664Y-142452065D01*
X101746739Y-142297376D01*
X101746740Y-142297374D01*
X101839762Y-142158156D01*
X101958156Y-142039762D01*
X102097374Y-141946740D01*
X102097376Y-141946739D01*
X102252065Y-141882664D01*
X102416281Y-141850000D01*
X102583719Y-141850000D01*
X102747935Y-141882664D01*
G37*
G36*
X102747935Y-139342664D02*
G01*
X102902624Y-139406739D01*
X102902626Y-139406740D01*
X103041844Y-139499762D01*
X103160238Y-139618156D01*
X103253260Y-139757374D01*
X103253261Y-139757376D01*
X103317336Y-139912065D01*
X103350000Y-140076281D01*
X103350000Y-140243719D01*
X103317336Y-140407935D01*
X103253261Y-140562624D01*
X103253260Y-140562626D01*
X103160238Y-140701844D01*
X103041844Y-140820238D01*
X102902626Y-140913260D01*
X102902625Y-140913261D01*
X102902624Y-140913261D01*
X102747935Y-140977336D01*
X102583719Y-141010000D01*
X102416281Y-141010000D01*
X102252065Y-140977336D01*
X102097376Y-140913261D01*
X102097375Y-140913261D01*
X102097374Y-140913260D01*
X101958156Y-140820238D01*
X101839762Y-140701844D01*
X101746740Y-140562626D01*
X101746739Y-140562624D01*
X101682664Y-140407935D01*
X101650000Y-140243719D01*
X101650000Y-140076281D01*
X101682664Y-139912065D01*
X101746739Y-139757376D01*
X101746740Y-139757374D01*
X101839762Y-139618156D01*
X101958156Y-139499762D01*
X102097374Y-139406740D01*
X102097376Y-139406739D01*
X102252065Y-139342664D01*
X102416281Y-139310000D01*
X102583719Y-139310000D01*
X102747935Y-139342664D01*
G37*
G36*
X157747935Y-139342664D02*
G01*
X157902624Y-139406739D01*
X157902626Y-139406740D01*
X158041844Y-139499762D01*
X158160238Y-139618156D01*
X158253260Y-139757374D01*
X158253261Y-139757376D01*
X158317336Y-139912065D01*
X158350000Y-140076281D01*
X158350000Y-140243719D01*
X158317336Y-140407935D01*
X158253261Y-140562624D01*
X158253260Y-140562626D01*
X158160238Y-140701844D01*
X158041844Y-140820238D01*
X157902626Y-140913260D01*
X157902625Y-140913261D01*
X157902624Y-140913261D01*
X157747935Y-140977336D01*
X157583719Y-141010000D01*
X157416281Y-141010000D01*
X157252065Y-140977336D01*
X157097376Y-140913261D01*
X157097375Y-140913261D01*
X157097374Y-140913260D01*
X156958156Y-140820238D01*
X156839762Y-140701844D01*
X156746740Y-140562626D01*
X156746739Y-140562624D01*
X156682664Y-140407935D01*
X156650000Y-140243719D01*
X156650000Y-140076281D01*
X156682664Y-139912065D01*
X156746739Y-139757376D01*
X156746740Y-139757374D01*
X156839762Y-139618156D01*
X156958156Y-139499762D01*
X157097374Y-139406740D01*
X157097376Y-139406739D01*
X157252065Y-139342664D01*
X157416281Y-139310000D01*
X157583719Y-139310000D01*
X157747935Y-139342664D01*
G37*
G36*
X102747935Y-136802664D02*
G01*
X102902624Y-136866739D01*
X102902626Y-136866740D01*
X103041844Y-136959762D01*
X103160238Y-137078156D01*
X103253260Y-137217374D01*
X103253261Y-137217376D01*
X103317336Y-137372065D01*
X103350000Y-137536281D01*
X103350000Y-137703719D01*
X103317336Y-137867935D01*
X103253261Y-138022624D01*
X103253260Y-138022626D01*
X103160238Y-138161844D01*
X103041844Y-138280238D01*
X102902626Y-138373260D01*
X102902625Y-138373261D01*
X102902624Y-138373261D01*
X102747935Y-138437336D01*
X102583719Y-138470000D01*
X102416281Y-138470000D01*
X102252065Y-138437336D01*
X102097376Y-138373261D01*
X102097375Y-138373261D01*
X102097374Y-138373260D01*
X101958156Y-138280238D01*
X101839762Y-138161844D01*
X101746740Y-138022626D01*
X101746739Y-138022624D01*
X101682664Y-137867935D01*
X101650000Y-137703719D01*
X101650000Y-137536281D01*
X101682664Y-137372065D01*
X101746739Y-137217376D01*
X101746740Y-137217374D01*
X101839762Y-137078156D01*
X101958156Y-136959762D01*
X102097374Y-136866740D01*
X102097376Y-136866739D01*
X102252065Y-136802664D01*
X102416281Y-136770000D01*
X102583719Y-136770000D01*
X102747935Y-136802664D01*
G37*
G36*
X157747935Y-136802664D02*
G01*
X157902624Y-136866739D01*
X157902626Y-136866740D01*
X158041844Y-136959762D01*
X158160238Y-137078156D01*
X158253260Y-137217374D01*
X158253261Y-137217376D01*
X158317336Y-137372065D01*
X158350000Y-137536281D01*
X158350000Y-137703719D01*
X158317336Y-137867935D01*
X158253261Y-138022624D01*
X158253260Y-138022626D01*
X158160238Y-138161844D01*
X158041844Y-138280238D01*
X157902626Y-138373260D01*
X157902625Y-138373261D01*
X157902624Y-138373261D01*
X157747935Y-138437336D01*
X157583719Y-138470000D01*
X157416281Y-138470000D01*
X157252065Y-138437336D01*
X157097376Y-138373261D01*
X157097375Y-138373261D01*
X157097374Y-138373260D01*
X156958156Y-138280238D01*
X156839762Y-138161844D01*
X156746740Y-138022626D01*
X156746739Y-138022624D01*
X156682664Y-137867935D01*
X156650000Y-137703719D01*
X156650000Y-137536281D01*
X156682664Y-137372065D01*
X156746739Y-137217376D01*
X156746740Y-137217374D01*
X156839762Y-137078156D01*
X156958156Y-136959762D01*
X157097374Y-136866740D01*
X157097376Y-136866739D01*
X157252065Y-136802664D01*
X157416281Y-136770000D01*
X157583719Y-136770000D01*
X157747935Y-136802664D01*
G37*
G36*
X102747935Y-134262664D02*
G01*
X102902624Y-134326739D01*
X102902626Y-134326740D01*
X103041844Y-134419762D01*
X103160238Y-134538156D01*
X103253260Y-134677374D01*
X103253261Y-134677376D01*
X103317336Y-134832065D01*
X103350000Y-134996281D01*
X103350000Y-135163719D01*
X103317336Y-135327935D01*
X103253261Y-135482624D01*
X103253260Y-135482626D01*
X103160238Y-135621844D01*
X103041844Y-135740238D01*
X102902626Y-135833260D01*
X102902625Y-135833261D01*
X102902624Y-135833261D01*
X102747935Y-135897336D01*
X102583719Y-135930000D01*
X102416281Y-135930000D01*
X102252065Y-135897336D01*
X102097376Y-135833261D01*
X102097375Y-135833261D01*
X102097374Y-135833260D01*
X101958156Y-135740238D01*
X101839762Y-135621844D01*
X101746740Y-135482626D01*
X101746739Y-135482624D01*
X101682664Y-135327935D01*
X101650000Y-135163719D01*
X101650000Y-134996281D01*
X101682664Y-134832065D01*
X101746739Y-134677376D01*
X101746740Y-134677374D01*
X101839762Y-134538156D01*
X101958156Y-134419762D01*
X102097374Y-134326740D01*
X102097376Y-134326739D01*
X102252065Y-134262664D01*
X102416281Y-134230000D01*
X102583719Y-134230000D01*
X102747935Y-134262664D01*
G37*
G36*
X157747935Y-134262664D02*
G01*
X157902624Y-134326739D01*
X157902626Y-134326740D01*
X158041844Y-134419762D01*
X158160238Y-134538156D01*
X158253260Y-134677374D01*
X158253261Y-134677376D01*
X158317336Y-134832065D01*
X158350000Y-134996281D01*
X158350000Y-135163719D01*
X158317336Y-135327935D01*
X158253261Y-135482624D01*
X158253260Y-135482626D01*
X158160238Y-135621844D01*
X158041844Y-135740238D01*
X157902626Y-135833260D01*
X157902625Y-135833261D01*
X157902624Y-135833261D01*
X157747935Y-135897336D01*
X157583719Y-135930000D01*
X157416281Y-135930000D01*
X157252065Y-135897336D01*
X157097376Y-135833261D01*
X157097375Y-135833261D01*
X157097374Y-135833260D01*
X156958156Y-135740238D01*
X156839762Y-135621844D01*
X156746740Y-135482626D01*
X156746739Y-135482624D01*
X156682664Y-135327935D01*
X156650000Y-135163719D01*
X156650000Y-134996281D01*
X156682664Y-134832065D01*
X156746739Y-134677376D01*
X156746740Y-134677374D01*
X156839762Y-134538156D01*
X156958156Y-134419762D01*
X157097374Y-134326740D01*
X157097376Y-134326739D01*
X157252065Y-134262664D01*
X157416281Y-134230000D01*
X157583719Y-134230000D01*
X157747935Y-134262664D01*
G37*
G36*
X102747935Y-131722664D02*
G01*
X102902624Y-131786739D01*
X102902626Y-131786740D01*
X103041844Y-131879762D01*
X103160238Y-131998156D01*
X103253260Y-132137374D01*
X103253261Y-132137376D01*
X103317336Y-132292065D01*
X103350000Y-132456281D01*
X103350000Y-132623719D01*
X103317336Y-132787935D01*
X103253261Y-132942624D01*
X103253260Y-132942626D01*
X103160238Y-133081844D01*
X103041844Y-133200238D01*
X102902626Y-133293260D01*
X102902625Y-133293261D01*
X102902624Y-133293261D01*
X102747935Y-133357336D01*
X102583719Y-133390000D01*
X102416281Y-133390000D01*
X102252065Y-133357336D01*
X102097376Y-133293261D01*
X102097375Y-133293261D01*
X102097374Y-133293260D01*
X101958156Y-133200238D01*
X101839762Y-133081844D01*
X101746740Y-132942626D01*
X101746739Y-132942624D01*
X101682664Y-132787935D01*
X101650000Y-132623719D01*
X101650000Y-132456281D01*
X101682664Y-132292065D01*
X101746739Y-132137376D01*
X101746740Y-132137374D01*
X101839762Y-131998156D01*
X101958156Y-131879762D01*
X102097374Y-131786740D01*
X102097376Y-131786739D01*
X102252065Y-131722664D01*
X102416281Y-131690000D01*
X102583719Y-131690000D01*
X102747935Y-131722664D01*
G37*
G36*
X157747935Y-131722664D02*
G01*
X157902624Y-131786739D01*
X157902626Y-131786740D01*
X158041844Y-131879762D01*
X158160238Y-131998156D01*
X158253260Y-132137374D01*
X158253261Y-132137376D01*
X158317336Y-132292065D01*
X158350000Y-132456281D01*
X158350000Y-132623719D01*
X158317336Y-132787935D01*
X158253261Y-132942624D01*
X158253260Y-132942626D01*
X158160238Y-133081844D01*
X158041844Y-133200238D01*
X157902626Y-133293260D01*
X157902625Y-133293261D01*
X157902624Y-133293261D01*
X157747935Y-133357336D01*
X157583719Y-133390000D01*
X157416281Y-133390000D01*
X157252065Y-133357336D01*
X157097376Y-133293261D01*
X157097375Y-133293261D01*
X157097374Y-133293260D01*
X156958156Y-133200238D01*
X156839762Y-133081844D01*
X156746740Y-132942626D01*
X156746739Y-132942624D01*
X156682664Y-132787935D01*
X156650000Y-132623719D01*
X156650000Y-132456281D01*
X156682664Y-132292065D01*
X156746739Y-132137376D01*
X156746740Y-132137374D01*
X156839762Y-131998156D01*
X156958156Y-131879762D01*
X157097374Y-131786740D01*
X157097376Y-131786739D01*
X157252065Y-131722664D01*
X157416281Y-131690000D01*
X157583719Y-131690000D01*
X157747935Y-131722664D01*
G37*
G36*
X103350000Y-130850000D02*
G01*
X101650000Y-130850000D01*
X101650000Y-129150000D01*
X103350000Y-129150000D01*
X103350000Y-130850000D01*
G37*
G36*
X158350000Y-130850000D02*
G01*
X156650000Y-130850000D01*
X156650000Y-129150000D01*
X158350000Y-129150000D01*
X158350000Y-130850000D01*
G37*
G36*
X155850000Y-122350000D02*
G01*
X154150000Y-122350000D01*
X154150000Y-120650000D01*
X155850000Y-120650000D01*
X155850000Y-122350000D01*
G37*
G36*
X155247935Y-118142664D02*
G01*
X155402624Y-118206739D01*
X155402626Y-118206740D01*
X155541844Y-118299762D01*
X155660238Y-118418156D01*
X155753260Y-118557374D01*
X155753261Y-118557376D01*
X155817336Y-118712065D01*
X155850000Y-118876281D01*
X155850000Y-119043719D01*
X155817336Y-119207935D01*
X155753261Y-119362624D01*
X155753260Y-119362626D01*
X155660238Y-119501844D01*
X155541844Y-119620238D01*
X155402626Y-119713260D01*
X155402625Y-119713261D01*
X155402624Y-119713261D01*
X155247935Y-119777336D01*
X155083719Y-119810000D01*
X154916281Y-119810000D01*
X154752065Y-119777336D01*
X154597376Y-119713261D01*
X154597375Y-119713261D01*
X154597374Y-119713260D01*
X154458156Y-119620238D01*
X154339762Y-119501844D01*
X154246740Y-119362626D01*
X154246739Y-119362624D01*
X154182664Y-119207935D01*
X154150000Y-119043719D01*
X154150000Y-118876281D01*
X154182664Y-118712065D01*
X154246739Y-118557376D01*
X154246740Y-118557374D01*
X154339762Y-118418156D01*
X154458156Y-118299762D01*
X154597374Y-118206740D01*
X154597376Y-118206739D01*
X154752065Y-118142664D01*
X154916281Y-118110000D01*
X155083719Y-118110000D01*
X155247935Y-118142664D01*
G37*
G36*
X155247935Y-115602664D02*
G01*
X155402624Y-115666739D01*
X155402626Y-115666740D01*
X155541844Y-115759762D01*
X155660238Y-115878156D01*
X155753260Y-116017374D01*
X155753261Y-116017376D01*
X155817336Y-116172065D01*
X155850000Y-116336281D01*
X155850000Y-116503719D01*
X155817336Y-116667935D01*
X155753261Y-116822624D01*
X155753260Y-116822626D01*
X155660238Y-116961844D01*
X155541844Y-117080238D01*
X155402626Y-117173260D01*
X155402625Y-117173261D01*
X155402624Y-117173261D01*
X155247935Y-117237336D01*
X155083719Y-117270000D01*
X154916281Y-117270000D01*
X154752065Y-117237336D01*
X154597376Y-117173261D01*
X154597375Y-117173261D01*
X154597374Y-117173260D01*
X154458156Y-117080238D01*
X154339762Y-116961844D01*
X154246740Y-116822626D01*
X154246739Y-116822624D01*
X154182664Y-116667935D01*
X154150000Y-116503719D01*
X154150000Y-116336281D01*
X154182664Y-116172065D01*
X154246739Y-116017376D01*
X154246740Y-116017374D01*
X154339762Y-115878156D01*
X154458156Y-115759762D01*
X154597374Y-115666740D01*
X154597376Y-115666739D01*
X154752065Y-115602664D01*
X154916281Y-115570000D01*
X155083719Y-115570000D01*
X155247935Y-115602664D01*
G37*
G36*
X155247935Y-113062664D02*
G01*
X155402624Y-113126739D01*
X155402626Y-113126740D01*
X155541844Y-113219762D01*
X155660238Y-113338156D01*
X155753260Y-113477374D01*
X155753261Y-113477376D01*
X155817336Y-113632065D01*
X155850000Y-113796281D01*
X155850000Y-113963719D01*
X155817336Y-114127935D01*
X155753261Y-114282624D01*
X155753260Y-114282626D01*
X155660238Y-114421844D01*
X155541844Y-114540238D01*
X155402626Y-114633260D01*
X155402625Y-114633261D01*
X155402624Y-114633261D01*
X155247935Y-114697336D01*
X155083719Y-114730000D01*
X154916281Y-114730000D01*
X154752065Y-114697336D01*
X154597376Y-114633261D01*
X154597375Y-114633261D01*
X154597374Y-114633260D01*
X154458156Y-114540238D01*
X154339762Y-114421844D01*
X154246740Y-114282626D01*
X154246739Y-114282624D01*
X154182664Y-114127935D01*
X154150000Y-113963719D01*
X154150000Y-113796281D01*
X154182664Y-113632065D01*
X154246739Y-113477376D01*
X154246740Y-113477374D01*
X154339762Y-113338156D01*
X154458156Y-113219762D01*
X154597374Y-113126740D01*
X154597376Y-113126739D01*
X154752065Y-113062664D01*
X154916281Y-113030000D01*
X155083719Y-113030000D01*
X155247935Y-113062664D01*
G37*
G36*
X102773126Y-101626900D02*
G01*
X102908365Y-101653801D01*
X103163149Y-101759336D01*
X103392448Y-101912549D01*
X103587451Y-102107552D01*
X103740664Y-102336851D01*
X103846199Y-102591635D01*
X103900000Y-102862112D01*
X103900000Y-103137888D01*
X103846199Y-103408365D01*
X103740664Y-103663149D01*
X103587451Y-103892448D01*
X103392448Y-104087451D01*
X103163149Y-104240664D01*
X102908365Y-104346199D01*
X102773127Y-104373099D01*
X102637889Y-104400000D01*
X102362111Y-104400000D01*
X102226874Y-104373100D01*
X102091635Y-104346199D01*
X101836851Y-104240664D01*
X101607552Y-104087451D01*
X101412549Y-103892448D01*
X101259336Y-103663149D01*
X101153801Y-103408365D01*
X101100000Y-103137888D01*
X101100000Y-102862112D01*
X101153801Y-102591635D01*
X101259336Y-102336851D01*
X101412549Y-102107552D01*
X101607552Y-101912549D01*
X101836851Y-101759336D01*
X102091635Y-101653801D01*
X102226874Y-101626900D01*
X102362111Y-101600000D01*
X102637889Y-101600000D01*
X102773126Y-101626900D01*
G37*
G36*
X102747935Y-80462664D02*
G01*
X102902624Y-80526739D01*
X102902626Y-80526740D01*
X103041844Y-80619762D01*
X103160238Y-80738156D01*
X103253260Y-80877374D01*
X103253261Y-80877376D01*
X103317336Y-81032065D01*
X103350000Y-81196281D01*
X103350000Y-81363719D01*
X103317336Y-81527935D01*
X103253261Y-81682624D01*
X103253260Y-81682626D01*
X103160238Y-81821844D01*
X103041844Y-81940238D01*
X102902626Y-82033260D01*
X102902625Y-82033261D01*
X102902624Y-82033261D01*
X102747935Y-82097336D01*
X102583719Y-82130000D01*
X102416281Y-82130000D01*
X102252065Y-82097336D01*
X102097376Y-82033261D01*
X102097375Y-82033261D01*
X102097374Y-82033260D01*
X101958156Y-81940238D01*
X101839762Y-81821844D01*
X101746740Y-81682626D01*
X101746739Y-81682624D01*
X101682664Y-81527935D01*
X101650000Y-81363719D01*
X101650000Y-81196281D01*
X101682664Y-81032065D01*
X101746739Y-80877376D01*
X101746740Y-80877374D01*
X101839762Y-80738156D01*
X101958156Y-80619762D01*
X102097374Y-80526740D01*
X102097376Y-80526739D01*
X102252065Y-80462664D01*
X102416281Y-80430000D01*
X102583719Y-80430000D01*
X102747935Y-80462664D01*
G37*
G36*
X157747935Y-80462664D02*
G01*
X157902624Y-80526739D01*
X157902626Y-80526740D01*
X158041844Y-80619762D01*
X158160238Y-80738156D01*
X158253260Y-80877374D01*
X158253261Y-80877376D01*
X158317336Y-81032065D01*
X158350000Y-81196281D01*
X158350000Y-81363719D01*
X158317336Y-81527935D01*
X158253261Y-81682624D01*
X158253260Y-81682626D01*
X158160238Y-81821844D01*
X158041844Y-81940238D01*
X157902626Y-82033260D01*
X157902625Y-82033261D01*
X157902624Y-82033261D01*
X157747935Y-82097336D01*
X157583719Y-82130000D01*
X157416281Y-82130000D01*
X157252065Y-82097336D01*
X157097376Y-82033261D01*
X157097375Y-82033261D01*
X157097374Y-82033260D01*
X156958156Y-81940238D01*
X156839762Y-81821844D01*
X156746740Y-81682626D01*
X156746739Y-81682624D01*
X156682664Y-81527935D01*
X156650000Y-81363719D01*
X156650000Y-81196281D01*
X156682664Y-81032065D01*
X156746739Y-80877376D01*
X156746740Y-80877374D01*
X156839762Y-80738156D01*
X156958156Y-80619762D01*
X157097374Y-80526740D01*
X157097376Y-80526739D01*
X157252065Y-80462664D01*
X157416281Y-80430000D01*
X157583719Y-80430000D01*
X157747935Y-80462664D01*
G37*
G36*
X102747935Y-77922664D02*
G01*
X102902624Y-77986739D01*
X102902626Y-77986740D01*
X103041844Y-78079762D01*
X103160238Y-78198156D01*
X103253260Y-78337374D01*
X103253261Y-78337376D01*
X103317336Y-78492065D01*
X103350000Y-78656281D01*
X103350000Y-78823719D01*
X103317336Y-78987935D01*
X103253261Y-79142624D01*
X103253260Y-79142626D01*
X103160238Y-79281844D01*
X103041844Y-79400238D01*
X102902626Y-79493260D01*
X102902625Y-79493261D01*
X102902624Y-79493261D01*
X102747935Y-79557336D01*
X102583719Y-79590000D01*
X102416281Y-79590000D01*
X102252065Y-79557336D01*
X102097376Y-79493261D01*
X102097375Y-79493261D01*
X102097374Y-79493260D01*
X101958156Y-79400238D01*
X101839762Y-79281844D01*
X101746740Y-79142626D01*
X101746739Y-79142624D01*
X101682664Y-78987935D01*
X101650000Y-78823719D01*
X101650000Y-78656281D01*
X101682664Y-78492065D01*
X101746739Y-78337376D01*
X101746740Y-78337374D01*
X101839762Y-78198156D01*
X101958156Y-78079762D01*
X102097374Y-77986740D01*
X102097376Y-77986739D01*
X102252065Y-77922664D01*
X102416281Y-77890000D01*
X102583719Y-77890000D01*
X102747935Y-77922664D01*
G37*
G36*
X157747935Y-77922664D02*
G01*
X157902624Y-77986739D01*
X157902626Y-77986740D01*
X158041844Y-78079762D01*
X158160238Y-78198156D01*
X158253260Y-78337374D01*
X158253261Y-78337376D01*
X158317336Y-78492065D01*
X158350000Y-78656281D01*
X158350000Y-78823719D01*
X158317336Y-78987935D01*
X158253261Y-79142624D01*
X158253260Y-79142626D01*
X158160238Y-79281844D01*
X158041844Y-79400238D01*
X157902626Y-79493260D01*
X157902625Y-79493261D01*
X157902624Y-79493261D01*
X157747935Y-79557336D01*
X157583719Y-79590000D01*
X157416281Y-79590000D01*
X157252065Y-79557336D01*
X157097376Y-79493261D01*
X157097375Y-79493261D01*
X157097374Y-79493260D01*
X156958156Y-79400238D01*
X156839762Y-79281844D01*
X156746740Y-79142626D01*
X156746739Y-79142624D01*
X156682664Y-78987935D01*
X156650000Y-78823719D01*
X156650000Y-78656281D01*
X156682664Y-78492065D01*
X156746739Y-78337376D01*
X156746740Y-78337374D01*
X156839762Y-78198156D01*
X156958156Y-78079762D01*
X157097374Y-77986740D01*
X157097376Y-77986739D01*
X157252065Y-77922664D01*
X157416281Y-77890000D01*
X157583719Y-77890000D01*
X157747935Y-77922664D01*
G37*
G36*
X102747935Y-75382664D02*
G01*
X102902624Y-75446739D01*
X102902626Y-75446740D01*
X103041844Y-75539762D01*
X103160238Y-75658156D01*
X103253260Y-75797374D01*
X103253261Y-75797376D01*
X103317336Y-75952065D01*
X103350000Y-76116281D01*
X103350000Y-76283719D01*
X103317336Y-76447935D01*
X103253261Y-76602624D01*
X103253260Y-76602626D01*
X103160238Y-76741844D01*
X103041844Y-76860238D01*
X102902626Y-76953260D01*
X102902625Y-76953261D01*
X102902624Y-76953261D01*
X102747935Y-77017336D01*
X102583719Y-77050000D01*
X102416281Y-77050000D01*
X102252065Y-77017336D01*
X102097376Y-76953261D01*
X102097375Y-76953261D01*
X102097374Y-76953260D01*
X101958156Y-76860238D01*
X101839762Y-76741844D01*
X101746740Y-76602626D01*
X101746739Y-76602624D01*
X101682664Y-76447935D01*
X101650000Y-76283719D01*
X101650000Y-76116281D01*
X101682664Y-75952065D01*
X101746739Y-75797376D01*
X101746740Y-75797374D01*
X101839762Y-75658156D01*
X101958156Y-75539762D01*
X102097374Y-75446740D01*
X102097376Y-75446739D01*
X102252065Y-75382664D01*
X102416281Y-75350000D01*
X102583719Y-75350000D01*
X102747935Y-75382664D01*
G37*
G36*
X157747935Y-75382664D02*
G01*
X157902624Y-75446739D01*
X157902626Y-75446740D01*
X158041844Y-75539762D01*
X158160238Y-75658156D01*
X158253260Y-75797374D01*
X158253261Y-75797376D01*
X158317336Y-75952065D01*
X158350000Y-76116281D01*
X158350000Y-76283719D01*
X158317336Y-76447935D01*
X158253261Y-76602624D01*
X158253260Y-76602626D01*
X158160238Y-76741844D01*
X158041844Y-76860238D01*
X157902626Y-76953260D01*
X157902625Y-76953261D01*
X157902624Y-76953261D01*
X157747935Y-77017336D01*
X157583719Y-77050000D01*
X157416281Y-77050000D01*
X157252065Y-77017336D01*
X157097376Y-76953261D01*
X157097375Y-76953261D01*
X157097374Y-76953260D01*
X156958156Y-76860238D01*
X156839762Y-76741844D01*
X156746740Y-76602626D01*
X156746739Y-76602624D01*
X156682664Y-76447935D01*
X156650000Y-76283719D01*
X156650000Y-76116281D01*
X156682664Y-75952065D01*
X156746739Y-75797376D01*
X156746740Y-75797374D01*
X156839762Y-75658156D01*
X156958156Y-75539762D01*
X157097374Y-75446740D01*
X157097376Y-75446739D01*
X157252065Y-75382664D01*
X157416281Y-75350000D01*
X157583719Y-75350000D01*
X157747935Y-75382664D01*
G37*
G36*
X102747935Y-72842664D02*
G01*
X102902624Y-72906739D01*
X102902626Y-72906740D01*
X103041844Y-72999762D01*
X103160238Y-73118156D01*
X103253260Y-73257374D01*
X103253261Y-73257376D01*
X103317336Y-73412065D01*
X103350000Y-73576281D01*
X103350000Y-73743719D01*
X103317336Y-73907935D01*
X103253261Y-74062624D01*
X103253260Y-74062626D01*
X103160238Y-74201844D01*
X103041844Y-74320238D01*
X102902626Y-74413260D01*
X102902625Y-74413261D01*
X102902624Y-74413261D01*
X102747935Y-74477336D01*
X102583719Y-74510000D01*
X102416281Y-74510000D01*
X102252065Y-74477336D01*
X102097376Y-74413261D01*
X102097375Y-74413261D01*
X102097374Y-74413260D01*
X101958156Y-74320238D01*
X101839762Y-74201844D01*
X101746740Y-74062626D01*
X101746739Y-74062624D01*
X101682664Y-73907935D01*
X101650000Y-73743719D01*
X101650000Y-73576281D01*
X101682664Y-73412065D01*
X101746739Y-73257376D01*
X101746740Y-73257374D01*
X101839762Y-73118156D01*
X101958156Y-72999762D01*
X102097374Y-72906740D01*
X102097376Y-72906739D01*
X102252065Y-72842664D01*
X102416281Y-72810000D01*
X102583719Y-72810000D01*
X102747935Y-72842664D01*
G37*
G36*
X157747935Y-72842664D02*
G01*
X157902624Y-72906739D01*
X157902626Y-72906740D01*
X158041844Y-72999762D01*
X158160238Y-73118156D01*
X158253260Y-73257374D01*
X158253261Y-73257376D01*
X158317336Y-73412065D01*
X158350000Y-73576281D01*
X158350000Y-73743719D01*
X158317336Y-73907935D01*
X158253261Y-74062624D01*
X158253260Y-74062626D01*
X158160238Y-74201844D01*
X158041844Y-74320238D01*
X157902626Y-74413260D01*
X157902625Y-74413261D01*
X157902624Y-74413261D01*
X157747935Y-74477336D01*
X157583719Y-74510000D01*
X157416281Y-74510000D01*
X157252065Y-74477336D01*
X157097376Y-74413261D01*
X157097375Y-74413261D01*
X157097374Y-74413260D01*
X156958156Y-74320238D01*
X156839762Y-74201844D01*
X156746740Y-74062626D01*
X156746739Y-74062624D01*
X156682664Y-73907935D01*
X156650000Y-73743719D01*
X156650000Y-73576281D01*
X156682664Y-73412065D01*
X156746739Y-73257376D01*
X156746740Y-73257374D01*
X156839762Y-73118156D01*
X156958156Y-72999762D01*
X157097374Y-72906740D01*
X157097376Y-72906739D01*
X157252065Y-72842664D01*
X157416281Y-72810000D01*
X157583719Y-72810000D01*
X157747935Y-72842664D01*
G37*
G36*
X157747935Y-70302664D02*
G01*
X157902624Y-70366739D01*
X157902626Y-70366740D01*
X158041844Y-70459762D01*
X158160238Y-70578156D01*
X158253260Y-70717374D01*
X158253261Y-70717376D01*
X158317336Y-70872065D01*
X158350000Y-71036281D01*
X158350000Y-71203719D01*
X158317336Y-71367935D01*
X158253261Y-71522624D01*
X158253260Y-71522626D01*
X158160238Y-71661844D01*
X158041844Y-71780238D01*
X157902626Y-71873260D01*
X157902625Y-71873261D01*
X157902624Y-71873261D01*
X157747935Y-71937336D01*
X157583719Y-71970000D01*
X157416281Y-71970000D01*
X157252065Y-71937336D01*
X157097376Y-71873261D01*
X157097375Y-71873261D01*
X157097374Y-71873260D01*
X156958156Y-71780238D01*
X156839762Y-71661844D01*
X156746740Y-71522626D01*
X156746739Y-71522624D01*
X156682664Y-71367935D01*
X156650000Y-71203719D01*
X156650000Y-71036281D01*
X156682664Y-70872065D01*
X156746739Y-70717376D01*
X156746740Y-70717374D01*
X156839762Y-70578156D01*
X156958156Y-70459762D01*
X157097374Y-70366740D01*
X157097376Y-70366739D01*
X157252065Y-70302664D01*
X157416281Y-70270000D01*
X157583719Y-70270000D01*
X157747935Y-70302664D01*
G37*
G36*
X102747935Y-70302664D02*
G01*
X102902624Y-70366739D01*
X102902626Y-70366740D01*
X103041844Y-70459762D01*
X103160238Y-70578156D01*
X103253260Y-70717374D01*
X103253261Y-70717376D01*
X103317336Y-70872065D01*
X103350000Y-71036281D01*
X103350000Y-71203719D01*
X103317336Y-71367935D01*
X103253261Y-71522624D01*
X103253260Y-71522626D01*
X103160238Y-71661844D01*
X103041844Y-71780238D01*
X102902626Y-71873260D01*
X102902625Y-71873261D01*
X102902624Y-71873261D01*
X102747935Y-71937336D01*
X102583719Y-71970000D01*
X102416281Y-71970000D01*
X102252065Y-71937336D01*
X102097376Y-71873261D01*
X102097375Y-71873261D01*
X102097374Y-71873260D01*
X101958156Y-71780238D01*
X101839762Y-71661844D01*
X101746740Y-71522626D01*
X101746739Y-71522624D01*
X101682664Y-71367935D01*
X101650000Y-71203719D01*
X101650000Y-71036281D01*
X101682664Y-70872065D01*
X101746739Y-70717376D01*
X101746740Y-70717374D01*
X101839762Y-70578156D01*
X101958156Y-70459762D01*
X102097374Y-70366740D01*
X102097376Y-70366739D01*
X102252065Y-70302664D01*
X102416281Y-70270000D01*
X102583719Y-70270000D01*
X102747935Y-70302664D01*
G37*
G36*
X138673126Y-66826900D02*
G01*
X138808365Y-66853801D01*
X139063149Y-66959336D01*
X139292448Y-67112549D01*
X139487451Y-67307552D01*
X139640664Y-67536851D01*
X139746199Y-67791635D01*
X139800000Y-68062112D01*
X139800000Y-68337888D01*
X139746199Y-68608365D01*
X139640664Y-68863149D01*
X139487451Y-69092448D01*
X139292448Y-69287451D01*
X139063149Y-69440664D01*
X138808365Y-69546199D01*
X138673126Y-69573100D01*
X138537889Y-69600000D01*
X138262111Y-69600000D01*
X138126874Y-69573100D01*
X137991635Y-69546199D01*
X137736851Y-69440664D01*
X137507552Y-69287451D01*
X137312549Y-69092448D01*
X137159336Y-68863149D01*
X137053801Y-68608365D01*
X137000000Y-68337888D01*
X137000000Y-68062112D01*
X137053801Y-67791635D01*
X137159336Y-67536851D01*
X137312549Y-67307552D01*
X137507552Y-67112549D01*
X137736851Y-66959336D01*
X137991635Y-66853801D01*
X138126874Y-66826900D01*
X138262111Y-66800000D01*
X138537889Y-66800000D01*
X138673126Y-66826900D01*
G37*
G36*
X102747935Y-67762664D02*
G01*
X102902624Y-67826739D01*
X102902626Y-67826740D01*
X103041844Y-67919762D01*
X103160238Y-68038156D01*
X103253260Y-68177374D01*
X103253261Y-68177376D01*
X103317336Y-68332065D01*
X103350000Y-68496281D01*
X103350000Y-68663719D01*
X103317336Y-68827935D01*
X103253261Y-68982624D01*
X103253260Y-68982626D01*
X103160238Y-69121844D01*
X103041844Y-69240238D01*
X102902626Y-69333260D01*
X102902625Y-69333261D01*
X102902624Y-69333261D01*
X102747935Y-69397336D01*
X102583719Y-69430000D01*
X102416281Y-69430000D01*
X102252065Y-69397336D01*
X102097376Y-69333261D01*
X102097375Y-69333261D01*
X102097374Y-69333260D01*
X101958156Y-69240238D01*
X101839762Y-69121844D01*
X101746740Y-68982626D01*
X101746739Y-68982624D01*
X101682664Y-68827935D01*
X101650000Y-68663719D01*
X101650000Y-68496281D01*
X101682664Y-68332065D01*
X101746739Y-68177376D01*
X101746740Y-68177374D01*
X101839762Y-68038156D01*
X101958156Y-67919762D01*
X102097374Y-67826740D01*
X102097376Y-67826739D01*
X102252065Y-67762664D01*
X102416281Y-67730000D01*
X102583719Y-67730000D01*
X102747935Y-67762664D01*
G37*
G36*
X157747935Y-67762664D02*
G01*
X157902624Y-67826739D01*
X157902626Y-67826740D01*
X158041844Y-67919762D01*
X158160238Y-68038156D01*
X158253260Y-68177374D01*
X158253261Y-68177376D01*
X158317336Y-68332065D01*
X158350000Y-68496281D01*
X158350000Y-68663719D01*
X158317336Y-68827935D01*
X158253261Y-68982624D01*
X158253260Y-68982626D01*
X158160238Y-69121844D01*
X158041844Y-69240238D01*
X157902626Y-69333260D01*
X157902625Y-69333261D01*
X157902624Y-69333261D01*
X157747935Y-69397336D01*
X157583719Y-69430000D01*
X157416281Y-69430000D01*
X157252065Y-69397336D01*
X157097376Y-69333261D01*
X157097375Y-69333261D01*
X157097374Y-69333260D01*
X156958156Y-69240238D01*
X156839762Y-69121844D01*
X156746740Y-68982626D01*
X156746739Y-68982624D01*
X156682664Y-68827935D01*
X156650000Y-68663719D01*
X156650000Y-68496281D01*
X156682664Y-68332065D01*
X156746739Y-68177376D01*
X156746740Y-68177374D01*
X156839762Y-68038156D01*
X156958156Y-67919762D01*
X157097374Y-67826740D01*
X157097376Y-67826739D01*
X157252065Y-67762664D01*
X157416281Y-67730000D01*
X157583719Y-67730000D01*
X157747935Y-67762664D01*
G37*
G36*
X102747935Y-65222664D02*
G01*
X102902624Y-65286739D01*
X102902626Y-65286740D01*
X103041844Y-65379762D01*
X103160238Y-65498156D01*
X103253260Y-65637374D01*
X103253261Y-65637376D01*
X103317336Y-65792065D01*
X103350000Y-65956281D01*
X103350000Y-66123719D01*
X103317336Y-66287935D01*
X103253261Y-66442624D01*
X103253260Y-66442626D01*
X103160238Y-66581844D01*
X103041844Y-66700238D01*
X102902626Y-66793260D01*
X102902625Y-66793261D01*
X102902624Y-66793261D01*
X102747935Y-66857336D01*
X102583719Y-66890000D01*
X102416281Y-66890000D01*
X102252065Y-66857336D01*
X102097376Y-66793261D01*
X102097375Y-66793261D01*
X102097374Y-66793260D01*
X101958156Y-66700238D01*
X101839762Y-66581844D01*
X101746740Y-66442626D01*
X101746739Y-66442624D01*
X101682664Y-66287935D01*
X101650000Y-66123719D01*
X101650000Y-65956281D01*
X101682664Y-65792065D01*
X101746739Y-65637376D01*
X101746740Y-65637374D01*
X101839762Y-65498156D01*
X101958156Y-65379762D01*
X102097374Y-65286740D01*
X102097376Y-65286739D01*
X102252065Y-65222664D01*
X102416281Y-65190000D01*
X102583719Y-65190000D01*
X102747935Y-65222664D01*
G37*
G36*
X157747935Y-65222664D02*
G01*
X157902624Y-65286739D01*
X157902626Y-65286740D01*
X158041844Y-65379762D01*
X158160238Y-65498156D01*
X158253260Y-65637374D01*
X158253261Y-65637376D01*
X158317336Y-65792065D01*
X158350000Y-65956281D01*
X158350000Y-66123719D01*
X158317336Y-66287935D01*
X158253261Y-66442624D01*
X158253260Y-66442626D01*
X158160238Y-66581844D01*
X158041844Y-66700238D01*
X157902626Y-66793260D01*
X157902625Y-66793261D01*
X157902624Y-66793261D01*
X157747935Y-66857336D01*
X157583719Y-66890000D01*
X157416281Y-66890000D01*
X157252065Y-66857336D01*
X157097376Y-66793261D01*
X157097375Y-66793261D01*
X157097374Y-66793260D01*
X156958156Y-66700238D01*
X156839762Y-66581844D01*
X156746740Y-66442626D01*
X156746739Y-66442624D01*
X156682664Y-66287935D01*
X156650000Y-66123719D01*
X156650000Y-65956281D01*
X156682664Y-65792065D01*
X156746739Y-65637376D01*
X156746740Y-65637374D01*
X156839762Y-65498156D01*
X156958156Y-65379762D01*
X157097374Y-65286740D01*
X157097376Y-65286739D01*
X157252065Y-65222664D01*
X157416281Y-65190000D01*
X157583719Y-65190000D01*
X157747935Y-65222664D01*
G37*
G36*
X108673127Y-61626901D02*
G01*
X108808365Y-61653801D01*
X109063149Y-61759336D01*
X109292448Y-61912549D01*
X109487451Y-62107552D01*
X109640664Y-62336851D01*
X109746199Y-62591635D01*
X109800000Y-62862112D01*
X109800000Y-63137888D01*
X109746199Y-63408365D01*
X109640664Y-63663149D01*
X109487451Y-63892448D01*
X109292448Y-64087451D01*
X109063149Y-64240664D01*
X108808365Y-64346199D01*
X108673126Y-64373100D01*
X108537889Y-64400000D01*
X108262111Y-64400000D01*
X108126874Y-64373100D01*
X107991635Y-64346199D01*
X107736851Y-64240664D01*
X107507552Y-64087451D01*
X107312549Y-63892448D01*
X107159336Y-63663149D01*
X107053801Y-63408365D01*
X107000000Y-63137888D01*
X107000000Y-62862112D01*
X107053801Y-62591635D01*
X107159336Y-62336851D01*
X107312549Y-62107552D01*
X107507552Y-61912549D01*
X107736851Y-61759336D01*
X107991635Y-61653801D01*
X108126873Y-61626901D01*
X108262111Y-61600000D01*
X108537889Y-61600000D01*
X108673127Y-61626901D01*
G37*
G36*
X158350000Y-64350000D02*
G01*
X156650000Y-64350000D01*
X156650000Y-62650000D01*
X158350000Y-62650000D01*
X158350000Y-64350000D01*
G37*
G36*
X103350000Y-64350000D02*
G01*
X101650000Y-64350000D01*
X101650000Y-62650000D01*
X103350000Y-62650000D01*
X103350000Y-64350000D01*
G37*
G36*
X127187935Y-57007664D02*
G01*
X127342624Y-57071739D01*
X127342626Y-57071740D01*
X127481844Y-57164762D01*
X127600238Y-57283156D01*
X127693260Y-57422374D01*
X127693261Y-57422376D01*
X127757336Y-57577065D01*
X127790000Y-57741281D01*
X127790000Y-57908719D01*
X127757336Y-58072935D01*
X127693261Y-58227624D01*
X127693260Y-58227626D01*
X127600238Y-58366844D01*
X127481844Y-58485238D01*
X127342626Y-58578260D01*
X127342625Y-58578261D01*
X127342624Y-58578261D01*
X127187935Y-58642336D01*
X127023719Y-58675000D01*
X126856281Y-58675000D01*
X126692065Y-58642336D01*
X126537376Y-58578261D01*
X126537375Y-58578261D01*
X126537374Y-58578260D01*
X126398156Y-58485238D01*
X126279762Y-58366844D01*
X126186740Y-58227626D01*
X126186739Y-58227624D01*
X126122664Y-58072935D01*
X126090000Y-57908719D01*
X126090000Y-57741281D01*
X126122664Y-57577065D01*
X126186739Y-57422376D01*
X126186740Y-57422374D01*
X126279762Y-57283156D01*
X126398156Y-57164762D01*
X126537374Y-57071740D01*
X126537376Y-57071739D01*
X126692065Y-57007664D01*
X126856281Y-56975000D01*
X127023719Y-56975000D01*
X127187935Y-57007664D01*
G37*
G36*
X129727935Y-57007664D02*
G01*
X129882624Y-57071739D01*
X129882626Y-57071740D01*
X130021844Y-57164762D01*
X130140238Y-57283156D01*
X130233260Y-57422374D01*
X130233261Y-57422376D01*
X130297336Y-57577065D01*
X130330000Y-57741281D01*
X130330000Y-57908719D01*
X130297336Y-58072935D01*
X130233261Y-58227624D01*
X130233260Y-58227626D01*
X130140238Y-58366844D01*
X130021844Y-58485238D01*
X129882626Y-58578260D01*
X129882625Y-58578261D01*
X129882624Y-58578261D01*
X129727935Y-58642336D01*
X129563719Y-58675000D01*
X129396281Y-58675000D01*
X129232065Y-58642336D01*
X129077376Y-58578261D01*
X129077375Y-58578261D01*
X129077374Y-58578260D01*
X128938156Y-58485238D01*
X128819762Y-58366844D01*
X128726740Y-58227626D01*
X128726739Y-58227624D01*
X128662664Y-58072935D01*
X128630000Y-57908719D01*
X128630000Y-57741281D01*
X128662664Y-57577065D01*
X128726739Y-57422376D01*
X128726740Y-57422374D01*
X128819762Y-57283156D01*
X128938156Y-57164762D01*
X129077374Y-57071740D01*
X129077376Y-57071739D01*
X129232065Y-57007664D01*
X129396281Y-56975000D01*
X129563719Y-56975000D01*
X129727935Y-57007664D01*
G37*
G36*
X132267935Y-57007664D02*
G01*
X132422624Y-57071739D01*
X132422626Y-57071740D01*
X132561844Y-57164762D01*
X132680238Y-57283156D01*
X132773260Y-57422374D01*
X132773261Y-57422376D01*
X132837336Y-57577065D01*
X132870000Y-57741281D01*
X132870000Y-57908719D01*
X132837336Y-58072935D01*
X132773261Y-58227624D01*
X132773260Y-58227626D01*
X132680238Y-58366844D01*
X132561844Y-58485238D01*
X132422626Y-58578260D01*
X132422625Y-58578261D01*
X132422624Y-58578261D01*
X132267935Y-58642336D01*
X132103719Y-58675000D01*
X131936281Y-58675000D01*
X131772065Y-58642336D01*
X131617376Y-58578261D01*
X131617375Y-58578261D01*
X131617374Y-58578260D01*
X131478156Y-58485238D01*
X131359762Y-58366844D01*
X131266740Y-58227626D01*
X131266739Y-58227624D01*
X131202664Y-58072935D01*
X131170000Y-57908719D01*
X131170000Y-57741281D01*
X131202664Y-57577065D01*
X131266739Y-57422376D01*
X131266740Y-57422374D01*
X131359762Y-57283156D01*
X131478156Y-57164762D01*
X131617374Y-57071740D01*
X131617376Y-57071739D01*
X131772065Y-57007664D01*
X131936281Y-56975000D01*
X132103719Y-56975000D01*
X132267935Y-57007664D01*
G37*
G36*
X134807935Y-57007664D02*
G01*
X134962624Y-57071739D01*
X134962626Y-57071740D01*
X135101844Y-57164762D01*
X135220238Y-57283156D01*
X135313260Y-57422374D01*
X135313261Y-57422376D01*
X135377336Y-57577065D01*
X135410000Y-57741281D01*
X135410000Y-57908719D01*
X135377336Y-58072935D01*
X135313261Y-58227624D01*
X135313260Y-58227626D01*
X135220238Y-58366844D01*
X135101844Y-58485238D01*
X134962626Y-58578260D01*
X134962625Y-58578261D01*
X134962624Y-58578261D01*
X134807935Y-58642336D01*
X134643719Y-58675000D01*
X134476281Y-58675000D01*
X134312065Y-58642336D01*
X134157376Y-58578261D01*
X134157375Y-58578261D01*
X134157374Y-58578260D01*
X134018156Y-58485238D01*
X133899762Y-58366844D01*
X133806740Y-58227626D01*
X133806739Y-58227624D01*
X133742664Y-58072935D01*
X133710000Y-57908719D01*
X133710000Y-57741281D01*
X133742664Y-57577065D01*
X133806739Y-57422376D01*
X133806740Y-57422374D01*
X133899762Y-57283156D01*
X134018156Y-57164762D01*
X134157374Y-57071740D01*
X134157376Y-57071739D01*
X134312065Y-57007664D01*
X134476281Y-56975000D01*
X134643719Y-56975000D01*
X134807935Y-57007664D01*
G37*
G36*
X125250000Y-58675000D02*
G01*
X123550000Y-58675000D01*
X123550000Y-56975000D01*
X125250000Y-56975000D01*
X125250000Y-58675000D01*
G37*
G36*
X134807935Y-54467664D02*
G01*
X134962624Y-54531739D01*
X134962626Y-54531740D01*
X135101844Y-54624762D01*
X135220238Y-54743156D01*
X135313260Y-54882374D01*
X135313261Y-54882376D01*
X135377336Y-55037065D01*
X135410000Y-55201281D01*
X135410000Y-55368719D01*
X135377336Y-55532935D01*
X135313261Y-55687624D01*
X135313260Y-55687626D01*
X135220238Y-55826844D01*
X135101844Y-55945238D01*
X134962626Y-56038260D01*
X134962625Y-56038261D01*
X134962624Y-56038261D01*
X134807935Y-56102336D01*
X134643719Y-56135000D01*
X134476281Y-56135000D01*
X134312065Y-56102336D01*
X134157376Y-56038261D01*
X134157375Y-56038261D01*
X134157374Y-56038260D01*
X134018156Y-55945238D01*
X133899762Y-55826844D01*
X133806740Y-55687626D01*
X133806739Y-55687624D01*
X133742664Y-55532935D01*
X133710000Y-55368719D01*
X133710000Y-55201281D01*
X133742664Y-55037065D01*
X133806739Y-54882376D01*
X133806740Y-54882374D01*
X133899762Y-54743156D01*
X134018156Y-54624762D01*
X134157374Y-54531740D01*
X134157376Y-54531739D01*
X134312065Y-54467664D01*
X134476281Y-54435000D01*
X134643719Y-54435000D01*
X134807935Y-54467664D01*
G37*
G36*
X127187935Y-54467664D02*
G01*
X127342624Y-54531739D01*
X127342626Y-54531740D01*
X127481844Y-54624762D01*
X127600238Y-54743156D01*
X127693260Y-54882374D01*
X127693261Y-54882376D01*
X127757336Y-55037065D01*
X127790000Y-55201281D01*
X127790000Y-55368719D01*
X127757336Y-55532935D01*
X127693261Y-55687624D01*
X127693260Y-55687626D01*
X127600238Y-55826844D01*
X127481844Y-55945238D01*
X127342626Y-56038260D01*
X127342625Y-56038261D01*
X127342624Y-56038261D01*
X127187935Y-56102336D01*
X127023719Y-56135000D01*
X126856281Y-56135000D01*
X126692065Y-56102336D01*
X126537376Y-56038261D01*
X126537375Y-56038261D01*
X126537374Y-56038260D01*
X126398156Y-55945238D01*
X126279762Y-55826844D01*
X126186740Y-55687626D01*
X126186739Y-55687624D01*
X126122664Y-55532935D01*
X126090000Y-55368719D01*
X126090000Y-55201281D01*
X126122664Y-55037065D01*
X126186739Y-54882376D01*
X126186740Y-54882374D01*
X126279762Y-54743156D01*
X126398156Y-54624762D01*
X126537374Y-54531740D01*
X126537376Y-54531739D01*
X126692065Y-54467664D01*
X126856281Y-54435000D01*
X127023719Y-54435000D01*
X127187935Y-54467664D01*
G37*
G36*
X124647935Y-54467664D02*
G01*
X124802624Y-54531739D01*
X124802626Y-54531740D01*
X124941844Y-54624762D01*
X125060238Y-54743156D01*
X125153260Y-54882374D01*
X125153261Y-54882376D01*
X125217336Y-55037065D01*
X125250000Y-55201281D01*
X125250000Y-55368719D01*
X125217336Y-55532935D01*
X125153261Y-55687624D01*
X125153260Y-55687626D01*
X125060238Y-55826844D01*
X124941844Y-55945238D01*
X124802626Y-56038260D01*
X124802625Y-56038261D01*
X124802624Y-56038261D01*
X124647935Y-56102336D01*
X124483719Y-56135000D01*
X124316281Y-56135000D01*
X124152065Y-56102336D01*
X123997376Y-56038261D01*
X123997375Y-56038261D01*
X123997374Y-56038260D01*
X123858156Y-55945238D01*
X123739762Y-55826844D01*
X123646740Y-55687626D01*
X123646739Y-55687624D01*
X123582664Y-55532935D01*
X123550000Y-55368719D01*
X123550000Y-55201281D01*
X123582664Y-55037065D01*
X123646739Y-54882376D01*
X123646740Y-54882374D01*
X123739762Y-54743156D01*
X123858156Y-54624762D01*
X123997374Y-54531740D01*
X123997376Y-54531739D01*
X124152065Y-54467664D01*
X124316281Y-54435000D01*
X124483719Y-54435000D01*
X124647935Y-54467664D01*
G37*
G36*
X129727935Y-54467664D02*
G01*
X129882624Y-54531739D01*
X129882626Y-54531740D01*
X130021844Y-54624762D01*
X130140238Y-54743156D01*
X130233260Y-54882374D01*
X130233261Y-54882376D01*
X130297336Y-55037065D01*
X130330000Y-55201281D01*
X130330000Y-55368719D01*
X130297336Y-55532935D01*
X130233261Y-55687624D01*
X130233260Y-55687626D01*
X130140238Y-55826844D01*
X130021844Y-55945238D01*
X129882626Y-56038260D01*
X129882625Y-56038261D01*
X129882624Y-56038261D01*
X129727935Y-56102336D01*
X129563719Y-56135000D01*
X129396281Y-56135000D01*
X129232065Y-56102336D01*
X129077376Y-56038261D01*
X129077375Y-56038261D01*
X129077374Y-56038260D01*
X128938156Y-55945238D01*
X128819762Y-55826844D01*
X128726740Y-55687626D01*
X128726739Y-55687624D01*
X128662664Y-55532935D01*
X128630000Y-55368719D01*
X128630000Y-55201281D01*
X128662664Y-55037065D01*
X128726739Y-54882376D01*
X128726740Y-54882374D01*
X128819762Y-54743156D01*
X128938156Y-54624762D01*
X129077374Y-54531740D01*
X129077376Y-54531739D01*
X129232065Y-54467664D01*
X129396281Y-54435000D01*
X129563719Y-54435000D01*
X129727935Y-54467664D01*
G37*
G36*
X132267935Y-54467664D02*
G01*
X132422624Y-54531739D01*
X132422626Y-54531740D01*
X132561844Y-54624762D01*
X132680238Y-54743156D01*
X132773260Y-54882374D01*
X132773261Y-54882376D01*
X132837336Y-55037065D01*
X132870000Y-55201281D01*
X132870000Y-55368719D01*
X132837336Y-55532935D01*
X132773261Y-55687624D01*
X132773260Y-55687626D01*
X132680238Y-55826844D01*
X132561844Y-55945238D01*
X132422626Y-56038260D01*
X132422625Y-56038261D01*
X132422624Y-56038261D01*
X132267935Y-56102336D01*
X132103719Y-56135000D01*
X131936281Y-56135000D01*
X131772065Y-56102336D01*
X131617376Y-56038261D01*
X131617375Y-56038261D01*
X131617374Y-56038260D01*
X131478156Y-55945238D01*
X131359762Y-55826844D01*
X131266740Y-55687626D01*
X131266739Y-55687624D01*
X131202664Y-55532935D01*
X131170000Y-55368719D01*
X131170000Y-55201281D01*
X131202664Y-55037065D01*
X131266739Y-54882376D01*
X131266740Y-54882374D01*
X131359762Y-54743156D01*
X131478156Y-54624762D01*
X131617374Y-54531740D01*
X131617376Y-54531739D01*
X131772065Y-54467664D01*
X131936281Y-54435000D01*
X132103719Y-54435000D01*
X132267935Y-54467664D01*
G37*
G36*
X157920857Y-51342272D02*
G01*
X158121043Y-51425192D01*
X158121045Y-51425193D01*
X158211738Y-51485792D01*
X158301208Y-51545574D01*
X158454426Y-51698792D01*
X158574808Y-51878957D01*
X158657728Y-52079143D01*
X158700000Y-52291658D01*
X158700000Y-52508342D01*
X158657728Y-52720857D01*
X158574808Y-52921043D01*
X158574807Y-52921045D01*
X158454425Y-53101209D01*
X158301209Y-53254425D01*
X158121045Y-53374807D01*
X158121044Y-53374808D01*
X158121043Y-53374808D01*
X157920857Y-53457728D01*
X157708342Y-53500000D01*
X157491658Y-53500000D01*
X157279143Y-53457728D01*
X157078957Y-53374808D01*
X157078956Y-53374808D01*
X157078955Y-53374807D01*
X156898791Y-53254425D01*
X156745575Y-53101209D01*
X156625193Y-52921045D01*
X156625192Y-52921043D01*
X156542272Y-52720857D01*
X156500000Y-52508342D01*
X156500000Y-52291658D01*
X156542272Y-52079143D01*
X156625192Y-51878957D01*
X156745574Y-51698792D01*
X156898792Y-51545574D01*
X156988262Y-51485792D01*
X157078955Y-51425193D01*
X157078957Y-51425192D01*
X157279143Y-51342272D01*
X157491658Y-51300000D01*
X157708342Y-51300000D01*
X157920857Y-51342272D01*
G37*
M02*
