G04 #@! TF.GenerationSoftware,KiCad,Pcbnew,(5.1.5)-3*
G04 #@! TF.CreationDate,2020-11-23T20:36:50+00:00*
G04 #@! TF.ProjectId,Retrospector_Components,52657472-6f73-4706-9563-746f725f436f,rev?*
G04 #@! TF.SameCoordinates,Original*
G04 #@! TF.FileFunction,Legend,Top*
G04 #@! TF.FilePolarity,Positive*
%FSLAX46Y46*%
G04 Gerber Fmt 4.6, Leading zero omitted, Abs format (unit mm)*
G04 Created by KiCad (PCBNEW (5.1.5)-3) date 2020-11-23 20:36:50*
%MOMM*%
%LPD*%
G04 APERTURE LIST*
%ADD10C,0.500000*%
%ADD11C,0.150000*%
%ADD12C,0.100000*%
%ADD13C,0.300000*%
%ADD14C,0.200000*%
%ADD15C,0.120000*%
G04 APERTURE END LIST*
D10*
X148023607Y-80000000D02*
G75*
G03X148023607Y-80000000I-223607J0D01*
G01*
D11*
X102166666Y-83252380D02*
X102166666Y-83966666D01*
X102119047Y-84109523D01*
X102023809Y-84204761D01*
X101880952Y-84252380D01*
X101785714Y-84252380D01*
X102547619Y-83252380D02*
X103166666Y-83252380D01*
X102833333Y-83633333D01*
X102976190Y-83633333D01*
X103071428Y-83680952D01*
X103119047Y-83728571D01*
X103166666Y-83823809D01*
X103166666Y-84061904D01*
X103119047Y-84157142D01*
X103071428Y-84204761D01*
X102976190Y-84252380D01*
X102690476Y-84252380D01*
X102595238Y-84204761D01*
X102547619Y-84157142D01*
X102266666Y-127152380D02*
X102266666Y-127866666D01*
X102219047Y-128009523D01*
X102123809Y-128104761D01*
X101980952Y-128152380D01*
X101885714Y-128152380D01*
X103171428Y-127485714D02*
X103171428Y-128152380D01*
X102933333Y-127104761D02*
X102695238Y-127819047D01*
X103314285Y-127819047D01*
X157166666Y-127152380D02*
X157166666Y-127866666D01*
X157119047Y-128009523D01*
X157023809Y-128104761D01*
X156880952Y-128152380D01*
X156785714Y-128152380D01*
X158071428Y-127152380D02*
X157880952Y-127152380D01*
X157785714Y-127200000D01*
X157738095Y-127247619D01*
X157642857Y-127390476D01*
X157595238Y-127580952D01*
X157595238Y-127961904D01*
X157642857Y-128057142D01*
X157690476Y-128104761D01*
X157785714Y-128152380D01*
X157976190Y-128152380D01*
X158071428Y-128104761D01*
X158119047Y-128057142D01*
X158166666Y-127961904D01*
X158166666Y-127723809D01*
X158119047Y-127628571D01*
X158071428Y-127580952D01*
X157976190Y-127533333D01*
X157785714Y-127533333D01*
X157690476Y-127580952D01*
X157642857Y-127628571D01*
X157595238Y-127723809D01*
X157166666Y-83352380D02*
X157166666Y-84066666D01*
X157119047Y-84209523D01*
X157023809Y-84304761D01*
X156880952Y-84352380D01*
X156785714Y-84352380D01*
X158119047Y-83352380D02*
X157642857Y-83352380D01*
X157595238Y-83828571D01*
X157642857Y-83780952D01*
X157738095Y-83733333D01*
X157976190Y-83733333D01*
X158071428Y-83780952D01*
X158119047Y-83828571D01*
X158166666Y-83923809D01*
X158166666Y-84161904D01*
X158119047Y-84257142D01*
X158071428Y-84304761D01*
X157976190Y-84352380D01*
X157738095Y-84352380D01*
X157642857Y-84304761D01*
X157595238Y-84257142D01*
X144433333Y-97252380D02*
X144433333Y-96252380D01*
X144671428Y-96252380D01*
X144814285Y-96300000D01*
X144909523Y-96395238D01*
X144957142Y-96490476D01*
X145004761Y-96680952D01*
X145004761Y-96823809D01*
X144957142Y-97014285D01*
X144909523Y-97109523D01*
X144814285Y-97204761D01*
X144671428Y-97252380D01*
X144433333Y-97252380D01*
X145909523Y-97252380D02*
X145433333Y-97252380D01*
X145433333Y-96252380D01*
X145438095Y-91852380D02*
X145438095Y-90852380D01*
X145676190Y-90852380D01*
X145819047Y-90900000D01*
X145914285Y-90995238D01*
X145961904Y-91090476D01*
X146009523Y-91280952D01*
X146009523Y-91423809D01*
X145961904Y-91614285D01*
X145914285Y-91709523D01*
X145819047Y-91804761D01*
X145676190Y-91852380D01*
X145438095Y-91852380D01*
X147009523Y-91852380D02*
X146676190Y-91376190D01*
X146438095Y-91852380D02*
X146438095Y-90852380D01*
X146819047Y-90852380D01*
X146914285Y-90900000D01*
X146961904Y-90947619D01*
X147009523Y-91042857D01*
X147009523Y-91185714D01*
X146961904Y-91280952D01*
X146914285Y-91328571D01*
X146819047Y-91376190D01*
X146438095Y-91376190D01*
X103990476Y-80752380D02*
X104561904Y-80752380D01*
X104276190Y-81752380D02*
X104276190Y-80752380D01*
X104895238Y-81752380D02*
X104895238Y-80752380D01*
X105466666Y-81752380D01*
X105466666Y-80752380D01*
X105942857Y-81752380D02*
X105942857Y-80752380D01*
X106323809Y-80752380D01*
X106419047Y-80800000D01*
X106466666Y-80847619D01*
X106514285Y-80942857D01*
X106514285Y-81085714D01*
X106466666Y-81180952D01*
X106419047Y-81228571D01*
X106323809Y-81276190D01*
X105942857Y-81276190D01*
X104552380Y-79152380D02*
X104219047Y-78676190D01*
X103980952Y-79152380D02*
X103980952Y-78152380D01*
X104361904Y-78152380D01*
X104457142Y-78200000D01*
X104504761Y-78247619D01*
X104552380Y-78342857D01*
X104552380Y-78485714D01*
X104504761Y-78580952D01*
X104457142Y-78628571D01*
X104361904Y-78676190D01*
X103980952Y-78676190D01*
X104933333Y-79104761D02*
X105076190Y-79152380D01*
X105314285Y-79152380D01*
X105409523Y-79104761D01*
X105457142Y-79057142D01*
X105504761Y-78961904D01*
X105504761Y-78866666D01*
X105457142Y-78771428D01*
X105409523Y-78723809D01*
X105314285Y-78676190D01*
X105123809Y-78628571D01*
X105028571Y-78580952D01*
X104980952Y-78533333D01*
X104933333Y-78438095D01*
X104933333Y-78342857D01*
X104980952Y-78247619D01*
X105028571Y-78200000D01*
X105123809Y-78152380D01*
X105361904Y-78152380D01*
X105504761Y-78200000D01*
X105790476Y-78152380D02*
X106361904Y-78152380D01*
X106076190Y-79152380D02*
X106076190Y-78152380D01*
X103838095Y-76752380D02*
X103838095Y-75752380D01*
X104076190Y-75752380D01*
X104219047Y-75800000D01*
X104314285Y-75895238D01*
X104361904Y-75990476D01*
X104409523Y-76180952D01*
X104409523Y-76323809D01*
X104361904Y-76514285D01*
X104314285Y-76609523D01*
X104219047Y-76704761D01*
X104076190Y-76752380D01*
X103838095Y-76752380D01*
X105409523Y-76657142D02*
X105361904Y-76704761D01*
X105219047Y-76752380D01*
X105123809Y-76752380D01*
X104980952Y-76704761D01*
X104885714Y-76609523D01*
X104838095Y-76514285D01*
X104790476Y-76323809D01*
X104790476Y-76180952D01*
X104838095Y-75990476D01*
X104885714Y-75895238D01*
X104980952Y-75800000D01*
X105123809Y-75752380D01*
X105219047Y-75752380D01*
X105361904Y-75800000D01*
X105409523Y-75847619D01*
X106409523Y-76752380D02*
X106076190Y-76276190D01*
X105838095Y-76752380D02*
X105838095Y-75752380D01*
X106219047Y-75752380D01*
X106314285Y-75800000D01*
X106361904Y-75847619D01*
X106409523Y-75942857D01*
X106409523Y-76085714D01*
X106361904Y-76180952D01*
X106314285Y-76228571D01*
X106219047Y-76276190D01*
X105838095Y-76276190D01*
X103933333Y-74152380D02*
X103933333Y-73152380D01*
X104171428Y-73152380D01*
X104314285Y-73200000D01*
X104409523Y-73295238D01*
X104457142Y-73390476D01*
X104504761Y-73580952D01*
X104504761Y-73723809D01*
X104457142Y-73914285D01*
X104409523Y-74009523D01*
X104314285Y-74104761D01*
X104171428Y-74152380D01*
X103933333Y-74152380D01*
X105504761Y-74057142D02*
X105457142Y-74104761D01*
X105314285Y-74152380D01*
X105219047Y-74152380D01*
X105076190Y-74104761D01*
X104980952Y-74009523D01*
X104933333Y-73914285D01*
X104885714Y-73723809D01*
X104885714Y-73580952D01*
X104933333Y-73390476D01*
X104980952Y-73295238D01*
X105076190Y-73200000D01*
X105219047Y-73152380D01*
X105314285Y-73152380D01*
X105457142Y-73200000D01*
X105504761Y-73247619D01*
X106409523Y-74152380D02*
X105933333Y-74152380D01*
X105933333Y-73152380D01*
X104100000Y-70266666D02*
X104576190Y-70266666D01*
X104004761Y-70552380D02*
X104338095Y-69552380D01*
X104671428Y-70552380D01*
X105004761Y-70552380D02*
X105004761Y-69552380D01*
X105480952Y-70552380D02*
X105480952Y-69552380D01*
X106052380Y-70552380D01*
X106052380Y-69552380D01*
X153290476Y-81752380D02*
X153290476Y-80752380D01*
X153623809Y-81466666D01*
X153957142Y-80752380D01*
X153957142Y-81752380D01*
X154433333Y-81752380D02*
X154433333Y-80752380D01*
X154671428Y-80752380D01*
X154814285Y-80800000D01*
X154909523Y-80895238D01*
X154957142Y-80990476D01*
X155004761Y-81180952D01*
X155004761Y-81323809D01*
X154957142Y-81514285D01*
X154909523Y-81609523D01*
X154814285Y-81704761D01*
X154671428Y-81752380D01*
X154433333Y-81752380D01*
X155385714Y-80847619D02*
X155433333Y-80800000D01*
X155528571Y-80752380D01*
X155766666Y-80752380D01*
X155861904Y-80800000D01*
X155909523Y-80847619D01*
X155957142Y-80942857D01*
X155957142Y-81038095D01*
X155909523Y-81180952D01*
X155338095Y-81752380D01*
X155957142Y-81752380D01*
X153290476Y-79152380D02*
X153290476Y-78152380D01*
X153623809Y-78866666D01*
X153957142Y-78152380D01*
X153957142Y-79152380D01*
X154433333Y-79152380D02*
X154433333Y-78152380D01*
X154671428Y-78152380D01*
X154814285Y-78200000D01*
X154909523Y-78295238D01*
X154957142Y-78390476D01*
X155004761Y-78580952D01*
X155004761Y-78723809D01*
X154957142Y-78914285D01*
X154909523Y-79009523D01*
X154814285Y-79104761D01*
X154671428Y-79152380D01*
X154433333Y-79152380D01*
X155957142Y-79152380D02*
X155385714Y-79152380D01*
X155671428Y-79152380D02*
X155671428Y-78152380D01*
X155576190Y-78295238D01*
X155480952Y-78390476D01*
X155385714Y-78438095D01*
X153338095Y-76652380D02*
X153338095Y-75652380D01*
X153576190Y-75652380D01*
X153719047Y-75700000D01*
X153814285Y-75795238D01*
X153861904Y-75890476D01*
X153909523Y-76080952D01*
X153909523Y-76223809D01*
X153861904Y-76414285D01*
X153814285Y-76509523D01*
X153719047Y-76604761D01*
X153576190Y-76652380D01*
X153338095Y-76652380D01*
X154338095Y-76652380D02*
X154338095Y-75652380D01*
X154719047Y-75652380D01*
X154814285Y-75700000D01*
X154861904Y-75747619D01*
X154909523Y-75842857D01*
X154909523Y-75985714D01*
X154861904Y-76080952D01*
X154814285Y-76128571D01*
X154719047Y-76176190D01*
X154338095Y-76176190D01*
X155909523Y-76652380D02*
X155576190Y-76176190D01*
X155338095Y-76652380D02*
X155338095Y-75652380D01*
X155719047Y-75652380D01*
X155814285Y-75700000D01*
X155861904Y-75747619D01*
X155909523Y-75842857D01*
X155909523Y-75985714D01*
X155861904Y-76080952D01*
X155814285Y-76128571D01*
X155719047Y-76176190D01*
X155338095Y-76176190D01*
X153338095Y-73866666D02*
X153814285Y-73866666D01*
X153242857Y-74152380D02*
X153576190Y-73152380D01*
X153909523Y-74152380D01*
X154433333Y-73152380D02*
X154623809Y-73152380D01*
X154719047Y-73200000D01*
X154814285Y-73295238D01*
X154861904Y-73485714D01*
X154861904Y-73819047D01*
X154814285Y-74009523D01*
X154719047Y-74104761D01*
X154623809Y-74152380D01*
X154433333Y-74152380D01*
X154338095Y-74104761D01*
X154242857Y-74009523D01*
X154195238Y-73819047D01*
X154195238Y-73485714D01*
X154242857Y-73295238D01*
X154338095Y-73200000D01*
X154433333Y-73152380D01*
X155861904Y-74152380D02*
X155528571Y-73676190D01*
X155290476Y-74152380D02*
X155290476Y-73152380D01*
X155671428Y-73152380D01*
X155766666Y-73200000D01*
X155814285Y-73247619D01*
X155861904Y-73342857D01*
X155861904Y-73485714D01*
X155814285Y-73580952D01*
X155766666Y-73628571D01*
X155671428Y-73676190D01*
X155290476Y-73676190D01*
X103990476Y-130452380D02*
X103990476Y-129452380D01*
X104323809Y-130166666D01*
X104657142Y-129452380D01*
X104657142Y-130452380D01*
X105038095Y-129452380D02*
X105704761Y-130452380D01*
X105704761Y-129452380D02*
X105038095Y-130452380D01*
X106657142Y-130357142D02*
X106609523Y-130404761D01*
X106466666Y-130452380D01*
X106371428Y-130452380D01*
X106228571Y-130404761D01*
X106133333Y-130309523D01*
X106085714Y-130214285D01*
X106038095Y-130023809D01*
X106038095Y-129880952D01*
X106085714Y-129690476D01*
X106133333Y-129595238D01*
X106228571Y-129500000D01*
X106371428Y-129452380D01*
X106466666Y-129452380D01*
X106609523Y-129500000D01*
X106657142Y-129547619D01*
X103990476Y-133052380D02*
X103990476Y-132052380D01*
X104323809Y-132766666D01*
X104657142Y-132052380D01*
X104657142Y-133052380D01*
X105038095Y-132052380D02*
X105704761Y-133052380D01*
X105704761Y-132052380D02*
X105038095Y-133052380D01*
X106085714Y-133052380D02*
X106085714Y-132052380D01*
X106466666Y-132052380D01*
X106561904Y-132100000D01*
X106609523Y-132147619D01*
X106657142Y-132242857D01*
X106657142Y-132385714D01*
X106609523Y-132480952D01*
X106561904Y-132528571D01*
X106466666Y-132576190D01*
X106085714Y-132576190D01*
X104604761Y-143057142D02*
X104557142Y-143104761D01*
X104414285Y-143152380D01*
X104319047Y-143152380D01*
X104176190Y-143104761D01*
X104080952Y-143009523D01*
X104033333Y-142914285D01*
X103985714Y-142723809D01*
X103985714Y-142580952D01*
X104033333Y-142390476D01*
X104080952Y-142295238D01*
X104176190Y-142200000D01*
X104319047Y-142152380D01*
X104414285Y-142152380D01*
X104557142Y-142200000D01*
X104604761Y-142247619D01*
X105509523Y-143152380D02*
X105033333Y-143152380D01*
X105033333Y-142152380D01*
X105842857Y-143152380D02*
X105842857Y-142152380D01*
X106414285Y-143152380D02*
X105985714Y-142580952D01*
X106414285Y-142152380D02*
X105842857Y-142723809D01*
X104033333Y-140652380D02*
X104033333Y-139652380D01*
X104271428Y-139652380D01*
X104414285Y-139700000D01*
X104509523Y-139795238D01*
X104557142Y-139890476D01*
X104604761Y-140080952D01*
X104604761Y-140223809D01*
X104557142Y-140414285D01*
X104509523Y-140509523D01*
X104414285Y-140604761D01*
X104271428Y-140652380D01*
X104033333Y-140652380D01*
X105033333Y-140652380D02*
X105033333Y-139652380D01*
X105414285Y-139652380D01*
X105509523Y-139700000D01*
X105557142Y-139747619D01*
X105604761Y-139842857D01*
X105604761Y-139985714D01*
X105557142Y-140080952D01*
X105509523Y-140128571D01*
X105414285Y-140176190D01*
X105033333Y-140176190D01*
X106509523Y-140652380D02*
X106033333Y-140652380D01*
X106033333Y-139652380D01*
X104342857Y-137528571D02*
X104009523Y-137528571D01*
X104009523Y-138052380D02*
X104009523Y-137052380D01*
X104485714Y-137052380D01*
X105200000Y-137528571D02*
X105342857Y-137576190D01*
X105390476Y-137623809D01*
X105438095Y-137719047D01*
X105438095Y-137861904D01*
X105390476Y-137957142D01*
X105342857Y-138004761D01*
X105247619Y-138052380D01*
X104866666Y-138052380D01*
X104866666Y-137052380D01*
X105200000Y-137052380D01*
X105295238Y-137100000D01*
X105342857Y-137147619D01*
X105390476Y-137242857D01*
X105390476Y-137338095D01*
X105342857Y-137433333D01*
X105295238Y-137480952D01*
X105200000Y-137528571D01*
X104866666Y-137528571D01*
X106438095Y-137957142D02*
X106390476Y-138004761D01*
X106247619Y-138052380D01*
X106152380Y-138052380D01*
X106009523Y-138004761D01*
X105914285Y-137909523D01*
X105866666Y-137814285D01*
X105819047Y-137623809D01*
X105819047Y-137480952D01*
X105866666Y-137290476D01*
X105914285Y-137195238D01*
X106009523Y-137100000D01*
X106152380Y-137052380D01*
X106247619Y-137052380D01*
X106390476Y-137100000D01*
X106438095Y-137147619D01*
X104342857Y-135028571D02*
X104009523Y-135028571D01*
X104009523Y-135552380D02*
X104009523Y-134552380D01*
X104485714Y-134552380D01*
X105200000Y-135028571D02*
X105342857Y-135076190D01*
X105390476Y-135123809D01*
X105438095Y-135219047D01*
X105438095Y-135361904D01*
X105390476Y-135457142D01*
X105342857Y-135504761D01*
X105247619Y-135552380D01*
X104866666Y-135552380D01*
X104866666Y-134552380D01*
X105200000Y-134552380D01*
X105295238Y-134600000D01*
X105342857Y-134647619D01*
X105390476Y-134742857D01*
X105390476Y-134838095D01*
X105342857Y-134933333D01*
X105295238Y-134980952D01*
X105200000Y-135028571D01*
X104866666Y-135028571D01*
X105866666Y-135552380D02*
X105866666Y-134552380D01*
X106247619Y-134552380D01*
X106342857Y-134600000D01*
X106390476Y-134647619D01*
X106438095Y-134742857D01*
X106438095Y-134885714D01*
X106390476Y-134980952D01*
X106342857Y-135028571D01*
X106247619Y-135076190D01*
X105866666Y-135076190D01*
D12*
G36*
X134000000Y-63900000D02*
G01*
X133300000Y-63900000D01*
X133300000Y-61600000D01*
X134000000Y-61600000D01*
X134000000Y-63900000D01*
G37*
X134000000Y-63900000D02*
X133300000Y-63900000D01*
X133300000Y-61600000D01*
X134000000Y-61600000D01*
X134000000Y-63900000D01*
D10*
X133723607Y-71600000D02*
G75*
G03X133723607Y-71600000I-223607J0D01*
G01*
D12*
G36*
X146700000Y-53100000D02*
G01*
X146000000Y-53100000D01*
X146000000Y-50800000D01*
X146700000Y-50800000D01*
X146700000Y-53100000D01*
G37*
X146700000Y-53100000D02*
X146000000Y-53100000D01*
X146000000Y-50800000D01*
X146700000Y-50800000D01*
X146700000Y-53100000D01*
D11*
X153509523Y-142152380D02*
X153509523Y-142961904D01*
X153557142Y-143057142D01*
X153604761Y-143104761D01*
X153700000Y-143152380D01*
X153890476Y-143152380D01*
X153985714Y-143104761D01*
X154033333Y-143057142D01*
X154080952Y-142961904D01*
X154080952Y-142152380D01*
X155033333Y-142152380D02*
X154557142Y-142152380D01*
X154509523Y-142628571D01*
X154557142Y-142580952D01*
X154652380Y-142533333D01*
X154890476Y-142533333D01*
X154985714Y-142580952D01*
X155033333Y-142628571D01*
X155080952Y-142723809D01*
X155080952Y-142961904D01*
X155033333Y-143057142D01*
X154985714Y-143104761D01*
X154890476Y-143152380D01*
X154652380Y-143152380D01*
X154557142Y-143104761D01*
X154509523Y-143057142D01*
X155366666Y-142152380D02*
X155700000Y-143152380D01*
X156033333Y-142152380D01*
X153442857Y-139652380D02*
X153442857Y-140461904D01*
X153490476Y-140557142D01*
X153538095Y-140604761D01*
X153633333Y-140652380D01*
X153823809Y-140652380D01*
X153919047Y-140604761D01*
X153966666Y-140557142D01*
X154014285Y-140461904D01*
X154014285Y-139652380D01*
X154490476Y-140652380D02*
X154490476Y-139652380D01*
X154728571Y-139652380D01*
X154871428Y-139700000D01*
X154966666Y-139795238D01*
X155014285Y-139890476D01*
X155061904Y-140080952D01*
X155061904Y-140223809D01*
X155014285Y-140414285D01*
X154966666Y-140509523D01*
X154871428Y-140604761D01*
X154728571Y-140652380D01*
X154490476Y-140652380D01*
X155490476Y-140652380D02*
X155490476Y-139652380D01*
X155823809Y-140366666D01*
X156157142Y-139652380D01*
X156157142Y-140652380D01*
X153414285Y-137152380D02*
X153414285Y-137961904D01*
X153461904Y-138057142D01*
X153509523Y-138104761D01*
X153604761Y-138152380D01*
X153795238Y-138152380D01*
X153890476Y-138104761D01*
X153938095Y-138057142D01*
X153985714Y-137961904D01*
X153985714Y-137152380D01*
X154461904Y-138152380D02*
X154461904Y-137152380D01*
X154700000Y-137152380D01*
X154842857Y-137200000D01*
X154938095Y-137295238D01*
X154985714Y-137390476D01*
X155033333Y-137580952D01*
X155033333Y-137723809D01*
X154985714Y-137914285D01*
X154938095Y-138009523D01*
X154842857Y-138104761D01*
X154700000Y-138152380D01*
X154461904Y-138152380D01*
X155461904Y-138152380D02*
X155461904Y-137152380D01*
X155842857Y-137152380D01*
X155938095Y-137200000D01*
X155985714Y-137247619D01*
X156033333Y-137342857D01*
X156033333Y-137485714D01*
X155985714Y-137580952D01*
X155938095Y-137628571D01*
X155842857Y-137676190D01*
X155461904Y-137676190D01*
D10*
X146023607Y-144000000D02*
G75*
G03X146023607Y-144000000I-223607J0D01*
G01*
D13*
X111753571Y-144800000D02*
X111039285Y-145300000D01*
X111753571Y-145657142D02*
X110253571Y-145657142D01*
X110253571Y-145085714D01*
X110325000Y-144942857D01*
X110396428Y-144871428D01*
X110539285Y-144800000D01*
X110753571Y-144800000D01*
X110896428Y-144871428D01*
X110967857Y-144942857D01*
X111039285Y-145085714D01*
X111039285Y-145657142D01*
X111682142Y-143585714D02*
X111753571Y-143728571D01*
X111753571Y-144014285D01*
X111682142Y-144157142D01*
X111539285Y-144228571D01*
X110967857Y-144228571D01*
X110825000Y-144157142D01*
X110753571Y-144014285D01*
X110753571Y-143728571D01*
X110825000Y-143585714D01*
X110967857Y-143514285D01*
X111110714Y-143514285D01*
X111253571Y-144228571D01*
X110753571Y-143085714D02*
X110753571Y-142514285D01*
X110253571Y-142871428D02*
X111539285Y-142871428D01*
X111682142Y-142800000D01*
X111753571Y-142657142D01*
X111753571Y-142514285D01*
X111753571Y-142014285D02*
X110753571Y-142014285D01*
X111039285Y-142014285D02*
X110896428Y-141942857D01*
X110825000Y-141871428D01*
X110753571Y-141728571D01*
X110753571Y-141585714D01*
X111753571Y-140871428D02*
X111682142Y-141014285D01*
X111610714Y-141085714D01*
X111467857Y-141157142D01*
X111039285Y-141157142D01*
X110896428Y-141085714D01*
X110825000Y-141014285D01*
X110753571Y-140871428D01*
X110753571Y-140657142D01*
X110825000Y-140514285D01*
X110896428Y-140442857D01*
X111039285Y-140371428D01*
X111467857Y-140371428D01*
X111610714Y-140442857D01*
X111682142Y-140514285D01*
X111753571Y-140657142D01*
X111753571Y-140871428D01*
X111682142Y-139800000D02*
X111753571Y-139657142D01*
X111753571Y-139371428D01*
X111682142Y-139228571D01*
X111539285Y-139157142D01*
X111467857Y-139157142D01*
X111325000Y-139228571D01*
X111253571Y-139371428D01*
X111253571Y-139585714D01*
X111182142Y-139728571D01*
X111039285Y-139800000D01*
X110967857Y-139800000D01*
X110825000Y-139728571D01*
X110753571Y-139585714D01*
X110753571Y-139371428D01*
X110825000Y-139228571D01*
X110753571Y-138514285D02*
X112253571Y-138514285D01*
X110825000Y-138514285D02*
X110753571Y-138371428D01*
X110753571Y-138085714D01*
X110825000Y-137942857D01*
X110896428Y-137871428D01*
X111039285Y-137800000D01*
X111467857Y-137800000D01*
X111610714Y-137871428D01*
X111682142Y-137942857D01*
X111753571Y-138085714D01*
X111753571Y-138371428D01*
X111682142Y-138514285D01*
X111682142Y-136585714D02*
X111753571Y-136728571D01*
X111753571Y-137014285D01*
X111682142Y-137157142D01*
X111539285Y-137228571D01*
X110967857Y-137228571D01*
X110825000Y-137157142D01*
X110753571Y-137014285D01*
X110753571Y-136728571D01*
X110825000Y-136585714D01*
X110967857Y-136514285D01*
X111110714Y-136514285D01*
X111253571Y-137228571D01*
X111682142Y-135228571D02*
X111753571Y-135371428D01*
X111753571Y-135657142D01*
X111682142Y-135800000D01*
X111610714Y-135871428D01*
X111467857Y-135942857D01*
X111039285Y-135942857D01*
X110896428Y-135871428D01*
X110825000Y-135800000D01*
X110753571Y-135657142D01*
X110753571Y-135371428D01*
X110825000Y-135228571D01*
X110753571Y-134800000D02*
X110753571Y-134228571D01*
X110253571Y-134585714D02*
X111539285Y-134585714D01*
X111682142Y-134514285D01*
X111753571Y-134371428D01*
X111753571Y-134228571D01*
X111753571Y-133514285D02*
X111682142Y-133657142D01*
X111610714Y-133728571D01*
X111467857Y-133800000D01*
X111039285Y-133800000D01*
X110896428Y-133728571D01*
X110825000Y-133657142D01*
X110753571Y-133514285D01*
X110753571Y-133300000D01*
X110825000Y-133157142D01*
X110896428Y-133085714D01*
X111039285Y-133014285D01*
X111467857Y-133014285D01*
X111610714Y-133085714D01*
X111682142Y-133157142D01*
X111753571Y-133300000D01*
X111753571Y-133514285D01*
X111753571Y-132371428D02*
X110753571Y-132371428D01*
X111039285Y-132371428D02*
X110896428Y-132300000D01*
X110825000Y-132228571D01*
X110753571Y-132085714D01*
X110753571Y-131942857D01*
X110753571Y-130442857D02*
X111753571Y-130085714D01*
X110753571Y-129728571D01*
X110396428Y-129228571D02*
X110325000Y-129157142D01*
X110253571Y-129014285D01*
X110253571Y-128657142D01*
X110325000Y-128514285D01*
X110396428Y-128442857D01*
X110539285Y-128371428D01*
X110682142Y-128371428D01*
X110896428Y-128442857D01*
X111753571Y-129300000D01*
X111753571Y-128371428D01*
X114303571Y-146621428D02*
X112803571Y-146621428D01*
X113875000Y-146121428D01*
X112803571Y-145621428D01*
X114303571Y-145621428D01*
X114303571Y-144692857D02*
X114232142Y-144835714D01*
X114160714Y-144907142D01*
X114017857Y-144978571D01*
X113589285Y-144978571D01*
X113446428Y-144907142D01*
X113375000Y-144835714D01*
X113303571Y-144692857D01*
X113303571Y-144478571D01*
X113375000Y-144335714D01*
X113446428Y-144264285D01*
X113589285Y-144192857D01*
X114017857Y-144192857D01*
X114160714Y-144264285D01*
X114232142Y-144335714D01*
X114303571Y-144478571D01*
X114303571Y-144692857D01*
X113303571Y-142907142D02*
X114303571Y-142907142D01*
X113303571Y-143550000D02*
X114089285Y-143550000D01*
X114232142Y-143478571D01*
X114303571Y-143335714D01*
X114303571Y-143121428D01*
X114232142Y-142978571D01*
X114160714Y-142907142D01*
X113303571Y-142192857D02*
X114303571Y-142192857D01*
X113446428Y-142192857D02*
X113375000Y-142121428D01*
X113303571Y-141978571D01*
X113303571Y-141764285D01*
X113375000Y-141621428D01*
X113517857Y-141550000D01*
X114303571Y-141550000D01*
X113303571Y-141050000D02*
X113303571Y-140478571D01*
X112803571Y-140835714D02*
X114089285Y-140835714D01*
X114232142Y-140764285D01*
X114303571Y-140621428D01*
X114303571Y-140478571D01*
X113303571Y-139978571D02*
X114589285Y-139978571D01*
X114732142Y-140050000D01*
X114803571Y-140192857D01*
X114803571Y-140264285D01*
X112803571Y-139978571D02*
X112875000Y-140050000D01*
X112946428Y-139978571D01*
X112875000Y-139907142D01*
X112803571Y-139978571D01*
X112946428Y-139978571D01*
X114303571Y-139050000D02*
X114232142Y-139192857D01*
X114160714Y-139264285D01*
X114017857Y-139335714D01*
X113589285Y-139335714D01*
X113446428Y-139264285D01*
X113375000Y-139192857D01*
X113303571Y-139050000D01*
X113303571Y-138835714D01*
X113375000Y-138692857D01*
X113446428Y-138621428D01*
X113589285Y-138550000D01*
X114017857Y-138550000D01*
X114160714Y-138621428D01*
X114232142Y-138692857D01*
X114303571Y-138835714D01*
X114303571Y-139050000D01*
X113303571Y-138050000D02*
X114303571Y-137692857D01*
X113303571Y-137335714D02*
X114303571Y-137692857D01*
X114660714Y-137835714D01*
X114732142Y-137907142D01*
X114803571Y-138050000D01*
X114303571Y-135621428D02*
X112803571Y-135621428D01*
X113875000Y-135121428D01*
X112803571Y-134621428D01*
X114303571Y-134621428D01*
X114303571Y-133692857D02*
X114232142Y-133835714D01*
X114160714Y-133907142D01*
X114017857Y-133978571D01*
X113589285Y-133978571D01*
X113446428Y-133907142D01*
X113375000Y-133835714D01*
X113303571Y-133692857D01*
X113303571Y-133478571D01*
X113375000Y-133335714D01*
X113446428Y-133264285D01*
X113589285Y-133192857D01*
X114017857Y-133192857D01*
X114160714Y-133264285D01*
X114232142Y-133335714D01*
X114303571Y-133478571D01*
X114303571Y-133692857D01*
X114303571Y-131907142D02*
X112803571Y-131907142D01*
X114232142Y-131907142D02*
X114303571Y-132050000D01*
X114303571Y-132335714D01*
X114232142Y-132478571D01*
X114160714Y-132550000D01*
X114017857Y-132621428D01*
X113589285Y-132621428D01*
X113446428Y-132550000D01*
X113375000Y-132478571D01*
X113303571Y-132335714D01*
X113303571Y-132050000D01*
X113375000Y-131907142D01*
X113303571Y-130550000D02*
X114303571Y-130550000D01*
X113303571Y-131192857D02*
X114089285Y-131192857D01*
X114232142Y-131121428D01*
X114303571Y-130978571D01*
X114303571Y-130764285D01*
X114232142Y-130621428D01*
X114160714Y-130550000D01*
X114303571Y-129621428D02*
X114232142Y-129764285D01*
X114089285Y-129835714D01*
X112803571Y-129835714D01*
X114303571Y-128407142D02*
X113517857Y-128407142D01*
X113375000Y-128478571D01*
X113303571Y-128621428D01*
X113303571Y-128907142D01*
X113375000Y-129050000D01*
X114232142Y-128407142D02*
X114303571Y-128550000D01*
X114303571Y-128907142D01*
X114232142Y-129050000D01*
X114089285Y-129121428D01*
X113946428Y-129121428D01*
X113803571Y-129050000D01*
X113732142Y-128907142D01*
X113732142Y-128550000D01*
X113660714Y-128407142D01*
X114303571Y-127692857D02*
X113303571Y-127692857D01*
X113589285Y-127692857D02*
X113446428Y-127621428D01*
X113375000Y-127550000D01*
X113303571Y-127407142D01*
X113303571Y-127264285D01*
D14*
X114614285Y-157142857D02*
X115357142Y-157142857D01*
X114957142Y-157600000D01*
X115128571Y-157600000D01*
X115242857Y-157657142D01*
X115300000Y-157714285D01*
X115357142Y-157828571D01*
X115357142Y-158114285D01*
X115300000Y-158228571D01*
X115242857Y-158285714D01*
X115128571Y-158342857D01*
X114785714Y-158342857D01*
X114671428Y-158285714D01*
X114614285Y-158228571D01*
X115700000Y-157142857D02*
X116100000Y-158342857D01*
X116500000Y-157142857D01*
X116785714Y-157142857D02*
X117528571Y-157142857D01*
X117128571Y-157600000D01*
X117300000Y-157600000D01*
X117414285Y-157657142D01*
X117471428Y-157714285D01*
X117528571Y-157828571D01*
X117528571Y-158114285D01*
X117471428Y-158228571D01*
X117414285Y-158285714D01*
X117300000Y-158342857D01*
X116957142Y-158342857D01*
X116842857Y-158285714D01*
X116785714Y-158228571D01*
X109200000Y-157142857D02*
X109942857Y-157142857D01*
X109542857Y-157600000D01*
X109714285Y-157600000D01*
X109828571Y-157657142D01*
X109885714Y-157714285D01*
X109942857Y-157828571D01*
X109942857Y-158114285D01*
X109885714Y-158228571D01*
X109828571Y-158285714D01*
X109714285Y-158342857D01*
X109371428Y-158342857D01*
X109257142Y-158285714D01*
X109200000Y-158228571D01*
X110285714Y-157142857D02*
X110685714Y-158342857D01*
X111085714Y-157142857D01*
X111371428Y-157142857D02*
X112114285Y-157142857D01*
X111714285Y-157600000D01*
X111885714Y-157600000D01*
X112000000Y-157657142D01*
X112057142Y-157714285D01*
X112114285Y-157828571D01*
X112114285Y-158114285D01*
X112057142Y-158228571D01*
X112000000Y-158285714D01*
X111885714Y-158342857D01*
X111542857Y-158342857D01*
X111428571Y-158285714D01*
X111371428Y-158228571D01*
X112571428Y-158000000D02*
X113142857Y-158000000D01*
X112457142Y-158342857D02*
X112857142Y-157142857D01*
X113257142Y-158342857D01*
X105485714Y-157200000D02*
X105371428Y-157142857D01*
X105200000Y-157142857D01*
X105028571Y-157200000D01*
X104914285Y-157314285D01*
X104857142Y-157428571D01*
X104800000Y-157657142D01*
X104800000Y-157828571D01*
X104857142Y-158057142D01*
X104914285Y-158171428D01*
X105028571Y-158285714D01*
X105200000Y-158342857D01*
X105314285Y-158342857D01*
X105485714Y-158285714D01*
X105542857Y-158228571D01*
X105542857Y-157828571D01*
X105314285Y-157828571D01*
X106057142Y-158342857D02*
X106057142Y-157142857D01*
X106742857Y-158342857D01*
X106742857Y-157142857D01*
X107314285Y-158342857D02*
X107314285Y-157142857D01*
X107600000Y-157142857D01*
X107771428Y-157200000D01*
X107885714Y-157314285D01*
X107942857Y-157428571D01*
X108000000Y-157657142D01*
X108000000Y-157828571D01*
X107942857Y-158057142D01*
X107885714Y-158171428D01*
X107771428Y-158285714D01*
X107600000Y-158342857D01*
X107314285Y-158342857D01*
X101557142Y-103585714D02*
X102471428Y-103585714D01*
X103614285Y-102842857D02*
X103042857Y-102842857D01*
X102985714Y-103414285D01*
X103042857Y-103357142D01*
X103157142Y-103300000D01*
X103442857Y-103300000D01*
X103557142Y-103357142D01*
X103614285Y-103414285D01*
X103671428Y-103528571D01*
X103671428Y-103814285D01*
X103614285Y-103928571D01*
X103557142Y-103985714D01*
X103442857Y-104042857D01*
X103157142Y-104042857D01*
X103042857Y-103985714D01*
X102985714Y-103928571D01*
X104014285Y-102842857D02*
X104414285Y-104042857D01*
X104814285Y-102842857D01*
X123485714Y-85885714D02*
X124400000Y-85885714D01*
X123942857Y-86342857D02*
X123942857Y-85428571D01*
X125600000Y-86342857D02*
X124914285Y-86342857D01*
X125257142Y-86342857D02*
X125257142Y-85142857D01*
X125142857Y-85314285D01*
X125028571Y-85428571D01*
X124914285Y-85485714D01*
X126057142Y-85257142D02*
X126114285Y-85200000D01*
X126228571Y-85142857D01*
X126514285Y-85142857D01*
X126628571Y-85200000D01*
X126685714Y-85257142D01*
X126742857Y-85371428D01*
X126742857Y-85485714D01*
X126685714Y-85657142D01*
X126000000Y-86342857D01*
X126742857Y-86342857D01*
X127085714Y-85142857D02*
X127485714Y-86342857D01*
X127885714Y-85142857D01*
X105685714Y-63585714D02*
X106600000Y-63585714D01*
X107800000Y-64042857D02*
X107114285Y-64042857D01*
X107457142Y-64042857D02*
X107457142Y-62842857D01*
X107342857Y-63014285D01*
X107228571Y-63128571D01*
X107114285Y-63185714D01*
X108257142Y-62957142D02*
X108314285Y-62900000D01*
X108428571Y-62842857D01*
X108714285Y-62842857D01*
X108828571Y-62900000D01*
X108885714Y-62957142D01*
X108942857Y-63071428D01*
X108942857Y-63185714D01*
X108885714Y-63357142D01*
X108200000Y-64042857D01*
X108942857Y-64042857D01*
X109285714Y-62842857D02*
X109685714Y-64042857D01*
X110085714Y-62842857D01*
D12*
X148709523Y-94311904D02*
X148709523Y-93511904D01*
X149014285Y-93511904D01*
X149090476Y-93550000D01*
X149128571Y-93588095D01*
X149166666Y-93664285D01*
X149166666Y-93778571D01*
X149128571Y-93854761D01*
X149090476Y-93892857D01*
X149014285Y-93930952D01*
X148709523Y-93930952D01*
X149966666Y-94235714D02*
X149928571Y-94273809D01*
X149814285Y-94311904D01*
X149738095Y-94311904D01*
X149623809Y-94273809D01*
X149547619Y-94197619D01*
X149509523Y-94121428D01*
X149471428Y-93969047D01*
X149471428Y-93854761D01*
X149509523Y-93702380D01*
X149547619Y-93626190D01*
X149623809Y-93550000D01*
X149738095Y-93511904D01*
X149814285Y-93511904D01*
X149928571Y-93550000D01*
X149966666Y-93588095D01*
X150309523Y-94311904D02*
X150309523Y-93511904D01*
X150576190Y-94083333D01*
X150842857Y-93511904D01*
X150842857Y-94311904D01*
X151604761Y-93511904D02*
X151223809Y-93511904D01*
X151185714Y-93892857D01*
X151223809Y-93854761D01*
X151300000Y-93816666D01*
X151490476Y-93816666D01*
X151566666Y-93854761D01*
X151604761Y-93892857D01*
X151642857Y-93969047D01*
X151642857Y-94159523D01*
X151604761Y-94235714D01*
X151566666Y-94273809D01*
X151490476Y-94311904D01*
X151300000Y-94311904D01*
X151223809Y-94273809D01*
X151185714Y-94235714D01*
X152404761Y-94311904D02*
X151947619Y-94311904D01*
X152176190Y-94311904D02*
X152176190Y-93511904D01*
X152100000Y-93626190D01*
X152023809Y-93702380D01*
X151947619Y-93740476D01*
X152900000Y-93511904D02*
X152976190Y-93511904D01*
X153052380Y-93550000D01*
X153090476Y-93588095D01*
X153128571Y-93664285D01*
X153166666Y-93816666D01*
X153166666Y-94007142D01*
X153128571Y-94159523D01*
X153090476Y-94235714D01*
X153052380Y-94273809D01*
X152976190Y-94311904D01*
X152900000Y-94311904D01*
X152823809Y-94273809D01*
X152785714Y-94235714D01*
X152747619Y-94159523D01*
X152709523Y-94007142D01*
X152709523Y-93816666D01*
X152747619Y-93664285D01*
X152785714Y-93588095D01*
X152823809Y-93550000D01*
X152900000Y-93511904D01*
X153661904Y-93511904D02*
X153738095Y-93511904D01*
X153814285Y-93550000D01*
X153852380Y-93588095D01*
X153890476Y-93664285D01*
X153928571Y-93816666D01*
X153928571Y-94007142D01*
X153890476Y-94159523D01*
X153852380Y-94235714D01*
X153814285Y-94273809D01*
X153738095Y-94311904D01*
X153661904Y-94311904D01*
X153585714Y-94273809D01*
X153547619Y-94235714D01*
X153509523Y-94159523D01*
X153471428Y-94007142D01*
X153471428Y-93816666D01*
X153509523Y-93664285D01*
X153547619Y-93588095D01*
X153585714Y-93550000D01*
X153661904Y-93511904D01*
X150347619Y-95611904D02*
X150347619Y-94811904D01*
X150538095Y-94811904D01*
X150652380Y-94850000D01*
X150728571Y-94926190D01*
X150766666Y-95002380D01*
X150804761Y-95154761D01*
X150804761Y-95269047D01*
X150766666Y-95421428D01*
X150728571Y-95497619D01*
X150652380Y-95573809D01*
X150538095Y-95611904D01*
X150347619Y-95611904D01*
X151109523Y-95383333D02*
X151490476Y-95383333D01*
X151033333Y-95611904D02*
X151300000Y-94811904D01*
X151566666Y-95611904D01*
X152290476Y-95535714D02*
X152252380Y-95573809D01*
X152138095Y-95611904D01*
X152061904Y-95611904D01*
X151947619Y-95573809D01*
X151871428Y-95497619D01*
X151833333Y-95421428D01*
X151795238Y-95269047D01*
X151795238Y-95154761D01*
X151833333Y-95002380D01*
X151871428Y-94926190D01*
X151947619Y-94850000D01*
X152061904Y-94811904D01*
X152138095Y-94811904D01*
X152252380Y-94850000D01*
X152290476Y-94888095D01*
D10*
X131023607Y-86300000D02*
G75*
G03X131023607Y-86300000I-223607J0D01*
G01*
X154723607Y-90500000D02*
G75*
G03X154723607Y-90500000I-223607J0D01*
G01*
X144023607Y-105300000D02*
G75*
G03X144023607Y-105300000I-223607J0D01*
G01*
X109223607Y-120900000D02*
G75*
G03X109223607Y-120900000I-223607J0D01*
G01*
X116123607Y-99500000D02*
G75*
G03X116123607Y-99500000I-223607J0D01*
G01*
X120423607Y-69500000D02*
G75*
G03X120423607Y-69500000I-223607J0D01*
G01*
D12*
G36*
X114500000Y-53400000D02*
G01*
X113800000Y-53400000D01*
X113800000Y-51100000D01*
X114500000Y-51100000D01*
X114500000Y-53400000D01*
G37*
X114500000Y-53400000D02*
X113800000Y-53400000D01*
X113800000Y-51100000D01*
X114500000Y-51100000D01*
X114500000Y-53400000D01*
D11*
X147075000Y-81125000D02*
X147025000Y-81125000D01*
X147075000Y-85275000D02*
X146930000Y-85275000D01*
X141925000Y-85275000D02*
X142070000Y-85275000D01*
X141925000Y-81125000D02*
X142070000Y-81125000D01*
X147075000Y-81125000D02*
X147075000Y-85275000D01*
X141925000Y-81125000D02*
X141925000Y-85275000D01*
X147025000Y-81125000D02*
X147025000Y-79725000D01*
X147950000Y-92325000D02*
X147950000Y-96975000D01*
X154775000Y-91250000D02*
X154775000Y-96975000D01*
X147950000Y-92325000D02*
X147975000Y-92325000D01*
X147950000Y-96975000D02*
X147975000Y-96975000D01*
X154775000Y-96975000D02*
X154675000Y-96975000D01*
D15*
X131600000Y-65350000D02*
X131600000Y-71650000D01*
X125400000Y-65350000D02*
X125400000Y-71650000D01*
D11*
X134175000Y-70575000D02*
X134225000Y-70575000D01*
X134175000Y-66425000D02*
X134320000Y-66425000D01*
X139325000Y-66425000D02*
X139180000Y-66425000D01*
X139325000Y-70575000D02*
X139180000Y-70575000D01*
X134175000Y-70575000D02*
X134175000Y-66425000D01*
X139325000Y-70575000D02*
X139325000Y-66425000D01*
X134225000Y-70575000D02*
X134225000Y-71975000D01*
D15*
X134000000Y-61750000D02*
X134000000Y-63750000D01*
X134000000Y-63750000D02*
X137900000Y-63750000D01*
X134000000Y-61750000D02*
X137900000Y-61750000D01*
X146550000Y-64200000D02*
X144370000Y-64200000D01*
X139950000Y-64200000D02*
X142130000Y-64200000D01*
X145790000Y-70800000D02*
X144370000Y-70800000D01*
X140710000Y-70800000D02*
X142130000Y-70800000D01*
X146550000Y-64200000D02*
X146550000Y-70040000D01*
X146550000Y-70040000D02*
X145790000Y-70800000D01*
X140710000Y-70800000D02*
X139950000Y-70040000D01*
X139950000Y-70040000D02*
X139950000Y-64200000D01*
X133500000Y-68150000D02*
X133500000Y-68850000D01*
X132300000Y-68850000D02*
X132300000Y-68150000D01*
X145590000Y-56780000D02*
X145590000Y-57180000D01*
X141010000Y-56010000D02*
X141010000Y-57180000D01*
X141010000Y-60590000D02*
X141010000Y-59420000D01*
X145590000Y-59820000D02*
X145590000Y-59420000D01*
X144820000Y-56010000D02*
X141010000Y-56010000D01*
X144820000Y-56010000D02*
X145590000Y-56780000D01*
X144820000Y-60590000D02*
X141010000Y-60590000D01*
X144820000Y-60590000D02*
X145590000Y-59820000D01*
X152480000Y-66210000D02*
X152880000Y-66210000D01*
X151710000Y-70790000D02*
X152880000Y-70790000D01*
X156290000Y-70790000D02*
X155120000Y-70790000D01*
X155520000Y-66210000D02*
X155120000Y-66210000D01*
X151710000Y-66980000D02*
X151710000Y-70790000D01*
X151710000Y-66980000D02*
X152480000Y-66210000D01*
X156290000Y-66980000D02*
X156290000Y-70790000D01*
X156290000Y-66980000D02*
X155520000Y-66210000D01*
X113990000Y-55080000D02*
X113990000Y-55480000D01*
X109410000Y-54310000D02*
X109410000Y-55480000D01*
X109410000Y-58890000D02*
X109410000Y-57720000D01*
X113990000Y-58120000D02*
X113990000Y-57720000D01*
X113220000Y-54310000D02*
X109410000Y-54310000D01*
X113220000Y-54310000D02*
X113990000Y-55080000D01*
X113220000Y-58890000D02*
X109410000Y-58890000D01*
X113220000Y-58890000D02*
X113990000Y-58120000D01*
X147580000Y-66210000D02*
X147980000Y-66210000D01*
X146810000Y-70790000D02*
X147980000Y-70790000D01*
X151390000Y-70790000D02*
X150220000Y-70790000D01*
X150620000Y-66210000D02*
X150220000Y-66210000D01*
X146810000Y-66980000D02*
X146810000Y-70790000D01*
X146810000Y-66980000D02*
X147580000Y-66210000D01*
X151390000Y-66980000D02*
X151390000Y-70790000D01*
X151390000Y-66980000D02*
X150620000Y-66210000D01*
X148950000Y-59775000D02*
X148600000Y-59775000D01*
X148600000Y-59775000D02*
X148600000Y-58275000D01*
X153600000Y-59775000D02*
X150400000Y-59775000D01*
X155400000Y-58275000D02*
X155400000Y-59775000D01*
X155400000Y-59775000D02*
X155000000Y-59775000D01*
X122080000Y-70500000D02*
X122080000Y-71500000D01*
X120720000Y-71500000D02*
X120720000Y-70500000D01*
X105000000Y-52020000D02*
X106000000Y-52020000D01*
X106000000Y-53380000D02*
X105000000Y-53380000D01*
X122000000Y-74650000D02*
X122000000Y-75350000D01*
X120800000Y-75350000D02*
X120800000Y-74650000D01*
X102700000Y-53450000D02*
X102700000Y-54150000D01*
X101500000Y-54150000D02*
X101500000Y-53450000D01*
X106600000Y-124080000D02*
X105600000Y-124080000D01*
X105600000Y-122720000D02*
X106600000Y-122720000D01*
X137600000Y-98200000D02*
X130350000Y-98200000D01*
X130350000Y-98200000D02*
X130350000Y-101800000D01*
X130350000Y-101800000D02*
X137600000Y-101800000D01*
X149800000Y-88550000D02*
X149800000Y-87850000D01*
X151000000Y-87850000D02*
X151000000Y-88550000D01*
X153450000Y-89625000D02*
X152750000Y-89625000D01*
X152750000Y-88425000D02*
X153450000Y-88425000D01*
X121525000Y-126875000D02*
X121525000Y-127575000D01*
X120325000Y-127575000D02*
X120325000Y-126875000D01*
X143400000Y-132275000D02*
X143400000Y-132975000D01*
X142200000Y-132975000D02*
X142200000Y-132275000D01*
X126100000Y-94250000D02*
X126100000Y-93250000D01*
X124400000Y-93250000D02*
X124400000Y-94250000D01*
X160030000Y-158350000D02*
X160030000Y-149650000D01*
X153620000Y-158350000D02*
X153620000Y-149650000D01*
X153620000Y-149650000D02*
X160030000Y-149650000D01*
X158800000Y-149650000D02*
X158800000Y-158350000D01*
X160030000Y-158350000D02*
X153620000Y-158350000D01*
X147100000Y-75080000D02*
X145900000Y-75080000D01*
X145900000Y-73320000D02*
X147100000Y-73320000D01*
X152500000Y-130340000D02*
X153500000Y-130340000D01*
X153500000Y-131700000D02*
X152500000Y-131700000D01*
X152500000Y-132820000D02*
X153500000Y-132820000D01*
X153500000Y-134180000D02*
X152500000Y-134180000D01*
X149550000Y-109650000D02*
X148850000Y-109650000D01*
X148850000Y-108450000D02*
X149550000Y-108450000D01*
X149950000Y-116275000D02*
X149250000Y-116275000D01*
X149250000Y-115075000D02*
X149950000Y-115075000D01*
X144185000Y-107815000D02*
X144185000Y-106525000D01*
X145135000Y-107815000D02*
X144185000Y-107815000D01*
X145135000Y-108765000D02*
X145135000Y-107815000D01*
X145135000Y-128035000D02*
X144185000Y-128035000D01*
X145135000Y-127085000D02*
X145135000Y-128035000D01*
X124915000Y-107815000D02*
X125865000Y-107815000D01*
X124915000Y-108765000D02*
X124915000Y-107815000D01*
X124915000Y-128035000D02*
X125865000Y-128035000D01*
X124915000Y-127085000D02*
X124915000Y-128035000D01*
X119400000Y-98250000D02*
X119400000Y-97550000D01*
X120600000Y-97550000D02*
X120600000Y-98250000D01*
X120920000Y-98300000D02*
X120920000Y-97300000D01*
X122280000Y-97300000D02*
X122280000Y-98300000D01*
X119080000Y-97300000D02*
X119080000Y-98300000D01*
X117720000Y-98300000D02*
X117720000Y-97300000D01*
X144725000Y-143425000D02*
X144725000Y-144625000D01*
X144725000Y-144625000D02*
X145125000Y-144625000D01*
X145125000Y-144625000D02*
X145125000Y-155225000D01*
X122525000Y-144625000D02*
X122525000Y-155225000D01*
X145125000Y-155225000D02*
X144725000Y-155225000D01*
X122925000Y-155225000D02*
X122525000Y-155225000D01*
X122925000Y-144625000D02*
X122525000Y-144625000D01*
D11*
X119675000Y-71125000D02*
X119650000Y-71125000D01*
X119675000Y-75275000D02*
X119570000Y-75275000D01*
X109525000Y-75275000D02*
X109630000Y-75275000D01*
X109525000Y-71125000D02*
X109630000Y-71125000D01*
X119675000Y-71125000D02*
X119675000Y-75275000D01*
X109525000Y-71125000D02*
X109525000Y-75275000D01*
X119650000Y-71125000D02*
X119650000Y-69750000D01*
X141080000Y-80714000D02*
X141080000Y-85540000D01*
X141080000Y-85540000D02*
X130920000Y-85540000D01*
X130920000Y-85540000D02*
X130920000Y-80714000D01*
X130920000Y-80714000D02*
X141080000Y-80714000D01*
X130920000Y-82492000D02*
X131555000Y-82492000D01*
X131555000Y-82492000D02*
X131555000Y-83762000D01*
X131555000Y-83762000D02*
X130920000Y-83762000D01*
X103664000Y-110345000D02*
X108490000Y-110345000D01*
X108490000Y-110345000D02*
X108490000Y-120505000D01*
X108490000Y-120505000D02*
X103664000Y-120505000D01*
X103664000Y-120505000D02*
X103664000Y-110345000D01*
X105442000Y-120505000D02*
X105442000Y-119870000D01*
X105442000Y-119870000D02*
X106712000Y-119870000D01*
X106712000Y-119870000D02*
X106712000Y-120505000D01*
X110514000Y-88870000D02*
X115340000Y-88870000D01*
X115340000Y-88870000D02*
X115340000Y-99030000D01*
X115340000Y-99030000D02*
X110514000Y-99030000D01*
X110514000Y-99030000D02*
X110514000Y-88870000D01*
X112292000Y-99030000D02*
X112292000Y-98395000D01*
X112292000Y-98395000D02*
X113562000Y-98395000D01*
X113562000Y-98395000D02*
X113562000Y-99030000D01*
D15*
X138500000Y-87920000D02*
X139500000Y-87920000D01*
X139500000Y-89280000D02*
X138500000Y-89280000D01*
X133500000Y-89280000D02*
X132500000Y-89280000D01*
X132500000Y-87920000D02*
X133500000Y-87920000D01*
X139500000Y-93480000D02*
X138500000Y-93480000D01*
X138500000Y-92120000D02*
X139500000Y-92120000D01*
X133400000Y-93480000D02*
X132400000Y-93480000D01*
X132400000Y-92120000D02*
X133400000Y-92120000D01*
X139500000Y-95280000D02*
X138500000Y-95280000D01*
X138500000Y-93920000D02*
X139500000Y-93920000D01*
X133400000Y-95280000D02*
X132400000Y-95280000D01*
X132400000Y-93920000D02*
X133400000Y-93920000D01*
X111980000Y-117700000D02*
X111980000Y-118700000D01*
X110620000Y-118700000D02*
X110620000Y-117700000D01*
X105600000Y-121020000D02*
X106600000Y-121020000D01*
X106600000Y-122380000D02*
X105600000Y-122380000D01*
X112320000Y-118700000D02*
X112320000Y-117700000D01*
X113680000Y-117700000D02*
X113680000Y-118700000D01*
X107880000Y-97300000D02*
X107880000Y-98300000D01*
X106520000Y-98300000D02*
X106520000Y-97300000D01*
X106520000Y-90300000D02*
X106520000Y-89300000D01*
X107880000Y-89300000D02*
X107880000Y-90300000D01*
X103320000Y-98300000D02*
X103320000Y-97300000D01*
X104680000Y-97300000D02*
X104680000Y-98300000D01*
X105300000Y-93920000D02*
X106300000Y-93920000D01*
X106300000Y-95280000D02*
X105300000Y-95280000D01*
X104680000Y-89300000D02*
X104680000Y-90300000D01*
X103320000Y-90300000D02*
X103320000Y-89300000D01*
X105300000Y-92120000D02*
X106300000Y-92120000D01*
X106300000Y-93480000D02*
X105300000Y-93480000D01*
X144100000Y-77820000D02*
X145100000Y-77820000D01*
X145100000Y-79180000D02*
X144100000Y-79180000D01*
X144100000Y-87220000D02*
X145100000Y-87220000D01*
X145100000Y-88580000D02*
X144100000Y-88580000D01*
X133300000Y-78480000D02*
X132300000Y-78480000D01*
X132300000Y-77120000D02*
X133300000Y-77120000D01*
X138700000Y-77120000D02*
X139700000Y-77120000D01*
X139700000Y-78480000D02*
X138700000Y-78480000D01*
X113220000Y-67300000D02*
X113220000Y-66300000D01*
X114580000Y-66300000D02*
X114580000Y-67300000D01*
X115020000Y-67300000D02*
X115020000Y-66300000D01*
X116380000Y-66300000D02*
X116380000Y-67300000D01*
X118380000Y-79500000D02*
X118380000Y-80500000D01*
X117020000Y-80500000D02*
X117020000Y-79500000D01*
X110400000Y-67320000D02*
X111400000Y-67320000D01*
X111400000Y-68680000D02*
X110400000Y-68680000D01*
X117720000Y-90300000D02*
X117720000Y-89300000D01*
X119080000Y-89300000D02*
X119080000Y-90300000D01*
X110620000Y-113200000D02*
X110620000Y-112200000D01*
X111980000Y-112200000D02*
X111980000Y-113200000D01*
X119200000Y-68680000D02*
X118200000Y-68680000D01*
X118200000Y-67320000D02*
X119200000Y-67320000D01*
X122280000Y-89300000D02*
X122280000Y-90300000D01*
X120920000Y-90300000D02*
X120920000Y-89300000D01*
X119700000Y-92070000D02*
X120700000Y-92070000D01*
X120700000Y-93430000D02*
X119700000Y-93430000D01*
X119700000Y-93920000D02*
X120700000Y-93920000D01*
X120700000Y-95280000D02*
X119700000Y-95280000D01*
X105600000Y-108520000D02*
X106600000Y-108520000D01*
X106600000Y-109880000D02*
X105600000Y-109880000D01*
X106600000Y-108280000D02*
X105600000Y-108280000D01*
X105600000Y-106920000D02*
X106600000Y-106920000D01*
X110980000Y-79500000D02*
X110980000Y-80500000D01*
X109620000Y-80500000D02*
X109620000Y-79500000D01*
X119020000Y-80500000D02*
X119020000Y-79500000D01*
X120380000Y-79500000D02*
X120380000Y-80500000D01*
X111620000Y-80500000D02*
X111620000Y-79500000D01*
X112980000Y-79500000D02*
X112980000Y-80500000D01*
D12*
G36*
X122000000Y-51325000D02*
G01*
X124000000Y-51325000D01*
X124000000Y-61225000D01*
X122000000Y-61225000D01*
X122000000Y-51325000D01*
G37*
X122000000Y-51325000D02*
X124000000Y-51325000D01*
X124000000Y-61225000D01*
X122000000Y-61225000D01*
X122000000Y-51325000D01*
D11*
X120350000Y-51685000D02*
X120850000Y-51685000D01*
X120850000Y-51585000D02*
X120850000Y-51785000D01*
X120350000Y-51585000D02*
X120850000Y-51585000D01*
X120350000Y-51785000D02*
X120350000Y-51585000D01*
X135310000Y-51685000D02*
X135810000Y-51685000D01*
X135810000Y-51585000D02*
X135810000Y-51785000D01*
X135310000Y-51585000D02*
X135810000Y-51585000D01*
X135310000Y-51785000D02*
X135310000Y-51585000D01*
X127830000Y-51685000D02*
X128330000Y-51685000D01*
X128330000Y-51585000D02*
X128330000Y-51785000D01*
X127830000Y-51585000D02*
X128330000Y-51585000D01*
X127830000Y-51785000D02*
X127830000Y-51585000D01*
X130305000Y-59425000D02*
X130305000Y-60725000D01*
X137030000Y-59425000D02*
X130305000Y-59425000D01*
X137030000Y-53085000D02*
X137030000Y-59425000D01*
X119130000Y-53085000D02*
X137030000Y-53085000D01*
X119130000Y-59425000D02*
X119130000Y-53085000D01*
X125855000Y-59425000D02*
X119130000Y-59425000D01*
X125855000Y-60725000D02*
X125855000Y-59425000D01*
X138230000Y-60725000D02*
X117930000Y-60725000D01*
X138230000Y-51785000D02*
X138230000Y-60725000D01*
X117930000Y-51785000D02*
X138230000Y-51785000D01*
X117930000Y-60725000D02*
X117930000Y-51785000D01*
X153730000Y-112610000D02*
X153730000Y-122770000D01*
X156270000Y-112610000D02*
X153730000Y-112610000D01*
X156270000Y-122770000D02*
X156270000Y-112610000D01*
X153730000Y-122770000D02*
X156270000Y-122770000D01*
D15*
X113650000Y-53200000D02*
X113650000Y-51200000D01*
X113650000Y-51200000D02*
X109750000Y-51200000D01*
X113650000Y-53200000D02*
X109750000Y-53200000D01*
X145750000Y-53000000D02*
X145750000Y-51000000D01*
X145750000Y-51000000D02*
X141850000Y-51000000D01*
X145750000Y-53000000D02*
X141850000Y-53000000D01*
X103795000Y-57210000D02*
X104725000Y-57210000D01*
X106955000Y-57210000D02*
X106025000Y-57210000D01*
X106955000Y-57210000D02*
X106955000Y-55050000D01*
X103795000Y-57210000D02*
X103795000Y-55750000D01*
X133100000Y-74750000D02*
X132100000Y-74750000D01*
X132100000Y-76450000D02*
X133100000Y-76450000D01*
X138900000Y-76450000D02*
X139900000Y-76450000D01*
X139900000Y-74750000D02*
X138900000Y-74750000D01*
X138500000Y-91650000D02*
X139500000Y-91650000D01*
X139500000Y-89950000D02*
X138500000Y-89950000D01*
X133400000Y-89950000D02*
X132400000Y-89950000D01*
X132400000Y-91650000D02*
X133400000Y-91650000D01*
X141650000Y-91400000D02*
X141650000Y-92400000D01*
X143350000Y-92400000D02*
X143350000Y-91400000D01*
X128750000Y-91400000D02*
X128750000Y-92400000D01*
X130450000Y-92400000D02*
X130450000Y-91400000D01*
X113600000Y-112350000D02*
X113600000Y-113050000D01*
X112400000Y-113050000D02*
X112400000Y-112350000D01*
X124025000Y-140075000D02*
X124025000Y-140775000D01*
X122825000Y-140775000D02*
X122825000Y-140075000D01*
X157075000Y-101125000D02*
X157075000Y-100125000D01*
X155375000Y-100125000D02*
X155375000Y-101125000D01*
X135125000Y-139725000D02*
X135125000Y-140425000D01*
X133925000Y-140425000D02*
X133925000Y-139725000D01*
X146275000Y-142825000D02*
X145575000Y-142825000D01*
X145575000Y-141625000D02*
X146275000Y-141625000D01*
X152325000Y-101125000D02*
X152325000Y-100425000D01*
X153525000Y-100425000D02*
X153525000Y-101125000D01*
X105000000Y-98150000D02*
X105000000Y-97450000D01*
X106200000Y-97450000D02*
X106200000Y-98150000D01*
X106200000Y-89450000D02*
X106200000Y-90150000D01*
X105000000Y-90150000D02*
X105000000Y-89450000D01*
X120600000Y-89450000D02*
X120600000Y-90150000D01*
X119400000Y-90150000D02*
X119400000Y-89450000D01*
X111050000Y-66600000D02*
X110350000Y-66600000D01*
X110350000Y-65400000D02*
X111050000Y-65400000D01*
X118550000Y-65400000D02*
X119250000Y-65400000D01*
X119250000Y-66600000D02*
X118550000Y-66600000D01*
X141625000Y-158775000D02*
X140925000Y-158775000D01*
X140925000Y-157575000D02*
X141625000Y-157575000D01*
X136750000Y-158775000D02*
X136050000Y-158775000D01*
X136050000Y-157575000D02*
X136750000Y-157575000D01*
X155125000Y-100400000D02*
X155125000Y-101100000D01*
X153925000Y-101100000D02*
X153925000Y-100400000D01*
X118350000Y-82800000D02*
X119050000Y-82800000D01*
X119050000Y-84000000D02*
X118350000Y-84000000D01*
X157250000Y-93325000D02*
X157250000Y-92325000D01*
X155550000Y-92325000D02*
X155550000Y-93325000D01*
X128400000Y-103550000D02*
X128400000Y-104250000D01*
X127200000Y-104250000D02*
X127200000Y-103550000D01*
X138925000Y-139825000D02*
X138925000Y-140525000D01*
X137725000Y-140525000D02*
X137725000Y-139825000D01*
X136725000Y-133075000D02*
X136725000Y-132375000D01*
X137925000Y-132375000D02*
X137925000Y-133075000D01*
X110950000Y-82800000D02*
X111650000Y-82800000D01*
X111650000Y-84000000D02*
X110950000Y-84000000D01*
X148000000Y-88550000D02*
X148000000Y-87850000D01*
X149200000Y-87850000D02*
X149200000Y-88550000D01*
X143225000Y-139875000D02*
X143225000Y-140575000D01*
X142025000Y-140575000D02*
X142025000Y-139875000D01*
X149950000Y-121300000D02*
X149250000Y-121300000D01*
X149250000Y-120100000D02*
X149950000Y-120100000D01*
X144525000Y-132875000D02*
X144525000Y-132175000D01*
X145725000Y-132175000D02*
X145725000Y-132875000D01*
X155800000Y-89225000D02*
X155800000Y-88525000D01*
X157000000Y-88525000D02*
X157000000Y-89225000D01*
X131125000Y-132975000D02*
X131125000Y-132275000D01*
X132325000Y-132275000D02*
X132325000Y-132975000D01*
X122925000Y-129675000D02*
X122925000Y-128975000D01*
X124125000Y-128975000D02*
X124125000Y-129675000D01*
X120850000Y-121400000D02*
X121550000Y-121400000D01*
X121550000Y-122600000D02*
X120850000Y-122600000D01*
X119675000Y-115625000D02*
X120375000Y-115625000D01*
X120375000Y-116825000D02*
X119675000Y-116825000D01*
X122300000Y-108450000D02*
X122300000Y-109150000D01*
X121100000Y-109150000D02*
X121100000Y-108450000D01*
X137050000Y-105200000D02*
X136350000Y-105200000D01*
X136350000Y-104000000D02*
X137050000Y-104000000D01*
X130000000Y-99750000D02*
X130000000Y-100450000D01*
X128800000Y-100450000D02*
X128800000Y-99750000D01*
X141000000Y-99650000D02*
X141000000Y-100350000D01*
X139800000Y-100350000D02*
X139800000Y-99650000D01*
X129900000Y-103550000D02*
X129900000Y-104250000D01*
X128700000Y-104250000D02*
X128700000Y-103550000D01*
D11*
X147552380Y-83138095D02*
X148361904Y-83138095D01*
X148457142Y-83090476D01*
X148504761Y-83042857D01*
X148552380Y-82947619D01*
X148552380Y-82757142D01*
X148504761Y-82661904D01*
X148457142Y-82614285D01*
X148361904Y-82566666D01*
X147552380Y-82566666D01*
X148552380Y-81566666D02*
X148552380Y-82138095D01*
X148552380Y-81852380D02*
X147552380Y-81852380D01*
X147695238Y-81947619D01*
X147790476Y-82042857D01*
X147838095Y-82138095D01*
X148552380Y-80614285D02*
X148552380Y-81185714D01*
X148552380Y-80900000D02*
X147552380Y-80900000D01*
X147695238Y-80995238D01*
X147790476Y-81090476D01*
X147838095Y-81185714D01*
X155252380Y-96961904D02*
X156061904Y-96961904D01*
X156157142Y-96914285D01*
X156204761Y-96866666D01*
X156252380Y-96771428D01*
X156252380Y-96580952D01*
X156204761Y-96485714D01*
X156157142Y-96438095D01*
X156061904Y-96390476D01*
X155252380Y-96390476D01*
X155252380Y-96009523D02*
X155252380Y-95390476D01*
X155633333Y-95723809D01*
X155633333Y-95580952D01*
X155680952Y-95485714D01*
X155728571Y-95438095D01*
X155823809Y-95390476D01*
X156061904Y-95390476D01*
X156157142Y-95438095D01*
X156204761Y-95485714D01*
X156252380Y-95580952D01*
X156252380Y-95866666D01*
X156204761Y-95961904D01*
X156157142Y-96009523D01*
X128333333Y-64652380D02*
X127857142Y-64652380D01*
X127857142Y-63652380D01*
X128619047Y-63747619D02*
X128666666Y-63700000D01*
X128761904Y-63652380D01*
X129000000Y-63652380D01*
X129095238Y-63700000D01*
X129142857Y-63747619D01*
X129190476Y-63842857D01*
X129190476Y-63938095D01*
X129142857Y-64080952D01*
X128571428Y-64652380D01*
X129190476Y-64652380D01*
X134361904Y-72552380D02*
X134361904Y-73361904D01*
X134409523Y-73457142D01*
X134457142Y-73504761D01*
X134552380Y-73552380D01*
X134742857Y-73552380D01*
X134838095Y-73504761D01*
X134885714Y-73457142D01*
X134933333Y-73361904D01*
X134933333Y-72552380D01*
X135933333Y-73552380D02*
X135361904Y-73552380D01*
X135647619Y-73552380D02*
X135647619Y-72552380D01*
X135552380Y-72695238D01*
X135457142Y-72790476D01*
X135361904Y-72838095D01*
X136552380Y-72552380D02*
X136647619Y-72552380D01*
X136742857Y-72600000D01*
X136790476Y-72647619D01*
X136838095Y-72742857D01*
X136885714Y-72933333D01*
X136885714Y-73171428D01*
X136838095Y-73361904D01*
X136790476Y-73457142D01*
X136742857Y-73504761D01*
X136647619Y-73552380D01*
X136552380Y-73552380D01*
X136457142Y-73504761D01*
X136409523Y-73457142D01*
X136361904Y-73361904D01*
X136314285Y-73171428D01*
X136314285Y-72933333D01*
X136361904Y-72742857D01*
X136409523Y-72647619D01*
X136457142Y-72600000D01*
X136552380Y-72552380D01*
X138861904Y-63252380D02*
X138861904Y-62252380D01*
X139100000Y-62252380D01*
X139242857Y-62300000D01*
X139338095Y-62395238D01*
X139385714Y-62490476D01*
X139433333Y-62680952D01*
X139433333Y-62823809D01*
X139385714Y-63014285D01*
X139338095Y-63109523D01*
X139242857Y-63204761D01*
X139100000Y-63252380D01*
X138861904Y-63252380D01*
X140385714Y-63252380D02*
X139814285Y-63252380D01*
X140100000Y-63252380D02*
X140100000Y-62252380D01*
X140004761Y-62395238D01*
X139909523Y-62490476D01*
X139814285Y-62538095D01*
X145157142Y-63457142D02*
X145109523Y-63504761D01*
X144966666Y-63552380D01*
X144871428Y-63552380D01*
X144728571Y-63504761D01*
X144633333Y-63409523D01*
X144585714Y-63314285D01*
X144538095Y-63123809D01*
X144538095Y-62980952D01*
X144585714Y-62790476D01*
X144633333Y-62695238D01*
X144728571Y-62600000D01*
X144871428Y-62552380D01*
X144966666Y-62552380D01*
X145109523Y-62600000D01*
X145157142Y-62647619D01*
X146061904Y-62552380D02*
X145585714Y-62552380D01*
X145538095Y-63028571D01*
X145585714Y-62980952D01*
X145680952Y-62933333D01*
X145919047Y-62933333D01*
X146014285Y-62980952D01*
X146061904Y-63028571D01*
X146109523Y-63123809D01*
X146109523Y-63361904D01*
X146061904Y-63457142D01*
X146014285Y-63504761D01*
X145919047Y-63552380D01*
X145680952Y-63552380D01*
X145585714Y-63504761D01*
X145538095Y-63457142D01*
X146585714Y-63552380D02*
X146776190Y-63552380D01*
X146871428Y-63504761D01*
X146919047Y-63457142D01*
X147014285Y-63314285D01*
X147061904Y-63123809D01*
X147061904Y-62742857D01*
X147014285Y-62647619D01*
X146966666Y-62600000D01*
X146871428Y-62552380D01*
X146680952Y-62552380D01*
X146585714Y-62600000D01*
X146538095Y-62647619D01*
X146490476Y-62742857D01*
X146490476Y-62980952D01*
X146538095Y-63076190D01*
X146585714Y-63123809D01*
X146680952Y-63171428D01*
X146871428Y-63171428D01*
X146966666Y-63123809D01*
X147014285Y-63076190D01*
X147061904Y-62980952D01*
X146331428Y-72160952D02*
X146331428Y-71399047D01*
X146712380Y-71780000D02*
X145950476Y-71780000D01*
X133307142Y-65942857D02*
X133354761Y-65990476D01*
X133402380Y-66133333D01*
X133402380Y-66228571D01*
X133354761Y-66371428D01*
X133259523Y-66466666D01*
X133164285Y-66514285D01*
X132973809Y-66561904D01*
X132830952Y-66561904D01*
X132640476Y-66514285D01*
X132545238Y-66466666D01*
X132450000Y-66371428D01*
X132402380Y-66228571D01*
X132402380Y-66133333D01*
X132450000Y-65990476D01*
X132497619Y-65942857D01*
X132402380Y-65038095D02*
X132402380Y-65514285D01*
X132878571Y-65561904D01*
X132830952Y-65514285D01*
X132783333Y-65419047D01*
X132783333Y-65180952D01*
X132830952Y-65085714D01*
X132878571Y-65038095D01*
X132973809Y-64990476D01*
X133211904Y-64990476D01*
X133307142Y-65038095D01*
X133354761Y-65085714D01*
X133402380Y-65180952D01*
X133402380Y-65419047D01*
X133354761Y-65514285D01*
X133307142Y-65561904D01*
X132830952Y-64419047D02*
X132783333Y-64514285D01*
X132735714Y-64561904D01*
X132640476Y-64609523D01*
X132592857Y-64609523D01*
X132497619Y-64561904D01*
X132450000Y-64514285D01*
X132402380Y-64419047D01*
X132402380Y-64228571D01*
X132450000Y-64133333D01*
X132497619Y-64085714D01*
X132592857Y-64038095D01*
X132640476Y-64038095D01*
X132735714Y-64085714D01*
X132783333Y-64133333D01*
X132830952Y-64228571D01*
X132830952Y-64419047D01*
X132878571Y-64514285D01*
X132926190Y-64561904D01*
X133021428Y-64609523D01*
X133211904Y-64609523D01*
X133307142Y-64561904D01*
X133354761Y-64514285D01*
X133402380Y-64419047D01*
X133402380Y-64228571D01*
X133354761Y-64133333D01*
X133307142Y-64085714D01*
X133211904Y-64038095D01*
X133021428Y-64038095D01*
X132926190Y-64085714D01*
X132878571Y-64133333D01*
X132830952Y-64228571D01*
X142457142Y-55457142D02*
X142409523Y-55504761D01*
X142266666Y-55552380D01*
X142171428Y-55552380D01*
X142028571Y-55504761D01*
X141933333Y-55409523D01*
X141885714Y-55314285D01*
X141838095Y-55123809D01*
X141838095Y-54980952D01*
X141885714Y-54790476D01*
X141933333Y-54695238D01*
X142028571Y-54600000D01*
X142171428Y-54552380D01*
X142266666Y-54552380D01*
X142409523Y-54600000D01*
X142457142Y-54647619D01*
X143361904Y-54552380D02*
X142885714Y-54552380D01*
X142838095Y-55028571D01*
X142885714Y-54980952D01*
X142980952Y-54933333D01*
X143219047Y-54933333D01*
X143314285Y-54980952D01*
X143361904Y-55028571D01*
X143409523Y-55123809D01*
X143409523Y-55361904D01*
X143361904Y-55457142D01*
X143314285Y-55504761D01*
X143219047Y-55552380D01*
X142980952Y-55552380D01*
X142885714Y-55504761D01*
X142838095Y-55457142D01*
X143742857Y-54552380D02*
X144409523Y-54552380D01*
X143980952Y-55552380D01*
X145699047Y-56361428D02*
X146460952Y-56361428D01*
X146080000Y-56742380D02*
X146080000Y-55980476D01*
X153357142Y-72757142D02*
X153309523Y-72804761D01*
X153166666Y-72852380D01*
X153071428Y-72852380D01*
X152928571Y-72804761D01*
X152833333Y-72709523D01*
X152785714Y-72614285D01*
X152738095Y-72423809D01*
X152738095Y-72280952D01*
X152785714Y-72090476D01*
X152833333Y-71995238D01*
X152928571Y-71900000D01*
X153071428Y-71852380D01*
X153166666Y-71852380D01*
X153309523Y-71900000D01*
X153357142Y-71947619D01*
X154214285Y-72185714D02*
X154214285Y-72852380D01*
X153976190Y-71804761D02*
X153738095Y-72519047D01*
X154357142Y-72519047D01*
X155261904Y-72852380D02*
X154690476Y-72852380D01*
X154976190Y-72852380D02*
X154976190Y-71852380D01*
X154880952Y-71995238D01*
X154785714Y-72090476D01*
X154690476Y-72138095D01*
X152061428Y-66100952D02*
X152061428Y-65339047D01*
X152442380Y-65720000D02*
X151680476Y-65720000D01*
X111057142Y-60257142D02*
X111009523Y-60304761D01*
X110866666Y-60352380D01*
X110771428Y-60352380D01*
X110628571Y-60304761D01*
X110533333Y-60209523D01*
X110485714Y-60114285D01*
X110438095Y-59923809D01*
X110438095Y-59780952D01*
X110485714Y-59590476D01*
X110533333Y-59495238D01*
X110628571Y-59400000D01*
X110771428Y-59352380D01*
X110866666Y-59352380D01*
X111009523Y-59400000D01*
X111057142Y-59447619D01*
X111914285Y-59685714D02*
X111914285Y-60352380D01*
X111676190Y-59304761D02*
X111438095Y-60019047D01*
X112057142Y-60019047D01*
X112628571Y-59352380D02*
X112723809Y-59352380D01*
X112819047Y-59400000D01*
X112866666Y-59447619D01*
X112914285Y-59542857D01*
X112961904Y-59733333D01*
X112961904Y-59971428D01*
X112914285Y-60161904D01*
X112866666Y-60257142D01*
X112819047Y-60304761D01*
X112723809Y-60352380D01*
X112628571Y-60352380D01*
X112533333Y-60304761D01*
X112485714Y-60257142D01*
X112438095Y-60161904D01*
X112390476Y-59971428D01*
X112390476Y-59733333D01*
X112438095Y-59542857D01*
X112485714Y-59447619D01*
X112533333Y-59400000D01*
X112628571Y-59352380D01*
X114099047Y-54661428D02*
X114860952Y-54661428D01*
X114480000Y-55042380D02*
X114480000Y-54280476D01*
X148557142Y-72757142D02*
X148509523Y-72804761D01*
X148366666Y-72852380D01*
X148271428Y-72852380D01*
X148128571Y-72804761D01*
X148033333Y-72709523D01*
X147985714Y-72614285D01*
X147938095Y-72423809D01*
X147938095Y-72280952D01*
X147985714Y-72090476D01*
X148033333Y-71995238D01*
X148128571Y-71900000D01*
X148271428Y-71852380D01*
X148366666Y-71852380D01*
X148509523Y-71900000D01*
X148557142Y-71947619D01*
X148890476Y-71852380D02*
X149509523Y-71852380D01*
X149176190Y-72233333D01*
X149319047Y-72233333D01*
X149414285Y-72280952D01*
X149461904Y-72328571D01*
X149509523Y-72423809D01*
X149509523Y-72661904D01*
X149461904Y-72757142D01*
X149414285Y-72804761D01*
X149319047Y-72852380D01*
X149033333Y-72852380D01*
X148938095Y-72804761D01*
X148890476Y-72757142D01*
X150366666Y-71852380D02*
X150176190Y-71852380D01*
X150080952Y-71900000D01*
X150033333Y-71947619D01*
X149938095Y-72090476D01*
X149890476Y-72280952D01*
X149890476Y-72661904D01*
X149938095Y-72757142D01*
X149985714Y-72804761D01*
X150080952Y-72852380D01*
X150271428Y-72852380D01*
X150366666Y-72804761D01*
X150414285Y-72757142D01*
X150461904Y-72661904D01*
X150461904Y-72423809D01*
X150414285Y-72328571D01*
X150366666Y-72280952D01*
X150271428Y-72233333D01*
X150080952Y-72233333D01*
X149985714Y-72280952D01*
X149938095Y-72328571D01*
X149890476Y-72423809D01*
X147161428Y-66100952D02*
X147161428Y-65339047D01*
X147542380Y-65720000D02*
X146780476Y-65720000D01*
X156052380Y-59861904D02*
X156861904Y-59861904D01*
X156957142Y-59814285D01*
X157004761Y-59766666D01*
X157052380Y-59671428D01*
X157052380Y-59480952D01*
X157004761Y-59385714D01*
X156957142Y-59338095D01*
X156861904Y-59290476D01*
X156052380Y-59290476D01*
X156480952Y-58671428D02*
X156433333Y-58766666D01*
X156385714Y-58814285D01*
X156290476Y-58861904D01*
X156242857Y-58861904D01*
X156147619Y-58814285D01*
X156100000Y-58766666D01*
X156052380Y-58671428D01*
X156052380Y-58480952D01*
X156100000Y-58385714D01*
X156147619Y-58338095D01*
X156242857Y-58290476D01*
X156290476Y-58290476D01*
X156385714Y-58338095D01*
X156433333Y-58385714D01*
X156480952Y-58480952D01*
X156480952Y-58671428D01*
X156528571Y-58766666D01*
X156576190Y-58814285D01*
X156671428Y-58861904D01*
X156861904Y-58861904D01*
X156957142Y-58814285D01*
X157004761Y-58766666D01*
X157052380Y-58671428D01*
X157052380Y-58480952D01*
X157004761Y-58385714D01*
X156957142Y-58338095D01*
X156861904Y-58290476D01*
X156671428Y-58290476D01*
X156576190Y-58338095D01*
X156528571Y-58385714D01*
X156480952Y-58480952D01*
X123352380Y-71542857D02*
X122876190Y-71876190D01*
X123352380Y-72114285D02*
X122352380Y-72114285D01*
X122352380Y-71733333D01*
X122400000Y-71638095D01*
X122447619Y-71590476D01*
X122542857Y-71542857D01*
X122685714Y-71542857D01*
X122780952Y-71590476D01*
X122828571Y-71638095D01*
X122876190Y-71733333D01*
X122876190Y-72114285D01*
X122685714Y-70685714D02*
X123352380Y-70685714D01*
X122304761Y-70923809D02*
X123019047Y-71161904D01*
X123019047Y-70542857D01*
X122352380Y-70257142D02*
X122352380Y-69638095D01*
X122733333Y-69971428D01*
X122733333Y-69828571D01*
X122780952Y-69733333D01*
X122828571Y-69685714D01*
X122923809Y-69638095D01*
X123161904Y-69638095D01*
X123257142Y-69685714D01*
X123304761Y-69733333D01*
X123352380Y-69828571D01*
X123352380Y-70114285D01*
X123304761Y-70209523D01*
X123257142Y-70257142D01*
X104857142Y-51752380D02*
X104523809Y-51276190D01*
X104285714Y-51752380D02*
X104285714Y-50752380D01*
X104666666Y-50752380D01*
X104761904Y-50800000D01*
X104809523Y-50847619D01*
X104857142Y-50942857D01*
X104857142Y-51085714D01*
X104809523Y-51180952D01*
X104761904Y-51228571D01*
X104666666Y-51276190D01*
X104285714Y-51276190D01*
X105238095Y-50847619D02*
X105285714Y-50800000D01*
X105380952Y-50752380D01*
X105619047Y-50752380D01*
X105714285Y-50800000D01*
X105761904Y-50847619D01*
X105809523Y-50942857D01*
X105809523Y-51038095D01*
X105761904Y-51180952D01*
X105190476Y-51752380D01*
X105809523Y-51752380D01*
X106190476Y-50847619D02*
X106238095Y-50800000D01*
X106333333Y-50752380D01*
X106571428Y-50752380D01*
X106666666Y-50800000D01*
X106714285Y-50847619D01*
X106761904Y-50942857D01*
X106761904Y-51038095D01*
X106714285Y-51180952D01*
X106142857Y-51752380D01*
X106761904Y-51752380D01*
X123157142Y-75642857D02*
X123204761Y-75690476D01*
X123252380Y-75833333D01*
X123252380Y-75928571D01*
X123204761Y-76071428D01*
X123109523Y-76166666D01*
X123014285Y-76214285D01*
X122823809Y-76261904D01*
X122680952Y-76261904D01*
X122490476Y-76214285D01*
X122395238Y-76166666D01*
X122300000Y-76071428D01*
X122252380Y-75928571D01*
X122252380Y-75833333D01*
X122300000Y-75690476D01*
X122347619Y-75642857D01*
X122252380Y-74738095D02*
X122252380Y-75214285D01*
X122728571Y-75261904D01*
X122680952Y-75214285D01*
X122633333Y-75119047D01*
X122633333Y-74880952D01*
X122680952Y-74785714D01*
X122728571Y-74738095D01*
X122823809Y-74690476D01*
X123061904Y-74690476D01*
X123157142Y-74738095D01*
X123204761Y-74785714D01*
X123252380Y-74880952D01*
X123252380Y-75119047D01*
X123204761Y-75214285D01*
X123157142Y-75261904D01*
X122252380Y-73833333D02*
X122252380Y-74023809D01*
X122300000Y-74119047D01*
X122347619Y-74166666D01*
X122490476Y-74261904D01*
X122680952Y-74309523D01*
X123061904Y-74309523D01*
X123157142Y-74261904D01*
X123204761Y-74214285D01*
X123252380Y-74119047D01*
X123252380Y-73928571D01*
X123204761Y-73833333D01*
X123157142Y-73785714D01*
X123061904Y-73738095D01*
X122823809Y-73738095D01*
X122728571Y-73785714D01*
X122680952Y-73833333D01*
X122633333Y-73928571D01*
X122633333Y-74119047D01*
X122680952Y-74214285D01*
X122728571Y-74261904D01*
X122823809Y-74309523D01*
X101157142Y-54442857D02*
X101204761Y-54490476D01*
X101252380Y-54633333D01*
X101252380Y-54728571D01*
X101204761Y-54871428D01*
X101109523Y-54966666D01*
X101014285Y-55014285D01*
X100823809Y-55061904D01*
X100680952Y-55061904D01*
X100490476Y-55014285D01*
X100395238Y-54966666D01*
X100300000Y-54871428D01*
X100252380Y-54728571D01*
X100252380Y-54633333D01*
X100300000Y-54490476D01*
X100347619Y-54442857D01*
X100252380Y-54109523D02*
X100252380Y-53490476D01*
X100633333Y-53823809D01*
X100633333Y-53680952D01*
X100680952Y-53585714D01*
X100728571Y-53538095D01*
X100823809Y-53490476D01*
X101061904Y-53490476D01*
X101157142Y-53538095D01*
X101204761Y-53585714D01*
X101252380Y-53680952D01*
X101252380Y-53966666D01*
X101204761Y-54061904D01*
X101157142Y-54109523D01*
X100680952Y-52919047D02*
X100633333Y-53014285D01*
X100585714Y-53061904D01*
X100490476Y-53109523D01*
X100442857Y-53109523D01*
X100347619Y-53061904D01*
X100300000Y-53014285D01*
X100252380Y-52919047D01*
X100252380Y-52728571D01*
X100300000Y-52633333D01*
X100347619Y-52585714D01*
X100442857Y-52538095D01*
X100490476Y-52538095D01*
X100585714Y-52585714D01*
X100633333Y-52633333D01*
X100680952Y-52728571D01*
X100680952Y-52919047D01*
X100728571Y-53014285D01*
X100776190Y-53061904D01*
X100871428Y-53109523D01*
X101061904Y-53109523D01*
X101157142Y-53061904D01*
X101204761Y-53014285D01*
X101252380Y-52919047D01*
X101252380Y-52728571D01*
X101204761Y-52633333D01*
X101157142Y-52585714D01*
X101061904Y-52538095D01*
X100871428Y-52538095D01*
X100776190Y-52585714D01*
X100728571Y-52633333D01*
X100680952Y-52728571D01*
X101957142Y-123852380D02*
X101623809Y-123376190D01*
X101385714Y-123852380D02*
X101385714Y-122852380D01*
X101766666Y-122852380D01*
X101861904Y-122900000D01*
X101909523Y-122947619D01*
X101957142Y-123042857D01*
X101957142Y-123185714D01*
X101909523Y-123280952D01*
X101861904Y-123328571D01*
X101766666Y-123376190D01*
X101385714Y-123376190D01*
X102290476Y-122852380D02*
X102909523Y-122852380D01*
X102576190Y-123233333D01*
X102719047Y-123233333D01*
X102814285Y-123280952D01*
X102861904Y-123328571D01*
X102909523Y-123423809D01*
X102909523Y-123661904D01*
X102861904Y-123757142D01*
X102814285Y-123804761D01*
X102719047Y-123852380D01*
X102433333Y-123852380D01*
X102338095Y-123804761D01*
X102290476Y-123757142D01*
X103861904Y-123852380D02*
X103290476Y-123852380D01*
X103576190Y-123852380D02*
X103576190Y-122852380D01*
X103480952Y-122995238D01*
X103385714Y-123090476D01*
X103290476Y-123138095D01*
X134423809Y-97176190D02*
X134423809Y-97652380D01*
X134090476Y-96652380D02*
X134423809Y-97176190D01*
X134757142Y-96652380D01*
X135614285Y-97652380D02*
X135042857Y-97652380D01*
X135328571Y-97652380D02*
X135328571Y-96652380D01*
X135233333Y-96795238D01*
X135138095Y-96890476D01*
X135042857Y-96938095D01*
X150857142Y-85542857D02*
X150904761Y-85590476D01*
X150952380Y-85733333D01*
X150952380Y-85828571D01*
X150904761Y-85971428D01*
X150809523Y-86066666D01*
X150714285Y-86114285D01*
X150523809Y-86161904D01*
X150380952Y-86161904D01*
X150190476Y-86114285D01*
X150095238Y-86066666D01*
X150000000Y-85971428D01*
X149952380Y-85828571D01*
X149952380Y-85733333D01*
X150000000Y-85590476D01*
X150047619Y-85542857D01*
X149952380Y-85209523D02*
X149952380Y-84590476D01*
X150333333Y-84923809D01*
X150333333Y-84780952D01*
X150380952Y-84685714D01*
X150428571Y-84638095D01*
X150523809Y-84590476D01*
X150761904Y-84590476D01*
X150857142Y-84638095D01*
X150904761Y-84685714D01*
X150952380Y-84780952D01*
X150952380Y-85066666D01*
X150904761Y-85161904D01*
X150857142Y-85209523D01*
X149952380Y-84257142D02*
X149952380Y-83638095D01*
X150333333Y-83971428D01*
X150333333Y-83828571D01*
X150380952Y-83733333D01*
X150428571Y-83685714D01*
X150523809Y-83638095D01*
X150761904Y-83638095D01*
X150857142Y-83685714D01*
X150904761Y-83733333D01*
X150952380Y-83828571D01*
X150952380Y-84114285D01*
X150904761Y-84209523D01*
X150857142Y-84257142D01*
X152357142Y-87857142D02*
X152309523Y-87904761D01*
X152166666Y-87952380D01*
X152071428Y-87952380D01*
X151928571Y-87904761D01*
X151833333Y-87809523D01*
X151785714Y-87714285D01*
X151738095Y-87523809D01*
X151738095Y-87380952D01*
X151785714Y-87190476D01*
X151833333Y-87095238D01*
X151928571Y-87000000D01*
X152071428Y-86952380D01*
X152166666Y-86952380D01*
X152309523Y-87000000D01*
X152357142Y-87047619D01*
X152690476Y-86952380D02*
X153309523Y-86952380D01*
X152976190Y-87333333D01*
X153119047Y-87333333D01*
X153214285Y-87380952D01*
X153261904Y-87428571D01*
X153309523Y-87523809D01*
X153309523Y-87761904D01*
X153261904Y-87857142D01*
X153214285Y-87904761D01*
X153119047Y-87952380D01*
X152833333Y-87952380D01*
X152738095Y-87904761D01*
X152690476Y-87857142D01*
X154261904Y-87952380D02*
X153690476Y-87952380D01*
X153976190Y-87952380D02*
X153976190Y-86952380D01*
X153880952Y-87095238D01*
X153785714Y-87190476D01*
X153690476Y-87238095D01*
X119757142Y-127391666D02*
X119804761Y-127439285D01*
X119852380Y-127582142D01*
X119852380Y-127677380D01*
X119804761Y-127820238D01*
X119709523Y-127915476D01*
X119614285Y-127963095D01*
X119423809Y-128010714D01*
X119280952Y-128010714D01*
X119090476Y-127963095D01*
X118995238Y-127915476D01*
X118900000Y-127820238D01*
X118852380Y-127677380D01*
X118852380Y-127582142D01*
X118900000Y-127439285D01*
X118947619Y-127391666D01*
X118852380Y-126534523D02*
X118852380Y-126725000D01*
X118900000Y-126820238D01*
X118947619Y-126867857D01*
X119090476Y-126963095D01*
X119280952Y-127010714D01*
X119661904Y-127010714D01*
X119757142Y-126963095D01*
X119804761Y-126915476D01*
X119852380Y-126820238D01*
X119852380Y-126629761D01*
X119804761Y-126534523D01*
X119757142Y-126486904D01*
X119661904Y-126439285D01*
X119423809Y-126439285D01*
X119328571Y-126486904D01*
X119280952Y-126534523D01*
X119233333Y-126629761D01*
X119233333Y-126820238D01*
X119280952Y-126915476D01*
X119328571Y-126963095D01*
X119423809Y-127010714D01*
X141657142Y-132566666D02*
X141704761Y-132614285D01*
X141752380Y-132757142D01*
X141752380Y-132852380D01*
X141704761Y-132995238D01*
X141609523Y-133090476D01*
X141514285Y-133138095D01*
X141323809Y-133185714D01*
X141180952Y-133185714D01*
X140990476Y-133138095D01*
X140895238Y-133090476D01*
X140800000Y-132995238D01*
X140752380Y-132852380D01*
X140752380Y-132757142D01*
X140800000Y-132614285D01*
X140847619Y-132566666D01*
X141085714Y-131709523D02*
X141752380Y-131709523D01*
X140704761Y-131947619D02*
X141419047Y-132185714D01*
X141419047Y-131566666D01*
X127257142Y-94392857D02*
X127304761Y-94440476D01*
X127352380Y-94583333D01*
X127352380Y-94678571D01*
X127304761Y-94821428D01*
X127209523Y-94916666D01*
X127114285Y-94964285D01*
X126923809Y-95011904D01*
X126780952Y-95011904D01*
X126590476Y-94964285D01*
X126495238Y-94916666D01*
X126400000Y-94821428D01*
X126352380Y-94678571D01*
X126352380Y-94583333D01*
X126400000Y-94440476D01*
X126447619Y-94392857D01*
X126352380Y-93488095D02*
X126352380Y-93964285D01*
X126828571Y-94011904D01*
X126780952Y-93964285D01*
X126733333Y-93869047D01*
X126733333Y-93630952D01*
X126780952Y-93535714D01*
X126828571Y-93488095D01*
X126923809Y-93440476D01*
X127161904Y-93440476D01*
X127257142Y-93488095D01*
X127304761Y-93535714D01*
X127352380Y-93630952D01*
X127352380Y-93869047D01*
X127304761Y-93964285D01*
X127257142Y-94011904D01*
X126352380Y-93107142D02*
X126352380Y-92488095D01*
X126733333Y-92821428D01*
X126733333Y-92678571D01*
X126780952Y-92583333D01*
X126828571Y-92535714D01*
X126923809Y-92488095D01*
X127161904Y-92488095D01*
X127257142Y-92535714D01*
X127304761Y-92583333D01*
X127352380Y-92678571D01*
X127352380Y-92964285D01*
X127304761Y-93059523D01*
X127257142Y-93107142D01*
X152212380Y-154333333D02*
X152926666Y-154333333D01*
X153069523Y-154380952D01*
X153164761Y-154476190D01*
X153212380Y-154619047D01*
X153212380Y-154714285D01*
X152212380Y-153952380D02*
X152212380Y-153285714D01*
X153212380Y-153714285D01*
X146483333Y-76702380D02*
X146007142Y-76702380D01*
X146007142Y-75702380D01*
X147340476Y-76702380D02*
X146769047Y-76702380D01*
X147054761Y-76702380D02*
X147054761Y-75702380D01*
X146959523Y-75845238D01*
X146864285Y-75940476D01*
X146769047Y-75988095D01*
X152357142Y-129952380D02*
X152023809Y-129476190D01*
X151785714Y-129952380D02*
X151785714Y-128952380D01*
X152166666Y-128952380D01*
X152261904Y-129000000D01*
X152309523Y-129047619D01*
X152357142Y-129142857D01*
X152357142Y-129285714D01*
X152309523Y-129380952D01*
X152261904Y-129428571D01*
X152166666Y-129476190D01*
X151785714Y-129476190D01*
X152690476Y-128952380D02*
X153309523Y-128952380D01*
X152976190Y-129333333D01*
X153119047Y-129333333D01*
X153214285Y-129380952D01*
X153261904Y-129428571D01*
X153309523Y-129523809D01*
X153309523Y-129761904D01*
X153261904Y-129857142D01*
X153214285Y-129904761D01*
X153119047Y-129952380D01*
X152833333Y-129952380D01*
X152738095Y-129904761D01*
X152690476Y-129857142D01*
X153642857Y-128952380D02*
X154261904Y-128952380D01*
X153928571Y-129333333D01*
X154071428Y-129333333D01*
X154166666Y-129380952D01*
X154214285Y-129428571D01*
X154261904Y-129523809D01*
X154261904Y-129761904D01*
X154214285Y-129857142D01*
X154166666Y-129904761D01*
X154071428Y-129952380D01*
X153785714Y-129952380D01*
X153690476Y-129904761D01*
X153642857Y-129857142D01*
X152357142Y-135652380D02*
X152023809Y-135176190D01*
X151785714Y-135652380D02*
X151785714Y-134652380D01*
X152166666Y-134652380D01*
X152261904Y-134700000D01*
X152309523Y-134747619D01*
X152357142Y-134842857D01*
X152357142Y-134985714D01*
X152309523Y-135080952D01*
X152261904Y-135128571D01*
X152166666Y-135176190D01*
X151785714Y-135176190D01*
X152690476Y-134652380D02*
X153309523Y-134652380D01*
X152976190Y-135033333D01*
X153119047Y-135033333D01*
X153214285Y-135080952D01*
X153261904Y-135128571D01*
X153309523Y-135223809D01*
X153309523Y-135461904D01*
X153261904Y-135557142D01*
X153214285Y-135604761D01*
X153119047Y-135652380D01*
X152833333Y-135652380D01*
X152738095Y-135604761D01*
X152690476Y-135557142D01*
X153690476Y-134747619D02*
X153738095Y-134700000D01*
X153833333Y-134652380D01*
X154071428Y-134652380D01*
X154166666Y-134700000D01*
X154214285Y-134747619D01*
X154261904Y-134842857D01*
X154261904Y-134938095D01*
X154214285Y-135080952D01*
X153642857Y-135652380D01*
X154261904Y-135652380D01*
X149957142Y-107957142D02*
X149909523Y-108004761D01*
X149766666Y-108052380D01*
X149671428Y-108052380D01*
X149528571Y-108004761D01*
X149433333Y-107909523D01*
X149385714Y-107814285D01*
X149338095Y-107623809D01*
X149338095Y-107480952D01*
X149385714Y-107290476D01*
X149433333Y-107195238D01*
X149528571Y-107100000D01*
X149671428Y-107052380D01*
X149766666Y-107052380D01*
X149909523Y-107100000D01*
X149957142Y-107147619D01*
X150814285Y-107385714D02*
X150814285Y-108052380D01*
X150576190Y-107004761D02*
X150338095Y-107719047D01*
X150957142Y-107719047D01*
X151766666Y-107052380D02*
X151576190Y-107052380D01*
X151480952Y-107100000D01*
X151433333Y-107147619D01*
X151338095Y-107290476D01*
X151290476Y-107480952D01*
X151290476Y-107861904D01*
X151338095Y-107957142D01*
X151385714Y-108004761D01*
X151480952Y-108052380D01*
X151671428Y-108052380D01*
X151766666Y-108004761D01*
X151814285Y-107957142D01*
X151861904Y-107861904D01*
X151861904Y-107623809D01*
X151814285Y-107528571D01*
X151766666Y-107480952D01*
X151671428Y-107433333D01*
X151480952Y-107433333D01*
X151385714Y-107480952D01*
X151338095Y-107528571D01*
X151290476Y-107623809D01*
X149533333Y-114457142D02*
X149485714Y-114504761D01*
X149342857Y-114552380D01*
X149247619Y-114552380D01*
X149104761Y-114504761D01*
X149009523Y-114409523D01*
X148961904Y-114314285D01*
X148914285Y-114123809D01*
X148914285Y-113980952D01*
X148961904Y-113790476D01*
X149009523Y-113695238D01*
X149104761Y-113600000D01*
X149247619Y-113552380D01*
X149342857Y-113552380D01*
X149485714Y-113600000D01*
X149533333Y-113647619D01*
X149866666Y-113552380D02*
X150533333Y-113552380D01*
X150104761Y-114552380D01*
X146827380Y-118686904D02*
X147636904Y-118686904D01*
X147732142Y-118639285D01*
X147779761Y-118591666D01*
X147827380Y-118496428D01*
X147827380Y-118305952D01*
X147779761Y-118210714D01*
X147732142Y-118163095D01*
X147636904Y-118115476D01*
X146827380Y-118115476D01*
X147827380Y-117115476D02*
X147827380Y-117686904D01*
X147827380Y-117401190D02*
X146827380Y-117401190D01*
X146970238Y-117496428D01*
X147065476Y-117591666D01*
X147113095Y-117686904D01*
X120457142Y-101842857D02*
X120504761Y-101890476D01*
X120552380Y-102033333D01*
X120552380Y-102128571D01*
X120504761Y-102271428D01*
X120409523Y-102366666D01*
X120314285Y-102414285D01*
X120123809Y-102461904D01*
X119980952Y-102461904D01*
X119790476Y-102414285D01*
X119695238Y-102366666D01*
X119600000Y-102271428D01*
X119552380Y-102128571D01*
X119552380Y-102033333D01*
X119600000Y-101890476D01*
X119647619Y-101842857D01*
X119647619Y-101461904D02*
X119600000Y-101414285D01*
X119552380Y-101319047D01*
X119552380Y-101080952D01*
X119600000Y-100985714D01*
X119647619Y-100938095D01*
X119742857Y-100890476D01*
X119838095Y-100890476D01*
X119980952Y-100938095D01*
X120552380Y-101509523D01*
X120552380Y-100890476D01*
X120552380Y-100414285D02*
X120552380Y-100223809D01*
X120504761Y-100128571D01*
X120457142Y-100080952D01*
X120314285Y-99985714D01*
X120123809Y-99938095D01*
X119742857Y-99938095D01*
X119647619Y-99985714D01*
X119600000Y-100033333D01*
X119552380Y-100128571D01*
X119552380Y-100319047D01*
X119600000Y-100414285D01*
X119647619Y-100461904D01*
X119742857Y-100509523D01*
X119980952Y-100509523D01*
X120076190Y-100461904D01*
X120123809Y-100414285D01*
X120171428Y-100319047D01*
X120171428Y-100128571D01*
X120123809Y-100033333D01*
X120076190Y-99985714D01*
X119980952Y-99938095D01*
X123652380Y-97966666D02*
X123176190Y-98300000D01*
X123652380Y-98538095D02*
X122652380Y-98538095D01*
X122652380Y-98157142D01*
X122700000Y-98061904D01*
X122747619Y-98014285D01*
X122842857Y-97966666D01*
X122985714Y-97966666D01*
X123080952Y-98014285D01*
X123128571Y-98061904D01*
X123176190Y-98157142D01*
X123176190Y-98538095D01*
X122652380Y-97633333D02*
X122652380Y-96966666D01*
X123652380Y-97395238D01*
X117552380Y-101742857D02*
X117076190Y-102076190D01*
X117552380Y-102314285D02*
X116552380Y-102314285D01*
X116552380Y-101933333D01*
X116600000Y-101838095D01*
X116647619Y-101790476D01*
X116742857Y-101742857D01*
X116885714Y-101742857D01*
X116980952Y-101790476D01*
X117028571Y-101838095D01*
X117076190Y-101933333D01*
X117076190Y-102314285D01*
X117552380Y-100790476D02*
X117552380Y-101361904D01*
X117552380Y-101076190D02*
X116552380Y-101076190D01*
X116695238Y-101171428D01*
X116790476Y-101266666D01*
X116838095Y-101361904D01*
X116647619Y-100409523D02*
X116600000Y-100361904D01*
X116552380Y-100266666D01*
X116552380Y-100028571D01*
X116600000Y-99933333D01*
X116647619Y-99885714D01*
X116742857Y-99838095D01*
X116838095Y-99838095D01*
X116980952Y-99885714D01*
X117552380Y-100457142D01*
X117552380Y-99838095D01*
X145777380Y-150686904D02*
X146586904Y-150686904D01*
X146682142Y-150639285D01*
X146729761Y-150591666D01*
X146777380Y-150496428D01*
X146777380Y-150305952D01*
X146729761Y-150210714D01*
X146682142Y-150163095D01*
X146586904Y-150115476D01*
X145777380Y-150115476D01*
X145872619Y-149686904D02*
X145825000Y-149639285D01*
X145777380Y-149544047D01*
X145777380Y-149305952D01*
X145825000Y-149210714D01*
X145872619Y-149163095D01*
X145967857Y-149115476D01*
X146063095Y-149115476D01*
X146205952Y-149163095D01*
X146777380Y-149734523D01*
X146777380Y-149115476D01*
X108052380Y-73661904D02*
X108861904Y-73661904D01*
X108957142Y-73614285D01*
X109004761Y-73566666D01*
X109052380Y-73471428D01*
X109052380Y-73280952D01*
X109004761Y-73185714D01*
X108957142Y-73138095D01*
X108861904Y-73090476D01*
X108052380Y-73090476D01*
X108385714Y-72185714D02*
X109052380Y-72185714D01*
X108004761Y-72423809D02*
X108719047Y-72661904D01*
X108719047Y-72042857D01*
X112995238Y-72604761D02*
X113138095Y-72652380D01*
X113376190Y-72652380D01*
X113471428Y-72604761D01*
X113519047Y-72557142D01*
X113566666Y-72461904D01*
X113566666Y-72366666D01*
X113519047Y-72271428D01*
X113471428Y-72223809D01*
X113376190Y-72176190D01*
X113185714Y-72128571D01*
X113090476Y-72080952D01*
X113042857Y-72033333D01*
X112995238Y-71938095D01*
X112995238Y-71842857D01*
X113042857Y-71747619D01*
X113090476Y-71700000D01*
X113185714Y-71652380D01*
X113423809Y-71652380D01*
X113566666Y-71700000D01*
X113947619Y-72604761D02*
X114090476Y-72652380D01*
X114328571Y-72652380D01*
X114423809Y-72604761D01*
X114471428Y-72557142D01*
X114519047Y-72461904D01*
X114519047Y-72366666D01*
X114471428Y-72271428D01*
X114423809Y-72223809D01*
X114328571Y-72176190D01*
X114138095Y-72128571D01*
X114042857Y-72080952D01*
X113995238Y-72033333D01*
X113947619Y-71938095D01*
X113947619Y-71842857D01*
X113995238Y-71747619D01*
X114042857Y-71700000D01*
X114138095Y-71652380D01*
X114376190Y-71652380D01*
X114519047Y-71700000D01*
X114947619Y-72652380D02*
X114947619Y-71652380D01*
X115376190Y-71747619D02*
X115423809Y-71700000D01*
X115519047Y-71652380D01*
X115757142Y-71652380D01*
X115852380Y-71700000D01*
X115900000Y-71747619D01*
X115947619Y-71842857D01*
X115947619Y-71938095D01*
X115900000Y-72080952D01*
X115328571Y-72652380D01*
X115947619Y-72652380D01*
X116900000Y-72652380D02*
X116328571Y-72652380D01*
X116614285Y-72652380D02*
X116614285Y-71652380D01*
X116519047Y-71795238D01*
X116423809Y-71890476D01*
X116328571Y-71938095D01*
X117757142Y-71652380D02*
X117566666Y-71652380D01*
X117471428Y-71700000D01*
X117423809Y-71747619D01*
X117328571Y-71890476D01*
X117280952Y-72080952D01*
X117280952Y-72461904D01*
X117328571Y-72557142D01*
X117376190Y-72604761D01*
X117471428Y-72652380D01*
X117661904Y-72652380D01*
X117757142Y-72604761D01*
X117804761Y-72557142D01*
X117852380Y-72461904D01*
X117852380Y-72223809D01*
X117804761Y-72128571D01*
X117757142Y-72080952D01*
X117661904Y-72033333D01*
X117471428Y-72033333D01*
X117376190Y-72080952D01*
X117328571Y-72128571D01*
X117280952Y-72223809D01*
X118709523Y-71985714D02*
X118709523Y-72652380D01*
X118471428Y-71604761D02*
X118233333Y-72319047D01*
X118852380Y-72319047D01*
X128538095Y-82652380D02*
X128538095Y-83461904D01*
X128585714Y-83557142D01*
X128633333Y-83604761D01*
X128728571Y-83652380D01*
X128919047Y-83652380D01*
X129014285Y-83604761D01*
X129061904Y-83557142D01*
X129109523Y-83461904D01*
X129109523Y-82652380D01*
X129490476Y-82652380D02*
X130157142Y-82652380D01*
X129728571Y-83652380D01*
X133780952Y-81752380D02*
X134352380Y-81752380D01*
X134066666Y-82752380D02*
X134066666Y-81752380D01*
X135161904Y-82752380D02*
X134685714Y-82752380D01*
X134685714Y-81752380D01*
X135685714Y-81752380D02*
X135780952Y-81752380D01*
X135876190Y-81800000D01*
X135923809Y-81847619D01*
X135971428Y-81942857D01*
X136019047Y-82133333D01*
X136019047Y-82371428D01*
X135971428Y-82561904D01*
X135923809Y-82657142D01*
X135876190Y-82704761D01*
X135780952Y-82752380D01*
X135685714Y-82752380D01*
X135590476Y-82704761D01*
X135542857Y-82657142D01*
X135495238Y-82561904D01*
X135447619Y-82371428D01*
X135447619Y-82133333D01*
X135495238Y-81942857D01*
X135542857Y-81847619D01*
X135590476Y-81800000D01*
X135685714Y-81752380D01*
X136352380Y-81752380D02*
X137019047Y-81752380D01*
X136590476Y-82752380D01*
X137828571Y-82085714D02*
X137828571Y-82752380D01*
X137590476Y-81704761D02*
X137352380Y-82419047D01*
X137971428Y-82419047D01*
X100652380Y-113161904D02*
X101461904Y-113161904D01*
X101557142Y-113114285D01*
X101604761Y-113066666D01*
X101652380Y-112971428D01*
X101652380Y-112780952D01*
X101604761Y-112685714D01*
X101557142Y-112638095D01*
X101461904Y-112590476D01*
X100652380Y-112590476D01*
X100652380Y-111685714D02*
X100652380Y-111876190D01*
X100700000Y-111971428D01*
X100747619Y-112019047D01*
X100890476Y-112114285D01*
X101080952Y-112161904D01*
X101461904Y-112161904D01*
X101557142Y-112114285D01*
X101604761Y-112066666D01*
X101652380Y-111971428D01*
X101652380Y-111780952D01*
X101604761Y-111685714D01*
X101557142Y-111638095D01*
X101461904Y-111590476D01*
X101223809Y-111590476D01*
X101128571Y-111638095D01*
X101080952Y-111685714D01*
X101033333Y-111780952D01*
X101033333Y-111971428D01*
X101080952Y-112066666D01*
X101128571Y-112114285D01*
X101223809Y-112161904D01*
X106552380Y-118638095D02*
X105552380Y-118638095D01*
X106266666Y-118304761D01*
X105552380Y-117971428D01*
X106552380Y-117971428D01*
X106457142Y-116923809D02*
X106504761Y-116971428D01*
X106552380Y-117114285D01*
X106552380Y-117209523D01*
X106504761Y-117352380D01*
X106409523Y-117447619D01*
X106314285Y-117495238D01*
X106123809Y-117542857D01*
X105980952Y-117542857D01*
X105790476Y-117495238D01*
X105695238Y-117447619D01*
X105600000Y-117352380D01*
X105552380Y-117209523D01*
X105552380Y-117114285D01*
X105600000Y-116971428D01*
X105647619Y-116923809D01*
X106552380Y-116495238D02*
X105552380Y-116495238D01*
X105552380Y-116114285D01*
X105600000Y-116019047D01*
X105647619Y-115971428D01*
X105742857Y-115923809D01*
X105885714Y-115923809D01*
X105980952Y-115971428D01*
X106028571Y-116019047D01*
X106076190Y-116114285D01*
X106076190Y-116495238D01*
X105552380Y-115066666D02*
X105552380Y-115257142D01*
X105600000Y-115352380D01*
X105647619Y-115400000D01*
X105790476Y-115495238D01*
X105980952Y-115542857D01*
X106361904Y-115542857D01*
X106457142Y-115495238D01*
X106504761Y-115447619D01*
X106552380Y-115352380D01*
X106552380Y-115161904D01*
X106504761Y-115066666D01*
X106457142Y-115019047D01*
X106361904Y-114971428D01*
X106123809Y-114971428D01*
X106028571Y-115019047D01*
X105980952Y-115066666D01*
X105933333Y-115161904D01*
X105933333Y-115352380D01*
X105980952Y-115447619D01*
X106028571Y-115495238D01*
X106123809Y-115542857D01*
X105552380Y-114352380D02*
X105552380Y-114257142D01*
X105600000Y-114161904D01*
X105647619Y-114114285D01*
X105742857Y-114066666D01*
X105933333Y-114019047D01*
X106171428Y-114019047D01*
X106361904Y-114066666D01*
X106457142Y-114114285D01*
X106504761Y-114161904D01*
X106552380Y-114257142D01*
X106552380Y-114352380D01*
X106504761Y-114447619D01*
X106457142Y-114495238D01*
X106361904Y-114542857D01*
X106171428Y-114590476D01*
X105933333Y-114590476D01*
X105742857Y-114542857D01*
X105647619Y-114495238D01*
X105600000Y-114447619D01*
X105552380Y-114352380D01*
X105552380Y-113400000D02*
X105552380Y-113304761D01*
X105600000Y-113209523D01*
X105647619Y-113161904D01*
X105742857Y-113114285D01*
X105933333Y-113066666D01*
X106171428Y-113066666D01*
X106361904Y-113114285D01*
X106457142Y-113161904D01*
X106504761Y-113209523D01*
X106552380Y-113304761D01*
X106552380Y-113400000D01*
X106504761Y-113495238D01*
X106457142Y-113542857D01*
X106361904Y-113590476D01*
X106171428Y-113638095D01*
X105933333Y-113638095D01*
X105742857Y-113590476D01*
X105647619Y-113542857D01*
X105600000Y-113495238D01*
X105552380Y-113400000D01*
X105885714Y-112209523D02*
X106552380Y-112209523D01*
X105504761Y-112447619D02*
X106219047Y-112685714D01*
X106219047Y-112066666D01*
X112238095Y-99652380D02*
X112238095Y-100461904D01*
X112285714Y-100557142D01*
X112333333Y-100604761D01*
X112428571Y-100652380D01*
X112619047Y-100652380D01*
X112714285Y-100604761D01*
X112761904Y-100557142D01*
X112809523Y-100461904D01*
X112809523Y-99652380D01*
X113761904Y-99652380D02*
X113285714Y-99652380D01*
X113238095Y-100128571D01*
X113285714Y-100080952D01*
X113380952Y-100033333D01*
X113619047Y-100033333D01*
X113714285Y-100080952D01*
X113761904Y-100128571D01*
X113809523Y-100223809D01*
X113809523Y-100461904D01*
X113761904Y-100557142D01*
X113714285Y-100604761D01*
X113619047Y-100652380D01*
X113380952Y-100652380D01*
X113285714Y-100604761D01*
X113238095Y-100557142D01*
X113452380Y-97138095D02*
X112452380Y-97138095D01*
X113166666Y-96804761D01*
X112452380Y-96471428D01*
X113452380Y-96471428D01*
X113357142Y-95423809D02*
X113404761Y-95471428D01*
X113452380Y-95614285D01*
X113452380Y-95709523D01*
X113404761Y-95852380D01*
X113309523Y-95947619D01*
X113214285Y-95995238D01*
X113023809Y-96042857D01*
X112880952Y-96042857D01*
X112690476Y-95995238D01*
X112595238Y-95947619D01*
X112500000Y-95852380D01*
X112452380Y-95709523D01*
X112452380Y-95614285D01*
X112500000Y-95471428D01*
X112547619Y-95423809D01*
X113452380Y-94995238D02*
X112452380Y-94995238D01*
X112452380Y-94614285D01*
X112500000Y-94519047D01*
X112547619Y-94471428D01*
X112642857Y-94423809D01*
X112785714Y-94423809D01*
X112880952Y-94471428D01*
X112928571Y-94519047D01*
X112976190Y-94614285D01*
X112976190Y-94995238D01*
X112452380Y-93566666D02*
X112452380Y-93757142D01*
X112500000Y-93852380D01*
X112547619Y-93900000D01*
X112690476Y-93995238D01*
X112880952Y-94042857D01*
X113261904Y-94042857D01*
X113357142Y-93995238D01*
X113404761Y-93947619D01*
X113452380Y-93852380D01*
X113452380Y-93661904D01*
X113404761Y-93566666D01*
X113357142Y-93519047D01*
X113261904Y-93471428D01*
X113023809Y-93471428D01*
X112928571Y-93519047D01*
X112880952Y-93566666D01*
X112833333Y-93661904D01*
X112833333Y-93852380D01*
X112880952Y-93947619D01*
X112928571Y-93995238D01*
X113023809Y-94042857D01*
X112452380Y-92852380D02*
X112452380Y-92757142D01*
X112500000Y-92661904D01*
X112547619Y-92614285D01*
X112642857Y-92566666D01*
X112833333Y-92519047D01*
X113071428Y-92519047D01*
X113261904Y-92566666D01*
X113357142Y-92614285D01*
X113404761Y-92661904D01*
X113452380Y-92757142D01*
X113452380Y-92852380D01*
X113404761Y-92947619D01*
X113357142Y-92995238D01*
X113261904Y-93042857D01*
X113071428Y-93090476D01*
X112833333Y-93090476D01*
X112642857Y-93042857D01*
X112547619Y-92995238D01*
X112500000Y-92947619D01*
X112452380Y-92852380D01*
X112452380Y-91900000D02*
X112452380Y-91804761D01*
X112500000Y-91709523D01*
X112547619Y-91661904D01*
X112642857Y-91614285D01*
X112833333Y-91566666D01*
X113071428Y-91566666D01*
X113261904Y-91614285D01*
X113357142Y-91661904D01*
X113404761Y-91709523D01*
X113452380Y-91804761D01*
X113452380Y-91900000D01*
X113404761Y-91995238D01*
X113357142Y-92042857D01*
X113261904Y-92090476D01*
X113071428Y-92138095D01*
X112833333Y-92138095D01*
X112642857Y-92090476D01*
X112547619Y-92042857D01*
X112500000Y-91995238D01*
X112452380Y-91900000D01*
X112785714Y-90709523D02*
X113452380Y-90709523D01*
X112404761Y-90947619D02*
X113119047Y-91185714D01*
X113119047Y-90566666D01*
D12*
X141485714Y-88961904D02*
X141219047Y-88580952D01*
X141028571Y-88961904D02*
X141028571Y-88161904D01*
X141333333Y-88161904D01*
X141409523Y-88200000D01*
X141447619Y-88238095D01*
X141485714Y-88314285D01*
X141485714Y-88428571D01*
X141447619Y-88504761D01*
X141409523Y-88542857D01*
X141333333Y-88580952D01*
X141028571Y-88580952D01*
X142171428Y-88428571D02*
X142171428Y-88961904D01*
X141980952Y-88123809D02*
X141790476Y-88695238D01*
X142285714Y-88695238D01*
X143009523Y-88961904D02*
X142552380Y-88961904D01*
X142780952Y-88961904D02*
X142780952Y-88161904D01*
X142704761Y-88276190D01*
X142628571Y-88352380D01*
X142552380Y-88390476D01*
X129385714Y-88961904D02*
X129119047Y-88580952D01*
X128928571Y-88961904D02*
X128928571Y-88161904D01*
X129233333Y-88161904D01*
X129309523Y-88200000D01*
X129347619Y-88238095D01*
X129385714Y-88314285D01*
X129385714Y-88428571D01*
X129347619Y-88504761D01*
X129309523Y-88542857D01*
X129233333Y-88580952D01*
X128928571Y-88580952D01*
X130071428Y-88428571D02*
X130071428Y-88961904D01*
X129880952Y-88123809D02*
X129690476Y-88695238D01*
X130185714Y-88695238D01*
X130642857Y-88161904D02*
X130719047Y-88161904D01*
X130795238Y-88200000D01*
X130833333Y-88238095D01*
X130871428Y-88314285D01*
X130909523Y-88466666D01*
X130909523Y-88657142D01*
X130871428Y-88809523D01*
X130833333Y-88885714D01*
X130795238Y-88923809D01*
X130719047Y-88961904D01*
X130642857Y-88961904D01*
X130566666Y-88923809D01*
X130528571Y-88885714D01*
X130490476Y-88809523D01*
X130452380Y-88657142D01*
X130452380Y-88466666D01*
X130490476Y-88314285D01*
X130528571Y-88238095D01*
X130566666Y-88200000D01*
X130642857Y-88161904D01*
X137061904Y-93514285D02*
X136680952Y-93780952D01*
X137061904Y-93971428D02*
X136261904Y-93971428D01*
X136261904Y-93666666D01*
X136300000Y-93590476D01*
X136338095Y-93552380D01*
X136414285Y-93514285D01*
X136528571Y-93514285D01*
X136604761Y-93552380D01*
X136642857Y-93590476D01*
X136680952Y-93666666D01*
X136680952Y-93971428D01*
X136261904Y-93247619D02*
X136261904Y-92752380D01*
X136566666Y-93019047D01*
X136566666Y-92904761D01*
X136604761Y-92828571D01*
X136642857Y-92790476D01*
X136719047Y-92752380D01*
X136909523Y-92752380D01*
X136985714Y-92790476D01*
X137023809Y-92828571D01*
X137061904Y-92904761D01*
X137061904Y-93133333D01*
X137023809Y-93209523D01*
X136985714Y-93247619D01*
X137061904Y-92371428D02*
X137061904Y-92219047D01*
X137023809Y-92142857D01*
X136985714Y-92104761D01*
X136871428Y-92028571D01*
X136719047Y-91990476D01*
X136414285Y-91990476D01*
X136338095Y-92028571D01*
X136300000Y-92066666D01*
X136261904Y-92142857D01*
X136261904Y-92295238D01*
X136300000Y-92371428D01*
X136338095Y-92409523D01*
X136414285Y-92447619D01*
X136604761Y-92447619D01*
X136680952Y-92409523D01*
X136719047Y-92371428D01*
X136757142Y-92295238D01*
X136757142Y-92142857D01*
X136719047Y-92066666D01*
X136680952Y-92028571D01*
X136604761Y-91990476D01*
X135661904Y-93514285D02*
X135280952Y-93780952D01*
X135661904Y-93971428D02*
X134861904Y-93971428D01*
X134861904Y-93666666D01*
X134900000Y-93590476D01*
X134938095Y-93552380D01*
X135014285Y-93514285D01*
X135128571Y-93514285D01*
X135204761Y-93552380D01*
X135242857Y-93590476D01*
X135280952Y-93666666D01*
X135280952Y-93971428D01*
X134861904Y-93247619D02*
X134861904Y-92752380D01*
X135166666Y-93019047D01*
X135166666Y-92904761D01*
X135204761Y-92828571D01*
X135242857Y-92790476D01*
X135319047Y-92752380D01*
X135509523Y-92752380D01*
X135585714Y-92790476D01*
X135623809Y-92828571D01*
X135661904Y-92904761D01*
X135661904Y-93133333D01*
X135623809Y-93209523D01*
X135585714Y-93247619D01*
X135204761Y-92295238D02*
X135166666Y-92371428D01*
X135128571Y-92409523D01*
X135052380Y-92447619D01*
X135014285Y-92447619D01*
X134938095Y-92409523D01*
X134900000Y-92371428D01*
X134861904Y-92295238D01*
X134861904Y-92142857D01*
X134900000Y-92066666D01*
X134938095Y-92028571D01*
X135014285Y-91990476D01*
X135052380Y-91990476D01*
X135128571Y-92028571D01*
X135166666Y-92066666D01*
X135204761Y-92142857D01*
X135204761Y-92295238D01*
X135242857Y-92371428D01*
X135280952Y-92409523D01*
X135357142Y-92447619D01*
X135509523Y-92447619D01*
X135585714Y-92409523D01*
X135623809Y-92371428D01*
X135661904Y-92295238D01*
X135661904Y-92142857D01*
X135623809Y-92066666D01*
X135585714Y-92028571D01*
X135509523Y-91990476D01*
X135357142Y-91990476D01*
X135280952Y-92028571D01*
X135242857Y-92066666D01*
X135204761Y-92142857D01*
D11*
X141657142Y-95052380D02*
X141323809Y-94576190D01*
X141085714Y-95052380D02*
X141085714Y-94052380D01*
X141466666Y-94052380D01*
X141561904Y-94100000D01*
X141609523Y-94147619D01*
X141657142Y-94242857D01*
X141657142Y-94385714D01*
X141609523Y-94480952D01*
X141561904Y-94528571D01*
X141466666Y-94576190D01*
X141085714Y-94576190D01*
X141990476Y-94052380D02*
X142609523Y-94052380D01*
X142276190Y-94433333D01*
X142419047Y-94433333D01*
X142514285Y-94480952D01*
X142561904Y-94528571D01*
X142609523Y-94623809D01*
X142609523Y-94861904D01*
X142561904Y-94957142D01*
X142514285Y-95004761D01*
X142419047Y-95052380D01*
X142133333Y-95052380D01*
X142038095Y-95004761D01*
X141990476Y-94957142D01*
X142942857Y-94052380D02*
X143609523Y-94052380D01*
X143180952Y-95052380D01*
X128857142Y-95052380D02*
X128523809Y-94576190D01*
X128285714Y-95052380D02*
X128285714Y-94052380D01*
X128666666Y-94052380D01*
X128761904Y-94100000D01*
X128809523Y-94147619D01*
X128857142Y-94242857D01*
X128857142Y-94385714D01*
X128809523Y-94480952D01*
X128761904Y-94528571D01*
X128666666Y-94576190D01*
X128285714Y-94576190D01*
X129190476Y-94052380D02*
X129809523Y-94052380D01*
X129476190Y-94433333D01*
X129619047Y-94433333D01*
X129714285Y-94480952D01*
X129761904Y-94528571D01*
X129809523Y-94623809D01*
X129809523Y-94861904D01*
X129761904Y-94957142D01*
X129714285Y-95004761D01*
X129619047Y-95052380D01*
X129333333Y-95052380D01*
X129238095Y-95004761D01*
X129190476Y-94957142D01*
X130666666Y-94052380D02*
X130476190Y-94052380D01*
X130380952Y-94100000D01*
X130333333Y-94147619D01*
X130238095Y-94290476D01*
X130190476Y-94480952D01*
X130190476Y-94861904D01*
X130238095Y-94957142D01*
X130285714Y-95004761D01*
X130380952Y-95052380D01*
X130571428Y-95052380D01*
X130666666Y-95004761D01*
X130714285Y-94957142D01*
X130761904Y-94861904D01*
X130761904Y-94623809D01*
X130714285Y-94528571D01*
X130666666Y-94480952D01*
X130571428Y-94433333D01*
X130380952Y-94433333D01*
X130285714Y-94480952D01*
X130238095Y-94528571D01*
X130190476Y-94623809D01*
X111752380Y-122342857D02*
X111276190Y-122676190D01*
X111752380Y-122914285D02*
X110752380Y-122914285D01*
X110752380Y-122533333D01*
X110800000Y-122438095D01*
X110847619Y-122390476D01*
X110942857Y-122342857D01*
X111085714Y-122342857D01*
X111180952Y-122390476D01*
X111228571Y-122438095D01*
X111276190Y-122533333D01*
X111276190Y-122914285D01*
X110752380Y-122009523D02*
X110752380Y-121390476D01*
X111133333Y-121723809D01*
X111133333Y-121580952D01*
X111180952Y-121485714D01*
X111228571Y-121438095D01*
X111323809Y-121390476D01*
X111561904Y-121390476D01*
X111657142Y-121438095D01*
X111704761Y-121485714D01*
X111752380Y-121580952D01*
X111752380Y-121866666D01*
X111704761Y-121961904D01*
X111657142Y-122009523D01*
X111085714Y-120533333D02*
X111752380Y-120533333D01*
X110704761Y-120771428D02*
X111419047Y-121009523D01*
X111419047Y-120390476D01*
X101957142Y-122152380D02*
X101623809Y-121676190D01*
X101385714Y-122152380D02*
X101385714Y-121152380D01*
X101766666Y-121152380D01*
X101861904Y-121200000D01*
X101909523Y-121247619D01*
X101957142Y-121342857D01*
X101957142Y-121485714D01*
X101909523Y-121580952D01*
X101861904Y-121628571D01*
X101766666Y-121676190D01*
X101385714Y-121676190D01*
X102290476Y-121152380D02*
X102909523Y-121152380D01*
X102576190Y-121533333D01*
X102719047Y-121533333D01*
X102814285Y-121580952D01*
X102861904Y-121628571D01*
X102909523Y-121723809D01*
X102909523Y-121961904D01*
X102861904Y-122057142D01*
X102814285Y-122104761D01*
X102719047Y-122152380D01*
X102433333Y-122152380D01*
X102338095Y-122104761D01*
X102290476Y-122057142D01*
X103528571Y-121152380D02*
X103623809Y-121152380D01*
X103719047Y-121200000D01*
X103766666Y-121247619D01*
X103814285Y-121342857D01*
X103861904Y-121533333D01*
X103861904Y-121771428D01*
X103814285Y-121961904D01*
X103766666Y-122057142D01*
X103719047Y-122104761D01*
X103623809Y-122152380D01*
X103528571Y-122152380D01*
X103433333Y-122104761D01*
X103385714Y-122057142D01*
X103338095Y-121961904D01*
X103290476Y-121771428D01*
X103290476Y-121533333D01*
X103338095Y-121342857D01*
X103385714Y-121247619D01*
X103433333Y-121200000D01*
X103528571Y-121152380D01*
X114902380Y-118842857D02*
X114426190Y-119176190D01*
X114902380Y-119414285D02*
X113902380Y-119414285D01*
X113902380Y-119033333D01*
X113950000Y-118938095D01*
X113997619Y-118890476D01*
X114092857Y-118842857D01*
X114235714Y-118842857D01*
X114330952Y-118890476D01*
X114378571Y-118938095D01*
X114426190Y-119033333D01*
X114426190Y-119414285D01*
X113997619Y-118461904D02*
X113950000Y-118414285D01*
X113902380Y-118319047D01*
X113902380Y-118080952D01*
X113950000Y-117985714D01*
X113997619Y-117938095D01*
X114092857Y-117890476D01*
X114188095Y-117890476D01*
X114330952Y-117938095D01*
X114902380Y-118509523D01*
X114902380Y-117890476D01*
X114902380Y-117414285D02*
X114902380Y-117223809D01*
X114854761Y-117128571D01*
X114807142Y-117080952D01*
X114664285Y-116985714D01*
X114473809Y-116938095D01*
X114092857Y-116938095D01*
X113997619Y-116985714D01*
X113950000Y-117033333D01*
X113902380Y-117128571D01*
X113902380Y-117319047D01*
X113950000Y-117414285D01*
X113997619Y-117461904D01*
X114092857Y-117509523D01*
X114330952Y-117509523D01*
X114426190Y-117461904D01*
X114473809Y-117414285D01*
X114521428Y-117319047D01*
X114521428Y-117128571D01*
X114473809Y-117033333D01*
X114426190Y-116985714D01*
X114330952Y-116938095D01*
X109252380Y-100342857D02*
X108776190Y-100676190D01*
X109252380Y-100914285D02*
X108252380Y-100914285D01*
X108252380Y-100533333D01*
X108300000Y-100438095D01*
X108347619Y-100390476D01*
X108442857Y-100342857D01*
X108585714Y-100342857D01*
X108680952Y-100390476D01*
X108728571Y-100438095D01*
X108776190Y-100533333D01*
X108776190Y-100914285D01*
X108347619Y-99961904D02*
X108300000Y-99914285D01*
X108252380Y-99819047D01*
X108252380Y-99580952D01*
X108300000Y-99485714D01*
X108347619Y-99438095D01*
X108442857Y-99390476D01*
X108538095Y-99390476D01*
X108680952Y-99438095D01*
X109252380Y-100009523D01*
X109252380Y-99390476D01*
X108680952Y-98819047D02*
X108633333Y-98914285D01*
X108585714Y-98961904D01*
X108490476Y-99009523D01*
X108442857Y-99009523D01*
X108347619Y-98961904D01*
X108300000Y-98914285D01*
X108252380Y-98819047D01*
X108252380Y-98628571D01*
X108300000Y-98533333D01*
X108347619Y-98485714D01*
X108442857Y-98438095D01*
X108490476Y-98438095D01*
X108585714Y-98485714D01*
X108633333Y-98533333D01*
X108680952Y-98628571D01*
X108680952Y-98819047D01*
X108728571Y-98914285D01*
X108776190Y-98961904D01*
X108871428Y-99009523D01*
X109061904Y-99009523D01*
X109157142Y-98961904D01*
X109204761Y-98914285D01*
X109252380Y-98819047D01*
X109252380Y-98628571D01*
X109204761Y-98533333D01*
X109157142Y-98485714D01*
X109061904Y-98438095D01*
X108871428Y-98438095D01*
X108776190Y-98485714D01*
X108728571Y-98533333D01*
X108680952Y-98628571D01*
X109102380Y-88242857D02*
X108626190Y-88576190D01*
X109102380Y-88814285D02*
X108102380Y-88814285D01*
X108102380Y-88433333D01*
X108150000Y-88338095D01*
X108197619Y-88290476D01*
X108292857Y-88242857D01*
X108435714Y-88242857D01*
X108530952Y-88290476D01*
X108578571Y-88338095D01*
X108626190Y-88433333D01*
X108626190Y-88814285D01*
X108197619Y-87861904D02*
X108150000Y-87814285D01*
X108102380Y-87719047D01*
X108102380Y-87480952D01*
X108150000Y-87385714D01*
X108197619Y-87338095D01*
X108292857Y-87290476D01*
X108388095Y-87290476D01*
X108530952Y-87338095D01*
X109102380Y-87909523D01*
X109102380Y-87290476D01*
X108102380Y-86957142D02*
X108102380Y-86290476D01*
X109102380Y-86719047D01*
X102852380Y-98442857D02*
X102376190Y-98776190D01*
X102852380Y-99014285D02*
X101852380Y-99014285D01*
X101852380Y-98633333D01*
X101900000Y-98538095D01*
X101947619Y-98490476D01*
X102042857Y-98442857D01*
X102185714Y-98442857D01*
X102280952Y-98490476D01*
X102328571Y-98538095D01*
X102376190Y-98633333D01*
X102376190Y-99014285D01*
X101947619Y-98061904D02*
X101900000Y-98014285D01*
X101852380Y-97919047D01*
X101852380Y-97680952D01*
X101900000Y-97585714D01*
X101947619Y-97538095D01*
X102042857Y-97490476D01*
X102138095Y-97490476D01*
X102280952Y-97538095D01*
X102852380Y-98109523D01*
X102852380Y-97490476D01*
X101852380Y-96633333D02*
X101852380Y-96823809D01*
X101900000Y-96919047D01*
X101947619Y-96966666D01*
X102090476Y-97061904D01*
X102280952Y-97109523D01*
X102661904Y-97109523D01*
X102757142Y-97061904D01*
X102804761Y-97014285D01*
X102852380Y-96919047D01*
X102852380Y-96728571D01*
X102804761Y-96633333D01*
X102757142Y-96585714D01*
X102661904Y-96538095D01*
X102423809Y-96538095D01*
X102328571Y-96585714D01*
X102280952Y-96633333D01*
X102233333Y-96728571D01*
X102233333Y-96919047D01*
X102280952Y-97014285D01*
X102328571Y-97061904D01*
X102423809Y-97109523D01*
X101657142Y-95452380D02*
X101323809Y-94976190D01*
X101085714Y-95452380D02*
X101085714Y-94452380D01*
X101466666Y-94452380D01*
X101561904Y-94500000D01*
X101609523Y-94547619D01*
X101657142Y-94642857D01*
X101657142Y-94785714D01*
X101609523Y-94880952D01*
X101561904Y-94928571D01*
X101466666Y-94976190D01*
X101085714Y-94976190D01*
X102038095Y-94547619D02*
X102085714Y-94500000D01*
X102180952Y-94452380D01*
X102419047Y-94452380D01*
X102514285Y-94500000D01*
X102561904Y-94547619D01*
X102609523Y-94642857D01*
X102609523Y-94738095D01*
X102561904Y-94880952D01*
X101990476Y-95452380D01*
X102609523Y-95452380D01*
X103514285Y-94452380D02*
X103038095Y-94452380D01*
X102990476Y-94928571D01*
X103038095Y-94880952D01*
X103133333Y-94833333D01*
X103371428Y-94833333D01*
X103466666Y-94880952D01*
X103514285Y-94928571D01*
X103561904Y-95023809D01*
X103561904Y-95261904D01*
X103514285Y-95357142D01*
X103466666Y-95404761D01*
X103371428Y-95452380D01*
X103133333Y-95452380D01*
X103038095Y-95404761D01*
X102990476Y-95357142D01*
X102852380Y-90442857D02*
X102376190Y-90776190D01*
X102852380Y-91014285D02*
X101852380Y-91014285D01*
X101852380Y-90633333D01*
X101900000Y-90538095D01*
X101947619Y-90490476D01*
X102042857Y-90442857D01*
X102185714Y-90442857D01*
X102280952Y-90490476D01*
X102328571Y-90538095D01*
X102376190Y-90633333D01*
X102376190Y-91014285D01*
X101947619Y-90061904D02*
X101900000Y-90014285D01*
X101852380Y-89919047D01*
X101852380Y-89680952D01*
X101900000Y-89585714D01*
X101947619Y-89538095D01*
X102042857Y-89490476D01*
X102138095Y-89490476D01*
X102280952Y-89538095D01*
X102852380Y-90109523D01*
X102852380Y-89490476D01*
X102185714Y-88633333D02*
X102852380Y-88633333D01*
X101804761Y-88871428D02*
X102519047Y-89109523D01*
X102519047Y-88490476D01*
X101657142Y-93152380D02*
X101323809Y-92676190D01*
X101085714Y-93152380D02*
X101085714Y-92152380D01*
X101466666Y-92152380D01*
X101561904Y-92200000D01*
X101609523Y-92247619D01*
X101657142Y-92342857D01*
X101657142Y-92485714D01*
X101609523Y-92580952D01*
X101561904Y-92628571D01*
X101466666Y-92676190D01*
X101085714Y-92676190D01*
X102038095Y-92247619D02*
X102085714Y-92200000D01*
X102180952Y-92152380D01*
X102419047Y-92152380D01*
X102514285Y-92200000D01*
X102561904Y-92247619D01*
X102609523Y-92342857D01*
X102609523Y-92438095D01*
X102561904Y-92580952D01*
X101990476Y-93152380D01*
X102609523Y-93152380D01*
X102942857Y-92152380D02*
X103561904Y-92152380D01*
X103228571Y-92533333D01*
X103371428Y-92533333D01*
X103466666Y-92580952D01*
X103514285Y-92628571D01*
X103561904Y-92723809D01*
X103561904Y-92961904D01*
X103514285Y-93057142D01*
X103466666Y-93104761D01*
X103371428Y-93152380D01*
X103085714Y-93152380D01*
X102990476Y-93104761D01*
X102942857Y-93057142D01*
X143957142Y-77552380D02*
X143623809Y-77076190D01*
X143385714Y-77552380D02*
X143385714Y-76552380D01*
X143766666Y-76552380D01*
X143861904Y-76600000D01*
X143909523Y-76647619D01*
X143957142Y-76742857D01*
X143957142Y-76885714D01*
X143909523Y-76980952D01*
X143861904Y-77028571D01*
X143766666Y-77076190D01*
X143385714Y-77076190D01*
X144338095Y-76647619D02*
X144385714Y-76600000D01*
X144480952Y-76552380D01*
X144719047Y-76552380D01*
X144814285Y-76600000D01*
X144861904Y-76647619D01*
X144909523Y-76742857D01*
X144909523Y-76838095D01*
X144861904Y-76980952D01*
X144290476Y-77552380D01*
X144909523Y-77552380D01*
X145861904Y-77552380D02*
X145290476Y-77552380D01*
X145576190Y-77552380D02*
X145576190Y-76552380D01*
X145480952Y-76695238D01*
X145385714Y-76790476D01*
X145290476Y-76838095D01*
X143957142Y-89852380D02*
X143623809Y-89376190D01*
X143385714Y-89852380D02*
X143385714Y-88852380D01*
X143766666Y-88852380D01*
X143861904Y-88900000D01*
X143909523Y-88947619D01*
X143957142Y-89042857D01*
X143957142Y-89185714D01*
X143909523Y-89280952D01*
X143861904Y-89328571D01*
X143766666Y-89376190D01*
X143385714Y-89376190D01*
X144338095Y-88947619D02*
X144385714Y-88900000D01*
X144480952Y-88852380D01*
X144719047Y-88852380D01*
X144814285Y-88900000D01*
X144861904Y-88947619D01*
X144909523Y-89042857D01*
X144909523Y-89138095D01*
X144861904Y-89280952D01*
X144290476Y-89852380D01*
X144909523Y-89852380D01*
X145528571Y-88852380D02*
X145623809Y-88852380D01*
X145719047Y-88900000D01*
X145766666Y-88947619D01*
X145814285Y-89042857D01*
X145861904Y-89233333D01*
X145861904Y-89471428D01*
X145814285Y-89661904D01*
X145766666Y-89757142D01*
X145719047Y-89804761D01*
X145623809Y-89852380D01*
X145528571Y-89852380D01*
X145433333Y-89804761D01*
X145385714Y-89757142D01*
X145338095Y-89661904D01*
X145290476Y-89471428D01*
X145290476Y-89233333D01*
X145338095Y-89042857D01*
X145385714Y-88947619D01*
X145433333Y-88900000D01*
X145528571Y-88852380D01*
X129857142Y-79652380D02*
X129523809Y-79176190D01*
X129285714Y-79652380D02*
X129285714Y-78652380D01*
X129666666Y-78652380D01*
X129761904Y-78700000D01*
X129809523Y-78747619D01*
X129857142Y-78842857D01*
X129857142Y-78985714D01*
X129809523Y-79080952D01*
X129761904Y-79128571D01*
X129666666Y-79176190D01*
X129285714Y-79176190D01*
X130809523Y-79652380D02*
X130238095Y-79652380D01*
X130523809Y-79652380D02*
X130523809Y-78652380D01*
X130428571Y-78795238D01*
X130333333Y-78890476D01*
X130238095Y-78938095D01*
X131285714Y-79652380D02*
X131476190Y-79652380D01*
X131571428Y-79604761D01*
X131619047Y-79557142D01*
X131714285Y-79414285D01*
X131761904Y-79223809D01*
X131761904Y-78842857D01*
X131714285Y-78747619D01*
X131666666Y-78700000D01*
X131571428Y-78652380D01*
X131380952Y-78652380D01*
X131285714Y-78700000D01*
X131238095Y-78747619D01*
X131190476Y-78842857D01*
X131190476Y-79080952D01*
X131238095Y-79176190D01*
X131285714Y-79223809D01*
X131380952Y-79271428D01*
X131571428Y-79271428D01*
X131666666Y-79223809D01*
X131714285Y-79176190D01*
X131761904Y-79080952D01*
X140857142Y-79652380D02*
X140523809Y-79176190D01*
X140285714Y-79652380D02*
X140285714Y-78652380D01*
X140666666Y-78652380D01*
X140761904Y-78700000D01*
X140809523Y-78747619D01*
X140857142Y-78842857D01*
X140857142Y-78985714D01*
X140809523Y-79080952D01*
X140761904Y-79128571D01*
X140666666Y-79176190D01*
X140285714Y-79176190D01*
X141809523Y-79652380D02*
X141238095Y-79652380D01*
X141523809Y-79652380D02*
X141523809Y-78652380D01*
X141428571Y-78795238D01*
X141333333Y-78890476D01*
X141238095Y-78938095D01*
X142380952Y-79080952D02*
X142285714Y-79033333D01*
X142238095Y-78985714D01*
X142190476Y-78890476D01*
X142190476Y-78842857D01*
X142238095Y-78747619D01*
X142285714Y-78700000D01*
X142380952Y-78652380D01*
X142571428Y-78652380D01*
X142666666Y-78700000D01*
X142714285Y-78747619D01*
X142761904Y-78842857D01*
X142761904Y-78890476D01*
X142714285Y-78985714D01*
X142666666Y-79033333D01*
X142571428Y-79080952D01*
X142380952Y-79080952D01*
X142285714Y-79128571D01*
X142238095Y-79176190D01*
X142190476Y-79271428D01*
X142190476Y-79461904D01*
X142238095Y-79557142D01*
X142285714Y-79604761D01*
X142380952Y-79652380D01*
X142571428Y-79652380D01*
X142666666Y-79604761D01*
X142714285Y-79557142D01*
X142761904Y-79461904D01*
X142761904Y-79271428D01*
X142714285Y-79176190D01*
X142666666Y-79128571D01*
X142571428Y-79080952D01*
X114252380Y-63942857D02*
X113776190Y-64276190D01*
X114252380Y-64514285D02*
X113252380Y-64514285D01*
X113252380Y-64133333D01*
X113300000Y-64038095D01*
X113347619Y-63990476D01*
X113442857Y-63942857D01*
X113585714Y-63942857D01*
X113680952Y-63990476D01*
X113728571Y-64038095D01*
X113776190Y-64133333D01*
X113776190Y-64514285D01*
X114252380Y-62990476D02*
X114252380Y-63561904D01*
X114252380Y-63276190D02*
X113252380Y-63276190D01*
X113395238Y-63371428D01*
X113490476Y-63466666D01*
X113538095Y-63561904D01*
X113252380Y-62657142D02*
X113252380Y-61990476D01*
X114252380Y-62419047D01*
X116152380Y-63942857D02*
X115676190Y-64276190D01*
X116152380Y-64514285D02*
X115152380Y-64514285D01*
X115152380Y-64133333D01*
X115200000Y-64038095D01*
X115247619Y-63990476D01*
X115342857Y-63942857D01*
X115485714Y-63942857D01*
X115580952Y-63990476D01*
X115628571Y-64038095D01*
X115676190Y-64133333D01*
X115676190Y-64514285D01*
X116152380Y-62990476D02*
X116152380Y-63561904D01*
X116152380Y-63276190D02*
X115152380Y-63276190D01*
X115295238Y-63371428D01*
X115390476Y-63466666D01*
X115438095Y-63561904D01*
X115152380Y-62133333D02*
X115152380Y-62323809D01*
X115200000Y-62419047D01*
X115247619Y-62466666D01*
X115390476Y-62561904D01*
X115580952Y-62609523D01*
X115961904Y-62609523D01*
X116057142Y-62561904D01*
X116104761Y-62514285D01*
X116152380Y-62419047D01*
X116152380Y-62228571D01*
X116104761Y-62133333D01*
X116057142Y-62085714D01*
X115961904Y-62038095D01*
X115723809Y-62038095D01*
X115628571Y-62085714D01*
X115580952Y-62133333D01*
X115533333Y-62228571D01*
X115533333Y-62419047D01*
X115580952Y-62514285D01*
X115628571Y-62561904D01*
X115723809Y-62609523D01*
X116702380Y-80642857D02*
X116226190Y-80976190D01*
X116702380Y-81214285D02*
X115702380Y-81214285D01*
X115702380Y-80833333D01*
X115750000Y-80738095D01*
X115797619Y-80690476D01*
X115892857Y-80642857D01*
X116035714Y-80642857D01*
X116130952Y-80690476D01*
X116178571Y-80738095D01*
X116226190Y-80833333D01*
X116226190Y-81214285D01*
X116702380Y-79690476D02*
X116702380Y-80261904D01*
X116702380Y-79976190D02*
X115702380Y-79976190D01*
X115845238Y-80071428D01*
X115940476Y-80166666D01*
X115988095Y-80261904D01*
X115702380Y-78785714D02*
X115702380Y-79261904D01*
X116178571Y-79309523D01*
X116130952Y-79261904D01*
X116083333Y-79166666D01*
X116083333Y-78928571D01*
X116130952Y-78833333D01*
X116178571Y-78785714D01*
X116273809Y-78738095D01*
X116511904Y-78738095D01*
X116607142Y-78785714D01*
X116654761Y-78833333D01*
X116702380Y-78928571D01*
X116702380Y-79166666D01*
X116654761Y-79261904D01*
X116607142Y-79309523D01*
X106757142Y-68552380D02*
X106423809Y-68076190D01*
X106185714Y-68552380D02*
X106185714Y-67552380D01*
X106566666Y-67552380D01*
X106661904Y-67600000D01*
X106709523Y-67647619D01*
X106757142Y-67742857D01*
X106757142Y-67885714D01*
X106709523Y-67980952D01*
X106661904Y-68028571D01*
X106566666Y-68076190D01*
X106185714Y-68076190D01*
X107709523Y-68552380D02*
X107138095Y-68552380D01*
X107423809Y-68552380D02*
X107423809Y-67552380D01*
X107328571Y-67695238D01*
X107233333Y-67790476D01*
X107138095Y-67838095D01*
X108566666Y-67885714D02*
X108566666Y-68552380D01*
X108328571Y-67504761D02*
X108090476Y-68219047D01*
X108709523Y-68219047D01*
X117452380Y-88242857D02*
X116976190Y-88576190D01*
X117452380Y-88814285D02*
X116452380Y-88814285D01*
X116452380Y-88433333D01*
X116500000Y-88338095D01*
X116547619Y-88290476D01*
X116642857Y-88242857D01*
X116785714Y-88242857D01*
X116880952Y-88290476D01*
X116928571Y-88338095D01*
X116976190Y-88433333D01*
X116976190Y-88814285D01*
X117452380Y-87290476D02*
X117452380Y-87861904D01*
X117452380Y-87576190D02*
X116452380Y-87576190D01*
X116595238Y-87671428D01*
X116690476Y-87766666D01*
X116738095Y-87861904D01*
X116452380Y-86957142D02*
X116452380Y-86338095D01*
X116833333Y-86671428D01*
X116833333Y-86528571D01*
X116880952Y-86433333D01*
X116928571Y-86385714D01*
X117023809Y-86338095D01*
X117261904Y-86338095D01*
X117357142Y-86385714D01*
X117404761Y-86433333D01*
X117452380Y-86528571D01*
X117452380Y-86814285D01*
X117404761Y-86909523D01*
X117357142Y-86957142D01*
X111752380Y-109842857D02*
X111276190Y-110176190D01*
X111752380Y-110414285D02*
X110752380Y-110414285D01*
X110752380Y-110033333D01*
X110800000Y-109938095D01*
X110847619Y-109890476D01*
X110942857Y-109842857D01*
X111085714Y-109842857D01*
X111180952Y-109890476D01*
X111228571Y-109938095D01*
X111276190Y-110033333D01*
X111276190Y-110414285D01*
X111752380Y-108890476D02*
X111752380Y-109461904D01*
X111752380Y-109176190D02*
X110752380Y-109176190D01*
X110895238Y-109271428D01*
X110990476Y-109366666D01*
X111038095Y-109461904D01*
X111752380Y-107938095D02*
X111752380Y-108509523D01*
X111752380Y-108223809D02*
X110752380Y-108223809D01*
X110895238Y-108319047D01*
X110990476Y-108414285D01*
X111038095Y-108509523D01*
X121757142Y-68552380D02*
X121423809Y-68076190D01*
X121185714Y-68552380D02*
X121185714Y-67552380D01*
X121566666Y-67552380D01*
X121661904Y-67600000D01*
X121709523Y-67647619D01*
X121757142Y-67742857D01*
X121757142Y-67885714D01*
X121709523Y-67980952D01*
X121661904Y-68028571D01*
X121566666Y-68076190D01*
X121185714Y-68076190D01*
X122709523Y-68552380D02*
X122138095Y-68552380D01*
X122423809Y-68552380D02*
X122423809Y-67552380D01*
X122328571Y-67695238D01*
X122233333Y-67790476D01*
X122138095Y-67838095D01*
X123328571Y-67552380D02*
X123423809Y-67552380D01*
X123519047Y-67600000D01*
X123566666Y-67647619D01*
X123614285Y-67742857D01*
X123661904Y-67933333D01*
X123661904Y-68171428D01*
X123614285Y-68361904D01*
X123566666Y-68457142D01*
X123519047Y-68504761D01*
X123423809Y-68552380D01*
X123328571Y-68552380D01*
X123233333Y-68504761D01*
X123185714Y-68457142D01*
X123138095Y-68361904D01*
X123090476Y-68171428D01*
X123090476Y-67933333D01*
X123138095Y-67742857D01*
X123185714Y-67647619D01*
X123233333Y-67600000D01*
X123328571Y-67552380D01*
X123652380Y-90066666D02*
X123176190Y-90400000D01*
X123652380Y-90638095D02*
X122652380Y-90638095D01*
X122652380Y-90257142D01*
X122700000Y-90161904D01*
X122747619Y-90114285D01*
X122842857Y-90066666D01*
X122985714Y-90066666D01*
X123080952Y-90114285D01*
X123128571Y-90161904D01*
X123176190Y-90257142D01*
X123176190Y-90638095D01*
X123652380Y-89590476D02*
X123652380Y-89400000D01*
X123604761Y-89304761D01*
X123557142Y-89257142D01*
X123414285Y-89161904D01*
X123223809Y-89114285D01*
X122842857Y-89114285D01*
X122747619Y-89161904D01*
X122700000Y-89209523D01*
X122652380Y-89304761D01*
X122652380Y-89495238D01*
X122700000Y-89590476D01*
X122747619Y-89638095D01*
X122842857Y-89685714D01*
X123080952Y-89685714D01*
X123176190Y-89638095D01*
X123223809Y-89590476D01*
X123271428Y-89495238D01*
X123271428Y-89304761D01*
X123223809Y-89209523D01*
X123176190Y-89161904D01*
X123080952Y-89114285D01*
X123133333Y-93252380D02*
X122800000Y-92776190D01*
X122561904Y-93252380D02*
X122561904Y-92252380D01*
X122942857Y-92252380D01*
X123038095Y-92300000D01*
X123085714Y-92347619D01*
X123133333Y-92442857D01*
X123133333Y-92585714D01*
X123085714Y-92680952D01*
X123038095Y-92728571D01*
X122942857Y-92776190D01*
X122561904Y-92776190D01*
X123704761Y-92680952D02*
X123609523Y-92633333D01*
X123561904Y-92585714D01*
X123514285Y-92490476D01*
X123514285Y-92442857D01*
X123561904Y-92347619D01*
X123609523Y-92300000D01*
X123704761Y-92252380D01*
X123895238Y-92252380D01*
X123990476Y-92300000D01*
X124038095Y-92347619D01*
X124085714Y-92442857D01*
X124085714Y-92490476D01*
X124038095Y-92585714D01*
X123990476Y-92633333D01*
X123895238Y-92680952D01*
X123704761Y-92680952D01*
X123609523Y-92728571D01*
X123561904Y-92776190D01*
X123514285Y-92871428D01*
X123514285Y-93061904D01*
X123561904Y-93157142D01*
X123609523Y-93204761D01*
X123704761Y-93252380D01*
X123895238Y-93252380D01*
X123990476Y-93204761D01*
X124038095Y-93157142D01*
X124085714Y-93061904D01*
X124085714Y-92871428D01*
X124038095Y-92776190D01*
X123990476Y-92728571D01*
X123895238Y-92680952D01*
X123133333Y-95052380D02*
X122800000Y-94576190D01*
X122561904Y-95052380D02*
X122561904Y-94052380D01*
X122942857Y-94052380D01*
X123038095Y-94100000D01*
X123085714Y-94147619D01*
X123133333Y-94242857D01*
X123133333Y-94385714D01*
X123085714Y-94480952D01*
X123038095Y-94528571D01*
X122942857Y-94576190D01*
X122561904Y-94576190D01*
X123990476Y-94052380D02*
X123800000Y-94052380D01*
X123704761Y-94100000D01*
X123657142Y-94147619D01*
X123561904Y-94290476D01*
X123514285Y-94480952D01*
X123514285Y-94861904D01*
X123561904Y-94957142D01*
X123609523Y-95004761D01*
X123704761Y-95052380D01*
X123895238Y-95052380D01*
X123990476Y-95004761D01*
X124038095Y-94957142D01*
X124085714Y-94861904D01*
X124085714Y-94623809D01*
X124038095Y-94528571D01*
X123990476Y-94480952D01*
X123895238Y-94433333D01*
X123704761Y-94433333D01*
X123609523Y-94480952D01*
X123561904Y-94528571D01*
X123514285Y-94623809D01*
X102633333Y-109752380D02*
X102300000Y-109276190D01*
X102061904Y-109752380D02*
X102061904Y-108752380D01*
X102442857Y-108752380D01*
X102538095Y-108800000D01*
X102585714Y-108847619D01*
X102633333Y-108942857D01*
X102633333Y-109085714D01*
X102585714Y-109180952D01*
X102538095Y-109228571D01*
X102442857Y-109276190D01*
X102061904Y-109276190D01*
X103538095Y-108752380D02*
X103061904Y-108752380D01*
X103014285Y-109228571D01*
X103061904Y-109180952D01*
X103157142Y-109133333D01*
X103395238Y-109133333D01*
X103490476Y-109180952D01*
X103538095Y-109228571D01*
X103585714Y-109323809D01*
X103585714Y-109561904D01*
X103538095Y-109657142D01*
X103490476Y-109704761D01*
X103395238Y-109752380D01*
X103157142Y-109752380D01*
X103061904Y-109704761D01*
X103014285Y-109657142D01*
X102633333Y-108152380D02*
X102300000Y-107676190D01*
X102061904Y-108152380D02*
X102061904Y-107152380D01*
X102442857Y-107152380D01*
X102538095Y-107200000D01*
X102585714Y-107247619D01*
X102633333Y-107342857D01*
X102633333Y-107485714D01*
X102585714Y-107580952D01*
X102538095Y-107628571D01*
X102442857Y-107676190D01*
X102061904Y-107676190D01*
X103490476Y-107485714D02*
X103490476Y-108152380D01*
X103252380Y-107104761D02*
X103014285Y-107819047D01*
X103633333Y-107819047D01*
X109302380Y-80166666D02*
X108826190Y-80500000D01*
X109302380Y-80738095D02*
X108302380Y-80738095D01*
X108302380Y-80357142D01*
X108350000Y-80261904D01*
X108397619Y-80214285D01*
X108492857Y-80166666D01*
X108635714Y-80166666D01*
X108730952Y-80214285D01*
X108778571Y-80261904D01*
X108826190Y-80357142D01*
X108826190Y-80738095D01*
X108302380Y-79833333D02*
X108302380Y-79214285D01*
X108683333Y-79547619D01*
X108683333Y-79404761D01*
X108730952Y-79309523D01*
X108778571Y-79261904D01*
X108873809Y-79214285D01*
X109111904Y-79214285D01*
X109207142Y-79261904D01*
X109254761Y-79309523D01*
X109302380Y-79404761D01*
X109302380Y-79690476D01*
X109254761Y-79785714D01*
X109207142Y-79833333D01*
X121602380Y-80166666D02*
X121126190Y-80500000D01*
X121602380Y-80738095D02*
X120602380Y-80738095D01*
X120602380Y-80357142D01*
X120650000Y-80261904D01*
X120697619Y-80214285D01*
X120792857Y-80166666D01*
X120935714Y-80166666D01*
X121030952Y-80214285D01*
X121078571Y-80261904D01*
X121126190Y-80357142D01*
X121126190Y-80738095D01*
X120697619Y-79785714D02*
X120650000Y-79738095D01*
X120602380Y-79642857D01*
X120602380Y-79404761D01*
X120650000Y-79309523D01*
X120697619Y-79261904D01*
X120792857Y-79214285D01*
X120888095Y-79214285D01*
X121030952Y-79261904D01*
X121602380Y-79833333D01*
X121602380Y-79214285D01*
X114202380Y-80166666D02*
X113726190Y-80500000D01*
X114202380Y-80738095D02*
X113202380Y-80738095D01*
X113202380Y-80357142D01*
X113250000Y-80261904D01*
X113297619Y-80214285D01*
X113392857Y-80166666D01*
X113535714Y-80166666D01*
X113630952Y-80214285D01*
X113678571Y-80261904D01*
X113726190Y-80357142D01*
X113726190Y-80738095D01*
X114202380Y-79214285D02*
X114202380Y-79785714D01*
X114202380Y-79500000D02*
X113202380Y-79500000D01*
X113345238Y-79595238D01*
X113440476Y-79690476D01*
X113488095Y-79785714D01*
X118238095Y-62571428D02*
X119000000Y-62571428D01*
X120000000Y-62952380D02*
X119428571Y-62952380D01*
X119714285Y-62952380D02*
X119714285Y-61952380D01*
X119619047Y-62095238D01*
X119523809Y-62190476D01*
X119428571Y-62238095D01*
X120380952Y-62047619D02*
X120428571Y-62000000D01*
X120523809Y-61952380D01*
X120761904Y-61952380D01*
X120857142Y-62000000D01*
X120904761Y-62047619D01*
X120952380Y-62142857D01*
X120952380Y-62238095D01*
X120904761Y-62380952D01*
X120333333Y-62952380D01*
X120952380Y-62952380D01*
X121238095Y-61952380D02*
X121571428Y-62952380D01*
X121904761Y-61952380D01*
X157579761Y-114237142D02*
X157532142Y-114284761D01*
X157389285Y-114332380D01*
X157294047Y-114332380D01*
X157151190Y-114284761D01*
X157055952Y-114189523D01*
X157008333Y-114094285D01*
X156960714Y-113903809D01*
X156960714Y-113760952D01*
X157008333Y-113570476D01*
X157055952Y-113475238D01*
X157151190Y-113380000D01*
X157294047Y-113332380D01*
X157389285Y-113332380D01*
X157532142Y-113380000D01*
X157579761Y-113427619D01*
X158484523Y-114332380D02*
X158008333Y-114332380D01*
X158008333Y-113332380D01*
X158817857Y-114332380D02*
X158817857Y-113332380D01*
X159389285Y-114332380D02*
X158960714Y-113760952D01*
X159389285Y-113332380D02*
X158817857Y-113903809D01*
X157016190Y-116872380D02*
X157016190Y-115872380D01*
X157682857Y-115872380D02*
X157873333Y-115872380D01*
X157968571Y-115920000D01*
X158063809Y-116015238D01*
X158111428Y-116205714D01*
X158111428Y-116539047D01*
X158063809Y-116729523D01*
X157968571Y-116824761D01*
X157873333Y-116872380D01*
X157682857Y-116872380D01*
X157587619Y-116824761D01*
X157492380Y-116729523D01*
X157444761Y-116539047D01*
X157444761Y-116205714D01*
X157492380Y-116015238D01*
X157587619Y-115920000D01*
X157682857Y-115872380D01*
X157413095Y-118460000D02*
X157317857Y-118412380D01*
X157175000Y-118412380D01*
X157032142Y-118460000D01*
X156936904Y-118555238D01*
X156889285Y-118650476D01*
X156841666Y-118840952D01*
X156841666Y-118983809D01*
X156889285Y-119174285D01*
X156936904Y-119269523D01*
X157032142Y-119364761D01*
X157175000Y-119412380D01*
X157270238Y-119412380D01*
X157413095Y-119364761D01*
X157460714Y-119317142D01*
X157460714Y-118983809D01*
X157270238Y-118983809D01*
X157889285Y-119412380D02*
X157889285Y-118412380D01*
X158460714Y-119412380D01*
X158460714Y-118412380D01*
X158936904Y-119412380D02*
X158936904Y-118412380D01*
X159175000Y-118412380D01*
X159317857Y-118460000D01*
X159413095Y-118555238D01*
X159460714Y-118650476D01*
X159508333Y-118840952D01*
X159508333Y-118983809D01*
X159460714Y-119174285D01*
X159413095Y-119269523D01*
X159317857Y-119364761D01*
X159175000Y-119412380D01*
X158936904Y-119412380D01*
X156698809Y-120952380D02*
X157317857Y-120952380D01*
X156984523Y-121333333D01*
X157127380Y-121333333D01*
X157222619Y-121380952D01*
X157270238Y-121428571D01*
X157317857Y-121523809D01*
X157317857Y-121761904D01*
X157270238Y-121857142D01*
X157222619Y-121904761D01*
X157127380Y-121952380D01*
X156841666Y-121952380D01*
X156746428Y-121904761D01*
X156698809Y-121857142D01*
X157746428Y-121857142D02*
X157794047Y-121904761D01*
X157746428Y-121952380D01*
X157698809Y-121904761D01*
X157746428Y-121857142D01*
X157746428Y-121952380D01*
X158127380Y-120952380D02*
X158746428Y-120952380D01*
X158413095Y-121333333D01*
X158555952Y-121333333D01*
X158651190Y-121380952D01*
X158698809Y-121428571D01*
X158746428Y-121523809D01*
X158746428Y-121761904D01*
X158698809Y-121857142D01*
X158651190Y-121904761D01*
X158555952Y-121952380D01*
X158270238Y-121952380D01*
X158175000Y-121904761D01*
X158127380Y-121857142D01*
X159032142Y-120952380D02*
X159365476Y-121952380D01*
X159698809Y-120952380D01*
X114811904Y-52652380D02*
X114811904Y-51652380D01*
X115050000Y-51652380D01*
X115192857Y-51700000D01*
X115288095Y-51795238D01*
X115335714Y-51890476D01*
X115383333Y-52080952D01*
X115383333Y-52223809D01*
X115335714Y-52414285D01*
X115288095Y-52509523D01*
X115192857Y-52604761D01*
X115050000Y-52652380D01*
X114811904Y-52652380D01*
X116240476Y-51985714D02*
X116240476Y-52652380D01*
X116002380Y-51604761D02*
X115764285Y-52319047D01*
X116383333Y-52319047D01*
X139261904Y-52452380D02*
X139261904Y-51452380D01*
X139500000Y-51452380D01*
X139642857Y-51500000D01*
X139738095Y-51595238D01*
X139785714Y-51690476D01*
X139833333Y-51880952D01*
X139833333Y-52023809D01*
X139785714Y-52214285D01*
X139738095Y-52309523D01*
X139642857Y-52404761D01*
X139500000Y-52452380D01*
X139261904Y-52452380D01*
X140166666Y-51452380D02*
X140785714Y-51452380D01*
X140452380Y-51833333D01*
X140595238Y-51833333D01*
X140690476Y-51880952D01*
X140738095Y-51928571D01*
X140785714Y-52023809D01*
X140785714Y-52261904D01*
X140738095Y-52357142D01*
X140690476Y-52404761D01*
X140595238Y-52452380D01*
X140309523Y-52452380D01*
X140214285Y-52404761D01*
X140166666Y-52357142D01*
X104661904Y-59452380D02*
X104661904Y-58452380D01*
X104900000Y-58452380D01*
X105042857Y-58500000D01*
X105138095Y-58595238D01*
X105185714Y-58690476D01*
X105233333Y-58880952D01*
X105233333Y-59023809D01*
X105185714Y-59214285D01*
X105138095Y-59309523D01*
X105042857Y-59404761D01*
X104900000Y-59452380D01*
X104661904Y-59452380D01*
X105614285Y-58547619D02*
X105661904Y-58500000D01*
X105757142Y-58452380D01*
X105995238Y-58452380D01*
X106090476Y-58500000D01*
X106138095Y-58547619D01*
X106185714Y-58642857D01*
X106185714Y-58738095D01*
X106138095Y-58880952D01*
X105566666Y-59452380D01*
X106185714Y-59452380D01*
X131857142Y-74357142D02*
X131809523Y-74404761D01*
X131666666Y-74452380D01*
X131571428Y-74452380D01*
X131428571Y-74404761D01*
X131333333Y-74309523D01*
X131285714Y-74214285D01*
X131238095Y-74023809D01*
X131238095Y-73880952D01*
X131285714Y-73690476D01*
X131333333Y-73595238D01*
X131428571Y-73500000D01*
X131571428Y-73452380D01*
X131666666Y-73452380D01*
X131809523Y-73500000D01*
X131857142Y-73547619D01*
X132761904Y-73452380D02*
X132285714Y-73452380D01*
X132238095Y-73928571D01*
X132285714Y-73880952D01*
X132380952Y-73833333D01*
X132619047Y-73833333D01*
X132714285Y-73880952D01*
X132761904Y-73928571D01*
X132809523Y-74023809D01*
X132809523Y-74261904D01*
X132761904Y-74357142D01*
X132714285Y-74404761D01*
X132619047Y-74452380D01*
X132380952Y-74452380D01*
X132285714Y-74404761D01*
X132238095Y-74357142D01*
X133190476Y-73547619D02*
X133238095Y-73500000D01*
X133333333Y-73452380D01*
X133571428Y-73452380D01*
X133666666Y-73500000D01*
X133714285Y-73547619D01*
X133761904Y-73642857D01*
X133761904Y-73738095D01*
X133714285Y-73880952D01*
X133142857Y-74452380D01*
X133761904Y-74452380D01*
X138757142Y-74357142D02*
X138709523Y-74404761D01*
X138566666Y-74452380D01*
X138471428Y-74452380D01*
X138328571Y-74404761D01*
X138233333Y-74309523D01*
X138185714Y-74214285D01*
X138138095Y-74023809D01*
X138138095Y-73880952D01*
X138185714Y-73690476D01*
X138233333Y-73595238D01*
X138328571Y-73500000D01*
X138471428Y-73452380D01*
X138566666Y-73452380D01*
X138709523Y-73500000D01*
X138757142Y-73547619D01*
X139661904Y-73452380D02*
X139185714Y-73452380D01*
X139138095Y-73928571D01*
X139185714Y-73880952D01*
X139280952Y-73833333D01*
X139519047Y-73833333D01*
X139614285Y-73880952D01*
X139661904Y-73928571D01*
X139709523Y-74023809D01*
X139709523Y-74261904D01*
X139661904Y-74357142D01*
X139614285Y-74404761D01*
X139519047Y-74452380D01*
X139280952Y-74452380D01*
X139185714Y-74404761D01*
X139138095Y-74357142D01*
X140661904Y-74452380D02*
X140090476Y-74452380D01*
X140376190Y-74452380D02*
X140376190Y-73452380D01*
X140280952Y-73595238D01*
X140185714Y-73690476D01*
X140090476Y-73738095D01*
D12*
X137085714Y-91214285D02*
X137123809Y-91252380D01*
X137161904Y-91366666D01*
X137161904Y-91442857D01*
X137123809Y-91557142D01*
X137047619Y-91633333D01*
X136971428Y-91671428D01*
X136819047Y-91709523D01*
X136704761Y-91709523D01*
X136552380Y-91671428D01*
X136476190Y-91633333D01*
X136400000Y-91557142D01*
X136361904Y-91442857D01*
X136361904Y-91366666D01*
X136400000Y-91252380D01*
X136438095Y-91214285D01*
X136361904Y-90490476D02*
X136361904Y-90871428D01*
X136742857Y-90909523D01*
X136704761Y-90871428D01*
X136666666Y-90795238D01*
X136666666Y-90604761D01*
X136704761Y-90528571D01*
X136742857Y-90490476D01*
X136819047Y-90452380D01*
X137009523Y-90452380D01*
X137085714Y-90490476D01*
X137123809Y-90528571D01*
X137161904Y-90604761D01*
X137161904Y-90795238D01*
X137123809Y-90871428D01*
X137085714Y-90909523D01*
X136361904Y-89957142D02*
X136361904Y-89880952D01*
X136400000Y-89804761D01*
X136438095Y-89766666D01*
X136514285Y-89728571D01*
X136666666Y-89690476D01*
X136857142Y-89690476D01*
X137009523Y-89728571D01*
X137085714Y-89766666D01*
X137123809Y-89804761D01*
X137161904Y-89880952D01*
X137161904Y-89957142D01*
X137123809Y-90033333D01*
X137085714Y-90071428D01*
X137009523Y-90109523D01*
X136857142Y-90147619D01*
X136666666Y-90147619D01*
X136514285Y-90109523D01*
X136438095Y-90071428D01*
X136400000Y-90033333D01*
X136361904Y-89957142D01*
X135485714Y-91214285D02*
X135523809Y-91252380D01*
X135561904Y-91366666D01*
X135561904Y-91442857D01*
X135523809Y-91557142D01*
X135447619Y-91633333D01*
X135371428Y-91671428D01*
X135219047Y-91709523D01*
X135104761Y-91709523D01*
X134952380Y-91671428D01*
X134876190Y-91633333D01*
X134800000Y-91557142D01*
X134761904Y-91442857D01*
X134761904Y-91366666D01*
X134800000Y-91252380D01*
X134838095Y-91214285D01*
X135028571Y-90528571D02*
X135561904Y-90528571D01*
X134723809Y-90719047D02*
X135295238Y-90909523D01*
X135295238Y-90414285D01*
X135561904Y-90071428D02*
X135561904Y-89919047D01*
X135523809Y-89842857D01*
X135485714Y-89804761D01*
X135371428Y-89728571D01*
X135219047Y-89690476D01*
X134914285Y-89690476D01*
X134838095Y-89728571D01*
X134800000Y-89766666D01*
X134761904Y-89842857D01*
X134761904Y-89995238D01*
X134800000Y-90071428D01*
X134838095Y-90109523D01*
X134914285Y-90147619D01*
X135104761Y-90147619D01*
X135180952Y-90109523D01*
X135219047Y-90071428D01*
X135257142Y-89995238D01*
X135257142Y-89842857D01*
X135219047Y-89766666D01*
X135180952Y-89728571D01*
X135104761Y-89690476D01*
D11*
X144557142Y-92542857D02*
X144604761Y-92590476D01*
X144652380Y-92733333D01*
X144652380Y-92828571D01*
X144604761Y-92971428D01*
X144509523Y-93066666D01*
X144414285Y-93114285D01*
X144223809Y-93161904D01*
X144080952Y-93161904D01*
X143890476Y-93114285D01*
X143795238Y-93066666D01*
X143700000Y-92971428D01*
X143652380Y-92828571D01*
X143652380Y-92733333D01*
X143700000Y-92590476D01*
X143747619Y-92542857D01*
X143985714Y-91685714D02*
X144652380Y-91685714D01*
X143604761Y-91923809D02*
X144319047Y-92161904D01*
X144319047Y-91542857D01*
X144080952Y-91019047D02*
X144033333Y-91114285D01*
X143985714Y-91161904D01*
X143890476Y-91209523D01*
X143842857Y-91209523D01*
X143747619Y-91161904D01*
X143700000Y-91114285D01*
X143652380Y-91019047D01*
X143652380Y-90828571D01*
X143700000Y-90733333D01*
X143747619Y-90685714D01*
X143842857Y-90638095D01*
X143890476Y-90638095D01*
X143985714Y-90685714D01*
X144033333Y-90733333D01*
X144080952Y-90828571D01*
X144080952Y-91019047D01*
X144128571Y-91114285D01*
X144176190Y-91161904D01*
X144271428Y-91209523D01*
X144461904Y-91209523D01*
X144557142Y-91161904D01*
X144604761Y-91114285D01*
X144652380Y-91019047D01*
X144652380Y-90828571D01*
X144604761Y-90733333D01*
X144557142Y-90685714D01*
X144461904Y-90638095D01*
X144271428Y-90638095D01*
X144176190Y-90685714D01*
X144128571Y-90733333D01*
X144080952Y-90828571D01*
X128457142Y-92542857D02*
X128504761Y-92590476D01*
X128552380Y-92733333D01*
X128552380Y-92828571D01*
X128504761Y-92971428D01*
X128409523Y-93066666D01*
X128314285Y-93114285D01*
X128123809Y-93161904D01*
X127980952Y-93161904D01*
X127790476Y-93114285D01*
X127695238Y-93066666D01*
X127600000Y-92971428D01*
X127552380Y-92828571D01*
X127552380Y-92733333D01*
X127600000Y-92590476D01*
X127647619Y-92542857D01*
X127885714Y-91685714D02*
X128552380Y-91685714D01*
X127504761Y-91923809D02*
X128219047Y-92161904D01*
X128219047Y-91542857D01*
X127552380Y-91257142D02*
X127552380Y-90590476D01*
X128552380Y-91019047D01*
X114757142Y-113342857D02*
X114804761Y-113390476D01*
X114852380Y-113533333D01*
X114852380Y-113628571D01*
X114804761Y-113771428D01*
X114709523Y-113866666D01*
X114614285Y-113914285D01*
X114423809Y-113961904D01*
X114280952Y-113961904D01*
X114090476Y-113914285D01*
X113995238Y-113866666D01*
X113900000Y-113771428D01*
X113852380Y-113628571D01*
X113852380Y-113533333D01*
X113900000Y-113390476D01*
X113947619Y-113342857D01*
X114185714Y-112485714D02*
X114852380Y-112485714D01*
X113804761Y-112723809D02*
X114519047Y-112961904D01*
X114519047Y-112342857D01*
X113852380Y-111485714D02*
X113852380Y-111961904D01*
X114328571Y-112009523D01*
X114280952Y-111961904D01*
X114233333Y-111866666D01*
X114233333Y-111628571D01*
X114280952Y-111533333D01*
X114328571Y-111485714D01*
X114423809Y-111438095D01*
X114661904Y-111438095D01*
X114757142Y-111485714D01*
X114804761Y-111533333D01*
X114852380Y-111628571D01*
X114852380Y-111866666D01*
X114804761Y-111961904D01*
X114757142Y-112009523D01*
X125357142Y-140242857D02*
X125404761Y-140290476D01*
X125452380Y-140433333D01*
X125452380Y-140528571D01*
X125404761Y-140671428D01*
X125309523Y-140766666D01*
X125214285Y-140814285D01*
X125023809Y-140861904D01*
X124880952Y-140861904D01*
X124690476Y-140814285D01*
X124595238Y-140766666D01*
X124500000Y-140671428D01*
X124452380Y-140528571D01*
X124452380Y-140433333D01*
X124500000Y-140290476D01*
X124547619Y-140242857D01*
X124785714Y-139385714D02*
X125452380Y-139385714D01*
X124404761Y-139623809D02*
X125119047Y-139861904D01*
X125119047Y-139242857D01*
X124785714Y-138433333D02*
X125452380Y-138433333D01*
X124404761Y-138671428D02*
X125119047Y-138909523D01*
X125119047Y-138290476D01*
X156757142Y-104942857D02*
X156804761Y-104990476D01*
X156852380Y-105133333D01*
X156852380Y-105228571D01*
X156804761Y-105371428D01*
X156709523Y-105466666D01*
X156614285Y-105514285D01*
X156423809Y-105561904D01*
X156280952Y-105561904D01*
X156090476Y-105514285D01*
X155995238Y-105466666D01*
X155900000Y-105371428D01*
X155852380Y-105228571D01*
X155852380Y-105133333D01*
X155900000Y-104990476D01*
X155947619Y-104942857D01*
X156185714Y-104085714D02*
X156852380Y-104085714D01*
X155804761Y-104323809D02*
X156519047Y-104561904D01*
X156519047Y-103942857D01*
X155852380Y-103657142D02*
X155852380Y-103038095D01*
X156233333Y-103371428D01*
X156233333Y-103228571D01*
X156280952Y-103133333D01*
X156328571Y-103085714D01*
X156423809Y-103038095D01*
X156661904Y-103038095D01*
X156757142Y-103085714D01*
X156804761Y-103133333D01*
X156852380Y-103228571D01*
X156852380Y-103514285D01*
X156804761Y-103609523D01*
X156757142Y-103657142D01*
X133157142Y-140942857D02*
X133204761Y-140990476D01*
X133252380Y-141133333D01*
X133252380Y-141228571D01*
X133204761Y-141371428D01*
X133109523Y-141466666D01*
X133014285Y-141514285D01*
X132823809Y-141561904D01*
X132680952Y-141561904D01*
X132490476Y-141514285D01*
X132395238Y-141466666D01*
X132300000Y-141371428D01*
X132252380Y-141228571D01*
X132252380Y-141133333D01*
X132300000Y-140990476D01*
X132347619Y-140942857D01*
X132585714Y-140085714D02*
X133252380Y-140085714D01*
X132204761Y-140323809D02*
X132919047Y-140561904D01*
X132919047Y-139942857D01*
X132347619Y-139609523D02*
X132300000Y-139561904D01*
X132252380Y-139466666D01*
X132252380Y-139228571D01*
X132300000Y-139133333D01*
X132347619Y-139085714D01*
X132442857Y-139038095D01*
X132538095Y-139038095D01*
X132680952Y-139085714D01*
X133252380Y-139657142D01*
X133252380Y-139038095D01*
X148857142Y-142657142D02*
X148809523Y-142704761D01*
X148666666Y-142752380D01*
X148571428Y-142752380D01*
X148428571Y-142704761D01*
X148333333Y-142609523D01*
X148285714Y-142514285D01*
X148238095Y-142323809D01*
X148238095Y-142180952D01*
X148285714Y-141990476D01*
X148333333Y-141895238D01*
X148428571Y-141800000D01*
X148571428Y-141752380D01*
X148666666Y-141752380D01*
X148809523Y-141800000D01*
X148857142Y-141847619D01*
X149190476Y-141752380D02*
X149809523Y-141752380D01*
X149476190Y-142133333D01*
X149619047Y-142133333D01*
X149714285Y-142180952D01*
X149761904Y-142228571D01*
X149809523Y-142323809D01*
X149809523Y-142561904D01*
X149761904Y-142657142D01*
X149714285Y-142704761D01*
X149619047Y-142752380D01*
X149333333Y-142752380D01*
X149238095Y-142704761D01*
X149190476Y-142657142D01*
X150142857Y-141752380D02*
X150809523Y-141752380D01*
X150380952Y-142752380D01*
X153257142Y-104942857D02*
X153304761Y-104990476D01*
X153352380Y-105133333D01*
X153352380Y-105228571D01*
X153304761Y-105371428D01*
X153209523Y-105466666D01*
X153114285Y-105514285D01*
X152923809Y-105561904D01*
X152780952Y-105561904D01*
X152590476Y-105514285D01*
X152495238Y-105466666D01*
X152400000Y-105371428D01*
X152352380Y-105228571D01*
X152352380Y-105133333D01*
X152400000Y-104990476D01*
X152447619Y-104942857D01*
X152352380Y-104609523D02*
X152352380Y-103990476D01*
X152733333Y-104323809D01*
X152733333Y-104180952D01*
X152780952Y-104085714D01*
X152828571Y-104038095D01*
X152923809Y-103990476D01*
X153161904Y-103990476D01*
X153257142Y-104038095D01*
X153304761Y-104085714D01*
X153352380Y-104180952D01*
X153352380Y-104466666D01*
X153304761Y-104561904D01*
X153257142Y-104609523D01*
X152352380Y-103085714D02*
X152352380Y-103561904D01*
X152828571Y-103609523D01*
X152780952Y-103561904D01*
X152733333Y-103466666D01*
X152733333Y-103228571D01*
X152780952Y-103133333D01*
X152828571Y-103085714D01*
X152923809Y-103038095D01*
X153161904Y-103038095D01*
X153257142Y-103085714D01*
X153304761Y-103133333D01*
X153352380Y-103228571D01*
X153352380Y-103466666D01*
X153304761Y-103561904D01*
X153257142Y-103609523D01*
X105957142Y-102042857D02*
X106004761Y-102090476D01*
X106052380Y-102233333D01*
X106052380Y-102328571D01*
X106004761Y-102471428D01*
X105909523Y-102566666D01*
X105814285Y-102614285D01*
X105623809Y-102661904D01*
X105480952Y-102661904D01*
X105290476Y-102614285D01*
X105195238Y-102566666D01*
X105100000Y-102471428D01*
X105052380Y-102328571D01*
X105052380Y-102233333D01*
X105100000Y-102090476D01*
X105147619Y-102042857D01*
X105052380Y-101709523D02*
X105052380Y-101090476D01*
X105433333Y-101423809D01*
X105433333Y-101280952D01*
X105480952Y-101185714D01*
X105528571Y-101138095D01*
X105623809Y-101090476D01*
X105861904Y-101090476D01*
X105957142Y-101138095D01*
X106004761Y-101185714D01*
X106052380Y-101280952D01*
X106052380Y-101566666D01*
X106004761Y-101661904D01*
X105957142Y-101709523D01*
X105385714Y-100233333D02*
X106052380Y-100233333D01*
X105004761Y-100471428D02*
X105719047Y-100709523D01*
X105719047Y-100090476D01*
X105957142Y-86942857D02*
X106004761Y-86990476D01*
X106052380Y-87133333D01*
X106052380Y-87228571D01*
X106004761Y-87371428D01*
X105909523Y-87466666D01*
X105814285Y-87514285D01*
X105623809Y-87561904D01*
X105480952Y-87561904D01*
X105290476Y-87514285D01*
X105195238Y-87466666D01*
X105100000Y-87371428D01*
X105052380Y-87228571D01*
X105052380Y-87133333D01*
X105100000Y-86990476D01*
X105147619Y-86942857D01*
X105052380Y-86609523D02*
X105052380Y-85990476D01*
X105433333Y-86323809D01*
X105433333Y-86180952D01*
X105480952Y-86085714D01*
X105528571Y-86038095D01*
X105623809Y-85990476D01*
X105861904Y-85990476D01*
X105957142Y-86038095D01*
X106004761Y-86085714D01*
X106052380Y-86180952D01*
X106052380Y-86466666D01*
X106004761Y-86561904D01*
X105957142Y-86609523D01*
X105147619Y-85609523D02*
X105100000Y-85561904D01*
X105052380Y-85466666D01*
X105052380Y-85228571D01*
X105100000Y-85133333D01*
X105147619Y-85085714D01*
X105242857Y-85038095D01*
X105338095Y-85038095D01*
X105480952Y-85085714D01*
X106052380Y-85657142D01*
X106052380Y-85038095D01*
X121157142Y-87442857D02*
X121204761Y-87490476D01*
X121252380Y-87633333D01*
X121252380Y-87728571D01*
X121204761Y-87871428D01*
X121109523Y-87966666D01*
X121014285Y-88014285D01*
X120823809Y-88061904D01*
X120680952Y-88061904D01*
X120490476Y-88014285D01*
X120395238Y-87966666D01*
X120300000Y-87871428D01*
X120252380Y-87728571D01*
X120252380Y-87633333D01*
X120300000Y-87490476D01*
X120347619Y-87442857D01*
X120252380Y-87109523D02*
X120252380Y-86490476D01*
X120633333Y-86823809D01*
X120633333Y-86680952D01*
X120680952Y-86585714D01*
X120728571Y-86538095D01*
X120823809Y-86490476D01*
X121061904Y-86490476D01*
X121157142Y-86538095D01*
X121204761Y-86585714D01*
X121252380Y-86680952D01*
X121252380Y-86966666D01*
X121204761Y-87061904D01*
X121157142Y-87109523D01*
X120252380Y-85871428D02*
X120252380Y-85776190D01*
X120300000Y-85680952D01*
X120347619Y-85633333D01*
X120442857Y-85585714D01*
X120633333Y-85538095D01*
X120871428Y-85538095D01*
X121061904Y-85585714D01*
X121157142Y-85633333D01*
X121204761Y-85680952D01*
X121252380Y-85776190D01*
X121252380Y-85871428D01*
X121204761Y-85966666D01*
X121157142Y-86014285D01*
X121061904Y-86061904D01*
X120871428Y-86109523D01*
X120633333Y-86109523D01*
X120442857Y-86061904D01*
X120347619Y-86014285D01*
X120300000Y-85966666D01*
X120252380Y-85871428D01*
X106857142Y-66357142D02*
X106809523Y-66404761D01*
X106666666Y-66452380D01*
X106571428Y-66452380D01*
X106428571Y-66404761D01*
X106333333Y-66309523D01*
X106285714Y-66214285D01*
X106238095Y-66023809D01*
X106238095Y-65880952D01*
X106285714Y-65690476D01*
X106333333Y-65595238D01*
X106428571Y-65500000D01*
X106571428Y-65452380D01*
X106666666Y-65452380D01*
X106809523Y-65500000D01*
X106857142Y-65547619D01*
X107238095Y-65547619D02*
X107285714Y-65500000D01*
X107380952Y-65452380D01*
X107619047Y-65452380D01*
X107714285Y-65500000D01*
X107761904Y-65547619D01*
X107809523Y-65642857D01*
X107809523Y-65738095D01*
X107761904Y-65880952D01*
X107190476Y-66452380D01*
X107809523Y-66452380D01*
X108380952Y-65880952D02*
X108285714Y-65833333D01*
X108238095Y-65785714D01*
X108190476Y-65690476D01*
X108190476Y-65642857D01*
X108238095Y-65547619D01*
X108285714Y-65500000D01*
X108380952Y-65452380D01*
X108571428Y-65452380D01*
X108666666Y-65500000D01*
X108714285Y-65547619D01*
X108761904Y-65642857D01*
X108761904Y-65690476D01*
X108714285Y-65785714D01*
X108666666Y-65833333D01*
X108571428Y-65880952D01*
X108380952Y-65880952D01*
X108285714Y-65928571D01*
X108238095Y-65976190D01*
X108190476Y-66071428D01*
X108190476Y-66261904D01*
X108238095Y-66357142D01*
X108285714Y-66404761D01*
X108380952Y-66452380D01*
X108571428Y-66452380D01*
X108666666Y-66404761D01*
X108714285Y-66357142D01*
X108761904Y-66261904D01*
X108761904Y-66071428D01*
X108714285Y-65976190D01*
X108666666Y-65928571D01*
X108571428Y-65880952D01*
X121757142Y-66357142D02*
X121709523Y-66404761D01*
X121566666Y-66452380D01*
X121471428Y-66452380D01*
X121328571Y-66404761D01*
X121233333Y-66309523D01*
X121185714Y-66214285D01*
X121138095Y-66023809D01*
X121138095Y-65880952D01*
X121185714Y-65690476D01*
X121233333Y-65595238D01*
X121328571Y-65500000D01*
X121471428Y-65452380D01*
X121566666Y-65452380D01*
X121709523Y-65500000D01*
X121757142Y-65547619D01*
X122138095Y-65547619D02*
X122185714Y-65500000D01*
X122280952Y-65452380D01*
X122519047Y-65452380D01*
X122614285Y-65500000D01*
X122661904Y-65547619D01*
X122709523Y-65642857D01*
X122709523Y-65738095D01*
X122661904Y-65880952D01*
X122090476Y-66452380D01*
X122709523Y-66452380D01*
X123042857Y-65452380D02*
X123709523Y-65452380D01*
X123280952Y-66452380D01*
X144357142Y-158557142D02*
X144309523Y-158604761D01*
X144166666Y-158652380D01*
X144071428Y-158652380D01*
X143928571Y-158604761D01*
X143833333Y-158509523D01*
X143785714Y-158414285D01*
X143738095Y-158223809D01*
X143738095Y-158080952D01*
X143785714Y-157890476D01*
X143833333Y-157795238D01*
X143928571Y-157700000D01*
X144071428Y-157652380D01*
X144166666Y-157652380D01*
X144309523Y-157700000D01*
X144357142Y-157747619D01*
X144738095Y-157747619D02*
X144785714Y-157700000D01*
X144880952Y-157652380D01*
X145119047Y-157652380D01*
X145214285Y-157700000D01*
X145261904Y-157747619D01*
X145309523Y-157842857D01*
X145309523Y-157938095D01*
X145261904Y-158080952D01*
X144690476Y-158652380D01*
X145309523Y-158652380D01*
X146166666Y-157652380D02*
X145976190Y-157652380D01*
X145880952Y-157700000D01*
X145833333Y-157747619D01*
X145738095Y-157890476D01*
X145690476Y-158080952D01*
X145690476Y-158461904D01*
X145738095Y-158557142D01*
X145785714Y-158604761D01*
X145880952Y-158652380D01*
X146071428Y-158652380D01*
X146166666Y-158604761D01*
X146214285Y-158557142D01*
X146261904Y-158461904D01*
X146261904Y-158223809D01*
X146214285Y-158128571D01*
X146166666Y-158080952D01*
X146071428Y-158033333D01*
X145880952Y-158033333D01*
X145785714Y-158080952D01*
X145738095Y-158128571D01*
X145690476Y-158223809D01*
X131857142Y-158957142D02*
X131809523Y-159004761D01*
X131666666Y-159052380D01*
X131571428Y-159052380D01*
X131428571Y-159004761D01*
X131333333Y-158909523D01*
X131285714Y-158814285D01*
X131238095Y-158623809D01*
X131238095Y-158480952D01*
X131285714Y-158290476D01*
X131333333Y-158195238D01*
X131428571Y-158100000D01*
X131571428Y-158052380D01*
X131666666Y-158052380D01*
X131809523Y-158100000D01*
X131857142Y-158147619D01*
X132238095Y-158147619D02*
X132285714Y-158100000D01*
X132380952Y-158052380D01*
X132619047Y-158052380D01*
X132714285Y-158100000D01*
X132761904Y-158147619D01*
X132809523Y-158242857D01*
X132809523Y-158338095D01*
X132761904Y-158480952D01*
X132190476Y-159052380D01*
X132809523Y-159052380D01*
X133714285Y-158052380D02*
X133238095Y-158052380D01*
X133190476Y-158528571D01*
X133238095Y-158480952D01*
X133333333Y-158433333D01*
X133571428Y-158433333D01*
X133666666Y-158480952D01*
X133714285Y-158528571D01*
X133761904Y-158623809D01*
X133761904Y-158861904D01*
X133714285Y-158957142D01*
X133666666Y-159004761D01*
X133571428Y-159052380D01*
X133333333Y-159052380D01*
X133238095Y-159004761D01*
X133190476Y-158957142D01*
X154957142Y-104942857D02*
X155004761Y-104990476D01*
X155052380Y-105133333D01*
X155052380Y-105228571D01*
X155004761Y-105371428D01*
X154909523Y-105466666D01*
X154814285Y-105514285D01*
X154623809Y-105561904D01*
X154480952Y-105561904D01*
X154290476Y-105514285D01*
X154195238Y-105466666D01*
X154100000Y-105371428D01*
X154052380Y-105228571D01*
X154052380Y-105133333D01*
X154100000Y-104990476D01*
X154147619Y-104942857D01*
X154147619Y-104561904D02*
X154100000Y-104514285D01*
X154052380Y-104419047D01*
X154052380Y-104180952D01*
X154100000Y-104085714D01*
X154147619Y-104038095D01*
X154242857Y-103990476D01*
X154338095Y-103990476D01*
X154480952Y-104038095D01*
X155052380Y-104609523D01*
X155052380Y-103990476D01*
X154385714Y-103133333D02*
X155052380Y-103133333D01*
X154004761Y-103371428D02*
X154719047Y-103609523D01*
X154719047Y-102990476D01*
X121357142Y-83757142D02*
X121309523Y-83804761D01*
X121166666Y-83852380D01*
X121071428Y-83852380D01*
X120928571Y-83804761D01*
X120833333Y-83709523D01*
X120785714Y-83614285D01*
X120738095Y-83423809D01*
X120738095Y-83280952D01*
X120785714Y-83090476D01*
X120833333Y-82995238D01*
X120928571Y-82900000D01*
X121071428Y-82852380D01*
X121166666Y-82852380D01*
X121309523Y-82900000D01*
X121357142Y-82947619D01*
X121738095Y-82947619D02*
X121785714Y-82900000D01*
X121880952Y-82852380D01*
X122119047Y-82852380D01*
X122214285Y-82900000D01*
X122261904Y-82947619D01*
X122309523Y-83042857D01*
X122309523Y-83138095D01*
X122261904Y-83280952D01*
X121690476Y-83852380D01*
X122309523Y-83852380D01*
X122642857Y-82852380D02*
X123261904Y-82852380D01*
X122928571Y-83233333D01*
X123071428Y-83233333D01*
X123166666Y-83280952D01*
X123214285Y-83328571D01*
X123261904Y-83423809D01*
X123261904Y-83661904D01*
X123214285Y-83757142D01*
X123166666Y-83804761D01*
X123071428Y-83852380D01*
X122785714Y-83852380D01*
X122690476Y-83804761D01*
X122642857Y-83757142D01*
X158357142Y-93467857D02*
X158404761Y-93515476D01*
X158452380Y-93658333D01*
X158452380Y-93753571D01*
X158404761Y-93896428D01*
X158309523Y-93991666D01*
X158214285Y-94039285D01*
X158023809Y-94086904D01*
X157880952Y-94086904D01*
X157690476Y-94039285D01*
X157595238Y-93991666D01*
X157500000Y-93896428D01*
X157452380Y-93753571D01*
X157452380Y-93658333D01*
X157500000Y-93515476D01*
X157547619Y-93467857D01*
X157547619Y-93086904D02*
X157500000Y-93039285D01*
X157452380Y-92944047D01*
X157452380Y-92705952D01*
X157500000Y-92610714D01*
X157547619Y-92563095D01*
X157642857Y-92515476D01*
X157738095Y-92515476D01*
X157880952Y-92563095D01*
X158452380Y-93134523D01*
X158452380Y-92515476D01*
X157547619Y-92134523D02*
X157500000Y-92086904D01*
X157452380Y-91991666D01*
X157452380Y-91753571D01*
X157500000Y-91658333D01*
X157547619Y-91610714D01*
X157642857Y-91563095D01*
X157738095Y-91563095D01*
X157880952Y-91610714D01*
X158452380Y-92182142D01*
X158452380Y-91563095D01*
X126557142Y-103642857D02*
X126604761Y-103690476D01*
X126652380Y-103833333D01*
X126652380Y-103928571D01*
X126604761Y-104071428D01*
X126509523Y-104166666D01*
X126414285Y-104214285D01*
X126223809Y-104261904D01*
X126080952Y-104261904D01*
X125890476Y-104214285D01*
X125795238Y-104166666D01*
X125700000Y-104071428D01*
X125652380Y-103928571D01*
X125652380Y-103833333D01*
X125700000Y-103690476D01*
X125747619Y-103642857D01*
X125747619Y-103261904D02*
X125700000Y-103214285D01*
X125652380Y-103119047D01*
X125652380Y-102880952D01*
X125700000Y-102785714D01*
X125747619Y-102738095D01*
X125842857Y-102690476D01*
X125938095Y-102690476D01*
X126080952Y-102738095D01*
X126652380Y-103309523D01*
X126652380Y-102690476D01*
X126652380Y-101738095D02*
X126652380Y-102309523D01*
X126652380Y-102023809D02*
X125652380Y-102023809D01*
X125795238Y-102119047D01*
X125890476Y-102214285D01*
X125938095Y-102309523D01*
X140357142Y-140242857D02*
X140404761Y-140290476D01*
X140452380Y-140433333D01*
X140452380Y-140528571D01*
X140404761Y-140671428D01*
X140309523Y-140766666D01*
X140214285Y-140814285D01*
X140023809Y-140861904D01*
X139880952Y-140861904D01*
X139690476Y-140814285D01*
X139595238Y-140766666D01*
X139500000Y-140671428D01*
X139452380Y-140528571D01*
X139452380Y-140433333D01*
X139500000Y-140290476D01*
X139547619Y-140242857D01*
X139547619Y-139861904D02*
X139500000Y-139814285D01*
X139452380Y-139719047D01*
X139452380Y-139480952D01*
X139500000Y-139385714D01*
X139547619Y-139338095D01*
X139642857Y-139290476D01*
X139738095Y-139290476D01*
X139880952Y-139338095D01*
X140452380Y-139909523D01*
X140452380Y-139290476D01*
X139452380Y-138671428D02*
X139452380Y-138576190D01*
X139500000Y-138480952D01*
X139547619Y-138433333D01*
X139642857Y-138385714D01*
X139833333Y-138338095D01*
X140071428Y-138338095D01*
X140261904Y-138385714D01*
X140357142Y-138433333D01*
X140404761Y-138480952D01*
X140452380Y-138576190D01*
X140452380Y-138671428D01*
X140404761Y-138766666D01*
X140357142Y-138814285D01*
X140261904Y-138861904D01*
X140071428Y-138909523D01*
X139833333Y-138909523D01*
X139642857Y-138861904D01*
X139547619Y-138814285D01*
X139500000Y-138766666D01*
X139452380Y-138671428D01*
X136357142Y-133367857D02*
X136404761Y-133415476D01*
X136452380Y-133558333D01*
X136452380Y-133653571D01*
X136404761Y-133796428D01*
X136309523Y-133891666D01*
X136214285Y-133939285D01*
X136023809Y-133986904D01*
X135880952Y-133986904D01*
X135690476Y-133939285D01*
X135595238Y-133891666D01*
X135500000Y-133796428D01*
X135452380Y-133653571D01*
X135452380Y-133558333D01*
X135500000Y-133415476D01*
X135547619Y-133367857D01*
X136452380Y-132415476D02*
X136452380Y-132986904D01*
X136452380Y-132701190D02*
X135452380Y-132701190D01*
X135595238Y-132796428D01*
X135690476Y-132891666D01*
X135738095Y-132986904D01*
X136452380Y-131939285D02*
X136452380Y-131748809D01*
X136404761Y-131653571D01*
X136357142Y-131605952D01*
X136214285Y-131510714D01*
X136023809Y-131463095D01*
X135642857Y-131463095D01*
X135547619Y-131510714D01*
X135500000Y-131558333D01*
X135452380Y-131653571D01*
X135452380Y-131844047D01*
X135500000Y-131939285D01*
X135547619Y-131986904D01*
X135642857Y-132034523D01*
X135880952Y-132034523D01*
X135976190Y-131986904D01*
X136023809Y-131939285D01*
X136071428Y-131844047D01*
X136071428Y-131653571D01*
X136023809Y-131558333D01*
X135976190Y-131510714D01*
X135880952Y-131463095D01*
X107357142Y-83757142D02*
X107309523Y-83804761D01*
X107166666Y-83852380D01*
X107071428Y-83852380D01*
X106928571Y-83804761D01*
X106833333Y-83709523D01*
X106785714Y-83614285D01*
X106738095Y-83423809D01*
X106738095Y-83280952D01*
X106785714Y-83090476D01*
X106833333Y-82995238D01*
X106928571Y-82900000D01*
X107071428Y-82852380D01*
X107166666Y-82852380D01*
X107309523Y-82900000D01*
X107357142Y-82947619D01*
X108309523Y-83852380D02*
X107738095Y-83852380D01*
X108023809Y-83852380D02*
X108023809Y-82852380D01*
X107928571Y-82995238D01*
X107833333Y-83090476D01*
X107738095Y-83138095D01*
X108880952Y-83280952D02*
X108785714Y-83233333D01*
X108738095Y-83185714D01*
X108690476Y-83090476D01*
X108690476Y-83042857D01*
X108738095Y-82947619D01*
X108785714Y-82900000D01*
X108880952Y-82852380D01*
X109071428Y-82852380D01*
X109166666Y-82900000D01*
X109214285Y-82947619D01*
X109261904Y-83042857D01*
X109261904Y-83090476D01*
X109214285Y-83185714D01*
X109166666Y-83233333D01*
X109071428Y-83280952D01*
X108880952Y-83280952D01*
X108785714Y-83328571D01*
X108738095Y-83376190D01*
X108690476Y-83471428D01*
X108690476Y-83661904D01*
X108738095Y-83757142D01*
X108785714Y-83804761D01*
X108880952Y-83852380D01*
X109071428Y-83852380D01*
X109166666Y-83804761D01*
X109214285Y-83757142D01*
X109261904Y-83661904D01*
X109261904Y-83471428D01*
X109214285Y-83376190D01*
X109166666Y-83328571D01*
X109071428Y-83280952D01*
X148957142Y-85567857D02*
X149004761Y-85615476D01*
X149052380Y-85758333D01*
X149052380Y-85853571D01*
X149004761Y-85996428D01*
X148909523Y-86091666D01*
X148814285Y-86139285D01*
X148623809Y-86186904D01*
X148480952Y-86186904D01*
X148290476Y-86139285D01*
X148195238Y-86091666D01*
X148100000Y-85996428D01*
X148052380Y-85853571D01*
X148052380Y-85758333D01*
X148100000Y-85615476D01*
X148147619Y-85567857D01*
X149052380Y-84615476D02*
X149052380Y-85186904D01*
X149052380Y-84901190D02*
X148052380Y-84901190D01*
X148195238Y-84996428D01*
X148290476Y-85091666D01*
X148338095Y-85186904D01*
X148052380Y-84282142D02*
X148052380Y-83615476D01*
X149052380Y-84044047D01*
X144557142Y-140242857D02*
X144604761Y-140290476D01*
X144652380Y-140433333D01*
X144652380Y-140528571D01*
X144604761Y-140671428D01*
X144509523Y-140766666D01*
X144414285Y-140814285D01*
X144223809Y-140861904D01*
X144080952Y-140861904D01*
X143890476Y-140814285D01*
X143795238Y-140766666D01*
X143700000Y-140671428D01*
X143652380Y-140528571D01*
X143652380Y-140433333D01*
X143700000Y-140290476D01*
X143747619Y-140242857D01*
X144652380Y-139290476D02*
X144652380Y-139861904D01*
X144652380Y-139576190D02*
X143652380Y-139576190D01*
X143795238Y-139671428D01*
X143890476Y-139766666D01*
X143938095Y-139861904D01*
X143652380Y-138433333D02*
X143652380Y-138623809D01*
X143700000Y-138719047D01*
X143747619Y-138766666D01*
X143890476Y-138861904D01*
X144080952Y-138909523D01*
X144461904Y-138909523D01*
X144557142Y-138861904D01*
X144604761Y-138814285D01*
X144652380Y-138719047D01*
X144652380Y-138528571D01*
X144604761Y-138433333D01*
X144557142Y-138385714D01*
X144461904Y-138338095D01*
X144223809Y-138338095D01*
X144128571Y-138385714D01*
X144080952Y-138433333D01*
X144033333Y-138528571D01*
X144033333Y-138719047D01*
X144080952Y-138814285D01*
X144128571Y-138861904D01*
X144223809Y-138909523D01*
X148957142Y-122457142D02*
X148909523Y-122504761D01*
X148766666Y-122552380D01*
X148671428Y-122552380D01*
X148528571Y-122504761D01*
X148433333Y-122409523D01*
X148385714Y-122314285D01*
X148338095Y-122123809D01*
X148338095Y-121980952D01*
X148385714Y-121790476D01*
X148433333Y-121695238D01*
X148528571Y-121600000D01*
X148671428Y-121552380D01*
X148766666Y-121552380D01*
X148909523Y-121600000D01*
X148957142Y-121647619D01*
X149909523Y-122552380D02*
X149338095Y-122552380D01*
X149623809Y-122552380D02*
X149623809Y-121552380D01*
X149528571Y-121695238D01*
X149433333Y-121790476D01*
X149338095Y-121838095D01*
X150814285Y-121552380D02*
X150338095Y-121552380D01*
X150290476Y-122028571D01*
X150338095Y-121980952D01*
X150433333Y-121933333D01*
X150671428Y-121933333D01*
X150766666Y-121980952D01*
X150814285Y-122028571D01*
X150861904Y-122123809D01*
X150861904Y-122361904D01*
X150814285Y-122457142D01*
X150766666Y-122504761D01*
X150671428Y-122552380D01*
X150433333Y-122552380D01*
X150338095Y-122504761D01*
X150290476Y-122457142D01*
X147857142Y-133167857D02*
X147904761Y-133215476D01*
X147952380Y-133358333D01*
X147952380Y-133453571D01*
X147904761Y-133596428D01*
X147809523Y-133691666D01*
X147714285Y-133739285D01*
X147523809Y-133786904D01*
X147380952Y-133786904D01*
X147190476Y-133739285D01*
X147095238Y-133691666D01*
X147000000Y-133596428D01*
X146952380Y-133453571D01*
X146952380Y-133358333D01*
X147000000Y-133215476D01*
X147047619Y-133167857D01*
X147952380Y-132215476D02*
X147952380Y-132786904D01*
X147952380Y-132501190D02*
X146952380Y-132501190D01*
X147095238Y-132596428D01*
X147190476Y-132691666D01*
X147238095Y-132786904D01*
X147285714Y-131358333D02*
X147952380Y-131358333D01*
X146904761Y-131596428D02*
X147619047Y-131834523D01*
X147619047Y-131215476D01*
X158357142Y-89517857D02*
X158404761Y-89565476D01*
X158452380Y-89708333D01*
X158452380Y-89803571D01*
X158404761Y-89946428D01*
X158309523Y-90041666D01*
X158214285Y-90089285D01*
X158023809Y-90136904D01*
X157880952Y-90136904D01*
X157690476Y-90089285D01*
X157595238Y-90041666D01*
X157500000Y-89946428D01*
X157452380Y-89803571D01*
X157452380Y-89708333D01*
X157500000Y-89565476D01*
X157547619Y-89517857D01*
X158452380Y-88565476D02*
X158452380Y-89136904D01*
X158452380Y-88851190D02*
X157452380Y-88851190D01*
X157595238Y-88946428D01*
X157690476Y-89041666D01*
X157738095Y-89136904D01*
X157452380Y-88232142D02*
X157452380Y-87613095D01*
X157833333Y-87946428D01*
X157833333Y-87803571D01*
X157880952Y-87708333D01*
X157928571Y-87660714D01*
X158023809Y-87613095D01*
X158261904Y-87613095D01*
X158357142Y-87660714D01*
X158404761Y-87708333D01*
X158452380Y-87803571D01*
X158452380Y-88089285D01*
X158404761Y-88184523D01*
X158357142Y-88232142D01*
X130557142Y-133442857D02*
X130604761Y-133490476D01*
X130652380Y-133633333D01*
X130652380Y-133728571D01*
X130604761Y-133871428D01*
X130509523Y-133966666D01*
X130414285Y-134014285D01*
X130223809Y-134061904D01*
X130080952Y-134061904D01*
X129890476Y-134014285D01*
X129795238Y-133966666D01*
X129700000Y-133871428D01*
X129652380Y-133728571D01*
X129652380Y-133633333D01*
X129700000Y-133490476D01*
X129747619Y-133442857D01*
X130652380Y-132490476D02*
X130652380Y-133061904D01*
X130652380Y-132776190D02*
X129652380Y-132776190D01*
X129795238Y-132871428D01*
X129890476Y-132966666D01*
X129938095Y-133061904D01*
X129747619Y-132109523D02*
X129700000Y-132061904D01*
X129652380Y-131966666D01*
X129652380Y-131728571D01*
X129700000Y-131633333D01*
X129747619Y-131585714D01*
X129842857Y-131538095D01*
X129938095Y-131538095D01*
X130080952Y-131585714D01*
X130652380Y-132157142D01*
X130652380Y-131538095D01*
X123957142Y-133542857D02*
X124004761Y-133590476D01*
X124052380Y-133733333D01*
X124052380Y-133828571D01*
X124004761Y-133971428D01*
X123909523Y-134066666D01*
X123814285Y-134114285D01*
X123623809Y-134161904D01*
X123480952Y-134161904D01*
X123290476Y-134114285D01*
X123195238Y-134066666D01*
X123100000Y-133971428D01*
X123052380Y-133828571D01*
X123052380Y-133733333D01*
X123100000Y-133590476D01*
X123147619Y-133542857D01*
X124052380Y-132590476D02*
X124052380Y-133161904D01*
X124052380Y-132876190D02*
X123052380Y-132876190D01*
X123195238Y-132971428D01*
X123290476Y-133066666D01*
X123338095Y-133161904D01*
X124052380Y-131638095D02*
X124052380Y-132209523D01*
X124052380Y-131923809D02*
X123052380Y-131923809D01*
X123195238Y-132019047D01*
X123290476Y-132114285D01*
X123338095Y-132209523D01*
X120457142Y-123957142D02*
X120409523Y-124004761D01*
X120266666Y-124052380D01*
X120171428Y-124052380D01*
X120028571Y-124004761D01*
X119933333Y-123909523D01*
X119885714Y-123814285D01*
X119838095Y-123623809D01*
X119838095Y-123480952D01*
X119885714Y-123290476D01*
X119933333Y-123195238D01*
X120028571Y-123100000D01*
X120171428Y-123052380D01*
X120266666Y-123052380D01*
X120409523Y-123100000D01*
X120457142Y-123147619D01*
X121409523Y-124052380D02*
X120838095Y-124052380D01*
X121123809Y-124052380D02*
X121123809Y-123052380D01*
X121028571Y-123195238D01*
X120933333Y-123290476D01*
X120838095Y-123338095D01*
X122028571Y-123052380D02*
X122123809Y-123052380D01*
X122219047Y-123100000D01*
X122266666Y-123147619D01*
X122314285Y-123242857D01*
X122361904Y-123433333D01*
X122361904Y-123671428D01*
X122314285Y-123861904D01*
X122266666Y-123957142D01*
X122219047Y-124004761D01*
X122123809Y-124052380D01*
X122028571Y-124052380D01*
X121933333Y-124004761D01*
X121885714Y-123957142D01*
X121838095Y-123861904D01*
X121790476Y-123671428D01*
X121790476Y-123433333D01*
X121838095Y-123242857D01*
X121885714Y-123147619D01*
X121933333Y-123100000D01*
X122028571Y-123052380D01*
X119133333Y-115157142D02*
X119085714Y-115204761D01*
X118942857Y-115252380D01*
X118847619Y-115252380D01*
X118704761Y-115204761D01*
X118609523Y-115109523D01*
X118561904Y-115014285D01*
X118514285Y-114823809D01*
X118514285Y-114680952D01*
X118561904Y-114490476D01*
X118609523Y-114395238D01*
X118704761Y-114300000D01*
X118847619Y-114252380D01*
X118942857Y-114252380D01*
X119085714Y-114300000D01*
X119133333Y-114347619D01*
X119609523Y-115252380D02*
X119800000Y-115252380D01*
X119895238Y-115204761D01*
X119942857Y-115157142D01*
X120038095Y-115014285D01*
X120085714Y-114823809D01*
X120085714Y-114442857D01*
X120038095Y-114347619D01*
X119990476Y-114300000D01*
X119895238Y-114252380D01*
X119704761Y-114252380D01*
X119609523Y-114300000D01*
X119561904Y-114347619D01*
X119514285Y-114442857D01*
X119514285Y-114680952D01*
X119561904Y-114776190D01*
X119609523Y-114823809D01*
X119704761Y-114871428D01*
X119895238Y-114871428D01*
X119990476Y-114823809D01*
X120038095Y-114776190D01*
X120085714Y-114680952D01*
X120657142Y-110566666D02*
X120704761Y-110614285D01*
X120752380Y-110757142D01*
X120752380Y-110852380D01*
X120704761Y-110995238D01*
X120609523Y-111090476D01*
X120514285Y-111138095D01*
X120323809Y-111185714D01*
X120180952Y-111185714D01*
X119990476Y-111138095D01*
X119895238Y-111090476D01*
X119800000Y-110995238D01*
X119752380Y-110852380D01*
X119752380Y-110757142D01*
X119800000Y-110614285D01*
X119847619Y-110566666D01*
X120180952Y-109995238D02*
X120133333Y-110090476D01*
X120085714Y-110138095D01*
X119990476Y-110185714D01*
X119942857Y-110185714D01*
X119847619Y-110138095D01*
X119800000Y-110090476D01*
X119752380Y-109995238D01*
X119752380Y-109804761D01*
X119800000Y-109709523D01*
X119847619Y-109661904D01*
X119942857Y-109614285D01*
X119990476Y-109614285D01*
X120085714Y-109661904D01*
X120133333Y-109709523D01*
X120180952Y-109804761D01*
X120180952Y-109995238D01*
X120228571Y-110090476D01*
X120276190Y-110138095D01*
X120371428Y-110185714D01*
X120561904Y-110185714D01*
X120657142Y-110138095D01*
X120704761Y-110090476D01*
X120752380Y-109995238D01*
X120752380Y-109804761D01*
X120704761Y-109709523D01*
X120657142Y-109661904D01*
X120561904Y-109614285D01*
X120371428Y-109614285D01*
X120276190Y-109661904D01*
X120228571Y-109709523D01*
X120180952Y-109804761D01*
X137033333Y-103457142D02*
X136985714Y-103504761D01*
X136842857Y-103552380D01*
X136747619Y-103552380D01*
X136604761Y-103504761D01*
X136509523Y-103409523D01*
X136461904Y-103314285D01*
X136414285Y-103123809D01*
X136414285Y-102980952D01*
X136461904Y-102790476D01*
X136509523Y-102695238D01*
X136604761Y-102600000D01*
X136747619Y-102552380D01*
X136842857Y-102552380D01*
X136985714Y-102600000D01*
X137033333Y-102647619D01*
X137938095Y-102552380D02*
X137461904Y-102552380D01*
X137414285Y-103028571D01*
X137461904Y-102980952D01*
X137557142Y-102933333D01*
X137795238Y-102933333D01*
X137890476Y-102980952D01*
X137938095Y-103028571D01*
X137985714Y-103123809D01*
X137985714Y-103361904D01*
X137938095Y-103457142D01*
X137890476Y-103504761D01*
X137795238Y-103552380D01*
X137557142Y-103552380D01*
X137461904Y-103504761D01*
X137414285Y-103457142D01*
X128357142Y-98966666D02*
X128404761Y-99014285D01*
X128452380Y-99157142D01*
X128452380Y-99252380D01*
X128404761Y-99395238D01*
X128309523Y-99490476D01*
X128214285Y-99538095D01*
X128023809Y-99585714D01*
X127880952Y-99585714D01*
X127690476Y-99538095D01*
X127595238Y-99490476D01*
X127500000Y-99395238D01*
X127452380Y-99252380D01*
X127452380Y-99157142D01*
X127500000Y-99014285D01*
X127547619Y-98966666D01*
X127452380Y-98633333D02*
X127452380Y-98014285D01*
X127833333Y-98347619D01*
X127833333Y-98204761D01*
X127880952Y-98109523D01*
X127928571Y-98061904D01*
X128023809Y-98014285D01*
X128261904Y-98014285D01*
X128357142Y-98061904D01*
X128404761Y-98109523D01*
X128452380Y-98204761D01*
X128452380Y-98490476D01*
X128404761Y-98585714D01*
X128357142Y-98633333D01*
X142257142Y-100266666D02*
X142304761Y-100314285D01*
X142352380Y-100457142D01*
X142352380Y-100552380D01*
X142304761Y-100695238D01*
X142209523Y-100790476D01*
X142114285Y-100838095D01*
X141923809Y-100885714D01*
X141780952Y-100885714D01*
X141590476Y-100838095D01*
X141495238Y-100790476D01*
X141400000Y-100695238D01*
X141352380Y-100552380D01*
X141352380Y-100457142D01*
X141400000Y-100314285D01*
X141447619Y-100266666D01*
X141447619Y-99885714D02*
X141400000Y-99838095D01*
X141352380Y-99742857D01*
X141352380Y-99504761D01*
X141400000Y-99409523D01*
X141447619Y-99361904D01*
X141542857Y-99314285D01*
X141638095Y-99314285D01*
X141780952Y-99361904D01*
X142352380Y-99933333D01*
X142352380Y-99314285D01*
X131857142Y-104766666D02*
X131904761Y-104814285D01*
X131952380Y-104957142D01*
X131952380Y-105052380D01*
X131904761Y-105195238D01*
X131809523Y-105290476D01*
X131714285Y-105338095D01*
X131523809Y-105385714D01*
X131380952Y-105385714D01*
X131190476Y-105338095D01*
X131095238Y-105290476D01*
X131000000Y-105195238D01*
X130952380Y-105052380D01*
X130952380Y-104957142D01*
X131000000Y-104814285D01*
X131047619Y-104766666D01*
X131952380Y-103814285D02*
X131952380Y-104385714D01*
X131952380Y-104100000D02*
X130952380Y-104100000D01*
X131095238Y-104195238D01*
X131190476Y-104290476D01*
X131238095Y-104385714D01*
M02*
