M48
; DRILL file {KiCad (5.1.9)-1} date 03/14/21 14:56:41
; FORMAT={-:-/ absolute / inch / decimal}
; #@! TF.CreationDate,2021-03-14T14:56:41+00:00
; #@! TF.GenerationSoftware,Kicad,Pcbnew,(5.1.9)-1
; #@! TF.FileFunction,Plated,1,4,PTH
FMAT,2
INCH
T1C0.0157
T2C0.0197
T3C0.0217
T4C0.0236
T5C0.0394
T6C0.0512
%
G90
G05
T1
X3.9803Y-2.2244
X4.0Y-3.8386
X4.0Y-4.189
X4.0059Y-4.8257
X4.0394Y-4.1299
X4.0709Y-4.7913
X4.0945Y-4.6457
X4.1457Y-5.0157
X4.1496Y-5.1693
X4.1575Y-5.5866
X4.1772Y-4.5433
X4.189Y-4.689
X4.2205Y-5.0709
X4.2283Y-3.3031
X4.2283Y-3.437
X4.248Y-2.9488
X4.2559Y-2.7126
X4.2638Y-4.0315
X4.2638Y-4.1811
X4.2638Y-4.937
X4.2717Y-3.5787
X4.2756Y-3.7835
X4.311Y-5.0157
X4.315Y-2.8071
X4.3228Y-3.622
X4.3268Y-5.3937
X4.3386Y-4.0827
X4.3386Y-4.7638
X4.3386Y-4.8031
X4.3504Y-4.6417
X4.3762Y-4.3465
X4.3866Y-3.2449
X4.4055Y-3.9134
X4.4252Y-3.7913
X4.437Y-2.5394
X4.437Y-4.189
X4.4528Y-4.6417
X4.4535Y-4.1041
X4.4567Y-2.685
X4.4612Y-3.0669
X4.4724Y-3.2402
X4.4921Y-2.8543
X4.501Y-3.6575
X4.501Y-3.9134
X4.5112Y-3.1325
X4.5236Y-4.7953
X4.5236Y-4.9252
X4.5354Y-4.2874
X4.5394Y-4.126
X4.563Y-2.5709
X4.5748Y-3.0945
X4.5748Y-4.7165
X4.5945Y-3.8386
X4.622Y-4.126
X4.6378Y-4.3819
X4.6378Y-4.6496
X4.6654Y-3.4685
X4.6693Y-2.6614
X4.6791Y-3.9744
X4.6811Y-4.8031
X4.6969Y-4.5787
X4.7126Y-3.0157
X4.7362Y-3.2362
X4.7362Y-4.2677
X4.7402Y-4.7559
X4.7559Y-5.3661
X4.7835Y-4.9528
X4.7835Y-5.7087
X4.7874Y-3.3543
X4.7874Y-5.6654
X4.7896Y-4.7325
X4.7913Y-3.6024
X4.7972Y-5.2343
X4.8071Y-4.7677
X4.8071Y-5.4488
X4.811Y-5.1299
X4.811Y-5.5276
X4.815Y-2.9803
X4.815Y-3.1772
X4.815Y-4.2677
X4.8176Y-5.0578
X4.8189Y-4.5354
X4.8189Y-5.626
X4.8282Y-3.865
X4.8504Y-6.0039
X4.8622Y-6.1772
X4.8819Y-6.0906
X4.8976Y-2.689
X4.9055Y-5.5551
X4.9134Y-6.0354
X4.9173Y-3.2283
X4.9222Y-5.4173
X4.9252Y-2.8543
X4.937Y-3.2992
X4.9537Y-5.4606
X4.9567Y-3.4646
X4.9567Y-3.5984
X4.9567Y-4.5039
X4.9606Y-4.6142
X4.9646Y-6.0039
X4.9724Y-6.189
X4.9764Y-2.9882
X4.9803Y-4.3346
X4.9852Y-5.4026
X5.001Y-4.1692
X5.001Y-4.1142
X5.0039Y-6.0236
X5.0079Y-2.689
X5.0157Y-4.5197
X5.0197Y-5.7008
X5.0207Y-4.873
X5.0315Y-3.689
X5.0315Y-3.8228
X5.0315Y-3.9724
X5.0394Y-4.4134
X5.0551Y-4.8465
X5.063Y-2.9843
X5.0709Y-4.2835
X5.0787Y-2.5984
X5.0906Y-6.2402
X5.0955Y-4.8474
X5.1102Y-4.2835
X5.1102Y-4.3622
X5.1142Y-2.9843
X5.122Y-3.685
X5.122Y-4.1299
X5.126Y-5.7047
X5.1299Y-4.9449
X5.1535Y-4.1654
X5.1614Y-3.4252
X5.1614Y-5.9882
X5.1654Y-3.2441
X5.1654Y-4.0591
X5.1674Y-5.4902
X5.1772Y-3.748
X5.189Y-6.1575
X5.19Y-5.5915
X5.1969Y-4.9843
X5.1969Y-5.3071
X5.1998Y-5.4596
X5.2087Y-4.2835
X5.2087Y-4.3858
X5.2126Y-3.1535
X5.2165Y-2.9921
X5.2165Y-4.5551
X5.2205Y-5.9843
X5.2283Y-5.186
X5.2283Y-6.248
X5.2413Y-2.9073
X5.2441Y-5.4331
X5.248Y-3.8189
X5.252Y-6.0157
X5.2579Y-4.8415
X5.2664Y-4.3838
X5.2677Y-5.7126
X5.2712Y-4.5133
X5.2864Y-5.248
X5.2913Y-4.878
X5.2913Y-5.0079
X5.2913Y-6.0354
X5.315Y-4.1535
X5.315Y-4.563
X5.316Y-4.5089
X5.3169Y-5.4193
X5.3228Y-2.2913
X5.3228Y-4.2835
X5.3228Y-5.3543
X5.3346Y-4.0591
X5.3435Y-5.564
X5.3465Y-5.7008
X5.3504Y-6.2165
X5.3543Y-5.3189
X5.3563Y-4.9114
X5.3661Y-4.0197
X5.3701Y-4.5
X5.3858Y-5.3622
X5.3911Y-4.3011
X5.3917Y-5.0
X5.3976Y-3.5945
X5.3976Y-3.6929
X5.4331Y-2.7559
X5.4331Y-2.9134
X5.4331Y-3.0984
X5.4488Y-3.8504
X5.4488Y-6.252
X5.4528Y-5.189
X5.4528Y-5.3071
X5.4606Y-5.4331
X5.4646Y-6.0354
X5.4685Y-4.1142
X5.4724Y-6.1496
X5.4803Y-3.5079
X5.5079Y-4.4252
X5.5089Y-4.4734
X5.5089Y-4.5344
X5.5276Y-4.0236
X5.5285Y-5.5207
X5.5315Y-4.6496
X5.5433Y-6.2205
X5.5474Y-5.7047
X5.5495Y-4.9695
X5.563Y-4.1654
X5.564Y-4.4085
X5.5669Y-4.2913
X5.5669Y-5.5551
X5.5669Y-5.9134
X5.5709Y-3.9724
X5.5748Y-5.3858
X5.5797Y-4.9409
X5.5827Y-2.0354
X5.5827Y-5.7677
X5.5866Y-4.1102
X5.5866Y-4.9961
X5.5906Y-2.7559
X5.5906Y-3.689
X5.5906Y-3.8583
X5.5945Y-3.1457
X5.5945Y-4.7008
X5.5946Y-4.3376
X5.6112Y-5.7165
X5.6122Y-4.9055
X5.6457Y-6.248
X5.6496Y-5.8425
X5.6614Y-4.1575
X5.6614Y-6.0433
X5.6693Y-2.4291
X5.6732Y-3.8937
X5.6755Y-4.4192
X5.6772Y-4.4843
X5.685Y-4.5748
X5.685Y-4.7717
X5.6929Y-3.2441
X5.7008Y-5.437
X5.7047Y-5.5276
X5.7087Y-4.1614
X5.7087Y-4.248
X5.7126Y-5.3031
X5.7165Y-4.0
X5.7244Y-5.063
X5.7244Y-5.9094
X5.7283Y-6.1732
X5.7441Y-5.1496
X5.748Y-2.7559
X5.748Y-3.0315
X5.748Y-3.126
X5.748Y-6.0157
X5.7598Y-3.689
X5.7835Y-6.0945
X5.8031Y-3.4961
X5.8031Y-4.7087
X5.8041Y-4.4951
X5.8071Y-3.6142
X5.8071Y-4.1496
X5.8071Y-4.9646
X5.8228Y-3.8543
X5.8228Y-3.9449
X5.8228Y-4.3681
X5.8268Y-2.874
X5.8268Y-2.9528
X5.8376Y-4.9373
X5.8504Y-4.5236
X5.8504Y-4.7205
X5.8622Y-3.7539
X5.8622Y-4.3543
X5.8661Y-4.9094
X5.8701Y-4.437
X5.8701Y-4.6781
X5.8701Y-6.122
X5.874Y-4.2756
X5.878Y-5.6339
X5.878Y-5.7205
X5.878Y-5.8228
X5.878Y-5.9331
X5.8858Y-4.1457
X5.9016Y-6.0433
X5.9055Y-4.3976
X5.9134Y-4.7126
X5.9173Y-4.6102
X5.9213Y-4.2677
X5.9213Y-5.3386
X5.9291Y-4.6496
X5.937Y-5.0748
X5.9409Y-3.8307
X5.9409Y-5.2047
X5.9449Y-2.874
X5.9449Y-3.0315
X5.9488Y-4.0827
X5.9528Y-4.9449
X5.9685Y-3.8957
X5.9724Y-6.122
X5.9882Y-3.9862
X5.9921Y-4.1142
X6.0098Y-3.8955
X6.0276Y-3.7559
X6.0315Y-4.2756
X6.0433Y-5.4646
X6.0512Y-3.0315
X6.0512Y-3.2953
X6.0551Y-3.8957
X6.0591Y-4.1024
X6.0866Y-5.0551
X6.1142Y-4.2756
X6.1161Y-2.15
X6.1181Y-3.7874
X6.122Y-3.9252
X6.122Y-4.1063
X6.1575Y-3.8386
X6.1969Y-3.7874
X6.2047Y-4.0276
X6.2047Y-4.1063
X6.2047Y-4.2756
X6.2087Y-2.1299
X6.2087Y-2.2402
X6.2106Y-3.5354
X6.2126Y-3.2953
T4
X4.2244Y-2.3346
X4.2756Y-5.189
X4.2874Y-2.437
X4.3504Y-2.3386
X4.5236Y-5.0315
X4.5236Y-5.2874
X4.5236Y-5.4646
X4.5236Y-5.6378
X4.5236Y-5.8307
X4.5945Y-5.9449
X4.7008Y-6.0079
X4.7992Y-6.0669
X5.2126Y-2.2598
X5.2126Y-2.3661
X5.2795Y-2.6496
X5.3504Y-2.6496
X5.378Y-2.0551
X5.5472Y-2.4528
X5.752Y-2.4961
X5.8091Y-3.2894
X5.8445Y-3.4291
X5.8622Y-2.3228
X5.8858Y-2.4961
X5.9488Y-3.1693
X6.0669Y-2.4843
X6.1083Y-3.4429
X6.1378Y-2.4173
T5
X4.0354Y-2.5
X4.0354Y-2.6
X4.0354Y-2.7
X4.0354Y-2.8
X4.0354Y-2.9
X4.0354Y-3.0
X4.0354Y-3.1
X4.0354Y-3.2
X4.0354Y-5.1181
X4.0354Y-5.2181
X4.0354Y-5.3181
X4.0354Y-5.4181
X4.0354Y-5.5181
X4.0354Y-5.6181
X4.0354Y-5.7181
X4.0354Y-5.8181
X4.622Y-2.152
X4.622Y-2.252
X4.722Y-2.152
X4.722Y-2.252
X4.822Y-2.152
X4.822Y-2.252
X4.922Y-2.152
X4.922Y-2.252
X5.022Y-2.152
X5.022Y-2.252
X5.7323Y-2.6516
X5.874Y-2.6772
X5.8937Y-2.5945
X5.9764Y-2.7323
X6.0772Y-2.6
X6.0787Y-2.6811
X6.085Y-4.374
X6.185Y-4.374
X6.2008Y-2.5
X6.2008Y-2.6
X6.2008Y-2.7
X6.2008Y-2.8
X6.2008Y-2.9
X6.2008Y-3.0
X6.2008Y-3.1
X6.2008Y-3.2
X6.2008Y-4.5307
X6.2008Y-4.6307
X6.2008Y-4.7307
X6.2008Y-4.8307
X6.2008Y-5.1181
X6.2008Y-5.2181
X6.2008Y-5.3181
X6.2008Y-5.4181
X6.2008Y-5.5181
X6.2008Y-5.6181
X6.2008Y-5.7181
X6.2008Y-5.8181
T6
X4.1063Y-3.4173
X4.189Y-6.1102
X4.374Y-6.1102
X4.5571Y-2.4783
X4.5669Y-6.1102
X4.815Y-2.4803
T2
G00X6.2077Y-5.9252
M15
G01X6.1821Y-5.9252
M16
G05
G00X6.2077Y-6.2008
M15
G01X6.1821Y-6.2008
M16
G05
T3
G00X6.0886Y-5.9705
M15
G01X6.0886Y-5.9587
M16
G05
G00X6.0886Y-6.1673
M15
G01X6.0886Y-6.1555
M16
G05
T0
M30
