M48
; DRILL file {KiCad (5.1.5)-3} date 23/11/2020 20:36:53
; FORMAT={-:-/ absolute / inch / decimal}
; #@! TF.CreationDate,2020-11-23T20:36:53+00:00
; #@! TF.GenerationSoftware,Kicad,Pcbnew,(5.1.5)-3
; #@! TF.FileFunction,Plated,1,4,PTH
FMAT,2
INCH
T1C0.0157
T2C0.0197
T3C0.0217
T4C0.0236
T5C0.0394
T6C0.0512
%
G90
G05
T1
X3.9961Y-4.5709
X4.0Y-4.6181
X4.0197Y-2.2323
X4.0394Y-3.3425
X4.0472Y-3.6929
X4.1575Y-3.2677
X4.248Y-4.4921
X4.248Y-4.5945
X4.2913Y-4.1929
X4.3209Y-3.5197
X4.3346Y-4.8622
X4.3386Y-2.7244
X4.3386Y-2.9409
X4.3425Y-4.0157
X4.3465Y-4.5472
X4.3504Y-4.2008
X4.3661Y-2.8701
X4.3858Y-3.2441
X4.4124Y-3.4016
X4.437Y-5.5118
X4.4449Y-3.3622
X4.4488Y-4.7598
X4.4843Y-3.2953
X4.4868Y-2.8805
X4.5118Y-3.0472
X4.5157Y-3.6457
X4.5368Y-2.9396
X4.6181Y-3.7559
X4.622Y-3.6378
X4.626Y-3.6811
X4.6417Y-3.7205
X4.6654Y-3.3307
X4.6693Y-3.9724
X4.6811Y-4.626
X4.6811Y-4.8031
X4.7126Y-3.4016
X4.7362Y-2.9921
X4.7402Y-4.7559
X4.7441Y-4.2441
X4.7441Y-4.2835
X4.748Y-3.3268
X4.7638Y-4.5315
X4.7815Y-5.7057
X4.7835Y-3.1024
X4.7874Y-5.6614
X4.7896Y-4.7325
X4.7953Y-5.4921
X4.7992Y-6.1378
X4.8012Y-5.1033
X4.8031Y-5.0512
X4.8031Y-5.1496
X4.805Y-5.563
X4.8071Y-4.7677
X4.8228Y-4.5315
X4.8622Y-6.0591
X4.8907Y-5.6152
X4.8917Y-6.2037
X4.9213Y-2.8819
X4.9213Y-2.9331
X4.9222Y-5.5797
X4.9311Y-3.6102
X4.9518Y-6.2037
X4.9537Y-5.6073
X4.9705Y-3.7657
X4.9803Y-4.3543
X4.9852Y-5.5719
X4.9921Y-4.126
X5.0167Y-5.6073
X5.0207Y-4.873
X5.0472Y-3.9449
X5.0472Y-4.4882
X5.0551Y-4.8465
X5.0709Y-4.2835
X5.0955Y-4.8474
X5.1102Y-4.2835
X5.122Y-4.1299
X5.1299Y-4.9449
X5.1417Y-4.0276
X5.1427Y-5.5955
X5.1427Y-6.2037
X5.1535Y-4.1654
X5.1672Y-5.49
X5.1693Y-4.0748
X5.1742Y-6.0325
X5.1978Y-4.4656
X5.1998Y-4.4144
X5.1998Y-5.4596
X5.2057Y-6.062
X5.2136Y-4.5089
X5.2283Y-5.186
X5.2283Y-5.2598
X5.2579Y-4.8415
X5.2587Y-4.5041
X5.2589Y-5.4006
X5.2638Y-6.189
X5.2657Y-5.5512
X5.2864Y-5.248
X5.2874Y-5.3356
X5.2913Y-6.2283
X5.3002Y-5.6112
X5.3031Y-3.3386
X5.3032Y-4.5
X5.3041Y-4.5443
X5.3071Y-3.1063
X5.315Y-4.1535
X5.3199Y-5.3809
X5.3307Y-5.4488
X5.3346Y-4.0591
X5.3543Y-3.2874
X5.3632Y-4.9114
X5.3632Y-5.5512
X5.374Y-4.8071
X5.3917Y-5.0
X5.3937Y-5.5128
X5.4055Y-3.1063
X5.4055Y-3.3386
X5.4055Y-4.5079
X5.4409Y-6.185
X5.4528Y-5.189
X5.4567Y-5.2638
X5.4567Y-5.374
X5.4685Y-4.1142
X5.4803Y-4.8071
X5.4813Y-5.5561
X5.4843Y-6.2283
X5.4882Y-4.0236
X5.4921Y-5.4144
X5.5089Y-4.4734
X5.5089Y-4.5344
X5.5207Y-5.3846
X5.5236Y-5.7205
X5.5495Y-4.9695
X5.563Y-4.1654
X5.564Y-4.4085
X5.5768Y-4.8691
X5.5797Y-4.9409
X5.5807Y-5.5433
X5.5846Y-5.6142
X5.5925Y-4.3376
X5.5984Y-5.9213
X5.6024Y-5.4134
X5.6122Y-4.9055
X5.6142Y-6.185
X5.6417Y-4.7717
X5.6467Y-5.6073
X5.6755Y-4.4192
X5.6772Y-4.4843
X5.7087Y-5.5669
X5.7146Y-2.1181
X5.7165Y-4.2126
X5.7244Y-6.1378
X5.7323Y-4.1693
X5.7441Y-5.2559
X5.7559Y-5.1772
X5.7795Y-5.6535
X5.7913Y-4.4173
X5.8071Y-4.7992
X5.8071Y-4.9646
X5.811Y-3.8583
X5.8228Y-4.378
X5.8346Y-4.2598
X5.8383Y-4.9373
X5.8504Y-3.8976
X5.8504Y-4.5236
X5.8504Y-4.7205
X5.8543Y-3.6535
X5.8661Y-4.9094
X5.878Y-2.9213
X5.9173Y-4.6102
X5.9173Y-4.6929
X5.9252Y-5.1575
X5.9252Y-5.2559
X5.9331Y-4.3346
X5.9449Y-4.2008
X5.9606Y-3.7953
X5.9646Y-3.4016
X5.9803Y-3.8858
X5.9803Y-4.0354
X5.9961Y-5.5236
X6.0019Y-3.7951
X6.0236Y-3.6575
X6.0472Y-3.7953
X6.0669Y-4.3268
X6.1142Y-3.8937
X6.1181Y-3.4409
X6.122Y-3.5787
X6.122Y-4.0433
X6.1969Y-3.9213
X6.1969Y-4.0
X6.2087Y-6.1142
T4
X4.0197Y-2.0236
X4.0669Y-4.1299
X4.2756Y-5.189
X4.3189Y-2.5512
X4.4685Y-5.8307
X4.4803Y-5.2598
X4.7244Y-2.5551
X4.9567Y-3.4803
X5.063Y-2.9961
X5.1024Y-3.5354
X5.3543Y-3.0512
X5.3583Y-2.6575
X5.4094Y-2.9016
X5.6102Y-3.5354
X5.6142Y-3.2283
X5.6496Y-2.9213
X5.7579Y-2.7638
X5.7638Y-3.3071
X5.8031Y-2.811
X5.8031Y-3.5079
X5.9331Y-3.1614
X5.9685Y-2.7402
X5.9685Y-2.8307
X6.126Y-2.7362
X6.126Y-2.815
T5
X4.9921Y-2.5
X5.0197Y-2.8622
X5.1299Y-2.5
X5.1969Y-2.5
X5.811Y-2.0157
X5.811Y-2.0945
X5.811Y-2.1732
X5.811Y-2.252
X6.1575Y-2.0118
X6.1575Y-2.1299
X6.1575Y-2.2402
X4.0354Y-2.5
X4.0354Y-2.6
X4.0354Y-2.7
X4.0354Y-2.8
X4.0354Y-2.9
X4.0354Y-3.0
X4.0354Y-3.1
X4.0354Y-3.2
X4.8425Y-2.1648
X4.8425Y-2.2648
X4.9425Y-2.1648
X4.9425Y-2.2648
X5.0425Y-2.1648
X5.0425Y-2.2648
X5.1425Y-2.1648
X5.1425Y-2.2648
X5.2425Y-2.1648
X5.2425Y-2.2648
X4.0354Y-5.1181
X4.0354Y-5.2181
X4.0354Y-5.3181
X4.0354Y-5.4181
X4.0354Y-5.5181
X4.0354Y-5.6181
X4.0354Y-5.7181
X4.0354Y-5.8181
X6.1024Y-4.4835
X6.1024Y-4.5835
X6.1024Y-4.6835
X6.1024Y-4.7835
X6.2008Y-2.5
X6.2008Y-2.6
X6.2008Y-2.7
X6.2008Y-2.8
X6.2008Y-2.9
X6.2008Y-3.0
X6.2008Y-3.1
X6.2008Y-3.2
X6.2008Y-5.1181
X6.2008Y-5.2181
X6.2008Y-5.3181
X6.2008Y-5.4181
X6.2008Y-5.5181
X6.2008Y-5.6181
X6.2008Y-5.7181
X6.2008Y-5.8181
T6
X4.189Y-6.1102
X4.5669Y-6.1102
X4.2677Y-2.4016
X4.0709Y-3.9843
X4.374Y-6.1102
X4.9606Y-3.2835
T2
G00X6.2077Y-5.9252
M15
G01X6.1821Y-5.9252
M16
G05
G00X6.2077Y-6.2008
M15
G01X6.1821Y-6.2008
M16
G05
T3
G00X6.0886Y-5.9705
M15
G01X6.0886Y-5.9587
M16
G05
G00X6.0886Y-6.1673
M15
G01X6.0886Y-6.1555
M16
G05
T0
M30
