G04 #@! TF.GenerationSoftware,KiCad,Pcbnew,(5.1.9)-1*
G04 #@! TF.CreationDate,2021-03-14T14:56:39+00:00*
G04 #@! TF.ProjectId,Retrospector_Components,52657472-6f73-4706-9563-746f725f436f,rev?*
G04 #@! TF.SameCoordinates,Original*
G04 #@! TF.FileFunction,Legend,Top*
G04 #@! TF.FilePolarity,Positive*
%FSLAX46Y46*%
G04 Gerber Fmt 4.6, Leading zero omitted, Abs format (unit mm)*
G04 Created by KiCad (PCBNEW (5.1.9)-1) date 2021-03-14 14:56:39*
%MOMM*%
%LPD*%
G01*
G04 APERTURE LIST*
%ADD10C,0.150000*%
%ADD11C,0.200000*%
%ADD12C,0.500000*%
%ADD13C,0.100000*%
%ADD14C,0.300000*%
%ADD15C,0.120000*%
G04 APERTURE END LIST*
D10*
X102066666Y-150752380D02*
X102066666Y-151466666D01*
X102019047Y-151609523D01*
X101923809Y-151704761D01*
X101780952Y-151752380D01*
X101685714Y-151752380D01*
X102447619Y-150752380D02*
X103066666Y-150752380D01*
X102733333Y-151133333D01*
X102876190Y-151133333D01*
X102971428Y-151180952D01*
X103019047Y-151228571D01*
X103066666Y-151323809D01*
X103066666Y-151561904D01*
X103019047Y-151657142D01*
X102971428Y-151704761D01*
X102876190Y-151752380D01*
X102590476Y-151752380D01*
X102495238Y-151704761D01*
X102447619Y-151657142D01*
X158966666Y-65552380D02*
X159585714Y-65552380D01*
X159252380Y-65933333D01*
X159395238Y-65933333D01*
X159490476Y-65980952D01*
X159538095Y-66028571D01*
X159585714Y-66123809D01*
X159585714Y-66361904D01*
X159538095Y-66457142D01*
X159490476Y-66504761D01*
X159395238Y-66552380D01*
X159109523Y-66552380D01*
X159014285Y-66504761D01*
X158966666Y-66457142D01*
X159561904Y-68100000D02*
X159466666Y-68052380D01*
X159323809Y-68052380D01*
X159180952Y-68100000D01*
X159085714Y-68195238D01*
X159038095Y-68290476D01*
X158990476Y-68480952D01*
X158990476Y-68623809D01*
X159038095Y-68814285D01*
X159085714Y-68909523D01*
X159180952Y-69004761D01*
X159323809Y-69052380D01*
X159419047Y-69052380D01*
X159561904Y-69004761D01*
X159609523Y-68957142D01*
X159609523Y-68623809D01*
X159419047Y-68623809D01*
X159538095Y-63002380D02*
X159061904Y-63002380D01*
X159014285Y-63478571D01*
X159061904Y-63430952D01*
X159157142Y-63383333D01*
X159395238Y-63383333D01*
X159490476Y-63430952D01*
X159538095Y-63478571D01*
X159585714Y-63573809D01*
X159585714Y-63811904D01*
X159538095Y-63907142D01*
X159490476Y-63954761D01*
X159395238Y-64002380D01*
X159157142Y-64002380D01*
X159061904Y-63954761D01*
X159014285Y-63907142D01*
X119538095Y-79052380D02*
X119871428Y-80052380D01*
X120204761Y-79052380D01*
X121109523Y-79957142D02*
X121061904Y-80004761D01*
X120919047Y-80052380D01*
X120823809Y-80052380D01*
X120680952Y-80004761D01*
X120585714Y-79909523D01*
X120538095Y-79814285D01*
X120490476Y-79623809D01*
X120490476Y-79480952D01*
X120538095Y-79290476D01*
X120585714Y-79195238D01*
X120680952Y-79100000D01*
X120823809Y-79052380D01*
X120919047Y-79052380D01*
X121061904Y-79100000D01*
X121109523Y-79147619D01*
X121490476Y-79766666D02*
X121966666Y-79766666D01*
X121395238Y-80052380D02*
X121728571Y-79052380D01*
X122061904Y-80052380D01*
X150454761Y-133640476D02*
X150502380Y-133497619D01*
X150502380Y-133259523D01*
X150454761Y-133164285D01*
X150407142Y-133116666D01*
X150311904Y-133069047D01*
X150216666Y-133069047D01*
X150121428Y-133116666D01*
X150073809Y-133164285D01*
X150026190Y-133259523D01*
X149978571Y-133450000D01*
X149930952Y-133545238D01*
X149883333Y-133592857D01*
X149788095Y-133640476D01*
X149692857Y-133640476D01*
X149597619Y-133592857D01*
X149550000Y-133545238D01*
X149502380Y-133450000D01*
X149502380Y-133211904D01*
X149550000Y-133069047D01*
X149502380Y-132783333D02*
X149502380Y-132211904D01*
X150502380Y-132497619D02*
X149502380Y-132497619D01*
X150502380Y-131878571D02*
X149502380Y-131878571D01*
X150216666Y-131545238D01*
X149502380Y-131211904D01*
X150502380Y-131211904D01*
X149502380Y-130830952D02*
X149502380Y-130211904D01*
X149883333Y-130545238D01*
X149883333Y-130402380D01*
X149930952Y-130307142D01*
X149978571Y-130259523D01*
X150073809Y-130211904D01*
X150311904Y-130211904D01*
X150407142Y-130259523D01*
X150454761Y-130307142D01*
X150502380Y-130402380D01*
X150502380Y-130688095D01*
X150454761Y-130783333D01*
X150407142Y-130830952D01*
X149597619Y-129830952D02*
X149550000Y-129783333D01*
X149502380Y-129688095D01*
X149502380Y-129450000D01*
X149550000Y-129354761D01*
X149597619Y-129307142D01*
X149692857Y-129259523D01*
X149788095Y-129259523D01*
X149930952Y-129307142D01*
X150502380Y-129878571D01*
X150502380Y-129259523D01*
X150502380Y-128830952D02*
X149502380Y-128830952D01*
X149978571Y-128830952D02*
X149978571Y-128259523D01*
X150502380Y-128259523D02*
X149502380Y-128259523D01*
X149502380Y-127878571D02*
X149502380Y-127211904D01*
X150502380Y-127640476D01*
X120014285Y-158704761D02*
X120157142Y-158752380D01*
X120395238Y-158752380D01*
X120490476Y-158704761D01*
X120538095Y-158657142D01*
X120585714Y-158561904D01*
X120585714Y-158466666D01*
X120538095Y-158371428D01*
X120490476Y-158323809D01*
X120395238Y-158276190D01*
X120204761Y-158228571D01*
X120109523Y-158180952D01*
X120061904Y-158133333D01*
X120014285Y-158038095D01*
X120014285Y-157942857D01*
X120061904Y-157847619D01*
X120109523Y-157800000D01*
X120204761Y-157752380D01*
X120442857Y-157752380D01*
X120585714Y-157800000D01*
X121014285Y-158752380D02*
X121014285Y-157752380D01*
X121252380Y-157752380D01*
X121395238Y-157800000D01*
X121490476Y-157895238D01*
X121538095Y-157990476D01*
X121585714Y-158180952D01*
X121585714Y-158323809D01*
X121538095Y-158514285D01*
X121490476Y-158609523D01*
X121395238Y-158704761D01*
X121252380Y-158752380D01*
X121014285Y-158752380D01*
X122585714Y-158752380D02*
X122252380Y-158276190D01*
X122014285Y-158752380D02*
X122014285Y-157752380D01*
X122395238Y-157752380D01*
X122490476Y-157800000D01*
X122538095Y-157847619D01*
X122585714Y-157942857D01*
X122585714Y-158085714D01*
X122538095Y-158180952D01*
X122490476Y-158228571D01*
X122395238Y-158276190D01*
X122014285Y-158276190D01*
X122966666Y-158466666D02*
X123442857Y-158466666D01*
X122871428Y-158752380D02*
X123204761Y-157752380D01*
X123538095Y-158752380D01*
X123871428Y-158752380D02*
X123871428Y-157752380D01*
X124204761Y-158466666D01*
X124538095Y-157752380D01*
X124538095Y-158752380D01*
X144309523Y-98152380D02*
X144309523Y-97152380D01*
X144547619Y-97152380D01*
X144690476Y-97200000D01*
X144785714Y-97295238D01*
X144833333Y-97390476D01*
X144880952Y-97580952D01*
X144880952Y-97723809D01*
X144833333Y-97914285D01*
X144785714Y-98009523D01*
X144690476Y-98104761D01*
X144547619Y-98152380D01*
X144309523Y-98152380D01*
X145261904Y-97866666D02*
X145738095Y-97866666D01*
X145166666Y-98152380D02*
X145500000Y-97152380D01*
X145833333Y-98152380D01*
X146738095Y-98057142D02*
X146690476Y-98104761D01*
X146547619Y-98152380D01*
X146452380Y-98152380D01*
X146309523Y-98104761D01*
X146214285Y-98009523D01*
X146166666Y-97914285D01*
X146119047Y-97723809D01*
X146119047Y-97580952D01*
X146166666Y-97390476D01*
X146214285Y-97295238D01*
X146309523Y-97200000D01*
X146452380Y-97152380D01*
X146547619Y-97152380D01*
X146690476Y-97200000D01*
X146738095Y-97247619D01*
X152000000Y-70700000D02*
X152000000Y-84900000D01*
X130000000Y-65000000D02*
X130000000Y-69000000D01*
X107600000Y-65000000D02*
X130000000Y-65000000D01*
X130000000Y-69000000D02*
X149000000Y-69000000D01*
X107600000Y-62000000D02*
X107600000Y-85000000D01*
X100000000Y-62000000D02*
X107600000Y-62000000D01*
X100000000Y-85000000D02*
X107600000Y-85000000D01*
X152000000Y-109000000D02*
X160000000Y-109000000D01*
X147000000Y-85000000D02*
X160000000Y-85000000D01*
X147000000Y-94400000D02*
X147000000Y-85000000D01*
X126500000Y-105600000D02*
X100000000Y-105600000D01*
X152000000Y-105600000D02*
X152000000Y-128000000D01*
X143200000Y-105600000D02*
X152000000Y-105600000D01*
X143200000Y-94400000D02*
X143200000Y-105600000D01*
X126500000Y-94400000D02*
X147000000Y-94400000D01*
X126500000Y-105600000D02*
X126500000Y-94400000D01*
X119000000Y-136000000D02*
X152000000Y-136000000D01*
X119000000Y-150000000D02*
X119000000Y-105600000D01*
X119000000Y-150000000D02*
X119000000Y-160000000D01*
X117000000Y-150000000D02*
X119000000Y-150000000D01*
X117000000Y-150000000D02*
X108000000Y-150000000D01*
X108000000Y-128000000D02*
X119000000Y-128000000D01*
X152000000Y-149600000D02*
X160000000Y-149600000D01*
X152000000Y-128000000D02*
X152000000Y-149600000D01*
X160000000Y-126100000D02*
X152000000Y-126100000D01*
X108000000Y-150000000D02*
X100000000Y-150000000D01*
X108000000Y-128000000D02*
X108000000Y-150000000D01*
X100000000Y-128000000D02*
X108000000Y-128000000D01*
D11*
X153209523Y-111507142D02*
X153161904Y-111554761D01*
X153019047Y-111602380D01*
X152923809Y-111602380D01*
X152780952Y-111554761D01*
X152685714Y-111459523D01*
X152638095Y-111364285D01*
X152590476Y-111173809D01*
X152590476Y-111030952D01*
X152638095Y-110840476D01*
X152685714Y-110745238D01*
X152780952Y-110650000D01*
X152923809Y-110602380D01*
X153019047Y-110602380D01*
X153161904Y-110650000D01*
X153209523Y-110697619D01*
X158588095Y-111552380D02*
X158588095Y-110552380D01*
X158826190Y-110552380D01*
X158969047Y-110600000D01*
X159064285Y-110695238D01*
X159111904Y-110790476D01*
X159159523Y-110980952D01*
X159159523Y-111123809D01*
X159111904Y-111314285D01*
X159064285Y-111409523D01*
X158969047Y-111504761D01*
X158826190Y-111552380D01*
X158588095Y-111552380D01*
D10*
X148609523Y-102152380D02*
X148133333Y-102152380D01*
X148133333Y-101152380D01*
X149514285Y-102152380D02*
X149180952Y-101676190D01*
X148942857Y-102152380D02*
X148942857Y-101152380D01*
X149323809Y-101152380D01*
X149419047Y-101200000D01*
X149466666Y-101247619D01*
X149514285Y-101342857D01*
X149514285Y-101485714D01*
X149466666Y-101580952D01*
X149419047Y-101628571D01*
X149323809Y-101676190D01*
X148942857Y-101676190D01*
X146271428Y-101628571D02*
X146414285Y-101676190D01*
X146461904Y-101723809D01*
X146509523Y-101819047D01*
X146509523Y-101961904D01*
X146461904Y-102057142D01*
X146414285Y-102104761D01*
X146319047Y-102152380D01*
X145938095Y-102152380D01*
X145938095Y-101152380D01*
X146271428Y-101152380D01*
X146366666Y-101200000D01*
X146414285Y-101247619D01*
X146461904Y-101342857D01*
X146461904Y-101438095D01*
X146414285Y-101533333D01*
X146366666Y-101580952D01*
X146271428Y-101628571D01*
X145938095Y-101628571D01*
X147509523Y-102057142D02*
X147461904Y-102104761D01*
X147319047Y-102152380D01*
X147223809Y-102152380D01*
X147080952Y-102104761D01*
X146985714Y-102009523D01*
X146938095Y-101914285D01*
X146890476Y-101723809D01*
X146890476Y-101580952D01*
X146938095Y-101390476D01*
X146985714Y-101295238D01*
X147080952Y-101200000D01*
X147223809Y-101152380D01*
X147319047Y-101152380D01*
X147461904Y-101200000D01*
X147509523Y-101247619D01*
X144038095Y-102152380D02*
X144038095Y-101152380D01*
X144276190Y-101152380D01*
X144419047Y-101200000D01*
X144514285Y-101295238D01*
X144561904Y-101390476D01*
X144609523Y-101580952D01*
X144609523Y-101723809D01*
X144561904Y-101914285D01*
X144514285Y-102009523D01*
X144419047Y-102104761D01*
X144276190Y-102152380D01*
X144038095Y-102152380D01*
X104209523Y-62952380D02*
X104828571Y-62952380D01*
X104495238Y-63333333D01*
X104638095Y-63333333D01*
X104733333Y-63380952D01*
X104780952Y-63428571D01*
X104828571Y-63523809D01*
X104828571Y-63761904D01*
X104780952Y-63857142D01*
X104733333Y-63904761D01*
X104638095Y-63952380D01*
X104352380Y-63952380D01*
X104257142Y-63904761D01*
X104209523Y-63857142D01*
X105114285Y-62952380D02*
X105447619Y-63952380D01*
X105780952Y-62952380D01*
X106066666Y-63666666D02*
X106542857Y-63666666D01*
X105971428Y-63952380D02*
X106304761Y-62952380D01*
X106638095Y-63952380D01*
X104828571Y-65542857D02*
X104733333Y-65495237D01*
X104590476Y-65495237D01*
X104447618Y-65542857D01*
X104352380Y-65638095D01*
X104304761Y-65733333D01*
X104257142Y-65923809D01*
X104257142Y-66066666D01*
X104304761Y-66257142D01*
X104352380Y-66352380D01*
X104447618Y-66447618D01*
X104590476Y-66495237D01*
X104685714Y-66495237D01*
X104828571Y-66447618D01*
X104876190Y-66399999D01*
X104876190Y-66066666D01*
X104685714Y-66066666D01*
X105304761Y-66495237D02*
X105304761Y-65495237D01*
X105876190Y-66495237D01*
X105876190Y-65495237D01*
X106352380Y-66495237D02*
X106352380Y-65495237D01*
X106590476Y-65495237D01*
X106733333Y-65542857D01*
X106828571Y-65638095D01*
X106876190Y-65733333D01*
X106923809Y-65923809D01*
X106923809Y-66066666D01*
X106876190Y-66257142D01*
X106828571Y-66352380D01*
X106733333Y-66447618D01*
X106590476Y-66495237D01*
X106352380Y-66495237D01*
X104957142Y-147300000D02*
X104861904Y-147252380D01*
X104719047Y-147252380D01*
X104576189Y-147300000D01*
X104480951Y-147395238D01*
X104433332Y-147490476D01*
X104385713Y-147680952D01*
X104385713Y-147823809D01*
X104433332Y-148014285D01*
X104480951Y-148109523D01*
X104576189Y-148204761D01*
X104719047Y-148252380D01*
X104814285Y-148252380D01*
X104957142Y-148204761D01*
X105004761Y-148157142D01*
X105004761Y-147823809D01*
X104814285Y-147823809D01*
X105433332Y-148252380D02*
X105433332Y-147252380D01*
X106004761Y-148252380D01*
X106004761Y-147252380D01*
X106480951Y-148252380D02*
X106480951Y-147252380D01*
X106719047Y-147252380D01*
X106861904Y-147300000D01*
X106957142Y-147395238D01*
X107004761Y-147490476D01*
X107052380Y-147680952D01*
X107052380Y-147823809D01*
X107004761Y-148014285D01*
X106957142Y-148109523D01*
X106861904Y-148204761D01*
X106719047Y-148252380D01*
X106480951Y-148252380D01*
X153814285Y-147300000D02*
X153719047Y-147252380D01*
X153576190Y-147252380D01*
X153433332Y-147300000D01*
X153338094Y-147395238D01*
X153290475Y-147490476D01*
X153242856Y-147680952D01*
X153242856Y-147823809D01*
X153290475Y-148014285D01*
X153338094Y-148109523D01*
X153433332Y-148204761D01*
X153576190Y-148252380D01*
X153671428Y-148252380D01*
X153814285Y-148204761D01*
X153861904Y-148157142D01*
X153861904Y-147823809D01*
X153671428Y-147823809D01*
X154290475Y-148252380D02*
X154290475Y-147252380D01*
X154861904Y-148252380D01*
X154861904Y-147252380D01*
X155338094Y-148252380D02*
X155338094Y-147252380D01*
X155576190Y-147252380D01*
X155719047Y-147300000D01*
X155814285Y-147395238D01*
X155861904Y-147490476D01*
X155909523Y-147680952D01*
X155909523Y-147823809D01*
X155861904Y-148014285D01*
X155814285Y-148109523D01*
X155719047Y-148204761D01*
X155576190Y-148252380D01*
X155338094Y-148252380D01*
X153766666Y-135609522D02*
X153290476Y-135609522D01*
X153290476Y-134609522D01*
X154100000Y-135609522D02*
X154100000Y-134609522D01*
X154671428Y-135609522D02*
X154242857Y-135038094D01*
X154671428Y-134609522D02*
X154100000Y-135180951D01*
X155433333Y-135085713D02*
X155576190Y-135133332D01*
X155623809Y-135180951D01*
X155671428Y-135276189D01*
X155671428Y-135419046D01*
X155623809Y-135514284D01*
X155576190Y-135561903D01*
X155480952Y-135609522D01*
X155100000Y-135609522D01*
X155100000Y-134609522D01*
X155433333Y-134609522D01*
X155528571Y-134657142D01*
X155576190Y-134704761D01*
X155623809Y-134799999D01*
X155623809Y-134895237D01*
X155576190Y-134990475D01*
X155528571Y-135038094D01*
X155433333Y-135085713D01*
X155100000Y-135085713D01*
X153766666Y-133080951D02*
X153290476Y-133080951D01*
X153290476Y-132080951D01*
X154671428Y-132985713D02*
X154623809Y-133033332D01*
X154480952Y-133080951D01*
X154385714Y-133080951D01*
X154242857Y-133033332D01*
X154147619Y-132938094D01*
X154100000Y-132842856D01*
X154052381Y-132652380D01*
X154052381Y-132509523D01*
X154100000Y-132319047D01*
X154147619Y-132223809D01*
X154242857Y-132128571D01*
X154385714Y-132080951D01*
X154480952Y-132080951D01*
X154623809Y-132128571D01*
X154671428Y-132176190D01*
X155100000Y-133080951D02*
X155100000Y-132080951D01*
X155671428Y-133080951D02*
X155242857Y-132509523D01*
X155671428Y-132080951D02*
X155100000Y-132652380D01*
X153766666Y-130552380D02*
X153290475Y-130552380D01*
X153290475Y-129552380D01*
X154099999Y-130552380D02*
X154099999Y-129552380D01*
X154338095Y-129552380D01*
X154480952Y-129600000D01*
X154576190Y-129695238D01*
X154623809Y-129790476D01*
X154671428Y-129980952D01*
X154671428Y-130123809D01*
X154623809Y-130314285D01*
X154576190Y-130409523D01*
X154480952Y-130504761D01*
X154338095Y-130552380D01*
X154099999Y-130552380D01*
X154957142Y-129552380D02*
X155528571Y-129552380D01*
X155242856Y-130552380D02*
X155242856Y-129552380D01*
X153766666Y-145723806D02*
X153290476Y-145723806D01*
X153290476Y-144723806D01*
X154100000Y-145723806D02*
X154100000Y-144723806D01*
X154480952Y-144723806D01*
X154576190Y-144771426D01*
X154623809Y-144819045D01*
X154671428Y-144914283D01*
X154671428Y-145057140D01*
X154623809Y-145152378D01*
X154576190Y-145199997D01*
X154480952Y-145247616D01*
X154100000Y-145247616D01*
X153290475Y-143195235D02*
X153290475Y-142195235D01*
X153290475Y-142671426D02*
X153861904Y-142671426D01*
X153861904Y-143195235D02*
X153861904Y-142195235D01*
X154338094Y-143195235D02*
X154338094Y-142195235D01*
X154719047Y-142195235D01*
X154814285Y-142242855D01*
X154861904Y-142290474D01*
X154909523Y-142385712D01*
X154909523Y-142528569D01*
X154861904Y-142623807D01*
X154814285Y-142671426D01*
X154719047Y-142719045D01*
X154338094Y-142719045D01*
X151666666Y-155352380D02*
X152000000Y-156352380D01*
X152333333Y-155352380D01*
X149666666Y-156352380D02*
X149666666Y-155352380D01*
X150000000Y-156066666D01*
X150333333Y-155352380D01*
X150333333Y-156352380D01*
X147838095Y-156352380D02*
X147838095Y-155352380D01*
X148219047Y-155352380D01*
X148314285Y-155400000D01*
X148361904Y-155447619D01*
X148409523Y-155542857D01*
X148409523Y-155685714D01*
X148361904Y-155780952D01*
X148314285Y-155828571D01*
X148219047Y-155876190D01*
X147838095Y-155876190D01*
X104257142Y-73838094D02*
X104733333Y-73838094D01*
X104161904Y-74123808D02*
X104495237Y-73123808D01*
X104828571Y-74123808D01*
X105161904Y-74123808D02*
X105161904Y-73123808D01*
X106114285Y-74123808D02*
X105638095Y-74123808D01*
X105638095Y-73123808D01*
X154561905Y-78227380D02*
X154752381Y-78227380D01*
X154847619Y-78275000D01*
X154942857Y-78370238D01*
X154990476Y-78560714D01*
X154990476Y-78894047D01*
X154942857Y-79084523D01*
X154847619Y-79179761D01*
X154752381Y-79227380D01*
X154561905Y-79227380D01*
X154466666Y-79179761D01*
X154371428Y-79084523D01*
X154323809Y-78894047D01*
X154323809Y-78560714D01*
X154371428Y-78370238D01*
X154466666Y-78275000D01*
X154561905Y-78227380D01*
X155895238Y-79227380D02*
X155419047Y-79227380D01*
X155419047Y-78227380D01*
X103666666Y-83252380D02*
X103666666Y-83966666D01*
X103619047Y-84109523D01*
X103523809Y-84204761D01*
X103380952Y-84252380D01*
X103285714Y-84252380D01*
X104666666Y-84252380D02*
X104095238Y-84252380D01*
X104380952Y-84252380D02*
X104380952Y-83252380D01*
X104285714Y-83395238D01*
X104190476Y-83490476D01*
X104095238Y-83538095D01*
X153861904Y-140571426D02*
X153814285Y-140619045D01*
X153671428Y-140666664D01*
X153576190Y-140666664D01*
X153433332Y-140619045D01*
X153338094Y-140523807D01*
X153290475Y-140428569D01*
X153242856Y-140238093D01*
X153242856Y-140095236D01*
X153290475Y-139904760D01*
X153338094Y-139809522D01*
X153433332Y-139714284D01*
X153576190Y-139666664D01*
X153671428Y-139666664D01*
X153814285Y-139714284D01*
X153861904Y-139761903D01*
X154290475Y-140666664D02*
X154290475Y-139666664D01*
X154290475Y-140142855D02*
X154861904Y-140142855D01*
X154861904Y-140666664D02*
X154861904Y-139666664D01*
X104766666Y-140142855D02*
X104433332Y-140142855D01*
X104433332Y-140666664D02*
X104433332Y-139666664D01*
X104909523Y-139666664D01*
X105766666Y-140666664D02*
X105290475Y-140666664D01*
X105290475Y-139666664D01*
X106671428Y-140571426D02*
X106623809Y-140619045D01*
X106480951Y-140666664D01*
X106385713Y-140666664D01*
X106242856Y-140619045D01*
X106147618Y-140523807D01*
X106099999Y-140428569D01*
X106052380Y-140238093D01*
X106052380Y-140095236D01*
X106099999Y-139904760D01*
X106147618Y-139809522D01*
X106242856Y-139714284D01*
X106385713Y-139666664D01*
X106480951Y-139666664D01*
X106623809Y-139714284D01*
X106671428Y-139761903D01*
D12*
X146323607Y-78100000D02*
G75*
G03*
X146323607Y-78100000I-223607J0D01*
G01*
D10*
X155666666Y-127052380D02*
X155666666Y-127766666D01*
X155619047Y-127909523D01*
X155523809Y-128004761D01*
X155380952Y-128052380D01*
X155285714Y-128052380D01*
X156571428Y-127385714D02*
X156571428Y-128052380D01*
X156333333Y-127004761D02*
X156095238Y-127719047D01*
X156714285Y-127719047D01*
X155366666Y-83152380D02*
X155366666Y-83866666D01*
X155319047Y-84009523D01*
X155223809Y-84104761D01*
X155080952Y-84152380D01*
X154985714Y-84152380D01*
X155795238Y-83247619D02*
X155842857Y-83200000D01*
X155938095Y-83152380D01*
X156176190Y-83152380D01*
X156271428Y-83200000D01*
X156319047Y-83247619D01*
X156366666Y-83342857D01*
X156366666Y-83438095D01*
X156319047Y-83580952D01*
X155747619Y-84152380D01*
X156366666Y-84152380D01*
X153290476Y-138138093D02*
X153290476Y-137138093D01*
X153671428Y-137138093D01*
X153766666Y-137185713D01*
X153814285Y-137233332D01*
X153861904Y-137328570D01*
X153861904Y-137471427D01*
X153814285Y-137566665D01*
X153766666Y-137614284D01*
X153671428Y-137661903D01*
X153290476Y-137661903D01*
X154290476Y-138138093D02*
X154290476Y-137138093D01*
X154671428Y-137138093D01*
X154766666Y-137185713D01*
X154814285Y-137233332D01*
X154861904Y-137328570D01*
X154861904Y-137471427D01*
X154814285Y-137566665D01*
X154766666Y-137614284D01*
X154671428Y-137661903D01*
X154290476Y-137661903D01*
X104161905Y-80752380D02*
X104733333Y-80752380D01*
X104447619Y-81752380D02*
X104447619Y-80752380D01*
X105066667Y-81752380D02*
X105066667Y-80752380D01*
X105638095Y-81752380D01*
X105638095Y-80752380D01*
X106114286Y-81752380D02*
X106114286Y-80752380D01*
X106495238Y-80752380D01*
X106590476Y-80800000D01*
X106638095Y-80847619D01*
X106685714Y-80942857D01*
X106685714Y-81085714D01*
X106638095Y-81180952D01*
X106590476Y-81228571D01*
X106495238Y-81276190D01*
X106114286Y-81276190D01*
X154942857Y-76702380D02*
X154609524Y-76226190D01*
X154371428Y-76702380D02*
X154371428Y-75702380D01*
X154752381Y-75702380D01*
X154847619Y-75750000D01*
X154895238Y-75797619D01*
X154942857Y-75892857D01*
X154942857Y-76035714D01*
X154895238Y-76130952D01*
X154847619Y-76178571D01*
X154752381Y-76226190D01*
X154371428Y-76226190D01*
X155323809Y-76654761D02*
X155466666Y-76702380D01*
X155704762Y-76702380D01*
X155800000Y-76654761D01*
X155847619Y-76607142D01*
X155895238Y-76511904D01*
X155895238Y-76416666D01*
X155847619Y-76321428D01*
X155800000Y-76273809D01*
X155704762Y-76226190D01*
X155514285Y-76178571D01*
X155419047Y-76130952D01*
X155371428Y-76083333D01*
X155323809Y-75988095D01*
X155323809Y-75892857D01*
X155371428Y-75797619D01*
X155419047Y-75750000D01*
X155514285Y-75702380D01*
X155752381Y-75702380D01*
X155895238Y-75750000D01*
X104304762Y-71580951D02*
X104304762Y-70580951D01*
X104542857Y-70580951D01*
X104685714Y-70628571D01*
X104780952Y-70723809D01*
X104828571Y-70819047D01*
X104876190Y-71009523D01*
X104876190Y-71152380D01*
X104828571Y-71342856D01*
X104780952Y-71438094D01*
X104685714Y-71533332D01*
X104542857Y-71580951D01*
X104304762Y-71580951D01*
X105876190Y-71485713D02*
X105828571Y-71533332D01*
X105685714Y-71580951D01*
X105590476Y-71580951D01*
X105447619Y-71533332D01*
X105352381Y-71438094D01*
X105304762Y-71342856D01*
X105257143Y-71152380D01*
X105257143Y-71009523D01*
X105304762Y-70819047D01*
X105352381Y-70723809D01*
X105447619Y-70628571D01*
X105590476Y-70580951D01*
X105685714Y-70580951D01*
X105828571Y-70628571D01*
X105876190Y-70676190D01*
X106876190Y-71580951D02*
X106542857Y-71104761D01*
X106304762Y-71580951D02*
X106304762Y-70580951D01*
X106685714Y-70580951D01*
X106780952Y-70628571D01*
X106828571Y-70676190D01*
X106876190Y-70771428D01*
X106876190Y-70914285D01*
X106828571Y-71009523D01*
X106780952Y-71057142D01*
X106685714Y-71104761D01*
X106304762Y-71104761D01*
X104304762Y-69038094D02*
X104304762Y-68038094D01*
X104542857Y-68038094D01*
X104685714Y-68085714D01*
X104780952Y-68180952D01*
X104828571Y-68276190D01*
X104876190Y-68466666D01*
X104876190Y-68609523D01*
X104828571Y-68799999D01*
X104780952Y-68895237D01*
X104685714Y-68990475D01*
X104542857Y-69038094D01*
X104304762Y-69038094D01*
X105876190Y-68942856D02*
X105828571Y-68990475D01*
X105685714Y-69038094D01*
X105590476Y-69038094D01*
X105447619Y-68990475D01*
X105352381Y-68895237D01*
X105304762Y-68799999D01*
X105257143Y-68609523D01*
X105257143Y-68466666D01*
X105304762Y-68276190D01*
X105352381Y-68180952D01*
X105447619Y-68085714D01*
X105590476Y-68038094D01*
X105685714Y-68038094D01*
X105828571Y-68085714D01*
X105876190Y-68133333D01*
X106780952Y-69038094D02*
X106304762Y-69038094D01*
X106304762Y-68038094D01*
X104257142Y-76380951D02*
X104733333Y-76380951D01*
X104161904Y-76666665D02*
X104495237Y-75666665D01*
X104828571Y-76666665D01*
X105161904Y-76666665D02*
X105161904Y-75666665D01*
X106209523Y-76666665D02*
X105876190Y-76190475D01*
X105638094Y-76666665D02*
X105638094Y-75666665D01*
X106019047Y-75666665D01*
X106114285Y-75714285D01*
X106161904Y-75761904D01*
X106209523Y-75857142D01*
X106209523Y-75999999D01*
X106161904Y-76095237D01*
X106114285Y-76142856D01*
X106019047Y-76190475D01*
X105638094Y-76190475D01*
X154371429Y-74177380D02*
X154371429Y-73177380D01*
X154704762Y-73891666D01*
X155038095Y-73177380D01*
X155038095Y-74177380D01*
X155466667Y-73272619D02*
X155514286Y-73225000D01*
X155609524Y-73177380D01*
X155847619Y-73177380D01*
X155942857Y-73225000D01*
X155990476Y-73272619D01*
X156038095Y-73367857D01*
X156038095Y-73463095D01*
X155990476Y-73605952D01*
X155419048Y-74177380D01*
X156038095Y-74177380D01*
X154371429Y-71652380D02*
X154371429Y-70652380D01*
X154704762Y-71366666D01*
X155038095Y-70652380D01*
X155038095Y-71652380D01*
X156038095Y-71652380D02*
X155466667Y-71652380D01*
X155752381Y-71652380D02*
X155752381Y-70652380D01*
X155657143Y-70795238D01*
X155561905Y-70890476D01*
X155466667Y-70938095D01*
X104304762Y-79209522D02*
X104304762Y-78209522D01*
X104542857Y-78209522D01*
X104685714Y-78257142D01*
X104780952Y-78352380D01*
X104828571Y-78447618D01*
X104876190Y-78638094D01*
X104876190Y-78780951D01*
X104828571Y-78971427D01*
X104780952Y-79066665D01*
X104685714Y-79161903D01*
X104542857Y-79209522D01*
X104304762Y-79209522D01*
X105304762Y-79209522D02*
X105304762Y-78209522D01*
X105685714Y-78209522D01*
X105780952Y-78257142D01*
X105828571Y-78304761D01*
X105876190Y-78399999D01*
X105876190Y-78542856D01*
X105828571Y-78638094D01*
X105780952Y-78685713D01*
X105685714Y-78733332D01*
X105304762Y-78733332D01*
X106876190Y-79209522D02*
X106542857Y-78733332D01*
X106304762Y-79209522D02*
X106304762Y-78209522D01*
X106685714Y-78209522D01*
X106780952Y-78257142D01*
X106828571Y-78304761D01*
X106876190Y-78399999D01*
X106876190Y-78542856D01*
X106828571Y-78638094D01*
X106780952Y-78685713D01*
X106685714Y-78733332D01*
X106304762Y-78733332D01*
X154561904Y-80752380D02*
X154752381Y-80752380D01*
X154847619Y-80800000D01*
X154942857Y-80895238D01*
X154990476Y-81085714D01*
X154990476Y-81419047D01*
X154942857Y-81609523D01*
X154847619Y-81704761D01*
X154752381Y-81752380D01*
X154561904Y-81752380D01*
X154466666Y-81704761D01*
X154371428Y-81609523D01*
X154323809Y-81419047D01*
X154323809Y-81085714D01*
X154371428Y-80895238D01*
X154466666Y-80800000D01*
X154561904Y-80752380D01*
X155990476Y-81752380D02*
X155657143Y-81276190D01*
X155419047Y-81752380D02*
X155419047Y-80752380D01*
X155800000Y-80752380D01*
X155895238Y-80800000D01*
X155942857Y-80847619D01*
X155990476Y-80942857D01*
X155990476Y-81085714D01*
X155942857Y-81180952D01*
X155895238Y-81228571D01*
X155800000Y-81276190D01*
X155419047Y-81276190D01*
X104433333Y-135609522D02*
X104433333Y-134609522D01*
X104766666Y-135323808D01*
X105099999Y-134609522D01*
X105099999Y-135609522D01*
X105480952Y-134609522D02*
X106147618Y-135609522D01*
X106147618Y-134609522D02*
X105480952Y-135609522D01*
X107099999Y-135514284D02*
X107052380Y-135561903D01*
X106909523Y-135609522D01*
X106814285Y-135609522D01*
X106671428Y-135561903D01*
X106576190Y-135466665D01*
X106528571Y-135371427D01*
X106480952Y-135180951D01*
X106480952Y-135038094D01*
X106528571Y-134847618D01*
X106576190Y-134752380D01*
X106671428Y-134657142D01*
X106814285Y-134609522D01*
X106909523Y-134609522D01*
X107052380Y-134657142D01*
X107099999Y-134704761D01*
X104433333Y-133080951D02*
X104433333Y-132080951D01*
X104766666Y-132795237D01*
X105099999Y-132080951D01*
X105099999Y-133080951D01*
X105480952Y-132080951D02*
X106147618Y-133080951D01*
X106147618Y-132080951D02*
X105480952Y-133080951D01*
X106528571Y-133080951D02*
X106528571Y-132080951D01*
X106909523Y-132080951D01*
X107004761Y-132128571D01*
X107052380Y-132176190D01*
X107099999Y-132271428D01*
X107099999Y-132414285D01*
X107052380Y-132509523D01*
X107004761Y-132557142D01*
X106909523Y-132604761D01*
X106528571Y-132604761D01*
X105004761Y-130457142D02*
X104957142Y-130504761D01*
X104814285Y-130552380D01*
X104719047Y-130552380D01*
X104576190Y-130504761D01*
X104480952Y-130409523D01*
X104433333Y-130314285D01*
X104385714Y-130123809D01*
X104385714Y-129980952D01*
X104433333Y-129790476D01*
X104480952Y-129695238D01*
X104576190Y-129600000D01*
X104719047Y-129552380D01*
X104814285Y-129552380D01*
X104957142Y-129600000D01*
X105004761Y-129647619D01*
X105909523Y-130552380D02*
X105433333Y-130552380D01*
X105433333Y-129552380D01*
X106242857Y-130552380D02*
X106242857Y-129552380D01*
X106814285Y-130552380D02*
X106385714Y-129980952D01*
X106814285Y-129552380D02*
X106242857Y-130123809D01*
X104433333Y-143195235D02*
X104433333Y-142195235D01*
X104671428Y-142195235D01*
X104814285Y-142242855D01*
X104909523Y-142338093D01*
X104957142Y-142433331D01*
X105004761Y-142623807D01*
X105004761Y-142766664D01*
X104957142Y-142957140D01*
X104909523Y-143052378D01*
X104814285Y-143147616D01*
X104671428Y-143195235D01*
X104433333Y-143195235D01*
X105433333Y-143195235D02*
X105433333Y-142195235D01*
X105814285Y-142195235D01*
X105909523Y-142242855D01*
X105957142Y-142290474D01*
X106004761Y-142385712D01*
X106004761Y-142528569D01*
X105957142Y-142623807D01*
X105909523Y-142671426D01*
X105814285Y-142719045D01*
X105433333Y-142719045D01*
X106909523Y-143195235D02*
X106433333Y-143195235D01*
X106433333Y-142195235D01*
X104766666Y-145199997D02*
X104433332Y-145199997D01*
X104433332Y-145723806D02*
X104433332Y-144723806D01*
X104909523Y-144723806D01*
X105623809Y-145199997D02*
X105766666Y-145247616D01*
X105814285Y-145295235D01*
X105861904Y-145390473D01*
X105861904Y-145533330D01*
X105814285Y-145628568D01*
X105766666Y-145676187D01*
X105671428Y-145723806D01*
X105290475Y-145723806D01*
X105290475Y-144723806D01*
X105623809Y-144723806D01*
X105719047Y-144771426D01*
X105766666Y-144819045D01*
X105814285Y-144914283D01*
X105814285Y-145009521D01*
X105766666Y-145104759D01*
X105719047Y-145152378D01*
X105623809Y-145199997D01*
X105290475Y-145199997D01*
X106861904Y-145628568D02*
X106814285Y-145676187D01*
X106671428Y-145723806D01*
X106576189Y-145723806D01*
X106433332Y-145676187D01*
X106338094Y-145580949D01*
X106290475Y-145485711D01*
X106242856Y-145295235D01*
X106242856Y-145152378D01*
X106290475Y-144961902D01*
X106338094Y-144866664D01*
X106433332Y-144771426D01*
X106576189Y-144723806D01*
X106671428Y-144723806D01*
X106814285Y-144771426D01*
X106861904Y-144819045D01*
X104766666Y-137614284D02*
X104433332Y-137614284D01*
X104433332Y-138138093D02*
X104433332Y-137138093D01*
X104909523Y-137138093D01*
X105623809Y-137614284D02*
X105766666Y-137661903D01*
X105814285Y-137709522D01*
X105861904Y-137804760D01*
X105861904Y-137947617D01*
X105814285Y-138042855D01*
X105766666Y-138090474D01*
X105671428Y-138138093D01*
X105290475Y-138138093D01*
X105290475Y-137138093D01*
X105623809Y-137138093D01*
X105719047Y-137185713D01*
X105766666Y-137233332D01*
X105814285Y-137328570D01*
X105814285Y-137423808D01*
X105766666Y-137519046D01*
X105719047Y-137566665D01*
X105623809Y-137614284D01*
X105290475Y-137614284D01*
X106290475Y-138138093D02*
X106290475Y-137138093D01*
X106671428Y-137138093D01*
X106766666Y-137185713D01*
X106814285Y-137233332D01*
X106861904Y-137328570D01*
X106861904Y-137471427D01*
X106814285Y-137566665D01*
X106766666Y-137614284D01*
X106671428Y-137661903D01*
X106290475Y-137661903D01*
D12*
X148023607Y-53400000D02*
G75*
G03*
X148023607Y-53400000I-223607J0D01*
G01*
D13*
G36*
X139500000Y-53300000D02*
G01*
X138800000Y-53300000D01*
X138800000Y-51000000D01*
X139500000Y-51000000D01*
X139500000Y-53300000D01*
G37*
X139500000Y-53300000D02*
X138800000Y-53300000D01*
X138800000Y-51000000D01*
X139500000Y-51000000D01*
X139500000Y-53300000D01*
D12*
X146923607Y-143200000D02*
G75*
G03*
X146923607Y-143200000I-223607J0D01*
G01*
D14*
X111603571Y-146650000D02*
X110889285Y-147150000D01*
X111603571Y-147507142D02*
X110103571Y-147507142D01*
X110103571Y-146935714D01*
X110175000Y-146792857D01*
X110246428Y-146721428D01*
X110389285Y-146650000D01*
X110603571Y-146650000D01*
X110746428Y-146721428D01*
X110817857Y-146792857D01*
X110889285Y-146935714D01*
X110889285Y-147507142D01*
X111532142Y-145435714D02*
X111603571Y-145578571D01*
X111603571Y-145864285D01*
X111532142Y-146007142D01*
X111389285Y-146078571D01*
X110817857Y-146078571D01*
X110675000Y-146007142D01*
X110603571Y-145864285D01*
X110603571Y-145578571D01*
X110675000Y-145435714D01*
X110817857Y-145364285D01*
X110960714Y-145364285D01*
X111103571Y-146078571D01*
X110603571Y-144935714D02*
X110603571Y-144364285D01*
X110103571Y-144721428D02*
X111389285Y-144721428D01*
X111532142Y-144650000D01*
X111603571Y-144507142D01*
X111603571Y-144364285D01*
X111603571Y-143864285D02*
X110603571Y-143864285D01*
X110889285Y-143864285D02*
X110746428Y-143792857D01*
X110675000Y-143721428D01*
X110603571Y-143578571D01*
X110603571Y-143435714D01*
X111603571Y-142721428D02*
X111532142Y-142864285D01*
X111460714Y-142935714D01*
X111317857Y-143007142D01*
X110889285Y-143007142D01*
X110746428Y-142935714D01*
X110675000Y-142864285D01*
X110603571Y-142721428D01*
X110603571Y-142507142D01*
X110675000Y-142364285D01*
X110746428Y-142292857D01*
X110889285Y-142221428D01*
X111317857Y-142221428D01*
X111460714Y-142292857D01*
X111532142Y-142364285D01*
X111603571Y-142507142D01*
X111603571Y-142721428D01*
X111532142Y-141650000D02*
X111603571Y-141507142D01*
X111603571Y-141221428D01*
X111532142Y-141078571D01*
X111389285Y-141007142D01*
X111317857Y-141007142D01*
X111175000Y-141078571D01*
X111103571Y-141221428D01*
X111103571Y-141435714D01*
X111032142Y-141578571D01*
X110889285Y-141650000D01*
X110817857Y-141650000D01*
X110675000Y-141578571D01*
X110603571Y-141435714D01*
X110603571Y-141221428D01*
X110675000Y-141078571D01*
X110603571Y-140364285D02*
X112103571Y-140364285D01*
X110675000Y-140364285D02*
X110603571Y-140221428D01*
X110603571Y-139935714D01*
X110675000Y-139792857D01*
X110746428Y-139721428D01*
X110889285Y-139650000D01*
X111317857Y-139650000D01*
X111460714Y-139721428D01*
X111532142Y-139792857D01*
X111603571Y-139935714D01*
X111603571Y-140221428D01*
X111532142Y-140364285D01*
X111532142Y-138435714D02*
X111603571Y-138578571D01*
X111603571Y-138864285D01*
X111532142Y-139007142D01*
X111389285Y-139078571D01*
X110817857Y-139078571D01*
X110675000Y-139007142D01*
X110603571Y-138864285D01*
X110603571Y-138578571D01*
X110675000Y-138435714D01*
X110817857Y-138364285D01*
X110960714Y-138364285D01*
X111103571Y-139078571D01*
X111532142Y-137078571D02*
X111603571Y-137221428D01*
X111603571Y-137507142D01*
X111532142Y-137650000D01*
X111460714Y-137721428D01*
X111317857Y-137792857D01*
X110889285Y-137792857D01*
X110746428Y-137721428D01*
X110675000Y-137650000D01*
X110603571Y-137507142D01*
X110603571Y-137221428D01*
X110675000Y-137078571D01*
X110603571Y-136650000D02*
X110603571Y-136078571D01*
X110103571Y-136435714D02*
X111389285Y-136435714D01*
X111532142Y-136364285D01*
X111603571Y-136221428D01*
X111603571Y-136078571D01*
X111603571Y-135364285D02*
X111532142Y-135507142D01*
X111460714Y-135578571D01*
X111317857Y-135650000D01*
X110889285Y-135650000D01*
X110746428Y-135578571D01*
X110675000Y-135507142D01*
X110603571Y-135364285D01*
X110603571Y-135150000D01*
X110675000Y-135007142D01*
X110746428Y-134935714D01*
X110889285Y-134864285D01*
X111317857Y-134864285D01*
X111460714Y-134935714D01*
X111532142Y-135007142D01*
X111603571Y-135150000D01*
X111603571Y-135364285D01*
X111603571Y-134221428D02*
X110603571Y-134221428D01*
X110889285Y-134221428D02*
X110746428Y-134150000D01*
X110675000Y-134078571D01*
X110603571Y-133935714D01*
X110603571Y-133792857D01*
X110603571Y-132292857D02*
X111603571Y-131935714D01*
X110603571Y-131578571D01*
X110246428Y-131078571D02*
X110175000Y-131007142D01*
X110103571Y-130864285D01*
X110103571Y-130507142D01*
X110175000Y-130364285D01*
X110246428Y-130292857D01*
X110389285Y-130221428D01*
X110532142Y-130221428D01*
X110746428Y-130292857D01*
X111603571Y-131150000D01*
X111603571Y-130221428D01*
X114153571Y-148471428D02*
X112653571Y-148471428D01*
X113725000Y-147971428D01*
X112653571Y-147471428D01*
X114153571Y-147471428D01*
X114153571Y-146542857D02*
X114082142Y-146685714D01*
X114010714Y-146757142D01*
X113867857Y-146828571D01*
X113439285Y-146828571D01*
X113296428Y-146757142D01*
X113225000Y-146685714D01*
X113153571Y-146542857D01*
X113153571Y-146328571D01*
X113225000Y-146185714D01*
X113296428Y-146114285D01*
X113439285Y-146042857D01*
X113867857Y-146042857D01*
X114010714Y-146114285D01*
X114082142Y-146185714D01*
X114153571Y-146328571D01*
X114153571Y-146542857D01*
X113153571Y-144757142D02*
X114153571Y-144757142D01*
X113153571Y-145400000D02*
X113939285Y-145400000D01*
X114082142Y-145328571D01*
X114153571Y-145185714D01*
X114153571Y-144971428D01*
X114082142Y-144828571D01*
X114010714Y-144757142D01*
X113153571Y-144042857D02*
X114153571Y-144042857D01*
X113296428Y-144042857D02*
X113225000Y-143971428D01*
X113153571Y-143828571D01*
X113153571Y-143614285D01*
X113225000Y-143471428D01*
X113367857Y-143400000D01*
X114153571Y-143400000D01*
X113153571Y-142900000D02*
X113153571Y-142328571D01*
X112653571Y-142685714D02*
X113939285Y-142685714D01*
X114082142Y-142614285D01*
X114153571Y-142471428D01*
X114153571Y-142328571D01*
X113153571Y-141828571D02*
X114439285Y-141828571D01*
X114582142Y-141900000D01*
X114653571Y-142042857D01*
X114653571Y-142114285D01*
X112653571Y-141828571D02*
X112725000Y-141900000D01*
X112796428Y-141828571D01*
X112725000Y-141757142D01*
X112653571Y-141828571D01*
X112796428Y-141828571D01*
X114153571Y-140900000D02*
X114082142Y-141042857D01*
X114010714Y-141114285D01*
X113867857Y-141185714D01*
X113439285Y-141185714D01*
X113296428Y-141114285D01*
X113225000Y-141042857D01*
X113153571Y-140900000D01*
X113153571Y-140685714D01*
X113225000Y-140542857D01*
X113296428Y-140471428D01*
X113439285Y-140400000D01*
X113867857Y-140400000D01*
X114010714Y-140471428D01*
X114082142Y-140542857D01*
X114153571Y-140685714D01*
X114153571Y-140900000D01*
X113153571Y-139900000D02*
X114153571Y-139542857D01*
X113153571Y-139185714D02*
X114153571Y-139542857D01*
X114510714Y-139685714D01*
X114582142Y-139757142D01*
X114653571Y-139900000D01*
X114153571Y-137471428D02*
X112653571Y-137471428D01*
X113725000Y-136971428D01*
X112653571Y-136471428D01*
X114153571Y-136471428D01*
X114153571Y-135542857D02*
X114082142Y-135685714D01*
X114010714Y-135757142D01*
X113867857Y-135828571D01*
X113439285Y-135828571D01*
X113296428Y-135757142D01*
X113225000Y-135685714D01*
X113153571Y-135542857D01*
X113153571Y-135328571D01*
X113225000Y-135185714D01*
X113296428Y-135114285D01*
X113439285Y-135042857D01*
X113867857Y-135042857D01*
X114010714Y-135114285D01*
X114082142Y-135185714D01*
X114153571Y-135328571D01*
X114153571Y-135542857D01*
X114153571Y-133757142D02*
X112653571Y-133757142D01*
X114082142Y-133757142D02*
X114153571Y-133900000D01*
X114153571Y-134185714D01*
X114082142Y-134328571D01*
X114010714Y-134400000D01*
X113867857Y-134471428D01*
X113439285Y-134471428D01*
X113296428Y-134400000D01*
X113225000Y-134328571D01*
X113153571Y-134185714D01*
X113153571Y-133900000D01*
X113225000Y-133757142D01*
X113153571Y-132400000D02*
X114153571Y-132400000D01*
X113153571Y-133042857D02*
X113939285Y-133042857D01*
X114082142Y-132971428D01*
X114153571Y-132828571D01*
X114153571Y-132614285D01*
X114082142Y-132471428D01*
X114010714Y-132400000D01*
X114153571Y-131471428D02*
X114082142Y-131614285D01*
X113939285Y-131685714D01*
X112653571Y-131685714D01*
X114153571Y-130257142D02*
X113367857Y-130257142D01*
X113225000Y-130328571D01*
X113153571Y-130471428D01*
X113153571Y-130757142D01*
X113225000Y-130900000D01*
X114082142Y-130257142D02*
X114153571Y-130400000D01*
X114153571Y-130757142D01*
X114082142Y-130900000D01*
X113939285Y-130971428D01*
X113796428Y-130971428D01*
X113653571Y-130900000D01*
X113582142Y-130757142D01*
X113582142Y-130400000D01*
X113510714Y-130257142D01*
X114153571Y-129542857D02*
X113153571Y-129542857D01*
X113439285Y-129542857D02*
X113296428Y-129471428D01*
X113225000Y-129400000D01*
X113153571Y-129257142D01*
X113153571Y-129114285D01*
D11*
X114614285Y-157142857D02*
X115357142Y-157142857D01*
X114957142Y-157600000D01*
X115128571Y-157600000D01*
X115242857Y-157657142D01*
X115300000Y-157714285D01*
X115357142Y-157828571D01*
X115357142Y-158114285D01*
X115300000Y-158228571D01*
X115242857Y-158285714D01*
X115128571Y-158342857D01*
X114785714Y-158342857D01*
X114671428Y-158285714D01*
X114614285Y-158228571D01*
X115700000Y-157142857D02*
X116100000Y-158342857D01*
X116500000Y-157142857D01*
X116785714Y-157142857D02*
X117528571Y-157142857D01*
X117128571Y-157600000D01*
X117300000Y-157600000D01*
X117414285Y-157657142D01*
X117471428Y-157714285D01*
X117528571Y-157828571D01*
X117528571Y-158114285D01*
X117471428Y-158228571D01*
X117414285Y-158285714D01*
X117300000Y-158342857D01*
X116957142Y-158342857D01*
X116842857Y-158285714D01*
X116785714Y-158228571D01*
X109200000Y-157142857D02*
X109942857Y-157142857D01*
X109542857Y-157600000D01*
X109714285Y-157600000D01*
X109828571Y-157657142D01*
X109885714Y-157714285D01*
X109942857Y-157828571D01*
X109942857Y-158114285D01*
X109885714Y-158228571D01*
X109828571Y-158285714D01*
X109714285Y-158342857D01*
X109371428Y-158342857D01*
X109257142Y-158285714D01*
X109200000Y-158228571D01*
X110285714Y-157142857D02*
X110685714Y-158342857D01*
X111085714Y-157142857D01*
X111371428Y-157142857D02*
X112114285Y-157142857D01*
X111714285Y-157600000D01*
X111885714Y-157600000D01*
X112000000Y-157657142D01*
X112057142Y-157714285D01*
X112114285Y-157828571D01*
X112114285Y-158114285D01*
X112057142Y-158228571D01*
X112000000Y-158285714D01*
X111885714Y-158342857D01*
X111542857Y-158342857D01*
X111428571Y-158285714D01*
X111371428Y-158228571D01*
X112571428Y-158000000D02*
X113142857Y-158000000D01*
X112457142Y-158342857D02*
X112857142Y-157142857D01*
X113257142Y-158342857D01*
X105485714Y-157200000D02*
X105371428Y-157142857D01*
X105200000Y-157142857D01*
X105028571Y-157200000D01*
X104914285Y-157314285D01*
X104857142Y-157428571D01*
X104800000Y-157657142D01*
X104800000Y-157828571D01*
X104857142Y-158057142D01*
X104914285Y-158171428D01*
X105028571Y-158285714D01*
X105200000Y-158342857D01*
X105314285Y-158342857D01*
X105485714Y-158285714D01*
X105542857Y-158228571D01*
X105542857Y-157828571D01*
X105314285Y-157828571D01*
X106057142Y-158342857D02*
X106057142Y-157142857D01*
X106742857Y-158342857D01*
X106742857Y-157142857D01*
X107314285Y-158342857D02*
X107314285Y-157142857D01*
X107600000Y-157142857D01*
X107771428Y-157200000D01*
X107885714Y-157314285D01*
X107942857Y-157428571D01*
X108000000Y-157657142D01*
X108000000Y-157828571D01*
X107942857Y-158057142D01*
X107885714Y-158171428D01*
X107771428Y-158285714D01*
X107600000Y-158342857D01*
X107314285Y-158342857D01*
X102157142Y-89085714D02*
X103071428Y-89085714D01*
X104214285Y-88342857D02*
X103642857Y-88342857D01*
X103585714Y-88914285D01*
X103642857Y-88857142D01*
X103757142Y-88800000D01*
X104042857Y-88800000D01*
X104157142Y-88857142D01*
X104214285Y-88914285D01*
X104271428Y-89028571D01*
X104271428Y-89314285D01*
X104214285Y-89428571D01*
X104157142Y-89485714D01*
X104042857Y-89542857D01*
X103757142Y-89542857D01*
X103642857Y-89485714D01*
X103585714Y-89428571D01*
X104614285Y-88342857D02*
X105014285Y-89542857D01*
X105414285Y-88342857D01*
X123885714Y-63085714D02*
X124800000Y-63085714D01*
X124342857Y-63542857D02*
X124342857Y-62628571D01*
X126000000Y-63542857D02*
X125314285Y-63542857D01*
X125657142Y-63542857D02*
X125657142Y-62342857D01*
X125542857Y-62514285D01*
X125428571Y-62628571D01*
X125314285Y-62685714D01*
X126457142Y-62457142D02*
X126514285Y-62400000D01*
X126628571Y-62342857D01*
X126914285Y-62342857D01*
X127028571Y-62400000D01*
X127085714Y-62457142D01*
X127142857Y-62571428D01*
X127142857Y-62685714D01*
X127085714Y-62857142D01*
X126400000Y-63542857D01*
X127142857Y-63542857D01*
X127485714Y-62342857D02*
X127885714Y-63542857D01*
X128285714Y-62342857D01*
X109885714Y-63085714D02*
X110800000Y-63085714D01*
X112000000Y-63542857D02*
X111314285Y-63542857D01*
X111657142Y-63542857D02*
X111657142Y-62342857D01*
X111542857Y-62514285D01*
X111428571Y-62628571D01*
X111314285Y-62685714D01*
X112457142Y-62457142D02*
X112514285Y-62400000D01*
X112628571Y-62342857D01*
X112914285Y-62342857D01*
X113028571Y-62400000D01*
X113085714Y-62457142D01*
X113142857Y-62571428D01*
X113142857Y-62685714D01*
X113085714Y-62857142D01*
X112400000Y-63542857D01*
X113142857Y-63542857D01*
X113485714Y-62342857D02*
X113885714Y-63542857D01*
X114285714Y-62342857D01*
D13*
X148909523Y-96861904D02*
X148909523Y-96061904D01*
X149214285Y-96061904D01*
X149290476Y-96100000D01*
X149328571Y-96138095D01*
X149366666Y-96214285D01*
X149366666Y-96328571D01*
X149328571Y-96404761D01*
X149290476Y-96442857D01*
X149214285Y-96480952D01*
X148909523Y-96480952D01*
X150166666Y-96785714D02*
X150128571Y-96823809D01*
X150014285Y-96861904D01*
X149938095Y-96861904D01*
X149823809Y-96823809D01*
X149747619Y-96747619D01*
X149709523Y-96671428D01*
X149671428Y-96519047D01*
X149671428Y-96404761D01*
X149709523Y-96252380D01*
X149747619Y-96176190D01*
X149823809Y-96100000D01*
X149938095Y-96061904D01*
X150014285Y-96061904D01*
X150128571Y-96100000D01*
X150166666Y-96138095D01*
X150509523Y-96861904D02*
X150509523Y-96061904D01*
X150776190Y-96633333D01*
X151042857Y-96061904D01*
X151042857Y-96861904D01*
X151804761Y-96061904D02*
X151423809Y-96061904D01*
X151385714Y-96442857D01*
X151423809Y-96404761D01*
X151500000Y-96366666D01*
X151690476Y-96366666D01*
X151766666Y-96404761D01*
X151804761Y-96442857D01*
X151842857Y-96519047D01*
X151842857Y-96709523D01*
X151804761Y-96785714D01*
X151766666Y-96823809D01*
X151690476Y-96861904D01*
X151500000Y-96861904D01*
X151423809Y-96823809D01*
X151385714Y-96785714D01*
X152604761Y-96861904D02*
X152147619Y-96861904D01*
X152376190Y-96861904D02*
X152376190Y-96061904D01*
X152300000Y-96176190D01*
X152223809Y-96252380D01*
X152147619Y-96290476D01*
X153100000Y-96061904D02*
X153176190Y-96061904D01*
X153252380Y-96100000D01*
X153290476Y-96138095D01*
X153328571Y-96214285D01*
X153366666Y-96366666D01*
X153366666Y-96557142D01*
X153328571Y-96709523D01*
X153290476Y-96785714D01*
X153252380Y-96823809D01*
X153176190Y-96861904D01*
X153100000Y-96861904D01*
X153023809Y-96823809D01*
X152985714Y-96785714D01*
X152947619Y-96709523D01*
X152909523Y-96557142D01*
X152909523Y-96366666D01*
X152947619Y-96214285D01*
X152985714Y-96138095D01*
X153023809Y-96100000D01*
X153100000Y-96061904D01*
X153861904Y-96061904D02*
X153938095Y-96061904D01*
X154014285Y-96100000D01*
X154052380Y-96138095D01*
X154090476Y-96214285D01*
X154128571Y-96366666D01*
X154128571Y-96557142D01*
X154090476Y-96709523D01*
X154052380Y-96785714D01*
X154014285Y-96823809D01*
X153938095Y-96861904D01*
X153861904Y-96861904D01*
X153785714Y-96823809D01*
X153747619Y-96785714D01*
X153709523Y-96709523D01*
X153671428Y-96557142D01*
X153671428Y-96366666D01*
X153709523Y-96214285D01*
X153747619Y-96138095D01*
X153785714Y-96100000D01*
X153861904Y-96061904D01*
X150547619Y-98161904D02*
X150547619Y-97361904D01*
X150738095Y-97361904D01*
X150852380Y-97400000D01*
X150928571Y-97476190D01*
X150966666Y-97552380D01*
X151004761Y-97704761D01*
X151004761Y-97819047D01*
X150966666Y-97971428D01*
X150928571Y-98047619D01*
X150852380Y-98123809D01*
X150738095Y-98161904D01*
X150547619Y-98161904D01*
X151309523Y-97933333D02*
X151690476Y-97933333D01*
X151233333Y-98161904D02*
X151500000Y-97361904D01*
X151766666Y-98161904D01*
X152490476Y-98085714D02*
X152452380Y-98123809D01*
X152338095Y-98161904D01*
X152261904Y-98161904D01*
X152147619Y-98123809D01*
X152071428Y-98047619D01*
X152033333Y-97971428D01*
X151995238Y-97819047D01*
X151995238Y-97704761D01*
X152033333Y-97552380D01*
X152071428Y-97476190D01*
X152147619Y-97400000D01*
X152261904Y-97361904D01*
X152338095Y-97361904D01*
X152452380Y-97400000D01*
X152490476Y-97438095D01*
D12*
X126023607Y-81100000D02*
G75*
G03*
X126023607Y-81100000I-223607J0D01*
G01*
X154923607Y-93050000D02*
G75*
G03*
X154923607Y-93050000I-223607J0D01*
G01*
X145223607Y-107100000D02*
G75*
G03*
X145223607Y-107100000I-223607J0D01*
G01*
X105423607Y-112900000D02*
G75*
G03*
X105423607Y-112900000I-223607J0D01*
G01*
X118723607Y-94300000D02*
G75*
G03*
X118723607Y-94300000I-223607J0D01*
G01*
X119723607Y-74000000D02*
G75*
G03*
X119723607Y-74000000I-223607J0D01*
G01*
D13*
G36*
X111800000Y-53200000D02*
G01*
X111100000Y-53200000D01*
X111100000Y-50900000D01*
X111800000Y-50900000D01*
X111800000Y-53200000D01*
G37*
X111800000Y-53200000D02*
X111100000Y-53200000D01*
X111100000Y-50900000D01*
X111800000Y-50900000D01*
X111800000Y-53200000D01*
D15*
X137600000Y-98200000D02*
X130900000Y-98200000D01*
X130900000Y-98200000D02*
X130900000Y-101800000D01*
X130900000Y-101800000D02*
X137600000Y-101800000D01*
D13*
G36*
X116400000Y-51000000D02*
G01*
X118400000Y-51000000D01*
X118400000Y-60900000D01*
X116400000Y-60900000D01*
X116400000Y-51000000D01*
G37*
X116400000Y-51000000D02*
X118400000Y-51000000D01*
X118400000Y-60900000D01*
X116400000Y-60900000D01*
X116400000Y-51000000D01*
D10*
X114750000Y-51360000D02*
X115250000Y-51360000D01*
X115250000Y-51260000D02*
X115250000Y-51460000D01*
X114750000Y-51260000D02*
X115250000Y-51260000D01*
X114750000Y-51460000D02*
X114750000Y-51260000D01*
X129710000Y-51360000D02*
X130210000Y-51360000D01*
X130210000Y-51260000D02*
X130210000Y-51460000D01*
X129710000Y-51260000D02*
X130210000Y-51260000D01*
X129710000Y-51460000D02*
X129710000Y-51260000D01*
X122230000Y-51360000D02*
X122730000Y-51360000D01*
X122730000Y-51260000D02*
X122730000Y-51460000D01*
X122230000Y-51260000D02*
X122730000Y-51260000D01*
X122230000Y-51460000D02*
X122230000Y-51260000D01*
X124705000Y-59100000D02*
X124705000Y-60400000D01*
X131430000Y-59100000D02*
X124705000Y-59100000D01*
X131430000Y-52760000D02*
X131430000Y-59100000D01*
X113530000Y-52760000D02*
X131430000Y-52760000D01*
X113530000Y-59100000D02*
X113530000Y-52760000D01*
X120255000Y-59100000D02*
X113530000Y-59100000D01*
X120255000Y-60400000D02*
X120255000Y-59100000D01*
X132630000Y-60400000D02*
X112330000Y-60400000D01*
X132630000Y-51460000D02*
X132630000Y-60400000D01*
X112330000Y-51460000D02*
X132630000Y-51460000D01*
X112330000Y-60400000D02*
X112330000Y-51460000D01*
D15*
X141530000Y-63130000D02*
X141530000Y-64680000D01*
X141530000Y-68470000D02*
X141530000Y-66920000D01*
X146870000Y-63890000D02*
X146870000Y-64680000D01*
X146870000Y-67710000D02*
X146870000Y-66920000D01*
X141530000Y-68470000D02*
X146110000Y-68470000D01*
X146110000Y-68470000D02*
X146870000Y-67710000D01*
X146870000Y-63890000D02*
X146110000Y-63130000D01*
X146110000Y-63130000D02*
X141530000Y-63130000D01*
X134130000Y-57430000D02*
X134130000Y-58980000D01*
X134130000Y-62770000D02*
X134130000Y-61220000D01*
X139470000Y-58190000D02*
X139470000Y-58980000D01*
X139470000Y-62010000D02*
X139470000Y-61220000D01*
X134130000Y-62770000D02*
X138710000Y-62770000D01*
X138710000Y-62770000D02*
X139470000Y-62010000D01*
X139470000Y-58190000D02*
X138710000Y-57430000D01*
X138710000Y-57430000D02*
X134130000Y-57430000D01*
X120950000Y-108600000D02*
X121650000Y-108600000D01*
X121650000Y-109800000D02*
X120950000Y-109800000D01*
X147200000Y-80750000D02*
X147200000Y-80050000D01*
X148400000Y-80050000D02*
X148400000Y-80750000D01*
X131800000Y-84550000D02*
X131800000Y-85250000D01*
X130600000Y-85250000D02*
X130600000Y-84550000D01*
X103800000Y-119450000D02*
X103800000Y-120150000D01*
X102600000Y-120150000D02*
X102600000Y-119450000D01*
X148390000Y-66410000D02*
X149650000Y-66410000D01*
X155210000Y-66410000D02*
X153950000Y-66410000D01*
X148390000Y-62650000D02*
X148390000Y-66410000D01*
X155210000Y-60400000D02*
X155210000Y-66410000D01*
X126200000Y-71850000D02*
X126200000Y-71150000D01*
X127400000Y-71150000D02*
X127400000Y-71850000D01*
X135000000Y-71850000D02*
X135000000Y-71150000D01*
X136200000Y-71150000D02*
X136200000Y-71850000D01*
X138400000Y-84550000D02*
X138400000Y-85250000D01*
X137200000Y-85250000D02*
X137200000Y-84550000D01*
X125200000Y-84450000D02*
X125200000Y-85150000D01*
X124000000Y-85150000D02*
X124000000Y-84450000D01*
X135000000Y-90850000D02*
X135000000Y-91550000D01*
X133800000Y-91550000D02*
X133800000Y-90850000D01*
X128400000Y-90850000D02*
X128400000Y-91550000D01*
X127200000Y-91550000D02*
X127200000Y-90850000D01*
X134510000Y-67320000D02*
X134510000Y-66920000D01*
X139090000Y-68090000D02*
X139090000Y-66920000D01*
X139090000Y-63510000D02*
X139090000Y-64680000D01*
X134510000Y-64280000D02*
X134510000Y-64680000D01*
X135280000Y-68090000D02*
X139090000Y-68090000D01*
X135280000Y-68090000D02*
X134510000Y-67320000D01*
X135280000Y-63510000D02*
X139090000Y-63510000D01*
X135280000Y-63510000D02*
X134510000Y-64280000D01*
X141000000Y-52350000D02*
X141000000Y-53050000D01*
X139800000Y-53050000D02*
X139800000Y-52350000D01*
X114820000Y-85400000D02*
X114820000Y-84400000D01*
X116180000Y-84400000D02*
X116180000Y-85400000D01*
X125880000Y-99500000D02*
X125880000Y-100500000D01*
X124520000Y-100500000D02*
X124520000Y-99500000D01*
X124080000Y-99500000D02*
X124080000Y-100500000D01*
X122720000Y-100500000D02*
X122720000Y-99500000D01*
X111400000Y-110280000D02*
X110400000Y-110280000D01*
X110400000Y-108920000D02*
X111400000Y-108920000D01*
X104180000Y-99500000D02*
X104180000Y-100500000D01*
X102820000Y-100500000D02*
X102820000Y-99500000D01*
X145925000Y-142525000D02*
X145925000Y-143725000D01*
X145925000Y-143725000D02*
X146325000Y-143725000D01*
X146325000Y-143725000D02*
X146325000Y-154325000D01*
X123725000Y-143725000D02*
X123725000Y-154325000D01*
X146325000Y-154325000D02*
X145925000Y-154325000D01*
X124125000Y-154325000D02*
X123725000Y-154325000D01*
X124125000Y-143725000D02*
X123725000Y-143725000D01*
X149100000Y-51600000D02*
X150800000Y-51600000D01*
X149100000Y-58200000D02*
X149100000Y-51600000D01*
X150800000Y-58200000D02*
X149100000Y-58200000D01*
X155500000Y-58200000D02*
X153800000Y-58200000D01*
X155500000Y-51600000D02*
X155500000Y-58200000D01*
X153800000Y-51600000D02*
X155500000Y-51600000D01*
X156220000Y-56000000D02*
X156220000Y-58000000D01*
X159180000Y-58000000D02*
X159180000Y-56000000D01*
X135600000Y-56580000D02*
X137600000Y-56580000D01*
X137600000Y-53620000D02*
X135600000Y-53620000D01*
X147200000Y-56550000D02*
X147200000Y-55850000D01*
X148400000Y-55850000D02*
X148400000Y-56550000D01*
X146650000Y-62700000D02*
X146650000Y-60700000D01*
X146650000Y-60700000D02*
X142750000Y-60700000D01*
X146650000Y-62700000D02*
X142750000Y-62700000D01*
D10*
X146875000Y-54225000D02*
X146825000Y-54225000D01*
X146875000Y-58375000D02*
X146730000Y-58375000D01*
X141725000Y-58375000D02*
X141870000Y-58375000D01*
X141725000Y-54225000D02*
X141870000Y-54225000D01*
X146875000Y-54225000D02*
X146875000Y-58375000D01*
X141725000Y-54225000D02*
X141725000Y-58375000D01*
X146825000Y-54225000D02*
X146825000Y-52825000D01*
D15*
X105100000Y-125420000D02*
X106100000Y-125420000D01*
X106100000Y-126780000D02*
X105100000Y-126780000D01*
X142120000Y-88500000D02*
X142120000Y-87500000D01*
X143480000Y-87500000D02*
X143480000Y-88500000D01*
X143480000Y-74100000D02*
X143480000Y-75100000D01*
X142120000Y-75100000D02*
X142120000Y-74100000D01*
X140320000Y-88500000D02*
X140320000Y-87500000D01*
X141680000Y-87500000D02*
X141680000Y-88500000D01*
X141680000Y-74100000D02*
X141680000Y-75100000D01*
X140320000Y-75100000D02*
X140320000Y-74100000D01*
X106300000Y-112080000D02*
X105300000Y-112080000D01*
X105300000Y-110720000D02*
X106300000Y-110720000D01*
X105300000Y-108920000D02*
X106300000Y-108920000D01*
X106300000Y-110280000D02*
X105300000Y-110280000D01*
X106300000Y-108480000D02*
X105300000Y-108480000D01*
X105300000Y-107120000D02*
X106300000Y-107120000D01*
X103800000Y-114550000D02*
X103800000Y-115250000D01*
X102600000Y-115250000D02*
X102600000Y-114550000D01*
D10*
X145325000Y-79025000D02*
X145275000Y-79025000D01*
X145325000Y-83175000D02*
X145180000Y-83175000D01*
X140175000Y-83175000D02*
X140320000Y-83175000D01*
X140175000Y-79025000D02*
X140320000Y-79025000D01*
X145325000Y-79025000D02*
X145325000Y-83175000D01*
X140175000Y-79025000D02*
X140175000Y-83175000D01*
X145275000Y-79025000D02*
X145275000Y-77625000D01*
X154975000Y-99625000D02*
X154875000Y-99625000D01*
X148150000Y-99625000D02*
X148175000Y-99625000D01*
X148150000Y-94975000D02*
X148175000Y-94975000D01*
X154975000Y-93900000D02*
X154975000Y-99625000D01*
X148150000Y-94975000D02*
X148150000Y-99625000D01*
D15*
X110420000Y-59890000D02*
X110020000Y-59890000D01*
X111190000Y-55310000D02*
X110020000Y-55310000D01*
X106610000Y-55310000D02*
X107780000Y-55310000D01*
X107380000Y-59890000D02*
X107780000Y-59890000D01*
X111190000Y-59120000D02*
X111190000Y-55310000D01*
X111190000Y-59120000D02*
X110420000Y-59890000D01*
X106610000Y-59120000D02*
X106610000Y-55310000D01*
X106610000Y-59120000D02*
X107380000Y-59890000D01*
X120020000Y-72000000D02*
X120020000Y-71000000D01*
X121380000Y-71000000D02*
X121380000Y-72000000D01*
X103400000Y-52320000D02*
X104400000Y-52320000D01*
X104400000Y-53680000D02*
X103400000Y-53680000D01*
X123000000Y-71150000D02*
X123000000Y-71850000D01*
X121800000Y-71850000D02*
X121800000Y-71150000D01*
X104250000Y-55500000D02*
X103550000Y-55500000D01*
X103550000Y-54300000D02*
X104250000Y-54300000D01*
X151100000Y-91150000D02*
X151100000Y-90450000D01*
X152300000Y-90450000D02*
X152300000Y-91150000D01*
X153300000Y-91250000D02*
X153300000Y-90550000D01*
X154500000Y-90550000D02*
X154500000Y-91250000D01*
X121500000Y-129050000D02*
X121500000Y-129750000D01*
X120300000Y-129750000D02*
X120300000Y-129050000D01*
X143400000Y-132275000D02*
X143400000Y-132975000D01*
X142200000Y-132975000D02*
X142200000Y-132275000D01*
X112200000Y-92750000D02*
X113200000Y-92750000D01*
X113200000Y-91050000D02*
X112200000Y-91050000D01*
X160030000Y-158350000D02*
X160030000Y-149650000D01*
X153620000Y-158350000D02*
X153620000Y-149650000D01*
X153620000Y-149650000D02*
X160030000Y-149650000D01*
X158800000Y-149650000D02*
X158800000Y-158350000D01*
X160030000Y-158350000D02*
X153620000Y-158350000D01*
X132880000Y-65200000D02*
X132880000Y-66400000D01*
X131120000Y-66400000D02*
X131120000Y-65200000D01*
X149750000Y-109900000D02*
X149050000Y-109900000D01*
X149050000Y-108700000D02*
X149750000Y-108700000D01*
X149850000Y-116275000D02*
X149150000Y-116275000D01*
X149150000Y-115075000D02*
X149850000Y-115075000D01*
X144185000Y-107815000D02*
X144185000Y-106525000D01*
X145135000Y-107815000D02*
X144185000Y-107815000D01*
X145135000Y-108765000D02*
X145135000Y-107815000D01*
X145135000Y-128035000D02*
X144185000Y-128035000D01*
X145135000Y-127085000D02*
X145135000Y-128035000D01*
X124915000Y-107815000D02*
X125865000Y-107815000D01*
X124915000Y-108765000D02*
X124915000Y-107815000D01*
X124915000Y-128035000D02*
X125865000Y-128035000D01*
X124915000Y-127085000D02*
X124915000Y-128035000D01*
X106400000Y-95250000D02*
X106400000Y-94550000D01*
X107600000Y-94550000D02*
X107600000Y-95250000D01*
X104180000Y-94400000D02*
X104180000Y-95400000D01*
X102820000Y-95400000D02*
X102820000Y-94400000D01*
X105980000Y-94400000D02*
X105980000Y-95400000D01*
X104620000Y-95400000D02*
X104620000Y-94400000D01*
D10*
X119025000Y-76025000D02*
X119000000Y-76025000D01*
X119025000Y-80175000D02*
X118920000Y-80175000D01*
X108875000Y-80175000D02*
X108980000Y-80175000D01*
X108875000Y-76025000D02*
X108980000Y-76025000D01*
X119025000Y-76025000D02*
X119025000Y-80175000D01*
X108875000Y-76025000D02*
X108875000Y-80175000D01*
X119000000Y-76025000D02*
X119000000Y-74650000D01*
X136230000Y-75614000D02*
X136230000Y-80440000D01*
X136230000Y-80440000D02*
X126070000Y-80440000D01*
X126070000Y-80440000D02*
X126070000Y-75614000D01*
X126070000Y-75614000D02*
X136230000Y-75614000D01*
X126070000Y-77392000D02*
X126705000Y-77392000D01*
X126705000Y-77392000D02*
X126705000Y-78662000D01*
X126705000Y-78662000D02*
X126070000Y-78662000D01*
X110786000Y-122980000D02*
X105960000Y-122980000D01*
X105960000Y-122980000D02*
X105960000Y-112820000D01*
X105960000Y-112820000D02*
X110786000Y-112820000D01*
X110786000Y-112820000D02*
X110786000Y-122980000D01*
X109008000Y-112820000D02*
X109008000Y-113455000D01*
X109008000Y-113455000D02*
X107738000Y-113455000D01*
X107738000Y-113455000D02*
X107738000Y-112820000D01*
X108220000Y-99886000D02*
X108220000Y-95060000D01*
X108220000Y-95060000D02*
X118380000Y-95060000D01*
X118380000Y-95060000D02*
X118380000Y-99886000D01*
X118380000Y-99886000D02*
X108220000Y-99886000D01*
X118380000Y-98108000D02*
X117745000Y-98108000D01*
X117745000Y-98108000D02*
X117745000Y-96838000D01*
X117745000Y-96838000D02*
X118380000Y-96838000D01*
D15*
X135520000Y-85400000D02*
X135520000Y-84400000D01*
X136880000Y-84400000D02*
X136880000Y-85400000D01*
X125520000Y-85400000D02*
X125520000Y-84400000D01*
X126880000Y-84400000D02*
X126880000Y-85400000D01*
X133820000Y-85400000D02*
X133820000Y-84400000D01*
X135180000Y-84400000D02*
X135180000Y-85400000D01*
X127220000Y-85400000D02*
X127220000Y-84400000D01*
X128580000Y-84400000D02*
X128580000Y-85400000D01*
X132120000Y-85400000D02*
X132120000Y-84400000D01*
X133480000Y-84400000D02*
X133480000Y-85400000D01*
X128920000Y-85400000D02*
X128920000Y-84400000D01*
X130280000Y-84400000D02*
X130280000Y-85400000D01*
X110500000Y-123620000D02*
X111500000Y-123620000D01*
X111500000Y-124980000D02*
X110500000Y-124980000D01*
X111500000Y-126780000D02*
X110500000Y-126780000D01*
X110500000Y-125420000D02*
X111500000Y-125420000D01*
X105100000Y-123620000D02*
X106100000Y-123620000D01*
X106100000Y-124980000D02*
X105100000Y-124980000D01*
X122280000Y-99500000D02*
X122280000Y-100500000D01*
X120920000Y-100500000D02*
X120920000Y-99500000D01*
X105980000Y-99500000D02*
X105980000Y-100500000D01*
X104620000Y-100500000D02*
X104620000Y-99500000D01*
X102380000Y-99500000D02*
X102380000Y-100500000D01*
X101020000Y-100500000D02*
X101020000Y-99500000D01*
X143920000Y-75100000D02*
X143920000Y-74100000D01*
X145280000Y-74100000D02*
X145280000Y-75100000D01*
X145280000Y-87500000D02*
X145280000Y-88500000D01*
X143920000Y-88500000D02*
X143920000Y-87500000D01*
X129380000Y-71000000D02*
X129380000Y-72000000D01*
X128020000Y-72000000D02*
X128020000Y-71000000D01*
X134330000Y-71050000D02*
X134330000Y-72050000D01*
X132970000Y-72050000D02*
X132970000Y-71050000D01*
X110720000Y-72000000D02*
X110720000Y-71000000D01*
X112080000Y-71000000D02*
X112080000Y-72000000D01*
X116020000Y-72000000D02*
X116020000Y-71000000D01*
X117380000Y-71000000D02*
X117380000Y-72000000D01*
X117980000Y-84400000D02*
X117980000Y-85400000D01*
X116620000Y-85400000D02*
X116620000Y-84400000D01*
X110280000Y-71000000D02*
X110280000Y-72000000D01*
X108920000Y-72000000D02*
X108920000Y-71000000D01*
X122720000Y-95500000D02*
X122720000Y-94500000D01*
X124080000Y-94500000D02*
X124080000Y-95500000D01*
X110400000Y-110720000D02*
X111400000Y-110720000D01*
X111400000Y-112080000D02*
X110400000Y-112080000D01*
X119080000Y-71000000D02*
X119080000Y-72000000D01*
X117720000Y-72000000D02*
X117720000Y-71000000D01*
X122280000Y-94500000D02*
X122280000Y-95500000D01*
X120920000Y-95500000D02*
X120920000Y-94500000D01*
X124420000Y-95500000D02*
X124420000Y-94500000D01*
X125780000Y-94500000D02*
X125780000Y-95500000D01*
X101020000Y-95400000D02*
X101020000Y-94400000D01*
X102380000Y-94400000D02*
X102380000Y-95400000D01*
X110400000Y-107120000D02*
X111400000Y-107120000D01*
X111400000Y-108480000D02*
X110400000Y-108480000D01*
X111380000Y-84400000D02*
X111380000Y-85400000D01*
X110020000Y-85400000D02*
X110020000Y-84400000D01*
X111720000Y-85400000D02*
X111720000Y-84400000D01*
X113080000Y-84400000D02*
X113080000Y-85400000D01*
D10*
X156230000Y-113810000D02*
X156230000Y-123970000D01*
X158770000Y-113810000D02*
X156230000Y-113810000D01*
X158770000Y-123970000D02*
X158770000Y-113810000D01*
X156230000Y-123970000D02*
X158770000Y-123970000D01*
D15*
X111150000Y-53100000D02*
X111150000Y-51100000D01*
X111150000Y-51100000D02*
X107250000Y-51100000D01*
X111150000Y-53100000D02*
X107250000Y-53100000D01*
X138850000Y-53100000D02*
X138850000Y-51100000D01*
X138850000Y-51100000D02*
X134950000Y-51100000D01*
X138850000Y-53100000D02*
X134950000Y-53100000D01*
X102320000Y-58460000D02*
X103250000Y-58460000D01*
X105480000Y-58460000D02*
X104550000Y-58460000D01*
X105480000Y-58460000D02*
X105480000Y-56300000D01*
X102320000Y-58460000D02*
X102320000Y-57000000D01*
X114400000Y-114450000D02*
X114400000Y-115150000D01*
X113200000Y-115150000D02*
X113200000Y-114450000D01*
X123600000Y-139050000D02*
X123600000Y-139750000D01*
X122400000Y-139750000D02*
X122400000Y-139050000D01*
X157450000Y-103800000D02*
X157450000Y-102800000D01*
X155750000Y-102800000D02*
X155750000Y-103800000D01*
X136325000Y-139025000D02*
X136325000Y-139725000D01*
X135125000Y-139725000D02*
X135125000Y-139025000D01*
X146300000Y-139050000D02*
X146300000Y-139750000D01*
X145100000Y-139750000D02*
X145100000Y-139050000D01*
X152525000Y-103650000D02*
X152525000Y-102950000D01*
X153725000Y-102950000D02*
X153725000Y-103650000D01*
X119300000Y-100350000D02*
X119300000Y-99650000D01*
X120500000Y-99650000D02*
X120500000Y-100350000D01*
X106400000Y-100350000D02*
X106400000Y-99650000D01*
X107600000Y-99650000D02*
X107600000Y-100350000D01*
X120500000Y-94650000D02*
X120500000Y-95350000D01*
X119300000Y-95350000D02*
X119300000Y-94650000D01*
X113700000Y-71150000D02*
X113700000Y-71850000D01*
X112500000Y-71850000D02*
X112500000Y-71150000D01*
X115600000Y-71150000D02*
X115600000Y-71850000D01*
X114400000Y-71850000D02*
X114400000Y-71150000D01*
X142825000Y-157875000D02*
X142125000Y-157875000D01*
X142125000Y-156675000D02*
X142825000Y-156675000D01*
X137950000Y-157875000D02*
X137250000Y-157875000D01*
X137250000Y-156675000D02*
X137950000Y-156675000D01*
X155325000Y-102950000D02*
X155325000Y-103650000D01*
X154125000Y-103650000D02*
X154125000Y-102950000D01*
X118400000Y-85250000D02*
X118400000Y-84550000D01*
X119600000Y-84550000D02*
X119600000Y-85250000D01*
X155550000Y-90300000D02*
X155550000Y-91300000D01*
X157250000Y-91300000D02*
X157250000Y-90300000D01*
X128400000Y-103550000D02*
X128400000Y-104250000D01*
X127200000Y-104250000D02*
X127200000Y-103550000D01*
X140125000Y-139050000D02*
X140125000Y-139750000D01*
X138925000Y-139750000D02*
X138925000Y-139050000D01*
X136725000Y-132950000D02*
X136725000Y-132250000D01*
X137925000Y-132250000D02*
X137925000Y-132950000D01*
X108400000Y-85250000D02*
X108400000Y-84550000D01*
X109600000Y-84550000D02*
X109600000Y-85250000D01*
X149300000Y-91150000D02*
X149300000Y-90450000D01*
X150500000Y-90450000D02*
X150500000Y-91150000D01*
X144425000Y-139050000D02*
X144425000Y-139750000D01*
X143225000Y-139750000D02*
X143225000Y-139050000D01*
X149850000Y-121300000D02*
X149150000Y-121300000D01*
X149150000Y-120100000D02*
X149850000Y-120100000D01*
X144525000Y-132975000D02*
X144525000Y-132275000D01*
X145725000Y-132275000D02*
X145725000Y-132975000D01*
X157000000Y-94950000D02*
X157000000Y-95650000D01*
X155800000Y-95650000D02*
X155800000Y-94950000D01*
X131125000Y-132975000D02*
X131125000Y-132275000D01*
X132325000Y-132275000D02*
X132325000Y-132975000D01*
X122900000Y-129750000D02*
X122900000Y-129050000D01*
X124100000Y-129050000D02*
X124100000Y-129750000D01*
X120950000Y-121400000D02*
X121650000Y-121400000D01*
X121650000Y-122600000D02*
X120950000Y-122600000D01*
X120950000Y-115500000D02*
X121650000Y-115500000D01*
X121650000Y-116700000D02*
X120950000Y-116700000D01*
X137050000Y-105200000D02*
X136350000Y-105200000D01*
X136350000Y-104000000D02*
X137050000Y-104000000D01*
X130500000Y-99650000D02*
X130500000Y-100350000D01*
X129300000Y-100350000D02*
X129300000Y-99650000D01*
X140500000Y-99650000D02*
X140500000Y-100350000D01*
X139300000Y-100350000D02*
X139300000Y-99650000D01*
X129900000Y-103550000D02*
X129900000Y-104250000D01*
X128700000Y-104250000D02*
X128700000Y-103550000D01*
D10*
X134423809Y-97176190D02*
X134423809Y-97652380D01*
X134090476Y-96652380D02*
X134423809Y-97176190D01*
X134757142Y-96652380D01*
X135614285Y-97652380D02*
X135042857Y-97652380D01*
X135328571Y-97652380D02*
X135328571Y-96652380D01*
X135233333Y-96795238D01*
X135138095Y-96890476D01*
X135042857Y-96938095D01*
X115071428Y-58161904D02*
X115071428Y-57400000D01*
X115452380Y-56400000D02*
X115452380Y-56971428D01*
X115452380Y-56685714D02*
X114452380Y-56685714D01*
X114595238Y-56780952D01*
X114690476Y-56876190D01*
X114738095Y-56971428D01*
X114547619Y-56019047D02*
X114500000Y-55971428D01*
X114452380Y-55876190D01*
X114452380Y-55638095D01*
X114500000Y-55542857D01*
X114547619Y-55495238D01*
X114642857Y-55447619D01*
X114738095Y-55447619D01*
X114880952Y-55495238D01*
X115452380Y-56066666D01*
X115452380Y-55447619D01*
X114452380Y-55161904D02*
X115452380Y-54828571D01*
X114452380Y-54495238D01*
X143457142Y-64357142D02*
X143409523Y-64404761D01*
X143266666Y-64452380D01*
X143171428Y-64452380D01*
X143028571Y-64404761D01*
X142933333Y-64309523D01*
X142885714Y-64214285D01*
X142838095Y-64023809D01*
X142838095Y-63880952D01*
X142885714Y-63690476D01*
X142933333Y-63595238D01*
X143028571Y-63500000D01*
X143171428Y-63452380D01*
X143266666Y-63452380D01*
X143409523Y-63500000D01*
X143457142Y-63547619D01*
X144314285Y-63452380D02*
X144123809Y-63452380D01*
X144028571Y-63500000D01*
X143980952Y-63547619D01*
X143885714Y-63690476D01*
X143838095Y-63880952D01*
X143838095Y-64261904D01*
X143885714Y-64357142D01*
X143933333Y-64404761D01*
X144028571Y-64452380D01*
X144219047Y-64452380D01*
X144314285Y-64404761D01*
X144361904Y-64357142D01*
X144409523Y-64261904D01*
X144409523Y-64023809D01*
X144361904Y-63928571D01*
X144314285Y-63880952D01*
X144219047Y-63833333D01*
X144028571Y-63833333D01*
X143933333Y-63880952D01*
X143885714Y-63928571D01*
X143838095Y-64023809D01*
X145361904Y-64452380D02*
X144790476Y-64452380D01*
X145076190Y-64452380D02*
X145076190Y-63452380D01*
X144980952Y-63595238D01*
X144885714Y-63690476D01*
X144790476Y-63738095D01*
X147199047Y-63521428D02*
X147960952Y-63521428D01*
X147580000Y-63902380D02*
X147580000Y-63140476D01*
X131857142Y-62157142D02*
X131809523Y-62204761D01*
X131666666Y-62252380D01*
X131571428Y-62252380D01*
X131428571Y-62204761D01*
X131333333Y-62109523D01*
X131285714Y-62014285D01*
X131238095Y-61823809D01*
X131238095Y-61680952D01*
X131285714Y-61490476D01*
X131333333Y-61395238D01*
X131428571Y-61300000D01*
X131571428Y-61252380D01*
X131666666Y-61252380D01*
X131809523Y-61300000D01*
X131857142Y-61347619D01*
X132714285Y-61585714D02*
X132714285Y-62252380D01*
X132476190Y-61204761D02*
X132238095Y-61919047D01*
X132857142Y-61919047D01*
X133142857Y-61252380D02*
X133761904Y-61252380D01*
X133428571Y-61633333D01*
X133571428Y-61633333D01*
X133666666Y-61680952D01*
X133714285Y-61728571D01*
X133761904Y-61823809D01*
X133761904Y-62061904D01*
X133714285Y-62157142D01*
X133666666Y-62204761D01*
X133571428Y-62252380D01*
X133285714Y-62252380D01*
X133190476Y-62204761D01*
X133142857Y-62157142D01*
X139799047Y-57821428D02*
X140560952Y-57821428D01*
X140180000Y-58202380D02*
X140180000Y-57440476D01*
X121133333Y-111057142D02*
X121085714Y-111104761D01*
X120942857Y-111152380D01*
X120847619Y-111152380D01*
X120704761Y-111104761D01*
X120609523Y-111009523D01*
X120561904Y-110914285D01*
X120514285Y-110723809D01*
X120514285Y-110580952D01*
X120561904Y-110390476D01*
X120609523Y-110295238D01*
X120704761Y-110200000D01*
X120847619Y-110152380D01*
X120942857Y-110152380D01*
X121085714Y-110200000D01*
X121133333Y-110247619D01*
X122038095Y-110152380D02*
X121561904Y-110152380D01*
X121514285Y-110628571D01*
X121561904Y-110580952D01*
X121657142Y-110533333D01*
X121895238Y-110533333D01*
X121990476Y-110580952D01*
X122038095Y-110628571D01*
X122085714Y-110723809D01*
X122085714Y-110961904D01*
X122038095Y-111057142D01*
X121990476Y-111104761D01*
X121895238Y-111152380D01*
X121657142Y-111152380D01*
X121561904Y-111104761D01*
X121514285Y-111057142D01*
X149657142Y-81042857D02*
X149704761Y-81090476D01*
X149752380Y-81233333D01*
X149752380Y-81328571D01*
X149704761Y-81471428D01*
X149609523Y-81566666D01*
X149514285Y-81614285D01*
X149323809Y-81661904D01*
X149180952Y-81661904D01*
X148990476Y-81614285D01*
X148895238Y-81566666D01*
X148800000Y-81471428D01*
X148752380Y-81328571D01*
X148752380Y-81233333D01*
X148800000Y-81090476D01*
X148847619Y-81042857D01*
X148752380Y-80185714D02*
X148752380Y-80376190D01*
X148800000Y-80471428D01*
X148847619Y-80519047D01*
X148990476Y-80614285D01*
X149180952Y-80661904D01*
X149561904Y-80661904D01*
X149657142Y-80614285D01*
X149704761Y-80566666D01*
X149752380Y-80471428D01*
X149752380Y-80280952D01*
X149704761Y-80185714D01*
X149657142Y-80138095D01*
X149561904Y-80090476D01*
X149323809Y-80090476D01*
X149228571Y-80138095D01*
X149180952Y-80185714D01*
X149133333Y-80280952D01*
X149133333Y-80471428D01*
X149180952Y-80566666D01*
X149228571Y-80614285D01*
X149323809Y-80661904D01*
X148752380Y-79471428D02*
X148752380Y-79376190D01*
X148800000Y-79280952D01*
X148847619Y-79233333D01*
X148942857Y-79185714D01*
X149133333Y-79138095D01*
X149371428Y-79138095D01*
X149561904Y-79185714D01*
X149657142Y-79233333D01*
X149704761Y-79280952D01*
X149752380Y-79376190D01*
X149752380Y-79471428D01*
X149704761Y-79566666D01*
X149657142Y-79614285D01*
X149561904Y-79661904D01*
X149371428Y-79709523D01*
X149133333Y-79709523D01*
X148942857Y-79661904D01*
X148847619Y-79614285D01*
X148800000Y-79566666D01*
X148752380Y-79471428D01*
X131557142Y-88942857D02*
X131604761Y-88990476D01*
X131652380Y-89133333D01*
X131652380Y-89228571D01*
X131604761Y-89371428D01*
X131509523Y-89466666D01*
X131414285Y-89514285D01*
X131223809Y-89561904D01*
X131080952Y-89561904D01*
X130890476Y-89514285D01*
X130795238Y-89466666D01*
X130700000Y-89371428D01*
X130652380Y-89228571D01*
X130652380Y-89133333D01*
X130700000Y-88990476D01*
X130747619Y-88942857D01*
X130652380Y-88038095D02*
X130652380Y-88514285D01*
X131128571Y-88561904D01*
X131080952Y-88514285D01*
X131033333Y-88419047D01*
X131033333Y-88180952D01*
X131080952Y-88085714D01*
X131128571Y-88038095D01*
X131223809Y-87990476D01*
X131461904Y-87990476D01*
X131557142Y-88038095D01*
X131604761Y-88085714D01*
X131652380Y-88180952D01*
X131652380Y-88419047D01*
X131604761Y-88514285D01*
X131557142Y-88561904D01*
X131652380Y-87514285D02*
X131652380Y-87323809D01*
X131604761Y-87228571D01*
X131557142Y-87180952D01*
X131414285Y-87085714D01*
X131223809Y-87038095D01*
X130842857Y-87038095D01*
X130747619Y-87085714D01*
X130700000Y-87133333D01*
X130652380Y-87228571D01*
X130652380Y-87419047D01*
X130700000Y-87514285D01*
X130747619Y-87561904D01*
X130842857Y-87609523D01*
X131080952Y-87609523D01*
X131176190Y-87561904D01*
X131223809Y-87514285D01*
X131271428Y-87419047D01*
X131271428Y-87228571D01*
X131223809Y-87133333D01*
X131176190Y-87085714D01*
X131080952Y-87038095D01*
X102157142Y-120442857D02*
X102204761Y-120490476D01*
X102252380Y-120633333D01*
X102252380Y-120728571D01*
X102204761Y-120871428D01*
X102109523Y-120966666D01*
X102014285Y-121014285D01*
X101823809Y-121061904D01*
X101680952Y-121061904D01*
X101490476Y-121014285D01*
X101395238Y-120966666D01*
X101300000Y-120871428D01*
X101252380Y-120728571D01*
X101252380Y-120633333D01*
X101300000Y-120490476D01*
X101347619Y-120442857D01*
X101585714Y-119585714D02*
X102252380Y-119585714D01*
X101204761Y-119823809D02*
X101919047Y-120061904D01*
X101919047Y-119442857D01*
X101252380Y-118633333D02*
X101252380Y-118823809D01*
X101300000Y-118919047D01*
X101347619Y-118966666D01*
X101490476Y-119061904D01*
X101680952Y-119109523D01*
X102061904Y-119109523D01*
X102157142Y-119061904D01*
X102204761Y-119014285D01*
X102252380Y-118919047D01*
X102252380Y-118728571D01*
X102204761Y-118633333D01*
X102157142Y-118585714D01*
X102061904Y-118538095D01*
X101823809Y-118538095D01*
X101728571Y-118585714D01*
X101680952Y-118633333D01*
X101633333Y-118728571D01*
X101633333Y-118919047D01*
X101680952Y-119014285D01*
X101728571Y-119061904D01*
X101823809Y-119109523D01*
X150661904Y-63252380D02*
X150661904Y-64061904D01*
X150709523Y-64157142D01*
X150757142Y-64204761D01*
X150852380Y-64252380D01*
X151042857Y-64252380D01*
X151138095Y-64204761D01*
X151185714Y-64157142D01*
X151233333Y-64061904D01*
X151233333Y-63252380D01*
X152233333Y-64252380D02*
X151661904Y-64252380D01*
X151947619Y-64252380D02*
X151947619Y-63252380D01*
X151852380Y-63395238D01*
X151757142Y-63490476D01*
X151661904Y-63538095D01*
X152852380Y-63252380D02*
X152947619Y-63252380D01*
X153042857Y-63300000D01*
X153090476Y-63347619D01*
X153138095Y-63442857D01*
X153185714Y-63633333D01*
X153185714Y-63871428D01*
X153138095Y-64061904D01*
X153090476Y-64157142D01*
X153042857Y-64204761D01*
X152947619Y-64252380D01*
X152852380Y-64252380D01*
X152757142Y-64204761D01*
X152709523Y-64157142D01*
X152661904Y-64061904D01*
X152614285Y-63871428D01*
X152614285Y-63633333D01*
X152661904Y-63442857D01*
X152709523Y-63347619D01*
X152757142Y-63300000D01*
X152852380Y-63252380D01*
X125757142Y-72142857D02*
X125804761Y-72190476D01*
X125852380Y-72333333D01*
X125852380Y-72428571D01*
X125804761Y-72571428D01*
X125709523Y-72666666D01*
X125614285Y-72714285D01*
X125423809Y-72761904D01*
X125280952Y-72761904D01*
X125090476Y-72714285D01*
X124995238Y-72666666D01*
X124900000Y-72571428D01*
X124852380Y-72428571D01*
X124852380Y-72333333D01*
X124900000Y-72190476D01*
X124947619Y-72142857D01*
X124852380Y-71809523D02*
X124852380Y-71190476D01*
X125233333Y-71523809D01*
X125233333Y-71380952D01*
X125280952Y-71285714D01*
X125328571Y-71238095D01*
X125423809Y-71190476D01*
X125661904Y-71190476D01*
X125757142Y-71238095D01*
X125804761Y-71285714D01*
X125852380Y-71380952D01*
X125852380Y-71666666D01*
X125804761Y-71761904D01*
X125757142Y-71809523D01*
X124852380Y-70285714D02*
X124852380Y-70761904D01*
X125328571Y-70809523D01*
X125280952Y-70761904D01*
X125233333Y-70666666D01*
X125233333Y-70428571D01*
X125280952Y-70333333D01*
X125328571Y-70285714D01*
X125423809Y-70238095D01*
X125661904Y-70238095D01*
X125757142Y-70285714D01*
X125804761Y-70333333D01*
X125852380Y-70428571D01*
X125852380Y-70666666D01*
X125804761Y-70761904D01*
X125757142Y-70809523D01*
X137457142Y-72142857D02*
X137504761Y-72190476D01*
X137552380Y-72333333D01*
X137552380Y-72428571D01*
X137504761Y-72571428D01*
X137409523Y-72666666D01*
X137314285Y-72714285D01*
X137123809Y-72761904D01*
X136980952Y-72761904D01*
X136790476Y-72714285D01*
X136695238Y-72666666D01*
X136600000Y-72571428D01*
X136552380Y-72428571D01*
X136552380Y-72333333D01*
X136600000Y-72190476D01*
X136647619Y-72142857D01*
X136552380Y-71809523D02*
X136552380Y-71190476D01*
X136933333Y-71523809D01*
X136933333Y-71380952D01*
X136980952Y-71285714D01*
X137028571Y-71238095D01*
X137123809Y-71190476D01*
X137361904Y-71190476D01*
X137457142Y-71238095D01*
X137504761Y-71285714D01*
X137552380Y-71380952D01*
X137552380Y-71666666D01*
X137504761Y-71761904D01*
X137457142Y-71809523D01*
X136647619Y-70809523D02*
X136600000Y-70761904D01*
X136552380Y-70666666D01*
X136552380Y-70428571D01*
X136600000Y-70333333D01*
X136647619Y-70285714D01*
X136742857Y-70238095D01*
X136838095Y-70238095D01*
X136980952Y-70285714D01*
X137552380Y-70857142D01*
X137552380Y-70238095D01*
X138157142Y-88842857D02*
X138204761Y-88890476D01*
X138252380Y-89033333D01*
X138252380Y-89128571D01*
X138204761Y-89271428D01*
X138109523Y-89366666D01*
X138014285Y-89414285D01*
X137823809Y-89461904D01*
X137680952Y-89461904D01*
X137490476Y-89414285D01*
X137395238Y-89366666D01*
X137300000Y-89271428D01*
X137252380Y-89128571D01*
X137252380Y-89033333D01*
X137300000Y-88890476D01*
X137347619Y-88842857D01*
X137347619Y-88461904D02*
X137300000Y-88414285D01*
X137252380Y-88319047D01*
X137252380Y-88080952D01*
X137300000Y-87985714D01*
X137347619Y-87938095D01*
X137442857Y-87890476D01*
X137538095Y-87890476D01*
X137680952Y-87938095D01*
X138252380Y-88509523D01*
X138252380Y-87890476D01*
X137252380Y-87033333D02*
X137252380Y-87223809D01*
X137300000Y-87319047D01*
X137347619Y-87366666D01*
X137490476Y-87461904D01*
X137680952Y-87509523D01*
X138061904Y-87509523D01*
X138157142Y-87461904D01*
X138204761Y-87414285D01*
X138252380Y-87319047D01*
X138252380Y-87128571D01*
X138204761Y-87033333D01*
X138157142Y-86985714D01*
X138061904Y-86938095D01*
X137823809Y-86938095D01*
X137728571Y-86985714D01*
X137680952Y-87033333D01*
X137633333Y-87128571D01*
X137633333Y-87319047D01*
X137680952Y-87414285D01*
X137728571Y-87461904D01*
X137823809Y-87509523D01*
X124957142Y-88066666D02*
X125004761Y-88114285D01*
X125052380Y-88257142D01*
X125052380Y-88352380D01*
X125004761Y-88495238D01*
X124909523Y-88590476D01*
X124814285Y-88638095D01*
X124623809Y-88685714D01*
X124480952Y-88685714D01*
X124290476Y-88638095D01*
X124195238Y-88590476D01*
X124100000Y-88495238D01*
X124052380Y-88352380D01*
X124052380Y-88257142D01*
X124100000Y-88114285D01*
X124147619Y-88066666D01*
X125052380Y-87114285D02*
X125052380Y-87685714D01*
X125052380Y-87400000D02*
X124052380Y-87400000D01*
X124195238Y-87495238D01*
X124290476Y-87590476D01*
X124338095Y-87685714D01*
X136257142Y-91842857D02*
X136304761Y-91890476D01*
X136352380Y-92033333D01*
X136352380Y-92128571D01*
X136304761Y-92271428D01*
X136209523Y-92366666D01*
X136114285Y-92414285D01*
X135923809Y-92461904D01*
X135780952Y-92461904D01*
X135590476Y-92414285D01*
X135495238Y-92366666D01*
X135400000Y-92271428D01*
X135352380Y-92128571D01*
X135352380Y-92033333D01*
X135400000Y-91890476D01*
X135447619Y-91842857D01*
X135352380Y-91509523D02*
X135352380Y-90890476D01*
X135733333Y-91223809D01*
X135733333Y-91080952D01*
X135780952Y-90985714D01*
X135828571Y-90938095D01*
X135923809Y-90890476D01*
X136161904Y-90890476D01*
X136257142Y-90938095D01*
X136304761Y-90985714D01*
X136352380Y-91080952D01*
X136352380Y-91366666D01*
X136304761Y-91461904D01*
X136257142Y-91509523D01*
X135352380Y-90271428D02*
X135352380Y-90176190D01*
X135400000Y-90080952D01*
X135447619Y-90033333D01*
X135542857Y-89985714D01*
X135733333Y-89938095D01*
X135971428Y-89938095D01*
X136161904Y-89985714D01*
X136257142Y-90033333D01*
X136304761Y-90080952D01*
X136352380Y-90176190D01*
X136352380Y-90271428D01*
X136304761Y-90366666D01*
X136257142Y-90414285D01*
X136161904Y-90461904D01*
X135971428Y-90509523D01*
X135733333Y-90509523D01*
X135542857Y-90461904D01*
X135447619Y-90414285D01*
X135400000Y-90366666D01*
X135352380Y-90271428D01*
X129557142Y-91842857D02*
X129604761Y-91890476D01*
X129652380Y-92033333D01*
X129652380Y-92128571D01*
X129604761Y-92271428D01*
X129509523Y-92366666D01*
X129414285Y-92414285D01*
X129223809Y-92461904D01*
X129080952Y-92461904D01*
X128890476Y-92414285D01*
X128795238Y-92366666D01*
X128700000Y-92271428D01*
X128652380Y-92128571D01*
X128652380Y-92033333D01*
X128700000Y-91890476D01*
X128747619Y-91842857D01*
X128747619Y-91461904D02*
X128700000Y-91414285D01*
X128652380Y-91319047D01*
X128652380Y-91080952D01*
X128700000Y-90985714D01*
X128747619Y-90938095D01*
X128842857Y-90890476D01*
X128938095Y-90890476D01*
X129080952Y-90938095D01*
X129652380Y-91509523D01*
X129652380Y-90890476D01*
X128652380Y-90557142D02*
X128652380Y-89938095D01*
X129033333Y-90271428D01*
X129033333Y-90128571D01*
X129080952Y-90033333D01*
X129128571Y-89985714D01*
X129223809Y-89938095D01*
X129461904Y-89938095D01*
X129557142Y-89985714D01*
X129604761Y-90033333D01*
X129652380Y-90128571D01*
X129652380Y-90414285D01*
X129604761Y-90509523D01*
X129557142Y-90557142D01*
X136157142Y-64557142D02*
X136109523Y-64604761D01*
X135966666Y-64652380D01*
X135871428Y-64652380D01*
X135728571Y-64604761D01*
X135633333Y-64509523D01*
X135585714Y-64414285D01*
X135538095Y-64223809D01*
X135538095Y-64080952D01*
X135585714Y-63890476D01*
X135633333Y-63795238D01*
X135728571Y-63700000D01*
X135871428Y-63652380D01*
X135966666Y-63652380D01*
X136109523Y-63700000D01*
X136157142Y-63747619D01*
X137014285Y-63652380D02*
X136823809Y-63652380D01*
X136728571Y-63700000D01*
X136680952Y-63747619D01*
X136585714Y-63890476D01*
X136538095Y-64080952D01*
X136538095Y-64461904D01*
X136585714Y-64557142D01*
X136633333Y-64604761D01*
X136728571Y-64652380D01*
X136919047Y-64652380D01*
X137014285Y-64604761D01*
X137061904Y-64557142D01*
X137109523Y-64461904D01*
X137109523Y-64223809D01*
X137061904Y-64128571D01*
X137014285Y-64080952D01*
X136919047Y-64033333D01*
X136728571Y-64033333D01*
X136633333Y-64080952D01*
X136585714Y-64128571D01*
X136538095Y-64223809D01*
X137490476Y-63747619D02*
X137538095Y-63700000D01*
X137633333Y-63652380D01*
X137871428Y-63652380D01*
X137966666Y-63700000D01*
X138014285Y-63747619D01*
X138061904Y-63842857D01*
X138061904Y-63938095D01*
X138014285Y-64080952D01*
X137442857Y-64652380D01*
X138061904Y-64652380D01*
X133019047Y-68371428D02*
X133780952Y-68371428D01*
X133400000Y-68752380D02*
X133400000Y-67990476D01*
X140757142Y-56642857D02*
X140804761Y-56690476D01*
X140852380Y-56833333D01*
X140852380Y-56928571D01*
X140804761Y-57071428D01*
X140709523Y-57166666D01*
X140614285Y-57214285D01*
X140423809Y-57261904D01*
X140280952Y-57261904D01*
X140090476Y-57214285D01*
X139995238Y-57166666D01*
X139900000Y-57071428D01*
X139852380Y-56928571D01*
X139852380Y-56833333D01*
X139900000Y-56690476D01*
X139947619Y-56642857D01*
X139852380Y-55738095D02*
X139852380Y-56214285D01*
X140328571Y-56261904D01*
X140280952Y-56214285D01*
X140233333Y-56119047D01*
X140233333Y-55880952D01*
X140280952Y-55785714D01*
X140328571Y-55738095D01*
X140423809Y-55690476D01*
X140661904Y-55690476D01*
X140757142Y-55738095D01*
X140804761Y-55785714D01*
X140852380Y-55880952D01*
X140852380Y-56119047D01*
X140804761Y-56214285D01*
X140757142Y-56261904D01*
X139852380Y-55357142D02*
X139852380Y-54738095D01*
X140233333Y-55071428D01*
X140233333Y-54928571D01*
X140280952Y-54833333D01*
X140328571Y-54785714D01*
X140423809Y-54738095D01*
X140661904Y-54738095D01*
X140757142Y-54785714D01*
X140804761Y-54833333D01*
X140852380Y-54928571D01*
X140852380Y-55214285D01*
X140804761Y-55309523D01*
X140757142Y-55357142D01*
X115952380Y-88842857D02*
X115476190Y-89176190D01*
X115952380Y-89414285D02*
X114952380Y-89414285D01*
X114952380Y-89033333D01*
X115000000Y-88938095D01*
X115047619Y-88890476D01*
X115142857Y-88842857D01*
X115285714Y-88842857D01*
X115380952Y-88890476D01*
X115428571Y-88938095D01*
X115476190Y-89033333D01*
X115476190Y-89414285D01*
X115285714Y-87985714D02*
X115952380Y-87985714D01*
X114904761Y-88223809D02*
X115619047Y-88461904D01*
X115619047Y-87842857D01*
X114952380Y-87271428D02*
X114952380Y-87176190D01*
X115000000Y-87080952D01*
X115047619Y-87033333D01*
X115142857Y-86985714D01*
X115333333Y-86938095D01*
X115571428Y-86938095D01*
X115761904Y-86985714D01*
X115857142Y-87033333D01*
X115904761Y-87080952D01*
X115952380Y-87176190D01*
X115952380Y-87271428D01*
X115904761Y-87366666D01*
X115857142Y-87414285D01*
X115761904Y-87461904D01*
X115571428Y-87509523D01*
X115333333Y-87509523D01*
X115142857Y-87461904D01*
X115047619Y-87414285D01*
X115000000Y-87366666D01*
X114952380Y-87271428D01*
X125652380Y-104142857D02*
X125176190Y-104476190D01*
X125652380Y-104714285D02*
X124652380Y-104714285D01*
X124652380Y-104333333D01*
X124700000Y-104238095D01*
X124747619Y-104190476D01*
X124842857Y-104142857D01*
X124985714Y-104142857D01*
X125080952Y-104190476D01*
X125128571Y-104238095D01*
X125176190Y-104333333D01*
X125176190Y-104714285D01*
X124652380Y-103809523D02*
X124652380Y-103190476D01*
X125033333Y-103523809D01*
X125033333Y-103380952D01*
X125080952Y-103285714D01*
X125128571Y-103238095D01*
X125223809Y-103190476D01*
X125461904Y-103190476D01*
X125557142Y-103238095D01*
X125604761Y-103285714D01*
X125652380Y-103380952D01*
X125652380Y-103666666D01*
X125604761Y-103761904D01*
X125557142Y-103809523D01*
X124747619Y-102809523D02*
X124700000Y-102761904D01*
X124652380Y-102666666D01*
X124652380Y-102428571D01*
X124700000Y-102333333D01*
X124747619Y-102285714D01*
X124842857Y-102238095D01*
X124938095Y-102238095D01*
X125080952Y-102285714D01*
X125652380Y-102857142D01*
X125652380Y-102238095D01*
X123852380Y-104142857D02*
X123376190Y-104476190D01*
X123852380Y-104714285D02*
X122852380Y-104714285D01*
X122852380Y-104333333D01*
X122900000Y-104238095D01*
X122947619Y-104190476D01*
X123042857Y-104142857D01*
X123185714Y-104142857D01*
X123280952Y-104190476D01*
X123328571Y-104238095D01*
X123376190Y-104333333D01*
X123376190Y-104714285D01*
X122852380Y-103809523D02*
X122852380Y-103190476D01*
X123233333Y-103523809D01*
X123233333Y-103380952D01*
X123280952Y-103285714D01*
X123328571Y-103238095D01*
X123423809Y-103190476D01*
X123661904Y-103190476D01*
X123757142Y-103238095D01*
X123804761Y-103285714D01*
X123852380Y-103380952D01*
X123852380Y-103666666D01*
X123804761Y-103761904D01*
X123757142Y-103809523D01*
X122852380Y-102285714D02*
X122852380Y-102761904D01*
X123328571Y-102809523D01*
X123280952Y-102761904D01*
X123233333Y-102666666D01*
X123233333Y-102428571D01*
X123280952Y-102333333D01*
X123328571Y-102285714D01*
X123423809Y-102238095D01*
X123661904Y-102238095D01*
X123757142Y-102285714D01*
X123804761Y-102333333D01*
X123852380Y-102428571D01*
X123852380Y-102666666D01*
X123804761Y-102761904D01*
X123757142Y-102809523D01*
X113757142Y-110052380D02*
X113423809Y-109576190D01*
X113185714Y-110052380D02*
X113185714Y-109052380D01*
X113566666Y-109052380D01*
X113661904Y-109100000D01*
X113709523Y-109147619D01*
X113757142Y-109242857D01*
X113757142Y-109385714D01*
X113709523Y-109480952D01*
X113661904Y-109528571D01*
X113566666Y-109576190D01*
X113185714Y-109576190D01*
X114709523Y-110052380D02*
X114138095Y-110052380D01*
X114423809Y-110052380D02*
X114423809Y-109052380D01*
X114328571Y-109195238D01*
X114233333Y-109290476D01*
X114138095Y-109338095D01*
X115185714Y-110052380D02*
X115376190Y-110052380D01*
X115471428Y-110004761D01*
X115519047Y-109957142D01*
X115614285Y-109814285D01*
X115661904Y-109623809D01*
X115661904Y-109242857D01*
X115614285Y-109147619D01*
X115566666Y-109100000D01*
X115471428Y-109052380D01*
X115280952Y-109052380D01*
X115185714Y-109100000D01*
X115138095Y-109147619D01*
X115090476Y-109242857D01*
X115090476Y-109480952D01*
X115138095Y-109576190D01*
X115185714Y-109623809D01*
X115280952Y-109671428D01*
X115471428Y-109671428D01*
X115566666Y-109623809D01*
X115614285Y-109576190D01*
X115661904Y-109480952D01*
X103952380Y-104142857D02*
X103476190Y-104476190D01*
X103952380Y-104714285D02*
X102952380Y-104714285D01*
X102952380Y-104333333D01*
X103000000Y-104238095D01*
X103047619Y-104190476D01*
X103142857Y-104142857D01*
X103285714Y-104142857D01*
X103380952Y-104190476D01*
X103428571Y-104238095D01*
X103476190Y-104333333D01*
X103476190Y-104714285D01*
X103047619Y-103761904D02*
X103000000Y-103714285D01*
X102952380Y-103619047D01*
X102952380Y-103380952D01*
X103000000Y-103285714D01*
X103047619Y-103238095D01*
X103142857Y-103190476D01*
X103238095Y-103190476D01*
X103380952Y-103238095D01*
X103952380Y-103809523D01*
X103952380Y-103190476D01*
X102952380Y-102333333D02*
X102952380Y-102523809D01*
X103000000Y-102619047D01*
X103047619Y-102666666D01*
X103190476Y-102761904D01*
X103380952Y-102809523D01*
X103761904Y-102809523D01*
X103857142Y-102761904D01*
X103904761Y-102714285D01*
X103952380Y-102619047D01*
X103952380Y-102428571D01*
X103904761Y-102333333D01*
X103857142Y-102285714D01*
X103761904Y-102238095D01*
X103523809Y-102238095D01*
X103428571Y-102285714D01*
X103380952Y-102333333D01*
X103333333Y-102428571D01*
X103333333Y-102619047D01*
X103380952Y-102714285D01*
X103428571Y-102761904D01*
X103523809Y-102809523D01*
X147738095Y-142602380D02*
X147738095Y-143411904D01*
X147785714Y-143507142D01*
X147833333Y-143554761D01*
X147928571Y-143602380D01*
X148119047Y-143602380D01*
X148214285Y-143554761D01*
X148261904Y-143507142D01*
X148309523Y-143411904D01*
X148309523Y-142602380D01*
X149214285Y-142935714D02*
X149214285Y-143602380D01*
X148976190Y-142554761D02*
X148738095Y-143269047D01*
X149357142Y-143269047D01*
X147833333Y-52052380D02*
X147357142Y-52052380D01*
X147357142Y-51052380D01*
X148690476Y-52052380D02*
X148119047Y-52052380D01*
X148404761Y-52052380D02*
X148404761Y-51052380D01*
X148309523Y-51195238D01*
X148214285Y-51290476D01*
X148119047Y-51338095D01*
X157082142Y-57432142D02*
X157034523Y-57479761D01*
X156891666Y-57527380D01*
X156796428Y-57527380D01*
X156653571Y-57479761D01*
X156558333Y-57384523D01*
X156510714Y-57289285D01*
X156463095Y-57098809D01*
X156463095Y-56955952D01*
X156510714Y-56765476D01*
X156558333Y-56670238D01*
X156653571Y-56575000D01*
X156796428Y-56527380D01*
X156891666Y-56527380D01*
X157034523Y-56575000D01*
X157082142Y-56622619D01*
X157986904Y-56527380D02*
X157510714Y-56527380D01*
X157463095Y-57003571D01*
X157510714Y-56955952D01*
X157605952Y-56908333D01*
X157844047Y-56908333D01*
X157939285Y-56955952D01*
X157986904Y-57003571D01*
X158034523Y-57098809D01*
X158034523Y-57336904D01*
X157986904Y-57432142D01*
X157939285Y-57479761D01*
X157844047Y-57527380D01*
X157605952Y-57527380D01*
X157510714Y-57479761D01*
X157463095Y-57432142D01*
X158939285Y-56527380D02*
X158463095Y-56527380D01*
X158415476Y-57003571D01*
X158463095Y-56955952D01*
X158558333Y-56908333D01*
X158796428Y-56908333D01*
X158891666Y-56955952D01*
X158939285Y-57003571D01*
X158986904Y-57098809D01*
X158986904Y-57336904D01*
X158939285Y-57432142D01*
X158891666Y-57479761D01*
X158796428Y-57527380D01*
X158558333Y-57527380D01*
X158463095Y-57479761D01*
X158415476Y-57432142D01*
X134057142Y-55742857D02*
X134104761Y-55790476D01*
X134152380Y-55933333D01*
X134152380Y-56028571D01*
X134104761Y-56171428D01*
X134009523Y-56266666D01*
X133914285Y-56314285D01*
X133723809Y-56361904D01*
X133580952Y-56361904D01*
X133390476Y-56314285D01*
X133295238Y-56266666D01*
X133200000Y-56171428D01*
X133152380Y-56028571D01*
X133152380Y-55933333D01*
X133200000Y-55790476D01*
X133247619Y-55742857D01*
X133152380Y-54838095D02*
X133152380Y-55314285D01*
X133628571Y-55361904D01*
X133580952Y-55314285D01*
X133533333Y-55219047D01*
X133533333Y-54980952D01*
X133580952Y-54885714D01*
X133628571Y-54838095D01*
X133723809Y-54790476D01*
X133961904Y-54790476D01*
X134057142Y-54838095D01*
X134104761Y-54885714D01*
X134152380Y-54980952D01*
X134152380Y-55219047D01*
X134104761Y-55314285D01*
X134057142Y-55361904D01*
X133485714Y-53933333D02*
X134152380Y-53933333D01*
X133104761Y-54171428D02*
X133819047Y-54409523D01*
X133819047Y-53790476D01*
X148107142Y-60042857D02*
X148154761Y-60090476D01*
X148202380Y-60233333D01*
X148202380Y-60328571D01*
X148154761Y-60471428D01*
X148059523Y-60566666D01*
X147964285Y-60614285D01*
X147773809Y-60661904D01*
X147630952Y-60661904D01*
X147440476Y-60614285D01*
X147345238Y-60566666D01*
X147250000Y-60471428D01*
X147202380Y-60328571D01*
X147202380Y-60233333D01*
X147250000Y-60090476D01*
X147297619Y-60042857D01*
X147535714Y-59185714D02*
X148202380Y-59185714D01*
X147154761Y-59423809D02*
X147869047Y-59661904D01*
X147869047Y-59042857D01*
X147202380Y-58185714D02*
X147202380Y-58661904D01*
X147678571Y-58709523D01*
X147630952Y-58661904D01*
X147583333Y-58566666D01*
X147583333Y-58328571D01*
X147630952Y-58233333D01*
X147678571Y-58185714D01*
X147773809Y-58138095D01*
X148011904Y-58138095D01*
X148107142Y-58185714D01*
X148154761Y-58233333D01*
X148202380Y-58328571D01*
X148202380Y-58566666D01*
X148154761Y-58661904D01*
X148107142Y-58709523D01*
X141852380Y-62338095D02*
X140852380Y-62338095D01*
X140852380Y-62100000D01*
X140900000Y-61957142D01*
X140995238Y-61861904D01*
X141090476Y-61814285D01*
X141280952Y-61766666D01*
X141423809Y-61766666D01*
X141614285Y-61814285D01*
X141709523Y-61861904D01*
X141804761Y-61957142D01*
X141852380Y-62100000D01*
X141852380Y-62338095D01*
X140947619Y-61385714D02*
X140900000Y-61338095D01*
X140852380Y-61242857D01*
X140852380Y-61004761D01*
X140900000Y-60909523D01*
X140947619Y-60861904D01*
X141042857Y-60814285D01*
X141138095Y-60814285D01*
X141280952Y-60861904D01*
X141852380Y-61433333D01*
X141852380Y-60814285D01*
X143568095Y-55682380D02*
X143568095Y-56491904D01*
X143615714Y-56587142D01*
X143663333Y-56634761D01*
X143758571Y-56682380D01*
X143949047Y-56682380D01*
X144044285Y-56634761D01*
X144091904Y-56587142D01*
X144139523Y-56491904D01*
X144139523Y-55682380D01*
X144663333Y-56682380D02*
X144853809Y-56682380D01*
X144949047Y-56634761D01*
X144996666Y-56587142D01*
X145091904Y-56444285D01*
X145139523Y-56253809D01*
X145139523Y-55872857D01*
X145091904Y-55777619D01*
X145044285Y-55730000D01*
X144949047Y-55682380D01*
X144758571Y-55682380D01*
X144663333Y-55730000D01*
X144615714Y-55777619D01*
X144568095Y-55872857D01*
X144568095Y-56110952D01*
X144615714Y-56206190D01*
X144663333Y-56253809D01*
X144758571Y-56301428D01*
X144949047Y-56301428D01*
X145044285Y-56253809D01*
X145091904Y-56206190D01*
X145139523Y-56110952D01*
X102433333Y-126552380D02*
X102100000Y-126076190D01*
X101861904Y-126552380D02*
X101861904Y-125552380D01*
X102242857Y-125552380D01*
X102338095Y-125600000D01*
X102385714Y-125647619D01*
X102433333Y-125742857D01*
X102433333Y-125885714D01*
X102385714Y-125980952D01*
X102338095Y-126028571D01*
X102242857Y-126076190D01*
X101861904Y-126076190D01*
X102766666Y-125552380D02*
X103433333Y-125552380D01*
X103004761Y-126552380D01*
X143272380Y-92442857D02*
X142796190Y-92776190D01*
X143272380Y-93014285D02*
X142272380Y-93014285D01*
X142272380Y-92633333D01*
X142320000Y-92538095D01*
X142367619Y-92490476D01*
X142462857Y-92442857D01*
X142605714Y-92442857D01*
X142700952Y-92490476D01*
X142748571Y-92538095D01*
X142796190Y-92633333D01*
X142796190Y-93014285D01*
X142272380Y-92109523D02*
X142272380Y-91490476D01*
X142653333Y-91823809D01*
X142653333Y-91680952D01*
X142700952Y-91585714D01*
X142748571Y-91538095D01*
X142843809Y-91490476D01*
X143081904Y-91490476D01*
X143177142Y-91538095D01*
X143224761Y-91585714D01*
X143272380Y-91680952D01*
X143272380Y-91966666D01*
X143224761Y-92061904D01*
X143177142Y-92109523D01*
X143272380Y-90538095D02*
X143272380Y-91109523D01*
X143272380Y-90823809D02*
X142272380Y-90823809D01*
X142415238Y-90919047D01*
X142510476Y-91014285D01*
X142558095Y-91109523D01*
X143252380Y-71842857D02*
X142776190Y-72176190D01*
X143252380Y-72414285D02*
X142252380Y-72414285D01*
X142252380Y-72033333D01*
X142300000Y-71938095D01*
X142347619Y-71890476D01*
X142442857Y-71842857D01*
X142585714Y-71842857D01*
X142680952Y-71890476D01*
X142728571Y-71938095D01*
X142776190Y-72033333D01*
X142776190Y-72414285D01*
X142347619Y-71461904D02*
X142300000Y-71414285D01*
X142252380Y-71319047D01*
X142252380Y-71080952D01*
X142300000Y-70985714D01*
X142347619Y-70938095D01*
X142442857Y-70890476D01*
X142538095Y-70890476D01*
X142680952Y-70938095D01*
X143252380Y-71509523D01*
X143252380Y-70890476D01*
X142252380Y-69985714D02*
X142252380Y-70461904D01*
X142728571Y-70509523D01*
X142680952Y-70461904D01*
X142633333Y-70366666D01*
X142633333Y-70128571D01*
X142680952Y-70033333D01*
X142728571Y-69985714D01*
X142823809Y-69938095D01*
X143061904Y-69938095D01*
X143157142Y-69985714D01*
X143204761Y-70033333D01*
X143252380Y-70128571D01*
X143252380Y-70366666D01*
X143204761Y-70461904D01*
X143157142Y-70509523D01*
X141452380Y-92442857D02*
X140976190Y-92776190D01*
X141452380Y-93014285D02*
X140452380Y-93014285D01*
X140452380Y-92633333D01*
X140500000Y-92538095D01*
X140547619Y-92490476D01*
X140642857Y-92442857D01*
X140785714Y-92442857D01*
X140880952Y-92490476D01*
X140928571Y-92538095D01*
X140976190Y-92633333D01*
X140976190Y-93014285D01*
X140452380Y-92109523D02*
X140452380Y-91490476D01*
X140833333Y-91823809D01*
X140833333Y-91680952D01*
X140880952Y-91585714D01*
X140928571Y-91538095D01*
X141023809Y-91490476D01*
X141261904Y-91490476D01*
X141357142Y-91538095D01*
X141404761Y-91585714D01*
X141452380Y-91680952D01*
X141452380Y-91966666D01*
X141404761Y-92061904D01*
X141357142Y-92109523D01*
X140785714Y-90633333D02*
X141452380Y-90633333D01*
X140404761Y-90871428D02*
X141119047Y-91109523D01*
X141119047Y-90490476D01*
X141452380Y-71842857D02*
X140976190Y-72176190D01*
X141452380Y-72414285D02*
X140452380Y-72414285D01*
X140452380Y-72033333D01*
X140500000Y-71938095D01*
X140547619Y-71890476D01*
X140642857Y-71842857D01*
X140785714Y-71842857D01*
X140880952Y-71890476D01*
X140928571Y-71938095D01*
X140976190Y-72033333D01*
X140976190Y-72414285D01*
X140547619Y-71461904D02*
X140500000Y-71414285D01*
X140452380Y-71319047D01*
X140452380Y-71080952D01*
X140500000Y-70985714D01*
X140547619Y-70938095D01*
X140642857Y-70890476D01*
X140738095Y-70890476D01*
X140880952Y-70938095D01*
X141452380Y-71509523D01*
X141452380Y-70890476D01*
X140880952Y-70319047D02*
X140833333Y-70414285D01*
X140785714Y-70461904D01*
X140690476Y-70509523D01*
X140642857Y-70509523D01*
X140547619Y-70461904D01*
X140500000Y-70414285D01*
X140452380Y-70319047D01*
X140452380Y-70128571D01*
X140500000Y-70033333D01*
X140547619Y-69985714D01*
X140642857Y-69938095D01*
X140690476Y-69938095D01*
X140785714Y-69985714D01*
X140833333Y-70033333D01*
X140880952Y-70128571D01*
X140880952Y-70319047D01*
X140928571Y-70414285D01*
X140976190Y-70461904D01*
X141071428Y-70509523D01*
X141261904Y-70509523D01*
X141357142Y-70461904D01*
X141404761Y-70414285D01*
X141452380Y-70319047D01*
X141452380Y-70128571D01*
X141404761Y-70033333D01*
X141357142Y-69985714D01*
X141261904Y-69938095D01*
X141071428Y-69938095D01*
X140976190Y-69985714D01*
X140928571Y-70033333D01*
X140880952Y-70128571D01*
X101557142Y-111852380D02*
X101223809Y-111376190D01*
X100985714Y-111852380D02*
X100985714Y-110852380D01*
X101366666Y-110852380D01*
X101461904Y-110900000D01*
X101509523Y-110947619D01*
X101557142Y-111042857D01*
X101557142Y-111185714D01*
X101509523Y-111280952D01*
X101461904Y-111328571D01*
X101366666Y-111376190D01*
X100985714Y-111376190D01*
X101938095Y-110947619D02*
X101985714Y-110900000D01*
X102080952Y-110852380D01*
X102319047Y-110852380D01*
X102414285Y-110900000D01*
X102461904Y-110947619D01*
X102509523Y-111042857D01*
X102509523Y-111138095D01*
X102461904Y-111280952D01*
X101890476Y-111852380D01*
X102509523Y-111852380D01*
X103366666Y-111185714D02*
X103366666Y-111852380D01*
X103128571Y-110804761D02*
X102890476Y-111519047D01*
X103509523Y-111519047D01*
X101657142Y-110052380D02*
X101323809Y-109576190D01*
X101085714Y-110052380D02*
X101085714Y-109052380D01*
X101466666Y-109052380D01*
X101561904Y-109100000D01*
X101609523Y-109147619D01*
X101657142Y-109242857D01*
X101657142Y-109385714D01*
X101609523Y-109480952D01*
X101561904Y-109528571D01*
X101466666Y-109576190D01*
X101085714Y-109576190D01*
X102038095Y-109147619D02*
X102085714Y-109100000D01*
X102180952Y-109052380D01*
X102419047Y-109052380D01*
X102514285Y-109100000D01*
X102561904Y-109147619D01*
X102609523Y-109242857D01*
X102609523Y-109338095D01*
X102561904Y-109480952D01*
X101990476Y-110052380D01*
X102609523Y-110052380D01*
X102942857Y-109052380D02*
X103609523Y-109052380D01*
X103180952Y-110052380D01*
X101657142Y-108252380D02*
X101323809Y-107776190D01*
X101085714Y-108252380D02*
X101085714Y-107252380D01*
X101466666Y-107252380D01*
X101561904Y-107300000D01*
X101609523Y-107347619D01*
X101657142Y-107442857D01*
X101657142Y-107585714D01*
X101609523Y-107680952D01*
X101561904Y-107728571D01*
X101466666Y-107776190D01*
X101085714Y-107776190D01*
X102038095Y-107347619D02*
X102085714Y-107300000D01*
X102180952Y-107252380D01*
X102419047Y-107252380D01*
X102514285Y-107300000D01*
X102561904Y-107347619D01*
X102609523Y-107442857D01*
X102609523Y-107538095D01*
X102561904Y-107680952D01*
X101990476Y-108252380D01*
X102609523Y-108252380D01*
X102942857Y-107252380D02*
X103561904Y-107252380D01*
X103228571Y-107633333D01*
X103371428Y-107633333D01*
X103466666Y-107680952D01*
X103514285Y-107728571D01*
X103561904Y-107823809D01*
X103561904Y-108061904D01*
X103514285Y-108157142D01*
X103466666Y-108204761D01*
X103371428Y-108252380D01*
X103085714Y-108252380D01*
X102990476Y-108204761D01*
X102942857Y-108157142D01*
X102157142Y-115542857D02*
X102204761Y-115590476D01*
X102252380Y-115733333D01*
X102252380Y-115828571D01*
X102204761Y-115971428D01*
X102109523Y-116066666D01*
X102014285Y-116114285D01*
X101823809Y-116161904D01*
X101680952Y-116161904D01*
X101490476Y-116114285D01*
X101395238Y-116066666D01*
X101300000Y-115971428D01*
X101252380Y-115828571D01*
X101252380Y-115733333D01*
X101300000Y-115590476D01*
X101347619Y-115542857D01*
X101252380Y-115209523D02*
X101252380Y-114590476D01*
X101633333Y-114923809D01*
X101633333Y-114780952D01*
X101680952Y-114685714D01*
X101728571Y-114638095D01*
X101823809Y-114590476D01*
X102061904Y-114590476D01*
X102157142Y-114638095D01*
X102204761Y-114685714D01*
X102252380Y-114780952D01*
X102252380Y-115066666D01*
X102204761Y-115161904D01*
X102157142Y-115209523D01*
X101585714Y-113733333D02*
X102252380Y-113733333D01*
X101204761Y-113971428D02*
X101919047Y-114209523D01*
X101919047Y-113590476D01*
X138752380Y-81461904D02*
X139561904Y-81461904D01*
X139657142Y-81414285D01*
X139704761Y-81366666D01*
X139752380Y-81271428D01*
X139752380Y-81080952D01*
X139704761Y-80985714D01*
X139657142Y-80938095D01*
X139561904Y-80890476D01*
X138752380Y-80890476D01*
X138752380Y-79985714D02*
X138752380Y-80176190D01*
X138800000Y-80271428D01*
X138847619Y-80319047D01*
X138990476Y-80414285D01*
X139180952Y-80461904D01*
X139561904Y-80461904D01*
X139657142Y-80414285D01*
X139704761Y-80366666D01*
X139752380Y-80271428D01*
X139752380Y-80080952D01*
X139704761Y-79985714D01*
X139657142Y-79938095D01*
X139561904Y-79890476D01*
X139323809Y-79890476D01*
X139228571Y-79938095D01*
X139180952Y-79985714D01*
X139133333Y-80080952D01*
X139133333Y-80271428D01*
X139180952Y-80366666D01*
X139228571Y-80414285D01*
X139323809Y-80461904D01*
X144738095Y-95552380D02*
X144738095Y-96361904D01*
X144785714Y-96457142D01*
X144833333Y-96504761D01*
X144928571Y-96552380D01*
X145119047Y-96552380D01*
X145214285Y-96504761D01*
X145261904Y-96457142D01*
X145309523Y-96361904D01*
X145309523Y-95552380D01*
X145928571Y-95980952D02*
X145833333Y-95933333D01*
X145785714Y-95885714D01*
X145738095Y-95790476D01*
X145738095Y-95742857D01*
X145785714Y-95647619D01*
X145833333Y-95600000D01*
X145928571Y-95552380D01*
X146119047Y-95552380D01*
X146214285Y-95600000D01*
X146261904Y-95647619D01*
X146309523Y-95742857D01*
X146309523Y-95790476D01*
X146261904Y-95885714D01*
X146214285Y-95933333D01*
X146119047Y-95980952D01*
X145928571Y-95980952D01*
X145833333Y-96028571D01*
X145785714Y-96076190D01*
X145738095Y-96171428D01*
X145738095Y-96361904D01*
X145785714Y-96457142D01*
X145833333Y-96504761D01*
X145928571Y-96552380D01*
X146119047Y-96552380D01*
X146214285Y-96504761D01*
X146261904Y-96457142D01*
X146309523Y-96361904D01*
X146309523Y-96171428D01*
X146261904Y-96076190D01*
X146214285Y-96028571D01*
X146119047Y-95980952D01*
X105657142Y-61157142D02*
X105609523Y-61204761D01*
X105466666Y-61252380D01*
X105371428Y-61252380D01*
X105228571Y-61204761D01*
X105133333Y-61109523D01*
X105085714Y-61014285D01*
X105038095Y-60823809D01*
X105038095Y-60680952D01*
X105085714Y-60490476D01*
X105133333Y-60395238D01*
X105228571Y-60300000D01*
X105371428Y-60252380D01*
X105466666Y-60252380D01*
X105609523Y-60300000D01*
X105657142Y-60347619D01*
X106561904Y-60252380D02*
X106085714Y-60252380D01*
X106038095Y-60728571D01*
X106085714Y-60680952D01*
X106180952Y-60633333D01*
X106419047Y-60633333D01*
X106514285Y-60680952D01*
X106561904Y-60728571D01*
X106609523Y-60823809D01*
X106609523Y-61061904D01*
X106561904Y-61157142D01*
X106514285Y-61204761D01*
X106419047Y-61252380D01*
X106180952Y-61252380D01*
X106085714Y-61204761D01*
X106038095Y-61157142D01*
X106942857Y-60252380D02*
X107609523Y-60252380D01*
X107180952Y-61252380D01*
X110981428Y-60760952D02*
X110981428Y-59999047D01*
X111362380Y-60380000D02*
X110600476Y-60380000D01*
X121102380Y-68642857D02*
X120626190Y-68976190D01*
X121102380Y-69214285D02*
X120102380Y-69214285D01*
X120102380Y-68833333D01*
X120150000Y-68738095D01*
X120197619Y-68690476D01*
X120292857Y-68642857D01*
X120435714Y-68642857D01*
X120530952Y-68690476D01*
X120578571Y-68738095D01*
X120626190Y-68833333D01*
X120626190Y-69214285D01*
X120435714Y-67785714D02*
X121102380Y-67785714D01*
X120054761Y-68023809D02*
X120769047Y-68261904D01*
X120769047Y-67642857D01*
X120102380Y-66785714D02*
X120102380Y-67261904D01*
X120578571Y-67309523D01*
X120530952Y-67261904D01*
X120483333Y-67166666D01*
X120483333Y-66928571D01*
X120530952Y-66833333D01*
X120578571Y-66785714D01*
X120673809Y-66738095D01*
X120911904Y-66738095D01*
X121007142Y-66785714D01*
X121054761Y-66833333D01*
X121102380Y-66928571D01*
X121102380Y-67166666D01*
X121054761Y-67261904D01*
X121007142Y-67309523D01*
X103257142Y-52052380D02*
X102923809Y-51576190D01*
X102685714Y-52052380D02*
X102685714Y-51052380D01*
X103066666Y-51052380D01*
X103161904Y-51100000D01*
X103209523Y-51147619D01*
X103257142Y-51242857D01*
X103257142Y-51385714D01*
X103209523Y-51480952D01*
X103161904Y-51528571D01*
X103066666Y-51576190D01*
X102685714Y-51576190D01*
X104114285Y-51385714D02*
X104114285Y-52052380D01*
X103876190Y-51004761D02*
X103638095Y-51719047D01*
X104257142Y-51719047D01*
X105066666Y-51052380D02*
X104876190Y-51052380D01*
X104780952Y-51100000D01*
X104733333Y-51147619D01*
X104638095Y-51290476D01*
X104590476Y-51480952D01*
X104590476Y-51861904D01*
X104638095Y-51957142D01*
X104685714Y-52004761D01*
X104780952Y-52052380D01*
X104971428Y-52052380D01*
X105066666Y-52004761D01*
X105114285Y-51957142D01*
X105161904Y-51861904D01*
X105161904Y-51623809D01*
X105114285Y-51528571D01*
X105066666Y-51480952D01*
X104971428Y-51433333D01*
X104780952Y-51433333D01*
X104685714Y-51480952D01*
X104638095Y-51528571D01*
X104590476Y-51623809D01*
X122757142Y-68642857D02*
X122804761Y-68690476D01*
X122852380Y-68833333D01*
X122852380Y-68928571D01*
X122804761Y-69071428D01*
X122709523Y-69166666D01*
X122614285Y-69214285D01*
X122423809Y-69261904D01*
X122280952Y-69261904D01*
X122090476Y-69214285D01*
X121995238Y-69166666D01*
X121900000Y-69071428D01*
X121852380Y-68928571D01*
X121852380Y-68833333D01*
X121900000Y-68690476D01*
X121947619Y-68642857D01*
X121852380Y-67738095D02*
X121852380Y-68214285D01*
X122328571Y-68261904D01*
X122280952Y-68214285D01*
X122233333Y-68119047D01*
X122233333Y-67880952D01*
X122280952Y-67785714D01*
X122328571Y-67738095D01*
X122423809Y-67690476D01*
X122661904Y-67690476D01*
X122757142Y-67738095D01*
X122804761Y-67785714D01*
X122852380Y-67880952D01*
X122852380Y-68119047D01*
X122804761Y-68214285D01*
X122757142Y-68261904D01*
X121852380Y-66833333D02*
X121852380Y-67023809D01*
X121900000Y-67119047D01*
X121947619Y-67166666D01*
X122090476Y-67261904D01*
X122280952Y-67309523D01*
X122661904Y-67309523D01*
X122757142Y-67261904D01*
X122804761Y-67214285D01*
X122852380Y-67119047D01*
X122852380Y-66928571D01*
X122804761Y-66833333D01*
X122757142Y-66785714D01*
X122661904Y-66738095D01*
X122423809Y-66738095D01*
X122328571Y-66785714D01*
X122280952Y-66833333D01*
X122233333Y-66928571D01*
X122233333Y-67119047D01*
X122280952Y-67214285D01*
X122328571Y-67261904D01*
X122423809Y-67309523D01*
X101557142Y-55742857D02*
X101604761Y-55790476D01*
X101652380Y-55933333D01*
X101652380Y-56028571D01*
X101604761Y-56171428D01*
X101509523Y-56266666D01*
X101414285Y-56314285D01*
X101223809Y-56361904D01*
X101080952Y-56361904D01*
X100890476Y-56314285D01*
X100795238Y-56266666D01*
X100700000Y-56171428D01*
X100652380Y-56028571D01*
X100652380Y-55933333D01*
X100700000Y-55790476D01*
X100747619Y-55742857D01*
X100652380Y-54838095D02*
X100652380Y-55314285D01*
X101128571Y-55361904D01*
X101080952Y-55314285D01*
X101033333Y-55219047D01*
X101033333Y-54980952D01*
X101080952Y-54885714D01*
X101128571Y-54838095D01*
X101223809Y-54790476D01*
X101461904Y-54790476D01*
X101557142Y-54838095D01*
X101604761Y-54885714D01*
X101652380Y-54980952D01*
X101652380Y-55219047D01*
X101604761Y-55314285D01*
X101557142Y-55361904D01*
X101080952Y-54219047D02*
X101033333Y-54314285D01*
X100985714Y-54361904D01*
X100890476Y-54409523D01*
X100842857Y-54409523D01*
X100747619Y-54361904D01*
X100700000Y-54314285D01*
X100652380Y-54219047D01*
X100652380Y-54028571D01*
X100700000Y-53933333D01*
X100747619Y-53885714D01*
X100842857Y-53838095D01*
X100890476Y-53838095D01*
X100985714Y-53885714D01*
X101033333Y-53933333D01*
X101080952Y-54028571D01*
X101080952Y-54219047D01*
X101128571Y-54314285D01*
X101176190Y-54361904D01*
X101271428Y-54409523D01*
X101461904Y-54409523D01*
X101557142Y-54361904D01*
X101604761Y-54314285D01*
X101652380Y-54219047D01*
X101652380Y-54028571D01*
X101604761Y-53933333D01*
X101557142Y-53885714D01*
X101461904Y-53838095D01*
X101271428Y-53838095D01*
X101176190Y-53885714D01*
X101128571Y-53933333D01*
X101080952Y-54028571D01*
X152157142Y-88142857D02*
X152204761Y-88190476D01*
X152252380Y-88333333D01*
X152252380Y-88428571D01*
X152204761Y-88571428D01*
X152109523Y-88666666D01*
X152014285Y-88714285D01*
X151823809Y-88761904D01*
X151680952Y-88761904D01*
X151490476Y-88714285D01*
X151395238Y-88666666D01*
X151300000Y-88571428D01*
X151252380Y-88428571D01*
X151252380Y-88333333D01*
X151300000Y-88190476D01*
X151347619Y-88142857D01*
X151585714Y-87285714D02*
X152252380Y-87285714D01*
X151204761Y-87523809D02*
X151919047Y-87761904D01*
X151919047Y-87142857D01*
X151680952Y-86619047D02*
X151633333Y-86714285D01*
X151585714Y-86761904D01*
X151490476Y-86809523D01*
X151442857Y-86809523D01*
X151347619Y-86761904D01*
X151300000Y-86714285D01*
X151252380Y-86619047D01*
X151252380Y-86428571D01*
X151300000Y-86333333D01*
X151347619Y-86285714D01*
X151442857Y-86238095D01*
X151490476Y-86238095D01*
X151585714Y-86285714D01*
X151633333Y-86333333D01*
X151680952Y-86428571D01*
X151680952Y-86619047D01*
X151728571Y-86714285D01*
X151776190Y-86761904D01*
X151871428Y-86809523D01*
X152061904Y-86809523D01*
X152157142Y-86761904D01*
X152204761Y-86714285D01*
X152252380Y-86619047D01*
X152252380Y-86428571D01*
X152204761Y-86333333D01*
X152157142Y-86285714D01*
X152061904Y-86238095D01*
X151871428Y-86238095D01*
X151776190Y-86285714D01*
X151728571Y-86333333D01*
X151680952Y-86428571D01*
X154257142Y-88142857D02*
X154304761Y-88190476D01*
X154352380Y-88333333D01*
X154352380Y-88428571D01*
X154304761Y-88571428D01*
X154209523Y-88666666D01*
X154114285Y-88714285D01*
X153923809Y-88761904D01*
X153780952Y-88761904D01*
X153590476Y-88714285D01*
X153495238Y-88666666D01*
X153400000Y-88571428D01*
X153352380Y-88428571D01*
X153352380Y-88333333D01*
X153400000Y-88190476D01*
X153447619Y-88142857D01*
X153685714Y-87285714D02*
X154352380Y-87285714D01*
X153304761Y-87523809D02*
X154019047Y-87761904D01*
X154019047Y-87142857D01*
X153447619Y-86809523D02*
X153400000Y-86761904D01*
X153352380Y-86666666D01*
X153352380Y-86428571D01*
X153400000Y-86333333D01*
X153447619Y-86285714D01*
X153542857Y-86238095D01*
X153638095Y-86238095D01*
X153780952Y-86285714D01*
X154352380Y-86857142D01*
X154352380Y-86238095D01*
X121257142Y-133492857D02*
X121304761Y-133540476D01*
X121352380Y-133683333D01*
X121352380Y-133778571D01*
X121304761Y-133921428D01*
X121209523Y-134016666D01*
X121114285Y-134064285D01*
X120923809Y-134111904D01*
X120780952Y-134111904D01*
X120590476Y-134064285D01*
X120495238Y-134016666D01*
X120400000Y-133921428D01*
X120352380Y-133778571D01*
X120352380Y-133683333D01*
X120400000Y-133540476D01*
X120447619Y-133492857D01*
X120447619Y-133111904D02*
X120400000Y-133064285D01*
X120352380Y-132969047D01*
X120352380Y-132730952D01*
X120400000Y-132635714D01*
X120447619Y-132588095D01*
X120542857Y-132540476D01*
X120638095Y-132540476D01*
X120780952Y-132588095D01*
X121352380Y-133159523D01*
X121352380Y-132540476D01*
X120685714Y-131683333D02*
X121352380Y-131683333D01*
X120304761Y-131921428D02*
X121019047Y-132159523D01*
X121019047Y-131540476D01*
X141657142Y-133242857D02*
X141704761Y-133290476D01*
X141752380Y-133433333D01*
X141752380Y-133528571D01*
X141704761Y-133671428D01*
X141609523Y-133766666D01*
X141514285Y-133814285D01*
X141323809Y-133861904D01*
X141180952Y-133861904D01*
X140990476Y-133814285D01*
X140895238Y-133766666D01*
X140800000Y-133671428D01*
X140752380Y-133528571D01*
X140752380Y-133433333D01*
X140800000Y-133290476D01*
X140847619Y-133242857D01*
X140847619Y-132861904D02*
X140800000Y-132814285D01*
X140752380Y-132719047D01*
X140752380Y-132480952D01*
X140800000Y-132385714D01*
X140847619Y-132338095D01*
X140942857Y-132290476D01*
X141038095Y-132290476D01*
X141180952Y-132338095D01*
X141752380Y-132909523D01*
X141752380Y-132290476D01*
X140752380Y-131385714D02*
X140752380Y-131861904D01*
X141228571Y-131909523D01*
X141180952Y-131861904D01*
X141133333Y-131766666D01*
X141133333Y-131528571D01*
X141180952Y-131433333D01*
X141228571Y-131385714D01*
X141323809Y-131338095D01*
X141561904Y-131338095D01*
X141657142Y-131385714D01*
X141704761Y-131433333D01*
X141752380Y-131528571D01*
X141752380Y-131766666D01*
X141704761Y-131861904D01*
X141657142Y-131909523D01*
X115357142Y-92257142D02*
X115309523Y-92304761D01*
X115166666Y-92352380D01*
X115071428Y-92352380D01*
X114928571Y-92304761D01*
X114833333Y-92209523D01*
X114785714Y-92114285D01*
X114738095Y-91923809D01*
X114738095Y-91780952D01*
X114785714Y-91590476D01*
X114833333Y-91495238D01*
X114928571Y-91400000D01*
X115071428Y-91352380D01*
X115166666Y-91352380D01*
X115309523Y-91400000D01*
X115357142Y-91447619D01*
X116214285Y-91685714D02*
X116214285Y-92352380D01*
X115976190Y-91304761D02*
X115738095Y-92019047D01*
X116357142Y-92019047D01*
X116642857Y-91352380D02*
X117309523Y-91352380D01*
X116880952Y-92352380D01*
X156766666Y-153552380D02*
X156766666Y-154266666D01*
X156719047Y-154409523D01*
X156623809Y-154504761D01*
X156480952Y-154552380D01*
X156385714Y-154552380D01*
X157671428Y-153552380D02*
X157480952Y-153552380D01*
X157385714Y-153600000D01*
X157338095Y-153647619D01*
X157242857Y-153790476D01*
X157195238Y-153980952D01*
X157195238Y-154361904D01*
X157242857Y-154457142D01*
X157290476Y-154504761D01*
X157385714Y-154552380D01*
X157576190Y-154552380D01*
X157671428Y-154504761D01*
X157719047Y-154457142D01*
X157766666Y-154361904D01*
X157766666Y-154123809D01*
X157719047Y-154028571D01*
X157671428Y-153980952D01*
X157576190Y-153933333D01*
X157385714Y-153933333D01*
X157290476Y-153980952D01*
X157242857Y-154028571D01*
X157195238Y-154123809D01*
X129833333Y-64452380D02*
X129357142Y-64452380D01*
X129357142Y-63452380D01*
X130119047Y-63547619D02*
X130166666Y-63500000D01*
X130261904Y-63452380D01*
X130500000Y-63452380D01*
X130595238Y-63500000D01*
X130642857Y-63547619D01*
X130690476Y-63642857D01*
X130690476Y-63738095D01*
X130642857Y-63880952D01*
X130071428Y-64452380D01*
X130690476Y-64452380D01*
X149057142Y-111057142D02*
X149009523Y-111104761D01*
X148866666Y-111152380D01*
X148771428Y-111152380D01*
X148628571Y-111104761D01*
X148533333Y-111009523D01*
X148485714Y-110914285D01*
X148438095Y-110723809D01*
X148438095Y-110580952D01*
X148485714Y-110390476D01*
X148533333Y-110295238D01*
X148628571Y-110200000D01*
X148771428Y-110152380D01*
X148866666Y-110152380D01*
X149009523Y-110200000D01*
X149057142Y-110247619D01*
X150009523Y-111152380D02*
X149438095Y-111152380D01*
X149723809Y-111152380D02*
X149723809Y-110152380D01*
X149628571Y-110295238D01*
X149533333Y-110390476D01*
X149438095Y-110438095D01*
X150342857Y-110152380D02*
X150961904Y-110152380D01*
X150628571Y-110533333D01*
X150771428Y-110533333D01*
X150866666Y-110580952D01*
X150914285Y-110628571D01*
X150961904Y-110723809D01*
X150961904Y-110961904D01*
X150914285Y-111057142D01*
X150866666Y-111104761D01*
X150771428Y-111152380D01*
X150485714Y-111152380D01*
X150390476Y-111104761D01*
X150342857Y-111057142D01*
X149433333Y-114457142D02*
X149385714Y-114504761D01*
X149242857Y-114552380D01*
X149147619Y-114552380D01*
X149004761Y-114504761D01*
X148909523Y-114409523D01*
X148861904Y-114314285D01*
X148814285Y-114123809D01*
X148814285Y-113980952D01*
X148861904Y-113790476D01*
X148909523Y-113695238D01*
X149004761Y-113600000D01*
X149147619Y-113552380D01*
X149242857Y-113552380D01*
X149385714Y-113600000D01*
X149433333Y-113647619D01*
X150290476Y-113885714D02*
X150290476Y-114552380D01*
X150052380Y-113504761D02*
X149814285Y-114219047D01*
X150433333Y-114219047D01*
X146138095Y-106552380D02*
X146138095Y-107361904D01*
X146185714Y-107457142D01*
X146233333Y-107504761D01*
X146328571Y-107552380D01*
X146519047Y-107552380D01*
X146614285Y-107504761D01*
X146661904Y-107457142D01*
X146709523Y-107361904D01*
X146709523Y-106552380D01*
X147661904Y-106552380D02*
X147185714Y-106552380D01*
X147138095Y-107028571D01*
X147185714Y-106980952D01*
X147280952Y-106933333D01*
X147519047Y-106933333D01*
X147614285Y-106980952D01*
X147661904Y-107028571D01*
X147709523Y-107123809D01*
X147709523Y-107361904D01*
X147661904Y-107457142D01*
X147614285Y-107504761D01*
X147519047Y-107552380D01*
X147280952Y-107552380D01*
X147185714Y-107504761D01*
X147138095Y-107457142D01*
X107357142Y-92142857D02*
X107404761Y-92190476D01*
X107452380Y-92333333D01*
X107452380Y-92428571D01*
X107404761Y-92571428D01*
X107309523Y-92666666D01*
X107214285Y-92714285D01*
X107023809Y-92761904D01*
X106880952Y-92761904D01*
X106690476Y-92714285D01*
X106595238Y-92666666D01*
X106500000Y-92571428D01*
X106452380Y-92428571D01*
X106452380Y-92333333D01*
X106500000Y-92190476D01*
X106547619Y-92142857D01*
X106547619Y-91761904D02*
X106500000Y-91714285D01*
X106452380Y-91619047D01*
X106452380Y-91380952D01*
X106500000Y-91285714D01*
X106547619Y-91238095D01*
X106642857Y-91190476D01*
X106738095Y-91190476D01*
X106880952Y-91238095D01*
X107452380Y-91809523D01*
X107452380Y-91190476D01*
X106547619Y-90809523D02*
X106500000Y-90761904D01*
X106452380Y-90666666D01*
X106452380Y-90428571D01*
X106500000Y-90333333D01*
X106547619Y-90285714D01*
X106642857Y-90238095D01*
X106738095Y-90238095D01*
X106880952Y-90285714D01*
X107452380Y-90857142D01*
X107452380Y-90238095D01*
X103952380Y-92142857D02*
X103476190Y-92476190D01*
X103952380Y-92714285D02*
X102952380Y-92714285D01*
X102952380Y-92333333D01*
X103000000Y-92238095D01*
X103047619Y-92190476D01*
X103142857Y-92142857D01*
X103285714Y-92142857D01*
X103380952Y-92190476D01*
X103428571Y-92238095D01*
X103476190Y-92333333D01*
X103476190Y-92714285D01*
X103952380Y-91190476D02*
X103952380Y-91761904D01*
X103952380Y-91476190D02*
X102952380Y-91476190D01*
X103095238Y-91571428D01*
X103190476Y-91666666D01*
X103238095Y-91761904D01*
X102952380Y-90571428D02*
X102952380Y-90476190D01*
X103000000Y-90380952D01*
X103047619Y-90333333D01*
X103142857Y-90285714D01*
X103333333Y-90238095D01*
X103571428Y-90238095D01*
X103761904Y-90285714D01*
X103857142Y-90333333D01*
X103904761Y-90380952D01*
X103952380Y-90476190D01*
X103952380Y-90571428D01*
X103904761Y-90666666D01*
X103857142Y-90714285D01*
X103761904Y-90761904D01*
X103571428Y-90809523D01*
X103333333Y-90809523D01*
X103142857Y-90761904D01*
X103047619Y-90714285D01*
X103000000Y-90666666D01*
X102952380Y-90571428D01*
X105752380Y-92166666D02*
X105276190Y-92500000D01*
X105752380Y-92738095D02*
X104752380Y-92738095D01*
X104752380Y-92357142D01*
X104800000Y-92261904D01*
X104847619Y-92214285D01*
X104942857Y-92166666D01*
X105085714Y-92166666D01*
X105180952Y-92214285D01*
X105228571Y-92261904D01*
X105276190Y-92357142D01*
X105276190Y-92738095D01*
X105085714Y-91309523D02*
X105752380Y-91309523D01*
X104704761Y-91547619D02*
X105419047Y-91785714D01*
X105419047Y-91166666D01*
X119638095Y-74852380D02*
X119638095Y-75661904D01*
X119685714Y-75757142D01*
X119733333Y-75804761D01*
X119828571Y-75852380D01*
X120019047Y-75852380D01*
X120114285Y-75804761D01*
X120161904Y-75757142D01*
X120209523Y-75661904D01*
X120209523Y-74852380D01*
X120590476Y-74852380D02*
X121257142Y-74852380D01*
X120828571Y-75852380D01*
X112630952Y-77266666D02*
X113107142Y-77266666D01*
X112535714Y-77552380D02*
X112869047Y-76552380D01*
X113202380Y-77552380D01*
X113488095Y-77504761D02*
X113630952Y-77552380D01*
X113869047Y-77552380D01*
X113964285Y-77504761D01*
X114011904Y-77457142D01*
X114059523Y-77361904D01*
X114059523Y-77266666D01*
X114011904Y-77171428D01*
X113964285Y-77123809D01*
X113869047Y-77076190D01*
X113678571Y-77028571D01*
X113583333Y-76980952D01*
X113535714Y-76933333D01*
X113488095Y-76838095D01*
X113488095Y-76742857D01*
X113535714Y-76647619D01*
X113583333Y-76600000D01*
X113678571Y-76552380D01*
X113916666Y-76552380D01*
X114059523Y-76600000D01*
X114392857Y-76552380D02*
X115011904Y-76552380D01*
X114678571Y-76933333D01*
X114821428Y-76933333D01*
X114916666Y-76980952D01*
X114964285Y-77028571D01*
X115011904Y-77123809D01*
X115011904Y-77361904D01*
X114964285Y-77457142D01*
X114916666Y-77504761D01*
X114821428Y-77552380D01*
X114535714Y-77552380D01*
X114440476Y-77504761D01*
X114392857Y-77457142D01*
X115345238Y-76552380D02*
X115964285Y-76552380D01*
X115630952Y-76933333D01*
X115773809Y-76933333D01*
X115869047Y-76980952D01*
X115916666Y-77028571D01*
X115964285Y-77123809D01*
X115964285Y-77361904D01*
X115916666Y-77457142D01*
X115869047Y-77504761D01*
X115773809Y-77552380D01*
X115488095Y-77552380D01*
X115392857Y-77504761D01*
X115345238Y-77457142D01*
X116821428Y-76552380D02*
X116630952Y-76552380D01*
X116535714Y-76600000D01*
X116488095Y-76647619D01*
X116392857Y-76790476D01*
X116345238Y-76980952D01*
X116345238Y-77361904D01*
X116392857Y-77457142D01*
X116440476Y-77504761D01*
X116535714Y-77552380D01*
X116726190Y-77552380D01*
X116821428Y-77504761D01*
X116869047Y-77457142D01*
X116916666Y-77361904D01*
X116916666Y-77123809D01*
X116869047Y-77028571D01*
X116821428Y-76980952D01*
X116726190Y-76933333D01*
X116535714Y-76933333D01*
X116440476Y-76980952D01*
X116392857Y-77028571D01*
X116345238Y-77123809D01*
X117773809Y-76885714D02*
X117773809Y-77552380D01*
X117535714Y-76504761D02*
X117297619Y-77219047D01*
X117916666Y-77219047D01*
X124652380Y-78661904D02*
X125461904Y-78661904D01*
X125557142Y-78614285D01*
X125604761Y-78566666D01*
X125652380Y-78471428D01*
X125652380Y-78280952D01*
X125604761Y-78185714D01*
X125557142Y-78138095D01*
X125461904Y-78090476D01*
X124652380Y-78090476D01*
X124747619Y-77661904D02*
X124700000Y-77614285D01*
X124652380Y-77519047D01*
X124652380Y-77280952D01*
X124700000Y-77185714D01*
X124747619Y-77138095D01*
X124842857Y-77090476D01*
X124938095Y-77090476D01*
X125080952Y-77138095D01*
X125652380Y-77709523D01*
X125652380Y-77090476D01*
X128930952Y-76652380D02*
X129502380Y-76652380D01*
X129216666Y-77652380D02*
X129216666Y-76652380D01*
X130311904Y-77652380D02*
X129835714Y-77652380D01*
X129835714Y-76652380D01*
X130835714Y-76652380D02*
X130930952Y-76652380D01*
X131026190Y-76700000D01*
X131073809Y-76747619D01*
X131121428Y-76842857D01*
X131169047Y-77033333D01*
X131169047Y-77271428D01*
X131121428Y-77461904D01*
X131073809Y-77557142D01*
X131026190Y-77604761D01*
X130930952Y-77652380D01*
X130835714Y-77652380D01*
X130740476Y-77604761D01*
X130692857Y-77557142D01*
X130645238Y-77461904D01*
X130597619Y-77271428D01*
X130597619Y-77033333D01*
X130645238Y-76842857D01*
X130692857Y-76747619D01*
X130740476Y-76700000D01*
X130835714Y-76652380D01*
X131502380Y-76652380D02*
X132169047Y-76652380D01*
X131740476Y-77652380D01*
X132978571Y-76985714D02*
X132978571Y-77652380D01*
X132740476Y-76604761D02*
X132502380Y-77319047D01*
X133121428Y-77319047D01*
X113338095Y-119452380D02*
X113338095Y-120261904D01*
X113385714Y-120357142D01*
X113433333Y-120404761D01*
X113528571Y-120452380D01*
X113719047Y-120452380D01*
X113814285Y-120404761D01*
X113861904Y-120357142D01*
X113909523Y-120261904D01*
X113909523Y-119452380D01*
X114290476Y-119452380D02*
X114909523Y-119452380D01*
X114576190Y-119833333D01*
X114719047Y-119833333D01*
X114814285Y-119880952D01*
X114861904Y-119928571D01*
X114909523Y-120023809D01*
X114909523Y-120261904D01*
X114861904Y-120357142D01*
X114814285Y-120404761D01*
X114719047Y-120452380D01*
X114433333Y-120452380D01*
X114338095Y-120404761D01*
X114290476Y-120357142D01*
X108802380Y-121163095D02*
X107802380Y-121163095D01*
X108516666Y-120829761D01*
X107802380Y-120496428D01*
X108802380Y-120496428D01*
X108707142Y-119448809D02*
X108754761Y-119496428D01*
X108802380Y-119639285D01*
X108802380Y-119734523D01*
X108754761Y-119877380D01*
X108659523Y-119972619D01*
X108564285Y-120020238D01*
X108373809Y-120067857D01*
X108230952Y-120067857D01*
X108040476Y-120020238D01*
X107945238Y-119972619D01*
X107850000Y-119877380D01*
X107802380Y-119734523D01*
X107802380Y-119639285D01*
X107850000Y-119496428D01*
X107897619Y-119448809D01*
X108802380Y-119020238D02*
X107802380Y-119020238D01*
X107802380Y-118639285D01*
X107850000Y-118544047D01*
X107897619Y-118496428D01*
X107992857Y-118448809D01*
X108135714Y-118448809D01*
X108230952Y-118496428D01*
X108278571Y-118544047D01*
X108326190Y-118639285D01*
X108326190Y-119020238D01*
X107802380Y-117591666D02*
X107802380Y-117782142D01*
X107850000Y-117877380D01*
X107897619Y-117925000D01*
X108040476Y-118020238D01*
X108230952Y-118067857D01*
X108611904Y-118067857D01*
X108707142Y-118020238D01*
X108754761Y-117972619D01*
X108802380Y-117877380D01*
X108802380Y-117686904D01*
X108754761Y-117591666D01*
X108707142Y-117544047D01*
X108611904Y-117496428D01*
X108373809Y-117496428D01*
X108278571Y-117544047D01*
X108230952Y-117591666D01*
X108183333Y-117686904D01*
X108183333Y-117877380D01*
X108230952Y-117972619D01*
X108278571Y-118020238D01*
X108373809Y-118067857D01*
X107802380Y-116877380D02*
X107802380Y-116782142D01*
X107850000Y-116686904D01*
X107897619Y-116639285D01*
X107992857Y-116591666D01*
X108183333Y-116544047D01*
X108421428Y-116544047D01*
X108611904Y-116591666D01*
X108707142Y-116639285D01*
X108754761Y-116686904D01*
X108802380Y-116782142D01*
X108802380Y-116877380D01*
X108754761Y-116972619D01*
X108707142Y-117020238D01*
X108611904Y-117067857D01*
X108421428Y-117115476D01*
X108183333Y-117115476D01*
X107992857Y-117067857D01*
X107897619Y-117020238D01*
X107850000Y-116972619D01*
X107802380Y-116877380D01*
X107802380Y-115925000D02*
X107802380Y-115829761D01*
X107850000Y-115734523D01*
X107897619Y-115686904D01*
X107992857Y-115639285D01*
X108183333Y-115591666D01*
X108421428Y-115591666D01*
X108611904Y-115639285D01*
X108707142Y-115686904D01*
X108754761Y-115734523D01*
X108802380Y-115829761D01*
X108802380Y-115925000D01*
X108754761Y-116020238D01*
X108707142Y-116067857D01*
X108611904Y-116115476D01*
X108421428Y-116163095D01*
X108183333Y-116163095D01*
X107992857Y-116115476D01*
X107897619Y-116067857D01*
X107850000Y-116020238D01*
X107802380Y-115925000D01*
X108135714Y-114734523D02*
X108802380Y-114734523D01*
X107754761Y-114972619D02*
X108469047Y-115210714D01*
X108469047Y-114591666D01*
X112538095Y-101852380D02*
X112538095Y-102661904D01*
X112585714Y-102757142D01*
X112633333Y-102804761D01*
X112728571Y-102852380D01*
X112919047Y-102852380D01*
X113014285Y-102804761D01*
X113061904Y-102757142D01*
X113109523Y-102661904D01*
X113109523Y-101852380D01*
X114109523Y-102852380D02*
X113538095Y-102852380D01*
X113823809Y-102852380D02*
X113823809Y-101852380D01*
X113728571Y-101995238D01*
X113633333Y-102090476D01*
X113538095Y-102138095D01*
X110011904Y-97852380D02*
X110011904Y-96852380D01*
X110345238Y-97566666D01*
X110678571Y-96852380D01*
X110678571Y-97852380D01*
X111726190Y-97757142D02*
X111678571Y-97804761D01*
X111535714Y-97852380D01*
X111440476Y-97852380D01*
X111297619Y-97804761D01*
X111202380Y-97709523D01*
X111154761Y-97614285D01*
X111107142Y-97423809D01*
X111107142Y-97280952D01*
X111154761Y-97090476D01*
X111202380Y-96995238D01*
X111297619Y-96900000D01*
X111440476Y-96852380D01*
X111535714Y-96852380D01*
X111678571Y-96900000D01*
X111726190Y-96947619D01*
X112154761Y-97852380D02*
X112154761Y-96852380D01*
X112535714Y-96852380D01*
X112630952Y-96900000D01*
X112678571Y-96947619D01*
X112726190Y-97042857D01*
X112726190Y-97185714D01*
X112678571Y-97280952D01*
X112630952Y-97328571D01*
X112535714Y-97376190D01*
X112154761Y-97376190D01*
X113583333Y-96852380D02*
X113392857Y-96852380D01*
X113297619Y-96900000D01*
X113250000Y-96947619D01*
X113154761Y-97090476D01*
X113107142Y-97280952D01*
X113107142Y-97661904D01*
X113154761Y-97757142D01*
X113202380Y-97804761D01*
X113297619Y-97852380D01*
X113488095Y-97852380D01*
X113583333Y-97804761D01*
X113630952Y-97757142D01*
X113678571Y-97661904D01*
X113678571Y-97423809D01*
X113630952Y-97328571D01*
X113583333Y-97280952D01*
X113488095Y-97233333D01*
X113297619Y-97233333D01*
X113202380Y-97280952D01*
X113154761Y-97328571D01*
X113107142Y-97423809D01*
X114297619Y-96852380D02*
X114392857Y-96852380D01*
X114488095Y-96900000D01*
X114535714Y-96947619D01*
X114583333Y-97042857D01*
X114630952Y-97233333D01*
X114630952Y-97471428D01*
X114583333Y-97661904D01*
X114535714Y-97757142D01*
X114488095Y-97804761D01*
X114392857Y-97852380D01*
X114297619Y-97852380D01*
X114202380Y-97804761D01*
X114154761Y-97757142D01*
X114107142Y-97661904D01*
X114059523Y-97471428D01*
X114059523Y-97233333D01*
X114107142Y-97042857D01*
X114154761Y-96947619D01*
X114202380Y-96900000D01*
X114297619Y-96852380D01*
X115250000Y-96852380D02*
X115345238Y-96852380D01*
X115440476Y-96900000D01*
X115488095Y-96947619D01*
X115535714Y-97042857D01*
X115583333Y-97233333D01*
X115583333Y-97471428D01*
X115535714Y-97661904D01*
X115488095Y-97757142D01*
X115440476Y-97804761D01*
X115345238Y-97852380D01*
X115250000Y-97852380D01*
X115154761Y-97804761D01*
X115107142Y-97757142D01*
X115059523Y-97661904D01*
X115011904Y-97471428D01*
X115011904Y-97233333D01*
X115059523Y-97042857D01*
X115107142Y-96947619D01*
X115154761Y-96900000D01*
X115250000Y-96852380D01*
X116440476Y-97185714D02*
X116440476Y-97852380D01*
X116202380Y-96804761D02*
X115964285Y-97519047D01*
X116583333Y-97519047D01*
X136652380Y-88842857D02*
X136176190Y-89176190D01*
X136652380Y-89414285D02*
X135652380Y-89414285D01*
X135652380Y-89033333D01*
X135700000Y-88938095D01*
X135747619Y-88890476D01*
X135842857Y-88842857D01*
X135985714Y-88842857D01*
X136080952Y-88890476D01*
X136128571Y-88938095D01*
X136176190Y-89033333D01*
X136176190Y-89414285D01*
X136652380Y-87890476D02*
X136652380Y-88461904D01*
X136652380Y-88176190D02*
X135652380Y-88176190D01*
X135795238Y-88271428D01*
X135890476Y-88366666D01*
X135938095Y-88461904D01*
X136652380Y-86938095D02*
X136652380Y-87509523D01*
X136652380Y-87223809D02*
X135652380Y-87223809D01*
X135795238Y-87319047D01*
X135890476Y-87414285D01*
X135938095Y-87509523D01*
X126652380Y-88066666D02*
X126176190Y-88400000D01*
X126652380Y-88638095D02*
X125652380Y-88638095D01*
X125652380Y-88257142D01*
X125700000Y-88161904D01*
X125747619Y-88114285D01*
X125842857Y-88066666D01*
X125985714Y-88066666D01*
X126080952Y-88114285D01*
X126128571Y-88161904D01*
X126176190Y-88257142D01*
X126176190Y-88638095D01*
X125747619Y-87685714D02*
X125700000Y-87638095D01*
X125652380Y-87542857D01*
X125652380Y-87304761D01*
X125700000Y-87209523D01*
X125747619Y-87161904D01*
X125842857Y-87114285D01*
X125938095Y-87114285D01*
X126080952Y-87161904D01*
X126652380Y-87733333D01*
X126652380Y-87114285D01*
D13*
X134861904Y-88614285D02*
X134480952Y-88880952D01*
X134861904Y-89071428D02*
X134061904Y-89071428D01*
X134061904Y-88766666D01*
X134100000Y-88690476D01*
X134138095Y-88652380D01*
X134214285Y-88614285D01*
X134328571Y-88614285D01*
X134404761Y-88652380D01*
X134442857Y-88690476D01*
X134480952Y-88766666D01*
X134480952Y-89071428D01*
X134861904Y-87852380D02*
X134861904Y-88309523D01*
X134861904Y-88080952D02*
X134061904Y-88080952D01*
X134176190Y-88157142D01*
X134252380Y-88233333D01*
X134290476Y-88309523D01*
X134061904Y-87128571D02*
X134061904Y-87509523D01*
X134442857Y-87547619D01*
X134404761Y-87509523D01*
X134366666Y-87433333D01*
X134366666Y-87242857D01*
X134404761Y-87166666D01*
X134442857Y-87128571D01*
X134519047Y-87090476D01*
X134709523Y-87090476D01*
X134785714Y-87128571D01*
X134823809Y-87166666D01*
X134861904Y-87242857D01*
X134861904Y-87433333D01*
X134823809Y-87509523D01*
X134785714Y-87547619D01*
D10*
X128352380Y-88066666D02*
X127876190Y-88400000D01*
X128352380Y-88638095D02*
X127352380Y-88638095D01*
X127352380Y-88257142D01*
X127400000Y-88161904D01*
X127447619Y-88114285D01*
X127542857Y-88066666D01*
X127685714Y-88066666D01*
X127780952Y-88114285D01*
X127828571Y-88161904D01*
X127876190Y-88257142D01*
X127876190Y-88638095D01*
X128352380Y-87590476D02*
X128352380Y-87400000D01*
X128304761Y-87304761D01*
X128257142Y-87257142D01*
X128114285Y-87161904D01*
X127923809Y-87114285D01*
X127542857Y-87114285D01*
X127447619Y-87161904D01*
X127400000Y-87209523D01*
X127352380Y-87304761D01*
X127352380Y-87495238D01*
X127400000Y-87590476D01*
X127447619Y-87638095D01*
X127542857Y-87685714D01*
X127780952Y-87685714D01*
X127876190Y-87638095D01*
X127923809Y-87590476D01*
X127971428Y-87495238D01*
X127971428Y-87304761D01*
X127923809Y-87209523D01*
X127876190Y-87161904D01*
X127780952Y-87114285D01*
X133252380Y-88942857D02*
X132776190Y-89276190D01*
X133252380Y-89514285D02*
X132252380Y-89514285D01*
X132252380Y-89133333D01*
X132300000Y-89038095D01*
X132347619Y-88990476D01*
X132442857Y-88942857D01*
X132585714Y-88942857D01*
X132680952Y-88990476D01*
X132728571Y-89038095D01*
X132776190Y-89133333D01*
X132776190Y-89514285D01*
X133252380Y-87990476D02*
X133252380Y-88561904D01*
X133252380Y-88276190D02*
X132252380Y-88276190D01*
X132395238Y-88371428D01*
X132490476Y-88466666D01*
X132538095Y-88561904D01*
X132585714Y-87133333D02*
X133252380Y-87133333D01*
X132204761Y-87371428D02*
X132919047Y-87609523D01*
X132919047Y-86990476D01*
X130052380Y-88066666D02*
X129576190Y-88400000D01*
X130052380Y-88638095D02*
X129052380Y-88638095D01*
X129052380Y-88257142D01*
X129100000Y-88161904D01*
X129147619Y-88114285D01*
X129242857Y-88066666D01*
X129385714Y-88066666D01*
X129480952Y-88114285D01*
X129528571Y-88161904D01*
X129576190Y-88257142D01*
X129576190Y-88638095D01*
X129480952Y-87495238D02*
X129433333Y-87590476D01*
X129385714Y-87638095D01*
X129290476Y-87685714D01*
X129242857Y-87685714D01*
X129147619Y-87638095D01*
X129100000Y-87590476D01*
X129052380Y-87495238D01*
X129052380Y-87304761D01*
X129100000Y-87209523D01*
X129147619Y-87161904D01*
X129242857Y-87114285D01*
X129290476Y-87114285D01*
X129385714Y-87161904D01*
X129433333Y-87209523D01*
X129480952Y-87304761D01*
X129480952Y-87495238D01*
X129528571Y-87590476D01*
X129576190Y-87638095D01*
X129671428Y-87685714D01*
X129861904Y-87685714D01*
X129957142Y-87638095D01*
X130004761Y-87590476D01*
X130052380Y-87495238D01*
X130052380Y-87304761D01*
X130004761Y-87209523D01*
X129957142Y-87161904D01*
X129861904Y-87114285D01*
X129671428Y-87114285D01*
X129576190Y-87161904D01*
X129528571Y-87209523D01*
X129480952Y-87304761D01*
X113933333Y-124752380D02*
X113600000Y-124276190D01*
X113361904Y-124752380D02*
X113361904Y-123752380D01*
X113742857Y-123752380D01*
X113838095Y-123800000D01*
X113885714Y-123847619D01*
X113933333Y-123942857D01*
X113933333Y-124085714D01*
X113885714Y-124180952D01*
X113838095Y-124228571D01*
X113742857Y-124276190D01*
X113361904Y-124276190D01*
X114790476Y-123752380D02*
X114600000Y-123752380D01*
X114504761Y-123800000D01*
X114457142Y-123847619D01*
X114361904Y-123990476D01*
X114314285Y-124180952D01*
X114314285Y-124561904D01*
X114361904Y-124657142D01*
X114409523Y-124704761D01*
X114504761Y-124752380D01*
X114695238Y-124752380D01*
X114790476Y-124704761D01*
X114838095Y-124657142D01*
X114885714Y-124561904D01*
X114885714Y-124323809D01*
X114838095Y-124228571D01*
X114790476Y-124180952D01*
X114695238Y-124133333D01*
X114504761Y-124133333D01*
X114409523Y-124180952D01*
X114361904Y-124228571D01*
X114314285Y-124323809D01*
X113933333Y-126552380D02*
X113600000Y-126076190D01*
X113361904Y-126552380D02*
X113361904Y-125552380D01*
X113742857Y-125552380D01*
X113838095Y-125600000D01*
X113885714Y-125647619D01*
X113933333Y-125742857D01*
X113933333Y-125885714D01*
X113885714Y-125980952D01*
X113838095Y-126028571D01*
X113742857Y-126076190D01*
X113361904Y-126076190D01*
X114838095Y-125552380D02*
X114361904Y-125552380D01*
X114314285Y-126028571D01*
X114361904Y-125980952D01*
X114457142Y-125933333D01*
X114695238Y-125933333D01*
X114790476Y-125980952D01*
X114838095Y-126028571D01*
X114885714Y-126123809D01*
X114885714Y-126361904D01*
X114838095Y-126457142D01*
X114790476Y-126504761D01*
X114695238Y-126552380D01*
X114457142Y-126552380D01*
X114361904Y-126504761D01*
X114314285Y-126457142D01*
X102433333Y-124752380D02*
X102100000Y-124276190D01*
X101861904Y-124752380D02*
X101861904Y-123752380D01*
X102242857Y-123752380D01*
X102338095Y-123800000D01*
X102385714Y-123847619D01*
X102433333Y-123942857D01*
X102433333Y-124085714D01*
X102385714Y-124180952D01*
X102338095Y-124228571D01*
X102242857Y-124276190D01*
X101861904Y-124276190D01*
X103385714Y-124752380D02*
X102814285Y-124752380D01*
X103100000Y-124752380D02*
X103100000Y-123752380D01*
X103004761Y-123895238D01*
X102909523Y-123990476D01*
X102814285Y-124038095D01*
X122052380Y-104142857D02*
X121576190Y-104476190D01*
X122052380Y-104714285D02*
X121052380Y-104714285D01*
X121052380Y-104333333D01*
X121100000Y-104238095D01*
X121147619Y-104190476D01*
X121242857Y-104142857D01*
X121385714Y-104142857D01*
X121480952Y-104190476D01*
X121528571Y-104238095D01*
X121576190Y-104333333D01*
X121576190Y-104714285D01*
X121052380Y-103809523D02*
X121052380Y-103190476D01*
X121433333Y-103523809D01*
X121433333Y-103380952D01*
X121480952Y-103285714D01*
X121528571Y-103238095D01*
X121623809Y-103190476D01*
X121861904Y-103190476D01*
X121957142Y-103238095D01*
X122004761Y-103285714D01*
X122052380Y-103380952D01*
X122052380Y-103666666D01*
X122004761Y-103761904D01*
X121957142Y-103809523D01*
X121052380Y-102857142D02*
X121052380Y-102238095D01*
X121433333Y-102571428D01*
X121433333Y-102428571D01*
X121480952Y-102333333D01*
X121528571Y-102285714D01*
X121623809Y-102238095D01*
X121861904Y-102238095D01*
X121957142Y-102285714D01*
X122004761Y-102333333D01*
X122052380Y-102428571D01*
X122052380Y-102714285D01*
X122004761Y-102809523D01*
X121957142Y-102857142D01*
X105752380Y-104142857D02*
X105276190Y-104476190D01*
X105752380Y-104714285D02*
X104752380Y-104714285D01*
X104752380Y-104333333D01*
X104800000Y-104238095D01*
X104847619Y-104190476D01*
X104942857Y-104142857D01*
X105085714Y-104142857D01*
X105180952Y-104190476D01*
X105228571Y-104238095D01*
X105276190Y-104333333D01*
X105276190Y-104714285D01*
X104847619Y-103761904D02*
X104800000Y-103714285D01*
X104752380Y-103619047D01*
X104752380Y-103380952D01*
X104800000Y-103285714D01*
X104847619Y-103238095D01*
X104942857Y-103190476D01*
X105038095Y-103190476D01*
X105180952Y-103238095D01*
X105752380Y-103809523D01*
X105752380Y-103190476D01*
X104847619Y-102809523D02*
X104800000Y-102761904D01*
X104752380Y-102666666D01*
X104752380Y-102428571D01*
X104800000Y-102333333D01*
X104847619Y-102285714D01*
X104942857Y-102238095D01*
X105038095Y-102238095D01*
X105180952Y-102285714D01*
X105752380Y-102857142D01*
X105752380Y-102238095D01*
X102152380Y-104142857D02*
X101676190Y-104476190D01*
X102152380Y-104714285D02*
X101152380Y-104714285D01*
X101152380Y-104333333D01*
X101200000Y-104238095D01*
X101247619Y-104190476D01*
X101342857Y-104142857D01*
X101485714Y-104142857D01*
X101580952Y-104190476D01*
X101628571Y-104238095D01*
X101676190Y-104333333D01*
X101676190Y-104714285D01*
X101247619Y-103761904D02*
X101200000Y-103714285D01*
X101152380Y-103619047D01*
X101152380Y-103380952D01*
X101200000Y-103285714D01*
X101247619Y-103238095D01*
X101342857Y-103190476D01*
X101438095Y-103190476D01*
X101580952Y-103238095D01*
X102152380Y-103809523D01*
X102152380Y-103190476D01*
X102152380Y-102238095D02*
X102152380Y-102809523D01*
X102152380Y-102523809D02*
X101152380Y-102523809D01*
X101295238Y-102619047D01*
X101390476Y-102714285D01*
X101438095Y-102809523D01*
X145052380Y-71842857D02*
X144576190Y-72176190D01*
X145052380Y-72414285D02*
X144052380Y-72414285D01*
X144052380Y-72033333D01*
X144100000Y-71938095D01*
X144147619Y-71890476D01*
X144242857Y-71842857D01*
X144385714Y-71842857D01*
X144480952Y-71890476D01*
X144528571Y-71938095D01*
X144576190Y-72033333D01*
X144576190Y-72414285D01*
X144147619Y-71461904D02*
X144100000Y-71414285D01*
X144052380Y-71319047D01*
X144052380Y-71080952D01*
X144100000Y-70985714D01*
X144147619Y-70938095D01*
X144242857Y-70890476D01*
X144338095Y-70890476D01*
X144480952Y-70938095D01*
X145052380Y-71509523D01*
X145052380Y-70890476D01*
X145052380Y-70414285D02*
X145052380Y-70223809D01*
X145004761Y-70128571D01*
X144957142Y-70080952D01*
X144814285Y-69985714D01*
X144623809Y-69938095D01*
X144242857Y-69938095D01*
X144147619Y-69985714D01*
X144100000Y-70033333D01*
X144052380Y-70128571D01*
X144052380Y-70319047D01*
X144100000Y-70414285D01*
X144147619Y-70461904D01*
X144242857Y-70509523D01*
X144480952Y-70509523D01*
X144576190Y-70461904D01*
X144623809Y-70414285D01*
X144671428Y-70319047D01*
X144671428Y-70128571D01*
X144623809Y-70033333D01*
X144576190Y-69985714D01*
X144480952Y-69938095D01*
X145077380Y-92442857D02*
X144601190Y-92776190D01*
X145077380Y-93014285D02*
X144077380Y-93014285D01*
X144077380Y-92633333D01*
X144125000Y-92538095D01*
X144172619Y-92490476D01*
X144267857Y-92442857D01*
X144410714Y-92442857D01*
X144505952Y-92490476D01*
X144553571Y-92538095D01*
X144601190Y-92633333D01*
X144601190Y-93014285D01*
X144077380Y-92109523D02*
X144077380Y-91490476D01*
X144458333Y-91823809D01*
X144458333Y-91680952D01*
X144505952Y-91585714D01*
X144553571Y-91538095D01*
X144648809Y-91490476D01*
X144886904Y-91490476D01*
X144982142Y-91538095D01*
X145029761Y-91585714D01*
X145077380Y-91680952D01*
X145077380Y-91966666D01*
X145029761Y-92061904D01*
X144982142Y-92109523D01*
X144077380Y-90633333D02*
X144077380Y-90823809D01*
X144125000Y-90919047D01*
X144172619Y-90966666D01*
X144315476Y-91061904D01*
X144505952Y-91109523D01*
X144886904Y-91109523D01*
X144982142Y-91061904D01*
X145029761Y-91014285D01*
X145077380Y-90919047D01*
X145077380Y-90728571D01*
X145029761Y-90633333D01*
X144982142Y-90585714D01*
X144886904Y-90538095D01*
X144648809Y-90538095D01*
X144553571Y-90585714D01*
X144505952Y-90633333D01*
X144458333Y-90728571D01*
X144458333Y-90919047D01*
X144505952Y-91014285D01*
X144553571Y-91061904D01*
X144648809Y-91109523D01*
X130752380Y-72142857D02*
X130276190Y-72476190D01*
X130752380Y-72714285D02*
X129752380Y-72714285D01*
X129752380Y-72333333D01*
X129800000Y-72238095D01*
X129847619Y-72190476D01*
X129942857Y-72142857D01*
X130085714Y-72142857D01*
X130180952Y-72190476D01*
X130228571Y-72238095D01*
X130276190Y-72333333D01*
X130276190Y-72714285D01*
X129752380Y-71809523D02*
X129752380Y-71190476D01*
X130133333Y-71523809D01*
X130133333Y-71380952D01*
X130180952Y-71285714D01*
X130228571Y-71238095D01*
X130323809Y-71190476D01*
X130561904Y-71190476D01*
X130657142Y-71238095D01*
X130704761Y-71285714D01*
X130752380Y-71380952D01*
X130752380Y-71666666D01*
X130704761Y-71761904D01*
X130657142Y-71809523D01*
X129752380Y-70571428D02*
X129752380Y-70476190D01*
X129800000Y-70380952D01*
X129847619Y-70333333D01*
X129942857Y-70285714D01*
X130133333Y-70238095D01*
X130371428Y-70238095D01*
X130561904Y-70285714D01*
X130657142Y-70333333D01*
X130704761Y-70380952D01*
X130752380Y-70476190D01*
X130752380Y-70571428D01*
X130704761Y-70666666D01*
X130657142Y-70714285D01*
X130561904Y-70761904D01*
X130371428Y-70809523D01*
X130133333Y-70809523D01*
X129942857Y-70761904D01*
X129847619Y-70714285D01*
X129800000Y-70666666D01*
X129752380Y-70571428D01*
X132652380Y-72142857D02*
X132176190Y-72476190D01*
X132652380Y-72714285D02*
X131652380Y-72714285D01*
X131652380Y-72333333D01*
X131700000Y-72238095D01*
X131747619Y-72190476D01*
X131842857Y-72142857D01*
X131985714Y-72142857D01*
X132080952Y-72190476D01*
X132128571Y-72238095D01*
X132176190Y-72333333D01*
X132176190Y-72714285D01*
X131747619Y-71761904D02*
X131700000Y-71714285D01*
X131652380Y-71619047D01*
X131652380Y-71380952D01*
X131700000Y-71285714D01*
X131747619Y-71238095D01*
X131842857Y-71190476D01*
X131938095Y-71190476D01*
X132080952Y-71238095D01*
X132652380Y-71809523D01*
X132652380Y-71190476D01*
X131652380Y-70571428D02*
X131652380Y-70476190D01*
X131700000Y-70380952D01*
X131747619Y-70333333D01*
X131842857Y-70285714D01*
X132033333Y-70238095D01*
X132271428Y-70238095D01*
X132461904Y-70285714D01*
X132557142Y-70333333D01*
X132604761Y-70380952D01*
X132652380Y-70476190D01*
X132652380Y-70571428D01*
X132604761Y-70666666D01*
X132557142Y-70714285D01*
X132461904Y-70761904D01*
X132271428Y-70809523D01*
X132033333Y-70809523D01*
X131842857Y-70761904D01*
X131747619Y-70714285D01*
X131700000Y-70666666D01*
X131652380Y-70571428D01*
X111852380Y-68642857D02*
X111376190Y-68976190D01*
X111852380Y-69214285D02*
X110852380Y-69214285D01*
X110852380Y-68833333D01*
X110900000Y-68738095D01*
X110947619Y-68690476D01*
X111042857Y-68642857D01*
X111185714Y-68642857D01*
X111280952Y-68690476D01*
X111328571Y-68738095D01*
X111376190Y-68833333D01*
X111376190Y-69214285D01*
X111185714Y-67785714D02*
X111852380Y-67785714D01*
X110804761Y-68023809D02*
X111519047Y-68261904D01*
X111519047Y-67642857D01*
X111185714Y-66833333D02*
X111852380Y-66833333D01*
X110804761Y-67071428D02*
X111519047Y-67309523D01*
X111519047Y-66690476D01*
X117152380Y-68642857D02*
X116676190Y-68976190D01*
X117152380Y-69214285D02*
X116152380Y-69214285D01*
X116152380Y-68833333D01*
X116200000Y-68738095D01*
X116247619Y-68690476D01*
X116342857Y-68642857D01*
X116485714Y-68642857D01*
X116580952Y-68690476D01*
X116628571Y-68738095D01*
X116676190Y-68833333D01*
X116676190Y-69214285D01*
X116485714Y-67785714D02*
X117152380Y-67785714D01*
X116104761Y-68023809D02*
X116819047Y-68261904D01*
X116819047Y-67642857D01*
X116152380Y-67357142D02*
X116152380Y-66738095D01*
X116533333Y-67071428D01*
X116533333Y-66928571D01*
X116580952Y-66833333D01*
X116628571Y-66785714D01*
X116723809Y-66738095D01*
X116961904Y-66738095D01*
X117057142Y-66785714D01*
X117104761Y-66833333D01*
X117152380Y-66928571D01*
X117152380Y-67214285D01*
X117104761Y-67309523D01*
X117057142Y-67357142D01*
X117752380Y-88842857D02*
X117276190Y-89176190D01*
X117752380Y-89414285D02*
X116752380Y-89414285D01*
X116752380Y-89033333D01*
X116800000Y-88938095D01*
X116847619Y-88890476D01*
X116942857Y-88842857D01*
X117085714Y-88842857D01*
X117180952Y-88890476D01*
X117228571Y-88938095D01*
X117276190Y-89033333D01*
X117276190Y-89414285D01*
X117085714Y-87985714D02*
X117752380Y-87985714D01*
X116704761Y-88223809D02*
X117419047Y-88461904D01*
X117419047Y-87842857D01*
X116847619Y-87509523D02*
X116800000Y-87461904D01*
X116752380Y-87366666D01*
X116752380Y-87128571D01*
X116800000Y-87033333D01*
X116847619Y-86985714D01*
X116942857Y-86938095D01*
X117038095Y-86938095D01*
X117180952Y-86985714D01*
X117752380Y-87557142D01*
X117752380Y-86938095D01*
X110052380Y-68642857D02*
X109576190Y-68976190D01*
X110052380Y-69214285D02*
X109052380Y-69214285D01*
X109052380Y-68833333D01*
X109100000Y-68738095D01*
X109147619Y-68690476D01*
X109242857Y-68642857D01*
X109385714Y-68642857D01*
X109480952Y-68690476D01*
X109528571Y-68738095D01*
X109576190Y-68833333D01*
X109576190Y-69214285D01*
X109052380Y-68309523D02*
X109052380Y-67690476D01*
X109433333Y-68023809D01*
X109433333Y-67880952D01*
X109480952Y-67785714D01*
X109528571Y-67738095D01*
X109623809Y-67690476D01*
X109861904Y-67690476D01*
X109957142Y-67738095D01*
X110004761Y-67785714D01*
X110052380Y-67880952D01*
X110052380Y-68166666D01*
X110004761Y-68261904D01*
X109957142Y-68309523D01*
X109480952Y-67119047D02*
X109433333Y-67214285D01*
X109385714Y-67261904D01*
X109290476Y-67309523D01*
X109242857Y-67309523D01*
X109147619Y-67261904D01*
X109100000Y-67214285D01*
X109052380Y-67119047D01*
X109052380Y-66928571D01*
X109100000Y-66833333D01*
X109147619Y-66785714D01*
X109242857Y-66738095D01*
X109290476Y-66738095D01*
X109385714Y-66785714D01*
X109433333Y-66833333D01*
X109480952Y-66928571D01*
X109480952Y-67119047D01*
X109528571Y-67214285D01*
X109576190Y-67261904D01*
X109671428Y-67309523D01*
X109861904Y-67309523D01*
X109957142Y-67261904D01*
X110004761Y-67214285D01*
X110052380Y-67119047D01*
X110052380Y-66928571D01*
X110004761Y-66833333D01*
X109957142Y-66785714D01*
X109861904Y-66738095D01*
X109671428Y-66738095D01*
X109576190Y-66785714D01*
X109528571Y-66833333D01*
X109480952Y-66928571D01*
X123852380Y-92142857D02*
X123376190Y-92476190D01*
X123852380Y-92714285D02*
X122852380Y-92714285D01*
X122852380Y-92333333D01*
X122900000Y-92238095D01*
X122947619Y-92190476D01*
X123042857Y-92142857D01*
X123185714Y-92142857D01*
X123280952Y-92190476D01*
X123328571Y-92238095D01*
X123376190Y-92333333D01*
X123376190Y-92714285D01*
X123852380Y-91190476D02*
X123852380Y-91761904D01*
X123852380Y-91476190D02*
X122852380Y-91476190D01*
X122995238Y-91571428D01*
X123090476Y-91666666D01*
X123138095Y-91761904D01*
X122852380Y-90857142D02*
X122852380Y-90238095D01*
X123233333Y-90571428D01*
X123233333Y-90428571D01*
X123280952Y-90333333D01*
X123328571Y-90285714D01*
X123423809Y-90238095D01*
X123661904Y-90238095D01*
X123757142Y-90285714D01*
X123804761Y-90333333D01*
X123852380Y-90428571D01*
X123852380Y-90714285D01*
X123804761Y-90809523D01*
X123757142Y-90857142D01*
X113757142Y-111852380D02*
X113423809Y-111376190D01*
X113185714Y-111852380D02*
X113185714Y-110852380D01*
X113566666Y-110852380D01*
X113661904Y-110900000D01*
X113709523Y-110947619D01*
X113757142Y-111042857D01*
X113757142Y-111185714D01*
X113709523Y-111280952D01*
X113661904Y-111328571D01*
X113566666Y-111376190D01*
X113185714Y-111376190D01*
X114709523Y-111852380D02*
X114138095Y-111852380D01*
X114423809Y-111852380D02*
X114423809Y-110852380D01*
X114328571Y-110995238D01*
X114233333Y-111090476D01*
X114138095Y-111138095D01*
X115042857Y-110852380D02*
X115709523Y-110852380D01*
X115280952Y-111852380D01*
X118852380Y-68642857D02*
X118376190Y-68976190D01*
X118852380Y-69214285D02*
X117852380Y-69214285D01*
X117852380Y-68833333D01*
X117900000Y-68738095D01*
X117947619Y-68690476D01*
X118042857Y-68642857D01*
X118185714Y-68642857D01*
X118280952Y-68690476D01*
X118328571Y-68738095D01*
X118376190Y-68833333D01*
X118376190Y-69214285D01*
X117852380Y-68309523D02*
X117852380Y-67690476D01*
X118233333Y-68023809D01*
X118233333Y-67880952D01*
X118280952Y-67785714D01*
X118328571Y-67738095D01*
X118423809Y-67690476D01*
X118661904Y-67690476D01*
X118757142Y-67738095D01*
X118804761Y-67785714D01*
X118852380Y-67880952D01*
X118852380Y-68166666D01*
X118804761Y-68261904D01*
X118757142Y-68309523D01*
X117852380Y-67357142D02*
X117852380Y-66690476D01*
X118852380Y-67119047D01*
X122052380Y-92142857D02*
X121576190Y-92476190D01*
X122052380Y-92714285D02*
X121052380Y-92714285D01*
X121052380Y-92333333D01*
X121100000Y-92238095D01*
X121147619Y-92190476D01*
X121242857Y-92142857D01*
X121385714Y-92142857D01*
X121480952Y-92190476D01*
X121528571Y-92238095D01*
X121576190Y-92333333D01*
X121576190Y-92714285D01*
X122052380Y-91190476D02*
X122052380Y-91761904D01*
X122052380Y-91476190D02*
X121052380Y-91476190D01*
X121195238Y-91571428D01*
X121290476Y-91666666D01*
X121338095Y-91761904D01*
X121480952Y-90619047D02*
X121433333Y-90714285D01*
X121385714Y-90761904D01*
X121290476Y-90809523D01*
X121242857Y-90809523D01*
X121147619Y-90761904D01*
X121100000Y-90714285D01*
X121052380Y-90619047D01*
X121052380Y-90428571D01*
X121100000Y-90333333D01*
X121147619Y-90285714D01*
X121242857Y-90238095D01*
X121290476Y-90238095D01*
X121385714Y-90285714D01*
X121433333Y-90333333D01*
X121480952Y-90428571D01*
X121480952Y-90619047D01*
X121528571Y-90714285D01*
X121576190Y-90761904D01*
X121671428Y-90809523D01*
X121861904Y-90809523D01*
X121957142Y-90761904D01*
X122004761Y-90714285D01*
X122052380Y-90619047D01*
X122052380Y-90428571D01*
X122004761Y-90333333D01*
X121957142Y-90285714D01*
X121861904Y-90238095D01*
X121671428Y-90238095D01*
X121576190Y-90285714D01*
X121528571Y-90333333D01*
X121480952Y-90428571D01*
X125552380Y-92142857D02*
X125076190Y-92476190D01*
X125552380Y-92714285D02*
X124552380Y-92714285D01*
X124552380Y-92333333D01*
X124600000Y-92238095D01*
X124647619Y-92190476D01*
X124742857Y-92142857D01*
X124885714Y-92142857D01*
X124980952Y-92190476D01*
X125028571Y-92238095D01*
X125076190Y-92333333D01*
X125076190Y-92714285D01*
X125552380Y-91190476D02*
X125552380Y-91761904D01*
X125552380Y-91476190D02*
X124552380Y-91476190D01*
X124695238Y-91571428D01*
X124790476Y-91666666D01*
X124838095Y-91761904D01*
X124647619Y-90809523D02*
X124600000Y-90761904D01*
X124552380Y-90666666D01*
X124552380Y-90428571D01*
X124600000Y-90333333D01*
X124647619Y-90285714D01*
X124742857Y-90238095D01*
X124838095Y-90238095D01*
X124980952Y-90285714D01*
X125552380Y-90857142D01*
X125552380Y-90238095D01*
X102152380Y-92166666D02*
X101676190Y-92500000D01*
X102152380Y-92738095D02*
X101152380Y-92738095D01*
X101152380Y-92357142D01*
X101200000Y-92261904D01*
X101247619Y-92214285D01*
X101342857Y-92166666D01*
X101485714Y-92166666D01*
X101580952Y-92214285D01*
X101628571Y-92261904D01*
X101676190Y-92357142D01*
X101676190Y-92738095D01*
X101152380Y-91833333D02*
X101152380Y-91214285D01*
X101533333Y-91547619D01*
X101533333Y-91404761D01*
X101580952Y-91309523D01*
X101628571Y-91261904D01*
X101723809Y-91214285D01*
X101961904Y-91214285D01*
X102057142Y-91261904D01*
X102104761Y-91309523D01*
X102152380Y-91404761D01*
X102152380Y-91690476D01*
X102104761Y-91785714D01*
X102057142Y-91833333D01*
X113757142Y-108252380D02*
X113423809Y-107776190D01*
X113185714Y-108252380D02*
X113185714Y-107252380D01*
X113566666Y-107252380D01*
X113661904Y-107300000D01*
X113709523Y-107347619D01*
X113757142Y-107442857D01*
X113757142Y-107585714D01*
X113709523Y-107680952D01*
X113661904Y-107728571D01*
X113566666Y-107776190D01*
X113185714Y-107776190D01*
X114709523Y-108252380D02*
X114138095Y-108252380D01*
X114423809Y-108252380D02*
X114423809Y-107252380D01*
X114328571Y-107395238D01*
X114233333Y-107490476D01*
X114138095Y-107538095D01*
X115566666Y-107252380D02*
X115376190Y-107252380D01*
X115280952Y-107300000D01*
X115233333Y-107347619D01*
X115138095Y-107490476D01*
X115090476Y-107680952D01*
X115090476Y-108061904D01*
X115138095Y-108157142D01*
X115185714Y-108204761D01*
X115280952Y-108252380D01*
X115471428Y-108252380D01*
X115566666Y-108204761D01*
X115614285Y-108157142D01*
X115661904Y-108061904D01*
X115661904Y-107823809D01*
X115614285Y-107728571D01*
X115566666Y-107680952D01*
X115471428Y-107633333D01*
X115280952Y-107633333D01*
X115185714Y-107680952D01*
X115138095Y-107728571D01*
X115090476Y-107823809D01*
X111152380Y-88842857D02*
X110676190Y-89176190D01*
X111152380Y-89414285D02*
X110152380Y-89414285D01*
X110152380Y-89033333D01*
X110200000Y-88938095D01*
X110247619Y-88890476D01*
X110342857Y-88842857D01*
X110485714Y-88842857D01*
X110580952Y-88890476D01*
X110628571Y-88938095D01*
X110676190Y-89033333D01*
X110676190Y-89414285D01*
X110485714Y-87985714D02*
X111152380Y-87985714D01*
X110104761Y-88223809D02*
X110819047Y-88461904D01*
X110819047Y-87842857D01*
X111152380Y-86938095D02*
X111152380Y-87509523D01*
X111152380Y-87223809D02*
X110152380Y-87223809D01*
X110295238Y-87319047D01*
X110390476Y-87414285D01*
X110438095Y-87509523D01*
X112852380Y-88842857D02*
X112376190Y-89176190D01*
X112852380Y-89414285D02*
X111852380Y-89414285D01*
X111852380Y-89033333D01*
X111900000Y-88938095D01*
X111947619Y-88890476D01*
X112042857Y-88842857D01*
X112185714Y-88842857D01*
X112280952Y-88890476D01*
X112328571Y-88938095D01*
X112376190Y-89033333D01*
X112376190Y-89414285D01*
X111852380Y-88509523D02*
X111852380Y-87890476D01*
X112233333Y-88223809D01*
X112233333Y-88080952D01*
X112280952Y-87985714D01*
X112328571Y-87938095D01*
X112423809Y-87890476D01*
X112661904Y-87890476D01*
X112757142Y-87938095D01*
X112804761Y-87985714D01*
X112852380Y-88080952D01*
X112852380Y-88366666D01*
X112804761Y-88461904D01*
X112757142Y-88509523D01*
X112852380Y-87414285D02*
X112852380Y-87223809D01*
X112804761Y-87128571D01*
X112757142Y-87080952D01*
X112614285Y-86985714D01*
X112423809Y-86938095D01*
X112042857Y-86938095D01*
X111947619Y-86985714D01*
X111900000Y-87033333D01*
X111852380Y-87128571D01*
X111852380Y-87319047D01*
X111900000Y-87414285D01*
X111947619Y-87461904D01*
X112042857Y-87509523D01*
X112280952Y-87509523D01*
X112376190Y-87461904D01*
X112423809Y-87414285D01*
X112471428Y-87319047D01*
X112471428Y-87128571D01*
X112423809Y-87033333D01*
X112376190Y-86985714D01*
X112280952Y-86938095D01*
X154004761Y-115457142D02*
X153957142Y-115504761D01*
X153814285Y-115552380D01*
X153719047Y-115552380D01*
X153576190Y-115504761D01*
X153480952Y-115409523D01*
X153433333Y-115314285D01*
X153385714Y-115123809D01*
X153385714Y-114980952D01*
X153433333Y-114790476D01*
X153480952Y-114695238D01*
X153576190Y-114600000D01*
X153719047Y-114552380D01*
X153814285Y-114552380D01*
X153957142Y-114600000D01*
X154004761Y-114647619D01*
X154909523Y-115552380D02*
X154433333Y-115552380D01*
X154433333Y-114552380D01*
X155242857Y-115552380D02*
X155242857Y-114552380D01*
X155814285Y-115552380D02*
X155385714Y-114980952D01*
X155814285Y-114552380D02*
X155242857Y-115123809D01*
X154776190Y-118072380D02*
X154776190Y-117072380D01*
X155442857Y-117072380D02*
X155633333Y-117072380D01*
X155728571Y-117120000D01*
X155823809Y-117215238D01*
X155871428Y-117405714D01*
X155871428Y-117739047D01*
X155823809Y-117929523D01*
X155728571Y-118024761D01*
X155633333Y-118072380D01*
X155442857Y-118072380D01*
X155347619Y-118024761D01*
X155252380Y-117929523D01*
X155204761Y-117739047D01*
X155204761Y-117405714D01*
X155252380Y-117215238D01*
X155347619Y-117120000D01*
X155442857Y-117072380D01*
X153738095Y-119660000D02*
X153642857Y-119612380D01*
X153500000Y-119612380D01*
X153357142Y-119660000D01*
X153261904Y-119755238D01*
X153214285Y-119850476D01*
X153166666Y-120040952D01*
X153166666Y-120183809D01*
X153214285Y-120374285D01*
X153261904Y-120469523D01*
X153357142Y-120564761D01*
X153500000Y-120612380D01*
X153595238Y-120612380D01*
X153738095Y-120564761D01*
X153785714Y-120517142D01*
X153785714Y-120183809D01*
X153595238Y-120183809D01*
X154214285Y-120612380D02*
X154214285Y-119612380D01*
X154785714Y-120612380D01*
X154785714Y-119612380D01*
X155261904Y-120612380D02*
X155261904Y-119612380D01*
X155500000Y-119612380D01*
X155642857Y-119660000D01*
X155738095Y-119755238D01*
X155785714Y-119850476D01*
X155833333Y-120040952D01*
X155833333Y-120183809D01*
X155785714Y-120374285D01*
X155738095Y-120469523D01*
X155642857Y-120564761D01*
X155500000Y-120612380D01*
X155261904Y-120612380D01*
X152823809Y-122152380D02*
X153442857Y-122152380D01*
X153109523Y-122533333D01*
X153252380Y-122533333D01*
X153347619Y-122580952D01*
X153395238Y-122628571D01*
X153442857Y-122723809D01*
X153442857Y-122961904D01*
X153395238Y-123057142D01*
X153347619Y-123104761D01*
X153252380Y-123152380D01*
X152966666Y-123152380D01*
X152871428Y-123104761D01*
X152823809Y-123057142D01*
X153871428Y-123057142D02*
X153919047Y-123104761D01*
X153871428Y-123152380D01*
X153823809Y-123104761D01*
X153871428Y-123057142D01*
X153871428Y-123152380D01*
X154252380Y-122152380D02*
X154871428Y-122152380D01*
X154538095Y-122533333D01*
X154680952Y-122533333D01*
X154776190Y-122580952D01*
X154823809Y-122628571D01*
X154871428Y-122723809D01*
X154871428Y-122961904D01*
X154823809Y-123057142D01*
X154776190Y-123104761D01*
X154680952Y-123152380D01*
X154395238Y-123152380D01*
X154300000Y-123104761D01*
X154252380Y-123057142D01*
X155157142Y-122152380D02*
X155490476Y-123152380D01*
X155823809Y-122152380D01*
X110061904Y-54552380D02*
X110061904Y-53552380D01*
X110300000Y-53552380D01*
X110442857Y-53600000D01*
X110538095Y-53695238D01*
X110585714Y-53790476D01*
X110633333Y-53980952D01*
X110633333Y-54123809D01*
X110585714Y-54314285D01*
X110538095Y-54409523D01*
X110442857Y-54504761D01*
X110300000Y-54552380D01*
X110061904Y-54552380D01*
X110966666Y-53552380D02*
X111585714Y-53552380D01*
X111252380Y-53933333D01*
X111395238Y-53933333D01*
X111490476Y-53980952D01*
X111538095Y-54028571D01*
X111585714Y-54123809D01*
X111585714Y-54361904D01*
X111538095Y-54457142D01*
X111490476Y-54504761D01*
X111395238Y-54552380D01*
X111109523Y-54552380D01*
X111014285Y-54504761D01*
X110966666Y-54457142D01*
X134052380Y-52838095D02*
X133052380Y-52838095D01*
X133052380Y-52600000D01*
X133100000Y-52457142D01*
X133195238Y-52361904D01*
X133290476Y-52314285D01*
X133480952Y-52266666D01*
X133623809Y-52266666D01*
X133814285Y-52314285D01*
X133909523Y-52361904D01*
X134004761Y-52457142D01*
X134052380Y-52600000D01*
X134052380Y-52838095D01*
X134052380Y-51314285D02*
X134052380Y-51885714D01*
X134052380Y-51600000D02*
X133052380Y-51600000D01*
X133195238Y-51695238D01*
X133290476Y-51790476D01*
X133338095Y-51885714D01*
X101361904Y-60152380D02*
X101361904Y-59152380D01*
X101600000Y-59152380D01*
X101742857Y-59200000D01*
X101838095Y-59295238D01*
X101885714Y-59390476D01*
X101933333Y-59580952D01*
X101933333Y-59723809D01*
X101885714Y-59914285D01*
X101838095Y-60009523D01*
X101742857Y-60104761D01*
X101600000Y-60152380D01*
X101361904Y-60152380D01*
X102790476Y-59485714D02*
X102790476Y-60152380D01*
X102552380Y-59104761D02*
X102314285Y-59819047D01*
X102933333Y-59819047D01*
X115657142Y-115442857D02*
X115704761Y-115490476D01*
X115752380Y-115633333D01*
X115752380Y-115728571D01*
X115704761Y-115871428D01*
X115609523Y-115966666D01*
X115514285Y-116014285D01*
X115323809Y-116061904D01*
X115180952Y-116061904D01*
X114990476Y-116014285D01*
X114895238Y-115966666D01*
X114800000Y-115871428D01*
X114752380Y-115728571D01*
X114752380Y-115633333D01*
X114800000Y-115490476D01*
X114847619Y-115442857D01*
X114847619Y-115061904D02*
X114800000Y-115014285D01*
X114752380Y-114919047D01*
X114752380Y-114680952D01*
X114800000Y-114585714D01*
X114847619Y-114538095D01*
X114942857Y-114490476D01*
X115038095Y-114490476D01*
X115180952Y-114538095D01*
X115752380Y-115109523D01*
X115752380Y-114490476D01*
X115180952Y-113919047D02*
X115133333Y-114014285D01*
X115085714Y-114061904D01*
X114990476Y-114109523D01*
X114942857Y-114109523D01*
X114847619Y-114061904D01*
X114800000Y-114014285D01*
X114752380Y-113919047D01*
X114752380Y-113728571D01*
X114800000Y-113633333D01*
X114847619Y-113585714D01*
X114942857Y-113538095D01*
X114990476Y-113538095D01*
X115085714Y-113585714D01*
X115133333Y-113633333D01*
X115180952Y-113728571D01*
X115180952Y-113919047D01*
X115228571Y-114014285D01*
X115276190Y-114061904D01*
X115371428Y-114109523D01*
X115561904Y-114109523D01*
X115657142Y-114061904D01*
X115704761Y-114014285D01*
X115752380Y-113919047D01*
X115752380Y-113728571D01*
X115704761Y-113633333D01*
X115657142Y-113585714D01*
X115561904Y-113538095D01*
X115371428Y-113538095D01*
X115276190Y-113585714D01*
X115228571Y-113633333D01*
X115180952Y-113728571D01*
X124757142Y-140042857D02*
X124804761Y-140090476D01*
X124852380Y-140233333D01*
X124852380Y-140328571D01*
X124804761Y-140471428D01*
X124709523Y-140566666D01*
X124614285Y-140614285D01*
X124423809Y-140661904D01*
X124280952Y-140661904D01*
X124090476Y-140614285D01*
X123995238Y-140566666D01*
X123900000Y-140471428D01*
X123852380Y-140328571D01*
X123852380Y-140233333D01*
X123900000Y-140090476D01*
X123947619Y-140042857D01*
X123947619Y-139661904D02*
X123900000Y-139614285D01*
X123852380Y-139519047D01*
X123852380Y-139280952D01*
X123900000Y-139185714D01*
X123947619Y-139138095D01*
X124042857Y-139090476D01*
X124138095Y-139090476D01*
X124280952Y-139138095D01*
X124852380Y-139709523D01*
X124852380Y-139090476D01*
X124852380Y-138138095D02*
X124852380Y-138709523D01*
X124852380Y-138423809D02*
X123852380Y-138423809D01*
X123995238Y-138519047D01*
X124090476Y-138614285D01*
X124138095Y-138709523D01*
X156957142Y-107342857D02*
X157004761Y-107390476D01*
X157052380Y-107533333D01*
X157052380Y-107628571D01*
X157004761Y-107771428D01*
X156909523Y-107866666D01*
X156814285Y-107914285D01*
X156623809Y-107961904D01*
X156480952Y-107961904D01*
X156290476Y-107914285D01*
X156195238Y-107866666D01*
X156100000Y-107771428D01*
X156052380Y-107628571D01*
X156052380Y-107533333D01*
X156100000Y-107390476D01*
X156147619Y-107342857D01*
X156385714Y-106485714D02*
X157052380Y-106485714D01*
X156004761Y-106723809D02*
X156719047Y-106961904D01*
X156719047Y-106342857D01*
X157052380Y-105438095D02*
X157052380Y-106009523D01*
X157052380Y-105723809D02*
X156052380Y-105723809D01*
X156195238Y-105819047D01*
X156290476Y-105914285D01*
X156338095Y-106009523D01*
X134757142Y-140042857D02*
X134804761Y-140090476D01*
X134852380Y-140233333D01*
X134852380Y-140328571D01*
X134804761Y-140471428D01*
X134709523Y-140566666D01*
X134614285Y-140614285D01*
X134423809Y-140661904D01*
X134280952Y-140661904D01*
X134090476Y-140614285D01*
X133995238Y-140566666D01*
X133900000Y-140471428D01*
X133852380Y-140328571D01*
X133852380Y-140233333D01*
X133900000Y-140090476D01*
X133947619Y-140042857D01*
X133947619Y-139661904D02*
X133900000Y-139614285D01*
X133852380Y-139519047D01*
X133852380Y-139280952D01*
X133900000Y-139185714D01*
X133947619Y-139138095D01*
X134042857Y-139090476D01*
X134138095Y-139090476D01*
X134280952Y-139138095D01*
X134852380Y-139709523D01*
X134852380Y-139090476D01*
X133852380Y-138471428D02*
X133852380Y-138376190D01*
X133900000Y-138280952D01*
X133947619Y-138233333D01*
X134042857Y-138185714D01*
X134233333Y-138138095D01*
X134471428Y-138138095D01*
X134661904Y-138185714D01*
X134757142Y-138233333D01*
X134804761Y-138280952D01*
X134852380Y-138376190D01*
X134852380Y-138471428D01*
X134804761Y-138566666D01*
X134757142Y-138614285D01*
X134661904Y-138661904D01*
X134471428Y-138709523D01*
X134233333Y-138709523D01*
X134042857Y-138661904D01*
X133947619Y-138614285D01*
X133900000Y-138566666D01*
X133852380Y-138471428D01*
X147557142Y-140042857D02*
X147604761Y-140090476D01*
X147652380Y-140233333D01*
X147652380Y-140328571D01*
X147604761Y-140471428D01*
X147509523Y-140566666D01*
X147414285Y-140614285D01*
X147223809Y-140661904D01*
X147080952Y-140661904D01*
X146890476Y-140614285D01*
X146795238Y-140566666D01*
X146700000Y-140471428D01*
X146652380Y-140328571D01*
X146652380Y-140233333D01*
X146700000Y-140090476D01*
X146747619Y-140042857D01*
X147652380Y-139090476D02*
X147652380Y-139661904D01*
X147652380Y-139376190D02*
X146652380Y-139376190D01*
X146795238Y-139471428D01*
X146890476Y-139566666D01*
X146938095Y-139661904D01*
X147652380Y-138614285D02*
X147652380Y-138423809D01*
X147604761Y-138328571D01*
X147557142Y-138280952D01*
X147414285Y-138185714D01*
X147223809Y-138138095D01*
X146842857Y-138138095D01*
X146747619Y-138185714D01*
X146700000Y-138233333D01*
X146652380Y-138328571D01*
X146652380Y-138519047D01*
X146700000Y-138614285D01*
X146747619Y-138661904D01*
X146842857Y-138709523D01*
X147080952Y-138709523D01*
X147176190Y-138661904D01*
X147223809Y-138614285D01*
X147271428Y-138519047D01*
X147271428Y-138328571D01*
X147223809Y-138233333D01*
X147176190Y-138185714D01*
X147080952Y-138138095D01*
X153457142Y-107342857D02*
X153504761Y-107390476D01*
X153552380Y-107533333D01*
X153552380Y-107628571D01*
X153504761Y-107771428D01*
X153409523Y-107866666D01*
X153314285Y-107914285D01*
X153123809Y-107961904D01*
X152980952Y-107961904D01*
X152790476Y-107914285D01*
X152695238Y-107866666D01*
X152600000Y-107771428D01*
X152552380Y-107628571D01*
X152552380Y-107533333D01*
X152600000Y-107390476D01*
X152647619Y-107342857D01*
X152885714Y-106485714D02*
X153552380Y-106485714D01*
X152504761Y-106723809D02*
X153219047Y-106961904D01*
X153219047Y-106342857D01*
X152885714Y-105533333D02*
X153552380Y-105533333D01*
X152504761Y-105771428D02*
X153219047Y-106009523D01*
X153219047Y-105390476D01*
X120257142Y-104142857D02*
X120304761Y-104190476D01*
X120352380Y-104333333D01*
X120352380Y-104428571D01*
X120304761Y-104571428D01*
X120209523Y-104666666D01*
X120114285Y-104714285D01*
X119923809Y-104761904D01*
X119780952Y-104761904D01*
X119590476Y-104714285D01*
X119495238Y-104666666D01*
X119400000Y-104571428D01*
X119352380Y-104428571D01*
X119352380Y-104333333D01*
X119400000Y-104190476D01*
X119447619Y-104142857D01*
X119352380Y-103809523D02*
X119352380Y-103190476D01*
X119733333Y-103523809D01*
X119733333Y-103380952D01*
X119780952Y-103285714D01*
X119828571Y-103238095D01*
X119923809Y-103190476D01*
X120161904Y-103190476D01*
X120257142Y-103238095D01*
X120304761Y-103285714D01*
X120352380Y-103380952D01*
X120352380Y-103666666D01*
X120304761Y-103761904D01*
X120257142Y-103809523D01*
X119352380Y-102333333D02*
X119352380Y-102523809D01*
X119400000Y-102619047D01*
X119447619Y-102666666D01*
X119590476Y-102761904D01*
X119780952Y-102809523D01*
X120161904Y-102809523D01*
X120257142Y-102761904D01*
X120304761Y-102714285D01*
X120352380Y-102619047D01*
X120352380Y-102428571D01*
X120304761Y-102333333D01*
X120257142Y-102285714D01*
X120161904Y-102238095D01*
X119923809Y-102238095D01*
X119828571Y-102285714D01*
X119780952Y-102333333D01*
X119733333Y-102428571D01*
X119733333Y-102619047D01*
X119780952Y-102714285D01*
X119828571Y-102761904D01*
X119923809Y-102809523D01*
X107357142Y-104142857D02*
X107404761Y-104190476D01*
X107452380Y-104333333D01*
X107452380Y-104428571D01*
X107404761Y-104571428D01*
X107309523Y-104666666D01*
X107214285Y-104714285D01*
X107023809Y-104761904D01*
X106880952Y-104761904D01*
X106690476Y-104714285D01*
X106595238Y-104666666D01*
X106500000Y-104571428D01*
X106452380Y-104428571D01*
X106452380Y-104333333D01*
X106500000Y-104190476D01*
X106547619Y-104142857D01*
X106452380Y-103809523D02*
X106452380Y-103190476D01*
X106833333Y-103523809D01*
X106833333Y-103380952D01*
X106880952Y-103285714D01*
X106928571Y-103238095D01*
X107023809Y-103190476D01*
X107261904Y-103190476D01*
X107357142Y-103238095D01*
X107404761Y-103285714D01*
X107452380Y-103380952D01*
X107452380Y-103666666D01*
X107404761Y-103761904D01*
X107357142Y-103809523D01*
X106452380Y-102857142D02*
X106452380Y-102238095D01*
X106833333Y-102571428D01*
X106833333Y-102428571D01*
X106880952Y-102333333D01*
X106928571Y-102285714D01*
X107023809Y-102238095D01*
X107261904Y-102238095D01*
X107357142Y-102285714D01*
X107404761Y-102333333D01*
X107452380Y-102428571D01*
X107452380Y-102714285D01*
X107404761Y-102809523D01*
X107357142Y-102857142D01*
X120257142Y-92142857D02*
X120304761Y-92190476D01*
X120352380Y-92333333D01*
X120352380Y-92428571D01*
X120304761Y-92571428D01*
X120209523Y-92666666D01*
X120114285Y-92714285D01*
X119923809Y-92761904D01*
X119780952Y-92761904D01*
X119590476Y-92714285D01*
X119495238Y-92666666D01*
X119400000Y-92571428D01*
X119352380Y-92428571D01*
X119352380Y-92333333D01*
X119400000Y-92190476D01*
X119447619Y-92142857D01*
X119447619Y-91761904D02*
X119400000Y-91714285D01*
X119352380Y-91619047D01*
X119352380Y-91380952D01*
X119400000Y-91285714D01*
X119447619Y-91238095D01*
X119542857Y-91190476D01*
X119638095Y-91190476D01*
X119780952Y-91238095D01*
X120352380Y-91809523D01*
X120352380Y-91190476D01*
X119352380Y-90857142D02*
X119352380Y-90190476D01*
X120352380Y-90619047D01*
X113457142Y-68642857D02*
X113504761Y-68690476D01*
X113552380Y-68833333D01*
X113552380Y-68928571D01*
X113504761Y-69071428D01*
X113409523Y-69166666D01*
X113314285Y-69214285D01*
X113123809Y-69261904D01*
X112980952Y-69261904D01*
X112790476Y-69214285D01*
X112695238Y-69166666D01*
X112600000Y-69071428D01*
X112552380Y-68928571D01*
X112552380Y-68833333D01*
X112600000Y-68690476D01*
X112647619Y-68642857D01*
X112552380Y-67738095D02*
X112552380Y-68214285D01*
X113028571Y-68261904D01*
X112980952Y-68214285D01*
X112933333Y-68119047D01*
X112933333Y-67880952D01*
X112980952Y-67785714D01*
X113028571Y-67738095D01*
X113123809Y-67690476D01*
X113361904Y-67690476D01*
X113457142Y-67738095D01*
X113504761Y-67785714D01*
X113552380Y-67880952D01*
X113552380Y-68119047D01*
X113504761Y-68214285D01*
X113457142Y-68261904D01*
X112647619Y-67309523D02*
X112600000Y-67261904D01*
X112552380Y-67166666D01*
X112552380Y-66928571D01*
X112600000Y-66833333D01*
X112647619Y-66785714D01*
X112742857Y-66738095D01*
X112838095Y-66738095D01*
X112980952Y-66785714D01*
X113552380Y-67357142D01*
X113552380Y-66738095D01*
X115357142Y-68642857D02*
X115404761Y-68690476D01*
X115452380Y-68833333D01*
X115452380Y-68928571D01*
X115404761Y-69071428D01*
X115309523Y-69166666D01*
X115214285Y-69214285D01*
X115023809Y-69261904D01*
X114880952Y-69261904D01*
X114690476Y-69214285D01*
X114595238Y-69166666D01*
X114500000Y-69071428D01*
X114452380Y-68928571D01*
X114452380Y-68833333D01*
X114500000Y-68690476D01*
X114547619Y-68642857D01*
X114452380Y-67738095D02*
X114452380Y-68214285D01*
X114928571Y-68261904D01*
X114880952Y-68214285D01*
X114833333Y-68119047D01*
X114833333Y-67880952D01*
X114880952Y-67785714D01*
X114928571Y-67738095D01*
X115023809Y-67690476D01*
X115261904Y-67690476D01*
X115357142Y-67738095D01*
X115404761Y-67785714D01*
X115452380Y-67880952D01*
X115452380Y-68119047D01*
X115404761Y-68214285D01*
X115357142Y-68261904D01*
X115452380Y-66738095D02*
X115452380Y-67309523D01*
X115452380Y-67023809D02*
X114452380Y-67023809D01*
X114595238Y-67119047D01*
X114690476Y-67214285D01*
X114738095Y-67309523D01*
X141857142Y-159057142D02*
X141809523Y-159104761D01*
X141666666Y-159152380D01*
X141571428Y-159152380D01*
X141428571Y-159104761D01*
X141333333Y-159009523D01*
X141285714Y-158914285D01*
X141238095Y-158723809D01*
X141238095Y-158580952D01*
X141285714Y-158390476D01*
X141333333Y-158295238D01*
X141428571Y-158200000D01*
X141571428Y-158152380D01*
X141666666Y-158152380D01*
X141809523Y-158200000D01*
X141857142Y-158247619D01*
X142809523Y-159152380D02*
X142238095Y-159152380D01*
X142523809Y-159152380D02*
X142523809Y-158152380D01*
X142428571Y-158295238D01*
X142333333Y-158390476D01*
X142238095Y-158438095D01*
X143380952Y-158580952D02*
X143285714Y-158533333D01*
X143238095Y-158485714D01*
X143190476Y-158390476D01*
X143190476Y-158342857D01*
X143238095Y-158247619D01*
X143285714Y-158200000D01*
X143380952Y-158152380D01*
X143571428Y-158152380D01*
X143666666Y-158200000D01*
X143714285Y-158247619D01*
X143761904Y-158342857D01*
X143761904Y-158390476D01*
X143714285Y-158485714D01*
X143666666Y-158533333D01*
X143571428Y-158580952D01*
X143380952Y-158580952D01*
X143285714Y-158628571D01*
X143238095Y-158676190D01*
X143190476Y-158771428D01*
X143190476Y-158961904D01*
X143238095Y-159057142D01*
X143285714Y-159104761D01*
X143380952Y-159152380D01*
X143571428Y-159152380D01*
X143666666Y-159104761D01*
X143714285Y-159057142D01*
X143761904Y-158961904D01*
X143761904Y-158771428D01*
X143714285Y-158676190D01*
X143666666Y-158628571D01*
X143571428Y-158580952D01*
X136957142Y-159057142D02*
X136909523Y-159104761D01*
X136766666Y-159152380D01*
X136671428Y-159152380D01*
X136528571Y-159104761D01*
X136433333Y-159009523D01*
X136385714Y-158914285D01*
X136338095Y-158723809D01*
X136338095Y-158580952D01*
X136385714Y-158390476D01*
X136433333Y-158295238D01*
X136528571Y-158200000D01*
X136671428Y-158152380D01*
X136766666Y-158152380D01*
X136909523Y-158200000D01*
X136957142Y-158247619D01*
X137909523Y-159152380D02*
X137338095Y-159152380D01*
X137623809Y-159152380D02*
X137623809Y-158152380D01*
X137528571Y-158295238D01*
X137433333Y-158390476D01*
X137338095Y-158438095D01*
X138242857Y-158152380D02*
X138909523Y-158152380D01*
X138480952Y-159152380D01*
X155157142Y-107342857D02*
X155204761Y-107390476D01*
X155252380Y-107533333D01*
X155252380Y-107628571D01*
X155204761Y-107771428D01*
X155109523Y-107866666D01*
X155014285Y-107914285D01*
X154823809Y-107961904D01*
X154680952Y-107961904D01*
X154490476Y-107914285D01*
X154395238Y-107866666D01*
X154300000Y-107771428D01*
X154252380Y-107628571D01*
X154252380Y-107533333D01*
X154300000Y-107390476D01*
X154347619Y-107342857D01*
X154585714Y-106485714D02*
X155252380Y-106485714D01*
X154204761Y-106723809D02*
X154919047Y-106961904D01*
X154919047Y-106342857D01*
X154252380Y-105771428D02*
X154252380Y-105676190D01*
X154300000Y-105580952D01*
X154347619Y-105533333D01*
X154442857Y-105485714D01*
X154633333Y-105438095D01*
X154871428Y-105438095D01*
X155061904Y-105485714D01*
X155157142Y-105533333D01*
X155204761Y-105580952D01*
X155252380Y-105676190D01*
X155252380Y-105771428D01*
X155204761Y-105866666D01*
X155157142Y-105914285D01*
X155061904Y-105961904D01*
X154871428Y-106009523D01*
X154633333Y-106009523D01*
X154442857Y-105961904D01*
X154347619Y-105914285D01*
X154300000Y-105866666D01*
X154252380Y-105771428D01*
X119357142Y-88842857D02*
X119404761Y-88890476D01*
X119452380Y-89033333D01*
X119452380Y-89128571D01*
X119404761Y-89271428D01*
X119309523Y-89366666D01*
X119214285Y-89414285D01*
X119023809Y-89461904D01*
X118880952Y-89461904D01*
X118690476Y-89414285D01*
X118595238Y-89366666D01*
X118500000Y-89271428D01*
X118452380Y-89128571D01*
X118452380Y-89033333D01*
X118500000Y-88890476D01*
X118547619Y-88842857D01*
X118452380Y-87938095D02*
X118452380Y-88414285D01*
X118928571Y-88461904D01*
X118880952Y-88414285D01*
X118833333Y-88319047D01*
X118833333Y-88080952D01*
X118880952Y-87985714D01*
X118928571Y-87938095D01*
X119023809Y-87890476D01*
X119261904Y-87890476D01*
X119357142Y-87938095D01*
X119404761Y-87985714D01*
X119452380Y-88080952D01*
X119452380Y-88319047D01*
X119404761Y-88414285D01*
X119357142Y-88461904D01*
X118452380Y-87271428D02*
X118452380Y-87176190D01*
X118500000Y-87080952D01*
X118547619Y-87033333D01*
X118642857Y-86985714D01*
X118833333Y-86938095D01*
X119071428Y-86938095D01*
X119261904Y-86985714D01*
X119357142Y-87033333D01*
X119404761Y-87080952D01*
X119452380Y-87176190D01*
X119452380Y-87271428D01*
X119404761Y-87366666D01*
X119357142Y-87414285D01*
X119261904Y-87461904D01*
X119071428Y-87509523D01*
X118833333Y-87509523D01*
X118642857Y-87461904D01*
X118547619Y-87414285D01*
X118500000Y-87366666D01*
X118452380Y-87271428D01*
X156757142Y-88142857D02*
X156804761Y-88190476D01*
X156852380Y-88333333D01*
X156852380Y-88428571D01*
X156804761Y-88571428D01*
X156709523Y-88666666D01*
X156614285Y-88714285D01*
X156423809Y-88761904D01*
X156280952Y-88761904D01*
X156090476Y-88714285D01*
X155995238Y-88666666D01*
X155900000Y-88571428D01*
X155852380Y-88428571D01*
X155852380Y-88333333D01*
X155900000Y-88190476D01*
X155947619Y-88142857D01*
X155852380Y-87809523D02*
X155852380Y-87190476D01*
X156233333Y-87523809D01*
X156233333Y-87380952D01*
X156280952Y-87285714D01*
X156328571Y-87238095D01*
X156423809Y-87190476D01*
X156661904Y-87190476D01*
X156757142Y-87238095D01*
X156804761Y-87285714D01*
X156852380Y-87380952D01*
X156852380Y-87666666D01*
X156804761Y-87761904D01*
X156757142Y-87809523D01*
X156852380Y-86714285D02*
X156852380Y-86523809D01*
X156804761Y-86428571D01*
X156757142Y-86380952D01*
X156614285Y-86285714D01*
X156423809Y-86238095D01*
X156042857Y-86238095D01*
X155947619Y-86285714D01*
X155900000Y-86333333D01*
X155852380Y-86428571D01*
X155852380Y-86619047D01*
X155900000Y-86714285D01*
X155947619Y-86761904D01*
X156042857Y-86809523D01*
X156280952Y-86809523D01*
X156376190Y-86761904D01*
X156423809Y-86714285D01*
X156471428Y-86619047D01*
X156471428Y-86428571D01*
X156423809Y-86333333D01*
X156376190Y-86285714D01*
X156280952Y-86238095D01*
X128157142Y-101142857D02*
X128204761Y-101190476D01*
X128252380Y-101333333D01*
X128252380Y-101428571D01*
X128204761Y-101571428D01*
X128109523Y-101666666D01*
X128014285Y-101714285D01*
X127823809Y-101761904D01*
X127680952Y-101761904D01*
X127490476Y-101714285D01*
X127395238Y-101666666D01*
X127300000Y-101571428D01*
X127252380Y-101428571D01*
X127252380Y-101333333D01*
X127300000Y-101190476D01*
X127347619Y-101142857D01*
X128252380Y-100190476D02*
X128252380Y-100761904D01*
X128252380Y-100476190D02*
X127252380Y-100476190D01*
X127395238Y-100571428D01*
X127490476Y-100666666D01*
X127538095Y-100761904D01*
X127585714Y-99333333D02*
X128252380Y-99333333D01*
X127204761Y-99571428D02*
X127919047Y-99809523D01*
X127919047Y-99190476D01*
X138557142Y-140142857D02*
X138604761Y-140190476D01*
X138652380Y-140333333D01*
X138652380Y-140428571D01*
X138604761Y-140571428D01*
X138509523Y-140666666D01*
X138414285Y-140714285D01*
X138223809Y-140761904D01*
X138080952Y-140761904D01*
X137890476Y-140714285D01*
X137795238Y-140666666D01*
X137700000Y-140571428D01*
X137652380Y-140428571D01*
X137652380Y-140333333D01*
X137700000Y-140190476D01*
X137747619Y-140142857D01*
X138652380Y-139190476D02*
X138652380Y-139761904D01*
X138652380Y-139476190D02*
X137652380Y-139476190D01*
X137795238Y-139571428D01*
X137890476Y-139666666D01*
X137938095Y-139761904D01*
X137652380Y-138333333D02*
X137652380Y-138523809D01*
X137700000Y-138619047D01*
X137747619Y-138666666D01*
X137890476Y-138761904D01*
X138080952Y-138809523D01*
X138461904Y-138809523D01*
X138557142Y-138761904D01*
X138604761Y-138714285D01*
X138652380Y-138619047D01*
X138652380Y-138428571D01*
X138604761Y-138333333D01*
X138557142Y-138285714D01*
X138461904Y-138238095D01*
X138223809Y-138238095D01*
X138128571Y-138285714D01*
X138080952Y-138333333D01*
X138033333Y-138428571D01*
X138033333Y-138619047D01*
X138080952Y-138714285D01*
X138128571Y-138761904D01*
X138223809Y-138809523D01*
X136357142Y-133242857D02*
X136404761Y-133290476D01*
X136452380Y-133433333D01*
X136452380Y-133528571D01*
X136404761Y-133671428D01*
X136309523Y-133766666D01*
X136214285Y-133814285D01*
X136023809Y-133861904D01*
X135880952Y-133861904D01*
X135690476Y-133814285D01*
X135595238Y-133766666D01*
X135500000Y-133671428D01*
X135452380Y-133528571D01*
X135452380Y-133433333D01*
X135500000Y-133290476D01*
X135547619Y-133242857D01*
X136452380Y-132290476D02*
X136452380Y-132861904D01*
X136452380Y-132576190D02*
X135452380Y-132576190D01*
X135595238Y-132671428D01*
X135690476Y-132766666D01*
X135738095Y-132861904D01*
X135547619Y-131909523D02*
X135500000Y-131861904D01*
X135452380Y-131766666D01*
X135452380Y-131528571D01*
X135500000Y-131433333D01*
X135547619Y-131385714D01*
X135642857Y-131338095D01*
X135738095Y-131338095D01*
X135880952Y-131385714D01*
X136452380Y-131957142D01*
X136452380Y-131338095D01*
X109357142Y-88842857D02*
X109404761Y-88890476D01*
X109452380Y-89033333D01*
X109452380Y-89128571D01*
X109404761Y-89271428D01*
X109309523Y-89366666D01*
X109214285Y-89414285D01*
X109023809Y-89461904D01*
X108880952Y-89461904D01*
X108690476Y-89414285D01*
X108595238Y-89366666D01*
X108500000Y-89271428D01*
X108452380Y-89128571D01*
X108452380Y-89033333D01*
X108500000Y-88890476D01*
X108547619Y-88842857D01*
X108785714Y-87985714D02*
X109452380Y-87985714D01*
X108404761Y-88223809D02*
X109119047Y-88461904D01*
X109119047Y-87842857D01*
X109452380Y-87414285D02*
X109452380Y-87223809D01*
X109404761Y-87128571D01*
X109357142Y-87080952D01*
X109214285Y-86985714D01*
X109023809Y-86938095D01*
X108642857Y-86938095D01*
X108547619Y-86985714D01*
X108500000Y-87033333D01*
X108452380Y-87128571D01*
X108452380Y-87319047D01*
X108500000Y-87414285D01*
X108547619Y-87461904D01*
X108642857Y-87509523D01*
X108880952Y-87509523D01*
X108976190Y-87461904D01*
X109023809Y-87414285D01*
X109071428Y-87319047D01*
X109071428Y-87128571D01*
X109023809Y-87033333D01*
X108976190Y-86985714D01*
X108880952Y-86938095D01*
X150257142Y-88167857D02*
X150304761Y-88215476D01*
X150352380Y-88358333D01*
X150352380Y-88453571D01*
X150304761Y-88596428D01*
X150209523Y-88691666D01*
X150114285Y-88739285D01*
X149923809Y-88786904D01*
X149780952Y-88786904D01*
X149590476Y-88739285D01*
X149495238Y-88691666D01*
X149400000Y-88596428D01*
X149352380Y-88453571D01*
X149352380Y-88358333D01*
X149400000Y-88215476D01*
X149447619Y-88167857D01*
X149352380Y-87834523D02*
X149352380Y-87215476D01*
X149733333Y-87548809D01*
X149733333Y-87405952D01*
X149780952Y-87310714D01*
X149828571Y-87263095D01*
X149923809Y-87215476D01*
X150161904Y-87215476D01*
X150257142Y-87263095D01*
X150304761Y-87310714D01*
X150352380Y-87405952D01*
X150352380Y-87691666D01*
X150304761Y-87786904D01*
X150257142Y-87834523D01*
X149780952Y-86644047D02*
X149733333Y-86739285D01*
X149685714Y-86786904D01*
X149590476Y-86834523D01*
X149542857Y-86834523D01*
X149447619Y-86786904D01*
X149400000Y-86739285D01*
X149352380Y-86644047D01*
X149352380Y-86453571D01*
X149400000Y-86358333D01*
X149447619Y-86310714D01*
X149542857Y-86263095D01*
X149590476Y-86263095D01*
X149685714Y-86310714D01*
X149733333Y-86358333D01*
X149780952Y-86453571D01*
X149780952Y-86644047D01*
X149828571Y-86739285D01*
X149876190Y-86786904D01*
X149971428Y-86834523D01*
X150161904Y-86834523D01*
X150257142Y-86786904D01*
X150304761Y-86739285D01*
X150352380Y-86644047D01*
X150352380Y-86453571D01*
X150304761Y-86358333D01*
X150257142Y-86310714D01*
X150161904Y-86263095D01*
X149971428Y-86263095D01*
X149876190Y-86310714D01*
X149828571Y-86358333D01*
X149780952Y-86453571D01*
X142857142Y-140042857D02*
X142904761Y-140090476D01*
X142952380Y-140233333D01*
X142952380Y-140328571D01*
X142904761Y-140471428D01*
X142809523Y-140566666D01*
X142714285Y-140614285D01*
X142523809Y-140661904D01*
X142380952Y-140661904D01*
X142190476Y-140614285D01*
X142095238Y-140566666D01*
X142000000Y-140471428D01*
X141952380Y-140328571D01*
X141952380Y-140233333D01*
X142000000Y-140090476D01*
X142047619Y-140042857D01*
X142952380Y-139090476D02*
X142952380Y-139661904D01*
X142952380Y-139376190D02*
X141952380Y-139376190D01*
X142095238Y-139471428D01*
X142190476Y-139566666D01*
X142238095Y-139661904D01*
X141952380Y-138185714D02*
X141952380Y-138661904D01*
X142428571Y-138709523D01*
X142380952Y-138661904D01*
X142333333Y-138566666D01*
X142333333Y-138328571D01*
X142380952Y-138233333D01*
X142428571Y-138185714D01*
X142523809Y-138138095D01*
X142761904Y-138138095D01*
X142857142Y-138185714D01*
X142904761Y-138233333D01*
X142952380Y-138328571D01*
X142952380Y-138566666D01*
X142904761Y-138661904D01*
X142857142Y-138709523D01*
X148857142Y-122457142D02*
X148809523Y-122504761D01*
X148666666Y-122552380D01*
X148571428Y-122552380D01*
X148428571Y-122504761D01*
X148333333Y-122409523D01*
X148285714Y-122314285D01*
X148238095Y-122123809D01*
X148238095Y-121980952D01*
X148285714Y-121790476D01*
X148333333Y-121695238D01*
X148428571Y-121600000D01*
X148571428Y-121552380D01*
X148666666Y-121552380D01*
X148809523Y-121600000D01*
X148857142Y-121647619D01*
X149809523Y-122552380D02*
X149238095Y-122552380D01*
X149523809Y-122552380D02*
X149523809Y-121552380D01*
X149428571Y-121695238D01*
X149333333Y-121790476D01*
X149238095Y-121838095D01*
X150761904Y-122552380D02*
X150190476Y-122552380D01*
X150476190Y-122552380D02*
X150476190Y-121552380D01*
X150380952Y-121695238D01*
X150285714Y-121790476D01*
X150190476Y-121838095D01*
X147057142Y-133267857D02*
X147104761Y-133315476D01*
X147152380Y-133458333D01*
X147152380Y-133553571D01*
X147104761Y-133696428D01*
X147009523Y-133791666D01*
X146914285Y-133839285D01*
X146723809Y-133886904D01*
X146580952Y-133886904D01*
X146390476Y-133839285D01*
X146295238Y-133791666D01*
X146200000Y-133696428D01*
X146152380Y-133553571D01*
X146152380Y-133458333D01*
X146200000Y-133315476D01*
X146247619Y-133267857D01*
X147152380Y-132315476D02*
X147152380Y-132886904D01*
X147152380Y-132601190D02*
X146152380Y-132601190D01*
X146295238Y-132696428D01*
X146390476Y-132791666D01*
X146438095Y-132886904D01*
X146152380Y-131696428D02*
X146152380Y-131601190D01*
X146200000Y-131505952D01*
X146247619Y-131458333D01*
X146342857Y-131410714D01*
X146533333Y-131363095D01*
X146771428Y-131363095D01*
X146961904Y-131410714D01*
X147057142Y-131458333D01*
X147104761Y-131505952D01*
X147152380Y-131601190D01*
X147152380Y-131696428D01*
X147104761Y-131791666D01*
X147057142Y-131839285D01*
X146961904Y-131886904D01*
X146771428Y-131934523D01*
X146533333Y-131934523D01*
X146342857Y-131886904D01*
X146247619Y-131839285D01*
X146200000Y-131791666D01*
X146152380Y-131696428D01*
X156757142Y-99342857D02*
X156804761Y-99390476D01*
X156852380Y-99533333D01*
X156852380Y-99628571D01*
X156804761Y-99771428D01*
X156709523Y-99866666D01*
X156614285Y-99914285D01*
X156423809Y-99961904D01*
X156280952Y-99961904D01*
X156090476Y-99914285D01*
X155995238Y-99866666D01*
X155900000Y-99771428D01*
X155852380Y-99628571D01*
X155852380Y-99533333D01*
X155900000Y-99390476D01*
X155947619Y-99342857D01*
X155852380Y-99009523D02*
X155852380Y-98390476D01*
X156233333Y-98723809D01*
X156233333Y-98580952D01*
X156280952Y-98485714D01*
X156328571Y-98438095D01*
X156423809Y-98390476D01*
X156661904Y-98390476D01*
X156757142Y-98438095D01*
X156804761Y-98485714D01*
X156852380Y-98580952D01*
X156852380Y-98866666D01*
X156804761Y-98961904D01*
X156757142Y-99009523D01*
X155852380Y-98057142D02*
X155852380Y-97390476D01*
X156852380Y-97819047D01*
X130557142Y-132966666D02*
X130604761Y-133014285D01*
X130652380Y-133157142D01*
X130652380Y-133252380D01*
X130604761Y-133395238D01*
X130509523Y-133490476D01*
X130414285Y-133538095D01*
X130223809Y-133585714D01*
X130080952Y-133585714D01*
X129890476Y-133538095D01*
X129795238Y-133490476D01*
X129700000Y-133395238D01*
X129652380Y-133252380D01*
X129652380Y-133157142D01*
X129700000Y-133014285D01*
X129747619Y-132966666D01*
X130652380Y-132490476D02*
X130652380Y-132300000D01*
X130604761Y-132204761D01*
X130557142Y-132157142D01*
X130414285Y-132061904D01*
X130223809Y-132014285D01*
X129842857Y-132014285D01*
X129747619Y-132061904D01*
X129700000Y-132109523D01*
X129652380Y-132204761D01*
X129652380Y-132395238D01*
X129700000Y-132490476D01*
X129747619Y-132538095D01*
X129842857Y-132585714D01*
X130080952Y-132585714D01*
X130176190Y-132538095D01*
X130223809Y-132490476D01*
X130271428Y-132395238D01*
X130271428Y-132204761D01*
X130223809Y-132109523D01*
X130176190Y-132061904D01*
X130080952Y-132014285D01*
X123857142Y-132466666D02*
X123904761Y-132514285D01*
X123952380Y-132657142D01*
X123952380Y-132752380D01*
X123904761Y-132895238D01*
X123809523Y-132990476D01*
X123714285Y-133038095D01*
X123523809Y-133085714D01*
X123380952Y-133085714D01*
X123190476Y-133038095D01*
X123095238Y-132990476D01*
X123000000Y-132895238D01*
X122952380Y-132752380D01*
X122952380Y-132657142D01*
X123000000Y-132514285D01*
X123047619Y-132466666D01*
X123380952Y-131895238D02*
X123333333Y-131990476D01*
X123285714Y-132038095D01*
X123190476Y-132085714D01*
X123142857Y-132085714D01*
X123047619Y-132038095D01*
X123000000Y-131990476D01*
X122952380Y-131895238D01*
X122952380Y-131704761D01*
X123000000Y-131609523D01*
X123047619Y-131561904D01*
X123142857Y-131514285D01*
X123190476Y-131514285D01*
X123285714Y-131561904D01*
X123333333Y-131609523D01*
X123380952Y-131704761D01*
X123380952Y-131895238D01*
X123428571Y-131990476D01*
X123476190Y-132038095D01*
X123571428Y-132085714D01*
X123761904Y-132085714D01*
X123857142Y-132038095D01*
X123904761Y-131990476D01*
X123952380Y-131895238D01*
X123952380Y-131704761D01*
X123904761Y-131609523D01*
X123857142Y-131561904D01*
X123761904Y-131514285D01*
X123571428Y-131514285D01*
X123476190Y-131561904D01*
X123428571Y-131609523D01*
X123380952Y-131704761D01*
X121133333Y-123957142D02*
X121085714Y-124004761D01*
X120942857Y-124052380D01*
X120847619Y-124052380D01*
X120704761Y-124004761D01*
X120609523Y-123909523D01*
X120561904Y-123814285D01*
X120514285Y-123623809D01*
X120514285Y-123480952D01*
X120561904Y-123290476D01*
X120609523Y-123195238D01*
X120704761Y-123100000D01*
X120847619Y-123052380D01*
X120942857Y-123052380D01*
X121085714Y-123100000D01*
X121133333Y-123147619D01*
X121466666Y-123052380D02*
X122133333Y-123052380D01*
X121704761Y-124052380D01*
X121133333Y-117957142D02*
X121085714Y-118004761D01*
X120942857Y-118052380D01*
X120847619Y-118052380D01*
X120704761Y-118004761D01*
X120609523Y-117909523D01*
X120561904Y-117814285D01*
X120514285Y-117623809D01*
X120514285Y-117480952D01*
X120561904Y-117290476D01*
X120609523Y-117195238D01*
X120704761Y-117100000D01*
X120847619Y-117052380D01*
X120942857Y-117052380D01*
X121085714Y-117100000D01*
X121133333Y-117147619D01*
X121990476Y-117052380D02*
X121800000Y-117052380D01*
X121704761Y-117100000D01*
X121657142Y-117147619D01*
X121561904Y-117290476D01*
X121514285Y-117480952D01*
X121514285Y-117861904D01*
X121561904Y-117957142D01*
X121609523Y-118004761D01*
X121704761Y-118052380D01*
X121895238Y-118052380D01*
X121990476Y-118004761D01*
X122038095Y-117957142D01*
X122085714Y-117861904D01*
X122085714Y-117623809D01*
X122038095Y-117528571D01*
X121990476Y-117480952D01*
X121895238Y-117433333D01*
X121704761Y-117433333D01*
X121609523Y-117480952D01*
X121561904Y-117528571D01*
X121514285Y-117623809D01*
X137033333Y-103457142D02*
X136985714Y-103504761D01*
X136842857Y-103552380D01*
X136747619Y-103552380D01*
X136604761Y-103504761D01*
X136509523Y-103409523D01*
X136461904Y-103314285D01*
X136414285Y-103123809D01*
X136414285Y-102980952D01*
X136461904Y-102790476D01*
X136509523Y-102695238D01*
X136604761Y-102600000D01*
X136747619Y-102552380D01*
X136842857Y-102552380D01*
X136985714Y-102600000D01*
X137033333Y-102647619D01*
X137366666Y-102552380D02*
X137985714Y-102552380D01*
X137652380Y-102933333D01*
X137795238Y-102933333D01*
X137890476Y-102980952D01*
X137938095Y-103028571D01*
X137985714Y-103123809D01*
X137985714Y-103361904D01*
X137938095Y-103457142D01*
X137890476Y-103504761D01*
X137795238Y-103552380D01*
X137509523Y-103552380D01*
X137414285Y-103504761D01*
X137366666Y-103457142D01*
X130257142Y-97442857D02*
X130304761Y-97490476D01*
X130352380Y-97633333D01*
X130352380Y-97728571D01*
X130304761Y-97871428D01*
X130209523Y-97966666D01*
X130114285Y-98014285D01*
X129923809Y-98061904D01*
X129780952Y-98061904D01*
X129590476Y-98014285D01*
X129495238Y-97966666D01*
X129400000Y-97871428D01*
X129352380Y-97728571D01*
X129352380Y-97633333D01*
X129400000Y-97490476D01*
X129447619Y-97442857D01*
X129352380Y-97109523D02*
X129352380Y-96490476D01*
X129733333Y-96823809D01*
X129733333Y-96680952D01*
X129780952Y-96585714D01*
X129828571Y-96538095D01*
X129923809Y-96490476D01*
X130161904Y-96490476D01*
X130257142Y-96538095D01*
X130304761Y-96585714D01*
X130352380Y-96680952D01*
X130352380Y-96966666D01*
X130304761Y-97061904D01*
X130257142Y-97109523D01*
X130352380Y-95538095D02*
X130352380Y-96109523D01*
X130352380Y-95823809D02*
X129352380Y-95823809D01*
X129495238Y-95919047D01*
X129590476Y-96014285D01*
X129638095Y-96109523D01*
X140257142Y-97442857D02*
X140304761Y-97490476D01*
X140352380Y-97633333D01*
X140352380Y-97728571D01*
X140304761Y-97871428D01*
X140209523Y-97966666D01*
X140114285Y-98014285D01*
X139923809Y-98061904D01*
X139780952Y-98061904D01*
X139590476Y-98014285D01*
X139495238Y-97966666D01*
X139400000Y-97871428D01*
X139352380Y-97728571D01*
X139352380Y-97633333D01*
X139400000Y-97490476D01*
X139447619Y-97442857D01*
X139447619Y-97061904D02*
X139400000Y-97014285D01*
X139352380Y-96919047D01*
X139352380Y-96680952D01*
X139400000Y-96585714D01*
X139447619Y-96538095D01*
X139542857Y-96490476D01*
X139638095Y-96490476D01*
X139780952Y-96538095D01*
X140352380Y-97109523D01*
X140352380Y-96490476D01*
X140352380Y-96014285D02*
X140352380Y-95823809D01*
X140304761Y-95728571D01*
X140257142Y-95680952D01*
X140114285Y-95585714D01*
X139923809Y-95538095D01*
X139542857Y-95538095D01*
X139447619Y-95585714D01*
X139400000Y-95633333D01*
X139352380Y-95728571D01*
X139352380Y-95919047D01*
X139400000Y-96014285D01*
X139447619Y-96061904D01*
X139542857Y-96109523D01*
X139780952Y-96109523D01*
X139876190Y-96061904D01*
X139923809Y-96014285D01*
X139971428Y-95919047D01*
X139971428Y-95728571D01*
X139923809Y-95633333D01*
X139876190Y-95585714D01*
X139780952Y-95538095D01*
X131157142Y-103866666D02*
X131204761Y-103914285D01*
X131252380Y-104057142D01*
X131252380Y-104152380D01*
X131204761Y-104295238D01*
X131109523Y-104390476D01*
X131014285Y-104438095D01*
X130823809Y-104485714D01*
X130680952Y-104485714D01*
X130490476Y-104438095D01*
X130395238Y-104390476D01*
X130300000Y-104295238D01*
X130252380Y-104152380D01*
X130252380Y-104057142D01*
X130300000Y-103914285D01*
X130347619Y-103866666D01*
X130347619Y-103485714D02*
X130300000Y-103438095D01*
X130252380Y-103342857D01*
X130252380Y-103104761D01*
X130300000Y-103009523D01*
X130347619Y-102961904D01*
X130442857Y-102914285D01*
X130538095Y-102914285D01*
X130680952Y-102961904D01*
X131252380Y-103533333D01*
X131252380Y-102914285D01*
M02*
