G04 #@! TF.GenerationSoftware,KiCad,Pcbnew,9.0.3*
G04 #@! TF.CreationDate,2026-04-17T11:48:44+01:00*
G04 #@! TF.ProjectId,Retrospector_Components,52657472-6f73-4706-9563-746f725f436f,rev?*
G04 #@! TF.SameCoordinates,Original*
G04 #@! TF.FileFunction,Soldermask,Bot*
G04 #@! TF.FilePolarity,Negative*
%FSLAX46Y46*%
G04 Gerber Fmt 4.6, Leading zero omitted, Abs format (unit mm)*
G04 Created by KiCad (PCBNEW 9.0.3) date 2026-04-17 11:48:44*
%MOMM*%
%LPD*%
G01*
G04 APERTURE LIST*
%ADD10C,0.100000*%
%ADD11R,1.700000X1.700000*%
%ADD12C,1.700000*%
%ADD13C,2.000000*%
%ADD14O,0.950000X1.250000*%
%ADD15O,1.550000X1.000000*%
%ADD16C,1.152000*%
%ADD17O,1.700000X1.700000*%
G04 APERTURE END LIST*
D10*
X114200000Y-152900000D02*
X106200000Y-152900000D01*
X106200000Y-150900000D01*
X114200000Y-150900000D01*
X114200000Y-152900000D01*
G36*
X114200000Y-152900000D02*
G01*
X106200000Y-152900000D01*
X106200000Y-150900000D01*
X114200000Y-150900000D01*
X114200000Y-152900000D01*
G37*
D11*
X117400000Y-57200000D03*
D12*
X117400000Y-54660000D03*
X119940000Y-57200000D03*
X119940000Y-54660000D03*
X122480000Y-57200000D03*
X122480000Y-54660000D03*
X125020000Y-57200000D03*
X125020000Y-54660000D03*
X127560000Y-57200000D03*
X127560000Y-54660000D03*
D13*
X106400000Y-155200000D03*
X116000000Y-155200000D03*
X111100000Y-155200000D03*
X115750000Y-62950000D03*
D14*
X154650000Y-156500000D03*
X154650000Y-151500000D03*
D15*
X157350000Y-150500000D03*
X157350000Y-157500000D03*
D16*
X102500000Y-157500000D03*
X157600000Y-52400000D03*
D13*
X122300000Y-63000000D03*
X104300000Y-86800000D03*
D11*
X157500000Y-122700000D03*
D12*
X157500000Y-120160000D03*
X157500000Y-117620000D03*
X157500000Y-115080000D03*
D11*
X157100000Y-111100000D03*
D17*
X154560000Y-111100000D03*
D11*
X102500000Y-63500000D03*
D17*
X102500000Y-66040000D03*
X102500000Y-68580000D03*
X102500000Y-71120000D03*
X102500000Y-73660000D03*
X102500000Y-76200000D03*
X102500000Y-78740000D03*
X102500000Y-81280000D03*
D11*
X102500000Y-130000000D03*
D17*
X102500000Y-132540000D03*
X102500000Y-135080000D03*
X102500000Y-137620000D03*
X102500000Y-140160000D03*
X102500000Y-142700000D03*
X102500000Y-145240000D03*
X102500000Y-147780000D03*
D11*
X157500000Y-63500000D03*
D17*
X157500000Y-66040000D03*
X157500000Y-68580000D03*
X157500000Y-71120000D03*
X157500000Y-73660000D03*
X157500000Y-76200000D03*
X157500000Y-78740000D03*
X157500000Y-81280000D03*
D11*
X157500000Y-130000000D03*
D17*
X157500000Y-132540000D03*
X157500000Y-135080000D03*
X157500000Y-137620000D03*
X157500000Y-140160000D03*
X157500000Y-142700000D03*
X157500000Y-145240000D03*
X157500000Y-147780000D03*
M02*
