G04 #@! TF.GenerationSoftware,KiCad,Pcbnew,(5.1.9)-1*
G04 #@! TF.CreationDate,2021-03-14T14:56:39+00:00*
G04 #@! TF.ProjectId,Retrospector_Components,52657472-6f73-4706-9563-746f725f436f,rev?*
G04 #@! TF.SameCoordinates,Original*
G04 #@! TF.FileFunction,Soldermask,Top*
G04 #@! TF.FilePolarity,Negative*
%FSLAX46Y46*%
G04 Gerber Fmt 4.6, Leading zero omitted, Abs format (unit mm)*
G04 Created by KiCad (PCBNEW (5.1.9)-1) date 2021-03-14 14:56:39*
%MOMM*%
%LPD*%
G01*
G04 APERTURE LIST*
%ADD10C,0.100000*%
%ADD11R,1.500000X1.500000*%
%ADD12R,3.000000X2.400000*%
%ADD13C,1.700000*%
%ADD14R,1.700000X1.700000*%
%ADD15R,3.000000X1.600000*%
%ADD16O,1.700000X1.700000*%
%ADD17R,1.200000X0.750000*%
%ADD18C,2.000000*%
%ADD19R,0.750000X1.200000*%
%ADD20R,3.800000X2.000000*%
%ADD21R,1.500000X2.000000*%
%ADD22R,2.600000X1.600000*%
%ADD23R,0.900000X1.200000*%
%ADD24R,1.200000X0.900000*%
%ADD25R,0.458000X1.510000*%
%ADD26R,2.400000X2.000000*%
%ADD27R,2.500000X1.000000*%
%ADD28R,1.000000X2.500000*%
%ADD29R,0.600000X1.550000*%
%ADD30R,1.600000X2.600000*%
%ADD31C,1.152000*%
%ADD32R,1.000000X1.250000*%
%ADD33R,1.350000X0.400000*%
%ADD34O,0.950000X1.250000*%
%ADD35O,1.550000X1.000000*%
%ADD36R,1.300000X1.500000*%
%ADD37R,0.600000X1.500000*%
%ADD38R,0.508000X1.143000*%
%ADD39R,1.143000X0.508000*%
%ADD40R,0.800000X0.900000*%
%ADD41R,1.250000X1.000000*%
G04 APERTURE END LIST*
D10*
G36*
X155200000Y-68700000D02*
G01*
X153900000Y-70600000D01*
X149900000Y-70600000D01*
X148300000Y-68700000D01*
X148300000Y-64900000D01*
X155300000Y-64900000D01*
X155200000Y-68700000D01*
G37*
X155200000Y-68700000D02*
X153900000Y-70600000D01*
X149900000Y-70600000D01*
X148300000Y-68700000D01*
X148300000Y-64900000D01*
X155300000Y-64900000D01*
X155200000Y-68700000D01*
G36*
X114200000Y-152900000D02*
G01*
X106200000Y-152900000D01*
X106200000Y-150900000D01*
X114200000Y-150900000D01*
X114200000Y-152900000D01*
G37*
X114200000Y-152900000D02*
X106200000Y-152900000D01*
X106200000Y-150900000D01*
X114200000Y-150900000D01*
X114200000Y-152900000D01*
D11*
X144610000Y-51400000D03*
D12*
X132550000Y-100000000D03*
X137250000Y-100000000D03*
D13*
X127560000Y-54660000D03*
X127560000Y-57200000D03*
X125020000Y-54660000D03*
X125020000Y-57200000D03*
X122480000Y-54660000D03*
X122480000Y-57200000D03*
X119940000Y-54660000D03*
X119940000Y-57200000D03*
X117400000Y-54660000D03*
D14*
X117400000Y-57200000D03*
D15*
X146400000Y-65800000D03*
X142000000Y-65800000D03*
X139000000Y-60100000D03*
X134600000Y-60100000D03*
D14*
X157100000Y-111100000D03*
D16*
X154560000Y-111100000D03*
D17*
X120350000Y-109200000D03*
X122250000Y-109200000D03*
D18*
X122300000Y-63000000D03*
D19*
X147800000Y-81350000D03*
X147800000Y-79450000D03*
X131200000Y-83950000D03*
X131200000Y-85850000D03*
X103200000Y-118850000D03*
X103200000Y-120750000D03*
D20*
X151800000Y-67650000D03*
D21*
X151800000Y-61350000D03*
X149500000Y-61350000D03*
X154100000Y-61350000D03*
D19*
X126800000Y-72450000D03*
X126800000Y-70550000D03*
X135600000Y-72450000D03*
X135600000Y-70550000D03*
X137800000Y-83950000D03*
X137800000Y-85850000D03*
X124600000Y-83850000D03*
X124600000Y-85750000D03*
X134400000Y-90250000D03*
X134400000Y-92150000D03*
X127800000Y-90250000D03*
X127800000Y-92150000D03*
D22*
X135000000Y-65800000D03*
X138600000Y-65800000D03*
D19*
X140400000Y-51750000D03*
X140400000Y-53650000D03*
D23*
X115500000Y-83800000D03*
X115500000Y-86000000D03*
X125200000Y-101100000D03*
X125200000Y-98900000D03*
X123400000Y-101100000D03*
X123400000Y-98900000D03*
D24*
X109800000Y-109600000D03*
X112000000Y-109600000D03*
D23*
X103500000Y-101100000D03*
X103500000Y-98900000D03*
D25*
X145425000Y-154775000D03*
X144625000Y-154775000D03*
X143825000Y-154775000D03*
X143025000Y-154775000D03*
X142225000Y-154775000D03*
X141425000Y-154775000D03*
X140625000Y-154775000D03*
X139825000Y-154775000D03*
X139025000Y-154775000D03*
X138225000Y-154775000D03*
X137425000Y-154775000D03*
X136625000Y-154775000D03*
X135825000Y-154775000D03*
X135025000Y-154775000D03*
X134225000Y-154775000D03*
X133425000Y-154775000D03*
X132625000Y-154775000D03*
X131825000Y-154775000D03*
X131025000Y-154775000D03*
X130225000Y-154775000D03*
X129425000Y-154775000D03*
X128625000Y-154775000D03*
X127825000Y-154775000D03*
X127025000Y-154775000D03*
X126225000Y-154775000D03*
X125425000Y-154775000D03*
X124625000Y-154775000D03*
X124625000Y-143275000D03*
X125425000Y-143275000D03*
X126225000Y-143275000D03*
X127025000Y-143275000D03*
X127825000Y-143275000D03*
X128625000Y-143275000D03*
X129425000Y-143275000D03*
X130225000Y-143275000D03*
X131025000Y-143275000D03*
X131825000Y-143275000D03*
X132625000Y-143275000D03*
X133425000Y-143275000D03*
X134225000Y-143275000D03*
X135025000Y-143275000D03*
X135825000Y-143275000D03*
X136625000Y-143275000D03*
X137425000Y-143275000D03*
X138225000Y-143275000D03*
X139025000Y-143275000D03*
X139825000Y-143275000D03*
X140625000Y-143275000D03*
X141425000Y-143275000D03*
X142225000Y-143275000D03*
X143025000Y-143275000D03*
X143825000Y-143275000D03*
X144625000Y-143275000D03*
X145425000Y-143275000D03*
D26*
X152300000Y-51900000D03*
X152300000Y-57900000D03*
D27*
X157700000Y-58500000D03*
X157700000Y-55500000D03*
D28*
X138100000Y-55100000D03*
X135100000Y-55100000D03*
D19*
X147800000Y-57150000D03*
X147800000Y-55250000D03*
D23*
X146050000Y-61700000D03*
X142750000Y-61700000D03*
D29*
X146205000Y-53600000D03*
X144935000Y-53600000D03*
X143665000Y-53600000D03*
X142395000Y-53600000D03*
X142395000Y-59000000D03*
X143665000Y-59000000D03*
X144935000Y-59000000D03*
X146205000Y-59000000D03*
D14*
X157500000Y-130000000D03*
D16*
X157500000Y-132540000D03*
X157500000Y-135080000D03*
X157500000Y-137620000D03*
X157500000Y-140160000D03*
X157500000Y-142700000D03*
X157500000Y-145240000D03*
X157500000Y-147780000D03*
D24*
X106700000Y-126100000D03*
X104500000Y-126100000D03*
D11*
X152000000Y-157600000D03*
X150000000Y-157600000D03*
X148000000Y-157600000D03*
X146700000Y-103300000D03*
D23*
X142800000Y-86900000D03*
X142800000Y-89100000D03*
X142800000Y-75700000D03*
X142800000Y-73500000D03*
X141000000Y-86900000D03*
X141000000Y-89100000D03*
X141000000Y-75700000D03*
X141000000Y-73500000D03*
D24*
X104700000Y-111400000D03*
X106900000Y-111400000D03*
X106900000Y-109600000D03*
X104700000Y-109600000D03*
X104700000Y-107800000D03*
X106900000Y-107800000D03*
D19*
X103200000Y-113950000D03*
X103200000Y-115850000D03*
D29*
X144655000Y-78400000D03*
X143385000Y-78400000D03*
X142115000Y-78400000D03*
X140845000Y-78400000D03*
X140845000Y-83800000D03*
X142115000Y-83800000D03*
X143385000Y-83800000D03*
X144655000Y-83800000D03*
G36*
G01*
X154350000Y-93900000D02*
X154550000Y-93900000D01*
G75*
G02*
X154650000Y-94000000I0J-100000D01*
G01*
X154650000Y-94800000D01*
G75*
G02*
X154550000Y-94900000I-100000J0D01*
G01*
X154350000Y-94900000D01*
G75*
G02*
X154250000Y-94800000I0J100000D01*
G01*
X154250000Y-94000000D01*
G75*
G02*
X154350000Y-93900000I100000J0D01*
G01*
G37*
G36*
G01*
X153700000Y-93900000D02*
X153900000Y-93900000D01*
G75*
G02*
X154000000Y-94000000I0J-100000D01*
G01*
X154000000Y-94800000D01*
G75*
G02*
X153900000Y-94900000I-100000J0D01*
G01*
X153700000Y-94900000D01*
G75*
G02*
X153600000Y-94800000I0J100000D01*
G01*
X153600000Y-94000000D01*
G75*
G02*
X153700000Y-93900000I100000J0D01*
G01*
G37*
G36*
G01*
X153050000Y-93900000D02*
X153250000Y-93900000D01*
G75*
G02*
X153350000Y-94000000I0J-100000D01*
G01*
X153350000Y-94800000D01*
G75*
G02*
X153250000Y-94900000I-100000J0D01*
G01*
X153050000Y-94900000D01*
G75*
G02*
X152950000Y-94800000I0J100000D01*
G01*
X152950000Y-94000000D01*
G75*
G02*
X153050000Y-93900000I100000J0D01*
G01*
G37*
G36*
G01*
X152400000Y-93900000D02*
X152600000Y-93900000D01*
G75*
G02*
X152700000Y-94000000I0J-100000D01*
G01*
X152700000Y-94800000D01*
G75*
G02*
X152600000Y-94900000I-100000J0D01*
G01*
X152400000Y-94900000D01*
G75*
G02*
X152300000Y-94800000I0J100000D01*
G01*
X152300000Y-94000000D01*
G75*
G02*
X152400000Y-93900000I100000J0D01*
G01*
G37*
G36*
G01*
X151750000Y-93900000D02*
X151950000Y-93900000D01*
G75*
G02*
X152050000Y-94000000I0J-100000D01*
G01*
X152050000Y-94800000D01*
G75*
G02*
X151950000Y-94900000I-100000J0D01*
G01*
X151750000Y-94900000D01*
G75*
G02*
X151650000Y-94800000I0J100000D01*
G01*
X151650000Y-94000000D01*
G75*
G02*
X151750000Y-93900000I100000J0D01*
G01*
G37*
G36*
G01*
X151100000Y-93900000D02*
X151300000Y-93900000D01*
G75*
G02*
X151400000Y-94000000I0J-100000D01*
G01*
X151400000Y-94800000D01*
G75*
G02*
X151300000Y-94900000I-100000J0D01*
G01*
X151100000Y-94900000D01*
G75*
G02*
X151000000Y-94800000I0J100000D01*
G01*
X151000000Y-94000000D01*
G75*
G02*
X151100000Y-93900000I100000J0D01*
G01*
G37*
G36*
G01*
X150450000Y-93900000D02*
X150650000Y-93900000D01*
G75*
G02*
X150750000Y-94000000I0J-100000D01*
G01*
X150750000Y-94800000D01*
G75*
G02*
X150650000Y-94900000I-100000J0D01*
G01*
X150450000Y-94900000D01*
G75*
G02*
X150350000Y-94800000I0J100000D01*
G01*
X150350000Y-94000000D01*
G75*
G02*
X150450000Y-93900000I100000J0D01*
G01*
G37*
G36*
G01*
X149800000Y-93900000D02*
X150000000Y-93900000D01*
G75*
G02*
X150100000Y-94000000I0J-100000D01*
G01*
X150100000Y-94800000D01*
G75*
G02*
X150000000Y-94900000I-100000J0D01*
G01*
X149800000Y-94900000D01*
G75*
G02*
X149700000Y-94800000I0J100000D01*
G01*
X149700000Y-94000000D01*
G75*
G02*
X149800000Y-93900000I100000J0D01*
G01*
G37*
G36*
G01*
X149150000Y-93900000D02*
X149350000Y-93900000D01*
G75*
G02*
X149450000Y-94000000I0J-100000D01*
G01*
X149450000Y-94800000D01*
G75*
G02*
X149350000Y-94900000I-100000J0D01*
G01*
X149150000Y-94900000D01*
G75*
G02*
X149050000Y-94800000I0J100000D01*
G01*
X149050000Y-94000000D01*
G75*
G02*
X149150000Y-93900000I100000J0D01*
G01*
G37*
G36*
G01*
X148500000Y-93900000D02*
X148700000Y-93900000D01*
G75*
G02*
X148800000Y-94000000I0J-100000D01*
G01*
X148800000Y-94800000D01*
G75*
G02*
X148700000Y-94900000I-100000J0D01*
G01*
X148500000Y-94900000D01*
G75*
G02*
X148400000Y-94800000I0J100000D01*
G01*
X148400000Y-94000000D01*
G75*
G02*
X148500000Y-93900000I100000J0D01*
G01*
G37*
G36*
G01*
X148500000Y-99700000D02*
X148700000Y-99700000D01*
G75*
G02*
X148800000Y-99800000I0J-100000D01*
G01*
X148800000Y-100600000D01*
G75*
G02*
X148700000Y-100700000I-100000J0D01*
G01*
X148500000Y-100700000D01*
G75*
G02*
X148400000Y-100600000I0J100000D01*
G01*
X148400000Y-99800000D01*
G75*
G02*
X148500000Y-99700000I100000J0D01*
G01*
G37*
G36*
G01*
X149150000Y-99700000D02*
X149350000Y-99700000D01*
G75*
G02*
X149450000Y-99800000I0J-100000D01*
G01*
X149450000Y-100600000D01*
G75*
G02*
X149350000Y-100700000I-100000J0D01*
G01*
X149150000Y-100700000D01*
G75*
G02*
X149050000Y-100600000I0J100000D01*
G01*
X149050000Y-99800000D01*
G75*
G02*
X149150000Y-99700000I100000J0D01*
G01*
G37*
G36*
G01*
X149800000Y-99700000D02*
X150000000Y-99700000D01*
G75*
G02*
X150100000Y-99800000I0J-100000D01*
G01*
X150100000Y-100600000D01*
G75*
G02*
X150000000Y-100700000I-100000J0D01*
G01*
X149800000Y-100700000D01*
G75*
G02*
X149700000Y-100600000I0J100000D01*
G01*
X149700000Y-99800000D01*
G75*
G02*
X149800000Y-99700000I100000J0D01*
G01*
G37*
G36*
G01*
X150450000Y-99700000D02*
X150650000Y-99700000D01*
G75*
G02*
X150750000Y-99800000I0J-100000D01*
G01*
X150750000Y-100600000D01*
G75*
G02*
X150650000Y-100700000I-100000J0D01*
G01*
X150450000Y-100700000D01*
G75*
G02*
X150350000Y-100600000I0J100000D01*
G01*
X150350000Y-99800000D01*
G75*
G02*
X150450000Y-99700000I100000J0D01*
G01*
G37*
G36*
G01*
X151100000Y-99700000D02*
X151300000Y-99700000D01*
G75*
G02*
X151400000Y-99800000I0J-100000D01*
G01*
X151400000Y-100600000D01*
G75*
G02*
X151300000Y-100700000I-100000J0D01*
G01*
X151100000Y-100700000D01*
G75*
G02*
X151000000Y-100600000I0J100000D01*
G01*
X151000000Y-99800000D01*
G75*
G02*
X151100000Y-99700000I100000J0D01*
G01*
G37*
G36*
G01*
X151750000Y-99700000D02*
X151950000Y-99700000D01*
G75*
G02*
X152050000Y-99800000I0J-100000D01*
G01*
X152050000Y-100600000D01*
G75*
G02*
X151950000Y-100700000I-100000J0D01*
G01*
X151750000Y-100700000D01*
G75*
G02*
X151650000Y-100600000I0J100000D01*
G01*
X151650000Y-99800000D01*
G75*
G02*
X151750000Y-99700000I100000J0D01*
G01*
G37*
G36*
G01*
X152400000Y-99700000D02*
X152600000Y-99700000D01*
G75*
G02*
X152700000Y-99800000I0J-100000D01*
G01*
X152700000Y-100600000D01*
G75*
G02*
X152600000Y-100700000I-100000J0D01*
G01*
X152400000Y-100700000D01*
G75*
G02*
X152300000Y-100600000I0J100000D01*
G01*
X152300000Y-99800000D01*
G75*
G02*
X152400000Y-99700000I100000J0D01*
G01*
G37*
G36*
G01*
X153050000Y-99700000D02*
X153250000Y-99700000D01*
G75*
G02*
X153350000Y-99800000I0J-100000D01*
G01*
X153350000Y-100600000D01*
G75*
G02*
X153250000Y-100700000I-100000J0D01*
G01*
X153050000Y-100700000D01*
G75*
G02*
X152950000Y-100600000I0J100000D01*
G01*
X152950000Y-99800000D01*
G75*
G02*
X153050000Y-99700000I100000J0D01*
G01*
G37*
G36*
G01*
X153700000Y-99700000D02*
X153900000Y-99700000D01*
G75*
G02*
X154000000Y-99800000I0J-100000D01*
G01*
X154000000Y-100600000D01*
G75*
G02*
X153900000Y-100700000I-100000J0D01*
G01*
X153700000Y-100700000D01*
G75*
G02*
X153600000Y-100600000I0J100000D01*
G01*
X153600000Y-99800000D01*
G75*
G02*
X153700000Y-99700000I100000J0D01*
G01*
G37*
G36*
G01*
X154350000Y-99700000D02*
X154550000Y-99700000D01*
G75*
G02*
X154650000Y-99800000I0J-100000D01*
G01*
X154650000Y-100600000D01*
G75*
G02*
X154550000Y-100700000I-100000J0D01*
G01*
X154350000Y-100700000D01*
G75*
G02*
X154250000Y-100600000I0J100000D01*
G01*
X154250000Y-99800000D01*
G75*
G02*
X154350000Y-99700000I100000J0D01*
G01*
G37*
D11*
X144600000Y-103300000D03*
X148800000Y-103300000D03*
D18*
X115750000Y-62950000D03*
X104300000Y-86800000D03*
X111100000Y-155200000D03*
X116000000Y-155200000D03*
X106400000Y-155200000D03*
D30*
X108900000Y-59400000D03*
X108900000Y-55800000D03*
D23*
X120700000Y-70400000D03*
X120700000Y-72600000D03*
D24*
X105000000Y-53000000D03*
X102800000Y-53000000D03*
D19*
X122400000Y-70550000D03*
X122400000Y-72450000D03*
D17*
X104850000Y-54900000D03*
X102950000Y-54900000D03*
D31*
X157600000Y-52400000D03*
X102500000Y-157500000D03*
D19*
X151700000Y-91750000D03*
X151700000Y-89850000D03*
X153900000Y-91850000D03*
X153900000Y-89950000D03*
X120900000Y-128450000D03*
X120900000Y-130350000D03*
X142800000Y-131675000D03*
X142800000Y-133575000D03*
D32*
X113700000Y-91900000D03*
X111700000Y-91900000D03*
D33*
X154650000Y-155300000D03*
X154650000Y-154650000D03*
X154650000Y-154000000D03*
X154650000Y-153350000D03*
X154650000Y-152700000D03*
D34*
X154650000Y-156500000D03*
X154650000Y-151500000D03*
D35*
X157350000Y-157500000D03*
X157350000Y-150500000D03*
D36*
X132000000Y-67150000D03*
X132000000Y-64450000D03*
D14*
X157500000Y-63500000D03*
D16*
X157500000Y-66040000D03*
X157500000Y-68580000D03*
X157500000Y-71120000D03*
X157500000Y-73660000D03*
X157500000Y-76200000D03*
X157500000Y-78740000D03*
X157500000Y-81280000D03*
D14*
X102500000Y-130000000D03*
D16*
X102500000Y-132540000D03*
X102500000Y-135080000D03*
X102500000Y-137620000D03*
X102500000Y-140160000D03*
X102500000Y-142700000D03*
X102500000Y-145240000D03*
X102500000Y-147780000D03*
D14*
X102500000Y-63500000D03*
D16*
X102500000Y-66040000D03*
X102500000Y-68580000D03*
X102500000Y-71120000D03*
X102500000Y-73660000D03*
X102500000Y-76200000D03*
X102500000Y-78740000D03*
X102500000Y-81280000D03*
D17*
X150350000Y-109300000D03*
X148450000Y-109300000D03*
X150450000Y-115675000D03*
X148550000Y-115675000D03*
G36*
G01*
X145025000Y-109025000D02*
X146350000Y-109025000D01*
G75*
G02*
X146425000Y-109100000I0J-75000D01*
G01*
X146425000Y-109250000D01*
G75*
G02*
X146350000Y-109325000I-75000J0D01*
G01*
X145025000Y-109325000D01*
G75*
G02*
X144950000Y-109250000I0J75000D01*
G01*
X144950000Y-109100000D01*
G75*
G02*
X145025000Y-109025000I75000J0D01*
G01*
G37*
G36*
G01*
X145025000Y-109525000D02*
X146350000Y-109525000D01*
G75*
G02*
X146425000Y-109600000I0J-75000D01*
G01*
X146425000Y-109750000D01*
G75*
G02*
X146350000Y-109825000I-75000J0D01*
G01*
X145025000Y-109825000D01*
G75*
G02*
X144950000Y-109750000I0J75000D01*
G01*
X144950000Y-109600000D01*
G75*
G02*
X145025000Y-109525000I75000J0D01*
G01*
G37*
G36*
G01*
X145025000Y-110025000D02*
X146350000Y-110025000D01*
G75*
G02*
X146425000Y-110100000I0J-75000D01*
G01*
X146425000Y-110250000D01*
G75*
G02*
X146350000Y-110325000I-75000J0D01*
G01*
X145025000Y-110325000D01*
G75*
G02*
X144950000Y-110250000I0J75000D01*
G01*
X144950000Y-110100000D01*
G75*
G02*
X145025000Y-110025000I75000J0D01*
G01*
G37*
G36*
G01*
X145025000Y-110525000D02*
X146350000Y-110525000D01*
G75*
G02*
X146425000Y-110600000I0J-75000D01*
G01*
X146425000Y-110750000D01*
G75*
G02*
X146350000Y-110825000I-75000J0D01*
G01*
X145025000Y-110825000D01*
G75*
G02*
X144950000Y-110750000I0J75000D01*
G01*
X144950000Y-110600000D01*
G75*
G02*
X145025000Y-110525000I75000J0D01*
G01*
G37*
G36*
G01*
X145025000Y-111025000D02*
X146350000Y-111025000D01*
G75*
G02*
X146425000Y-111100000I0J-75000D01*
G01*
X146425000Y-111250000D01*
G75*
G02*
X146350000Y-111325000I-75000J0D01*
G01*
X145025000Y-111325000D01*
G75*
G02*
X144950000Y-111250000I0J75000D01*
G01*
X144950000Y-111100000D01*
G75*
G02*
X145025000Y-111025000I75000J0D01*
G01*
G37*
G36*
G01*
X145025000Y-111525000D02*
X146350000Y-111525000D01*
G75*
G02*
X146425000Y-111600000I0J-75000D01*
G01*
X146425000Y-111750000D01*
G75*
G02*
X146350000Y-111825000I-75000J0D01*
G01*
X145025000Y-111825000D01*
G75*
G02*
X144950000Y-111750000I0J75000D01*
G01*
X144950000Y-111600000D01*
G75*
G02*
X145025000Y-111525000I75000J0D01*
G01*
G37*
G36*
G01*
X145025000Y-112025000D02*
X146350000Y-112025000D01*
G75*
G02*
X146425000Y-112100000I0J-75000D01*
G01*
X146425000Y-112250000D01*
G75*
G02*
X146350000Y-112325000I-75000J0D01*
G01*
X145025000Y-112325000D01*
G75*
G02*
X144950000Y-112250000I0J75000D01*
G01*
X144950000Y-112100000D01*
G75*
G02*
X145025000Y-112025000I75000J0D01*
G01*
G37*
G36*
G01*
X145025000Y-112525000D02*
X146350000Y-112525000D01*
G75*
G02*
X146425000Y-112600000I0J-75000D01*
G01*
X146425000Y-112750000D01*
G75*
G02*
X146350000Y-112825000I-75000J0D01*
G01*
X145025000Y-112825000D01*
G75*
G02*
X144950000Y-112750000I0J75000D01*
G01*
X144950000Y-112600000D01*
G75*
G02*
X145025000Y-112525000I75000J0D01*
G01*
G37*
G36*
G01*
X145025000Y-113025000D02*
X146350000Y-113025000D01*
G75*
G02*
X146425000Y-113100000I0J-75000D01*
G01*
X146425000Y-113250000D01*
G75*
G02*
X146350000Y-113325000I-75000J0D01*
G01*
X145025000Y-113325000D01*
G75*
G02*
X144950000Y-113250000I0J75000D01*
G01*
X144950000Y-113100000D01*
G75*
G02*
X145025000Y-113025000I75000J0D01*
G01*
G37*
G36*
G01*
X145025000Y-113525000D02*
X146350000Y-113525000D01*
G75*
G02*
X146425000Y-113600000I0J-75000D01*
G01*
X146425000Y-113750000D01*
G75*
G02*
X146350000Y-113825000I-75000J0D01*
G01*
X145025000Y-113825000D01*
G75*
G02*
X144950000Y-113750000I0J75000D01*
G01*
X144950000Y-113600000D01*
G75*
G02*
X145025000Y-113525000I75000J0D01*
G01*
G37*
G36*
G01*
X145025000Y-114025000D02*
X146350000Y-114025000D01*
G75*
G02*
X146425000Y-114100000I0J-75000D01*
G01*
X146425000Y-114250000D01*
G75*
G02*
X146350000Y-114325000I-75000J0D01*
G01*
X145025000Y-114325000D01*
G75*
G02*
X144950000Y-114250000I0J75000D01*
G01*
X144950000Y-114100000D01*
G75*
G02*
X145025000Y-114025000I75000J0D01*
G01*
G37*
G36*
G01*
X145025000Y-114525000D02*
X146350000Y-114525000D01*
G75*
G02*
X146425000Y-114600000I0J-75000D01*
G01*
X146425000Y-114750000D01*
G75*
G02*
X146350000Y-114825000I-75000J0D01*
G01*
X145025000Y-114825000D01*
G75*
G02*
X144950000Y-114750000I0J75000D01*
G01*
X144950000Y-114600000D01*
G75*
G02*
X145025000Y-114525000I75000J0D01*
G01*
G37*
G36*
G01*
X145025000Y-115025000D02*
X146350000Y-115025000D01*
G75*
G02*
X146425000Y-115100000I0J-75000D01*
G01*
X146425000Y-115250000D01*
G75*
G02*
X146350000Y-115325000I-75000J0D01*
G01*
X145025000Y-115325000D01*
G75*
G02*
X144950000Y-115250000I0J75000D01*
G01*
X144950000Y-115100000D01*
G75*
G02*
X145025000Y-115025000I75000J0D01*
G01*
G37*
G36*
G01*
X145025000Y-115525000D02*
X146350000Y-115525000D01*
G75*
G02*
X146425000Y-115600000I0J-75000D01*
G01*
X146425000Y-115750000D01*
G75*
G02*
X146350000Y-115825000I-75000J0D01*
G01*
X145025000Y-115825000D01*
G75*
G02*
X144950000Y-115750000I0J75000D01*
G01*
X144950000Y-115600000D01*
G75*
G02*
X145025000Y-115525000I75000J0D01*
G01*
G37*
G36*
G01*
X145025000Y-116025000D02*
X146350000Y-116025000D01*
G75*
G02*
X146425000Y-116100000I0J-75000D01*
G01*
X146425000Y-116250000D01*
G75*
G02*
X146350000Y-116325000I-75000J0D01*
G01*
X145025000Y-116325000D01*
G75*
G02*
X144950000Y-116250000I0J75000D01*
G01*
X144950000Y-116100000D01*
G75*
G02*
X145025000Y-116025000I75000J0D01*
G01*
G37*
G36*
G01*
X145025000Y-116525000D02*
X146350000Y-116525000D01*
G75*
G02*
X146425000Y-116600000I0J-75000D01*
G01*
X146425000Y-116750000D01*
G75*
G02*
X146350000Y-116825000I-75000J0D01*
G01*
X145025000Y-116825000D01*
G75*
G02*
X144950000Y-116750000I0J75000D01*
G01*
X144950000Y-116600000D01*
G75*
G02*
X145025000Y-116525000I75000J0D01*
G01*
G37*
G36*
G01*
X145025000Y-117025000D02*
X146350000Y-117025000D01*
G75*
G02*
X146425000Y-117100000I0J-75000D01*
G01*
X146425000Y-117250000D01*
G75*
G02*
X146350000Y-117325000I-75000J0D01*
G01*
X145025000Y-117325000D01*
G75*
G02*
X144950000Y-117250000I0J75000D01*
G01*
X144950000Y-117100000D01*
G75*
G02*
X145025000Y-117025000I75000J0D01*
G01*
G37*
G36*
G01*
X145025000Y-117525000D02*
X146350000Y-117525000D01*
G75*
G02*
X146425000Y-117600000I0J-75000D01*
G01*
X146425000Y-117750000D01*
G75*
G02*
X146350000Y-117825000I-75000J0D01*
G01*
X145025000Y-117825000D01*
G75*
G02*
X144950000Y-117750000I0J75000D01*
G01*
X144950000Y-117600000D01*
G75*
G02*
X145025000Y-117525000I75000J0D01*
G01*
G37*
G36*
G01*
X145025000Y-118025000D02*
X146350000Y-118025000D01*
G75*
G02*
X146425000Y-118100000I0J-75000D01*
G01*
X146425000Y-118250000D01*
G75*
G02*
X146350000Y-118325000I-75000J0D01*
G01*
X145025000Y-118325000D01*
G75*
G02*
X144950000Y-118250000I0J75000D01*
G01*
X144950000Y-118100000D01*
G75*
G02*
X145025000Y-118025000I75000J0D01*
G01*
G37*
G36*
G01*
X145025000Y-118525000D02*
X146350000Y-118525000D01*
G75*
G02*
X146425000Y-118600000I0J-75000D01*
G01*
X146425000Y-118750000D01*
G75*
G02*
X146350000Y-118825000I-75000J0D01*
G01*
X145025000Y-118825000D01*
G75*
G02*
X144950000Y-118750000I0J75000D01*
G01*
X144950000Y-118600000D01*
G75*
G02*
X145025000Y-118525000I75000J0D01*
G01*
G37*
G36*
G01*
X145025000Y-119025000D02*
X146350000Y-119025000D01*
G75*
G02*
X146425000Y-119100000I0J-75000D01*
G01*
X146425000Y-119250000D01*
G75*
G02*
X146350000Y-119325000I-75000J0D01*
G01*
X145025000Y-119325000D01*
G75*
G02*
X144950000Y-119250000I0J75000D01*
G01*
X144950000Y-119100000D01*
G75*
G02*
X145025000Y-119025000I75000J0D01*
G01*
G37*
G36*
G01*
X145025000Y-119525000D02*
X146350000Y-119525000D01*
G75*
G02*
X146425000Y-119600000I0J-75000D01*
G01*
X146425000Y-119750000D01*
G75*
G02*
X146350000Y-119825000I-75000J0D01*
G01*
X145025000Y-119825000D01*
G75*
G02*
X144950000Y-119750000I0J75000D01*
G01*
X144950000Y-119600000D01*
G75*
G02*
X145025000Y-119525000I75000J0D01*
G01*
G37*
G36*
G01*
X145025000Y-120025000D02*
X146350000Y-120025000D01*
G75*
G02*
X146425000Y-120100000I0J-75000D01*
G01*
X146425000Y-120250000D01*
G75*
G02*
X146350000Y-120325000I-75000J0D01*
G01*
X145025000Y-120325000D01*
G75*
G02*
X144950000Y-120250000I0J75000D01*
G01*
X144950000Y-120100000D01*
G75*
G02*
X145025000Y-120025000I75000J0D01*
G01*
G37*
G36*
G01*
X145025000Y-120525000D02*
X146350000Y-120525000D01*
G75*
G02*
X146425000Y-120600000I0J-75000D01*
G01*
X146425000Y-120750000D01*
G75*
G02*
X146350000Y-120825000I-75000J0D01*
G01*
X145025000Y-120825000D01*
G75*
G02*
X144950000Y-120750000I0J75000D01*
G01*
X144950000Y-120600000D01*
G75*
G02*
X145025000Y-120525000I75000J0D01*
G01*
G37*
G36*
G01*
X145025000Y-121025000D02*
X146350000Y-121025000D01*
G75*
G02*
X146425000Y-121100000I0J-75000D01*
G01*
X146425000Y-121250000D01*
G75*
G02*
X146350000Y-121325000I-75000J0D01*
G01*
X145025000Y-121325000D01*
G75*
G02*
X144950000Y-121250000I0J75000D01*
G01*
X144950000Y-121100000D01*
G75*
G02*
X145025000Y-121025000I75000J0D01*
G01*
G37*
G36*
G01*
X145025000Y-121525000D02*
X146350000Y-121525000D01*
G75*
G02*
X146425000Y-121600000I0J-75000D01*
G01*
X146425000Y-121750000D01*
G75*
G02*
X146350000Y-121825000I-75000J0D01*
G01*
X145025000Y-121825000D01*
G75*
G02*
X144950000Y-121750000I0J75000D01*
G01*
X144950000Y-121600000D01*
G75*
G02*
X145025000Y-121525000I75000J0D01*
G01*
G37*
G36*
G01*
X145025000Y-122025000D02*
X146350000Y-122025000D01*
G75*
G02*
X146425000Y-122100000I0J-75000D01*
G01*
X146425000Y-122250000D01*
G75*
G02*
X146350000Y-122325000I-75000J0D01*
G01*
X145025000Y-122325000D01*
G75*
G02*
X144950000Y-122250000I0J75000D01*
G01*
X144950000Y-122100000D01*
G75*
G02*
X145025000Y-122025000I75000J0D01*
G01*
G37*
G36*
G01*
X145025000Y-122525000D02*
X146350000Y-122525000D01*
G75*
G02*
X146425000Y-122600000I0J-75000D01*
G01*
X146425000Y-122750000D01*
G75*
G02*
X146350000Y-122825000I-75000J0D01*
G01*
X145025000Y-122825000D01*
G75*
G02*
X144950000Y-122750000I0J75000D01*
G01*
X144950000Y-122600000D01*
G75*
G02*
X145025000Y-122525000I75000J0D01*
G01*
G37*
G36*
G01*
X145025000Y-123025000D02*
X146350000Y-123025000D01*
G75*
G02*
X146425000Y-123100000I0J-75000D01*
G01*
X146425000Y-123250000D01*
G75*
G02*
X146350000Y-123325000I-75000J0D01*
G01*
X145025000Y-123325000D01*
G75*
G02*
X144950000Y-123250000I0J75000D01*
G01*
X144950000Y-123100000D01*
G75*
G02*
X145025000Y-123025000I75000J0D01*
G01*
G37*
G36*
G01*
X145025000Y-123525000D02*
X146350000Y-123525000D01*
G75*
G02*
X146425000Y-123600000I0J-75000D01*
G01*
X146425000Y-123750000D01*
G75*
G02*
X146350000Y-123825000I-75000J0D01*
G01*
X145025000Y-123825000D01*
G75*
G02*
X144950000Y-123750000I0J75000D01*
G01*
X144950000Y-123600000D01*
G75*
G02*
X145025000Y-123525000I75000J0D01*
G01*
G37*
G36*
G01*
X145025000Y-124025000D02*
X146350000Y-124025000D01*
G75*
G02*
X146425000Y-124100000I0J-75000D01*
G01*
X146425000Y-124250000D01*
G75*
G02*
X146350000Y-124325000I-75000J0D01*
G01*
X145025000Y-124325000D01*
G75*
G02*
X144950000Y-124250000I0J75000D01*
G01*
X144950000Y-124100000D01*
G75*
G02*
X145025000Y-124025000I75000J0D01*
G01*
G37*
G36*
G01*
X145025000Y-124525000D02*
X146350000Y-124525000D01*
G75*
G02*
X146425000Y-124600000I0J-75000D01*
G01*
X146425000Y-124750000D01*
G75*
G02*
X146350000Y-124825000I-75000J0D01*
G01*
X145025000Y-124825000D01*
G75*
G02*
X144950000Y-124750000I0J75000D01*
G01*
X144950000Y-124600000D01*
G75*
G02*
X145025000Y-124525000I75000J0D01*
G01*
G37*
G36*
G01*
X145025000Y-125025000D02*
X146350000Y-125025000D01*
G75*
G02*
X146425000Y-125100000I0J-75000D01*
G01*
X146425000Y-125250000D01*
G75*
G02*
X146350000Y-125325000I-75000J0D01*
G01*
X145025000Y-125325000D01*
G75*
G02*
X144950000Y-125250000I0J75000D01*
G01*
X144950000Y-125100000D01*
G75*
G02*
X145025000Y-125025000I75000J0D01*
G01*
G37*
G36*
G01*
X145025000Y-125525000D02*
X146350000Y-125525000D01*
G75*
G02*
X146425000Y-125600000I0J-75000D01*
G01*
X146425000Y-125750000D01*
G75*
G02*
X146350000Y-125825000I-75000J0D01*
G01*
X145025000Y-125825000D01*
G75*
G02*
X144950000Y-125750000I0J75000D01*
G01*
X144950000Y-125600000D01*
G75*
G02*
X145025000Y-125525000I75000J0D01*
G01*
G37*
G36*
G01*
X145025000Y-126025000D02*
X146350000Y-126025000D01*
G75*
G02*
X146425000Y-126100000I0J-75000D01*
G01*
X146425000Y-126250000D01*
G75*
G02*
X146350000Y-126325000I-75000J0D01*
G01*
X145025000Y-126325000D01*
G75*
G02*
X144950000Y-126250000I0J75000D01*
G01*
X144950000Y-126100000D01*
G75*
G02*
X145025000Y-126025000I75000J0D01*
G01*
G37*
G36*
G01*
X145025000Y-126525000D02*
X146350000Y-126525000D01*
G75*
G02*
X146425000Y-126600000I0J-75000D01*
G01*
X146425000Y-126750000D01*
G75*
G02*
X146350000Y-126825000I-75000J0D01*
G01*
X145025000Y-126825000D01*
G75*
G02*
X144950000Y-126750000I0J75000D01*
G01*
X144950000Y-126600000D01*
G75*
G02*
X145025000Y-126525000I75000J0D01*
G01*
G37*
G36*
G01*
X143700000Y-127850000D02*
X143850000Y-127850000D01*
G75*
G02*
X143925000Y-127925000I0J-75000D01*
G01*
X143925000Y-129250000D01*
G75*
G02*
X143850000Y-129325000I-75000J0D01*
G01*
X143700000Y-129325000D01*
G75*
G02*
X143625000Y-129250000I0J75000D01*
G01*
X143625000Y-127925000D01*
G75*
G02*
X143700000Y-127850000I75000J0D01*
G01*
G37*
G36*
G01*
X143200000Y-127850000D02*
X143350000Y-127850000D01*
G75*
G02*
X143425000Y-127925000I0J-75000D01*
G01*
X143425000Y-129250000D01*
G75*
G02*
X143350000Y-129325000I-75000J0D01*
G01*
X143200000Y-129325000D01*
G75*
G02*
X143125000Y-129250000I0J75000D01*
G01*
X143125000Y-127925000D01*
G75*
G02*
X143200000Y-127850000I75000J0D01*
G01*
G37*
G36*
G01*
X142700000Y-127850000D02*
X142850000Y-127850000D01*
G75*
G02*
X142925000Y-127925000I0J-75000D01*
G01*
X142925000Y-129250000D01*
G75*
G02*
X142850000Y-129325000I-75000J0D01*
G01*
X142700000Y-129325000D01*
G75*
G02*
X142625000Y-129250000I0J75000D01*
G01*
X142625000Y-127925000D01*
G75*
G02*
X142700000Y-127850000I75000J0D01*
G01*
G37*
G36*
G01*
X142200000Y-127850000D02*
X142350000Y-127850000D01*
G75*
G02*
X142425000Y-127925000I0J-75000D01*
G01*
X142425000Y-129250000D01*
G75*
G02*
X142350000Y-129325000I-75000J0D01*
G01*
X142200000Y-129325000D01*
G75*
G02*
X142125000Y-129250000I0J75000D01*
G01*
X142125000Y-127925000D01*
G75*
G02*
X142200000Y-127850000I75000J0D01*
G01*
G37*
G36*
G01*
X141700000Y-127850000D02*
X141850000Y-127850000D01*
G75*
G02*
X141925000Y-127925000I0J-75000D01*
G01*
X141925000Y-129250000D01*
G75*
G02*
X141850000Y-129325000I-75000J0D01*
G01*
X141700000Y-129325000D01*
G75*
G02*
X141625000Y-129250000I0J75000D01*
G01*
X141625000Y-127925000D01*
G75*
G02*
X141700000Y-127850000I75000J0D01*
G01*
G37*
G36*
G01*
X141200000Y-127850000D02*
X141350000Y-127850000D01*
G75*
G02*
X141425000Y-127925000I0J-75000D01*
G01*
X141425000Y-129250000D01*
G75*
G02*
X141350000Y-129325000I-75000J0D01*
G01*
X141200000Y-129325000D01*
G75*
G02*
X141125000Y-129250000I0J75000D01*
G01*
X141125000Y-127925000D01*
G75*
G02*
X141200000Y-127850000I75000J0D01*
G01*
G37*
G36*
G01*
X140700000Y-127850000D02*
X140850000Y-127850000D01*
G75*
G02*
X140925000Y-127925000I0J-75000D01*
G01*
X140925000Y-129250000D01*
G75*
G02*
X140850000Y-129325000I-75000J0D01*
G01*
X140700000Y-129325000D01*
G75*
G02*
X140625000Y-129250000I0J75000D01*
G01*
X140625000Y-127925000D01*
G75*
G02*
X140700000Y-127850000I75000J0D01*
G01*
G37*
G36*
G01*
X140200000Y-127850000D02*
X140350000Y-127850000D01*
G75*
G02*
X140425000Y-127925000I0J-75000D01*
G01*
X140425000Y-129250000D01*
G75*
G02*
X140350000Y-129325000I-75000J0D01*
G01*
X140200000Y-129325000D01*
G75*
G02*
X140125000Y-129250000I0J75000D01*
G01*
X140125000Y-127925000D01*
G75*
G02*
X140200000Y-127850000I75000J0D01*
G01*
G37*
G36*
G01*
X139700000Y-127850000D02*
X139850000Y-127850000D01*
G75*
G02*
X139925000Y-127925000I0J-75000D01*
G01*
X139925000Y-129250000D01*
G75*
G02*
X139850000Y-129325000I-75000J0D01*
G01*
X139700000Y-129325000D01*
G75*
G02*
X139625000Y-129250000I0J75000D01*
G01*
X139625000Y-127925000D01*
G75*
G02*
X139700000Y-127850000I75000J0D01*
G01*
G37*
G36*
G01*
X139200000Y-127850000D02*
X139350000Y-127850000D01*
G75*
G02*
X139425000Y-127925000I0J-75000D01*
G01*
X139425000Y-129250000D01*
G75*
G02*
X139350000Y-129325000I-75000J0D01*
G01*
X139200000Y-129325000D01*
G75*
G02*
X139125000Y-129250000I0J75000D01*
G01*
X139125000Y-127925000D01*
G75*
G02*
X139200000Y-127850000I75000J0D01*
G01*
G37*
G36*
G01*
X138700000Y-127850000D02*
X138850000Y-127850000D01*
G75*
G02*
X138925000Y-127925000I0J-75000D01*
G01*
X138925000Y-129250000D01*
G75*
G02*
X138850000Y-129325000I-75000J0D01*
G01*
X138700000Y-129325000D01*
G75*
G02*
X138625000Y-129250000I0J75000D01*
G01*
X138625000Y-127925000D01*
G75*
G02*
X138700000Y-127850000I75000J0D01*
G01*
G37*
G36*
G01*
X138200000Y-127850000D02*
X138350000Y-127850000D01*
G75*
G02*
X138425000Y-127925000I0J-75000D01*
G01*
X138425000Y-129250000D01*
G75*
G02*
X138350000Y-129325000I-75000J0D01*
G01*
X138200000Y-129325000D01*
G75*
G02*
X138125000Y-129250000I0J75000D01*
G01*
X138125000Y-127925000D01*
G75*
G02*
X138200000Y-127850000I75000J0D01*
G01*
G37*
G36*
G01*
X137700000Y-127850000D02*
X137850000Y-127850000D01*
G75*
G02*
X137925000Y-127925000I0J-75000D01*
G01*
X137925000Y-129250000D01*
G75*
G02*
X137850000Y-129325000I-75000J0D01*
G01*
X137700000Y-129325000D01*
G75*
G02*
X137625000Y-129250000I0J75000D01*
G01*
X137625000Y-127925000D01*
G75*
G02*
X137700000Y-127850000I75000J0D01*
G01*
G37*
G36*
G01*
X137200000Y-127850000D02*
X137350000Y-127850000D01*
G75*
G02*
X137425000Y-127925000I0J-75000D01*
G01*
X137425000Y-129250000D01*
G75*
G02*
X137350000Y-129325000I-75000J0D01*
G01*
X137200000Y-129325000D01*
G75*
G02*
X137125000Y-129250000I0J75000D01*
G01*
X137125000Y-127925000D01*
G75*
G02*
X137200000Y-127850000I75000J0D01*
G01*
G37*
G36*
G01*
X136700000Y-127850000D02*
X136850000Y-127850000D01*
G75*
G02*
X136925000Y-127925000I0J-75000D01*
G01*
X136925000Y-129250000D01*
G75*
G02*
X136850000Y-129325000I-75000J0D01*
G01*
X136700000Y-129325000D01*
G75*
G02*
X136625000Y-129250000I0J75000D01*
G01*
X136625000Y-127925000D01*
G75*
G02*
X136700000Y-127850000I75000J0D01*
G01*
G37*
G36*
G01*
X136200000Y-127850000D02*
X136350000Y-127850000D01*
G75*
G02*
X136425000Y-127925000I0J-75000D01*
G01*
X136425000Y-129250000D01*
G75*
G02*
X136350000Y-129325000I-75000J0D01*
G01*
X136200000Y-129325000D01*
G75*
G02*
X136125000Y-129250000I0J75000D01*
G01*
X136125000Y-127925000D01*
G75*
G02*
X136200000Y-127850000I75000J0D01*
G01*
G37*
G36*
G01*
X135700000Y-127850000D02*
X135850000Y-127850000D01*
G75*
G02*
X135925000Y-127925000I0J-75000D01*
G01*
X135925000Y-129250000D01*
G75*
G02*
X135850000Y-129325000I-75000J0D01*
G01*
X135700000Y-129325000D01*
G75*
G02*
X135625000Y-129250000I0J75000D01*
G01*
X135625000Y-127925000D01*
G75*
G02*
X135700000Y-127850000I75000J0D01*
G01*
G37*
G36*
G01*
X135200000Y-127850000D02*
X135350000Y-127850000D01*
G75*
G02*
X135425000Y-127925000I0J-75000D01*
G01*
X135425000Y-129250000D01*
G75*
G02*
X135350000Y-129325000I-75000J0D01*
G01*
X135200000Y-129325000D01*
G75*
G02*
X135125000Y-129250000I0J75000D01*
G01*
X135125000Y-127925000D01*
G75*
G02*
X135200000Y-127850000I75000J0D01*
G01*
G37*
G36*
G01*
X134700000Y-127850000D02*
X134850000Y-127850000D01*
G75*
G02*
X134925000Y-127925000I0J-75000D01*
G01*
X134925000Y-129250000D01*
G75*
G02*
X134850000Y-129325000I-75000J0D01*
G01*
X134700000Y-129325000D01*
G75*
G02*
X134625000Y-129250000I0J75000D01*
G01*
X134625000Y-127925000D01*
G75*
G02*
X134700000Y-127850000I75000J0D01*
G01*
G37*
G36*
G01*
X134200000Y-127850000D02*
X134350000Y-127850000D01*
G75*
G02*
X134425000Y-127925000I0J-75000D01*
G01*
X134425000Y-129250000D01*
G75*
G02*
X134350000Y-129325000I-75000J0D01*
G01*
X134200000Y-129325000D01*
G75*
G02*
X134125000Y-129250000I0J75000D01*
G01*
X134125000Y-127925000D01*
G75*
G02*
X134200000Y-127850000I75000J0D01*
G01*
G37*
G36*
G01*
X133700000Y-127850000D02*
X133850000Y-127850000D01*
G75*
G02*
X133925000Y-127925000I0J-75000D01*
G01*
X133925000Y-129250000D01*
G75*
G02*
X133850000Y-129325000I-75000J0D01*
G01*
X133700000Y-129325000D01*
G75*
G02*
X133625000Y-129250000I0J75000D01*
G01*
X133625000Y-127925000D01*
G75*
G02*
X133700000Y-127850000I75000J0D01*
G01*
G37*
G36*
G01*
X133200000Y-127850000D02*
X133350000Y-127850000D01*
G75*
G02*
X133425000Y-127925000I0J-75000D01*
G01*
X133425000Y-129250000D01*
G75*
G02*
X133350000Y-129325000I-75000J0D01*
G01*
X133200000Y-129325000D01*
G75*
G02*
X133125000Y-129250000I0J75000D01*
G01*
X133125000Y-127925000D01*
G75*
G02*
X133200000Y-127850000I75000J0D01*
G01*
G37*
G36*
G01*
X132700000Y-127850000D02*
X132850000Y-127850000D01*
G75*
G02*
X132925000Y-127925000I0J-75000D01*
G01*
X132925000Y-129250000D01*
G75*
G02*
X132850000Y-129325000I-75000J0D01*
G01*
X132700000Y-129325000D01*
G75*
G02*
X132625000Y-129250000I0J75000D01*
G01*
X132625000Y-127925000D01*
G75*
G02*
X132700000Y-127850000I75000J0D01*
G01*
G37*
G36*
G01*
X132200000Y-127850000D02*
X132350000Y-127850000D01*
G75*
G02*
X132425000Y-127925000I0J-75000D01*
G01*
X132425000Y-129250000D01*
G75*
G02*
X132350000Y-129325000I-75000J0D01*
G01*
X132200000Y-129325000D01*
G75*
G02*
X132125000Y-129250000I0J75000D01*
G01*
X132125000Y-127925000D01*
G75*
G02*
X132200000Y-127850000I75000J0D01*
G01*
G37*
G36*
G01*
X131700000Y-127850000D02*
X131850000Y-127850000D01*
G75*
G02*
X131925000Y-127925000I0J-75000D01*
G01*
X131925000Y-129250000D01*
G75*
G02*
X131850000Y-129325000I-75000J0D01*
G01*
X131700000Y-129325000D01*
G75*
G02*
X131625000Y-129250000I0J75000D01*
G01*
X131625000Y-127925000D01*
G75*
G02*
X131700000Y-127850000I75000J0D01*
G01*
G37*
G36*
G01*
X131200000Y-127850000D02*
X131350000Y-127850000D01*
G75*
G02*
X131425000Y-127925000I0J-75000D01*
G01*
X131425000Y-129250000D01*
G75*
G02*
X131350000Y-129325000I-75000J0D01*
G01*
X131200000Y-129325000D01*
G75*
G02*
X131125000Y-129250000I0J75000D01*
G01*
X131125000Y-127925000D01*
G75*
G02*
X131200000Y-127850000I75000J0D01*
G01*
G37*
G36*
G01*
X130700000Y-127850000D02*
X130850000Y-127850000D01*
G75*
G02*
X130925000Y-127925000I0J-75000D01*
G01*
X130925000Y-129250000D01*
G75*
G02*
X130850000Y-129325000I-75000J0D01*
G01*
X130700000Y-129325000D01*
G75*
G02*
X130625000Y-129250000I0J75000D01*
G01*
X130625000Y-127925000D01*
G75*
G02*
X130700000Y-127850000I75000J0D01*
G01*
G37*
G36*
G01*
X130200000Y-127850000D02*
X130350000Y-127850000D01*
G75*
G02*
X130425000Y-127925000I0J-75000D01*
G01*
X130425000Y-129250000D01*
G75*
G02*
X130350000Y-129325000I-75000J0D01*
G01*
X130200000Y-129325000D01*
G75*
G02*
X130125000Y-129250000I0J75000D01*
G01*
X130125000Y-127925000D01*
G75*
G02*
X130200000Y-127850000I75000J0D01*
G01*
G37*
G36*
G01*
X129700000Y-127850000D02*
X129850000Y-127850000D01*
G75*
G02*
X129925000Y-127925000I0J-75000D01*
G01*
X129925000Y-129250000D01*
G75*
G02*
X129850000Y-129325000I-75000J0D01*
G01*
X129700000Y-129325000D01*
G75*
G02*
X129625000Y-129250000I0J75000D01*
G01*
X129625000Y-127925000D01*
G75*
G02*
X129700000Y-127850000I75000J0D01*
G01*
G37*
G36*
G01*
X129200000Y-127850000D02*
X129350000Y-127850000D01*
G75*
G02*
X129425000Y-127925000I0J-75000D01*
G01*
X129425000Y-129250000D01*
G75*
G02*
X129350000Y-129325000I-75000J0D01*
G01*
X129200000Y-129325000D01*
G75*
G02*
X129125000Y-129250000I0J75000D01*
G01*
X129125000Y-127925000D01*
G75*
G02*
X129200000Y-127850000I75000J0D01*
G01*
G37*
G36*
G01*
X128700000Y-127850000D02*
X128850000Y-127850000D01*
G75*
G02*
X128925000Y-127925000I0J-75000D01*
G01*
X128925000Y-129250000D01*
G75*
G02*
X128850000Y-129325000I-75000J0D01*
G01*
X128700000Y-129325000D01*
G75*
G02*
X128625000Y-129250000I0J75000D01*
G01*
X128625000Y-127925000D01*
G75*
G02*
X128700000Y-127850000I75000J0D01*
G01*
G37*
G36*
G01*
X128200000Y-127850000D02*
X128350000Y-127850000D01*
G75*
G02*
X128425000Y-127925000I0J-75000D01*
G01*
X128425000Y-129250000D01*
G75*
G02*
X128350000Y-129325000I-75000J0D01*
G01*
X128200000Y-129325000D01*
G75*
G02*
X128125000Y-129250000I0J75000D01*
G01*
X128125000Y-127925000D01*
G75*
G02*
X128200000Y-127850000I75000J0D01*
G01*
G37*
G36*
G01*
X127700000Y-127850000D02*
X127850000Y-127850000D01*
G75*
G02*
X127925000Y-127925000I0J-75000D01*
G01*
X127925000Y-129250000D01*
G75*
G02*
X127850000Y-129325000I-75000J0D01*
G01*
X127700000Y-129325000D01*
G75*
G02*
X127625000Y-129250000I0J75000D01*
G01*
X127625000Y-127925000D01*
G75*
G02*
X127700000Y-127850000I75000J0D01*
G01*
G37*
G36*
G01*
X127200000Y-127850000D02*
X127350000Y-127850000D01*
G75*
G02*
X127425000Y-127925000I0J-75000D01*
G01*
X127425000Y-129250000D01*
G75*
G02*
X127350000Y-129325000I-75000J0D01*
G01*
X127200000Y-129325000D01*
G75*
G02*
X127125000Y-129250000I0J75000D01*
G01*
X127125000Y-127925000D01*
G75*
G02*
X127200000Y-127850000I75000J0D01*
G01*
G37*
G36*
G01*
X126700000Y-127850000D02*
X126850000Y-127850000D01*
G75*
G02*
X126925000Y-127925000I0J-75000D01*
G01*
X126925000Y-129250000D01*
G75*
G02*
X126850000Y-129325000I-75000J0D01*
G01*
X126700000Y-129325000D01*
G75*
G02*
X126625000Y-129250000I0J75000D01*
G01*
X126625000Y-127925000D01*
G75*
G02*
X126700000Y-127850000I75000J0D01*
G01*
G37*
G36*
G01*
X126200000Y-127850000D02*
X126350000Y-127850000D01*
G75*
G02*
X126425000Y-127925000I0J-75000D01*
G01*
X126425000Y-129250000D01*
G75*
G02*
X126350000Y-129325000I-75000J0D01*
G01*
X126200000Y-129325000D01*
G75*
G02*
X126125000Y-129250000I0J75000D01*
G01*
X126125000Y-127925000D01*
G75*
G02*
X126200000Y-127850000I75000J0D01*
G01*
G37*
G36*
G01*
X123700000Y-126525000D02*
X125025000Y-126525000D01*
G75*
G02*
X125100000Y-126600000I0J-75000D01*
G01*
X125100000Y-126750000D01*
G75*
G02*
X125025000Y-126825000I-75000J0D01*
G01*
X123700000Y-126825000D01*
G75*
G02*
X123625000Y-126750000I0J75000D01*
G01*
X123625000Y-126600000D01*
G75*
G02*
X123700000Y-126525000I75000J0D01*
G01*
G37*
G36*
G01*
X123700000Y-126025000D02*
X125025000Y-126025000D01*
G75*
G02*
X125100000Y-126100000I0J-75000D01*
G01*
X125100000Y-126250000D01*
G75*
G02*
X125025000Y-126325000I-75000J0D01*
G01*
X123700000Y-126325000D01*
G75*
G02*
X123625000Y-126250000I0J75000D01*
G01*
X123625000Y-126100000D01*
G75*
G02*
X123700000Y-126025000I75000J0D01*
G01*
G37*
G36*
G01*
X123700000Y-125525000D02*
X125025000Y-125525000D01*
G75*
G02*
X125100000Y-125600000I0J-75000D01*
G01*
X125100000Y-125750000D01*
G75*
G02*
X125025000Y-125825000I-75000J0D01*
G01*
X123700000Y-125825000D01*
G75*
G02*
X123625000Y-125750000I0J75000D01*
G01*
X123625000Y-125600000D01*
G75*
G02*
X123700000Y-125525000I75000J0D01*
G01*
G37*
G36*
G01*
X123700000Y-125025000D02*
X125025000Y-125025000D01*
G75*
G02*
X125100000Y-125100000I0J-75000D01*
G01*
X125100000Y-125250000D01*
G75*
G02*
X125025000Y-125325000I-75000J0D01*
G01*
X123700000Y-125325000D01*
G75*
G02*
X123625000Y-125250000I0J75000D01*
G01*
X123625000Y-125100000D01*
G75*
G02*
X123700000Y-125025000I75000J0D01*
G01*
G37*
G36*
G01*
X123700000Y-124525000D02*
X125025000Y-124525000D01*
G75*
G02*
X125100000Y-124600000I0J-75000D01*
G01*
X125100000Y-124750000D01*
G75*
G02*
X125025000Y-124825000I-75000J0D01*
G01*
X123700000Y-124825000D01*
G75*
G02*
X123625000Y-124750000I0J75000D01*
G01*
X123625000Y-124600000D01*
G75*
G02*
X123700000Y-124525000I75000J0D01*
G01*
G37*
G36*
G01*
X123700000Y-124025000D02*
X125025000Y-124025000D01*
G75*
G02*
X125100000Y-124100000I0J-75000D01*
G01*
X125100000Y-124250000D01*
G75*
G02*
X125025000Y-124325000I-75000J0D01*
G01*
X123700000Y-124325000D01*
G75*
G02*
X123625000Y-124250000I0J75000D01*
G01*
X123625000Y-124100000D01*
G75*
G02*
X123700000Y-124025000I75000J0D01*
G01*
G37*
G36*
G01*
X123700000Y-123525000D02*
X125025000Y-123525000D01*
G75*
G02*
X125100000Y-123600000I0J-75000D01*
G01*
X125100000Y-123750000D01*
G75*
G02*
X125025000Y-123825000I-75000J0D01*
G01*
X123700000Y-123825000D01*
G75*
G02*
X123625000Y-123750000I0J75000D01*
G01*
X123625000Y-123600000D01*
G75*
G02*
X123700000Y-123525000I75000J0D01*
G01*
G37*
G36*
G01*
X123700000Y-123025000D02*
X125025000Y-123025000D01*
G75*
G02*
X125100000Y-123100000I0J-75000D01*
G01*
X125100000Y-123250000D01*
G75*
G02*
X125025000Y-123325000I-75000J0D01*
G01*
X123700000Y-123325000D01*
G75*
G02*
X123625000Y-123250000I0J75000D01*
G01*
X123625000Y-123100000D01*
G75*
G02*
X123700000Y-123025000I75000J0D01*
G01*
G37*
G36*
G01*
X123700000Y-122525000D02*
X125025000Y-122525000D01*
G75*
G02*
X125100000Y-122600000I0J-75000D01*
G01*
X125100000Y-122750000D01*
G75*
G02*
X125025000Y-122825000I-75000J0D01*
G01*
X123700000Y-122825000D01*
G75*
G02*
X123625000Y-122750000I0J75000D01*
G01*
X123625000Y-122600000D01*
G75*
G02*
X123700000Y-122525000I75000J0D01*
G01*
G37*
G36*
G01*
X123700000Y-122025000D02*
X125025000Y-122025000D01*
G75*
G02*
X125100000Y-122100000I0J-75000D01*
G01*
X125100000Y-122250000D01*
G75*
G02*
X125025000Y-122325000I-75000J0D01*
G01*
X123700000Y-122325000D01*
G75*
G02*
X123625000Y-122250000I0J75000D01*
G01*
X123625000Y-122100000D01*
G75*
G02*
X123700000Y-122025000I75000J0D01*
G01*
G37*
G36*
G01*
X123700000Y-121525000D02*
X125025000Y-121525000D01*
G75*
G02*
X125100000Y-121600000I0J-75000D01*
G01*
X125100000Y-121750000D01*
G75*
G02*
X125025000Y-121825000I-75000J0D01*
G01*
X123700000Y-121825000D01*
G75*
G02*
X123625000Y-121750000I0J75000D01*
G01*
X123625000Y-121600000D01*
G75*
G02*
X123700000Y-121525000I75000J0D01*
G01*
G37*
G36*
G01*
X123700000Y-121025000D02*
X125025000Y-121025000D01*
G75*
G02*
X125100000Y-121100000I0J-75000D01*
G01*
X125100000Y-121250000D01*
G75*
G02*
X125025000Y-121325000I-75000J0D01*
G01*
X123700000Y-121325000D01*
G75*
G02*
X123625000Y-121250000I0J75000D01*
G01*
X123625000Y-121100000D01*
G75*
G02*
X123700000Y-121025000I75000J0D01*
G01*
G37*
G36*
G01*
X123700000Y-120525000D02*
X125025000Y-120525000D01*
G75*
G02*
X125100000Y-120600000I0J-75000D01*
G01*
X125100000Y-120750000D01*
G75*
G02*
X125025000Y-120825000I-75000J0D01*
G01*
X123700000Y-120825000D01*
G75*
G02*
X123625000Y-120750000I0J75000D01*
G01*
X123625000Y-120600000D01*
G75*
G02*
X123700000Y-120525000I75000J0D01*
G01*
G37*
G36*
G01*
X123700000Y-120025000D02*
X125025000Y-120025000D01*
G75*
G02*
X125100000Y-120100000I0J-75000D01*
G01*
X125100000Y-120250000D01*
G75*
G02*
X125025000Y-120325000I-75000J0D01*
G01*
X123700000Y-120325000D01*
G75*
G02*
X123625000Y-120250000I0J75000D01*
G01*
X123625000Y-120100000D01*
G75*
G02*
X123700000Y-120025000I75000J0D01*
G01*
G37*
G36*
G01*
X123700000Y-119525000D02*
X125025000Y-119525000D01*
G75*
G02*
X125100000Y-119600000I0J-75000D01*
G01*
X125100000Y-119750000D01*
G75*
G02*
X125025000Y-119825000I-75000J0D01*
G01*
X123700000Y-119825000D01*
G75*
G02*
X123625000Y-119750000I0J75000D01*
G01*
X123625000Y-119600000D01*
G75*
G02*
X123700000Y-119525000I75000J0D01*
G01*
G37*
G36*
G01*
X123700000Y-119025000D02*
X125025000Y-119025000D01*
G75*
G02*
X125100000Y-119100000I0J-75000D01*
G01*
X125100000Y-119250000D01*
G75*
G02*
X125025000Y-119325000I-75000J0D01*
G01*
X123700000Y-119325000D01*
G75*
G02*
X123625000Y-119250000I0J75000D01*
G01*
X123625000Y-119100000D01*
G75*
G02*
X123700000Y-119025000I75000J0D01*
G01*
G37*
G36*
G01*
X123700000Y-118525000D02*
X125025000Y-118525000D01*
G75*
G02*
X125100000Y-118600000I0J-75000D01*
G01*
X125100000Y-118750000D01*
G75*
G02*
X125025000Y-118825000I-75000J0D01*
G01*
X123700000Y-118825000D01*
G75*
G02*
X123625000Y-118750000I0J75000D01*
G01*
X123625000Y-118600000D01*
G75*
G02*
X123700000Y-118525000I75000J0D01*
G01*
G37*
G36*
G01*
X123700000Y-118025000D02*
X125025000Y-118025000D01*
G75*
G02*
X125100000Y-118100000I0J-75000D01*
G01*
X125100000Y-118250000D01*
G75*
G02*
X125025000Y-118325000I-75000J0D01*
G01*
X123700000Y-118325000D01*
G75*
G02*
X123625000Y-118250000I0J75000D01*
G01*
X123625000Y-118100000D01*
G75*
G02*
X123700000Y-118025000I75000J0D01*
G01*
G37*
G36*
G01*
X123700000Y-117525000D02*
X125025000Y-117525000D01*
G75*
G02*
X125100000Y-117600000I0J-75000D01*
G01*
X125100000Y-117750000D01*
G75*
G02*
X125025000Y-117825000I-75000J0D01*
G01*
X123700000Y-117825000D01*
G75*
G02*
X123625000Y-117750000I0J75000D01*
G01*
X123625000Y-117600000D01*
G75*
G02*
X123700000Y-117525000I75000J0D01*
G01*
G37*
G36*
G01*
X123700000Y-117025000D02*
X125025000Y-117025000D01*
G75*
G02*
X125100000Y-117100000I0J-75000D01*
G01*
X125100000Y-117250000D01*
G75*
G02*
X125025000Y-117325000I-75000J0D01*
G01*
X123700000Y-117325000D01*
G75*
G02*
X123625000Y-117250000I0J75000D01*
G01*
X123625000Y-117100000D01*
G75*
G02*
X123700000Y-117025000I75000J0D01*
G01*
G37*
G36*
G01*
X123700000Y-116525000D02*
X125025000Y-116525000D01*
G75*
G02*
X125100000Y-116600000I0J-75000D01*
G01*
X125100000Y-116750000D01*
G75*
G02*
X125025000Y-116825000I-75000J0D01*
G01*
X123700000Y-116825000D01*
G75*
G02*
X123625000Y-116750000I0J75000D01*
G01*
X123625000Y-116600000D01*
G75*
G02*
X123700000Y-116525000I75000J0D01*
G01*
G37*
G36*
G01*
X123700000Y-116025000D02*
X125025000Y-116025000D01*
G75*
G02*
X125100000Y-116100000I0J-75000D01*
G01*
X125100000Y-116250000D01*
G75*
G02*
X125025000Y-116325000I-75000J0D01*
G01*
X123700000Y-116325000D01*
G75*
G02*
X123625000Y-116250000I0J75000D01*
G01*
X123625000Y-116100000D01*
G75*
G02*
X123700000Y-116025000I75000J0D01*
G01*
G37*
G36*
G01*
X123700000Y-115525000D02*
X125025000Y-115525000D01*
G75*
G02*
X125100000Y-115600000I0J-75000D01*
G01*
X125100000Y-115750000D01*
G75*
G02*
X125025000Y-115825000I-75000J0D01*
G01*
X123700000Y-115825000D01*
G75*
G02*
X123625000Y-115750000I0J75000D01*
G01*
X123625000Y-115600000D01*
G75*
G02*
X123700000Y-115525000I75000J0D01*
G01*
G37*
G36*
G01*
X123700000Y-115025000D02*
X125025000Y-115025000D01*
G75*
G02*
X125100000Y-115100000I0J-75000D01*
G01*
X125100000Y-115250000D01*
G75*
G02*
X125025000Y-115325000I-75000J0D01*
G01*
X123700000Y-115325000D01*
G75*
G02*
X123625000Y-115250000I0J75000D01*
G01*
X123625000Y-115100000D01*
G75*
G02*
X123700000Y-115025000I75000J0D01*
G01*
G37*
G36*
G01*
X123700000Y-114525000D02*
X125025000Y-114525000D01*
G75*
G02*
X125100000Y-114600000I0J-75000D01*
G01*
X125100000Y-114750000D01*
G75*
G02*
X125025000Y-114825000I-75000J0D01*
G01*
X123700000Y-114825000D01*
G75*
G02*
X123625000Y-114750000I0J75000D01*
G01*
X123625000Y-114600000D01*
G75*
G02*
X123700000Y-114525000I75000J0D01*
G01*
G37*
G36*
G01*
X123700000Y-114025000D02*
X125025000Y-114025000D01*
G75*
G02*
X125100000Y-114100000I0J-75000D01*
G01*
X125100000Y-114250000D01*
G75*
G02*
X125025000Y-114325000I-75000J0D01*
G01*
X123700000Y-114325000D01*
G75*
G02*
X123625000Y-114250000I0J75000D01*
G01*
X123625000Y-114100000D01*
G75*
G02*
X123700000Y-114025000I75000J0D01*
G01*
G37*
G36*
G01*
X123700000Y-113525000D02*
X125025000Y-113525000D01*
G75*
G02*
X125100000Y-113600000I0J-75000D01*
G01*
X125100000Y-113750000D01*
G75*
G02*
X125025000Y-113825000I-75000J0D01*
G01*
X123700000Y-113825000D01*
G75*
G02*
X123625000Y-113750000I0J75000D01*
G01*
X123625000Y-113600000D01*
G75*
G02*
X123700000Y-113525000I75000J0D01*
G01*
G37*
G36*
G01*
X123700000Y-113025000D02*
X125025000Y-113025000D01*
G75*
G02*
X125100000Y-113100000I0J-75000D01*
G01*
X125100000Y-113250000D01*
G75*
G02*
X125025000Y-113325000I-75000J0D01*
G01*
X123700000Y-113325000D01*
G75*
G02*
X123625000Y-113250000I0J75000D01*
G01*
X123625000Y-113100000D01*
G75*
G02*
X123700000Y-113025000I75000J0D01*
G01*
G37*
G36*
G01*
X123700000Y-112525000D02*
X125025000Y-112525000D01*
G75*
G02*
X125100000Y-112600000I0J-75000D01*
G01*
X125100000Y-112750000D01*
G75*
G02*
X125025000Y-112825000I-75000J0D01*
G01*
X123700000Y-112825000D01*
G75*
G02*
X123625000Y-112750000I0J75000D01*
G01*
X123625000Y-112600000D01*
G75*
G02*
X123700000Y-112525000I75000J0D01*
G01*
G37*
G36*
G01*
X123700000Y-112025000D02*
X125025000Y-112025000D01*
G75*
G02*
X125100000Y-112100000I0J-75000D01*
G01*
X125100000Y-112250000D01*
G75*
G02*
X125025000Y-112325000I-75000J0D01*
G01*
X123700000Y-112325000D01*
G75*
G02*
X123625000Y-112250000I0J75000D01*
G01*
X123625000Y-112100000D01*
G75*
G02*
X123700000Y-112025000I75000J0D01*
G01*
G37*
G36*
G01*
X123700000Y-111525000D02*
X125025000Y-111525000D01*
G75*
G02*
X125100000Y-111600000I0J-75000D01*
G01*
X125100000Y-111750000D01*
G75*
G02*
X125025000Y-111825000I-75000J0D01*
G01*
X123700000Y-111825000D01*
G75*
G02*
X123625000Y-111750000I0J75000D01*
G01*
X123625000Y-111600000D01*
G75*
G02*
X123700000Y-111525000I75000J0D01*
G01*
G37*
G36*
G01*
X123700000Y-111025000D02*
X125025000Y-111025000D01*
G75*
G02*
X125100000Y-111100000I0J-75000D01*
G01*
X125100000Y-111250000D01*
G75*
G02*
X125025000Y-111325000I-75000J0D01*
G01*
X123700000Y-111325000D01*
G75*
G02*
X123625000Y-111250000I0J75000D01*
G01*
X123625000Y-111100000D01*
G75*
G02*
X123700000Y-111025000I75000J0D01*
G01*
G37*
G36*
G01*
X123700000Y-110525000D02*
X125025000Y-110525000D01*
G75*
G02*
X125100000Y-110600000I0J-75000D01*
G01*
X125100000Y-110750000D01*
G75*
G02*
X125025000Y-110825000I-75000J0D01*
G01*
X123700000Y-110825000D01*
G75*
G02*
X123625000Y-110750000I0J75000D01*
G01*
X123625000Y-110600000D01*
G75*
G02*
X123700000Y-110525000I75000J0D01*
G01*
G37*
G36*
G01*
X123700000Y-110025000D02*
X125025000Y-110025000D01*
G75*
G02*
X125100000Y-110100000I0J-75000D01*
G01*
X125100000Y-110250000D01*
G75*
G02*
X125025000Y-110325000I-75000J0D01*
G01*
X123700000Y-110325000D01*
G75*
G02*
X123625000Y-110250000I0J75000D01*
G01*
X123625000Y-110100000D01*
G75*
G02*
X123700000Y-110025000I75000J0D01*
G01*
G37*
G36*
G01*
X123700000Y-109525000D02*
X125025000Y-109525000D01*
G75*
G02*
X125100000Y-109600000I0J-75000D01*
G01*
X125100000Y-109750000D01*
G75*
G02*
X125025000Y-109825000I-75000J0D01*
G01*
X123700000Y-109825000D01*
G75*
G02*
X123625000Y-109750000I0J75000D01*
G01*
X123625000Y-109600000D01*
G75*
G02*
X123700000Y-109525000I75000J0D01*
G01*
G37*
G36*
G01*
X123700000Y-109025000D02*
X125025000Y-109025000D01*
G75*
G02*
X125100000Y-109100000I0J-75000D01*
G01*
X125100000Y-109250000D01*
G75*
G02*
X125025000Y-109325000I-75000J0D01*
G01*
X123700000Y-109325000D01*
G75*
G02*
X123625000Y-109250000I0J75000D01*
G01*
X123625000Y-109100000D01*
G75*
G02*
X123700000Y-109025000I75000J0D01*
G01*
G37*
G36*
G01*
X126200000Y-106525000D02*
X126350000Y-106525000D01*
G75*
G02*
X126425000Y-106600000I0J-75000D01*
G01*
X126425000Y-107925000D01*
G75*
G02*
X126350000Y-108000000I-75000J0D01*
G01*
X126200000Y-108000000D01*
G75*
G02*
X126125000Y-107925000I0J75000D01*
G01*
X126125000Y-106600000D01*
G75*
G02*
X126200000Y-106525000I75000J0D01*
G01*
G37*
G36*
G01*
X126700000Y-106525000D02*
X126850000Y-106525000D01*
G75*
G02*
X126925000Y-106600000I0J-75000D01*
G01*
X126925000Y-107925000D01*
G75*
G02*
X126850000Y-108000000I-75000J0D01*
G01*
X126700000Y-108000000D01*
G75*
G02*
X126625000Y-107925000I0J75000D01*
G01*
X126625000Y-106600000D01*
G75*
G02*
X126700000Y-106525000I75000J0D01*
G01*
G37*
G36*
G01*
X127200000Y-106525000D02*
X127350000Y-106525000D01*
G75*
G02*
X127425000Y-106600000I0J-75000D01*
G01*
X127425000Y-107925000D01*
G75*
G02*
X127350000Y-108000000I-75000J0D01*
G01*
X127200000Y-108000000D01*
G75*
G02*
X127125000Y-107925000I0J75000D01*
G01*
X127125000Y-106600000D01*
G75*
G02*
X127200000Y-106525000I75000J0D01*
G01*
G37*
G36*
G01*
X127700000Y-106525000D02*
X127850000Y-106525000D01*
G75*
G02*
X127925000Y-106600000I0J-75000D01*
G01*
X127925000Y-107925000D01*
G75*
G02*
X127850000Y-108000000I-75000J0D01*
G01*
X127700000Y-108000000D01*
G75*
G02*
X127625000Y-107925000I0J75000D01*
G01*
X127625000Y-106600000D01*
G75*
G02*
X127700000Y-106525000I75000J0D01*
G01*
G37*
G36*
G01*
X128200000Y-106525000D02*
X128350000Y-106525000D01*
G75*
G02*
X128425000Y-106600000I0J-75000D01*
G01*
X128425000Y-107925000D01*
G75*
G02*
X128350000Y-108000000I-75000J0D01*
G01*
X128200000Y-108000000D01*
G75*
G02*
X128125000Y-107925000I0J75000D01*
G01*
X128125000Y-106600000D01*
G75*
G02*
X128200000Y-106525000I75000J0D01*
G01*
G37*
G36*
G01*
X128700000Y-106525000D02*
X128850000Y-106525000D01*
G75*
G02*
X128925000Y-106600000I0J-75000D01*
G01*
X128925000Y-107925000D01*
G75*
G02*
X128850000Y-108000000I-75000J0D01*
G01*
X128700000Y-108000000D01*
G75*
G02*
X128625000Y-107925000I0J75000D01*
G01*
X128625000Y-106600000D01*
G75*
G02*
X128700000Y-106525000I75000J0D01*
G01*
G37*
G36*
G01*
X129200000Y-106525000D02*
X129350000Y-106525000D01*
G75*
G02*
X129425000Y-106600000I0J-75000D01*
G01*
X129425000Y-107925000D01*
G75*
G02*
X129350000Y-108000000I-75000J0D01*
G01*
X129200000Y-108000000D01*
G75*
G02*
X129125000Y-107925000I0J75000D01*
G01*
X129125000Y-106600000D01*
G75*
G02*
X129200000Y-106525000I75000J0D01*
G01*
G37*
G36*
G01*
X129700000Y-106525000D02*
X129850000Y-106525000D01*
G75*
G02*
X129925000Y-106600000I0J-75000D01*
G01*
X129925000Y-107925000D01*
G75*
G02*
X129850000Y-108000000I-75000J0D01*
G01*
X129700000Y-108000000D01*
G75*
G02*
X129625000Y-107925000I0J75000D01*
G01*
X129625000Y-106600000D01*
G75*
G02*
X129700000Y-106525000I75000J0D01*
G01*
G37*
G36*
G01*
X130200000Y-106525000D02*
X130350000Y-106525000D01*
G75*
G02*
X130425000Y-106600000I0J-75000D01*
G01*
X130425000Y-107925000D01*
G75*
G02*
X130350000Y-108000000I-75000J0D01*
G01*
X130200000Y-108000000D01*
G75*
G02*
X130125000Y-107925000I0J75000D01*
G01*
X130125000Y-106600000D01*
G75*
G02*
X130200000Y-106525000I75000J0D01*
G01*
G37*
G36*
G01*
X130700000Y-106525000D02*
X130850000Y-106525000D01*
G75*
G02*
X130925000Y-106600000I0J-75000D01*
G01*
X130925000Y-107925000D01*
G75*
G02*
X130850000Y-108000000I-75000J0D01*
G01*
X130700000Y-108000000D01*
G75*
G02*
X130625000Y-107925000I0J75000D01*
G01*
X130625000Y-106600000D01*
G75*
G02*
X130700000Y-106525000I75000J0D01*
G01*
G37*
G36*
G01*
X131200000Y-106525000D02*
X131350000Y-106525000D01*
G75*
G02*
X131425000Y-106600000I0J-75000D01*
G01*
X131425000Y-107925000D01*
G75*
G02*
X131350000Y-108000000I-75000J0D01*
G01*
X131200000Y-108000000D01*
G75*
G02*
X131125000Y-107925000I0J75000D01*
G01*
X131125000Y-106600000D01*
G75*
G02*
X131200000Y-106525000I75000J0D01*
G01*
G37*
G36*
G01*
X131700000Y-106525000D02*
X131850000Y-106525000D01*
G75*
G02*
X131925000Y-106600000I0J-75000D01*
G01*
X131925000Y-107925000D01*
G75*
G02*
X131850000Y-108000000I-75000J0D01*
G01*
X131700000Y-108000000D01*
G75*
G02*
X131625000Y-107925000I0J75000D01*
G01*
X131625000Y-106600000D01*
G75*
G02*
X131700000Y-106525000I75000J0D01*
G01*
G37*
G36*
G01*
X132200000Y-106525000D02*
X132350000Y-106525000D01*
G75*
G02*
X132425000Y-106600000I0J-75000D01*
G01*
X132425000Y-107925000D01*
G75*
G02*
X132350000Y-108000000I-75000J0D01*
G01*
X132200000Y-108000000D01*
G75*
G02*
X132125000Y-107925000I0J75000D01*
G01*
X132125000Y-106600000D01*
G75*
G02*
X132200000Y-106525000I75000J0D01*
G01*
G37*
G36*
G01*
X132700000Y-106525000D02*
X132850000Y-106525000D01*
G75*
G02*
X132925000Y-106600000I0J-75000D01*
G01*
X132925000Y-107925000D01*
G75*
G02*
X132850000Y-108000000I-75000J0D01*
G01*
X132700000Y-108000000D01*
G75*
G02*
X132625000Y-107925000I0J75000D01*
G01*
X132625000Y-106600000D01*
G75*
G02*
X132700000Y-106525000I75000J0D01*
G01*
G37*
G36*
G01*
X133200000Y-106525000D02*
X133350000Y-106525000D01*
G75*
G02*
X133425000Y-106600000I0J-75000D01*
G01*
X133425000Y-107925000D01*
G75*
G02*
X133350000Y-108000000I-75000J0D01*
G01*
X133200000Y-108000000D01*
G75*
G02*
X133125000Y-107925000I0J75000D01*
G01*
X133125000Y-106600000D01*
G75*
G02*
X133200000Y-106525000I75000J0D01*
G01*
G37*
G36*
G01*
X133700000Y-106525000D02*
X133850000Y-106525000D01*
G75*
G02*
X133925000Y-106600000I0J-75000D01*
G01*
X133925000Y-107925000D01*
G75*
G02*
X133850000Y-108000000I-75000J0D01*
G01*
X133700000Y-108000000D01*
G75*
G02*
X133625000Y-107925000I0J75000D01*
G01*
X133625000Y-106600000D01*
G75*
G02*
X133700000Y-106525000I75000J0D01*
G01*
G37*
G36*
G01*
X134200000Y-106525000D02*
X134350000Y-106525000D01*
G75*
G02*
X134425000Y-106600000I0J-75000D01*
G01*
X134425000Y-107925000D01*
G75*
G02*
X134350000Y-108000000I-75000J0D01*
G01*
X134200000Y-108000000D01*
G75*
G02*
X134125000Y-107925000I0J75000D01*
G01*
X134125000Y-106600000D01*
G75*
G02*
X134200000Y-106525000I75000J0D01*
G01*
G37*
G36*
G01*
X134700000Y-106525000D02*
X134850000Y-106525000D01*
G75*
G02*
X134925000Y-106600000I0J-75000D01*
G01*
X134925000Y-107925000D01*
G75*
G02*
X134850000Y-108000000I-75000J0D01*
G01*
X134700000Y-108000000D01*
G75*
G02*
X134625000Y-107925000I0J75000D01*
G01*
X134625000Y-106600000D01*
G75*
G02*
X134700000Y-106525000I75000J0D01*
G01*
G37*
G36*
G01*
X135200000Y-106525000D02*
X135350000Y-106525000D01*
G75*
G02*
X135425000Y-106600000I0J-75000D01*
G01*
X135425000Y-107925000D01*
G75*
G02*
X135350000Y-108000000I-75000J0D01*
G01*
X135200000Y-108000000D01*
G75*
G02*
X135125000Y-107925000I0J75000D01*
G01*
X135125000Y-106600000D01*
G75*
G02*
X135200000Y-106525000I75000J0D01*
G01*
G37*
G36*
G01*
X135700000Y-106525000D02*
X135850000Y-106525000D01*
G75*
G02*
X135925000Y-106600000I0J-75000D01*
G01*
X135925000Y-107925000D01*
G75*
G02*
X135850000Y-108000000I-75000J0D01*
G01*
X135700000Y-108000000D01*
G75*
G02*
X135625000Y-107925000I0J75000D01*
G01*
X135625000Y-106600000D01*
G75*
G02*
X135700000Y-106525000I75000J0D01*
G01*
G37*
G36*
G01*
X136200000Y-106525000D02*
X136350000Y-106525000D01*
G75*
G02*
X136425000Y-106600000I0J-75000D01*
G01*
X136425000Y-107925000D01*
G75*
G02*
X136350000Y-108000000I-75000J0D01*
G01*
X136200000Y-108000000D01*
G75*
G02*
X136125000Y-107925000I0J75000D01*
G01*
X136125000Y-106600000D01*
G75*
G02*
X136200000Y-106525000I75000J0D01*
G01*
G37*
G36*
G01*
X136700000Y-106525000D02*
X136850000Y-106525000D01*
G75*
G02*
X136925000Y-106600000I0J-75000D01*
G01*
X136925000Y-107925000D01*
G75*
G02*
X136850000Y-108000000I-75000J0D01*
G01*
X136700000Y-108000000D01*
G75*
G02*
X136625000Y-107925000I0J75000D01*
G01*
X136625000Y-106600000D01*
G75*
G02*
X136700000Y-106525000I75000J0D01*
G01*
G37*
G36*
G01*
X137200000Y-106525000D02*
X137350000Y-106525000D01*
G75*
G02*
X137425000Y-106600000I0J-75000D01*
G01*
X137425000Y-107925000D01*
G75*
G02*
X137350000Y-108000000I-75000J0D01*
G01*
X137200000Y-108000000D01*
G75*
G02*
X137125000Y-107925000I0J75000D01*
G01*
X137125000Y-106600000D01*
G75*
G02*
X137200000Y-106525000I75000J0D01*
G01*
G37*
G36*
G01*
X137700000Y-106525000D02*
X137850000Y-106525000D01*
G75*
G02*
X137925000Y-106600000I0J-75000D01*
G01*
X137925000Y-107925000D01*
G75*
G02*
X137850000Y-108000000I-75000J0D01*
G01*
X137700000Y-108000000D01*
G75*
G02*
X137625000Y-107925000I0J75000D01*
G01*
X137625000Y-106600000D01*
G75*
G02*
X137700000Y-106525000I75000J0D01*
G01*
G37*
G36*
G01*
X138200000Y-106525000D02*
X138350000Y-106525000D01*
G75*
G02*
X138425000Y-106600000I0J-75000D01*
G01*
X138425000Y-107925000D01*
G75*
G02*
X138350000Y-108000000I-75000J0D01*
G01*
X138200000Y-108000000D01*
G75*
G02*
X138125000Y-107925000I0J75000D01*
G01*
X138125000Y-106600000D01*
G75*
G02*
X138200000Y-106525000I75000J0D01*
G01*
G37*
G36*
G01*
X138700000Y-106525000D02*
X138850000Y-106525000D01*
G75*
G02*
X138925000Y-106600000I0J-75000D01*
G01*
X138925000Y-107925000D01*
G75*
G02*
X138850000Y-108000000I-75000J0D01*
G01*
X138700000Y-108000000D01*
G75*
G02*
X138625000Y-107925000I0J75000D01*
G01*
X138625000Y-106600000D01*
G75*
G02*
X138700000Y-106525000I75000J0D01*
G01*
G37*
G36*
G01*
X139200000Y-106525000D02*
X139350000Y-106525000D01*
G75*
G02*
X139425000Y-106600000I0J-75000D01*
G01*
X139425000Y-107925000D01*
G75*
G02*
X139350000Y-108000000I-75000J0D01*
G01*
X139200000Y-108000000D01*
G75*
G02*
X139125000Y-107925000I0J75000D01*
G01*
X139125000Y-106600000D01*
G75*
G02*
X139200000Y-106525000I75000J0D01*
G01*
G37*
G36*
G01*
X139700000Y-106525000D02*
X139850000Y-106525000D01*
G75*
G02*
X139925000Y-106600000I0J-75000D01*
G01*
X139925000Y-107925000D01*
G75*
G02*
X139850000Y-108000000I-75000J0D01*
G01*
X139700000Y-108000000D01*
G75*
G02*
X139625000Y-107925000I0J75000D01*
G01*
X139625000Y-106600000D01*
G75*
G02*
X139700000Y-106525000I75000J0D01*
G01*
G37*
G36*
G01*
X140200000Y-106525000D02*
X140350000Y-106525000D01*
G75*
G02*
X140425000Y-106600000I0J-75000D01*
G01*
X140425000Y-107925000D01*
G75*
G02*
X140350000Y-108000000I-75000J0D01*
G01*
X140200000Y-108000000D01*
G75*
G02*
X140125000Y-107925000I0J75000D01*
G01*
X140125000Y-106600000D01*
G75*
G02*
X140200000Y-106525000I75000J0D01*
G01*
G37*
G36*
G01*
X140700000Y-106525000D02*
X140850000Y-106525000D01*
G75*
G02*
X140925000Y-106600000I0J-75000D01*
G01*
X140925000Y-107925000D01*
G75*
G02*
X140850000Y-108000000I-75000J0D01*
G01*
X140700000Y-108000000D01*
G75*
G02*
X140625000Y-107925000I0J75000D01*
G01*
X140625000Y-106600000D01*
G75*
G02*
X140700000Y-106525000I75000J0D01*
G01*
G37*
G36*
G01*
X141200000Y-106525000D02*
X141350000Y-106525000D01*
G75*
G02*
X141425000Y-106600000I0J-75000D01*
G01*
X141425000Y-107925000D01*
G75*
G02*
X141350000Y-108000000I-75000J0D01*
G01*
X141200000Y-108000000D01*
G75*
G02*
X141125000Y-107925000I0J75000D01*
G01*
X141125000Y-106600000D01*
G75*
G02*
X141200000Y-106525000I75000J0D01*
G01*
G37*
G36*
G01*
X141700000Y-106525000D02*
X141850000Y-106525000D01*
G75*
G02*
X141925000Y-106600000I0J-75000D01*
G01*
X141925000Y-107925000D01*
G75*
G02*
X141850000Y-108000000I-75000J0D01*
G01*
X141700000Y-108000000D01*
G75*
G02*
X141625000Y-107925000I0J75000D01*
G01*
X141625000Y-106600000D01*
G75*
G02*
X141700000Y-106525000I75000J0D01*
G01*
G37*
G36*
G01*
X142200000Y-106525000D02*
X142350000Y-106525000D01*
G75*
G02*
X142425000Y-106600000I0J-75000D01*
G01*
X142425000Y-107925000D01*
G75*
G02*
X142350000Y-108000000I-75000J0D01*
G01*
X142200000Y-108000000D01*
G75*
G02*
X142125000Y-107925000I0J75000D01*
G01*
X142125000Y-106600000D01*
G75*
G02*
X142200000Y-106525000I75000J0D01*
G01*
G37*
G36*
G01*
X142700000Y-106525000D02*
X142850000Y-106525000D01*
G75*
G02*
X142925000Y-106600000I0J-75000D01*
G01*
X142925000Y-107925000D01*
G75*
G02*
X142850000Y-108000000I-75000J0D01*
G01*
X142700000Y-108000000D01*
G75*
G02*
X142625000Y-107925000I0J75000D01*
G01*
X142625000Y-106600000D01*
G75*
G02*
X142700000Y-106525000I75000J0D01*
G01*
G37*
G36*
G01*
X143200000Y-106525000D02*
X143350000Y-106525000D01*
G75*
G02*
X143425000Y-106600000I0J-75000D01*
G01*
X143425000Y-107925000D01*
G75*
G02*
X143350000Y-108000000I-75000J0D01*
G01*
X143200000Y-108000000D01*
G75*
G02*
X143125000Y-107925000I0J75000D01*
G01*
X143125000Y-106600000D01*
G75*
G02*
X143200000Y-106525000I75000J0D01*
G01*
G37*
G36*
G01*
X143700000Y-106525000D02*
X143850000Y-106525000D01*
G75*
G02*
X143925000Y-106600000I0J-75000D01*
G01*
X143925000Y-107925000D01*
G75*
G02*
X143850000Y-108000000I-75000J0D01*
G01*
X143700000Y-108000000D01*
G75*
G02*
X143625000Y-107925000I0J75000D01*
G01*
X143625000Y-106600000D01*
G75*
G02*
X143700000Y-106525000I75000J0D01*
G01*
G37*
D19*
X107000000Y-95850000D03*
X107000000Y-93950000D03*
D23*
X103500000Y-96000000D03*
X103500000Y-93800000D03*
X105300000Y-96000000D03*
X105300000Y-93800000D03*
D37*
X118395000Y-75400000D03*
X117125000Y-75400000D03*
X115855000Y-75400000D03*
X114585000Y-75400000D03*
X113315000Y-75400000D03*
X112045000Y-75400000D03*
X110775000Y-75400000D03*
X109505000Y-75400000D03*
X109505000Y-80800000D03*
X110775000Y-80800000D03*
X112045000Y-80800000D03*
X113315000Y-80800000D03*
X114585000Y-80800000D03*
X115855000Y-80800000D03*
X117125000Y-80800000D03*
X118395000Y-80800000D03*
D38*
X127340000Y-81202000D03*
X128610000Y-81202000D03*
X129880000Y-81202000D03*
X131150000Y-81202000D03*
X132420000Y-81202000D03*
X133690000Y-81202000D03*
X134960000Y-81202000D03*
X134960000Y-74852000D03*
X133690000Y-74852000D03*
X131150000Y-74852000D03*
X129880000Y-74852000D03*
X128610000Y-74852000D03*
X127340000Y-74852000D03*
X132420000Y-74852000D03*
D39*
X105198000Y-114090000D03*
X105198000Y-115360000D03*
X105198000Y-116630000D03*
X105198000Y-117900000D03*
X105198000Y-119170000D03*
X105198000Y-120440000D03*
X105198000Y-121710000D03*
X111548000Y-121710000D03*
X111548000Y-120440000D03*
X111548000Y-117900000D03*
X111548000Y-116630000D03*
X111548000Y-115360000D03*
X111548000Y-114090000D03*
X111548000Y-119170000D03*
D38*
X117110000Y-94298000D03*
X115840000Y-94298000D03*
X114570000Y-94298000D03*
X113300000Y-94298000D03*
X112030000Y-94298000D03*
X110760000Y-94298000D03*
X109490000Y-94298000D03*
X109490000Y-100648000D03*
X110760000Y-100648000D03*
X113300000Y-100648000D03*
X114570000Y-100648000D03*
X115840000Y-100648000D03*
X117110000Y-100648000D03*
X112030000Y-100648000D03*
D23*
X136200000Y-83800000D03*
X136200000Y-86000000D03*
X126200000Y-83800000D03*
X126200000Y-86000000D03*
X134500000Y-83800000D03*
X134500000Y-86000000D03*
X127900000Y-83800000D03*
X127900000Y-86000000D03*
X132800000Y-83800000D03*
X132800000Y-86000000D03*
X129600000Y-83800000D03*
X129600000Y-86000000D03*
D24*
X112100000Y-124300000D03*
X109900000Y-124300000D03*
X109900000Y-126100000D03*
X112100000Y-126100000D03*
X106700000Y-124300000D03*
X104500000Y-124300000D03*
D23*
X121600000Y-101100000D03*
X121600000Y-98900000D03*
X105300000Y-101100000D03*
X105300000Y-98900000D03*
X101700000Y-101100000D03*
X101700000Y-98900000D03*
X144600000Y-73500000D03*
X144600000Y-75700000D03*
X144600000Y-89100000D03*
X144600000Y-86900000D03*
X128700000Y-72600000D03*
X128700000Y-70400000D03*
X133650000Y-72650000D03*
X133650000Y-70450000D03*
X111400000Y-70400000D03*
X111400000Y-72600000D03*
X116700000Y-70400000D03*
X116700000Y-72600000D03*
X117300000Y-86000000D03*
X117300000Y-83800000D03*
X109600000Y-72600000D03*
X109600000Y-70400000D03*
X123400000Y-93900000D03*
X123400000Y-96100000D03*
D24*
X112000000Y-111400000D03*
X109800000Y-111400000D03*
D23*
X118400000Y-72600000D03*
X118400000Y-70400000D03*
X121600000Y-96100000D03*
X121600000Y-93900000D03*
X125100000Y-93900000D03*
X125100000Y-96100000D03*
X101700000Y-93800000D03*
X101700000Y-96000000D03*
D24*
X112000000Y-107800000D03*
X109800000Y-107800000D03*
D23*
X110700000Y-86000000D03*
X110700000Y-83800000D03*
X112400000Y-83800000D03*
X112400000Y-86000000D03*
D14*
X157500000Y-122700000D03*
D13*
X157500000Y-120160000D03*
X157500000Y-117620000D03*
X157500000Y-115080000D03*
D23*
X110550000Y-52100000D03*
X107250000Y-52100000D03*
X138250000Y-52100000D03*
X134950000Y-52100000D03*
D40*
X104850000Y-56700000D03*
X102950000Y-56700000D03*
X103900000Y-58700000D03*
D19*
X113800000Y-113850000D03*
X113800000Y-115750000D03*
X123000000Y-138450000D03*
X123000000Y-140350000D03*
D41*
X156600000Y-102300000D03*
X156600000Y-104300000D03*
D19*
X135725000Y-138425000D03*
X135725000Y-140325000D03*
X145700000Y-138450000D03*
X145700000Y-140350000D03*
X153125000Y-104250000D03*
X153125000Y-102350000D03*
X119900000Y-100950000D03*
X119900000Y-99050000D03*
X107000000Y-100950000D03*
X107000000Y-99050000D03*
X119900000Y-94050000D03*
X119900000Y-95950000D03*
X113100000Y-70550000D03*
X113100000Y-72450000D03*
X115000000Y-70550000D03*
X115000000Y-72450000D03*
D17*
X143425000Y-157275000D03*
X141525000Y-157275000D03*
X138550000Y-157275000D03*
X136650000Y-157275000D03*
D19*
X154725000Y-102350000D03*
X154725000Y-104250000D03*
X119000000Y-85850000D03*
X119000000Y-83950000D03*
D41*
X156400000Y-91800000D03*
X156400000Y-89800000D03*
D19*
X127800000Y-102950000D03*
X127800000Y-104850000D03*
X139525000Y-138450000D03*
X139525000Y-140350000D03*
X137325000Y-133550000D03*
X137325000Y-131650000D03*
X109000000Y-85850000D03*
X109000000Y-83950000D03*
X149900000Y-91750000D03*
X149900000Y-89850000D03*
X143825000Y-138450000D03*
X143825000Y-140350000D03*
D17*
X150450000Y-120700000D03*
X148550000Y-120700000D03*
D19*
X145125000Y-133575000D03*
X145125000Y-131675000D03*
X156400000Y-94350000D03*
X156400000Y-96250000D03*
X131725000Y-133575000D03*
X131725000Y-131675000D03*
X123500000Y-130350000D03*
X123500000Y-128450000D03*
D17*
X120350000Y-122000000D03*
X122250000Y-122000000D03*
X120350000Y-116100000D03*
X122250000Y-116100000D03*
X137650000Y-104600000D03*
X135750000Y-104600000D03*
D19*
X129900000Y-99050000D03*
X129900000Y-100950000D03*
X139900000Y-99050000D03*
X139900000Y-100950000D03*
X129300000Y-102950000D03*
X129300000Y-104850000D03*
M02*
