G04 #@! TF.GenerationSoftware,KiCad,Pcbnew,(5.1.5)-3*
G04 #@! TF.CreationDate,2020-11-29T18:58:37+00:00*
G04 #@! TF.ProjectId,Retrospector_Power_Test_LM2675,52657472-6f73-4706-9563-746f725f506f,rev?*
G04 #@! TF.SameCoordinates,Original*
G04 #@! TF.FileFunction,Legend,Bot*
G04 #@! TF.FilePolarity,Positive*
%FSLAX46Y46*%
G04 Gerber Fmt 4.6, Leading zero omitted, Abs format (unit mm)*
G04 Created by KiCad (PCBNEW (5.1.5)-3) date 2020-11-29 18:58:37*
%MOMM*%
%LPD*%
G04 APERTURE LIST*
%ADD10C,0.150000*%
%ADD11C,0.120000*%
G04 APERTURE END LIST*
D10*
X102695238Y-60827380D02*
X102695238Y-59827380D01*
X102314285Y-59827380D01*
X102219047Y-59875000D01*
X102171428Y-59922619D01*
X102123809Y-60017857D01*
X102123809Y-60160714D01*
X102171428Y-60255952D01*
X102219047Y-60303571D01*
X102314285Y-60351190D01*
X102695238Y-60351190D01*
X101552380Y-60827380D02*
X101647619Y-60779761D01*
X101695238Y-60732142D01*
X101742857Y-60636904D01*
X101742857Y-60351190D01*
X101695238Y-60255952D01*
X101647619Y-60208333D01*
X101552380Y-60160714D01*
X101409523Y-60160714D01*
X101314285Y-60208333D01*
X101266666Y-60255952D01*
X101219047Y-60351190D01*
X101219047Y-60636904D01*
X101266666Y-60732142D01*
X101314285Y-60779761D01*
X101409523Y-60827380D01*
X101552380Y-60827380D01*
X100885714Y-60160714D02*
X100695238Y-60827380D01*
X100504761Y-60351190D01*
X100314285Y-60827380D01*
X100123809Y-60160714D01*
X99361904Y-60779761D02*
X99457142Y-60827380D01*
X99647619Y-60827380D01*
X99742857Y-60779761D01*
X99790476Y-60684523D01*
X99790476Y-60303571D01*
X99742857Y-60208333D01*
X99647619Y-60160714D01*
X99457142Y-60160714D01*
X99361904Y-60208333D01*
X99314285Y-60303571D01*
X99314285Y-60398809D01*
X99790476Y-60494047D01*
X98885714Y-60827380D02*
X98885714Y-60160714D01*
X98885714Y-60351190D02*
X98838095Y-60255952D01*
X98790476Y-60208333D01*
X98695238Y-60160714D01*
X98600000Y-60160714D01*
X97647619Y-59827380D02*
X97076190Y-59827380D01*
X97361904Y-60827380D02*
X97361904Y-59827380D01*
X96361904Y-60779761D02*
X96457142Y-60827380D01*
X96647619Y-60827380D01*
X96742857Y-60779761D01*
X96790476Y-60684523D01*
X96790476Y-60303571D01*
X96742857Y-60208333D01*
X96647619Y-60160714D01*
X96457142Y-60160714D01*
X96361904Y-60208333D01*
X96314285Y-60303571D01*
X96314285Y-60398809D01*
X96790476Y-60494047D01*
X95933333Y-60779761D02*
X95838095Y-60827380D01*
X95647619Y-60827380D01*
X95552380Y-60779761D01*
X95504761Y-60684523D01*
X95504761Y-60636904D01*
X95552380Y-60541666D01*
X95647619Y-60494047D01*
X95790476Y-60494047D01*
X95885714Y-60446428D01*
X95933333Y-60351190D01*
X95933333Y-60303571D01*
X95885714Y-60208333D01*
X95790476Y-60160714D01*
X95647619Y-60160714D01*
X95552380Y-60208333D01*
X95219047Y-60160714D02*
X94838095Y-60160714D01*
X95076190Y-59827380D02*
X95076190Y-60684523D01*
X95028571Y-60779761D01*
X94933333Y-60827380D01*
X94838095Y-60827380D01*
X93838095Y-60160714D02*
X93600000Y-60827380D01*
X93361904Y-60160714D01*
X92457142Y-60827380D02*
X93028571Y-60827380D01*
X92742857Y-60827380D02*
X92742857Y-59827380D01*
X92838095Y-59970238D01*
X92933333Y-60065476D01*
X93028571Y-60113095D01*
X105433333Y-61477380D02*
X104861904Y-61477380D01*
X105147619Y-62477380D02*
X105147619Y-61477380D01*
X104528571Y-62477380D02*
X104528571Y-61477380D01*
X104147619Y-61477380D01*
X104052380Y-61525000D01*
X104004761Y-61572619D01*
X103957142Y-61667857D01*
X103957142Y-61810714D01*
X104004761Y-61905952D01*
X104052380Y-61953571D01*
X104147619Y-62001190D01*
X104528571Y-62001190D01*
X103576190Y-62429761D02*
X103433333Y-62477380D01*
X103195238Y-62477380D01*
X103100000Y-62429761D01*
X103052380Y-62382142D01*
X103004761Y-62286904D01*
X103004761Y-62191666D01*
X103052380Y-62096428D01*
X103100000Y-62048809D01*
X103195238Y-62001190D01*
X103385714Y-61953571D01*
X103480952Y-61905952D01*
X103528571Y-61858333D01*
X103576190Y-61763095D01*
X103576190Y-61667857D01*
X103528571Y-61572619D01*
X103480952Y-61525000D01*
X103385714Y-61477380D01*
X103147619Y-61477380D01*
X103004761Y-61525000D01*
X102100000Y-61477380D02*
X102576190Y-61477380D01*
X102623809Y-61953571D01*
X102576190Y-61905952D01*
X102480952Y-61858333D01*
X102242857Y-61858333D01*
X102147619Y-61905952D01*
X102100000Y-61953571D01*
X102052380Y-62048809D01*
X102052380Y-62286904D01*
X102100000Y-62382142D01*
X102147619Y-62429761D01*
X102242857Y-62477380D01*
X102480952Y-62477380D01*
X102576190Y-62429761D01*
X102623809Y-62382142D01*
X101195238Y-61810714D02*
X101195238Y-62477380D01*
X101433333Y-61429761D02*
X101671428Y-62144047D01*
X101052380Y-62144047D01*
X100147619Y-62477380D02*
X100719047Y-62477380D01*
X100433333Y-62477380D02*
X100433333Y-61477380D01*
X100528571Y-61620238D01*
X100623809Y-61715476D01*
X100719047Y-61763095D01*
X99528571Y-61477380D02*
X99433333Y-61477380D01*
X99338095Y-61525000D01*
X99290476Y-61572619D01*
X99242857Y-61667857D01*
X99195238Y-61858333D01*
X99195238Y-62096428D01*
X99242857Y-62286904D01*
X99290476Y-62382142D01*
X99338095Y-62429761D01*
X99433333Y-62477380D01*
X99528571Y-62477380D01*
X99623809Y-62429761D01*
X99671428Y-62382142D01*
X99719047Y-62286904D01*
X99766666Y-62096428D01*
X99766666Y-61858333D01*
X99719047Y-61667857D01*
X99671428Y-61572619D01*
X99623809Y-61525000D01*
X99528571Y-61477380D01*
X98766666Y-62477380D02*
X98766666Y-61477380D01*
X98528571Y-61477380D01*
X98385714Y-61525000D01*
X98290476Y-61620238D01*
X98242857Y-61715476D01*
X98195238Y-61905952D01*
X98195238Y-62048809D01*
X98242857Y-62239285D01*
X98290476Y-62334523D01*
X98385714Y-62429761D01*
X98528571Y-62477380D01*
X98766666Y-62477380D01*
X96290476Y-61429761D02*
X97147619Y-62715476D01*
X94719047Y-62477380D02*
X95195238Y-62477380D01*
X95195238Y-61477380D01*
X94385714Y-62477380D02*
X94385714Y-61477380D01*
X94052380Y-62191666D01*
X93719047Y-61477380D01*
X93719047Y-62477380D01*
X93290476Y-61572619D02*
X93242857Y-61525000D01*
X93147619Y-61477380D01*
X92909523Y-61477380D01*
X92814285Y-61525000D01*
X92766666Y-61572619D01*
X92719047Y-61667857D01*
X92719047Y-61763095D01*
X92766666Y-61905952D01*
X93338095Y-62477380D01*
X92719047Y-62477380D01*
X91861904Y-61477380D02*
X92052380Y-61477380D01*
X92147619Y-61525000D01*
X92195238Y-61572619D01*
X92290476Y-61715476D01*
X92338095Y-61905952D01*
X92338095Y-62286904D01*
X92290476Y-62382142D01*
X92242857Y-62429761D01*
X92147619Y-62477380D01*
X91957142Y-62477380D01*
X91861904Y-62429761D01*
X91814285Y-62382142D01*
X91766666Y-62286904D01*
X91766666Y-62048809D01*
X91814285Y-61953571D01*
X91861904Y-61905952D01*
X91957142Y-61858333D01*
X92147619Y-61858333D01*
X92242857Y-61905952D01*
X92290476Y-61953571D01*
X92338095Y-62048809D01*
X91433333Y-61477380D02*
X90766666Y-61477380D01*
X91195238Y-62477380D01*
X89909523Y-61477380D02*
X90385714Y-61477380D01*
X90433333Y-61953571D01*
X90385714Y-61905952D01*
X90290476Y-61858333D01*
X90052380Y-61858333D01*
X89957142Y-61905952D01*
X89909523Y-61953571D01*
X89861904Y-62048809D01*
X89861904Y-62286904D01*
X89909523Y-62382142D01*
X89957142Y-62429761D01*
X90052380Y-62477380D01*
X90290476Y-62477380D01*
X90385714Y-62429761D01*
X90433333Y-62382142D01*
X97500000Y-73000000D02*
X87900000Y-73000000D01*
X87900000Y-73000000D02*
X87900000Y-62800000D01*
X87900000Y-62800000D02*
X97500000Y-62800000D01*
X97500000Y-62800000D02*
X107100000Y-62800000D01*
X97500000Y-73000000D02*
X97500000Y-62800000D01*
X107100000Y-73000000D02*
X97500000Y-73000000D01*
X107100000Y-62800000D02*
X107100000Y-73000000D01*
X89652380Y-64647619D02*
X89652380Y-64171428D01*
X90128571Y-64123809D01*
X90080952Y-64171428D01*
X90033333Y-64266666D01*
X90033333Y-64504761D01*
X90080952Y-64600000D01*
X90128571Y-64647619D01*
X90223809Y-64695238D01*
X90461904Y-64695238D01*
X90557142Y-64647619D01*
X90604761Y-64600000D01*
X90652380Y-64504761D01*
X90652380Y-64266666D01*
X90604761Y-64171428D01*
X90557142Y-64123809D01*
X89652380Y-64980952D02*
X90652380Y-65314285D01*
X89652380Y-65647619D01*
X89985714Y-66742857D02*
X90271428Y-67504761D01*
X90557142Y-66742857D01*
X89652380Y-68647619D02*
X89652380Y-69266666D01*
X90033333Y-68933333D01*
X90033333Y-69076190D01*
X90080952Y-69171428D01*
X90128571Y-69219047D01*
X90223809Y-69266666D01*
X90461904Y-69266666D01*
X90557142Y-69219047D01*
X90604761Y-69171428D01*
X90652380Y-69076190D01*
X90652380Y-68790476D01*
X90604761Y-68695238D01*
X90557142Y-68647619D01*
X89652380Y-69552380D02*
X90652380Y-69885714D01*
X89652380Y-70219047D01*
X89652380Y-70457142D02*
X89652380Y-71076190D01*
X90033333Y-70742857D01*
X90033333Y-70885714D01*
X90080952Y-70980952D01*
X90128571Y-71028571D01*
X90223809Y-71076190D01*
X90461904Y-71076190D01*
X90557142Y-71028571D01*
X90604761Y-70980952D01*
X90652380Y-70885714D01*
X90652380Y-70600000D01*
X90604761Y-70504761D01*
X90557142Y-70457142D01*
X105247619Y-72328571D02*
X105247619Y-71709523D01*
X104866666Y-72042857D01*
X104866666Y-71900000D01*
X104819047Y-71804761D01*
X104771428Y-71757142D01*
X104676190Y-71709523D01*
X104438095Y-71709523D01*
X104342857Y-71757142D01*
X104295238Y-71804761D01*
X104247619Y-71900000D01*
X104247619Y-72185714D01*
X104295238Y-72280952D01*
X104342857Y-72328571D01*
X105247619Y-71423809D02*
X104247619Y-71090476D01*
X105247619Y-70757142D01*
X105247619Y-70519047D02*
X105247619Y-69900000D01*
X104866666Y-70233333D01*
X104866666Y-70090476D01*
X104819047Y-69995238D01*
X104771428Y-69947619D01*
X104676190Y-69900000D01*
X104438095Y-69900000D01*
X104342857Y-69947619D01*
X104295238Y-69995238D01*
X104247619Y-70090476D01*
X104247619Y-70376190D01*
X104295238Y-70471428D01*
X104342857Y-70519047D01*
X104628571Y-68709523D02*
X104628571Y-67947619D01*
X104247619Y-68328571D02*
X105009523Y-68328571D01*
X105247619Y-66804761D02*
X105247619Y-66185714D01*
X104866666Y-66519047D01*
X104866666Y-66376190D01*
X104819047Y-66280952D01*
X104771428Y-66233333D01*
X104676190Y-66185714D01*
X104438095Y-66185714D01*
X104342857Y-66233333D01*
X104295238Y-66280952D01*
X104247619Y-66376190D01*
X104247619Y-66661904D01*
X104295238Y-66757142D01*
X104342857Y-66804761D01*
X105247619Y-65900000D02*
X104247619Y-65566666D01*
X105247619Y-65233333D01*
X105247619Y-64995238D02*
X105247619Y-64376190D01*
X104866666Y-64709523D01*
X104866666Y-64566666D01*
X104819047Y-64471428D01*
X104771428Y-64423809D01*
X104676190Y-64376190D01*
X104438095Y-64376190D01*
X104342857Y-64423809D01*
X104295238Y-64471428D01*
X104247619Y-64566666D01*
X104247619Y-64852380D01*
X104295238Y-64947619D01*
X104342857Y-64995238D01*
X104533333Y-63995238D02*
X104533333Y-63519047D01*
X104247619Y-64090476D02*
X105247619Y-63757142D01*
X104247619Y-63423809D01*
D11*
X93000000Y-67570000D02*
X95000000Y-67570000D01*
X95000000Y-65430000D02*
X93000000Y-65430000D01*
X100100000Y-70470000D02*
X102100000Y-70470000D01*
X102100000Y-68330000D02*
X100100000Y-68330000D01*
X95000000Y-68330000D02*
X93000000Y-68330000D01*
X93000000Y-70470000D02*
X95000000Y-70470000D01*
X100100000Y-67670000D02*
X102100000Y-67670000D01*
X102100000Y-65530000D02*
X100100000Y-65530000D01*
D10*
X94833333Y-64102380D02*
X94833333Y-64816666D01*
X94880952Y-64959523D01*
X94976190Y-65054761D01*
X95119047Y-65102380D01*
X95214285Y-65102380D01*
X94357142Y-65102380D02*
X94357142Y-64102380D01*
X93976190Y-64102380D01*
X93880952Y-64150000D01*
X93833333Y-64197619D01*
X93785714Y-64292857D01*
X93785714Y-64435714D01*
X93833333Y-64530952D01*
X93880952Y-64578571D01*
X93976190Y-64626190D01*
X94357142Y-64626190D01*
X92928571Y-64435714D02*
X92928571Y-65102380D01*
X93166666Y-64054761D02*
X93404761Y-64769047D01*
X92785714Y-64769047D01*
X102133333Y-70752380D02*
X102133333Y-71466666D01*
X102180952Y-71609523D01*
X102276190Y-71704761D01*
X102419047Y-71752380D01*
X102514285Y-71752380D01*
X101657142Y-71752380D02*
X101657142Y-70752380D01*
X101276190Y-70752380D01*
X101180952Y-70800000D01*
X101133333Y-70847619D01*
X101085714Y-70942857D01*
X101085714Y-71085714D01*
X101133333Y-71180952D01*
X101180952Y-71228571D01*
X101276190Y-71276190D01*
X101657142Y-71276190D01*
X100752380Y-70752380D02*
X100133333Y-70752380D01*
X100466666Y-71133333D01*
X100323809Y-71133333D01*
X100228571Y-71180952D01*
X100180952Y-71228571D01*
X100133333Y-71323809D01*
X100133333Y-71561904D01*
X100180952Y-71657142D01*
X100228571Y-71704761D01*
X100323809Y-71752380D01*
X100609523Y-71752380D01*
X100704761Y-71704761D01*
X100752380Y-71657142D01*
X94833333Y-70702380D02*
X94833333Y-71416666D01*
X94880952Y-71559523D01*
X94976190Y-71654761D01*
X95119047Y-71702380D01*
X95214285Y-71702380D01*
X94357142Y-71702380D02*
X94357142Y-70702380D01*
X93976190Y-70702380D01*
X93880952Y-70750000D01*
X93833333Y-70797619D01*
X93785714Y-70892857D01*
X93785714Y-71035714D01*
X93833333Y-71130952D01*
X93880952Y-71178571D01*
X93976190Y-71226190D01*
X94357142Y-71226190D01*
X93404761Y-70797619D02*
X93357142Y-70750000D01*
X93261904Y-70702380D01*
X93023809Y-70702380D01*
X92928571Y-70750000D01*
X92880952Y-70797619D01*
X92833333Y-70892857D01*
X92833333Y-70988095D01*
X92880952Y-71130952D01*
X93452380Y-71702380D01*
X92833333Y-71702380D01*
X101933333Y-64202380D02*
X101933333Y-64916666D01*
X101980952Y-65059523D01*
X102076190Y-65154761D01*
X102219047Y-65202380D01*
X102314285Y-65202380D01*
X101457142Y-65202380D02*
X101457142Y-64202380D01*
X101076190Y-64202380D01*
X100980952Y-64250000D01*
X100933333Y-64297619D01*
X100885714Y-64392857D01*
X100885714Y-64535714D01*
X100933333Y-64630952D01*
X100980952Y-64678571D01*
X101076190Y-64726190D01*
X101457142Y-64726190D01*
X99933333Y-65202380D02*
X100504761Y-65202380D01*
X100219047Y-65202380D02*
X100219047Y-64202380D01*
X100314285Y-64345238D01*
X100409523Y-64440476D01*
X100504761Y-64488095D01*
M02*
