M48
; DRILL file {KiCad (5.1.5)-3} date 29/11/2020 18:58:40
; FORMAT={-:-/ absolute / inch / decimal}
; #@! TF.CreationDate,2020-11-29T18:58:40+00:00
; #@! TF.GenerationSoftware,Kicad,Pcbnew,(5.1.5)-3
; #@! TF.FileFunction,Plated,1,2,PTH
FMAT,2
INCH
T1C0.0236
T2C0.0394
T3C0.0512
%
G90
G05
T1
X3.3858Y-2.7362
X3.3858Y-2.8543
X3.4134Y-2.5709
X3.5039Y-2.5748
X3.5945Y-2.7047
X3.8189Y-2.7323
X3.9843Y-2.8583
X4.0374Y-2.3287
X4.0827Y-2.4606
X4.1417Y-2.4016
X4.1575Y-2.6378
X4.2441Y-2.8346
X4.3504Y-2.7362
T2
X3.6811Y-2.1047
X3.6811Y-2.2047
X3.7811Y-2.1047
X3.7811Y-2.2047
X3.8811Y-2.1047
X3.8811Y-2.2047
X3.9811Y-2.1047
X3.9811Y-2.2047
X4.0811Y-2.1047
X4.0811Y-2.2047
T3
X3.7677Y-2.8504
X4.3386Y-2.0236
X4.3307Y-2.8543
X3.4252Y-2.0276
T0
M30
