G04 #@! TF.GenerationSoftware,KiCad,Pcbnew,(5.1.9)-1*
G04 #@! TF.CreationDate,2021-03-14T15:39:00+00:00*
G04 #@! TF.ProjectId,Retrospector_Panel,52657472-6f73-4706-9563-746f725f5061,rev?*
G04 #@! TF.SameCoordinates,Original*
G04 #@! TF.FileFunction,Legend,Top*
G04 #@! TF.FilePolarity,Positive*
%FSLAX46Y46*%
G04 Gerber Fmt 4.6, Leading zero omitted, Abs format (unit mm)*
G04 Created by KiCad (PCBNEW (5.1.9)-1) date 2021-03-14 15:39:00*
%MOMM*%
%LPD*%
G01*
G04 APERTURE LIST*
%ADD10C,0.150000*%
%ADD11C,0.300000*%
G04 APERTURE END LIST*
D10*
X135619047Y-165452380D02*
X135619047Y-166166666D01*
X135666666Y-166309523D01*
X135761904Y-166404761D01*
X135904761Y-166452380D01*
X136000000Y-166452380D01*
X134666666Y-166452380D02*
X135142857Y-166452380D01*
X135142857Y-165452380D01*
X133761904Y-166357142D02*
X133809523Y-166404761D01*
X133952380Y-166452380D01*
X134047619Y-166452380D01*
X134190476Y-166404761D01*
X134285714Y-166309523D01*
X134333333Y-166214285D01*
X134380952Y-166023809D01*
X134380952Y-165880952D01*
X134333333Y-165690476D01*
X134285714Y-165595238D01*
X134190476Y-165500000D01*
X134047619Y-165452380D01*
X133952380Y-165452380D01*
X133809523Y-165500000D01*
X133761904Y-165547619D01*
X133047619Y-165452380D02*
X133047619Y-166166666D01*
X133095238Y-166309523D01*
X133190476Y-166404761D01*
X133333333Y-166452380D01*
X133428571Y-166452380D01*
X132095238Y-166452380D02*
X132571428Y-166452380D01*
X132571428Y-165452380D01*
X131190476Y-166357142D02*
X131238095Y-166404761D01*
X131380952Y-166452380D01*
X131476190Y-166452380D01*
X131619047Y-166404761D01*
X131714285Y-166309523D01*
X131761904Y-166214285D01*
X131809523Y-166023809D01*
X131809523Y-165880952D01*
X131761904Y-165690476D01*
X131714285Y-165595238D01*
X131619047Y-165500000D01*
X131476190Y-165452380D01*
X131380952Y-165452380D01*
X131238095Y-165500000D01*
X131190476Y-165547619D01*
X130476190Y-165452380D02*
X130476190Y-166166666D01*
X130523809Y-166309523D01*
X130619047Y-166404761D01*
X130761904Y-166452380D01*
X130857142Y-166452380D01*
X129523809Y-166452380D02*
X130000000Y-166452380D01*
X130000000Y-165452380D01*
X128619047Y-166357142D02*
X128666666Y-166404761D01*
X128809523Y-166452380D01*
X128904761Y-166452380D01*
X129047619Y-166404761D01*
X129142857Y-166309523D01*
X129190476Y-166214285D01*
X129238095Y-166023809D01*
X129238095Y-165880952D01*
X129190476Y-165690476D01*
X129142857Y-165595238D01*
X129047619Y-165500000D01*
X128904761Y-165452380D01*
X128809523Y-165452380D01*
X128666666Y-165500000D01*
X128619047Y-165547619D01*
X127904761Y-165452380D02*
X127904761Y-166166666D01*
X127952380Y-166309523D01*
X128047619Y-166404761D01*
X128190476Y-166452380D01*
X128285714Y-166452380D01*
X126952380Y-166452380D02*
X127428571Y-166452380D01*
X127428571Y-165452380D01*
X126047619Y-166357142D02*
X126095238Y-166404761D01*
X126238095Y-166452380D01*
X126333333Y-166452380D01*
X126476190Y-166404761D01*
X126571428Y-166309523D01*
X126619047Y-166214285D01*
X126666666Y-166023809D01*
X126666666Y-165880952D01*
X126619047Y-165690476D01*
X126571428Y-165595238D01*
X126476190Y-165500000D01*
X126333333Y-165452380D01*
X126238095Y-165452380D01*
X126095238Y-165500000D01*
X126047619Y-165547619D01*
D11*
X118535714Y-45403571D02*
X118035714Y-44689285D01*
X117678571Y-45403571D02*
X117678571Y-43903571D01*
X118250000Y-43903571D01*
X118392857Y-43975000D01*
X118464285Y-44046428D01*
X118535714Y-44189285D01*
X118535714Y-44403571D01*
X118464285Y-44546428D01*
X118392857Y-44617857D01*
X118250000Y-44689285D01*
X117678571Y-44689285D01*
X119750000Y-45332142D02*
X119607142Y-45403571D01*
X119321428Y-45403571D01*
X119178571Y-45332142D01*
X119107142Y-45189285D01*
X119107142Y-44617857D01*
X119178571Y-44475000D01*
X119321428Y-44403571D01*
X119607142Y-44403571D01*
X119750000Y-44475000D01*
X119821428Y-44617857D01*
X119821428Y-44760714D01*
X119107142Y-44903571D01*
X120250000Y-44403571D02*
X120821428Y-44403571D01*
X120464285Y-43903571D02*
X120464285Y-45189285D01*
X120535714Y-45332142D01*
X120678571Y-45403571D01*
X120821428Y-45403571D01*
X121321428Y-45403571D02*
X121321428Y-44403571D01*
X121321428Y-44689285D02*
X121392857Y-44546428D01*
X121464285Y-44475000D01*
X121607142Y-44403571D01*
X121750000Y-44403571D01*
X122464285Y-45403571D02*
X122321428Y-45332142D01*
X122250000Y-45260714D01*
X122178571Y-45117857D01*
X122178571Y-44689285D01*
X122250000Y-44546428D01*
X122321428Y-44475000D01*
X122464285Y-44403571D01*
X122678571Y-44403571D01*
X122821428Y-44475000D01*
X122892857Y-44546428D01*
X122964285Y-44689285D01*
X122964285Y-45117857D01*
X122892857Y-45260714D01*
X122821428Y-45332142D01*
X122678571Y-45403571D01*
X122464285Y-45403571D01*
X123535714Y-45332142D02*
X123678571Y-45403571D01*
X123964285Y-45403571D01*
X124107142Y-45332142D01*
X124178571Y-45189285D01*
X124178571Y-45117857D01*
X124107142Y-44975000D01*
X123964285Y-44903571D01*
X123750000Y-44903571D01*
X123607142Y-44832142D01*
X123535714Y-44689285D01*
X123535714Y-44617857D01*
X123607142Y-44475000D01*
X123750000Y-44403571D01*
X123964285Y-44403571D01*
X124107142Y-44475000D01*
X124821428Y-44403571D02*
X124821428Y-45903571D01*
X124821428Y-44475000D02*
X124964285Y-44403571D01*
X125250000Y-44403571D01*
X125392857Y-44475000D01*
X125464285Y-44546428D01*
X125535714Y-44689285D01*
X125535714Y-45117857D01*
X125464285Y-45260714D01*
X125392857Y-45332142D01*
X125250000Y-45403571D01*
X124964285Y-45403571D01*
X124821428Y-45332142D01*
X126750000Y-45332142D02*
X126607142Y-45403571D01*
X126321428Y-45403571D01*
X126178571Y-45332142D01*
X126107142Y-45189285D01*
X126107142Y-44617857D01*
X126178571Y-44475000D01*
X126321428Y-44403571D01*
X126607142Y-44403571D01*
X126750000Y-44475000D01*
X126821428Y-44617857D01*
X126821428Y-44760714D01*
X126107142Y-44903571D01*
X128107142Y-45332142D02*
X127964285Y-45403571D01*
X127678571Y-45403571D01*
X127535714Y-45332142D01*
X127464285Y-45260714D01*
X127392857Y-45117857D01*
X127392857Y-44689285D01*
X127464285Y-44546428D01*
X127535714Y-44475000D01*
X127678571Y-44403571D01*
X127964285Y-44403571D01*
X128107142Y-44475000D01*
X128535714Y-44403571D02*
X129107142Y-44403571D01*
X128750000Y-43903571D02*
X128750000Y-45189285D01*
X128821428Y-45332142D01*
X128964285Y-45403571D01*
X129107142Y-45403571D01*
X129821428Y-45403571D02*
X129678571Y-45332142D01*
X129607142Y-45260714D01*
X129535714Y-45117857D01*
X129535714Y-44689285D01*
X129607142Y-44546428D01*
X129678571Y-44475000D01*
X129821428Y-44403571D01*
X130035714Y-44403571D01*
X130178571Y-44475000D01*
X130250000Y-44546428D01*
X130321428Y-44689285D01*
X130321428Y-45117857D01*
X130250000Y-45260714D01*
X130178571Y-45332142D01*
X130035714Y-45403571D01*
X129821428Y-45403571D01*
X130964285Y-45403571D02*
X130964285Y-44403571D01*
X130964285Y-44689285D02*
X131035714Y-44546428D01*
X131107142Y-44475000D01*
X131250000Y-44403571D01*
X131392857Y-44403571D01*
X133035714Y-45403571D02*
X133035714Y-43903571D01*
X133607142Y-43903571D01*
X133750000Y-43975000D01*
X133821428Y-44046428D01*
X133892857Y-44189285D01*
X133892857Y-44403571D01*
X133821428Y-44546428D01*
X133750000Y-44617857D01*
X133607142Y-44689285D01*
X133035714Y-44689285D01*
X135178571Y-45403571D02*
X135178571Y-44617857D01*
X135107142Y-44475000D01*
X134964285Y-44403571D01*
X134678571Y-44403571D01*
X134535714Y-44475000D01*
X135178571Y-45332142D02*
X135035714Y-45403571D01*
X134678571Y-45403571D01*
X134535714Y-45332142D01*
X134464285Y-45189285D01*
X134464285Y-45046428D01*
X134535714Y-44903571D01*
X134678571Y-44832142D01*
X135035714Y-44832142D01*
X135178571Y-44760714D01*
X135892857Y-44403571D02*
X135892857Y-45403571D01*
X135892857Y-44546428D02*
X135964285Y-44475000D01*
X136107142Y-44403571D01*
X136321428Y-44403571D01*
X136464285Y-44475000D01*
X136535714Y-44617857D01*
X136535714Y-45403571D01*
X137821428Y-45332142D02*
X137678571Y-45403571D01*
X137392857Y-45403571D01*
X137250000Y-45332142D01*
X137178571Y-45189285D01*
X137178571Y-44617857D01*
X137250000Y-44475000D01*
X137392857Y-44403571D01*
X137678571Y-44403571D01*
X137821428Y-44475000D01*
X137892857Y-44617857D01*
X137892857Y-44760714D01*
X137178571Y-44903571D01*
X138750000Y-45403571D02*
X138607142Y-45332142D01*
X138535714Y-45189285D01*
X138535714Y-43903571D01*
X140321428Y-44403571D02*
X140678571Y-45403571D01*
X141035714Y-44403571D01*
X141535714Y-44046428D02*
X141607142Y-43975000D01*
X141750000Y-43903571D01*
X142107142Y-43903571D01*
X142250000Y-43975000D01*
X142321428Y-44046428D01*
X142392857Y-44189285D01*
X142392857Y-44332142D01*
X142321428Y-44546428D01*
X141464285Y-45403571D01*
X142392857Y-45403571D01*
X120428571Y-47953571D02*
X120428571Y-46453571D01*
X120928571Y-47525000D01*
X121428571Y-46453571D01*
X121428571Y-47953571D01*
X122357142Y-47953571D02*
X122214285Y-47882142D01*
X122142857Y-47810714D01*
X122071428Y-47667857D01*
X122071428Y-47239285D01*
X122142857Y-47096428D01*
X122214285Y-47025000D01*
X122357142Y-46953571D01*
X122571428Y-46953571D01*
X122714285Y-47025000D01*
X122785714Y-47096428D01*
X122857142Y-47239285D01*
X122857142Y-47667857D01*
X122785714Y-47810714D01*
X122714285Y-47882142D01*
X122571428Y-47953571D01*
X122357142Y-47953571D01*
X124142857Y-46953571D02*
X124142857Y-47953571D01*
X123500000Y-46953571D02*
X123500000Y-47739285D01*
X123571428Y-47882142D01*
X123714285Y-47953571D01*
X123928571Y-47953571D01*
X124071428Y-47882142D01*
X124142857Y-47810714D01*
X124857142Y-46953571D02*
X124857142Y-47953571D01*
X124857142Y-47096428D02*
X124928571Y-47025000D01*
X125071428Y-46953571D01*
X125285714Y-46953571D01*
X125428571Y-47025000D01*
X125500000Y-47167857D01*
X125500000Y-47953571D01*
X126000000Y-46953571D02*
X126571428Y-46953571D01*
X126214285Y-46453571D02*
X126214285Y-47739285D01*
X126285714Y-47882142D01*
X126428571Y-47953571D01*
X126571428Y-47953571D01*
X127071428Y-46953571D02*
X127071428Y-48239285D01*
X127000000Y-48382142D01*
X126857142Y-48453571D01*
X126785714Y-48453571D01*
X127071428Y-46453571D02*
X127000000Y-46525000D01*
X127071428Y-46596428D01*
X127142857Y-46525000D01*
X127071428Y-46453571D01*
X127071428Y-46596428D01*
X128000000Y-47953571D02*
X127857142Y-47882142D01*
X127785714Y-47810714D01*
X127714285Y-47667857D01*
X127714285Y-47239285D01*
X127785714Y-47096428D01*
X127857142Y-47025000D01*
X128000000Y-46953571D01*
X128214285Y-46953571D01*
X128357142Y-47025000D01*
X128428571Y-47096428D01*
X128500000Y-47239285D01*
X128500000Y-47667857D01*
X128428571Y-47810714D01*
X128357142Y-47882142D01*
X128214285Y-47953571D01*
X128000000Y-47953571D01*
X129000000Y-46953571D02*
X129357142Y-47953571D01*
X129714285Y-46953571D02*
X129357142Y-47953571D01*
X129214285Y-48310714D01*
X129142857Y-48382142D01*
X129000000Y-48453571D01*
X131428571Y-47953571D02*
X131428571Y-46453571D01*
X131928571Y-47525000D01*
X132428571Y-46453571D01*
X132428571Y-47953571D01*
X133357142Y-47953571D02*
X133214285Y-47882142D01*
X133142857Y-47810714D01*
X133071428Y-47667857D01*
X133071428Y-47239285D01*
X133142857Y-47096428D01*
X133214285Y-47025000D01*
X133357142Y-46953571D01*
X133571428Y-46953571D01*
X133714285Y-47025000D01*
X133785714Y-47096428D01*
X133857142Y-47239285D01*
X133857142Y-47667857D01*
X133785714Y-47810714D01*
X133714285Y-47882142D01*
X133571428Y-47953571D01*
X133357142Y-47953571D01*
X135142857Y-47953571D02*
X135142857Y-46453571D01*
X135142857Y-47882142D02*
X135000000Y-47953571D01*
X134714285Y-47953571D01*
X134571428Y-47882142D01*
X134500000Y-47810714D01*
X134428571Y-47667857D01*
X134428571Y-47239285D01*
X134500000Y-47096428D01*
X134571428Y-47025000D01*
X134714285Y-46953571D01*
X135000000Y-46953571D01*
X135142857Y-47025000D01*
X136500000Y-46953571D02*
X136500000Y-47953571D01*
X135857142Y-46953571D02*
X135857142Y-47739285D01*
X135928571Y-47882142D01*
X136071428Y-47953571D01*
X136285714Y-47953571D01*
X136428571Y-47882142D01*
X136500000Y-47810714D01*
X137428571Y-47953571D02*
X137285714Y-47882142D01*
X137214285Y-47739285D01*
X137214285Y-46453571D01*
X138642857Y-47953571D02*
X138642857Y-47167857D01*
X138571428Y-47025000D01*
X138428571Y-46953571D01*
X138142857Y-46953571D01*
X138000000Y-47025000D01*
X138642857Y-47882142D02*
X138500000Y-47953571D01*
X138142857Y-47953571D01*
X138000000Y-47882142D01*
X137928571Y-47739285D01*
X137928571Y-47596428D01*
X138000000Y-47453571D01*
X138142857Y-47382142D01*
X138500000Y-47382142D01*
X138642857Y-47310714D01*
X139357142Y-47953571D02*
X139357142Y-46953571D01*
X139357142Y-47239285D02*
X139428571Y-47096428D01*
X139500000Y-47025000D01*
X139642857Y-46953571D01*
X139785714Y-46953571D01*
M02*
