G04 #@! TF.GenerationSoftware,KiCad,Pcbnew,(5.1.5)-3*
G04 #@! TF.CreationDate,2020-11-23T20:36:50+00:00*
G04 #@! TF.ProjectId,Retrospector_Components,52657472-6f73-4706-9563-746f725f436f,rev?*
G04 #@! TF.SameCoordinates,Original*
G04 #@! TF.FileFunction,Legend,Bot*
G04 #@! TF.FilePolarity,Positive*
%FSLAX46Y46*%
G04 Gerber Fmt 4.6, Leading zero omitted, Abs format (unit mm)*
G04 Created by KiCad (PCBNEW (5.1.5)-3) date 2020-11-23 20:36:50*
%MOMM*%
%LPD*%
G04 APERTURE LIST*
%ADD10C,0.120000*%
%ADD11C,0.150000*%
G04 APERTURE END LIST*
D10*
X145690000Y-62720000D02*
X145690000Y-62320000D01*
X141110000Y-63490000D02*
X141110000Y-62320000D01*
X141110000Y-58910000D02*
X141110000Y-60080000D01*
X145690000Y-59680000D02*
X145690000Y-60080000D01*
X144920000Y-63490000D02*
X141110000Y-63490000D01*
X144920000Y-63490000D02*
X145690000Y-62720000D01*
X144920000Y-58910000D02*
X141110000Y-58910000D01*
X144920000Y-58910000D02*
X145690000Y-59680000D01*
X145690000Y-57220000D02*
X145690000Y-56820000D01*
X141110000Y-57990000D02*
X141110000Y-56820000D01*
X141110000Y-53410000D02*
X141110000Y-54580000D01*
X145690000Y-54180000D02*
X145690000Y-54580000D01*
X144920000Y-57990000D02*
X141110000Y-57990000D01*
X144920000Y-57990000D02*
X145690000Y-57220000D01*
X144920000Y-53410000D02*
X141110000Y-53410000D01*
X144920000Y-53410000D02*
X145690000Y-54180000D01*
X136775000Y-64650000D02*
X136775000Y-64300000D01*
X136775000Y-64300000D02*
X135275000Y-64300000D01*
X136775000Y-69300000D02*
X136775000Y-66100000D01*
X135275000Y-71100000D02*
X136775000Y-71100000D01*
X136775000Y-71100000D02*
X136775000Y-70700000D01*
X158830000Y-149110000D02*
X156170000Y-149110000D01*
X158830000Y-131270000D02*
X158830000Y-149110000D01*
X156170000Y-131270000D02*
X156170000Y-149110000D01*
X158830000Y-131270000D02*
X156170000Y-131270000D01*
X158830000Y-130000000D02*
X158830000Y-128670000D01*
X158830000Y-128670000D02*
X157500000Y-128670000D01*
X158830000Y-82610000D02*
X156170000Y-82610000D01*
X158830000Y-64770000D02*
X158830000Y-82610000D01*
X156170000Y-64770000D02*
X156170000Y-82610000D01*
X158830000Y-64770000D02*
X156170000Y-64770000D01*
X158830000Y-63500000D02*
X158830000Y-62170000D01*
X158830000Y-62170000D02*
X157500000Y-62170000D01*
X103830000Y-149110000D02*
X101170000Y-149110000D01*
X103830000Y-131270000D02*
X103830000Y-149110000D01*
X101170000Y-131270000D02*
X101170000Y-149110000D01*
X103830000Y-131270000D02*
X101170000Y-131270000D01*
X103830000Y-130000000D02*
X103830000Y-128670000D01*
X103830000Y-128670000D02*
X102500000Y-128670000D01*
X103830000Y-82610000D02*
X101170000Y-82610000D01*
X103830000Y-64770000D02*
X103830000Y-82610000D01*
X101170000Y-64770000D02*
X101170000Y-82610000D01*
X103830000Y-64770000D02*
X101170000Y-64770000D01*
X103830000Y-63500000D02*
X103830000Y-62170000D01*
X103830000Y-62170000D02*
X102500000Y-62170000D01*
D11*
X144042857Y-65097142D02*
X144090476Y-65144761D01*
X144233333Y-65192380D01*
X144328571Y-65192380D01*
X144471428Y-65144761D01*
X144566666Y-65049523D01*
X144614285Y-64954285D01*
X144661904Y-64763809D01*
X144661904Y-64620952D01*
X144614285Y-64430476D01*
X144566666Y-64335238D01*
X144471428Y-64240000D01*
X144328571Y-64192380D01*
X144233333Y-64192380D01*
X144090476Y-64240000D01*
X144042857Y-64287619D01*
X143138095Y-64192380D02*
X143614285Y-64192380D01*
X143661904Y-64668571D01*
X143614285Y-64620952D01*
X143519047Y-64573333D01*
X143280952Y-64573333D01*
X143185714Y-64620952D01*
X143138095Y-64668571D01*
X143090476Y-64763809D01*
X143090476Y-65001904D01*
X143138095Y-65097142D01*
X143185714Y-65144761D01*
X143280952Y-65192380D01*
X143519047Y-65192380D01*
X143614285Y-65144761D01*
X143661904Y-65097142D01*
X142233333Y-64525714D02*
X142233333Y-65192380D01*
X142471428Y-64144761D02*
X142709523Y-64859047D01*
X142090476Y-64859047D01*
X146560952Y-63281428D02*
X145799047Y-63281428D01*
X146180000Y-63662380D02*
X146180000Y-62900476D01*
X144042857Y-52657142D02*
X144090476Y-52704761D01*
X144233333Y-52752380D01*
X144328571Y-52752380D01*
X144471428Y-52704761D01*
X144566666Y-52609523D01*
X144614285Y-52514285D01*
X144661904Y-52323809D01*
X144661904Y-52180952D01*
X144614285Y-51990476D01*
X144566666Y-51895238D01*
X144471428Y-51800000D01*
X144328571Y-51752380D01*
X144233333Y-51752380D01*
X144090476Y-51800000D01*
X144042857Y-51847619D01*
X143709523Y-51752380D02*
X143090476Y-51752380D01*
X143423809Y-52133333D01*
X143280952Y-52133333D01*
X143185714Y-52180952D01*
X143138095Y-52228571D01*
X143090476Y-52323809D01*
X143090476Y-52561904D01*
X143138095Y-52657142D01*
X143185714Y-52704761D01*
X143280952Y-52752380D01*
X143566666Y-52752380D01*
X143661904Y-52704761D01*
X143709523Y-52657142D01*
X142614285Y-52752380D02*
X142423809Y-52752380D01*
X142328571Y-52704761D01*
X142280952Y-52657142D01*
X142185714Y-52514285D01*
X142138095Y-52323809D01*
X142138095Y-51942857D01*
X142185714Y-51847619D01*
X142233333Y-51800000D01*
X142328571Y-51752380D01*
X142519047Y-51752380D01*
X142614285Y-51800000D01*
X142661904Y-51847619D01*
X142709523Y-51942857D01*
X142709523Y-52180952D01*
X142661904Y-52276190D01*
X142614285Y-52323809D01*
X142519047Y-52371428D01*
X142328571Y-52371428D01*
X142233333Y-52323809D01*
X142185714Y-52276190D01*
X142138095Y-52180952D01*
X146560952Y-57781428D02*
X145799047Y-57781428D01*
X146180000Y-58162380D02*
X146180000Y-57400476D01*
X138761904Y-62602380D02*
X138761904Y-63411904D01*
X138714285Y-63507142D01*
X138666666Y-63554761D01*
X138571428Y-63602380D01*
X138380952Y-63602380D01*
X138285714Y-63554761D01*
X138238095Y-63507142D01*
X138190476Y-63411904D01*
X138190476Y-62602380D01*
X137666666Y-63602380D02*
X137476190Y-63602380D01*
X137380952Y-63554761D01*
X137333333Y-63507142D01*
X137238095Y-63364285D01*
X137190476Y-63173809D01*
X137190476Y-62792857D01*
X137238095Y-62697619D01*
X137285714Y-62650000D01*
X137380952Y-62602380D01*
X137571428Y-62602380D01*
X137666666Y-62650000D01*
X137714285Y-62697619D01*
X137761904Y-62792857D01*
X137761904Y-63030952D01*
X137714285Y-63126190D01*
X137666666Y-63173809D01*
X137571428Y-63221428D01*
X137380952Y-63221428D01*
X137285714Y-63173809D01*
X137238095Y-63126190D01*
X137190476Y-63030952D01*
X157833333Y-127122380D02*
X157833333Y-127836666D01*
X157880952Y-127979523D01*
X157976190Y-128074761D01*
X158119047Y-128122380D01*
X158214285Y-128122380D01*
X156928571Y-127122380D02*
X157119047Y-127122380D01*
X157214285Y-127170000D01*
X157261904Y-127217619D01*
X157357142Y-127360476D01*
X157404761Y-127550952D01*
X157404761Y-127931904D01*
X157357142Y-128027142D01*
X157309523Y-128074761D01*
X157214285Y-128122380D01*
X157023809Y-128122380D01*
X156928571Y-128074761D01*
X156880952Y-128027142D01*
X156833333Y-127931904D01*
X156833333Y-127693809D01*
X156880952Y-127598571D01*
X156928571Y-127550952D01*
X157023809Y-127503333D01*
X157214285Y-127503333D01*
X157309523Y-127550952D01*
X157357142Y-127598571D01*
X157404761Y-127693809D01*
X157833333Y-60622380D02*
X157833333Y-61336666D01*
X157880952Y-61479523D01*
X157976190Y-61574761D01*
X158119047Y-61622380D01*
X158214285Y-61622380D01*
X156880952Y-60622380D02*
X157357142Y-60622380D01*
X157404761Y-61098571D01*
X157357142Y-61050952D01*
X157261904Y-61003333D01*
X157023809Y-61003333D01*
X156928571Y-61050952D01*
X156880952Y-61098571D01*
X156833333Y-61193809D01*
X156833333Y-61431904D01*
X156880952Y-61527142D01*
X156928571Y-61574761D01*
X157023809Y-61622380D01*
X157261904Y-61622380D01*
X157357142Y-61574761D01*
X157404761Y-61527142D01*
X102833333Y-127122380D02*
X102833333Y-127836666D01*
X102880952Y-127979523D01*
X102976190Y-128074761D01*
X103119047Y-128122380D01*
X103214285Y-128122380D01*
X101928571Y-127455714D02*
X101928571Y-128122380D01*
X102166666Y-127074761D02*
X102404761Y-127789047D01*
X101785714Y-127789047D01*
X102833333Y-60622380D02*
X102833333Y-61336666D01*
X102880952Y-61479523D01*
X102976190Y-61574761D01*
X103119047Y-61622380D01*
X103214285Y-61622380D01*
X102452380Y-60622380D02*
X101833333Y-60622380D01*
X102166666Y-61003333D01*
X102023809Y-61003333D01*
X101928571Y-61050952D01*
X101880952Y-61098571D01*
X101833333Y-61193809D01*
X101833333Y-61431904D01*
X101880952Y-61527142D01*
X101928571Y-61574761D01*
X102023809Y-61622380D01*
X102309523Y-61622380D01*
X102404761Y-61574761D01*
X102452380Y-61527142D01*
M02*
