G04 #@! TF.GenerationSoftware,KiCad,Pcbnew,(5.1.5)-3*
G04 #@! TF.CreationDate,2020-11-28T16:28:13+00:00*
G04 #@! TF.ProjectId,Retrospector_Power_Test_TPS561201,52657472-6f73-4706-9563-746f725f506f,rev?*
G04 #@! TF.SameCoordinates,Original*
G04 #@! TF.FileFunction,Legend,Bot*
G04 #@! TF.FilePolarity,Positive*
%FSLAX46Y46*%
G04 Gerber Fmt 4.6, Leading zero omitted, Abs format (unit mm)*
G04 Created by KiCad (PCBNEW (5.1.5)-3) date 2020-11-28 16:28:13*
%MOMM*%
%LPD*%
G04 APERTURE LIST*
%ADD10C,0.150000*%
%ADD11C,0.120000*%
G04 APERTURE END LIST*
D10*
X108290476Y-50852380D02*
X108290476Y-49852380D01*
X107909523Y-49852380D01*
X107814285Y-49900000D01*
X107766666Y-49947619D01*
X107719047Y-50042857D01*
X107719047Y-50185714D01*
X107766666Y-50280952D01*
X107814285Y-50328571D01*
X107909523Y-50376190D01*
X108290476Y-50376190D01*
X107147619Y-50852380D02*
X107242857Y-50804761D01*
X107290476Y-50757142D01*
X107338095Y-50661904D01*
X107338095Y-50376190D01*
X107290476Y-50280952D01*
X107242857Y-50233333D01*
X107147619Y-50185714D01*
X107004761Y-50185714D01*
X106909523Y-50233333D01*
X106861904Y-50280952D01*
X106814285Y-50376190D01*
X106814285Y-50661904D01*
X106861904Y-50757142D01*
X106909523Y-50804761D01*
X107004761Y-50852380D01*
X107147619Y-50852380D01*
X106480952Y-50185714D02*
X106290476Y-50852380D01*
X106100000Y-50376190D01*
X105909523Y-50852380D01*
X105719047Y-50185714D01*
X104957142Y-50804761D02*
X105052380Y-50852380D01*
X105242857Y-50852380D01*
X105338095Y-50804761D01*
X105385714Y-50709523D01*
X105385714Y-50328571D01*
X105338095Y-50233333D01*
X105242857Y-50185714D01*
X105052380Y-50185714D01*
X104957142Y-50233333D01*
X104909523Y-50328571D01*
X104909523Y-50423809D01*
X105385714Y-50519047D01*
X104480952Y-50852380D02*
X104480952Y-50185714D01*
X104480952Y-50376190D02*
X104433333Y-50280952D01*
X104385714Y-50233333D01*
X104290476Y-50185714D01*
X104195238Y-50185714D01*
X103242857Y-49852380D02*
X102671428Y-49852380D01*
X102957142Y-50852380D02*
X102957142Y-49852380D01*
X101957142Y-50804761D02*
X102052380Y-50852380D01*
X102242857Y-50852380D01*
X102338095Y-50804761D01*
X102385714Y-50709523D01*
X102385714Y-50328571D01*
X102338095Y-50233333D01*
X102242857Y-50185714D01*
X102052380Y-50185714D01*
X101957142Y-50233333D01*
X101909523Y-50328571D01*
X101909523Y-50423809D01*
X102385714Y-50519047D01*
X101528571Y-50804761D02*
X101433333Y-50852380D01*
X101242857Y-50852380D01*
X101147619Y-50804761D01*
X101100000Y-50709523D01*
X101100000Y-50661904D01*
X101147619Y-50566666D01*
X101242857Y-50519047D01*
X101385714Y-50519047D01*
X101480952Y-50471428D01*
X101528571Y-50376190D01*
X101528571Y-50328571D01*
X101480952Y-50233333D01*
X101385714Y-50185714D01*
X101242857Y-50185714D01*
X101147619Y-50233333D01*
X100814285Y-50185714D02*
X100433333Y-50185714D01*
X100671428Y-49852380D02*
X100671428Y-50709523D01*
X100623809Y-50804761D01*
X100528571Y-50852380D01*
X100433333Y-50852380D01*
X99433333Y-50185714D02*
X99195238Y-50852380D01*
X98957142Y-50185714D01*
X98052380Y-50852380D02*
X98623809Y-50852380D01*
X98338095Y-50852380D02*
X98338095Y-49852380D01*
X98433333Y-49995238D01*
X98528571Y-50090476D01*
X98623809Y-50138095D01*
X97004761Y-49852380D02*
X96433333Y-49852380D01*
X96719047Y-50852380D02*
X96719047Y-49852380D01*
X96100000Y-50852380D02*
X96100000Y-49852380D01*
X95719047Y-49852380D01*
X95623809Y-49900000D01*
X95576190Y-49947619D01*
X95528571Y-50042857D01*
X95528571Y-50185714D01*
X95576190Y-50280952D01*
X95623809Y-50328571D01*
X95719047Y-50376190D01*
X96100000Y-50376190D01*
X95147619Y-50804761D02*
X95004761Y-50852380D01*
X94766666Y-50852380D01*
X94671428Y-50804761D01*
X94623809Y-50757142D01*
X94576190Y-50661904D01*
X94576190Y-50566666D01*
X94623809Y-50471428D01*
X94671428Y-50423809D01*
X94766666Y-50376190D01*
X94957142Y-50328571D01*
X95052380Y-50280952D01*
X95100000Y-50233333D01*
X95147619Y-50138095D01*
X95147619Y-50042857D01*
X95100000Y-49947619D01*
X95052380Y-49900000D01*
X94957142Y-49852380D01*
X94719047Y-49852380D01*
X94576190Y-49900000D01*
X93671428Y-49852380D02*
X94147619Y-49852380D01*
X94195238Y-50328571D01*
X94147619Y-50280952D01*
X94052380Y-50233333D01*
X93814285Y-50233333D01*
X93719047Y-50280952D01*
X93671428Y-50328571D01*
X93623809Y-50423809D01*
X93623809Y-50661904D01*
X93671428Y-50757142D01*
X93719047Y-50804761D01*
X93814285Y-50852380D01*
X94052380Y-50852380D01*
X94147619Y-50804761D01*
X94195238Y-50757142D01*
X92766666Y-49852380D02*
X92957142Y-49852380D01*
X93052380Y-49900000D01*
X93100000Y-49947619D01*
X93195238Y-50090476D01*
X93242857Y-50280952D01*
X93242857Y-50661904D01*
X93195238Y-50757142D01*
X93147619Y-50804761D01*
X93052380Y-50852380D01*
X92861904Y-50852380D01*
X92766666Y-50804761D01*
X92719047Y-50757142D01*
X92671428Y-50661904D01*
X92671428Y-50423809D01*
X92719047Y-50328571D01*
X92766666Y-50280952D01*
X92861904Y-50233333D01*
X93052380Y-50233333D01*
X93147619Y-50280952D01*
X93195238Y-50328571D01*
X93242857Y-50423809D01*
X91719047Y-50852380D02*
X92290476Y-50852380D01*
X92004761Y-50852380D02*
X92004761Y-49852380D01*
X92100000Y-49995238D01*
X92195238Y-50090476D01*
X92290476Y-50138095D01*
X91338095Y-49947619D02*
X91290476Y-49900000D01*
X91195238Y-49852380D01*
X90957142Y-49852380D01*
X90861904Y-49900000D01*
X90814285Y-49947619D01*
X90766666Y-50042857D01*
X90766666Y-50138095D01*
X90814285Y-50280952D01*
X91385714Y-50852380D01*
X90766666Y-50852380D01*
X90147619Y-49852380D02*
X90052380Y-49852380D01*
X89957142Y-49900000D01*
X89909523Y-49947619D01*
X89861904Y-50042857D01*
X89814285Y-50233333D01*
X89814285Y-50471428D01*
X89861904Y-50661904D01*
X89909523Y-50757142D01*
X89957142Y-50804761D01*
X90052380Y-50852380D01*
X90147619Y-50852380D01*
X90242857Y-50804761D01*
X90290476Y-50757142D01*
X90338095Y-50661904D01*
X90385714Y-50471428D01*
X90385714Y-50233333D01*
X90338095Y-50042857D01*
X90290476Y-49947619D01*
X90242857Y-49900000D01*
X90147619Y-49852380D01*
X88861904Y-50852380D02*
X89433333Y-50852380D01*
X89147619Y-50852380D02*
X89147619Y-49852380D01*
X89242857Y-49995238D01*
X89338095Y-50090476D01*
X89433333Y-50138095D01*
X97500000Y-68800000D02*
X87900000Y-68800000D01*
X87900000Y-68800000D02*
X87900000Y-58600000D01*
X87900000Y-58600000D02*
X97500000Y-58600000D01*
X97500000Y-58600000D02*
X107100000Y-58600000D01*
X97500000Y-68800000D02*
X97500000Y-58600000D01*
X107100000Y-68800000D02*
X97500000Y-68800000D01*
X107100000Y-58600000D02*
X107100000Y-68800000D01*
X89652380Y-60447619D02*
X89652380Y-59971428D01*
X90128571Y-59923809D01*
X90080952Y-59971428D01*
X90033333Y-60066666D01*
X90033333Y-60304761D01*
X90080952Y-60400000D01*
X90128571Y-60447619D01*
X90223809Y-60495238D01*
X90461904Y-60495238D01*
X90557142Y-60447619D01*
X90604761Y-60400000D01*
X90652380Y-60304761D01*
X90652380Y-60066666D01*
X90604761Y-59971428D01*
X90557142Y-59923809D01*
X89652380Y-60780952D02*
X90652380Y-61114285D01*
X89652380Y-61447619D01*
X89985714Y-62542857D02*
X90271428Y-63304761D01*
X90557142Y-62542857D01*
X89652380Y-64447619D02*
X89652380Y-65066666D01*
X90033333Y-64733333D01*
X90033333Y-64876190D01*
X90080952Y-64971428D01*
X90128571Y-65019047D01*
X90223809Y-65066666D01*
X90461904Y-65066666D01*
X90557142Y-65019047D01*
X90604761Y-64971428D01*
X90652380Y-64876190D01*
X90652380Y-64590476D01*
X90604761Y-64495238D01*
X90557142Y-64447619D01*
X89652380Y-65352380D02*
X90652380Y-65685714D01*
X89652380Y-66019047D01*
X89652380Y-66257142D02*
X89652380Y-66876190D01*
X90033333Y-66542857D01*
X90033333Y-66685714D01*
X90080952Y-66780952D01*
X90128571Y-66828571D01*
X90223809Y-66876190D01*
X90461904Y-66876190D01*
X90557142Y-66828571D01*
X90604761Y-66780952D01*
X90652380Y-66685714D01*
X90652380Y-66400000D01*
X90604761Y-66304761D01*
X90557142Y-66257142D01*
X105247619Y-68128571D02*
X105247619Y-67509523D01*
X104866666Y-67842857D01*
X104866666Y-67700000D01*
X104819047Y-67604761D01*
X104771428Y-67557142D01*
X104676190Y-67509523D01*
X104438095Y-67509523D01*
X104342857Y-67557142D01*
X104295238Y-67604761D01*
X104247619Y-67700000D01*
X104247619Y-67985714D01*
X104295238Y-68080952D01*
X104342857Y-68128571D01*
X105247619Y-67223809D02*
X104247619Y-66890476D01*
X105247619Y-66557142D01*
X105247619Y-66319047D02*
X105247619Y-65700000D01*
X104866666Y-66033333D01*
X104866666Y-65890476D01*
X104819047Y-65795238D01*
X104771428Y-65747619D01*
X104676190Y-65700000D01*
X104438095Y-65700000D01*
X104342857Y-65747619D01*
X104295238Y-65795238D01*
X104247619Y-65890476D01*
X104247619Y-66176190D01*
X104295238Y-66271428D01*
X104342857Y-66319047D01*
X104628571Y-64509523D02*
X104628571Y-63747619D01*
X104247619Y-64128571D02*
X105009523Y-64128571D01*
X105247619Y-62604761D02*
X105247619Y-61985714D01*
X104866666Y-62319047D01*
X104866666Y-62176190D01*
X104819047Y-62080952D01*
X104771428Y-62033333D01*
X104676190Y-61985714D01*
X104438095Y-61985714D01*
X104342857Y-62033333D01*
X104295238Y-62080952D01*
X104247619Y-62176190D01*
X104247619Y-62461904D01*
X104295238Y-62557142D01*
X104342857Y-62604761D01*
X105247619Y-61700000D02*
X104247619Y-61366666D01*
X105247619Y-61033333D01*
X105247619Y-60795238D02*
X105247619Y-60176190D01*
X104866666Y-60509523D01*
X104866666Y-60366666D01*
X104819047Y-60271428D01*
X104771428Y-60223809D01*
X104676190Y-60176190D01*
X104438095Y-60176190D01*
X104342857Y-60223809D01*
X104295238Y-60271428D01*
X104247619Y-60366666D01*
X104247619Y-60652380D01*
X104295238Y-60747619D01*
X104342857Y-60795238D01*
X104533333Y-59795238D02*
X104533333Y-59319047D01*
X104247619Y-59890476D02*
X105247619Y-59557142D01*
X104247619Y-59223809D01*
D11*
X92800000Y-63270000D02*
X94800000Y-63270000D01*
X94800000Y-61130000D02*
X92800000Y-61130000D01*
X100200000Y-66170000D02*
X102200000Y-66170000D01*
X102200000Y-64030000D02*
X100200000Y-64030000D01*
X94800000Y-64030000D02*
X92800000Y-64030000D01*
X92800000Y-66170000D02*
X94800000Y-66170000D01*
X100200000Y-63370000D02*
X102200000Y-63370000D01*
X102200000Y-61230000D02*
X100200000Y-61230000D01*
D10*
X94633333Y-59802380D02*
X94633333Y-60516666D01*
X94680952Y-60659523D01*
X94776190Y-60754761D01*
X94919047Y-60802380D01*
X95014285Y-60802380D01*
X94157142Y-60802380D02*
X94157142Y-59802380D01*
X93776190Y-59802380D01*
X93680952Y-59850000D01*
X93633333Y-59897619D01*
X93585714Y-59992857D01*
X93585714Y-60135714D01*
X93633333Y-60230952D01*
X93680952Y-60278571D01*
X93776190Y-60326190D01*
X94157142Y-60326190D01*
X92728571Y-60135714D02*
X92728571Y-60802380D01*
X92966666Y-59754761D02*
X93204761Y-60469047D01*
X92585714Y-60469047D01*
X102233333Y-66452380D02*
X102233333Y-67166666D01*
X102280952Y-67309523D01*
X102376190Y-67404761D01*
X102519047Y-67452380D01*
X102614285Y-67452380D01*
X101757142Y-67452380D02*
X101757142Y-66452380D01*
X101376190Y-66452380D01*
X101280952Y-66500000D01*
X101233333Y-66547619D01*
X101185714Y-66642857D01*
X101185714Y-66785714D01*
X101233333Y-66880952D01*
X101280952Y-66928571D01*
X101376190Y-66976190D01*
X101757142Y-66976190D01*
X100852380Y-66452380D02*
X100233333Y-66452380D01*
X100566666Y-66833333D01*
X100423809Y-66833333D01*
X100328571Y-66880952D01*
X100280952Y-66928571D01*
X100233333Y-67023809D01*
X100233333Y-67261904D01*
X100280952Y-67357142D01*
X100328571Y-67404761D01*
X100423809Y-67452380D01*
X100709523Y-67452380D01*
X100804761Y-67404761D01*
X100852380Y-67357142D01*
X94633333Y-66402380D02*
X94633333Y-67116666D01*
X94680952Y-67259523D01*
X94776190Y-67354761D01*
X94919047Y-67402380D01*
X95014285Y-67402380D01*
X94157142Y-67402380D02*
X94157142Y-66402380D01*
X93776190Y-66402380D01*
X93680952Y-66450000D01*
X93633333Y-66497619D01*
X93585714Y-66592857D01*
X93585714Y-66735714D01*
X93633333Y-66830952D01*
X93680952Y-66878571D01*
X93776190Y-66926190D01*
X94157142Y-66926190D01*
X93204761Y-66497619D02*
X93157142Y-66450000D01*
X93061904Y-66402380D01*
X92823809Y-66402380D01*
X92728571Y-66450000D01*
X92680952Y-66497619D01*
X92633333Y-66592857D01*
X92633333Y-66688095D01*
X92680952Y-66830952D01*
X93252380Y-67402380D01*
X92633333Y-67402380D01*
X102033333Y-59902380D02*
X102033333Y-60616666D01*
X102080952Y-60759523D01*
X102176190Y-60854761D01*
X102319047Y-60902380D01*
X102414285Y-60902380D01*
X101557142Y-60902380D02*
X101557142Y-59902380D01*
X101176190Y-59902380D01*
X101080952Y-59950000D01*
X101033333Y-59997619D01*
X100985714Y-60092857D01*
X100985714Y-60235714D01*
X101033333Y-60330952D01*
X101080952Y-60378571D01*
X101176190Y-60426190D01*
X101557142Y-60426190D01*
X100033333Y-60902380D02*
X100604761Y-60902380D01*
X100319047Y-60902380D02*
X100319047Y-59902380D01*
X100414285Y-60045238D01*
X100509523Y-60140476D01*
X100604761Y-60188095D01*
M02*
