G04 #@! TF.GenerationSoftware,KiCad,Pcbnew,(5.1.5)-3*
G04 #@! TF.CreationDate,2020-11-28T16:28:13+00:00*
G04 #@! TF.ProjectId,Retrospector_Power_Test_TPS561201,52657472-6f73-4706-9563-746f725f506f,rev?*
G04 #@! TF.SameCoordinates,Original*
G04 #@! TF.FileFunction,Copper,L1,Top*
G04 #@! TF.FilePolarity,Positive*
%FSLAX46Y46*%
G04 Gerber Fmt 4.6, Leading zero omitted, Abs format (unit mm)*
G04 Created by KiCad (PCBNEW (5.1.5)-3) date 2020-11-28 16:28:13*
%MOMM*%
%LPD*%
G04 APERTURE LIST*
%ADD10C,0.100000*%
%ADD11R,0.700000X1.300000*%
%ADD12R,0.650000X1.560000*%
%ADD13R,1.600000X0.800000*%
%ADD14R,0.900000X1.700000*%
%ADD15R,1.300000X0.700000*%
%ADD16C,1.700000*%
%ADD17R,1.700000X1.700000*%
%ADD18R,3.800000X2.000000*%
%ADD19R,1.500000X2.000000*%
%ADD20R,1.200000X0.900000*%
%ADD21C,2.000000*%
%ADD22R,1.300000X1.500000*%
%ADD23R,1.600000X2.600000*%
%ADD24C,1.000000*%
%ADD25C,0.600000*%
%ADD26C,0.254000*%
G04 APERTURE END LIST*
D10*
G36*
X91000000Y-58500000D02*
G01*
X93000000Y-58500000D01*
X93000000Y-62500000D01*
X85000000Y-62500000D01*
X85000000Y-54500000D01*
X91000000Y-54500000D01*
X91000000Y-58500000D01*
G37*
X91000000Y-58500000D02*
X93000000Y-58500000D01*
X93000000Y-62500000D01*
X85000000Y-62500000D01*
X85000000Y-54500000D01*
X91000000Y-54500000D01*
X91000000Y-58500000D01*
D11*
X93550000Y-67500000D03*
X95450000Y-67500000D03*
D12*
X106150000Y-65650000D03*
X107100000Y-65650000D03*
X108050000Y-65650000D03*
X108050000Y-62950000D03*
X106150000Y-62950000D03*
X107100000Y-62950000D03*
D13*
X101500000Y-62500000D03*
X101500000Y-64300000D03*
D14*
X101450000Y-66600000D03*
X104350000Y-66600000D03*
D15*
X104000000Y-64350000D03*
X104000000Y-62450000D03*
X110100000Y-64150000D03*
X110100000Y-62250000D03*
X110100000Y-65550000D03*
X110100000Y-67450000D03*
D16*
X103660000Y-53460000D03*
X103660000Y-56000000D03*
X101120000Y-53460000D03*
X101120000Y-56000000D03*
X98580000Y-53460000D03*
X98580000Y-56000000D03*
X96040000Y-53460000D03*
X96040000Y-56000000D03*
X93500000Y-53460000D03*
D17*
X93500000Y-56000000D03*
D18*
X89000000Y-60850000D03*
D19*
X89000000Y-67150000D03*
X91300000Y-67150000D03*
X86700000Y-67150000D03*
D20*
X106000000Y-60500000D03*
X108200000Y-60500000D03*
X102000000Y-60500000D03*
X104200000Y-60500000D03*
D21*
X110200000Y-51400000D03*
X99200000Y-68400000D03*
X107200000Y-68400000D03*
X87000000Y-51500000D03*
D22*
X98900000Y-65050000D03*
X98900000Y-62350000D03*
D20*
X110400000Y-58050000D03*
X110400000Y-54750000D03*
D23*
X95300000Y-64800000D03*
X95300000Y-61200000D03*
D24*
X108600000Y-58000000D03*
X110100000Y-61100000D03*
X109600000Y-68700000D03*
X103300000Y-67900000D03*
X86700000Y-65400000D03*
X86700000Y-69000000D03*
X96800000Y-61000000D03*
X93900000Y-61000000D03*
X95300000Y-59100000D03*
X89000000Y-64800000D03*
X101350000Y-65100000D03*
X91300000Y-65800000D03*
D25*
X110400000Y-64150000D02*
X110100000Y-64150000D01*
X111350000Y-63200000D02*
X110400000Y-64150000D01*
X110400000Y-59100000D02*
X111350000Y-60050000D01*
X111350000Y-60050000D02*
X111350000Y-63200000D01*
X110400000Y-58050000D02*
X110400000Y-59100000D01*
X110100000Y-64150000D02*
X110100000Y-65550000D01*
X110000000Y-65650000D02*
X110100000Y-65550000D01*
X108050000Y-65650000D02*
X110000000Y-65650000D01*
X110350000Y-58000000D02*
X110400000Y-58050000D01*
X108600000Y-58000000D02*
X110350000Y-58000000D01*
X110400000Y-55800000D02*
X110400000Y-54750000D01*
X110200000Y-56000000D02*
X110400000Y-55800000D01*
X103660000Y-56000000D02*
X110200000Y-56000000D01*
X98900000Y-68100000D02*
X99200000Y-68400000D01*
X98900000Y-65050000D02*
X98900000Y-68100000D01*
X89000000Y-60850000D02*
X89000000Y-62450000D01*
X89000000Y-62450000D02*
X89000000Y-64800000D01*
X95300000Y-64800000D02*
X89000000Y-64800000D01*
X89000000Y-64800000D02*
X89000000Y-67150000D01*
X96450000Y-64800000D02*
X98900000Y-62350000D01*
X95300000Y-64800000D02*
X96450000Y-64800000D01*
X101100000Y-64300000D02*
X101500000Y-64300000D01*
X100100000Y-63300000D02*
X101100000Y-64300000D01*
X100100000Y-61200000D02*
X100100000Y-63300000D01*
X100800000Y-60500000D02*
X100100000Y-61200000D01*
X102000000Y-60500000D02*
X100800000Y-60500000D01*
X101500000Y-66550000D02*
X101450000Y-66600000D01*
X101500000Y-64300000D02*
X101500000Y-66550000D01*
X93200000Y-67150000D02*
X93550000Y-67500000D01*
X91300000Y-67150000D02*
X93200000Y-67150000D01*
X91300000Y-65800000D02*
X91300000Y-67150000D01*
X105250000Y-64350000D02*
X104000000Y-64350000D01*
X107100000Y-64594998D02*
X106855002Y-64350000D01*
X106855002Y-64350000D02*
X105250000Y-64350000D01*
X107100000Y-65650000D02*
X107100000Y-64594998D01*
X102150000Y-62500000D02*
X104000000Y-64350000D01*
X101500000Y-62500000D02*
X102150000Y-62500000D01*
X105650000Y-62450000D02*
X106150000Y-62950000D01*
X104000000Y-62450000D02*
X105650000Y-62450000D01*
X104200000Y-60500000D02*
X106000000Y-60500000D01*
X108050000Y-61894998D02*
X108050000Y-62950000D01*
X107825001Y-61669999D02*
X108050000Y-61894998D01*
X106150000Y-60500000D02*
X107319999Y-61669999D01*
X107319999Y-61669999D02*
X107825001Y-61669999D01*
X106000000Y-60500000D02*
X106150000Y-60500000D01*
D26*
G36*
X108860498Y-66855820D02*
G01*
X108824188Y-66975518D01*
X108811928Y-67100000D01*
X108815000Y-67164250D01*
X108973750Y-67323000D01*
X109973000Y-67323000D01*
X109973000Y-67303000D01*
X110227000Y-67303000D01*
X110227000Y-67323000D01*
X110247000Y-67323000D01*
X110247000Y-67577000D01*
X110227000Y-67577000D01*
X110227000Y-68276250D01*
X110385750Y-68435000D01*
X110750000Y-68438072D01*
X110874482Y-68425812D01*
X110994180Y-68389502D01*
X111104494Y-68330537D01*
X111201185Y-68251185D01*
X111280537Y-68154494D01*
X111315000Y-68090019D01*
X111315000Y-69315000D01*
X108555014Y-69315000D01*
X108648918Y-69174463D01*
X108772168Y-68876912D01*
X108835000Y-68561033D01*
X108835000Y-68238967D01*
X108772168Y-67923088D01*
X108721184Y-67800000D01*
X108811928Y-67800000D01*
X108824188Y-67924482D01*
X108860498Y-68044180D01*
X108919463Y-68154494D01*
X108998815Y-68251185D01*
X109095506Y-68330537D01*
X109205820Y-68389502D01*
X109325518Y-68425812D01*
X109450000Y-68438072D01*
X109814250Y-68435000D01*
X109973000Y-68276250D01*
X109973000Y-67577000D01*
X108973750Y-67577000D01*
X108815000Y-67735750D01*
X108811928Y-67800000D01*
X108721184Y-67800000D01*
X108648918Y-67625537D01*
X108469987Y-67357748D01*
X108242252Y-67130013D01*
X108149551Y-67068072D01*
X108375000Y-67068072D01*
X108499482Y-67055812D01*
X108619180Y-67019502D01*
X108729494Y-66960537D01*
X108826185Y-66881185D01*
X108885709Y-66808655D01*
X108860498Y-66855820D01*
G37*
X108860498Y-66855820D02*
X108824188Y-66975518D01*
X108811928Y-67100000D01*
X108815000Y-67164250D01*
X108973750Y-67323000D01*
X109973000Y-67323000D01*
X109973000Y-67303000D01*
X110227000Y-67303000D01*
X110227000Y-67323000D01*
X110247000Y-67323000D01*
X110247000Y-67577000D01*
X110227000Y-67577000D01*
X110227000Y-68276250D01*
X110385750Y-68435000D01*
X110750000Y-68438072D01*
X110874482Y-68425812D01*
X110994180Y-68389502D01*
X111104494Y-68330537D01*
X111201185Y-68251185D01*
X111280537Y-68154494D01*
X111315000Y-68090019D01*
X111315000Y-69315000D01*
X108555014Y-69315000D01*
X108648918Y-69174463D01*
X108772168Y-68876912D01*
X108835000Y-68561033D01*
X108835000Y-68238967D01*
X108772168Y-67923088D01*
X108721184Y-67800000D01*
X108811928Y-67800000D01*
X108824188Y-67924482D01*
X108860498Y-68044180D01*
X108919463Y-68154494D01*
X108998815Y-68251185D01*
X109095506Y-68330537D01*
X109205820Y-68389502D01*
X109325518Y-68425812D01*
X109450000Y-68438072D01*
X109814250Y-68435000D01*
X109973000Y-68276250D01*
X109973000Y-67577000D01*
X108973750Y-67577000D01*
X108815000Y-67735750D01*
X108811928Y-67800000D01*
X108721184Y-67800000D01*
X108648918Y-67625537D01*
X108469987Y-67357748D01*
X108242252Y-67130013D01*
X108149551Y-67068072D01*
X108375000Y-67068072D01*
X108499482Y-67055812D01*
X108619180Y-67019502D01*
X108729494Y-66960537D01*
X108826185Y-66881185D01*
X108885709Y-66808655D01*
X108860498Y-66855820D01*
G36*
X88065001Y-64156380D02*
G01*
X87994176Y-64262376D01*
X87908617Y-64468933D01*
X87865000Y-64688212D01*
X87865000Y-64911788D01*
X87908617Y-65131067D01*
X87994176Y-65337624D01*
X88065000Y-65443620D01*
X88065000Y-65542546D01*
X88005820Y-65560498D01*
X87895506Y-65619463D01*
X87850000Y-65656809D01*
X87804494Y-65619463D01*
X87694180Y-65560498D01*
X87574482Y-65524188D01*
X87450000Y-65511928D01*
X86985750Y-65515000D01*
X86827000Y-65673750D01*
X86827000Y-67023000D01*
X86847000Y-67023000D01*
X86847000Y-67277000D01*
X86827000Y-67277000D01*
X86827000Y-68626250D01*
X86985750Y-68785000D01*
X87450000Y-68788072D01*
X87574482Y-68775812D01*
X87694180Y-68739502D01*
X87804494Y-68680537D01*
X87850000Y-68643191D01*
X87895506Y-68680537D01*
X88005820Y-68739502D01*
X88125518Y-68775812D01*
X88250000Y-68788072D01*
X89750000Y-68788072D01*
X89874482Y-68775812D01*
X89994180Y-68739502D01*
X90104494Y-68680537D01*
X90150000Y-68643191D01*
X90195506Y-68680537D01*
X90305820Y-68739502D01*
X90425518Y-68775812D01*
X90550000Y-68788072D01*
X92050000Y-68788072D01*
X92174482Y-68775812D01*
X92294180Y-68739502D01*
X92404494Y-68680537D01*
X92501185Y-68601185D01*
X92580537Y-68504494D01*
X92625000Y-68421311D01*
X92669463Y-68504494D01*
X92748815Y-68601185D01*
X92845506Y-68680537D01*
X92955820Y-68739502D01*
X93075518Y-68775812D01*
X93200000Y-68788072D01*
X93900000Y-68788072D01*
X94024482Y-68775812D01*
X94144180Y-68739502D01*
X94254494Y-68680537D01*
X94351185Y-68601185D01*
X94430537Y-68504494D01*
X94489502Y-68394180D01*
X94500000Y-68359573D01*
X94510498Y-68394180D01*
X94569463Y-68504494D01*
X94648815Y-68601185D01*
X94745506Y-68680537D01*
X94855820Y-68739502D01*
X94975518Y-68775812D01*
X95100000Y-68788072D01*
X95164250Y-68785000D01*
X95323000Y-68626250D01*
X95323000Y-67627000D01*
X95577000Y-67627000D01*
X95577000Y-68626250D01*
X95735750Y-68785000D01*
X95800000Y-68788072D01*
X95924482Y-68775812D01*
X96044180Y-68739502D01*
X96154494Y-68680537D01*
X96251185Y-68601185D01*
X96330537Y-68504494D01*
X96389502Y-68394180D01*
X96425812Y-68274482D01*
X96438072Y-68150000D01*
X96435000Y-67785750D01*
X96276250Y-67627000D01*
X95577000Y-67627000D01*
X95323000Y-67627000D01*
X95303000Y-67627000D01*
X95303000Y-67373000D01*
X95323000Y-67373000D01*
X95323000Y-67353000D01*
X95577000Y-67353000D01*
X95577000Y-67373000D01*
X96276250Y-67373000D01*
X96435000Y-67214250D01*
X96438072Y-66850000D01*
X96425812Y-66725518D01*
X96405022Y-66656981D01*
X96454494Y-66630537D01*
X96551185Y-66551185D01*
X96630537Y-66454494D01*
X96689502Y-66344180D01*
X96725812Y-66224482D01*
X96738072Y-66100000D01*
X96738072Y-65689686D01*
X96809540Y-65668007D01*
X96971972Y-65581186D01*
X97114344Y-65464344D01*
X97143630Y-65428659D01*
X97611928Y-64960361D01*
X97611928Y-65800000D01*
X97624188Y-65924482D01*
X97660498Y-66044180D01*
X97719463Y-66154494D01*
X97798815Y-66251185D01*
X97895506Y-66330537D01*
X97965000Y-66367683D01*
X97965001Y-67322760D01*
X97930013Y-67357748D01*
X97751082Y-67625537D01*
X97627832Y-67923088D01*
X97565000Y-68238967D01*
X97565000Y-68561033D01*
X97627832Y-68876912D01*
X97751082Y-69174463D01*
X97844986Y-69315000D01*
X85685000Y-69315000D01*
X85685000Y-68728373D01*
X85705820Y-68739502D01*
X85825518Y-68775812D01*
X85950000Y-68788072D01*
X86414250Y-68785000D01*
X86573000Y-68626250D01*
X86573000Y-67277000D01*
X86553000Y-67277000D01*
X86553000Y-67023000D01*
X86573000Y-67023000D01*
X86573000Y-65673750D01*
X86414250Y-65515000D01*
X85950000Y-65511928D01*
X85825518Y-65524188D01*
X85705820Y-65560498D01*
X85685000Y-65571627D01*
X85685000Y-63185000D01*
X88065000Y-63185000D01*
X88065001Y-64156380D01*
G37*
X88065001Y-64156380D02*
X87994176Y-64262376D01*
X87908617Y-64468933D01*
X87865000Y-64688212D01*
X87865000Y-64911788D01*
X87908617Y-65131067D01*
X87994176Y-65337624D01*
X88065000Y-65443620D01*
X88065000Y-65542546D01*
X88005820Y-65560498D01*
X87895506Y-65619463D01*
X87850000Y-65656809D01*
X87804494Y-65619463D01*
X87694180Y-65560498D01*
X87574482Y-65524188D01*
X87450000Y-65511928D01*
X86985750Y-65515000D01*
X86827000Y-65673750D01*
X86827000Y-67023000D01*
X86847000Y-67023000D01*
X86847000Y-67277000D01*
X86827000Y-67277000D01*
X86827000Y-68626250D01*
X86985750Y-68785000D01*
X87450000Y-68788072D01*
X87574482Y-68775812D01*
X87694180Y-68739502D01*
X87804494Y-68680537D01*
X87850000Y-68643191D01*
X87895506Y-68680537D01*
X88005820Y-68739502D01*
X88125518Y-68775812D01*
X88250000Y-68788072D01*
X89750000Y-68788072D01*
X89874482Y-68775812D01*
X89994180Y-68739502D01*
X90104494Y-68680537D01*
X90150000Y-68643191D01*
X90195506Y-68680537D01*
X90305820Y-68739502D01*
X90425518Y-68775812D01*
X90550000Y-68788072D01*
X92050000Y-68788072D01*
X92174482Y-68775812D01*
X92294180Y-68739502D01*
X92404494Y-68680537D01*
X92501185Y-68601185D01*
X92580537Y-68504494D01*
X92625000Y-68421311D01*
X92669463Y-68504494D01*
X92748815Y-68601185D01*
X92845506Y-68680537D01*
X92955820Y-68739502D01*
X93075518Y-68775812D01*
X93200000Y-68788072D01*
X93900000Y-68788072D01*
X94024482Y-68775812D01*
X94144180Y-68739502D01*
X94254494Y-68680537D01*
X94351185Y-68601185D01*
X94430537Y-68504494D01*
X94489502Y-68394180D01*
X94500000Y-68359573D01*
X94510498Y-68394180D01*
X94569463Y-68504494D01*
X94648815Y-68601185D01*
X94745506Y-68680537D01*
X94855820Y-68739502D01*
X94975518Y-68775812D01*
X95100000Y-68788072D01*
X95164250Y-68785000D01*
X95323000Y-68626250D01*
X95323000Y-67627000D01*
X95577000Y-67627000D01*
X95577000Y-68626250D01*
X95735750Y-68785000D01*
X95800000Y-68788072D01*
X95924482Y-68775812D01*
X96044180Y-68739502D01*
X96154494Y-68680537D01*
X96251185Y-68601185D01*
X96330537Y-68504494D01*
X96389502Y-68394180D01*
X96425812Y-68274482D01*
X96438072Y-68150000D01*
X96435000Y-67785750D01*
X96276250Y-67627000D01*
X95577000Y-67627000D01*
X95323000Y-67627000D01*
X95303000Y-67627000D01*
X95303000Y-67373000D01*
X95323000Y-67373000D01*
X95323000Y-67353000D01*
X95577000Y-67353000D01*
X95577000Y-67373000D01*
X96276250Y-67373000D01*
X96435000Y-67214250D01*
X96438072Y-66850000D01*
X96425812Y-66725518D01*
X96405022Y-66656981D01*
X96454494Y-66630537D01*
X96551185Y-66551185D01*
X96630537Y-66454494D01*
X96689502Y-66344180D01*
X96725812Y-66224482D01*
X96738072Y-66100000D01*
X96738072Y-65689686D01*
X96809540Y-65668007D01*
X96971972Y-65581186D01*
X97114344Y-65464344D01*
X97143630Y-65428659D01*
X97611928Y-64960361D01*
X97611928Y-65800000D01*
X97624188Y-65924482D01*
X97660498Y-66044180D01*
X97719463Y-66154494D01*
X97798815Y-66251185D01*
X97895506Y-66330537D01*
X97965000Y-66367683D01*
X97965001Y-67322760D01*
X97930013Y-67357748D01*
X97751082Y-67625537D01*
X97627832Y-67923088D01*
X97565000Y-68238967D01*
X97565000Y-68561033D01*
X97627832Y-68876912D01*
X97751082Y-69174463D01*
X97844986Y-69315000D01*
X85685000Y-69315000D01*
X85685000Y-68728373D01*
X85705820Y-68739502D01*
X85825518Y-68775812D01*
X85950000Y-68788072D01*
X86414250Y-68785000D01*
X86573000Y-68626250D01*
X86573000Y-67277000D01*
X86553000Y-67277000D01*
X86553000Y-67023000D01*
X86573000Y-67023000D01*
X86573000Y-65673750D01*
X86414250Y-65515000D01*
X85950000Y-65511928D01*
X85825518Y-65524188D01*
X85705820Y-65560498D01*
X85685000Y-65571627D01*
X85685000Y-63185000D01*
X88065000Y-63185000D01*
X88065001Y-64156380D01*
G36*
X102898815Y-65151185D02*
G01*
X102995506Y-65230537D01*
X103105820Y-65289502D01*
X103225518Y-65325812D01*
X103350000Y-65338072D01*
X103416598Y-65338072D01*
X103369463Y-65395506D01*
X103310498Y-65505820D01*
X103274188Y-65625518D01*
X103261928Y-65750000D01*
X103265000Y-66314250D01*
X103423750Y-66473000D01*
X104223000Y-66473000D01*
X104223000Y-66453000D01*
X104477000Y-66453000D01*
X104477000Y-66473000D01*
X104497000Y-66473000D01*
X104497000Y-66727000D01*
X104477000Y-66727000D01*
X104477000Y-67926250D01*
X104635750Y-68085000D01*
X104800000Y-68088072D01*
X104924482Y-68075812D01*
X105044180Y-68039502D01*
X105154494Y-67980537D01*
X105251185Y-67901185D01*
X105330537Y-67804494D01*
X105389502Y-67694180D01*
X105425812Y-67574482D01*
X105438072Y-67450000D01*
X105435250Y-66931603D01*
X105470506Y-66960537D01*
X105580820Y-67019502D01*
X105700518Y-67055812D01*
X105825000Y-67068072D01*
X105864250Y-67065000D01*
X106023000Y-66906250D01*
X106023000Y-65777000D01*
X106003000Y-65777000D01*
X106003000Y-65523000D01*
X106023000Y-65523000D01*
X106023000Y-65503000D01*
X106136928Y-65503000D01*
X106136928Y-66430000D01*
X106149188Y-66554482D01*
X106185498Y-66674180D01*
X106244463Y-66784494D01*
X106277000Y-66824141D01*
X106277000Y-66906250D01*
X106363370Y-66992620D01*
X106157748Y-67130013D01*
X105930013Y-67357748D01*
X105751082Y-67625537D01*
X105627832Y-67923088D01*
X105565000Y-68238967D01*
X105565000Y-68561033D01*
X105627832Y-68876912D01*
X105751082Y-69174463D01*
X105844986Y-69315000D01*
X100555014Y-69315000D01*
X100648918Y-69174463D01*
X100772168Y-68876912D01*
X100835000Y-68561033D01*
X100835000Y-68238967D01*
X100797861Y-68052255D01*
X100875518Y-68075812D01*
X101000000Y-68088072D01*
X101900000Y-68088072D01*
X102024482Y-68075812D01*
X102144180Y-68039502D01*
X102254494Y-67980537D01*
X102351185Y-67901185D01*
X102430537Y-67804494D01*
X102489502Y-67694180D01*
X102525812Y-67574482D01*
X102538072Y-67450000D01*
X103261928Y-67450000D01*
X103274188Y-67574482D01*
X103310498Y-67694180D01*
X103369463Y-67804494D01*
X103448815Y-67901185D01*
X103545506Y-67980537D01*
X103655820Y-68039502D01*
X103775518Y-68075812D01*
X103900000Y-68088072D01*
X104064250Y-68085000D01*
X104223000Y-67926250D01*
X104223000Y-66727000D01*
X103423750Y-66727000D01*
X103265000Y-66885750D01*
X103261928Y-67450000D01*
X102538072Y-67450000D01*
X102538072Y-65750000D01*
X102525812Y-65625518D01*
X102489502Y-65505820D01*
X102443597Y-65419938D01*
X102464749Y-65313597D01*
X102544180Y-65289502D01*
X102654494Y-65230537D01*
X102751185Y-65151185D01*
X102825000Y-65061241D01*
X102898815Y-65151185D01*
G37*
X102898815Y-65151185D02*
X102995506Y-65230537D01*
X103105820Y-65289502D01*
X103225518Y-65325812D01*
X103350000Y-65338072D01*
X103416598Y-65338072D01*
X103369463Y-65395506D01*
X103310498Y-65505820D01*
X103274188Y-65625518D01*
X103261928Y-65750000D01*
X103265000Y-66314250D01*
X103423750Y-66473000D01*
X104223000Y-66473000D01*
X104223000Y-66453000D01*
X104477000Y-66453000D01*
X104477000Y-66473000D01*
X104497000Y-66473000D01*
X104497000Y-66727000D01*
X104477000Y-66727000D01*
X104477000Y-67926250D01*
X104635750Y-68085000D01*
X104800000Y-68088072D01*
X104924482Y-68075812D01*
X105044180Y-68039502D01*
X105154494Y-67980537D01*
X105251185Y-67901185D01*
X105330537Y-67804494D01*
X105389502Y-67694180D01*
X105425812Y-67574482D01*
X105438072Y-67450000D01*
X105435250Y-66931603D01*
X105470506Y-66960537D01*
X105580820Y-67019502D01*
X105700518Y-67055812D01*
X105825000Y-67068072D01*
X105864250Y-67065000D01*
X106023000Y-66906250D01*
X106023000Y-65777000D01*
X106003000Y-65777000D01*
X106003000Y-65523000D01*
X106023000Y-65523000D01*
X106023000Y-65503000D01*
X106136928Y-65503000D01*
X106136928Y-66430000D01*
X106149188Y-66554482D01*
X106185498Y-66674180D01*
X106244463Y-66784494D01*
X106277000Y-66824141D01*
X106277000Y-66906250D01*
X106363370Y-66992620D01*
X106157748Y-67130013D01*
X105930013Y-67357748D01*
X105751082Y-67625537D01*
X105627832Y-67923088D01*
X105565000Y-68238967D01*
X105565000Y-68561033D01*
X105627832Y-68876912D01*
X105751082Y-69174463D01*
X105844986Y-69315000D01*
X100555014Y-69315000D01*
X100648918Y-69174463D01*
X100772168Y-68876912D01*
X100835000Y-68561033D01*
X100835000Y-68238967D01*
X100797861Y-68052255D01*
X100875518Y-68075812D01*
X101000000Y-68088072D01*
X101900000Y-68088072D01*
X102024482Y-68075812D01*
X102144180Y-68039502D01*
X102254494Y-67980537D01*
X102351185Y-67901185D01*
X102430537Y-67804494D01*
X102489502Y-67694180D01*
X102525812Y-67574482D01*
X102538072Y-67450000D01*
X103261928Y-67450000D01*
X103274188Y-67574482D01*
X103310498Y-67694180D01*
X103369463Y-67804494D01*
X103448815Y-67901185D01*
X103545506Y-67980537D01*
X103655820Y-68039502D01*
X103775518Y-68075812D01*
X103900000Y-68088072D01*
X104064250Y-68085000D01*
X104223000Y-67926250D01*
X104223000Y-66727000D01*
X103423750Y-66727000D01*
X103265000Y-66885750D01*
X103261928Y-67450000D01*
X102538072Y-67450000D01*
X102538072Y-65750000D01*
X102525812Y-65625518D01*
X102489502Y-65505820D01*
X102443597Y-65419938D01*
X102464749Y-65313597D01*
X102544180Y-65289502D01*
X102654494Y-65230537D01*
X102751185Y-65151185D01*
X102825000Y-65061241D01*
X102898815Y-65151185D01*
G36*
X111315001Y-50202762D02*
G01*
X111242252Y-50130013D01*
X110974463Y-49951082D01*
X110676912Y-49827832D01*
X110361033Y-49765000D01*
X110038967Y-49765000D01*
X109723088Y-49827832D01*
X109425537Y-49951082D01*
X109157748Y-50130013D01*
X108930013Y-50357748D01*
X108751082Y-50625537D01*
X108627832Y-50923088D01*
X108565000Y-51238967D01*
X108565000Y-51561033D01*
X108627832Y-51876912D01*
X108751082Y-52174463D01*
X108930013Y-52442252D01*
X109157748Y-52669987D01*
X109425537Y-52848918D01*
X109723088Y-52972168D01*
X110038967Y-53035000D01*
X110361033Y-53035000D01*
X110676912Y-52972168D01*
X110974463Y-52848918D01*
X111242252Y-52669987D01*
X111315001Y-52597238D01*
X111315001Y-53748353D01*
X111244180Y-53710498D01*
X111124482Y-53674188D01*
X111000000Y-53661928D01*
X109800000Y-53661928D01*
X109675518Y-53674188D01*
X109555820Y-53710498D01*
X109445506Y-53769463D01*
X109348815Y-53848815D01*
X109269463Y-53945506D01*
X109210498Y-54055820D01*
X109174188Y-54175518D01*
X109161928Y-54300000D01*
X109161928Y-55065000D01*
X104821247Y-55065000D01*
X104813475Y-55053368D01*
X104606632Y-54846525D01*
X104432240Y-54730000D01*
X104606632Y-54613475D01*
X104813475Y-54406632D01*
X104975990Y-54163411D01*
X105087932Y-53893158D01*
X105145000Y-53606260D01*
X105145000Y-53313740D01*
X105087932Y-53026842D01*
X104975990Y-52756589D01*
X104813475Y-52513368D01*
X104606632Y-52306525D01*
X104363411Y-52144010D01*
X104093158Y-52032068D01*
X103806260Y-51975000D01*
X103513740Y-51975000D01*
X103226842Y-52032068D01*
X102956589Y-52144010D01*
X102713368Y-52306525D01*
X102506525Y-52513368D01*
X102390689Y-52686729D01*
X102148397Y-52611208D01*
X101299605Y-53460000D01*
X102148397Y-54308792D01*
X102390689Y-54233271D01*
X102506525Y-54406632D01*
X102713368Y-54613475D01*
X102887760Y-54730000D01*
X102713368Y-54846525D01*
X102506525Y-55053368D01*
X102390689Y-55226729D01*
X102148397Y-55151208D01*
X101299605Y-56000000D01*
X102148397Y-56848792D01*
X102390689Y-56773271D01*
X102506525Y-56946632D01*
X102713368Y-57153475D01*
X102956589Y-57315990D01*
X103226842Y-57427932D01*
X103513740Y-57485000D01*
X103806260Y-57485000D01*
X104093158Y-57427932D01*
X104363411Y-57315990D01*
X104606632Y-57153475D01*
X104813475Y-56946632D01*
X104821247Y-56935000D01*
X108205239Y-56935000D01*
X108062376Y-56994176D01*
X107876480Y-57118388D01*
X107718388Y-57276480D01*
X107594176Y-57462376D01*
X107508617Y-57668933D01*
X107465000Y-57888212D01*
X107465000Y-58111788D01*
X107508617Y-58331067D01*
X107594176Y-58537624D01*
X107718388Y-58723520D01*
X107876480Y-58881612D01*
X108062376Y-59005824D01*
X108268933Y-59091383D01*
X108488212Y-59135000D01*
X108711788Y-59135000D01*
X108931067Y-59091383D01*
X109137624Y-59005824D01*
X109243619Y-58935000D01*
X109335532Y-58935000D01*
X109348815Y-58951185D01*
X109445506Y-59030537D01*
X109465001Y-59040957D01*
X109465001Y-59054059D01*
X109460476Y-59100000D01*
X109478529Y-59283291D01*
X109513573Y-59398815D01*
X109531994Y-59459540D01*
X109618815Y-59621972D01*
X109735657Y-59764344D01*
X109771336Y-59793625D01*
X110415000Y-60437289D01*
X110415000Y-61264753D01*
X110385750Y-61265000D01*
X110227000Y-61423750D01*
X110227000Y-62123000D01*
X110247000Y-62123000D01*
X110247000Y-62377000D01*
X110227000Y-62377000D01*
X110227000Y-62397000D01*
X109973000Y-62397000D01*
X109973000Y-62377000D01*
X109953000Y-62377000D01*
X109953000Y-62123000D01*
X109973000Y-62123000D01*
X109973000Y-61423750D01*
X109814250Y-61265000D01*
X109450000Y-61261928D01*
X109347915Y-61271982D01*
X109389502Y-61194180D01*
X109425812Y-61074482D01*
X109438072Y-60950000D01*
X109435000Y-60785750D01*
X109276250Y-60627000D01*
X108327000Y-60627000D01*
X108327000Y-60647000D01*
X108073000Y-60647000D01*
X108073000Y-60627000D01*
X108053000Y-60627000D01*
X108053000Y-60373000D01*
X108073000Y-60373000D01*
X108073000Y-59573750D01*
X108327000Y-59573750D01*
X108327000Y-60373000D01*
X109276250Y-60373000D01*
X109435000Y-60214250D01*
X109438072Y-60050000D01*
X109425812Y-59925518D01*
X109389502Y-59805820D01*
X109330537Y-59695506D01*
X109251185Y-59598815D01*
X109154494Y-59519463D01*
X109044180Y-59460498D01*
X108924482Y-59424188D01*
X108800000Y-59411928D01*
X108485750Y-59415000D01*
X108327000Y-59573750D01*
X108073000Y-59573750D01*
X107914250Y-59415000D01*
X107600000Y-59411928D01*
X107475518Y-59424188D01*
X107355820Y-59460498D01*
X107245506Y-59519463D01*
X107148815Y-59598815D01*
X107100000Y-59658296D01*
X107051185Y-59598815D01*
X106954494Y-59519463D01*
X106844180Y-59460498D01*
X106724482Y-59424188D01*
X106600000Y-59411928D01*
X105400000Y-59411928D01*
X105275518Y-59424188D01*
X105155820Y-59460498D01*
X105100000Y-59490335D01*
X105044180Y-59460498D01*
X104924482Y-59424188D01*
X104800000Y-59411928D01*
X103600000Y-59411928D01*
X103475518Y-59424188D01*
X103355820Y-59460498D01*
X103245506Y-59519463D01*
X103148815Y-59598815D01*
X103100000Y-59658296D01*
X103051185Y-59598815D01*
X102954494Y-59519463D01*
X102844180Y-59460498D01*
X102724482Y-59424188D01*
X102600000Y-59411928D01*
X101400000Y-59411928D01*
X101275518Y-59424188D01*
X101155820Y-59460498D01*
X101045506Y-59519463D01*
X100990019Y-59565000D01*
X100845924Y-59565000D01*
X100799999Y-59560477D01*
X100754074Y-59565000D01*
X100754068Y-59565000D01*
X100635110Y-59576717D01*
X100616707Y-59578529D01*
X100563243Y-59594747D01*
X100440460Y-59631993D01*
X100278028Y-59718814D01*
X100135656Y-59835656D01*
X100106374Y-59871336D01*
X99471341Y-60506370D01*
X99435656Y-60535656D01*
X99318814Y-60678029D01*
X99231993Y-60840461D01*
X99195147Y-60961928D01*
X98250000Y-60961928D01*
X98125518Y-60974188D01*
X98005820Y-61010498D01*
X97895506Y-61069463D01*
X97798815Y-61148815D01*
X97719463Y-61245506D01*
X97660498Y-61355820D01*
X97624188Y-61475518D01*
X97611928Y-61600000D01*
X97611928Y-62315782D01*
X96683367Y-63244343D01*
X96630537Y-63145506D01*
X96551185Y-63048815D01*
X96491704Y-63000000D01*
X96551185Y-62951185D01*
X96630537Y-62854494D01*
X96689502Y-62744180D01*
X96725812Y-62624482D01*
X96738072Y-62500000D01*
X96735000Y-61485750D01*
X96576250Y-61327000D01*
X95427000Y-61327000D01*
X95427000Y-61347000D01*
X95173000Y-61347000D01*
X95173000Y-61327000D01*
X94023750Y-61327000D01*
X93865000Y-61485750D01*
X93861928Y-62500000D01*
X93874188Y-62624482D01*
X93910498Y-62744180D01*
X93969463Y-62854494D01*
X94048815Y-62951185D01*
X94108296Y-63000000D01*
X94048815Y-63048815D01*
X93969463Y-63145506D01*
X93910498Y-63255820D01*
X93874188Y-63375518D01*
X93861928Y-63500000D01*
X93861928Y-63865000D01*
X89935000Y-63865000D01*
X89935000Y-63185000D01*
X93000000Y-63185000D01*
X93064145Y-63178710D01*
X93128356Y-63172867D01*
X93130662Y-63172188D01*
X93133051Y-63171954D01*
X93194723Y-63153334D01*
X93256606Y-63135121D01*
X93258736Y-63134008D01*
X93261033Y-63133314D01*
X93317886Y-63103084D01*
X93375081Y-63073184D01*
X93376955Y-63071677D01*
X93379073Y-63070551D01*
X93428986Y-63029843D01*
X93479269Y-62989414D01*
X93480813Y-62987573D01*
X93482674Y-62986056D01*
X93523766Y-62936384D01*
X93565203Y-62887002D01*
X93566360Y-62884898D01*
X93567891Y-62883047D01*
X93598541Y-62826361D01*
X93629608Y-62769850D01*
X93630335Y-62767558D01*
X93631476Y-62765448D01*
X93650524Y-62703916D01*
X93670031Y-62642420D01*
X93670299Y-62640032D01*
X93671009Y-62637738D01*
X93677746Y-62573634D01*
X93684933Y-62509564D01*
X93684965Y-62504950D01*
X93684983Y-62504782D01*
X93684968Y-62504614D01*
X93685000Y-62500000D01*
X93685000Y-59900000D01*
X93861928Y-59900000D01*
X93865000Y-60914250D01*
X94023750Y-61073000D01*
X95173000Y-61073000D01*
X95173000Y-59423750D01*
X95427000Y-59423750D01*
X95427000Y-61073000D01*
X96576250Y-61073000D01*
X96735000Y-60914250D01*
X96738072Y-59900000D01*
X96725812Y-59775518D01*
X96689502Y-59655820D01*
X96630537Y-59545506D01*
X96551185Y-59448815D01*
X96454494Y-59369463D01*
X96344180Y-59310498D01*
X96224482Y-59274188D01*
X96100000Y-59261928D01*
X95585750Y-59265000D01*
X95427000Y-59423750D01*
X95173000Y-59423750D01*
X95014250Y-59265000D01*
X94500000Y-59261928D01*
X94375518Y-59274188D01*
X94255820Y-59310498D01*
X94145506Y-59369463D01*
X94048815Y-59448815D01*
X93969463Y-59545506D01*
X93910498Y-59655820D01*
X93874188Y-59775518D01*
X93861928Y-59900000D01*
X93685000Y-59900000D01*
X93685000Y-58500000D01*
X93678710Y-58435855D01*
X93672867Y-58371644D01*
X93672188Y-58369338D01*
X93671954Y-58366949D01*
X93653334Y-58305277D01*
X93635121Y-58243394D01*
X93634008Y-58241264D01*
X93633314Y-58238967D01*
X93603084Y-58182114D01*
X93573184Y-58124919D01*
X93571677Y-58123045D01*
X93570551Y-58120927D01*
X93529843Y-58071014D01*
X93489414Y-58020731D01*
X93487573Y-58019187D01*
X93486056Y-58017326D01*
X93436384Y-57976234D01*
X93387002Y-57934797D01*
X93384898Y-57933640D01*
X93383047Y-57932109D01*
X93326361Y-57901459D01*
X93269850Y-57870392D01*
X93267558Y-57869665D01*
X93265448Y-57868524D01*
X93203916Y-57849476D01*
X93142420Y-57829969D01*
X93140032Y-57829701D01*
X93137738Y-57828991D01*
X93073634Y-57822254D01*
X93009564Y-57815067D01*
X93004950Y-57815035D01*
X93004782Y-57815017D01*
X93004614Y-57815032D01*
X93000000Y-57815000D01*
X91685000Y-57815000D01*
X91685000Y-55150000D01*
X92011928Y-55150000D01*
X92011928Y-56850000D01*
X92024188Y-56974482D01*
X92060498Y-57094180D01*
X92119463Y-57204494D01*
X92198815Y-57301185D01*
X92295506Y-57380537D01*
X92405820Y-57439502D01*
X92525518Y-57475812D01*
X92650000Y-57488072D01*
X94350000Y-57488072D01*
X94474482Y-57475812D01*
X94594180Y-57439502D01*
X94704494Y-57380537D01*
X94801185Y-57301185D01*
X94880537Y-57204494D01*
X94939502Y-57094180D01*
X94959457Y-57028397D01*
X95191208Y-57028397D01*
X95268843Y-57277472D01*
X95532883Y-57403371D01*
X95816411Y-57475339D01*
X96108531Y-57490611D01*
X96398019Y-57448599D01*
X96673747Y-57350919D01*
X96811157Y-57277472D01*
X96888792Y-57028397D01*
X97731208Y-57028397D01*
X97808843Y-57277472D01*
X98072883Y-57403371D01*
X98356411Y-57475339D01*
X98648531Y-57490611D01*
X98938019Y-57448599D01*
X99213747Y-57350919D01*
X99351157Y-57277472D01*
X99428792Y-57028397D01*
X100271208Y-57028397D01*
X100348843Y-57277472D01*
X100612883Y-57403371D01*
X100896411Y-57475339D01*
X101188531Y-57490611D01*
X101478019Y-57448599D01*
X101753747Y-57350919D01*
X101891157Y-57277472D01*
X101968792Y-57028397D01*
X101120000Y-56179605D01*
X100271208Y-57028397D01*
X99428792Y-57028397D01*
X98580000Y-56179605D01*
X97731208Y-57028397D01*
X96888792Y-57028397D01*
X96040000Y-56179605D01*
X95191208Y-57028397D01*
X94959457Y-57028397D01*
X94975812Y-56974482D01*
X94988072Y-56850000D01*
X94988072Y-56841458D01*
X95011603Y-56848792D01*
X95860395Y-56000000D01*
X96219605Y-56000000D01*
X97068397Y-56848792D01*
X97310000Y-56773486D01*
X97551603Y-56848792D01*
X98400395Y-56000000D01*
X98759605Y-56000000D01*
X99608397Y-56848792D01*
X99850000Y-56773486D01*
X100091603Y-56848792D01*
X100940395Y-56000000D01*
X100091603Y-55151208D01*
X99850000Y-55226514D01*
X99608397Y-55151208D01*
X98759605Y-56000000D01*
X98400395Y-56000000D01*
X97551603Y-55151208D01*
X97310000Y-55226514D01*
X97068397Y-55151208D01*
X96219605Y-56000000D01*
X95860395Y-56000000D01*
X95011603Y-55151208D01*
X94988072Y-55158542D01*
X94988072Y-55150000D01*
X94975812Y-55025518D01*
X94939502Y-54905820D01*
X94880537Y-54795506D01*
X94801185Y-54698815D01*
X94704494Y-54619463D01*
X94594180Y-54560498D01*
X94521620Y-54538487D01*
X94571710Y-54488397D01*
X95191208Y-54488397D01*
X95266514Y-54730000D01*
X95191208Y-54971603D01*
X96040000Y-55820395D01*
X96888792Y-54971603D01*
X96813486Y-54730000D01*
X96888792Y-54488397D01*
X97731208Y-54488397D01*
X97806514Y-54730000D01*
X97731208Y-54971603D01*
X98580000Y-55820395D01*
X99428792Y-54971603D01*
X99353486Y-54730000D01*
X99428792Y-54488397D01*
X100271208Y-54488397D01*
X100346514Y-54730000D01*
X100271208Y-54971603D01*
X101120000Y-55820395D01*
X101968792Y-54971603D01*
X101893486Y-54730000D01*
X101968792Y-54488397D01*
X101120000Y-53639605D01*
X100271208Y-54488397D01*
X99428792Y-54488397D01*
X98580000Y-53639605D01*
X97731208Y-54488397D01*
X96888792Y-54488397D01*
X96040000Y-53639605D01*
X95191208Y-54488397D01*
X94571710Y-54488397D01*
X94653475Y-54406632D01*
X94769311Y-54233271D01*
X95011603Y-54308792D01*
X95860395Y-53460000D01*
X96219605Y-53460000D01*
X97068397Y-54308792D01*
X97310000Y-54233486D01*
X97551603Y-54308792D01*
X98400395Y-53460000D01*
X98759605Y-53460000D01*
X99608397Y-54308792D01*
X99850000Y-54233486D01*
X100091603Y-54308792D01*
X100940395Y-53460000D01*
X100091603Y-52611208D01*
X99850000Y-52686514D01*
X99608397Y-52611208D01*
X98759605Y-53460000D01*
X98400395Y-53460000D01*
X97551603Y-52611208D01*
X97310000Y-52686514D01*
X97068397Y-52611208D01*
X96219605Y-53460000D01*
X95860395Y-53460000D01*
X95011603Y-52611208D01*
X94769311Y-52686729D01*
X94653475Y-52513368D01*
X94571710Y-52431603D01*
X95191208Y-52431603D01*
X96040000Y-53280395D01*
X96888792Y-52431603D01*
X97731208Y-52431603D01*
X98580000Y-53280395D01*
X99428792Y-52431603D01*
X100271208Y-52431603D01*
X101120000Y-53280395D01*
X101968792Y-52431603D01*
X101891157Y-52182528D01*
X101627117Y-52056629D01*
X101343589Y-51984661D01*
X101051469Y-51969389D01*
X100761981Y-52011401D01*
X100486253Y-52109081D01*
X100348843Y-52182528D01*
X100271208Y-52431603D01*
X99428792Y-52431603D01*
X99351157Y-52182528D01*
X99087117Y-52056629D01*
X98803589Y-51984661D01*
X98511469Y-51969389D01*
X98221981Y-52011401D01*
X97946253Y-52109081D01*
X97808843Y-52182528D01*
X97731208Y-52431603D01*
X96888792Y-52431603D01*
X96811157Y-52182528D01*
X96547117Y-52056629D01*
X96263589Y-51984661D01*
X95971469Y-51969389D01*
X95681981Y-52011401D01*
X95406253Y-52109081D01*
X95268843Y-52182528D01*
X95191208Y-52431603D01*
X94571710Y-52431603D01*
X94446632Y-52306525D01*
X94203411Y-52144010D01*
X93933158Y-52032068D01*
X93646260Y-51975000D01*
X93353740Y-51975000D01*
X93066842Y-52032068D01*
X92796589Y-52144010D01*
X92553368Y-52306525D01*
X92346525Y-52513368D01*
X92184010Y-52756589D01*
X92072068Y-53026842D01*
X92015000Y-53313740D01*
X92015000Y-53606260D01*
X92072068Y-53893158D01*
X92184010Y-54163411D01*
X92346525Y-54406632D01*
X92478380Y-54538487D01*
X92405820Y-54560498D01*
X92295506Y-54619463D01*
X92198815Y-54698815D01*
X92119463Y-54795506D01*
X92060498Y-54905820D01*
X92024188Y-55025518D01*
X92011928Y-55150000D01*
X91685000Y-55150000D01*
X91685000Y-54500000D01*
X91678710Y-54435855D01*
X91672867Y-54371644D01*
X91672188Y-54369338D01*
X91671954Y-54366949D01*
X91653334Y-54305277D01*
X91635121Y-54243394D01*
X91634008Y-54241264D01*
X91633314Y-54238967D01*
X91603084Y-54182114D01*
X91573184Y-54124919D01*
X91571677Y-54123045D01*
X91570551Y-54120927D01*
X91529843Y-54071014D01*
X91489414Y-54020731D01*
X91487573Y-54019187D01*
X91486056Y-54017326D01*
X91436384Y-53976234D01*
X91387002Y-53934797D01*
X91384898Y-53933640D01*
X91383047Y-53932109D01*
X91326361Y-53901459D01*
X91269850Y-53870392D01*
X91267558Y-53869665D01*
X91265448Y-53868524D01*
X91203916Y-53849476D01*
X91142420Y-53829969D01*
X91140032Y-53829701D01*
X91137738Y-53828991D01*
X91073634Y-53822254D01*
X91009564Y-53815067D01*
X91004950Y-53815035D01*
X91004782Y-53815017D01*
X91004614Y-53815032D01*
X91000000Y-53815000D01*
X85685000Y-53815000D01*
X85685000Y-52635413D01*
X86044192Y-52635413D01*
X86139956Y-52899814D01*
X86429571Y-53040704D01*
X86741108Y-53122384D01*
X87062595Y-53141718D01*
X87381675Y-53097961D01*
X87686088Y-52992795D01*
X87860044Y-52899814D01*
X87955808Y-52635413D01*
X87000000Y-51679605D01*
X86044192Y-52635413D01*
X85685000Y-52635413D01*
X85685000Y-52390763D01*
X85864587Y-52455808D01*
X86820395Y-51500000D01*
X87179605Y-51500000D01*
X88135413Y-52455808D01*
X88399814Y-52360044D01*
X88540704Y-52070429D01*
X88622384Y-51758892D01*
X88641718Y-51437405D01*
X88597961Y-51118325D01*
X88492795Y-50813912D01*
X88399814Y-50639956D01*
X88135413Y-50544192D01*
X87179605Y-51500000D01*
X86820395Y-51500000D01*
X85864587Y-50544192D01*
X85685000Y-50609237D01*
X85685000Y-50364587D01*
X86044192Y-50364587D01*
X87000000Y-51320395D01*
X87955808Y-50364587D01*
X87860044Y-50100186D01*
X87570429Y-49959296D01*
X87258892Y-49877616D01*
X86937405Y-49858282D01*
X86618325Y-49902039D01*
X86313912Y-50007205D01*
X86139956Y-50100186D01*
X86044192Y-50364587D01*
X85685000Y-50364587D01*
X85685000Y-49685000D01*
X111315001Y-49685000D01*
X111315001Y-50202762D01*
G37*
X111315001Y-50202762D02*
X111242252Y-50130013D01*
X110974463Y-49951082D01*
X110676912Y-49827832D01*
X110361033Y-49765000D01*
X110038967Y-49765000D01*
X109723088Y-49827832D01*
X109425537Y-49951082D01*
X109157748Y-50130013D01*
X108930013Y-50357748D01*
X108751082Y-50625537D01*
X108627832Y-50923088D01*
X108565000Y-51238967D01*
X108565000Y-51561033D01*
X108627832Y-51876912D01*
X108751082Y-52174463D01*
X108930013Y-52442252D01*
X109157748Y-52669987D01*
X109425537Y-52848918D01*
X109723088Y-52972168D01*
X110038967Y-53035000D01*
X110361033Y-53035000D01*
X110676912Y-52972168D01*
X110974463Y-52848918D01*
X111242252Y-52669987D01*
X111315001Y-52597238D01*
X111315001Y-53748353D01*
X111244180Y-53710498D01*
X111124482Y-53674188D01*
X111000000Y-53661928D01*
X109800000Y-53661928D01*
X109675518Y-53674188D01*
X109555820Y-53710498D01*
X109445506Y-53769463D01*
X109348815Y-53848815D01*
X109269463Y-53945506D01*
X109210498Y-54055820D01*
X109174188Y-54175518D01*
X109161928Y-54300000D01*
X109161928Y-55065000D01*
X104821247Y-55065000D01*
X104813475Y-55053368D01*
X104606632Y-54846525D01*
X104432240Y-54730000D01*
X104606632Y-54613475D01*
X104813475Y-54406632D01*
X104975990Y-54163411D01*
X105087932Y-53893158D01*
X105145000Y-53606260D01*
X105145000Y-53313740D01*
X105087932Y-53026842D01*
X104975990Y-52756589D01*
X104813475Y-52513368D01*
X104606632Y-52306525D01*
X104363411Y-52144010D01*
X104093158Y-52032068D01*
X103806260Y-51975000D01*
X103513740Y-51975000D01*
X103226842Y-52032068D01*
X102956589Y-52144010D01*
X102713368Y-52306525D01*
X102506525Y-52513368D01*
X102390689Y-52686729D01*
X102148397Y-52611208D01*
X101299605Y-53460000D01*
X102148397Y-54308792D01*
X102390689Y-54233271D01*
X102506525Y-54406632D01*
X102713368Y-54613475D01*
X102887760Y-54730000D01*
X102713368Y-54846525D01*
X102506525Y-55053368D01*
X102390689Y-55226729D01*
X102148397Y-55151208D01*
X101299605Y-56000000D01*
X102148397Y-56848792D01*
X102390689Y-56773271D01*
X102506525Y-56946632D01*
X102713368Y-57153475D01*
X102956589Y-57315990D01*
X103226842Y-57427932D01*
X103513740Y-57485000D01*
X103806260Y-57485000D01*
X104093158Y-57427932D01*
X104363411Y-57315990D01*
X104606632Y-57153475D01*
X104813475Y-56946632D01*
X104821247Y-56935000D01*
X108205239Y-56935000D01*
X108062376Y-56994176D01*
X107876480Y-57118388D01*
X107718388Y-57276480D01*
X107594176Y-57462376D01*
X107508617Y-57668933D01*
X107465000Y-57888212D01*
X107465000Y-58111788D01*
X107508617Y-58331067D01*
X107594176Y-58537624D01*
X107718388Y-58723520D01*
X107876480Y-58881612D01*
X108062376Y-59005824D01*
X108268933Y-59091383D01*
X108488212Y-59135000D01*
X108711788Y-59135000D01*
X108931067Y-59091383D01*
X109137624Y-59005824D01*
X109243619Y-58935000D01*
X109335532Y-58935000D01*
X109348815Y-58951185D01*
X109445506Y-59030537D01*
X109465001Y-59040957D01*
X109465001Y-59054059D01*
X109460476Y-59100000D01*
X109478529Y-59283291D01*
X109513573Y-59398815D01*
X109531994Y-59459540D01*
X109618815Y-59621972D01*
X109735657Y-59764344D01*
X109771336Y-59793625D01*
X110415000Y-60437289D01*
X110415000Y-61264753D01*
X110385750Y-61265000D01*
X110227000Y-61423750D01*
X110227000Y-62123000D01*
X110247000Y-62123000D01*
X110247000Y-62377000D01*
X110227000Y-62377000D01*
X110227000Y-62397000D01*
X109973000Y-62397000D01*
X109973000Y-62377000D01*
X109953000Y-62377000D01*
X109953000Y-62123000D01*
X109973000Y-62123000D01*
X109973000Y-61423750D01*
X109814250Y-61265000D01*
X109450000Y-61261928D01*
X109347915Y-61271982D01*
X109389502Y-61194180D01*
X109425812Y-61074482D01*
X109438072Y-60950000D01*
X109435000Y-60785750D01*
X109276250Y-60627000D01*
X108327000Y-60627000D01*
X108327000Y-60647000D01*
X108073000Y-60647000D01*
X108073000Y-60627000D01*
X108053000Y-60627000D01*
X108053000Y-60373000D01*
X108073000Y-60373000D01*
X108073000Y-59573750D01*
X108327000Y-59573750D01*
X108327000Y-60373000D01*
X109276250Y-60373000D01*
X109435000Y-60214250D01*
X109438072Y-60050000D01*
X109425812Y-59925518D01*
X109389502Y-59805820D01*
X109330537Y-59695506D01*
X109251185Y-59598815D01*
X109154494Y-59519463D01*
X109044180Y-59460498D01*
X108924482Y-59424188D01*
X108800000Y-59411928D01*
X108485750Y-59415000D01*
X108327000Y-59573750D01*
X108073000Y-59573750D01*
X107914250Y-59415000D01*
X107600000Y-59411928D01*
X107475518Y-59424188D01*
X107355820Y-59460498D01*
X107245506Y-59519463D01*
X107148815Y-59598815D01*
X107100000Y-59658296D01*
X107051185Y-59598815D01*
X106954494Y-59519463D01*
X106844180Y-59460498D01*
X106724482Y-59424188D01*
X106600000Y-59411928D01*
X105400000Y-59411928D01*
X105275518Y-59424188D01*
X105155820Y-59460498D01*
X105100000Y-59490335D01*
X105044180Y-59460498D01*
X104924482Y-59424188D01*
X104800000Y-59411928D01*
X103600000Y-59411928D01*
X103475518Y-59424188D01*
X103355820Y-59460498D01*
X103245506Y-59519463D01*
X103148815Y-59598815D01*
X103100000Y-59658296D01*
X103051185Y-59598815D01*
X102954494Y-59519463D01*
X102844180Y-59460498D01*
X102724482Y-59424188D01*
X102600000Y-59411928D01*
X101400000Y-59411928D01*
X101275518Y-59424188D01*
X101155820Y-59460498D01*
X101045506Y-59519463D01*
X100990019Y-59565000D01*
X100845924Y-59565000D01*
X100799999Y-59560477D01*
X100754074Y-59565000D01*
X100754068Y-59565000D01*
X100635110Y-59576717D01*
X100616707Y-59578529D01*
X100563243Y-59594747D01*
X100440460Y-59631993D01*
X100278028Y-59718814D01*
X100135656Y-59835656D01*
X100106374Y-59871336D01*
X99471341Y-60506370D01*
X99435656Y-60535656D01*
X99318814Y-60678029D01*
X99231993Y-60840461D01*
X99195147Y-60961928D01*
X98250000Y-60961928D01*
X98125518Y-60974188D01*
X98005820Y-61010498D01*
X97895506Y-61069463D01*
X97798815Y-61148815D01*
X97719463Y-61245506D01*
X97660498Y-61355820D01*
X97624188Y-61475518D01*
X97611928Y-61600000D01*
X97611928Y-62315782D01*
X96683367Y-63244343D01*
X96630537Y-63145506D01*
X96551185Y-63048815D01*
X96491704Y-63000000D01*
X96551185Y-62951185D01*
X96630537Y-62854494D01*
X96689502Y-62744180D01*
X96725812Y-62624482D01*
X96738072Y-62500000D01*
X96735000Y-61485750D01*
X96576250Y-61327000D01*
X95427000Y-61327000D01*
X95427000Y-61347000D01*
X95173000Y-61347000D01*
X95173000Y-61327000D01*
X94023750Y-61327000D01*
X93865000Y-61485750D01*
X93861928Y-62500000D01*
X93874188Y-62624482D01*
X93910498Y-62744180D01*
X93969463Y-62854494D01*
X94048815Y-62951185D01*
X94108296Y-63000000D01*
X94048815Y-63048815D01*
X93969463Y-63145506D01*
X93910498Y-63255820D01*
X93874188Y-63375518D01*
X93861928Y-63500000D01*
X93861928Y-63865000D01*
X89935000Y-63865000D01*
X89935000Y-63185000D01*
X93000000Y-63185000D01*
X93064145Y-63178710D01*
X93128356Y-63172867D01*
X93130662Y-63172188D01*
X93133051Y-63171954D01*
X93194723Y-63153334D01*
X93256606Y-63135121D01*
X93258736Y-63134008D01*
X93261033Y-63133314D01*
X93317886Y-63103084D01*
X93375081Y-63073184D01*
X93376955Y-63071677D01*
X93379073Y-63070551D01*
X93428986Y-63029843D01*
X93479269Y-62989414D01*
X93480813Y-62987573D01*
X93482674Y-62986056D01*
X93523766Y-62936384D01*
X93565203Y-62887002D01*
X93566360Y-62884898D01*
X93567891Y-62883047D01*
X93598541Y-62826361D01*
X93629608Y-62769850D01*
X93630335Y-62767558D01*
X93631476Y-62765448D01*
X93650524Y-62703916D01*
X93670031Y-62642420D01*
X93670299Y-62640032D01*
X93671009Y-62637738D01*
X93677746Y-62573634D01*
X93684933Y-62509564D01*
X93684965Y-62504950D01*
X93684983Y-62504782D01*
X93684968Y-62504614D01*
X93685000Y-62500000D01*
X93685000Y-59900000D01*
X93861928Y-59900000D01*
X93865000Y-60914250D01*
X94023750Y-61073000D01*
X95173000Y-61073000D01*
X95173000Y-59423750D01*
X95427000Y-59423750D01*
X95427000Y-61073000D01*
X96576250Y-61073000D01*
X96735000Y-60914250D01*
X96738072Y-59900000D01*
X96725812Y-59775518D01*
X96689502Y-59655820D01*
X96630537Y-59545506D01*
X96551185Y-59448815D01*
X96454494Y-59369463D01*
X96344180Y-59310498D01*
X96224482Y-59274188D01*
X96100000Y-59261928D01*
X95585750Y-59265000D01*
X95427000Y-59423750D01*
X95173000Y-59423750D01*
X95014250Y-59265000D01*
X94500000Y-59261928D01*
X94375518Y-59274188D01*
X94255820Y-59310498D01*
X94145506Y-59369463D01*
X94048815Y-59448815D01*
X93969463Y-59545506D01*
X93910498Y-59655820D01*
X93874188Y-59775518D01*
X93861928Y-59900000D01*
X93685000Y-59900000D01*
X93685000Y-58500000D01*
X93678710Y-58435855D01*
X93672867Y-58371644D01*
X93672188Y-58369338D01*
X93671954Y-58366949D01*
X93653334Y-58305277D01*
X93635121Y-58243394D01*
X93634008Y-58241264D01*
X93633314Y-58238967D01*
X93603084Y-58182114D01*
X93573184Y-58124919D01*
X93571677Y-58123045D01*
X93570551Y-58120927D01*
X93529843Y-58071014D01*
X93489414Y-58020731D01*
X93487573Y-58019187D01*
X93486056Y-58017326D01*
X93436384Y-57976234D01*
X93387002Y-57934797D01*
X93384898Y-57933640D01*
X93383047Y-57932109D01*
X93326361Y-57901459D01*
X93269850Y-57870392D01*
X93267558Y-57869665D01*
X93265448Y-57868524D01*
X93203916Y-57849476D01*
X93142420Y-57829969D01*
X93140032Y-57829701D01*
X93137738Y-57828991D01*
X93073634Y-57822254D01*
X93009564Y-57815067D01*
X93004950Y-57815035D01*
X93004782Y-57815017D01*
X93004614Y-57815032D01*
X93000000Y-57815000D01*
X91685000Y-57815000D01*
X91685000Y-55150000D01*
X92011928Y-55150000D01*
X92011928Y-56850000D01*
X92024188Y-56974482D01*
X92060498Y-57094180D01*
X92119463Y-57204494D01*
X92198815Y-57301185D01*
X92295506Y-57380537D01*
X92405820Y-57439502D01*
X92525518Y-57475812D01*
X92650000Y-57488072D01*
X94350000Y-57488072D01*
X94474482Y-57475812D01*
X94594180Y-57439502D01*
X94704494Y-57380537D01*
X94801185Y-57301185D01*
X94880537Y-57204494D01*
X94939502Y-57094180D01*
X94959457Y-57028397D01*
X95191208Y-57028397D01*
X95268843Y-57277472D01*
X95532883Y-57403371D01*
X95816411Y-57475339D01*
X96108531Y-57490611D01*
X96398019Y-57448599D01*
X96673747Y-57350919D01*
X96811157Y-57277472D01*
X96888792Y-57028397D01*
X97731208Y-57028397D01*
X97808843Y-57277472D01*
X98072883Y-57403371D01*
X98356411Y-57475339D01*
X98648531Y-57490611D01*
X98938019Y-57448599D01*
X99213747Y-57350919D01*
X99351157Y-57277472D01*
X99428792Y-57028397D01*
X100271208Y-57028397D01*
X100348843Y-57277472D01*
X100612883Y-57403371D01*
X100896411Y-57475339D01*
X101188531Y-57490611D01*
X101478019Y-57448599D01*
X101753747Y-57350919D01*
X101891157Y-57277472D01*
X101968792Y-57028397D01*
X101120000Y-56179605D01*
X100271208Y-57028397D01*
X99428792Y-57028397D01*
X98580000Y-56179605D01*
X97731208Y-57028397D01*
X96888792Y-57028397D01*
X96040000Y-56179605D01*
X95191208Y-57028397D01*
X94959457Y-57028397D01*
X94975812Y-56974482D01*
X94988072Y-56850000D01*
X94988072Y-56841458D01*
X95011603Y-56848792D01*
X95860395Y-56000000D01*
X96219605Y-56000000D01*
X97068397Y-56848792D01*
X97310000Y-56773486D01*
X97551603Y-56848792D01*
X98400395Y-56000000D01*
X98759605Y-56000000D01*
X99608397Y-56848792D01*
X99850000Y-56773486D01*
X100091603Y-56848792D01*
X100940395Y-56000000D01*
X100091603Y-55151208D01*
X99850000Y-55226514D01*
X99608397Y-55151208D01*
X98759605Y-56000000D01*
X98400395Y-56000000D01*
X97551603Y-55151208D01*
X97310000Y-55226514D01*
X97068397Y-55151208D01*
X96219605Y-56000000D01*
X95860395Y-56000000D01*
X95011603Y-55151208D01*
X94988072Y-55158542D01*
X94988072Y-55150000D01*
X94975812Y-55025518D01*
X94939502Y-54905820D01*
X94880537Y-54795506D01*
X94801185Y-54698815D01*
X94704494Y-54619463D01*
X94594180Y-54560498D01*
X94521620Y-54538487D01*
X94571710Y-54488397D01*
X95191208Y-54488397D01*
X95266514Y-54730000D01*
X95191208Y-54971603D01*
X96040000Y-55820395D01*
X96888792Y-54971603D01*
X96813486Y-54730000D01*
X96888792Y-54488397D01*
X97731208Y-54488397D01*
X97806514Y-54730000D01*
X97731208Y-54971603D01*
X98580000Y-55820395D01*
X99428792Y-54971603D01*
X99353486Y-54730000D01*
X99428792Y-54488397D01*
X100271208Y-54488397D01*
X100346514Y-54730000D01*
X100271208Y-54971603D01*
X101120000Y-55820395D01*
X101968792Y-54971603D01*
X101893486Y-54730000D01*
X101968792Y-54488397D01*
X101120000Y-53639605D01*
X100271208Y-54488397D01*
X99428792Y-54488397D01*
X98580000Y-53639605D01*
X97731208Y-54488397D01*
X96888792Y-54488397D01*
X96040000Y-53639605D01*
X95191208Y-54488397D01*
X94571710Y-54488397D01*
X94653475Y-54406632D01*
X94769311Y-54233271D01*
X95011603Y-54308792D01*
X95860395Y-53460000D01*
X96219605Y-53460000D01*
X97068397Y-54308792D01*
X97310000Y-54233486D01*
X97551603Y-54308792D01*
X98400395Y-53460000D01*
X98759605Y-53460000D01*
X99608397Y-54308792D01*
X99850000Y-54233486D01*
X100091603Y-54308792D01*
X100940395Y-53460000D01*
X100091603Y-52611208D01*
X99850000Y-52686514D01*
X99608397Y-52611208D01*
X98759605Y-53460000D01*
X98400395Y-53460000D01*
X97551603Y-52611208D01*
X97310000Y-52686514D01*
X97068397Y-52611208D01*
X96219605Y-53460000D01*
X95860395Y-53460000D01*
X95011603Y-52611208D01*
X94769311Y-52686729D01*
X94653475Y-52513368D01*
X94571710Y-52431603D01*
X95191208Y-52431603D01*
X96040000Y-53280395D01*
X96888792Y-52431603D01*
X97731208Y-52431603D01*
X98580000Y-53280395D01*
X99428792Y-52431603D01*
X100271208Y-52431603D01*
X101120000Y-53280395D01*
X101968792Y-52431603D01*
X101891157Y-52182528D01*
X101627117Y-52056629D01*
X101343589Y-51984661D01*
X101051469Y-51969389D01*
X100761981Y-52011401D01*
X100486253Y-52109081D01*
X100348843Y-52182528D01*
X100271208Y-52431603D01*
X99428792Y-52431603D01*
X99351157Y-52182528D01*
X99087117Y-52056629D01*
X98803589Y-51984661D01*
X98511469Y-51969389D01*
X98221981Y-52011401D01*
X97946253Y-52109081D01*
X97808843Y-52182528D01*
X97731208Y-52431603D01*
X96888792Y-52431603D01*
X96811157Y-52182528D01*
X96547117Y-52056629D01*
X96263589Y-51984661D01*
X95971469Y-51969389D01*
X95681981Y-52011401D01*
X95406253Y-52109081D01*
X95268843Y-52182528D01*
X95191208Y-52431603D01*
X94571710Y-52431603D01*
X94446632Y-52306525D01*
X94203411Y-52144010D01*
X93933158Y-52032068D01*
X93646260Y-51975000D01*
X93353740Y-51975000D01*
X93066842Y-52032068D01*
X92796589Y-52144010D01*
X92553368Y-52306525D01*
X92346525Y-52513368D01*
X92184010Y-52756589D01*
X92072068Y-53026842D01*
X92015000Y-53313740D01*
X92015000Y-53606260D01*
X92072068Y-53893158D01*
X92184010Y-54163411D01*
X92346525Y-54406632D01*
X92478380Y-54538487D01*
X92405820Y-54560498D01*
X92295506Y-54619463D01*
X92198815Y-54698815D01*
X92119463Y-54795506D01*
X92060498Y-54905820D01*
X92024188Y-55025518D01*
X92011928Y-55150000D01*
X91685000Y-55150000D01*
X91685000Y-54500000D01*
X91678710Y-54435855D01*
X91672867Y-54371644D01*
X91672188Y-54369338D01*
X91671954Y-54366949D01*
X91653334Y-54305277D01*
X91635121Y-54243394D01*
X91634008Y-54241264D01*
X91633314Y-54238967D01*
X91603084Y-54182114D01*
X91573184Y-54124919D01*
X91571677Y-54123045D01*
X91570551Y-54120927D01*
X91529843Y-54071014D01*
X91489414Y-54020731D01*
X91487573Y-54019187D01*
X91486056Y-54017326D01*
X91436384Y-53976234D01*
X91387002Y-53934797D01*
X91384898Y-53933640D01*
X91383047Y-53932109D01*
X91326361Y-53901459D01*
X91269850Y-53870392D01*
X91267558Y-53869665D01*
X91265448Y-53868524D01*
X91203916Y-53849476D01*
X91142420Y-53829969D01*
X91140032Y-53829701D01*
X91137738Y-53828991D01*
X91073634Y-53822254D01*
X91009564Y-53815067D01*
X91004950Y-53815035D01*
X91004782Y-53815017D01*
X91004614Y-53815032D01*
X91000000Y-53815000D01*
X85685000Y-53815000D01*
X85685000Y-52635413D01*
X86044192Y-52635413D01*
X86139956Y-52899814D01*
X86429571Y-53040704D01*
X86741108Y-53122384D01*
X87062595Y-53141718D01*
X87381675Y-53097961D01*
X87686088Y-52992795D01*
X87860044Y-52899814D01*
X87955808Y-52635413D01*
X87000000Y-51679605D01*
X86044192Y-52635413D01*
X85685000Y-52635413D01*
X85685000Y-52390763D01*
X85864587Y-52455808D01*
X86820395Y-51500000D01*
X87179605Y-51500000D01*
X88135413Y-52455808D01*
X88399814Y-52360044D01*
X88540704Y-52070429D01*
X88622384Y-51758892D01*
X88641718Y-51437405D01*
X88597961Y-51118325D01*
X88492795Y-50813912D01*
X88399814Y-50639956D01*
X88135413Y-50544192D01*
X87179605Y-51500000D01*
X86820395Y-51500000D01*
X85864587Y-50544192D01*
X85685000Y-50609237D01*
X85685000Y-50364587D01*
X86044192Y-50364587D01*
X87000000Y-51320395D01*
X87955808Y-50364587D01*
X87860044Y-50100186D01*
X87570429Y-49959296D01*
X87258892Y-49877616D01*
X86937405Y-49858282D01*
X86618325Y-49902039D01*
X86313912Y-50007205D01*
X86139956Y-50100186D01*
X86044192Y-50364587D01*
X85685000Y-50364587D01*
X85685000Y-49685000D01*
X111315001Y-49685000D01*
X111315001Y-50202762D01*
M02*
