M48
; DRILL file {KiCad (5.1.5)-3} date 28/11/2020 16:28:16
; FORMAT={-:-/ absolute / inch / decimal}
; #@! TF.CreationDate,2020-11-28T16:28:16+00:00
; #@! TF.GenerationSoftware,Kicad,Pcbnew,(5.1.5)-3
; #@! TF.FileFunction,Plated,1,2,PTH
FMAT,2
INCH
T1C0.0236
T2C0.0394
T3C0.0512
%
G90
G05
T1
X3.4134Y-2.5748
X3.4134Y-2.7165
X3.5039Y-2.5512
X3.5945Y-2.5906
X3.6969Y-2.4016
X3.752Y-2.3268
X3.811Y-2.4016
X3.9902Y-2.563
X4.0669Y-2.6732
X4.2756Y-2.2835
X4.315Y-2.7047
X4.3346Y-2.4055
T2
X3.6811Y-2.1047
X3.6811Y-2.2047
X3.7811Y-2.1047
X3.7811Y-2.2047
X3.8811Y-2.1047
X3.8811Y-2.2047
X3.9811Y-2.1047
X3.9811Y-2.2047
X4.0811Y-2.1047
X4.0811Y-2.2047
T3
X4.2205Y-2.6929
X4.3386Y-2.0236
X3.4252Y-2.0276
X3.9055Y-2.6929
T0
M30
