G04 #@! TF.GenerationSoftware,KiCad,Pcbnew,(5.1.5)-3*
G04 #@! TF.CreationDate,2020-11-29T18:58:37+00:00*
G04 #@! TF.ProjectId,Retrospector_Power_Test_LM2675,52657472-6f73-4706-9563-746f725f506f,rev?*
G04 #@! TF.SameCoordinates,Original*
G04 #@! TF.FileFunction,Copper,L2,Bot*
G04 #@! TF.FilePolarity,Positive*
%FSLAX46Y46*%
G04 Gerber Fmt 4.6, Leading zero omitted, Abs format (unit mm)*
G04 Created by KiCad (PCBNEW (5.1.5)-3) date 2020-11-29 18:58:37*
%MOMM*%
%LPD*%
G04 APERTURE LIST*
%ADD10C,1.700000*%
%ADD11R,1.700000X1.700000*%
%ADD12R,0.900000X1.700000*%
%ADD13C,2.000000*%
%ADD14C,1.000000*%
%ADD15C,0.600000*%
%ADD16C,0.500000*%
%ADD17C,0.254000*%
G04 APERTURE END LIST*
D10*
X103660000Y-53460000D03*
X103660000Y-56000000D03*
X101120000Y-53460000D03*
X101120000Y-56000000D03*
X98580000Y-53460000D03*
X98580000Y-56000000D03*
X96040000Y-53460000D03*
X96040000Y-56000000D03*
X93500000Y-53460000D03*
D11*
X93500000Y-56000000D03*
D12*
X95450000Y-66500000D03*
X92550000Y-66500000D03*
X102550000Y-69400000D03*
X99650000Y-69400000D03*
X92550000Y-69400000D03*
X95450000Y-69400000D03*
X102550000Y-66600000D03*
X99650000Y-66600000D03*
D13*
X110200000Y-51400000D03*
X95700000Y-72400000D03*
X110000000Y-72500000D03*
X87000000Y-51500000D03*
D14*
X102550000Y-59150000D03*
X105600000Y-67000000D03*
X110500000Y-69500000D03*
X86000000Y-72500000D03*
X86000000Y-69500000D03*
X103700000Y-62500000D03*
X105200000Y-61000000D03*
X101200000Y-72600000D03*
X107800000Y-72000000D03*
X86700000Y-65300000D03*
X89000000Y-65400000D03*
X97000000Y-69400000D03*
X91300000Y-68700000D03*
D15*
X102550000Y-66600000D02*
X102550000Y-59150000D01*
D16*
X110200000Y-51500000D02*
X110200000Y-51400000D01*
X102550000Y-59150000D02*
X110200000Y-51500000D01*
D15*
X106900000Y-69400000D02*
X110000000Y-72500000D01*
X102550000Y-69400000D02*
X106900000Y-69400000D01*
X96500000Y-66500000D02*
X95450000Y-66500000D01*
X100500001Y-65249999D02*
X97750001Y-65249999D01*
X101500000Y-66249998D02*
X100500001Y-65249999D01*
X101500000Y-67950000D02*
X101500000Y-66249998D01*
X97750001Y-65249999D02*
X96500000Y-66500000D01*
X102550000Y-69000000D02*
X101500000Y-67950000D01*
X102550000Y-69400000D02*
X102550000Y-69000000D01*
X103660000Y-53460000D02*
X103660000Y-56000000D01*
X93500000Y-53460000D02*
X93500000Y-56000000D01*
X90100000Y-66500000D02*
X89000000Y-65400000D01*
X92550000Y-66500000D02*
X90100000Y-66500000D01*
D16*
X95400000Y-69400000D02*
X95450000Y-69200000D01*
D15*
X97000000Y-69400000D02*
X99650000Y-69400000D01*
X97000000Y-69400000D02*
X95450000Y-69400000D01*
X98600000Y-66600000D02*
X99650000Y-66600000D01*
X97349999Y-67850001D02*
X98600000Y-66600000D01*
X93699999Y-67850001D02*
X97349999Y-67850001D01*
X92550000Y-69000000D02*
X93699999Y-67850001D01*
X92550000Y-69400000D02*
X92550000Y-69000000D01*
X92000000Y-69400000D02*
X91300000Y-68700000D01*
X92550000Y-69400000D02*
X92000000Y-69400000D01*
D17*
G36*
X100835656Y-68614344D02*
G01*
X100871341Y-68643630D01*
X101461928Y-69234218D01*
X101461928Y-70250000D01*
X101474188Y-70374482D01*
X101510498Y-70494180D01*
X101569463Y-70604494D01*
X101648815Y-70701185D01*
X101745506Y-70780537D01*
X101855820Y-70839502D01*
X101975518Y-70875812D01*
X102100000Y-70888072D01*
X103000000Y-70888072D01*
X103124482Y-70875812D01*
X103244180Y-70839502D01*
X103354494Y-70780537D01*
X103451185Y-70701185D01*
X103530537Y-70604494D01*
X103589502Y-70494180D01*
X103625812Y-70374482D01*
X103629701Y-70335000D01*
X106512711Y-70335000D01*
X108390165Y-72212454D01*
X108365000Y-72338967D01*
X108365000Y-72661033D01*
X108427832Y-72976912D01*
X108551082Y-73274463D01*
X108578168Y-73315000D01*
X97055014Y-73315000D01*
X97148918Y-73174463D01*
X97272168Y-72876912D01*
X97335000Y-72561033D01*
X97335000Y-72238967D01*
X97272168Y-71923088D01*
X97148918Y-71625537D01*
X96969987Y-71357748D01*
X96742252Y-71130013D01*
X96474463Y-70951082D01*
X96176912Y-70827832D01*
X96168969Y-70826252D01*
X96254494Y-70780537D01*
X96351185Y-70701185D01*
X96430537Y-70604494D01*
X96489502Y-70494180D01*
X96510285Y-70425669D01*
X96668933Y-70491383D01*
X96888212Y-70535000D01*
X97111788Y-70535000D01*
X97331067Y-70491383D01*
X97537624Y-70405824D01*
X97643619Y-70335000D01*
X98570299Y-70335000D01*
X98574188Y-70374482D01*
X98610498Y-70494180D01*
X98669463Y-70604494D01*
X98748815Y-70701185D01*
X98845506Y-70780537D01*
X98955820Y-70839502D01*
X99075518Y-70875812D01*
X99200000Y-70888072D01*
X100100000Y-70888072D01*
X100224482Y-70875812D01*
X100344180Y-70839502D01*
X100454494Y-70780537D01*
X100551185Y-70701185D01*
X100630537Y-70604494D01*
X100689502Y-70494180D01*
X100725812Y-70374482D01*
X100738072Y-70250000D01*
X100738072Y-68550000D01*
X100731965Y-68487996D01*
X100835656Y-68614344D01*
G37*
X100835656Y-68614344D02*
X100871341Y-68643630D01*
X101461928Y-69234218D01*
X101461928Y-70250000D01*
X101474188Y-70374482D01*
X101510498Y-70494180D01*
X101569463Y-70604494D01*
X101648815Y-70701185D01*
X101745506Y-70780537D01*
X101855820Y-70839502D01*
X101975518Y-70875812D01*
X102100000Y-70888072D01*
X103000000Y-70888072D01*
X103124482Y-70875812D01*
X103244180Y-70839502D01*
X103354494Y-70780537D01*
X103451185Y-70701185D01*
X103530537Y-70604494D01*
X103589502Y-70494180D01*
X103625812Y-70374482D01*
X103629701Y-70335000D01*
X106512711Y-70335000D01*
X108390165Y-72212454D01*
X108365000Y-72338967D01*
X108365000Y-72661033D01*
X108427832Y-72976912D01*
X108551082Y-73274463D01*
X108578168Y-73315000D01*
X97055014Y-73315000D01*
X97148918Y-73174463D01*
X97272168Y-72876912D01*
X97335000Y-72561033D01*
X97335000Y-72238967D01*
X97272168Y-71923088D01*
X97148918Y-71625537D01*
X96969987Y-71357748D01*
X96742252Y-71130013D01*
X96474463Y-70951082D01*
X96176912Y-70827832D01*
X96168969Y-70826252D01*
X96254494Y-70780537D01*
X96351185Y-70701185D01*
X96430537Y-70604494D01*
X96489502Y-70494180D01*
X96510285Y-70425669D01*
X96668933Y-70491383D01*
X96888212Y-70535000D01*
X97111788Y-70535000D01*
X97331067Y-70491383D01*
X97537624Y-70405824D01*
X97643619Y-70335000D01*
X98570299Y-70335000D01*
X98574188Y-70374482D01*
X98610498Y-70494180D01*
X98669463Y-70604494D01*
X98748815Y-70701185D01*
X98845506Y-70780537D01*
X98955820Y-70839502D01*
X99075518Y-70875812D01*
X99200000Y-70888072D01*
X100100000Y-70888072D01*
X100224482Y-70875812D01*
X100344180Y-70839502D01*
X100454494Y-70780537D01*
X100551185Y-70701185D01*
X100630537Y-70604494D01*
X100689502Y-70494180D01*
X100725812Y-70374482D01*
X100738072Y-70250000D01*
X100738072Y-68550000D01*
X100731965Y-68487996D01*
X100835656Y-68614344D01*
G36*
X111315001Y-50202762D02*
G01*
X111242252Y-50130013D01*
X110974463Y-49951082D01*
X110676912Y-49827832D01*
X110361033Y-49765000D01*
X110038967Y-49765000D01*
X109723088Y-49827832D01*
X109425537Y-49951082D01*
X109157748Y-50130013D01*
X108930013Y-50357748D01*
X108751082Y-50625537D01*
X108627832Y-50923088D01*
X108565000Y-51238967D01*
X108565000Y-51561033D01*
X108618487Y-51829934D01*
X105027493Y-55420929D01*
X104975990Y-55296589D01*
X104813475Y-55053368D01*
X104606632Y-54846525D01*
X104595000Y-54838753D01*
X104595000Y-54621247D01*
X104606632Y-54613475D01*
X104813475Y-54406632D01*
X104975990Y-54163411D01*
X105087932Y-53893158D01*
X105145000Y-53606260D01*
X105145000Y-53313740D01*
X105087932Y-53026842D01*
X104975990Y-52756589D01*
X104813475Y-52513368D01*
X104606632Y-52306525D01*
X104363411Y-52144010D01*
X104093158Y-52032068D01*
X103806260Y-51975000D01*
X103513740Y-51975000D01*
X103226842Y-52032068D01*
X102956589Y-52144010D01*
X102713368Y-52306525D01*
X102506525Y-52513368D01*
X102390689Y-52686729D01*
X102148397Y-52611208D01*
X101299605Y-53460000D01*
X102148397Y-54308792D01*
X102390689Y-54233271D01*
X102506525Y-54406632D01*
X102713368Y-54613475D01*
X102725000Y-54621248D01*
X102725001Y-54838752D01*
X102713368Y-54846525D01*
X102506525Y-55053368D01*
X102390689Y-55226729D01*
X102148397Y-55151208D01*
X101299605Y-56000000D01*
X102148397Y-56848792D01*
X102390689Y-56773271D01*
X102506525Y-56946632D01*
X102713368Y-57153475D01*
X102956589Y-57315990D01*
X103080929Y-57367493D01*
X102432233Y-58016189D01*
X102218933Y-58058617D01*
X102012376Y-58144176D01*
X101826480Y-58268388D01*
X101668388Y-58426480D01*
X101544176Y-58612376D01*
X101458617Y-58818933D01*
X101415000Y-59038212D01*
X101415000Y-59261788D01*
X101458617Y-59481067D01*
X101544176Y-59687624D01*
X101615001Y-59793621D01*
X101615000Y-65042709D01*
X101193631Y-64621340D01*
X101164345Y-64585655D01*
X101021973Y-64468813D01*
X100859541Y-64381992D01*
X100683293Y-64328528D01*
X100545933Y-64314999D01*
X100500001Y-64310475D01*
X100454069Y-64314999D01*
X97795932Y-64314999D01*
X97750000Y-64310475D01*
X97566708Y-64328528D01*
X97513244Y-64344746D01*
X97390461Y-64381992D01*
X97228029Y-64468813D01*
X97085657Y-64585655D01*
X97056375Y-64621335D01*
X96408751Y-65268960D01*
X96351185Y-65198815D01*
X96254494Y-65119463D01*
X96144180Y-65060498D01*
X96024482Y-65024188D01*
X95900000Y-65011928D01*
X95000000Y-65011928D01*
X94875518Y-65024188D01*
X94755820Y-65060498D01*
X94645506Y-65119463D01*
X94548815Y-65198815D01*
X94469463Y-65295506D01*
X94410498Y-65405820D01*
X94374188Y-65525518D01*
X94361928Y-65650000D01*
X94361928Y-66915001D01*
X93745930Y-66915001D01*
X93699998Y-66910477D01*
X93638072Y-66916576D01*
X93638072Y-65650000D01*
X93625812Y-65525518D01*
X93589502Y-65405820D01*
X93530537Y-65295506D01*
X93451185Y-65198815D01*
X93354494Y-65119463D01*
X93244180Y-65060498D01*
X93124482Y-65024188D01*
X93000000Y-65011928D01*
X92100000Y-65011928D01*
X91975518Y-65024188D01*
X91855820Y-65060498D01*
X91745506Y-65119463D01*
X91648815Y-65198815D01*
X91569463Y-65295506D01*
X91510498Y-65405820D01*
X91474188Y-65525518D01*
X91470299Y-65565000D01*
X90487289Y-65565000D01*
X90116253Y-65193964D01*
X90091383Y-65068933D01*
X90005824Y-64862376D01*
X89881612Y-64676480D01*
X89723520Y-64518388D01*
X89537624Y-64394176D01*
X89331067Y-64308617D01*
X89111788Y-64265000D01*
X88888212Y-64265000D01*
X88668933Y-64308617D01*
X88462376Y-64394176D01*
X88276480Y-64518388D01*
X88118388Y-64676480D01*
X87994176Y-64862376D01*
X87908617Y-65068933D01*
X87865000Y-65288212D01*
X87865000Y-65511788D01*
X87908617Y-65731067D01*
X87994176Y-65937624D01*
X88118388Y-66123520D01*
X88276480Y-66281612D01*
X88462376Y-66405824D01*
X88668933Y-66491383D01*
X88793964Y-66516253D01*
X89406370Y-67128659D01*
X89435656Y-67164344D01*
X89578028Y-67281186D01*
X89740460Y-67368007D01*
X89916708Y-67421471D01*
X90100000Y-67439524D01*
X90145932Y-67435000D01*
X91470299Y-67435000D01*
X91474188Y-67474482D01*
X91507416Y-67584022D01*
X91411788Y-67565000D01*
X91188212Y-67565000D01*
X90968933Y-67608617D01*
X90762376Y-67694176D01*
X90576480Y-67818388D01*
X90418388Y-67976480D01*
X90294176Y-68162376D01*
X90208617Y-68368933D01*
X90165000Y-68588212D01*
X90165000Y-68811788D01*
X90208617Y-69031067D01*
X90294176Y-69237624D01*
X90418388Y-69423520D01*
X90576480Y-69581612D01*
X90762376Y-69705824D01*
X90968933Y-69791383D01*
X91093963Y-69816253D01*
X91306374Y-70028664D01*
X91335656Y-70064344D01*
X91461928Y-70167973D01*
X91461928Y-70250000D01*
X91474188Y-70374482D01*
X91510498Y-70494180D01*
X91569463Y-70604494D01*
X91648815Y-70701185D01*
X91745506Y-70780537D01*
X91855820Y-70839502D01*
X91975518Y-70875812D01*
X92100000Y-70888072D01*
X93000000Y-70888072D01*
X93124482Y-70875812D01*
X93244180Y-70839502D01*
X93354494Y-70780537D01*
X93451185Y-70701185D01*
X93530537Y-70604494D01*
X93589502Y-70494180D01*
X93625812Y-70374482D01*
X93638072Y-70250000D01*
X93638072Y-69234217D01*
X94087289Y-68785001D01*
X94361928Y-68785001D01*
X94361928Y-70250000D01*
X94374188Y-70374482D01*
X94410498Y-70494180D01*
X94469463Y-70604494D01*
X94548815Y-70701185D01*
X94645506Y-70780537D01*
X94755820Y-70839502D01*
X94875518Y-70875812D01*
X95000000Y-70888072D01*
X95077656Y-70888072D01*
X94925537Y-70951082D01*
X94657748Y-71130013D01*
X94430013Y-71357748D01*
X94251082Y-71625537D01*
X94127832Y-71923088D01*
X94065000Y-72238967D01*
X94065000Y-72561033D01*
X94127832Y-72876912D01*
X94251082Y-73174463D01*
X94344986Y-73315000D01*
X85685000Y-73315000D01*
X85685000Y-55150000D01*
X92011928Y-55150000D01*
X92011928Y-56850000D01*
X92024188Y-56974482D01*
X92060498Y-57094180D01*
X92119463Y-57204494D01*
X92198815Y-57301185D01*
X92295506Y-57380537D01*
X92405820Y-57439502D01*
X92525518Y-57475812D01*
X92650000Y-57488072D01*
X94350000Y-57488072D01*
X94474482Y-57475812D01*
X94594180Y-57439502D01*
X94704494Y-57380537D01*
X94801185Y-57301185D01*
X94880537Y-57204494D01*
X94939502Y-57094180D01*
X94959457Y-57028397D01*
X95191208Y-57028397D01*
X95268843Y-57277472D01*
X95532883Y-57403371D01*
X95816411Y-57475339D01*
X96108531Y-57490611D01*
X96398019Y-57448599D01*
X96673747Y-57350919D01*
X96811157Y-57277472D01*
X96888792Y-57028397D01*
X97731208Y-57028397D01*
X97808843Y-57277472D01*
X98072883Y-57403371D01*
X98356411Y-57475339D01*
X98648531Y-57490611D01*
X98938019Y-57448599D01*
X99213747Y-57350919D01*
X99351157Y-57277472D01*
X99428792Y-57028397D01*
X100271208Y-57028397D01*
X100348843Y-57277472D01*
X100612883Y-57403371D01*
X100896411Y-57475339D01*
X101188531Y-57490611D01*
X101478019Y-57448599D01*
X101753747Y-57350919D01*
X101891157Y-57277472D01*
X101968792Y-57028397D01*
X101120000Y-56179605D01*
X100271208Y-57028397D01*
X99428792Y-57028397D01*
X98580000Y-56179605D01*
X97731208Y-57028397D01*
X96888792Y-57028397D01*
X96040000Y-56179605D01*
X95191208Y-57028397D01*
X94959457Y-57028397D01*
X94975812Y-56974482D01*
X94988072Y-56850000D01*
X94988072Y-56841458D01*
X95011603Y-56848792D01*
X95860395Y-56000000D01*
X96219605Y-56000000D01*
X97068397Y-56848792D01*
X97310000Y-56773486D01*
X97551603Y-56848792D01*
X98400395Y-56000000D01*
X98759605Y-56000000D01*
X99608397Y-56848792D01*
X99850000Y-56773486D01*
X100091603Y-56848792D01*
X100940395Y-56000000D01*
X100091603Y-55151208D01*
X99850000Y-55226514D01*
X99608397Y-55151208D01*
X98759605Y-56000000D01*
X98400395Y-56000000D01*
X97551603Y-55151208D01*
X97310000Y-55226514D01*
X97068397Y-55151208D01*
X96219605Y-56000000D01*
X95860395Y-56000000D01*
X95011603Y-55151208D01*
X94988072Y-55158542D01*
X94988072Y-55150000D01*
X94975812Y-55025518D01*
X94939502Y-54905820D01*
X94880537Y-54795506D01*
X94801185Y-54698815D01*
X94704494Y-54619463D01*
X94594180Y-54560498D01*
X94521620Y-54538487D01*
X94571710Y-54488397D01*
X95191208Y-54488397D01*
X95266514Y-54730000D01*
X95191208Y-54971603D01*
X96040000Y-55820395D01*
X96888792Y-54971603D01*
X96813486Y-54730000D01*
X96888792Y-54488397D01*
X97731208Y-54488397D01*
X97806514Y-54730000D01*
X97731208Y-54971603D01*
X98580000Y-55820395D01*
X99428792Y-54971603D01*
X99353486Y-54730000D01*
X99428792Y-54488397D01*
X100271208Y-54488397D01*
X100346514Y-54730000D01*
X100271208Y-54971603D01*
X101120000Y-55820395D01*
X101968792Y-54971603D01*
X101893486Y-54730000D01*
X101968792Y-54488397D01*
X101120000Y-53639605D01*
X100271208Y-54488397D01*
X99428792Y-54488397D01*
X98580000Y-53639605D01*
X97731208Y-54488397D01*
X96888792Y-54488397D01*
X96040000Y-53639605D01*
X95191208Y-54488397D01*
X94571710Y-54488397D01*
X94653475Y-54406632D01*
X94769311Y-54233271D01*
X95011603Y-54308792D01*
X95860395Y-53460000D01*
X96219605Y-53460000D01*
X97068397Y-54308792D01*
X97310000Y-54233486D01*
X97551603Y-54308792D01*
X98400395Y-53460000D01*
X98759605Y-53460000D01*
X99608397Y-54308792D01*
X99850000Y-54233486D01*
X100091603Y-54308792D01*
X100940395Y-53460000D01*
X100091603Y-52611208D01*
X99850000Y-52686514D01*
X99608397Y-52611208D01*
X98759605Y-53460000D01*
X98400395Y-53460000D01*
X97551603Y-52611208D01*
X97310000Y-52686514D01*
X97068397Y-52611208D01*
X96219605Y-53460000D01*
X95860395Y-53460000D01*
X95011603Y-52611208D01*
X94769311Y-52686729D01*
X94653475Y-52513368D01*
X94571710Y-52431603D01*
X95191208Y-52431603D01*
X96040000Y-53280395D01*
X96888792Y-52431603D01*
X97731208Y-52431603D01*
X98580000Y-53280395D01*
X99428792Y-52431603D01*
X100271208Y-52431603D01*
X101120000Y-53280395D01*
X101968792Y-52431603D01*
X101891157Y-52182528D01*
X101627117Y-52056629D01*
X101343589Y-51984661D01*
X101051469Y-51969389D01*
X100761981Y-52011401D01*
X100486253Y-52109081D01*
X100348843Y-52182528D01*
X100271208Y-52431603D01*
X99428792Y-52431603D01*
X99351157Y-52182528D01*
X99087117Y-52056629D01*
X98803589Y-51984661D01*
X98511469Y-51969389D01*
X98221981Y-52011401D01*
X97946253Y-52109081D01*
X97808843Y-52182528D01*
X97731208Y-52431603D01*
X96888792Y-52431603D01*
X96811157Y-52182528D01*
X96547117Y-52056629D01*
X96263589Y-51984661D01*
X95971469Y-51969389D01*
X95681981Y-52011401D01*
X95406253Y-52109081D01*
X95268843Y-52182528D01*
X95191208Y-52431603D01*
X94571710Y-52431603D01*
X94446632Y-52306525D01*
X94203411Y-52144010D01*
X93933158Y-52032068D01*
X93646260Y-51975000D01*
X93353740Y-51975000D01*
X93066842Y-52032068D01*
X92796589Y-52144010D01*
X92553368Y-52306525D01*
X92346525Y-52513368D01*
X92184010Y-52756589D01*
X92072068Y-53026842D01*
X92015000Y-53313740D01*
X92015000Y-53606260D01*
X92072068Y-53893158D01*
X92184010Y-54163411D01*
X92346525Y-54406632D01*
X92478380Y-54538487D01*
X92405820Y-54560498D01*
X92295506Y-54619463D01*
X92198815Y-54698815D01*
X92119463Y-54795506D01*
X92060498Y-54905820D01*
X92024188Y-55025518D01*
X92011928Y-55150000D01*
X85685000Y-55150000D01*
X85685000Y-52635413D01*
X86044192Y-52635413D01*
X86139956Y-52899814D01*
X86429571Y-53040704D01*
X86741108Y-53122384D01*
X87062595Y-53141718D01*
X87381675Y-53097961D01*
X87686088Y-52992795D01*
X87860044Y-52899814D01*
X87955808Y-52635413D01*
X87000000Y-51679605D01*
X86044192Y-52635413D01*
X85685000Y-52635413D01*
X85685000Y-52390763D01*
X85864587Y-52455808D01*
X86820395Y-51500000D01*
X87179605Y-51500000D01*
X88135413Y-52455808D01*
X88399814Y-52360044D01*
X88540704Y-52070429D01*
X88622384Y-51758892D01*
X88641718Y-51437405D01*
X88597961Y-51118325D01*
X88492795Y-50813912D01*
X88399814Y-50639956D01*
X88135413Y-50544192D01*
X87179605Y-51500000D01*
X86820395Y-51500000D01*
X85864587Y-50544192D01*
X85685000Y-50609237D01*
X85685000Y-50364587D01*
X86044192Y-50364587D01*
X87000000Y-51320395D01*
X87955808Y-50364587D01*
X87860044Y-50100186D01*
X87570429Y-49959296D01*
X87258892Y-49877616D01*
X86937405Y-49858282D01*
X86618325Y-49902039D01*
X86313912Y-50007205D01*
X86139956Y-50100186D01*
X86044192Y-50364587D01*
X85685000Y-50364587D01*
X85685000Y-49685000D01*
X111315001Y-49685000D01*
X111315001Y-50202762D01*
G37*
X111315001Y-50202762D02*
X111242252Y-50130013D01*
X110974463Y-49951082D01*
X110676912Y-49827832D01*
X110361033Y-49765000D01*
X110038967Y-49765000D01*
X109723088Y-49827832D01*
X109425537Y-49951082D01*
X109157748Y-50130013D01*
X108930013Y-50357748D01*
X108751082Y-50625537D01*
X108627832Y-50923088D01*
X108565000Y-51238967D01*
X108565000Y-51561033D01*
X108618487Y-51829934D01*
X105027493Y-55420929D01*
X104975990Y-55296589D01*
X104813475Y-55053368D01*
X104606632Y-54846525D01*
X104595000Y-54838753D01*
X104595000Y-54621247D01*
X104606632Y-54613475D01*
X104813475Y-54406632D01*
X104975990Y-54163411D01*
X105087932Y-53893158D01*
X105145000Y-53606260D01*
X105145000Y-53313740D01*
X105087932Y-53026842D01*
X104975990Y-52756589D01*
X104813475Y-52513368D01*
X104606632Y-52306525D01*
X104363411Y-52144010D01*
X104093158Y-52032068D01*
X103806260Y-51975000D01*
X103513740Y-51975000D01*
X103226842Y-52032068D01*
X102956589Y-52144010D01*
X102713368Y-52306525D01*
X102506525Y-52513368D01*
X102390689Y-52686729D01*
X102148397Y-52611208D01*
X101299605Y-53460000D01*
X102148397Y-54308792D01*
X102390689Y-54233271D01*
X102506525Y-54406632D01*
X102713368Y-54613475D01*
X102725000Y-54621248D01*
X102725001Y-54838752D01*
X102713368Y-54846525D01*
X102506525Y-55053368D01*
X102390689Y-55226729D01*
X102148397Y-55151208D01*
X101299605Y-56000000D01*
X102148397Y-56848792D01*
X102390689Y-56773271D01*
X102506525Y-56946632D01*
X102713368Y-57153475D01*
X102956589Y-57315990D01*
X103080929Y-57367493D01*
X102432233Y-58016189D01*
X102218933Y-58058617D01*
X102012376Y-58144176D01*
X101826480Y-58268388D01*
X101668388Y-58426480D01*
X101544176Y-58612376D01*
X101458617Y-58818933D01*
X101415000Y-59038212D01*
X101415000Y-59261788D01*
X101458617Y-59481067D01*
X101544176Y-59687624D01*
X101615001Y-59793621D01*
X101615000Y-65042709D01*
X101193631Y-64621340D01*
X101164345Y-64585655D01*
X101021973Y-64468813D01*
X100859541Y-64381992D01*
X100683293Y-64328528D01*
X100545933Y-64314999D01*
X100500001Y-64310475D01*
X100454069Y-64314999D01*
X97795932Y-64314999D01*
X97750000Y-64310475D01*
X97566708Y-64328528D01*
X97513244Y-64344746D01*
X97390461Y-64381992D01*
X97228029Y-64468813D01*
X97085657Y-64585655D01*
X97056375Y-64621335D01*
X96408751Y-65268960D01*
X96351185Y-65198815D01*
X96254494Y-65119463D01*
X96144180Y-65060498D01*
X96024482Y-65024188D01*
X95900000Y-65011928D01*
X95000000Y-65011928D01*
X94875518Y-65024188D01*
X94755820Y-65060498D01*
X94645506Y-65119463D01*
X94548815Y-65198815D01*
X94469463Y-65295506D01*
X94410498Y-65405820D01*
X94374188Y-65525518D01*
X94361928Y-65650000D01*
X94361928Y-66915001D01*
X93745930Y-66915001D01*
X93699998Y-66910477D01*
X93638072Y-66916576D01*
X93638072Y-65650000D01*
X93625812Y-65525518D01*
X93589502Y-65405820D01*
X93530537Y-65295506D01*
X93451185Y-65198815D01*
X93354494Y-65119463D01*
X93244180Y-65060498D01*
X93124482Y-65024188D01*
X93000000Y-65011928D01*
X92100000Y-65011928D01*
X91975518Y-65024188D01*
X91855820Y-65060498D01*
X91745506Y-65119463D01*
X91648815Y-65198815D01*
X91569463Y-65295506D01*
X91510498Y-65405820D01*
X91474188Y-65525518D01*
X91470299Y-65565000D01*
X90487289Y-65565000D01*
X90116253Y-65193964D01*
X90091383Y-65068933D01*
X90005824Y-64862376D01*
X89881612Y-64676480D01*
X89723520Y-64518388D01*
X89537624Y-64394176D01*
X89331067Y-64308617D01*
X89111788Y-64265000D01*
X88888212Y-64265000D01*
X88668933Y-64308617D01*
X88462376Y-64394176D01*
X88276480Y-64518388D01*
X88118388Y-64676480D01*
X87994176Y-64862376D01*
X87908617Y-65068933D01*
X87865000Y-65288212D01*
X87865000Y-65511788D01*
X87908617Y-65731067D01*
X87994176Y-65937624D01*
X88118388Y-66123520D01*
X88276480Y-66281612D01*
X88462376Y-66405824D01*
X88668933Y-66491383D01*
X88793964Y-66516253D01*
X89406370Y-67128659D01*
X89435656Y-67164344D01*
X89578028Y-67281186D01*
X89740460Y-67368007D01*
X89916708Y-67421471D01*
X90100000Y-67439524D01*
X90145932Y-67435000D01*
X91470299Y-67435000D01*
X91474188Y-67474482D01*
X91507416Y-67584022D01*
X91411788Y-67565000D01*
X91188212Y-67565000D01*
X90968933Y-67608617D01*
X90762376Y-67694176D01*
X90576480Y-67818388D01*
X90418388Y-67976480D01*
X90294176Y-68162376D01*
X90208617Y-68368933D01*
X90165000Y-68588212D01*
X90165000Y-68811788D01*
X90208617Y-69031067D01*
X90294176Y-69237624D01*
X90418388Y-69423520D01*
X90576480Y-69581612D01*
X90762376Y-69705824D01*
X90968933Y-69791383D01*
X91093963Y-69816253D01*
X91306374Y-70028664D01*
X91335656Y-70064344D01*
X91461928Y-70167973D01*
X91461928Y-70250000D01*
X91474188Y-70374482D01*
X91510498Y-70494180D01*
X91569463Y-70604494D01*
X91648815Y-70701185D01*
X91745506Y-70780537D01*
X91855820Y-70839502D01*
X91975518Y-70875812D01*
X92100000Y-70888072D01*
X93000000Y-70888072D01*
X93124482Y-70875812D01*
X93244180Y-70839502D01*
X93354494Y-70780537D01*
X93451185Y-70701185D01*
X93530537Y-70604494D01*
X93589502Y-70494180D01*
X93625812Y-70374482D01*
X93638072Y-70250000D01*
X93638072Y-69234217D01*
X94087289Y-68785001D01*
X94361928Y-68785001D01*
X94361928Y-70250000D01*
X94374188Y-70374482D01*
X94410498Y-70494180D01*
X94469463Y-70604494D01*
X94548815Y-70701185D01*
X94645506Y-70780537D01*
X94755820Y-70839502D01*
X94875518Y-70875812D01*
X95000000Y-70888072D01*
X95077656Y-70888072D01*
X94925537Y-70951082D01*
X94657748Y-71130013D01*
X94430013Y-71357748D01*
X94251082Y-71625537D01*
X94127832Y-71923088D01*
X94065000Y-72238967D01*
X94065000Y-72561033D01*
X94127832Y-72876912D01*
X94251082Y-73174463D01*
X94344986Y-73315000D01*
X85685000Y-73315000D01*
X85685000Y-55150000D01*
X92011928Y-55150000D01*
X92011928Y-56850000D01*
X92024188Y-56974482D01*
X92060498Y-57094180D01*
X92119463Y-57204494D01*
X92198815Y-57301185D01*
X92295506Y-57380537D01*
X92405820Y-57439502D01*
X92525518Y-57475812D01*
X92650000Y-57488072D01*
X94350000Y-57488072D01*
X94474482Y-57475812D01*
X94594180Y-57439502D01*
X94704494Y-57380537D01*
X94801185Y-57301185D01*
X94880537Y-57204494D01*
X94939502Y-57094180D01*
X94959457Y-57028397D01*
X95191208Y-57028397D01*
X95268843Y-57277472D01*
X95532883Y-57403371D01*
X95816411Y-57475339D01*
X96108531Y-57490611D01*
X96398019Y-57448599D01*
X96673747Y-57350919D01*
X96811157Y-57277472D01*
X96888792Y-57028397D01*
X97731208Y-57028397D01*
X97808843Y-57277472D01*
X98072883Y-57403371D01*
X98356411Y-57475339D01*
X98648531Y-57490611D01*
X98938019Y-57448599D01*
X99213747Y-57350919D01*
X99351157Y-57277472D01*
X99428792Y-57028397D01*
X100271208Y-57028397D01*
X100348843Y-57277472D01*
X100612883Y-57403371D01*
X100896411Y-57475339D01*
X101188531Y-57490611D01*
X101478019Y-57448599D01*
X101753747Y-57350919D01*
X101891157Y-57277472D01*
X101968792Y-57028397D01*
X101120000Y-56179605D01*
X100271208Y-57028397D01*
X99428792Y-57028397D01*
X98580000Y-56179605D01*
X97731208Y-57028397D01*
X96888792Y-57028397D01*
X96040000Y-56179605D01*
X95191208Y-57028397D01*
X94959457Y-57028397D01*
X94975812Y-56974482D01*
X94988072Y-56850000D01*
X94988072Y-56841458D01*
X95011603Y-56848792D01*
X95860395Y-56000000D01*
X96219605Y-56000000D01*
X97068397Y-56848792D01*
X97310000Y-56773486D01*
X97551603Y-56848792D01*
X98400395Y-56000000D01*
X98759605Y-56000000D01*
X99608397Y-56848792D01*
X99850000Y-56773486D01*
X100091603Y-56848792D01*
X100940395Y-56000000D01*
X100091603Y-55151208D01*
X99850000Y-55226514D01*
X99608397Y-55151208D01*
X98759605Y-56000000D01*
X98400395Y-56000000D01*
X97551603Y-55151208D01*
X97310000Y-55226514D01*
X97068397Y-55151208D01*
X96219605Y-56000000D01*
X95860395Y-56000000D01*
X95011603Y-55151208D01*
X94988072Y-55158542D01*
X94988072Y-55150000D01*
X94975812Y-55025518D01*
X94939502Y-54905820D01*
X94880537Y-54795506D01*
X94801185Y-54698815D01*
X94704494Y-54619463D01*
X94594180Y-54560498D01*
X94521620Y-54538487D01*
X94571710Y-54488397D01*
X95191208Y-54488397D01*
X95266514Y-54730000D01*
X95191208Y-54971603D01*
X96040000Y-55820395D01*
X96888792Y-54971603D01*
X96813486Y-54730000D01*
X96888792Y-54488397D01*
X97731208Y-54488397D01*
X97806514Y-54730000D01*
X97731208Y-54971603D01*
X98580000Y-55820395D01*
X99428792Y-54971603D01*
X99353486Y-54730000D01*
X99428792Y-54488397D01*
X100271208Y-54488397D01*
X100346514Y-54730000D01*
X100271208Y-54971603D01*
X101120000Y-55820395D01*
X101968792Y-54971603D01*
X101893486Y-54730000D01*
X101968792Y-54488397D01*
X101120000Y-53639605D01*
X100271208Y-54488397D01*
X99428792Y-54488397D01*
X98580000Y-53639605D01*
X97731208Y-54488397D01*
X96888792Y-54488397D01*
X96040000Y-53639605D01*
X95191208Y-54488397D01*
X94571710Y-54488397D01*
X94653475Y-54406632D01*
X94769311Y-54233271D01*
X95011603Y-54308792D01*
X95860395Y-53460000D01*
X96219605Y-53460000D01*
X97068397Y-54308792D01*
X97310000Y-54233486D01*
X97551603Y-54308792D01*
X98400395Y-53460000D01*
X98759605Y-53460000D01*
X99608397Y-54308792D01*
X99850000Y-54233486D01*
X100091603Y-54308792D01*
X100940395Y-53460000D01*
X100091603Y-52611208D01*
X99850000Y-52686514D01*
X99608397Y-52611208D01*
X98759605Y-53460000D01*
X98400395Y-53460000D01*
X97551603Y-52611208D01*
X97310000Y-52686514D01*
X97068397Y-52611208D01*
X96219605Y-53460000D01*
X95860395Y-53460000D01*
X95011603Y-52611208D01*
X94769311Y-52686729D01*
X94653475Y-52513368D01*
X94571710Y-52431603D01*
X95191208Y-52431603D01*
X96040000Y-53280395D01*
X96888792Y-52431603D01*
X97731208Y-52431603D01*
X98580000Y-53280395D01*
X99428792Y-52431603D01*
X100271208Y-52431603D01*
X101120000Y-53280395D01*
X101968792Y-52431603D01*
X101891157Y-52182528D01*
X101627117Y-52056629D01*
X101343589Y-51984661D01*
X101051469Y-51969389D01*
X100761981Y-52011401D01*
X100486253Y-52109081D01*
X100348843Y-52182528D01*
X100271208Y-52431603D01*
X99428792Y-52431603D01*
X99351157Y-52182528D01*
X99087117Y-52056629D01*
X98803589Y-51984661D01*
X98511469Y-51969389D01*
X98221981Y-52011401D01*
X97946253Y-52109081D01*
X97808843Y-52182528D01*
X97731208Y-52431603D01*
X96888792Y-52431603D01*
X96811157Y-52182528D01*
X96547117Y-52056629D01*
X96263589Y-51984661D01*
X95971469Y-51969389D01*
X95681981Y-52011401D01*
X95406253Y-52109081D01*
X95268843Y-52182528D01*
X95191208Y-52431603D01*
X94571710Y-52431603D01*
X94446632Y-52306525D01*
X94203411Y-52144010D01*
X93933158Y-52032068D01*
X93646260Y-51975000D01*
X93353740Y-51975000D01*
X93066842Y-52032068D01*
X92796589Y-52144010D01*
X92553368Y-52306525D01*
X92346525Y-52513368D01*
X92184010Y-52756589D01*
X92072068Y-53026842D01*
X92015000Y-53313740D01*
X92015000Y-53606260D01*
X92072068Y-53893158D01*
X92184010Y-54163411D01*
X92346525Y-54406632D01*
X92478380Y-54538487D01*
X92405820Y-54560498D01*
X92295506Y-54619463D01*
X92198815Y-54698815D01*
X92119463Y-54795506D01*
X92060498Y-54905820D01*
X92024188Y-55025518D01*
X92011928Y-55150000D01*
X85685000Y-55150000D01*
X85685000Y-52635413D01*
X86044192Y-52635413D01*
X86139956Y-52899814D01*
X86429571Y-53040704D01*
X86741108Y-53122384D01*
X87062595Y-53141718D01*
X87381675Y-53097961D01*
X87686088Y-52992795D01*
X87860044Y-52899814D01*
X87955808Y-52635413D01*
X87000000Y-51679605D01*
X86044192Y-52635413D01*
X85685000Y-52635413D01*
X85685000Y-52390763D01*
X85864587Y-52455808D01*
X86820395Y-51500000D01*
X87179605Y-51500000D01*
X88135413Y-52455808D01*
X88399814Y-52360044D01*
X88540704Y-52070429D01*
X88622384Y-51758892D01*
X88641718Y-51437405D01*
X88597961Y-51118325D01*
X88492795Y-50813912D01*
X88399814Y-50639956D01*
X88135413Y-50544192D01*
X87179605Y-51500000D01*
X86820395Y-51500000D01*
X85864587Y-50544192D01*
X85685000Y-50609237D01*
X85685000Y-50364587D01*
X86044192Y-50364587D01*
X87000000Y-51320395D01*
X87955808Y-50364587D01*
X87860044Y-50100186D01*
X87570429Y-49959296D01*
X87258892Y-49877616D01*
X86937405Y-49858282D01*
X86618325Y-49902039D01*
X86313912Y-50007205D01*
X86139956Y-50100186D01*
X86044192Y-50364587D01*
X85685000Y-50364587D01*
X85685000Y-49685000D01*
X111315001Y-49685000D01*
X111315001Y-50202762D01*
G36*
X111315000Y-71525115D02*
G01*
X111269987Y-71457748D01*
X111042252Y-71230013D01*
X110774463Y-71051082D01*
X110476912Y-70927832D01*
X110161033Y-70865000D01*
X109838967Y-70865000D01*
X109712454Y-70890165D01*
X107593630Y-68771341D01*
X107564344Y-68735656D01*
X107421972Y-68618814D01*
X107259540Y-68531993D01*
X107083292Y-68478529D01*
X106945932Y-68465000D01*
X106900000Y-68460476D01*
X106854068Y-68465000D01*
X103629701Y-68465000D01*
X103625812Y-68425518D01*
X103589502Y-68305820D01*
X103530537Y-68195506D01*
X103451185Y-68098815D01*
X103354494Y-68019463D01*
X103318082Y-68000000D01*
X103354494Y-67980537D01*
X103451185Y-67901185D01*
X103530537Y-67804494D01*
X103589502Y-67694180D01*
X103625812Y-67574482D01*
X103638072Y-67450000D01*
X103638072Y-65750000D01*
X103625812Y-65625518D01*
X103589502Y-65505820D01*
X103530537Y-65395506D01*
X103485000Y-65340019D01*
X103485000Y-59793619D01*
X103555824Y-59687624D01*
X103641383Y-59481067D01*
X103683811Y-59267767D01*
X109936884Y-53014695D01*
X110038967Y-53035000D01*
X110361033Y-53035000D01*
X110676912Y-52972168D01*
X110974463Y-52848918D01*
X111242252Y-52669987D01*
X111315001Y-52597238D01*
X111315000Y-71525115D01*
G37*
X111315000Y-71525115D02*
X111269987Y-71457748D01*
X111042252Y-71230013D01*
X110774463Y-71051082D01*
X110476912Y-70927832D01*
X110161033Y-70865000D01*
X109838967Y-70865000D01*
X109712454Y-70890165D01*
X107593630Y-68771341D01*
X107564344Y-68735656D01*
X107421972Y-68618814D01*
X107259540Y-68531993D01*
X107083292Y-68478529D01*
X106945932Y-68465000D01*
X106900000Y-68460476D01*
X106854068Y-68465000D01*
X103629701Y-68465000D01*
X103625812Y-68425518D01*
X103589502Y-68305820D01*
X103530537Y-68195506D01*
X103451185Y-68098815D01*
X103354494Y-68019463D01*
X103318082Y-68000000D01*
X103354494Y-67980537D01*
X103451185Y-67901185D01*
X103530537Y-67804494D01*
X103589502Y-67694180D01*
X103625812Y-67574482D01*
X103638072Y-67450000D01*
X103638072Y-65750000D01*
X103625812Y-65625518D01*
X103589502Y-65505820D01*
X103530537Y-65395506D01*
X103485000Y-65340019D01*
X103485000Y-59793619D01*
X103555824Y-59687624D01*
X103641383Y-59481067D01*
X103683811Y-59267767D01*
X109936884Y-53014695D01*
X110038967Y-53035000D01*
X110361033Y-53035000D01*
X110676912Y-52972168D01*
X110974463Y-52848918D01*
X111242252Y-52669987D01*
X111315001Y-52597238D01*
X111315000Y-71525115D01*
M02*
