G04 #@! TF.GenerationSoftware,KiCad,Pcbnew,(5.1.5)-3*
G04 #@! TF.CreationDate,2020-11-29T18:58:37+00:00*
G04 #@! TF.ProjectId,Retrospector_Power_Test_LM2675,52657472-6f73-4706-9563-746f725f506f,rev?*
G04 #@! TF.SameCoordinates,Original*
G04 #@! TF.FileFunction,Soldermask,Top*
G04 #@! TF.FilePolarity,Negative*
%FSLAX46Y46*%
G04 Gerber Fmt 4.6, Leading zero omitted, Abs format (unit mm)*
G04 Created by KiCad (PCBNEW (5.1.5)-3) date 2020-11-29 18:58:37*
%MOMM*%
%LPD*%
G04 APERTURE LIST*
%ADD10C,0.100000*%
%ADD11R,2.500000X1.000000*%
%ADD12R,1.550000X0.600000*%
%ADD13R,2.400000X1.500000*%
%ADD14C,1.700000*%
%ADD15R,1.700000X1.700000*%
%ADD16R,3.800000X2.000000*%
%ADD17R,1.500000X2.000000*%
%ADD18R,1.200000X0.900000*%
%ADD19R,0.900000X1.200000*%
%ADD20R,0.750000X1.200000*%
%ADD21C,2.000000*%
%ADD22R,1.300000X1.500000*%
%ADD23R,2.600000X1.600000*%
G04 APERTURE END LIST*
D10*
G36*
X91000000Y-59000000D02*
G01*
X92000000Y-59000000D01*
X92000000Y-62000000D01*
X90000000Y-62000000D01*
X90000000Y-63000000D01*
X85000000Y-63000000D01*
X85000000Y-55000000D01*
X91000000Y-55000000D01*
X91000000Y-59000000D01*
G37*
X91000000Y-59000000D02*
X92000000Y-59000000D01*
X92000000Y-62000000D01*
X90000000Y-62000000D01*
X90000000Y-63000000D01*
X85000000Y-63000000D01*
X85000000Y-55000000D01*
X91000000Y-55000000D01*
X91000000Y-59000000D01*
D11*
X99100000Y-69000000D03*
X99100000Y-72000000D03*
X110400000Y-68000000D03*
X110400000Y-65000000D03*
D12*
X102400000Y-64595000D03*
X102400000Y-65865000D03*
X102400000Y-67135000D03*
X102400000Y-68405000D03*
X107800000Y-68405000D03*
X107800000Y-67135000D03*
X107800000Y-65865000D03*
X107800000Y-64595000D03*
D13*
X96200000Y-61250000D03*
X96200000Y-66750000D03*
D14*
X103660000Y-53460000D03*
X103660000Y-56000000D03*
X101120000Y-53460000D03*
X101120000Y-56000000D03*
X98580000Y-53460000D03*
X98580000Y-56000000D03*
X96040000Y-53460000D03*
X96040000Y-56000000D03*
X93500000Y-53460000D03*
D15*
X93500000Y-56000000D03*
D16*
X89000000Y-60850000D03*
D17*
X89000000Y-67150000D03*
X91300000Y-67150000D03*
X86700000Y-67150000D03*
D18*
X106000000Y-70500000D03*
X108200000Y-70500000D03*
X102000000Y-70500000D03*
X104200000Y-70500000D03*
D19*
X108250000Y-62500000D03*
X104950000Y-62500000D03*
D20*
X100600000Y-62550000D03*
X100600000Y-64450000D03*
D21*
X110200000Y-51400000D03*
X95700000Y-72400000D03*
X110000000Y-72500000D03*
X87000000Y-51500000D03*
D22*
X93000000Y-72350000D03*
X93000000Y-69650000D03*
D18*
X110500000Y-59150000D03*
X110500000Y-55850000D03*
D23*
X90300000Y-71000000D03*
X86700000Y-71000000D03*
M02*
