G04 #@! TF.GenerationSoftware,KiCad,Pcbnew,(5.1.5)-3*
G04 #@! TF.CreationDate,2020-11-29T18:58:37+00:00*
G04 #@! TF.ProjectId,Retrospector_Power_Test_LM2675,52657472-6f73-4706-9563-746f725f506f,rev?*
G04 #@! TF.SameCoordinates,Original*
G04 #@! TF.FileFunction,Legend,Top*
G04 #@! TF.FilePolarity,Positive*
%FSLAX46Y46*%
G04 Gerber Fmt 4.6, Leading zero omitted, Abs format (unit mm)*
G04 Created by KiCad (PCBNEW (5.1.5)-3) date 2020-11-29 18:58:37*
%MOMM*%
%LPD*%
G04 APERTURE LIST*
%ADD10C,0.150000*%
%ADD11C,0.120000*%
%ADD12C,0.100000*%
G04 APERTURE END LIST*
D10*
X94509523Y-69952380D02*
X95128571Y-69952380D01*
X94795238Y-70333333D01*
X94938095Y-70333333D01*
X95033333Y-70380952D01*
X95080952Y-70428571D01*
X95128571Y-70523809D01*
X95128571Y-70761904D01*
X95080952Y-70857142D01*
X95033333Y-70904761D01*
X94938095Y-70952380D01*
X94652380Y-70952380D01*
X94557142Y-70904761D01*
X94509523Y-70857142D01*
X95414285Y-69952380D02*
X95747619Y-70952380D01*
X96080952Y-69952380D01*
X96366666Y-70666666D02*
X96842857Y-70666666D01*
X96271428Y-70952380D02*
X96604761Y-69952380D01*
X96938095Y-70952380D01*
X106061904Y-72652380D02*
X106680952Y-72652380D01*
X106347619Y-73033333D01*
X106490476Y-73033333D01*
X106585714Y-73080952D01*
X106633333Y-73128571D01*
X106680952Y-73223809D01*
X106680952Y-73461904D01*
X106633333Y-73557142D01*
X106585714Y-73604761D01*
X106490476Y-73652380D01*
X106204761Y-73652380D01*
X106109523Y-73604761D01*
X106061904Y-73557142D01*
X106966666Y-72652380D02*
X107300000Y-73652380D01*
X107633333Y-72652380D01*
X107871428Y-72652380D02*
X108490476Y-72652380D01*
X108157142Y-73033333D01*
X108300000Y-73033333D01*
X108395238Y-73080952D01*
X108442857Y-73128571D01*
X108490476Y-73223809D01*
X108490476Y-73461904D01*
X108442857Y-73557142D01*
X108395238Y-73604761D01*
X108300000Y-73652380D01*
X108014285Y-73652380D01*
X107919047Y-73604761D01*
X107871428Y-73557142D01*
X109680952Y-53952380D02*
X109109523Y-53952380D01*
X109395238Y-53952380D02*
X109395238Y-52952380D01*
X109300000Y-53095238D01*
X109204761Y-53190476D01*
X109109523Y-53238095D01*
X110061904Y-53047619D02*
X110109523Y-53000000D01*
X110204761Y-52952380D01*
X110442857Y-52952380D01*
X110538095Y-53000000D01*
X110585714Y-53047619D01*
X110633333Y-53142857D01*
X110633333Y-53238095D01*
X110585714Y-53380952D01*
X110014285Y-53952380D01*
X110633333Y-53952380D01*
X110919047Y-52952380D02*
X111252380Y-53952380D01*
X111585714Y-52952380D01*
X86038095Y-53000000D02*
X85942857Y-52952380D01*
X85800000Y-52952380D01*
X85657142Y-53000000D01*
X85561904Y-53095238D01*
X85514285Y-53190476D01*
X85466666Y-53380952D01*
X85466666Y-53523809D01*
X85514285Y-53714285D01*
X85561904Y-53809523D01*
X85657142Y-53904761D01*
X85800000Y-53952380D01*
X85895238Y-53952380D01*
X86038095Y-53904761D01*
X86085714Y-53857142D01*
X86085714Y-53523809D01*
X85895238Y-53523809D01*
X86514285Y-53952380D02*
X86514285Y-52952380D01*
X87085714Y-53952380D01*
X87085714Y-52952380D01*
X87561904Y-53952380D02*
X87561904Y-52952380D01*
X87800000Y-52952380D01*
X87942857Y-53000000D01*
X88038095Y-53095238D01*
X88085714Y-53190476D01*
X88133333Y-53380952D01*
X88133333Y-53523809D01*
X88085714Y-53714285D01*
X88038095Y-53809523D01*
X87942857Y-53904761D01*
X87800000Y-53952380D01*
X87561904Y-53952380D01*
D11*
X100580000Y-71500000D02*
X100580000Y-69500000D01*
X97620000Y-69500000D02*
X97620000Y-71500000D01*
X108920000Y-65500000D02*
X108920000Y-67500000D01*
X111880000Y-67500000D02*
X111880000Y-65500000D01*
D10*
X103025000Y-63925000D02*
X103025000Y-63975000D01*
X107175000Y-63925000D02*
X107175000Y-64070000D01*
X107175000Y-69075000D02*
X107175000Y-68930000D01*
X103025000Y-69075000D02*
X103025000Y-68930000D01*
X103025000Y-63925000D02*
X107175000Y-63925000D01*
X103025000Y-69075000D02*
X107175000Y-69075000D01*
X103025000Y-63975000D02*
X101625000Y-63975000D01*
D11*
X94700000Y-67300000D02*
X93000000Y-67300000D01*
X93000000Y-67300000D02*
X93000000Y-60700000D01*
X93000000Y-60700000D02*
X94700000Y-60700000D01*
X97700000Y-60700000D02*
X99400000Y-60700000D01*
X99400000Y-60700000D02*
X99400000Y-67300000D01*
X99400000Y-67300000D02*
X97700000Y-67300000D01*
D12*
G36*
X92500000Y-49800000D02*
G01*
X94500000Y-49800000D01*
X94500000Y-59700000D01*
X92500000Y-59700000D01*
X92500000Y-49800000D01*
G37*
X92500000Y-49800000D02*
X94500000Y-49800000D01*
X94500000Y-59700000D01*
X92500000Y-59700000D01*
X92500000Y-49800000D01*
D10*
X100805000Y-57900000D02*
X100805000Y-59200000D01*
X107530000Y-57900000D02*
X100805000Y-57900000D01*
X107530000Y-51560000D02*
X107530000Y-57900000D01*
X89630000Y-51560000D02*
X107530000Y-51560000D01*
X89630000Y-57900000D02*
X89630000Y-51560000D01*
X96355000Y-57900000D02*
X89630000Y-57900000D01*
X96355000Y-59200000D02*
X96355000Y-57900000D01*
X108730000Y-59200000D02*
X88430000Y-59200000D01*
X108730000Y-50260000D02*
X108730000Y-59200000D01*
X88430000Y-50260000D02*
X108730000Y-50260000D01*
X88430000Y-59200000D02*
X88430000Y-50260000D01*
D11*
X92410000Y-62090000D02*
X91150000Y-62090000D01*
X85590000Y-62090000D02*
X86850000Y-62090000D01*
X92410000Y-65850000D02*
X92410000Y-62090000D01*
X85590000Y-68100000D02*
X85590000Y-62090000D01*
X107600000Y-71180000D02*
X106600000Y-71180000D01*
X106600000Y-69820000D02*
X107600000Y-69820000D01*
X103600000Y-71180000D02*
X102600000Y-71180000D01*
X102600000Y-69820000D02*
X103600000Y-69820000D01*
X108850000Y-63500000D02*
X108850000Y-61500000D01*
X108850000Y-61500000D02*
X104950000Y-61500000D01*
X108850000Y-63500000D02*
X104950000Y-63500000D01*
X101200000Y-63150000D02*
X101200000Y-63850000D01*
X100000000Y-63850000D02*
X100000000Y-63150000D01*
X93880000Y-70400000D02*
X93880000Y-71600000D01*
X92120000Y-71600000D02*
X92120000Y-70400000D01*
X109500000Y-59750000D02*
X111500000Y-59750000D01*
X111500000Y-59750000D02*
X111500000Y-55850000D01*
X109500000Y-59750000D02*
X109500000Y-55850000D01*
X90790000Y-69480000D02*
X90790000Y-69880000D01*
X86210000Y-68710000D02*
X86210000Y-69880000D01*
X86210000Y-73290000D02*
X86210000Y-72120000D01*
X90790000Y-72520000D02*
X90790000Y-72120000D01*
X90020000Y-68710000D02*
X86210000Y-68710000D01*
X90020000Y-68710000D02*
X90790000Y-69480000D01*
X90020000Y-73290000D02*
X86210000Y-73290000D01*
X90020000Y-73290000D02*
X90790000Y-72520000D01*
D10*
X101757142Y-72566666D02*
X101804761Y-72614285D01*
X101852380Y-72757142D01*
X101852380Y-72852380D01*
X101804761Y-72995238D01*
X101709523Y-73090476D01*
X101614285Y-73138095D01*
X101423809Y-73185714D01*
X101280952Y-73185714D01*
X101090476Y-73138095D01*
X100995238Y-73090476D01*
X100900000Y-72995238D01*
X100852380Y-72852380D01*
X100852380Y-72757142D01*
X100900000Y-72614285D01*
X100947619Y-72566666D01*
X101185714Y-71709523D02*
X101852380Y-71709523D01*
X100804761Y-71947619D02*
X101519047Y-72185714D01*
X101519047Y-71566666D01*
X110133333Y-63857142D02*
X110085714Y-63904761D01*
X109942857Y-63952380D01*
X109847619Y-63952380D01*
X109704761Y-63904761D01*
X109609523Y-63809523D01*
X109561904Y-63714285D01*
X109514285Y-63523809D01*
X109514285Y-63380952D01*
X109561904Y-63190476D01*
X109609523Y-63095238D01*
X109704761Y-63000000D01*
X109847619Y-62952380D01*
X109942857Y-62952380D01*
X110085714Y-63000000D01*
X110133333Y-63047619D01*
X110514285Y-63047619D02*
X110561904Y-63000000D01*
X110657142Y-62952380D01*
X110895238Y-62952380D01*
X110990476Y-63000000D01*
X111038095Y-63047619D01*
X111085714Y-63142857D01*
X111085714Y-63238095D01*
X111038095Y-63380952D01*
X110466666Y-63952380D01*
X111085714Y-63952380D01*
X101638095Y-62452380D02*
X101638095Y-63261904D01*
X101685714Y-63357142D01*
X101733333Y-63404761D01*
X101828571Y-63452380D01*
X102019047Y-63452380D01*
X102114285Y-63404761D01*
X102161904Y-63357142D01*
X102209523Y-63261904D01*
X102209523Y-62452380D01*
X103209523Y-63452380D02*
X102638095Y-63452380D01*
X102923809Y-63452380D02*
X102923809Y-62452380D01*
X102828571Y-62595238D01*
X102733333Y-62690476D01*
X102638095Y-62738095D01*
X98333333Y-60452380D02*
X97857142Y-60452380D01*
X97857142Y-59452380D01*
X98571428Y-59452380D02*
X99190476Y-59452380D01*
X98857142Y-59833333D01*
X99000000Y-59833333D01*
X99095238Y-59880952D01*
X99142857Y-59928571D01*
X99190476Y-60023809D01*
X99190476Y-60261904D01*
X99142857Y-60357142D01*
X99095238Y-60404761D01*
X99000000Y-60452380D01*
X98714285Y-60452380D01*
X98619047Y-60404761D01*
X98571428Y-60357142D01*
X91571428Y-55761904D02*
X91571428Y-55000000D01*
X91952380Y-54000000D02*
X91952380Y-54571428D01*
X91952380Y-54285714D02*
X90952380Y-54285714D01*
X91095238Y-54380952D01*
X91190476Y-54476190D01*
X91238095Y-54571428D01*
X91047619Y-53619047D02*
X91000000Y-53571428D01*
X90952380Y-53476190D01*
X90952380Y-53238095D01*
X91000000Y-53142857D01*
X91047619Y-53095238D01*
X91142857Y-53047619D01*
X91238095Y-53047619D01*
X91380952Y-53095238D01*
X91952380Y-53666666D01*
X91952380Y-53047619D01*
X90952380Y-52761904D02*
X91952380Y-52428571D01*
X90952380Y-52095238D01*
X88238095Y-64652380D02*
X88238095Y-65461904D01*
X88285714Y-65557142D01*
X88333333Y-65604761D01*
X88428571Y-65652380D01*
X88619047Y-65652380D01*
X88714285Y-65604761D01*
X88761904Y-65557142D01*
X88809523Y-65461904D01*
X88809523Y-64652380D01*
X89238095Y-64747619D02*
X89285714Y-64700000D01*
X89380952Y-64652380D01*
X89619047Y-64652380D01*
X89714285Y-64700000D01*
X89761904Y-64747619D01*
X89809523Y-64842857D01*
X89809523Y-64938095D01*
X89761904Y-65080952D01*
X89190476Y-65652380D01*
X89809523Y-65652380D01*
X105733333Y-72352380D02*
X105400000Y-71876190D01*
X105161904Y-72352380D02*
X105161904Y-71352380D01*
X105542857Y-71352380D01*
X105638095Y-71400000D01*
X105685714Y-71447619D01*
X105733333Y-71542857D01*
X105733333Y-71685714D01*
X105685714Y-71780952D01*
X105638095Y-71828571D01*
X105542857Y-71876190D01*
X105161904Y-71876190D01*
X106114285Y-71447619D02*
X106161904Y-71400000D01*
X106257142Y-71352380D01*
X106495238Y-71352380D01*
X106590476Y-71400000D01*
X106638095Y-71447619D01*
X106685714Y-71542857D01*
X106685714Y-71638095D01*
X106638095Y-71780952D01*
X106066666Y-72352380D01*
X106685714Y-72352380D01*
X102933333Y-72352380D02*
X102600000Y-71876190D01*
X102361904Y-72352380D02*
X102361904Y-71352380D01*
X102742857Y-71352380D01*
X102838095Y-71400000D01*
X102885714Y-71447619D01*
X102933333Y-71542857D01*
X102933333Y-71685714D01*
X102885714Y-71780952D01*
X102838095Y-71828571D01*
X102742857Y-71876190D01*
X102361904Y-71876190D01*
X103885714Y-72352380D02*
X103314285Y-72352380D01*
X103600000Y-72352380D02*
X103600000Y-71352380D01*
X103504761Y-71495238D01*
X103409523Y-71590476D01*
X103314285Y-71638095D01*
X105861904Y-61052380D02*
X105861904Y-60052380D01*
X106100000Y-60052380D01*
X106242857Y-60100000D01*
X106338095Y-60195238D01*
X106385714Y-60290476D01*
X106433333Y-60480952D01*
X106433333Y-60623809D01*
X106385714Y-60814285D01*
X106338095Y-60909523D01*
X106242857Y-61004761D01*
X106100000Y-61052380D01*
X105861904Y-61052380D01*
X106814285Y-60147619D02*
X106861904Y-60100000D01*
X106957142Y-60052380D01*
X107195238Y-60052380D01*
X107290476Y-60100000D01*
X107338095Y-60147619D01*
X107385714Y-60242857D01*
X107385714Y-60338095D01*
X107338095Y-60480952D01*
X106766666Y-61052380D01*
X107385714Y-61052380D01*
X100333333Y-60957142D02*
X100285714Y-61004761D01*
X100142857Y-61052380D01*
X100047619Y-61052380D01*
X99904761Y-61004761D01*
X99809523Y-60909523D01*
X99761904Y-60814285D01*
X99714285Y-60623809D01*
X99714285Y-60480952D01*
X99761904Y-60290476D01*
X99809523Y-60195238D01*
X99904761Y-60100000D01*
X100047619Y-60052380D01*
X100142857Y-60052380D01*
X100285714Y-60100000D01*
X100333333Y-60147619D01*
X100666666Y-60052380D02*
X101285714Y-60052380D01*
X100952380Y-60433333D01*
X101095238Y-60433333D01*
X101190476Y-60480952D01*
X101238095Y-60528571D01*
X101285714Y-60623809D01*
X101285714Y-60861904D01*
X101238095Y-60957142D01*
X101190476Y-61004761D01*
X101095238Y-61052380D01*
X100809523Y-61052380D01*
X100714285Y-61004761D01*
X100666666Y-60957142D01*
X94633333Y-69252380D02*
X94157142Y-69252380D01*
X94157142Y-68252380D01*
X95490476Y-69252380D02*
X94919047Y-69252380D01*
X95204761Y-69252380D02*
X95204761Y-68252380D01*
X95109523Y-68395238D01*
X95014285Y-68490476D01*
X94919047Y-68538095D01*
X109761904Y-61152380D02*
X109761904Y-60152380D01*
X110000000Y-60152380D01*
X110142857Y-60200000D01*
X110238095Y-60295238D01*
X110285714Y-60390476D01*
X110333333Y-60580952D01*
X110333333Y-60723809D01*
X110285714Y-60914285D01*
X110238095Y-61009523D01*
X110142857Y-61104761D01*
X110000000Y-61152380D01*
X109761904Y-61152380D01*
X110666666Y-60152380D02*
X111285714Y-60152380D01*
X110952380Y-60533333D01*
X111095238Y-60533333D01*
X111190476Y-60580952D01*
X111238095Y-60628571D01*
X111285714Y-60723809D01*
X111285714Y-60961904D01*
X111238095Y-61057142D01*
X111190476Y-61104761D01*
X111095238Y-61152380D01*
X110809523Y-61152380D01*
X110714285Y-61104761D01*
X110666666Y-61057142D01*
X87657142Y-72957142D02*
X87609523Y-73004761D01*
X87466666Y-73052380D01*
X87371428Y-73052380D01*
X87228571Y-73004761D01*
X87133333Y-72909523D01*
X87085714Y-72814285D01*
X87038095Y-72623809D01*
X87038095Y-72480952D01*
X87085714Y-72290476D01*
X87133333Y-72195238D01*
X87228571Y-72100000D01*
X87371428Y-72052380D01*
X87466666Y-72052380D01*
X87609523Y-72100000D01*
X87657142Y-72147619D01*
X88514285Y-72385714D02*
X88514285Y-73052380D01*
X88276190Y-72004761D02*
X88038095Y-72719047D01*
X88657142Y-72719047D01*
X89561904Y-73052380D02*
X88990476Y-73052380D01*
X89276190Y-73052380D02*
X89276190Y-72052380D01*
X89180952Y-72195238D01*
X89085714Y-72290476D01*
X88990476Y-72338095D01*
X91019047Y-72571428D02*
X91780952Y-72571428D01*
X91400000Y-72952380D02*
X91400000Y-72190476D01*
M02*
