G04 #@! TF.GenerationSoftware,KiCad,Pcbnew,(5.1.5)-3*
G04 #@! TF.CreationDate,2020-11-29T18:58:37+00:00*
G04 #@! TF.ProjectId,Retrospector_Power_Test_LM2675,52657472-6f73-4706-9563-746f725f506f,rev?*
G04 #@! TF.SameCoordinates,Original*
G04 #@! TF.FileFunction,Copper,L1,Top*
G04 #@! TF.FilePolarity,Positive*
%FSLAX46Y46*%
G04 Gerber Fmt 4.6, Leading zero omitted, Abs format (unit mm)*
G04 Created by KiCad (PCBNEW (5.1.5)-3) date 2020-11-29 18:58:37*
%MOMM*%
%LPD*%
G04 APERTURE LIST*
%ADD10C,0.100000*%
%ADD11R,2.500000X1.000000*%
%ADD12R,1.550000X0.600000*%
%ADD13R,2.400000X1.500000*%
%ADD14C,1.700000*%
%ADD15R,1.700000X1.700000*%
%ADD16R,3.800000X2.000000*%
%ADD17R,1.500000X2.000000*%
%ADD18R,1.200000X0.900000*%
%ADD19R,0.900000X1.200000*%
%ADD20R,0.750000X1.200000*%
%ADD21C,2.000000*%
%ADD22R,1.300000X1.500000*%
%ADD23R,2.600000X1.600000*%
%ADD24C,1.000000*%
%ADD25C,0.600000*%
%ADD26C,0.500000*%
%ADD27C,0.254000*%
G04 APERTURE END LIST*
D10*
G36*
X91000000Y-59000000D02*
G01*
X92000000Y-59000000D01*
X92000000Y-62000000D01*
X90000000Y-62000000D01*
X90000000Y-63000000D01*
X85000000Y-63000000D01*
X85000000Y-55000000D01*
X91000000Y-55000000D01*
X91000000Y-59000000D01*
G37*
X91000000Y-59000000D02*
X92000000Y-59000000D01*
X92000000Y-62000000D01*
X90000000Y-62000000D01*
X90000000Y-63000000D01*
X85000000Y-63000000D01*
X85000000Y-55000000D01*
X91000000Y-55000000D01*
X91000000Y-59000000D01*
D11*
X99100000Y-69000000D03*
X99100000Y-72000000D03*
X110400000Y-68000000D03*
X110400000Y-65000000D03*
D12*
X102400000Y-64595000D03*
X102400000Y-65865000D03*
X102400000Y-67135000D03*
X102400000Y-68405000D03*
X107800000Y-68405000D03*
X107800000Y-67135000D03*
X107800000Y-65865000D03*
X107800000Y-64595000D03*
D13*
X96200000Y-61250000D03*
X96200000Y-66750000D03*
D14*
X103660000Y-53460000D03*
X103660000Y-56000000D03*
X101120000Y-53460000D03*
X101120000Y-56000000D03*
X98580000Y-53460000D03*
X98580000Y-56000000D03*
X96040000Y-53460000D03*
X96040000Y-56000000D03*
X93500000Y-53460000D03*
D15*
X93500000Y-56000000D03*
D16*
X89000000Y-60850000D03*
D17*
X89000000Y-67150000D03*
X91300000Y-67150000D03*
X86700000Y-67150000D03*
D18*
X106000000Y-70500000D03*
X108200000Y-70500000D03*
X102000000Y-70500000D03*
X104200000Y-70500000D03*
D19*
X108250000Y-62500000D03*
X104950000Y-62500000D03*
D20*
X100600000Y-62550000D03*
X100600000Y-64450000D03*
D21*
X110200000Y-51400000D03*
X95700000Y-72400000D03*
X110000000Y-72500000D03*
X87000000Y-51500000D03*
D22*
X93000000Y-72350000D03*
X93000000Y-69650000D03*
D18*
X110500000Y-59150000D03*
X110500000Y-55850000D03*
D23*
X90300000Y-71000000D03*
X86700000Y-71000000D03*
D24*
X102550000Y-59150000D03*
X105600000Y-67000000D03*
X110500000Y-69500000D03*
X86000000Y-72500000D03*
X86000000Y-69500000D03*
X103700000Y-62500000D03*
X105200000Y-61000000D03*
X101200000Y-72600000D03*
X107800000Y-72000000D03*
X86700000Y-65300000D03*
X89000000Y-65400000D03*
X97000000Y-69400000D03*
X91300000Y-68700000D03*
D25*
X110500000Y-59150000D02*
X110500000Y-65000000D01*
X102550000Y-59150000D02*
X110500000Y-59150000D01*
X109800000Y-65000000D02*
X109100000Y-65700000D01*
X110400000Y-65000000D02*
X109800000Y-65000000D01*
X108935000Y-65865000D02*
X109100000Y-65700000D01*
X107800000Y-65865000D02*
X108935000Y-65865000D01*
X103810000Y-55850000D02*
X103660000Y-56000000D01*
X110500000Y-55850000D02*
X103810000Y-55850000D01*
X95650000Y-72350000D02*
X95700000Y-72400000D01*
X93000000Y-72350000D02*
X95650000Y-72350000D01*
X89000000Y-69700000D02*
X89000000Y-67150000D01*
X90300000Y-71000000D02*
X89000000Y-69700000D01*
X89000000Y-67150000D02*
X89000000Y-65400000D01*
X89000000Y-65400000D02*
X89000000Y-60850000D01*
X91650000Y-69650000D02*
X90300000Y-71000000D01*
X93000000Y-69650000D02*
X91650000Y-69650000D01*
X96850000Y-66750000D02*
X99100000Y-69000000D01*
X96200000Y-66750000D02*
X96850000Y-66750000D01*
X100500000Y-69000000D02*
X102000000Y-70500000D01*
X99100000Y-69000000D02*
X100500000Y-69000000D01*
X99100000Y-69000000D02*
X97400000Y-69000000D01*
X97400000Y-69000000D02*
X97000000Y-69400000D01*
X97000000Y-69400000D02*
X97000000Y-69400000D01*
X91300000Y-68700000D02*
X91300000Y-67150000D01*
X99400000Y-61250000D02*
X100700000Y-62550000D01*
X96200000Y-61250000D02*
X99400000Y-61250000D01*
X106425000Y-64595000D02*
X107800000Y-64595000D01*
X102325001Y-62550000D02*
X104370001Y-64595000D01*
X104370001Y-64595000D02*
X106425000Y-64595000D01*
X100600000Y-62550000D02*
X102325001Y-62550000D01*
X108250000Y-64145000D02*
X107800000Y-64595000D01*
X108250000Y-62500000D02*
X108250000Y-64145000D01*
X100745000Y-64595000D02*
X100600000Y-64450000D01*
X102400000Y-64595000D02*
X100745000Y-64595000D01*
D26*
X104200000Y-70500000D02*
X104200000Y-70205000D01*
D25*
X104200000Y-70500000D02*
X106000000Y-70500000D01*
X102400000Y-68700000D02*
X104200000Y-70500000D01*
X102400000Y-68405000D02*
X102400000Y-68700000D01*
D27*
G36*
X111315001Y-50202762D02*
G01*
X111242252Y-50130013D01*
X110974463Y-49951082D01*
X110676912Y-49827832D01*
X110361033Y-49765000D01*
X110038967Y-49765000D01*
X109723088Y-49827832D01*
X109425537Y-49951082D01*
X109157748Y-50130013D01*
X108930013Y-50357748D01*
X108751082Y-50625537D01*
X108627832Y-50923088D01*
X108565000Y-51238967D01*
X108565000Y-51561033D01*
X108627832Y-51876912D01*
X108751082Y-52174463D01*
X108930013Y-52442252D01*
X109157748Y-52669987D01*
X109425537Y-52848918D01*
X109723088Y-52972168D01*
X110038967Y-53035000D01*
X110361033Y-53035000D01*
X110676912Y-52972168D01*
X110974463Y-52848918D01*
X111242252Y-52669987D01*
X111315001Y-52597238D01*
X111315001Y-54801647D01*
X111224482Y-54774188D01*
X111100000Y-54761928D01*
X109900000Y-54761928D01*
X109775518Y-54774188D01*
X109655820Y-54810498D01*
X109545506Y-54869463D01*
X109490019Y-54915000D01*
X104675107Y-54915000D01*
X104606632Y-54846525D01*
X104432240Y-54730000D01*
X104606632Y-54613475D01*
X104813475Y-54406632D01*
X104975990Y-54163411D01*
X105087932Y-53893158D01*
X105145000Y-53606260D01*
X105145000Y-53313740D01*
X105087932Y-53026842D01*
X104975990Y-52756589D01*
X104813475Y-52513368D01*
X104606632Y-52306525D01*
X104363411Y-52144010D01*
X104093158Y-52032068D01*
X103806260Y-51975000D01*
X103513740Y-51975000D01*
X103226842Y-52032068D01*
X102956589Y-52144010D01*
X102713368Y-52306525D01*
X102506525Y-52513368D01*
X102390689Y-52686729D01*
X102148397Y-52611208D01*
X101299605Y-53460000D01*
X102148397Y-54308792D01*
X102390689Y-54233271D01*
X102506525Y-54406632D01*
X102713368Y-54613475D01*
X102887760Y-54730000D01*
X102713368Y-54846525D01*
X102506525Y-55053368D01*
X102390689Y-55226729D01*
X102148397Y-55151208D01*
X101299605Y-56000000D01*
X102148397Y-56848792D01*
X102390689Y-56773271D01*
X102506525Y-56946632D01*
X102713368Y-57153475D01*
X102956589Y-57315990D01*
X103226842Y-57427932D01*
X103513740Y-57485000D01*
X103806260Y-57485000D01*
X104093158Y-57427932D01*
X104363411Y-57315990D01*
X104606632Y-57153475D01*
X104813475Y-56946632D01*
X104921474Y-56785000D01*
X109490019Y-56785000D01*
X109545506Y-56830537D01*
X109655820Y-56889502D01*
X109775518Y-56925812D01*
X109900000Y-56938072D01*
X111100000Y-56938072D01*
X111224482Y-56925812D01*
X111315001Y-56898353D01*
X111315001Y-58101647D01*
X111224482Y-58074188D01*
X111100000Y-58061928D01*
X109900000Y-58061928D01*
X109775518Y-58074188D01*
X109655820Y-58110498D01*
X109545506Y-58169463D01*
X109490019Y-58215000D01*
X103193619Y-58215000D01*
X103087624Y-58144176D01*
X102881067Y-58058617D01*
X102661788Y-58015000D01*
X102438212Y-58015000D01*
X102218933Y-58058617D01*
X102012376Y-58144176D01*
X101826480Y-58268388D01*
X101668388Y-58426480D01*
X101544176Y-58612376D01*
X101458617Y-58818933D01*
X101415000Y-59038212D01*
X101415000Y-59261788D01*
X101458617Y-59481067D01*
X101544176Y-59687624D01*
X101668388Y-59873520D01*
X101826480Y-60031612D01*
X102012376Y-60155824D01*
X102218933Y-60241383D01*
X102438212Y-60285000D01*
X102661788Y-60285000D01*
X102881067Y-60241383D01*
X103087624Y-60155824D01*
X103193619Y-60085000D01*
X109490019Y-60085000D01*
X109545506Y-60130537D01*
X109565000Y-60140957D01*
X109565001Y-63861928D01*
X109185000Y-63861928D01*
X109185000Y-63509981D01*
X109230537Y-63454494D01*
X109289502Y-63344180D01*
X109325812Y-63224482D01*
X109338072Y-63100000D01*
X109338072Y-61900000D01*
X109325812Y-61775518D01*
X109289502Y-61655820D01*
X109230537Y-61545506D01*
X109151185Y-61448815D01*
X109054494Y-61369463D01*
X108944180Y-61310498D01*
X108824482Y-61274188D01*
X108700000Y-61261928D01*
X107800000Y-61261928D01*
X107675518Y-61274188D01*
X107555820Y-61310498D01*
X107445506Y-61369463D01*
X107348815Y-61448815D01*
X107269463Y-61545506D01*
X107210498Y-61655820D01*
X107174188Y-61775518D01*
X107161928Y-61900000D01*
X107161928Y-63100000D01*
X107174188Y-63224482D01*
X107210498Y-63344180D01*
X107269463Y-63454494D01*
X107315001Y-63509982D01*
X107315001Y-63656928D01*
X107025000Y-63656928D01*
X106993808Y-63660000D01*
X105699373Y-63660000D01*
X105754494Y-63630537D01*
X105851185Y-63551185D01*
X105930537Y-63454494D01*
X105989502Y-63344180D01*
X106025812Y-63224482D01*
X106038072Y-63100000D01*
X106035000Y-62785750D01*
X105876250Y-62627000D01*
X105077000Y-62627000D01*
X105077000Y-62647000D01*
X104823000Y-62647000D01*
X104823000Y-62627000D01*
X104023750Y-62627000D01*
X103874020Y-62776730D01*
X103018631Y-61921341D01*
X103001117Y-61900000D01*
X103861928Y-61900000D01*
X103865000Y-62214250D01*
X104023750Y-62373000D01*
X104823000Y-62373000D01*
X104823000Y-61423750D01*
X105077000Y-61423750D01*
X105077000Y-62373000D01*
X105876250Y-62373000D01*
X106035000Y-62214250D01*
X106038072Y-61900000D01*
X106025812Y-61775518D01*
X105989502Y-61655820D01*
X105930537Y-61545506D01*
X105851185Y-61448815D01*
X105754494Y-61369463D01*
X105644180Y-61310498D01*
X105524482Y-61274188D01*
X105400000Y-61261928D01*
X105235750Y-61265000D01*
X105077000Y-61423750D01*
X104823000Y-61423750D01*
X104664250Y-61265000D01*
X104500000Y-61261928D01*
X104375518Y-61274188D01*
X104255820Y-61310498D01*
X104145506Y-61369463D01*
X104048815Y-61448815D01*
X103969463Y-61545506D01*
X103910498Y-61655820D01*
X103874188Y-61775518D01*
X103861928Y-61900000D01*
X103001117Y-61900000D01*
X102989345Y-61885656D01*
X102846973Y-61768814D01*
X102684541Y-61681993D01*
X102508293Y-61628529D01*
X102370933Y-61615000D01*
X102325001Y-61610476D01*
X102279069Y-61615000D01*
X101515957Y-61615000D01*
X101505537Y-61595506D01*
X101426185Y-61498815D01*
X101329494Y-61419463D01*
X101219180Y-61360498D01*
X101099482Y-61324188D01*
X100975000Y-61311928D01*
X100784217Y-61311928D01*
X100093630Y-60621341D01*
X100064344Y-60585656D01*
X99921972Y-60468814D01*
X99759540Y-60381993D01*
X99583292Y-60328529D01*
X99445932Y-60315000D01*
X99400000Y-60310476D01*
X99354068Y-60315000D01*
X98007454Y-60315000D01*
X97989502Y-60255820D01*
X97930537Y-60145506D01*
X97851185Y-60048815D01*
X97754494Y-59969463D01*
X97644180Y-59910498D01*
X97524482Y-59874188D01*
X97400000Y-59861928D01*
X95000000Y-59861928D01*
X94875518Y-59874188D01*
X94755820Y-59910498D01*
X94645506Y-59969463D01*
X94548815Y-60048815D01*
X94469463Y-60145506D01*
X94410498Y-60255820D01*
X94374188Y-60375518D01*
X94361928Y-60500000D01*
X94361928Y-62000000D01*
X94374188Y-62124482D01*
X94410498Y-62244180D01*
X94469463Y-62354494D01*
X94548815Y-62451185D01*
X94645506Y-62530537D01*
X94755820Y-62589502D01*
X94875518Y-62625812D01*
X95000000Y-62638072D01*
X97400000Y-62638072D01*
X97524482Y-62625812D01*
X97644180Y-62589502D01*
X97754494Y-62530537D01*
X97851185Y-62451185D01*
X97930537Y-62354494D01*
X97989502Y-62244180D01*
X98007454Y-62185000D01*
X99012711Y-62185000D01*
X99586928Y-62759217D01*
X99586928Y-63150000D01*
X99599188Y-63274482D01*
X99635498Y-63394180D01*
X99692061Y-63500000D01*
X99635498Y-63605820D01*
X99599188Y-63725518D01*
X99586928Y-63850000D01*
X99586928Y-65050000D01*
X99599188Y-65174482D01*
X99635498Y-65294180D01*
X99694463Y-65404494D01*
X99773815Y-65501185D01*
X99870506Y-65580537D01*
X99980820Y-65639502D01*
X100100518Y-65675812D01*
X100225000Y-65688072D01*
X100975000Y-65688072D01*
X100986928Y-65686897D01*
X100986928Y-66165000D01*
X100999188Y-66289482D01*
X101035498Y-66409180D01*
X101084043Y-66500000D01*
X101035498Y-66590820D01*
X100999188Y-66710518D01*
X100986928Y-66835000D01*
X100986928Y-67435000D01*
X100999188Y-67559482D01*
X101035498Y-67679180D01*
X101084043Y-67770000D01*
X101035498Y-67860820D01*
X100999188Y-67980518D01*
X100986928Y-68105000D01*
X100986928Y-68200083D01*
X100877189Y-68141427D01*
X100801185Y-68048815D01*
X100704494Y-67969463D01*
X100594180Y-67910498D01*
X100474482Y-67874188D01*
X100350000Y-67861928D01*
X99284218Y-67861928D01*
X98038072Y-66615783D01*
X98038072Y-66000000D01*
X98025812Y-65875518D01*
X97989502Y-65755820D01*
X97930537Y-65645506D01*
X97851185Y-65548815D01*
X97754494Y-65469463D01*
X97644180Y-65410498D01*
X97524482Y-65374188D01*
X97400000Y-65361928D01*
X95000000Y-65361928D01*
X94875518Y-65374188D01*
X94755820Y-65410498D01*
X94645506Y-65469463D01*
X94548815Y-65548815D01*
X94469463Y-65645506D01*
X94410498Y-65755820D01*
X94374188Y-65875518D01*
X94361928Y-66000000D01*
X94361928Y-67500000D01*
X94374188Y-67624482D01*
X94410498Y-67744180D01*
X94469463Y-67854494D01*
X94548815Y-67951185D01*
X94645506Y-68030537D01*
X94755820Y-68089502D01*
X94875518Y-68125812D01*
X95000000Y-68138072D01*
X96915783Y-68138072D01*
X96955249Y-68177539D01*
X96878028Y-68218814D01*
X96800489Y-68282449D01*
X96668933Y-68308617D01*
X96462376Y-68394176D01*
X96276480Y-68518388D01*
X96118388Y-68676480D01*
X95994176Y-68862376D01*
X95908617Y-69068933D01*
X95865000Y-69288212D01*
X95865000Y-69511788D01*
X95908617Y-69731067D01*
X95994176Y-69937624D01*
X96118388Y-70123520D01*
X96276480Y-70281612D01*
X96462376Y-70405824D01*
X96668933Y-70491383D01*
X96888212Y-70535000D01*
X97111788Y-70535000D01*
X97331067Y-70491383D01*
X97537624Y-70405824D01*
X97723520Y-70281612D01*
X97867060Y-70138072D01*
X100315783Y-70138072D01*
X100761928Y-70584218D01*
X100761928Y-70950000D01*
X100769064Y-71022454D01*
X100704494Y-70969463D01*
X100594180Y-70910498D01*
X100474482Y-70874188D01*
X100350000Y-70861928D01*
X99385750Y-70865000D01*
X99227000Y-71023750D01*
X99227000Y-71873000D01*
X100826250Y-71873000D01*
X100985000Y-71714250D01*
X100988072Y-71500000D01*
X100980936Y-71427546D01*
X101045506Y-71480537D01*
X101155820Y-71539502D01*
X101275518Y-71575812D01*
X101400000Y-71588072D01*
X102600000Y-71588072D01*
X102724482Y-71575812D01*
X102844180Y-71539502D01*
X102954494Y-71480537D01*
X103051185Y-71401185D01*
X103100000Y-71341704D01*
X103148815Y-71401185D01*
X103245506Y-71480537D01*
X103355820Y-71539502D01*
X103475518Y-71575812D01*
X103600000Y-71588072D01*
X104800000Y-71588072D01*
X104924482Y-71575812D01*
X105044180Y-71539502D01*
X105100000Y-71509665D01*
X105155820Y-71539502D01*
X105275518Y-71575812D01*
X105400000Y-71588072D01*
X106600000Y-71588072D01*
X106724482Y-71575812D01*
X106844180Y-71539502D01*
X106954494Y-71480537D01*
X107051185Y-71401185D01*
X107100000Y-71341704D01*
X107148815Y-71401185D01*
X107245506Y-71480537D01*
X107355820Y-71539502D01*
X107475518Y-71575812D01*
X107600000Y-71588072D01*
X107914250Y-71585000D01*
X108073000Y-71426250D01*
X108073000Y-70627000D01*
X108053000Y-70627000D01*
X108053000Y-70373000D01*
X108073000Y-70373000D01*
X108073000Y-69573750D01*
X108327000Y-69573750D01*
X108327000Y-70373000D01*
X109276250Y-70373000D01*
X109435000Y-70214250D01*
X109438072Y-70050000D01*
X109425812Y-69925518D01*
X109389502Y-69805820D01*
X109330537Y-69695506D01*
X109251185Y-69598815D01*
X109154494Y-69519463D01*
X109044180Y-69460498D01*
X108924482Y-69424188D01*
X108800000Y-69411928D01*
X108485750Y-69415000D01*
X108327000Y-69573750D01*
X108073000Y-69573750D01*
X107914250Y-69415000D01*
X107600000Y-69411928D01*
X107475518Y-69424188D01*
X107355820Y-69460498D01*
X107245506Y-69519463D01*
X107148815Y-69598815D01*
X107100000Y-69658296D01*
X107051185Y-69598815D01*
X106954494Y-69519463D01*
X106844180Y-69460498D01*
X106724482Y-69424188D01*
X106600000Y-69411928D01*
X105400000Y-69411928D01*
X105275518Y-69424188D01*
X105155820Y-69460498D01*
X105100000Y-69490335D01*
X105044180Y-69460498D01*
X104924482Y-69424188D01*
X104800000Y-69411928D01*
X104593665Y-69411928D01*
X104540313Y-69383411D01*
X104373490Y-69332805D01*
X104353085Y-69330795D01*
X103805381Y-68783091D01*
X103813072Y-68705000D01*
X103813072Y-68105000D01*
X103800812Y-67980518D01*
X103764502Y-67860820D01*
X103715957Y-67770000D01*
X103764502Y-67679180D01*
X103800812Y-67559482D01*
X103813072Y-67435000D01*
X103813072Y-66835000D01*
X103800812Y-66710518D01*
X103764502Y-66590820D01*
X103715957Y-66500000D01*
X103764502Y-66409180D01*
X103800812Y-66289482D01*
X103813072Y-66165000D01*
X103813072Y-65565000D01*
X103800812Y-65440518D01*
X103764502Y-65320820D01*
X103751949Y-65297335D01*
X103848029Y-65376186D01*
X104010461Y-65463007D01*
X104081321Y-65484502D01*
X104186709Y-65516472D01*
X104370001Y-65534524D01*
X104415936Y-65530000D01*
X106390375Y-65530000D01*
X106386928Y-65565000D01*
X106386928Y-66165000D01*
X106399188Y-66289482D01*
X106435498Y-66409180D01*
X106484043Y-66500000D01*
X106435498Y-66590820D01*
X106399188Y-66710518D01*
X106386928Y-66835000D01*
X106390000Y-66849250D01*
X106548750Y-67008000D01*
X107673000Y-67008000D01*
X107673000Y-66988000D01*
X107927000Y-66988000D01*
X107927000Y-67008000D01*
X107947000Y-67008000D01*
X107947000Y-67262000D01*
X107927000Y-67262000D01*
X107927000Y-67282000D01*
X107673000Y-67282000D01*
X107673000Y-67262000D01*
X106548750Y-67262000D01*
X106390000Y-67420750D01*
X106386928Y-67435000D01*
X106399188Y-67559482D01*
X106435498Y-67679180D01*
X106484043Y-67770000D01*
X106435498Y-67860820D01*
X106399188Y-67980518D01*
X106386928Y-68105000D01*
X106386928Y-68705000D01*
X106399188Y-68829482D01*
X106435498Y-68949180D01*
X106494463Y-69059494D01*
X106573815Y-69156185D01*
X106670506Y-69235537D01*
X106780820Y-69294502D01*
X106900518Y-69330812D01*
X107025000Y-69343072D01*
X108575000Y-69343072D01*
X108699482Y-69330812D01*
X108819180Y-69294502D01*
X108929494Y-69235537D01*
X109026185Y-69156185D01*
X109049197Y-69128144D01*
X109150000Y-69138072D01*
X110114250Y-69135000D01*
X110273000Y-68976250D01*
X110273000Y-68127000D01*
X110253000Y-68127000D01*
X110253000Y-67873000D01*
X110273000Y-67873000D01*
X110273000Y-67023750D01*
X110114250Y-66865000D01*
X109197172Y-66862078D01*
X109210000Y-66849250D01*
X109213072Y-66835000D01*
X109205682Y-66759962D01*
X109294540Y-66733007D01*
X109456972Y-66646186D01*
X109599344Y-66529344D01*
X109628630Y-66493659D01*
X109984217Y-66138072D01*
X111315000Y-66138072D01*
X111315000Y-66862995D01*
X110685750Y-66865000D01*
X110527000Y-67023750D01*
X110527000Y-67873000D01*
X110547000Y-67873000D01*
X110547000Y-68127000D01*
X110527000Y-68127000D01*
X110527000Y-68976250D01*
X110685750Y-69135000D01*
X111315000Y-69137005D01*
X111315000Y-71525115D01*
X111269987Y-71457748D01*
X111042252Y-71230013D01*
X110774463Y-71051082D01*
X110476912Y-70927832D01*
X110161033Y-70865000D01*
X109838967Y-70865000D01*
X109523088Y-70927832D01*
X109436732Y-70963602D01*
X109438072Y-70950000D01*
X109435000Y-70785750D01*
X109276250Y-70627000D01*
X108327000Y-70627000D01*
X108327000Y-71426250D01*
X108485750Y-71585000D01*
X108643953Y-71586547D01*
X108551082Y-71725537D01*
X108427832Y-72023088D01*
X108365000Y-72338967D01*
X108365000Y-72661033D01*
X108427832Y-72976912D01*
X108551082Y-73274463D01*
X108578168Y-73315000D01*
X97055014Y-73315000D01*
X97148918Y-73174463D01*
X97272168Y-72876912D01*
X97288245Y-72796089D01*
X97319463Y-72854494D01*
X97398815Y-72951185D01*
X97495506Y-73030537D01*
X97605820Y-73089502D01*
X97725518Y-73125812D01*
X97850000Y-73138072D01*
X98814250Y-73135000D01*
X98973000Y-72976250D01*
X98973000Y-72127000D01*
X99227000Y-72127000D01*
X99227000Y-72976250D01*
X99385750Y-73135000D01*
X100350000Y-73138072D01*
X100474482Y-73125812D01*
X100594180Y-73089502D01*
X100704494Y-73030537D01*
X100801185Y-72951185D01*
X100880537Y-72854494D01*
X100939502Y-72744180D01*
X100975812Y-72624482D01*
X100988072Y-72500000D01*
X100985000Y-72285750D01*
X100826250Y-72127000D01*
X99227000Y-72127000D01*
X98973000Y-72127000D01*
X98953000Y-72127000D01*
X98953000Y-71873000D01*
X98973000Y-71873000D01*
X98973000Y-71023750D01*
X98814250Y-70865000D01*
X97850000Y-70861928D01*
X97725518Y-70874188D01*
X97605820Y-70910498D01*
X97495506Y-70969463D01*
X97398815Y-71048815D01*
X97319463Y-71145506D01*
X97260498Y-71255820D01*
X97224188Y-71375518D01*
X97211928Y-71500000D01*
X97215000Y-71714250D01*
X97373748Y-71872998D01*
X97251420Y-71872998D01*
X97148918Y-71625537D01*
X96969987Y-71357748D01*
X96742252Y-71130013D01*
X96474463Y-70951082D01*
X96176912Y-70827832D01*
X95861033Y-70765000D01*
X95538967Y-70765000D01*
X95223088Y-70827832D01*
X94925537Y-70951082D01*
X94657748Y-71130013D01*
X94430013Y-71357748D01*
X94391758Y-71415000D01*
X94257454Y-71415000D01*
X94239502Y-71355820D01*
X94180537Y-71245506D01*
X94101185Y-71148815D01*
X94004494Y-71069463D01*
X93894180Y-71010498D01*
X93859573Y-71000000D01*
X93894180Y-70989502D01*
X94004494Y-70930537D01*
X94101185Y-70851185D01*
X94180537Y-70754494D01*
X94239502Y-70644180D01*
X94275812Y-70524482D01*
X94288072Y-70400000D01*
X94288072Y-68900000D01*
X94275812Y-68775518D01*
X94239502Y-68655820D01*
X94180537Y-68545506D01*
X94101185Y-68448815D01*
X94004494Y-68369463D01*
X93894180Y-68310498D01*
X93774482Y-68274188D01*
X93650000Y-68261928D01*
X92677048Y-68261928D01*
X92688072Y-68150000D01*
X92688072Y-66150000D01*
X92675812Y-66025518D01*
X92639502Y-65905820D01*
X92580537Y-65795506D01*
X92501185Y-65698815D01*
X92404494Y-65619463D01*
X92294180Y-65560498D01*
X92174482Y-65524188D01*
X92050000Y-65511928D01*
X90550000Y-65511928D01*
X90425518Y-65524188D01*
X90305820Y-65560498D01*
X90195506Y-65619463D01*
X90150000Y-65656809D01*
X90112307Y-65625875D01*
X90135000Y-65511788D01*
X90135000Y-65288212D01*
X90091383Y-65068933D01*
X90005824Y-64862376D01*
X89935000Y-64756381D01*
X89935000Y-63685000D01*
X90000000Y-63685000D01*
X90064145Y-63678710D01*
X90128356Y-63672867D01*
X90130662Y-63672188D01*
X90133051Y-63671954D01*
X90194723Y-63653334D01*
X90256606Y-63635121D01*
X90258736Y-63634008D01*
X90261033Y-63633314D01*
X90317886Y-63603084D01*
X90375081Y-63573184D01*
X90376955Y-63571677D01*
X90379073Y-63570551D01*
X90428986Y-63529843D01*
X90479269Y-63489414D01*
X90480813Y-63487573D01*
X90482674Y-63486056D01*
X90523766Y-63436384D01*
X90565203Y-63387002D01*
X90566360Y-63384898D01*
X90567891Y-63383047D01*
X90598541Y-63326361D01*
X90629608Y-63269850D01*
X90630335Y-63267558D01*
X90631476Y-63265448D01*
X90650524Y-63203916D01*
X90670031Y-63142420D01*
X90670299Y-63140032D01*
X90671009Y-63137738D01*
X90677746Y-63073634D01*
X90684933Y-63009564D01*
X90684965Y-63004950D01*
X90684983Y-63004782D01*
X90684968Y-63004614D01*
X90685000Y-63000000D01*
X90685000Y-62685000D01*
X92000000Y-62685000D01*
X92064145Y-62678710D01*
X92128356Y-62672867D01*
X92130662Y-62672188D01*
X92133051Y-62671954D01*
X92194723Y-62653334D01*
X92256606Y-62635121D01*
X92258736Y-62634008D01*
X92261033Y-62633314D01*
X92317886Y-62603084D01*
X92375081Y-62573184D01*
X92376955Y-62571677D01*
X92379073Y-62570551D01*
X92428986Y-62529843D01*
X92479269Y-62489414D01*
X92480813Y-62487573D01*
X92482674Y-62486056D01*
X92523766Y-62436384D01*
X92565203Y-62387002D01*
X92566360Y-62384898D01*
X92567891Y-62383047D01*
X92598541Y-62326361D01*
X92629608Y-62269850D01*
X92630335Y-62267558D01*
X92631476Y-62265448D01*
X92650524Y-62203916D01*
X92670031Y-62142420D01*
X92670299Y-62140032D01*
X92671009Y-62137738D01*
X92677746Y-62073634D01*
X92684933Y-62009564D01*
X92684965Y-62004950D01*
X92684983Y-62004782D01*
X92684968Y-62004614D01*
X92685000Y-62000000D01*
X92685000Y-59000000D01*
X92678710Y-58935855D01*
X92672867Y-58871644D01*
X92672188Y-58869338D01*
X92671954Y-58866949D01*
X92653334Y-58805277D01*
X92635121Y-58743394D01*
X92634008Y-58741264D01*
X92633314Y-58738967D01*
X92603084Y-58682114D01*
X92573184Y-58624919D01*
X92571677Y-58623045D01*
X92570551Y-58620927D01*
X92529843Y-58571014D01*
X92489414Y-58520731D01*
X92487573Y-58519187D01*
X92486056Y-58517326D01*
X92436384Y-58476234D01*
X92387002Y-58434797D01*
X92384898Y-58433640D01*
X92383047Y-58432109D01*
X92326361Y-58401459D01*
X92269850Y-58370392D01*
X92267558Y-58369665D01*
X92265448Y-58368524D01*
X92203916Y-58349476D01*
X92142420Y-58329969D01*
X92140032Y-58329701D01*
X92137738Y-58328991D01*
X92073634Y-58322254D01*
X92009564Y-58315067D01*
X92004950Y-58315035D01*
X92004782Y-58315017D01*
X92004614Y-58315032D01*
X92000000Y-58315000D01*
X91685000Y-58315000D01*
X91685000Y-55150000D01*
X92011928Y-55150000D01*
X92011928Y-56850000D01*
X92024188Y-56974482D01*
X92060498Y-57094180D01*
X92119463Y-57204494D01*
X92198815Y-57301185D01*
X92295506Y-57380537D01*
X92405820Y-57439502D01*
X92525518Y-57475812D01*
X92650000Y-57488072D01*
X94350000Y-57488072D01*
X94474482Y-57475812D01*
X94594180Y-57439502D01*
X94704494Y-57380537D01*
X94801185Y-57301185D01*
X94880537Y-57204494D01*
X94939502Y-57094180D01*
X94959457Y-57028397D01*
X95191208Y-57028397D01*
X95268843Y-57277472D01*
X95532883Y-57403371D01*
X95816411Y-57475339D01*
X96108531Y-57490611D01*
X96398019Y-57448599D01*
X96673747Y-57350919D01*
X96811157Y-57277472D01*
X96888792Y-57028397D01*
X97731208Y-57028397D01*
X97808843Y-57277472D01*
X98072883Y-57403371D01*
X98356411Y-57475339D01*
X98648531Y-57490611D01*
X98938019Y-57448599D01*
X99213747Y-57350919D01*
X99351157Y-57277472D01*
X99428792Y-57028397D01*
X100271208Y-57028397D01*
X100348843Y-57277472D01*
X100612883Y-57403371D01*
X100896411Y-57475339D01*
X101188531Y-57490611D01*
X101478019Y-57448599D01*
X101753747Y-57350919D01*
X101891157Y-57277472D01*
X101968792Y-57028397D01*
X101120000Y-56179605D01*
X100271208Y-57028397D01*
X99428792Y-57028397D01*
X98580000Y-56179605D01*
X97731208Y-57028397D01*
X96888792Y-57028397D01*
X96040000Y-56179605D01*
X95191208Y-57028397D01*
X94959457Y-57028397D01*
X94975812Y-56974482D01*
X94988072Y-56850000D01*
X94988072Y-56841458D01*
X95011603Y-56848792D01*
X95860395Y-56000000D01*
X96219605Y-56000000D01*
X97068397Y-56848792D01*
X97310000Y-56773486D01*
X97551603Y-56848792D01*
X98400395Y-56000000D01*
X98759605Y-56000000D01*
X99608397Y-56848792D01*
X99850000Y-56773486D01*
X100091603Y-56848792D01*
X100940395Y-56000000D01*
X100091603Y-55151208D01*
X99850000Y-55226514D01*
X99608397Y-55151208D01*
X98759605Y-56000000D01*
X98400395Y-56000000D01*
X97551603Y-55151208D01*
X97310000Y-55226514D01*
X97068397Y-55151208D01*
X96219605Y-56000000D01*
X95860395Y-56000000D01*
X95011603Y-55151208D01*
X94988072Y-55158542D01*
X94988072Y-55150000D01*
X94975812Y-55025518D01*
X94939502Y-54905820D01*
X94880537Y-54795506D01*
X94801185Y-54698815D01*
X94704494Y-54619463D01*
X94594180Y-54560498D01*
X94521620Y-54538487D01*
X94571710Y-54488397D01*
X95191208Y-54488397D01*
X95266514Y-54730000D01*
X95191208Y-54971603D01*
X96040000Y-55820395D01*
X96888792Y-54971603D01*
X96813486Y-54730000D01*
X96888792Y-54488397D01*
X97731208Y-54488397D01*
X97806514Y-54730000D01*
X97731208Y-54971603D01*
X98580000Y-55820395D01*
X99428792Y-54971603D01*
X99353486Y-54730000D01*
X99428792Y-54488397D01*
X100271208Y-54488397D01*
X100346514Y-54730000D01*
X100271208Y-54971603D01*
X101120000Y-55820395D01*
X101968792Y-54971603D01*
X101893486Y-54730000D01*
X101968792Y-54488397D01*
X101120000Y-53639605D01*
X100271208Y-54488397D01*
X99428792Y-54488397D01*
X98580000Y-53639605D01*
X97731208Y-54488397D01*
X96888792Y-54488397D01*
X96040000Y-53639605D01*
X95191208Y-54488397D01*
X94571710Y-54488397D01*
X94653475Y-54406632D01*
X94769311Y-54233271D01*
X95011603Y-54308792D01*
X95860395Y-53460000D01*
X96219605Y-53460000D01*
X97068397Y-54308792D01*
X97310000Y-54233486D01*
X97551603Y-54308792D01*
X98400395Y-53460000D01*
X98759605Y-53460000D01*
X99608397Y-54308792D01*
X99850000Y-54233486D01*
X100091603Y-54308792D01*
X100940395Y-53460000D01*
X100091603Y-52611208D01*
X99850000Y-52686514D01*
X99608397Y-52611208D01*
X98759605Y-53460000D01*
X98400395Y-53460000D01*
X97551603Y-52611208D01*
X97310000Y-52686514D01*
X97068397Y-52611208D01*
X96219605Y-53460000D01*
X95860395Y-53460000D01*
X95011603Y-52611208D01*
X94769311Y-52686729D01*
X94653475Y-52513368D01*
X94571710Y-52431603D01*
X95191208Y-52431603D01*
X96040000Y-53280395D01*
X96888792Y-52431603D01*
X97731208Y-52431603D01*
X98580000Y-53280395D01*
X99428792Y-52431603D01*
X100271208Y-52431603D01*
X101120000Y-53280395D01*
X101968792Y-52431603D01*
X101891157Y-52182528D01*
X101627117Y-52056629D01*
X101343589Y-51984661D01*
X101051469Y-51969389D01*
X100761981Y-52011401D01*
X100486253Y-52109081D01*
X100348843Y-52182528D01*
X100271208Y-52431603D01*
X99428792Y-52431603D01*
X99351157Y-52182528D01*
X99087117Y-52056629D01*
X98803589Y-51984661D01*
X98511469Y-51969389D01*
X98221981Y-52011401D01*
X97946253Y-52109081D01*
X97808843Y-52182528D01*
X97731208Y-52431603D01*
X96888792Y-52431603D01*
X96811157Y-52182528D01*
X96547117Y-52056629D01*
X96263589Y-51984661D01*
X95971469Y-51969389D01*
X95681981Y-52011401D01*
X95406253Y-52109081D01*
X95268843Y-52182528D01*
X95191208Y-52431603D01*
X94571710Y-52431603D01*
X94446632Y-52306525D01*
X94203411Y-52144010D01*
X93933158Y-52032068D01*
X93646260Y-51975000D01*
X93353740Y-51975000D01*
X93066842Y-52032068D01*
X92796589Y-52144010D01*
X92553368Y-52306525D01*
X92346525Y-52513368D01*
X92184010Y-52756589D01*
X92072068Y-53026842D01*
X92015000Y-53313740D01*
X92015000Y-53606260D01*
X92072068Y-53893158D01*
X92184010Y-54163411D01*
X92346525Y-54406632D01*
X92478380Y-54538487D01*
X92405820Y-54560498D01*
X92295506Y-54619463D01*
X92198815Y-54698815D01*
X92119463Y-54795506D01*
X92060498Y-54905820D01*
X92024188Y-55025518D01*
X92011928Y-55150000D01*
X91685000Y-55150000D01*
X91685000Y-55000000D01*
X91678710Y-54935855D01*
X91672867Y-54871644D01*
X91672188Y-54869338D01*
X91671954Y-54866949D01*
X91653334Y-54805277D01*
X91635121Y-54743394D01*
X91634008Y-54741264D01*
X91633314Y-54738967D01*
X91603084Y-54682114D01*
X91573184Y-54624919D01*
X91571677Y-54623045D01*
X91570551Y-54620927D01*
X91529843Y-54571014D01*
X91489414Y-54520731D01*
X91487573Y-54519187D01*
X91486056Y-54517326D01*
X91436384Y-54476234D01*
X91387002Y-54434797D01*
X91384898Y-54433640D01*
X91383047Y-54432109D01*
X91326361Y-54401459D01*
X91269850Y-54370392D01*
X91267558Y-54369665D01*
X91265448Y-54368524D01*
X91203916Y-54349476D01*
X91142420Y-54329969D01*
X91140032Y-54329701D01*
X91137738Y-54328991D01*
X91073634Y-54322254D01*
X91009564Y-54315067D01*
X91004950Y-54315035D01*
X91004782Y-54315017D01*
X91004614Y-54315032D01*
X91000000Y-54315000D01*
X85685000Y-54315000D01*
X85685000Y-52635413D01*
X86044192Y-52635413D01*
X86139956Y-52899814D01*
X86429571Y-53040704D01*
X86741108Y-53122384D01*
X87062595Y-53141718D01*
X87381675Y-53097961D01*
X87686088Y-52992795D01*
X87860044Y-52899814D01*
X87955808Y-52635413D01*
X87000000Y-51679605D01*
X86044192Y-52635413D01*
X85685000Y-52635413D01*
X85685000Y-52390763D01*
X85864587Y-52455808D01*
X86820395Y-51500000D01*
X87179605Y-51500000D01*
X88135413Y-52455808D01*
X88399814Y-52360044D01*
X88540704Y-52070429D01*
X88622384Y-51758892D01*
X88641718Y-51437405D01*
X88597961Y-51118325D01*
X88492795Y-50813912D01*
X88399814Y-50639956D01*
X88135413Y-50544192D01*
X87179605Y-51500000D01*
X86820395Y-51500000D01*
X85864587Y-50544192D01*
X85685000Y-50609237D01*
X85685000Y-50364587D01*
X86044192Y-50364587D01*
X87000000Y-51320395D01*
X87955808Y-50364587D01*
X87860044Y-50100186D01*
X87570429Y-49959296D01*
X87258892Y-49877616D01*
X86937405Y-49858282D01*
X86618325Y-49902039D01*
X86313912Y-50007205D01*
X86139956Y-50100186D01*
X86044192Y-50364587D01*
X85685000Y-50364587D01*
X85685000Y-49685000D01*
X111315001Y-49685000D01*
X111315001Y-50202762D01*
G37*
X111315001Y-50202762D02*
X111242252Y-50130013D01*
X110974463Y-49951082D01*
X110676912Y-49827832D01*
X110361033Y-49765000D01*
X110038967Y-49765000D01*
X109723088Y-49827832D01*
X109425537Y-49951082D01*
X109157748Y-50130013D01*
X108930013Y-50357748D01*
X108751082Y-50625537D01*
X108627832Y-50923088D01*
X108565000Y-51238967D01*
X108565000Y-51561033D01*
X108627832Y-51876912D01*
X108751082Y-52174463D01*
X108930013Y-52442252D01*
X109157748Y-52669987D01*
X109425537Y-52848918D01*
X109723088Y-52972168D01*
X110038967Y-53035000D01*
X110361033Y-53035000D01*
X110676912Y-52972168D01*
X110974463Y-52848918D01*
X111242252Y-52669987D01*
X111315001Y-52597238D01*
X111315001Y-54801647D01*
X111224482Y-54774188D01*
X111100000Y-54761928D01*
X109900000Y-54761928D01*
X109775518Y-54774188D01*
X109655820Y-54810498D01*
X109545506Y-54869463D01*
X109490019Y-54915000D01*
X104675107Y-54915000D01*
X104606632Y-54846525D01*
X104432240Y-54730000D01*
X104606632Y-54613475D01*
X104813475Y-54406632D01*
X104975990Y-54163411D01*
X105087932Y-53893158D01*
X105145000Y-53606260D01*
X105145000Y-53313740D01*
X105087932Y-53026842D01*
X104975990Y-52756589D01*
X104813475Y-52513368D01*
X104606632Y-52306525D01*
X104363411Y-52144010D01*
X104093158Y-52032068D01*
X103806260Y-51975000D01*
X103513740Y-51975000D01*
X103226842Y-52032068D01*
X102956589Y-52144010D01*
X102713368Y-52306525D01*
X102506525Y-52513368D01*
X102390689Y-52686729D01*
X102148397Y-52611208D01*
X101299605Y-53460000D01*
X102148397Y-54308792D01*
X102390689Y-54233271D01*
X102506525Y-54406632D01*
X102713368Y-54613475D01*
X102887760Y-54730000D01*
X102713368Y-54846525D01*
X102506525Y-55053368D01*
X102390689Y-55226729D01*
X102148397Y-55151208D01*
X101299605Y-56000000D01*
X102148397Y-56848792D01*
X102390689Y-56773271D01*
X102506525Y-56946632D01*
X102713368Y-57153475D01*
X102956589Y-57315990D01*
X103226842Y-57427932D01*
X103513740Y-57485000D01*
X103806260Y-57485000D01*
X104093158Y-57427932D01*
X104363411Y-57315990D01*
X104606632Y-57153475D01*
X104813475Y-56946632D01*
X104921474Y-56785000D01*
X109490019Y-56785000D01*
X109545506Y-56830537D01*
X109655820Y-56889502D01*
X109775518Y-56925812D01*
X109900000Y-56938072D01*
X111100000Y-56938072D01*
X111224482Y-56925812D01*
X111315001Y-56898353D01*
X111315001Y-58101647D01*
X111224482Y-58074188D01*
X111100000Y-58061928D01*
X109900000Y-58061928D01*
X109775518Y-58074188D01*
X109655820Y-58110498D01*
X109545506Y-58169463D01*
X109490019Y-58215000D01*
X103193619Y-58215000D01*
X103087624Y-58144176D01*
X102881067Y-58058617D01*
X102661788Y-58015000D01*
X102438212Y-58015000D01*
X102218933Y-58058617D01*
X102012376Y-58144176D01*
X101826480Y-58268388D01*
X101668388Y-58426480D01*
X101544176Y-58612376D01*
X101458617Y-58818933D01*
X101415000Y-59038212D01*
X101415000Y-59261788D01*
X101458617Y-59481067D01*
X101544176Y-59687624D01*
X101668388Y-59873520D01*
X101826480Y-60031612D01*
X102012376Y-60155824D01*
X102218933Y-60241383D01*
X102438212Y-60285000D01*
X102661788Y-60285000D01*
X102881067Y-60241383D01*
X103087624Y-60155824D01*
X103193619Y-60085000D01*
X109490019Y-60085000D01*
X109545506Y-60130537D01*
X109565000Y-60140957D01*
X109565001Y-63861928D01*
X109185000Y-63861928D01*
X109185000Y-63509981D01*
X109230537Y-63454494D01*
X109289502Y-63344180D01*
X109325812Y-63224482D01*
X109338072Y-63100000D01*
X109338072Y-61900000D01*
X109325812Y-61775518D01*
X109289502Y-61655820D01*
X109230537Y-61545506D01*
X109151185Y-61448815D01*
X109054494Y-61369463D01*
X108944180Y-61310498D01*
X108824482Y-61274188D01*
X108700000Y-61261928D01*
X107800000Y-61261928D01*
X107675518Y-61274188D01*
X107555820Y-61310498D01*
X107445506Y-61369463D01*
X107348815Y-61448815D01*
X107269463Y-61545506D01*
X107210498Y-61655820D01*
X107174188Y-61775518D01*
X107161928Y-61900000D01*
X107161928Y-63100000D01*
X107174188Y-63224482D01*
X107210498Y-63344180D01*
X107269463Y-63454494D01*
X107315001Y-63509982D01*
X107315001Y-63656928D01*
X107025000Y-63656928D01*
X106993808Y-63660000D01*
X105699373Y-63660000D01*
X105754494Y-63630537D01*
X105851185Y-63551185D01*
X105930537Y-63454494D01*
X105989502Y-63344180D01*
X106025812Y-63224482D01*
X106038072Y-63100000D01*
X106035000Y-62785750D01*
X105876250Y-62627000D01*
X105077000Y-62627000D01*
X105077000Y-62647000D01*
X104823000Y-62647000D01*
X104823000Y-62627000D01*
X104023750Y-62627000D01*
X103874020Y-62776730D01*
X103018631Y-61921341D01*
X103001117Y-61900000D01*
X103861928Y-61900000D01*
X103865000Y-62214250D01*
X104023750Y-62373000D01*
X104823000Y-62373000D01*
X104823000Y-61423750D01*
X105077000Y-61423750D01*
X105077000Y-62373000D01*
X105876250Y-62373000D01*
X106035000Y-62214250D01*
X106038072Y-61900000D01*
X106025812Y-61775518D01*
X105989502Y-61655820D01*
X105930537Y-61545506D01*
X105851185Y-61448815D01*
X105754494Y-61369463D01*
X105644180Y-61310498D01*
X105524482Y-61274188D01*
X105400000Y-61261928D01*
X105235750Y-61265000D01*
X105077000Y-61423750D01*
X104823000Y-61423750D01*
X104664250Y-61265000D01*
X104500000Y-61261928D01*
X104375518Y-61274188D01*
X104255820Y-61310498D01*
X104145506Y-61369463D01*
X104048815Y-61448815D01*
X103969463Y-61545506D01*
X103910498Y-61655820D01*
X103874188Y-61775518D01*
X103861928Y-61900000D01*
X103001117Y-61900000D01*
X102989345Y-61885656D01*
X102846973Y-61768814D01*
X102684541Y-61681993D01*
X102508293Y-61628529D01*
X102370933Y-61615000D01*
X102325001Y-61610476D01*
X102279069Y-61615000D01*
X101515957Y-61615000D01*
X101505537Y-61595506D01*
X101426185Y-61498815D01*
X101329494Y-61419463D01*
X101219180Y-61360498D01*
X101099482Y-61324188D01*
X100975000Y-61311928D01*
X100784217Y-61311928D01*
X100093630Y-60621341D01*
X100064344Y-60585656D01*
X99921972Y-60468814D01*
X99759540Y-60381993D01*
X99583292Y-60328529D01*
X99445932Y-60315000D01*
X99400000Y-60310476D01*
X99354068Y-60315000D01*
X98007454Y-60315000D01*
X97989502Y-60255820D01*
X97930537Y-60145506D01*
X97851185Y-60048815D01*
X97754494Y-59969463D01*
X97644180Y-59910498D01*
X97524482Y-59874188D01*
X97400000Y-59861928D01*
X95000000Y-59861928D01*
X94875518Y-59874188D01*
X94755820Y-59910498D01*
X94645506Y-59969463D01*
X94548815Y-60048815D01*
X94469463Y-60145506D01*
X94410498Y-60255820D01*
X94374188Y-60375518D01*
X94361928Y-60500000D01*
X94361928Y-62000000D01*
X94374188Y-62124482D01*
X94410498Y-62244180D01*
X94469463Y-62354494D01*
X94548815Y-62451185D01*
X94645506Y-62530537D01*
X94755820Y-62589502D01*
X94875518Y-62625812D01*
X95000000Y-62638072D01*
X97400000Y-62638072D01*
X97524482Y-62625812D01*
X97644180Y-62589502D01*
X97754494Y-62530537D01*
X97851185Y-62451185D01*
X97930537Y-62354494D01*
X97989502Y-62244180D01*
X98007454Y-62185000D01*
X99012711Y-62185000D01*
X99586928Y-62759217D01*
X99586928Y-63150000D01*
X99599188Y-63274482D01*
X99635498Y-63394180D01*
X99692061Y-63500000D01*
X99635498Y-63605820D01*
X99599188Y-63725518D01*
X99586928Y-63850000D01*
X99586928Y-65050000D01*
X99599188Y-65174482D01*
X99635498Y-65294180D01*
X99694463Y-65404494D01*
X99773815Y-65501185D01*
X99870506Y-65580537D01*
X99980820Y-65639502D01*
X100100518Y-65675812D01*
X100225000Y-65688072D01*
X100975000Y-65688072D01*
X100986928Y-65686897D01*
X100986928Y-66165000D01*
X100999188Y-66289482D01*
X101035498Y-66409180D01*
X101084043Y-66500000D01*
X101035498Y-66590820D01*
X100999188Y-66710518D01*
X100986928Y-66835000D01*
X100986928Y-67435000D01*
X100999188Y-67559482D01*
X101035498Y-67679180D01*
X101084043Y-67770000D01*
X101035498Y-67860820D01*
X100999188Y-67980518D01*
X100986928Y-68105000D01*
X100986928Y-68200083D01*
X100877189Y-68141427D01*
X100801185Y-68048815D01*
X100704494Y-67969463D01*
X100594180Y-67910498D01*
X100474482Y-67874188D01*
X100350000Y-67861928D01*
X99284218Y-67861928D01*
X98038072Y-66615783D01*
X98038072Y-66000000D01*
X98025812Y-65875518D01*
X97989502Y-65755820D01*
X97930537Y-65645506D01*
X97851185Y-65548815D01*
X97754494Y-65469463D01*
X97644180Y-65410498D01*
X97524482Y-65374188D01*
X97400000Y-65361928D01*
X95000000Y-65361928D01*
X94875518Y-65374188D01*
X94755820Y-65410498D01*
X94645506Y-65469463D01*
X94548815Y-65548815D01*
X94469463Y-65645506D01*
X94410498Y-65755820D01*
X94374188Y-65875518D01*
X94361928Y-66000000D01*
X94361928Y-67500000D01*
X94374188Y-67624482D01*
X94410498Y-67744180D01*
X94469463Y-67854494D01*
X94548815Y-67951185D01*
X94645506Y-68030537D01*
X94755820Y-68089502D01*
X94875518Y-68125812D01*
X95000000Y-68138072D01*
X96915783Y-68138072D01*
X96955249Y-68177539D01*
X96878028Y-68218814D01*
X96800489Y-68282449D01*
X96668933Y-68308617D01*
X96462376Y-68394176D01*
X96276480Y-68518388D01*
X96118388Y-68676480D01*
X95994176Y-68862376D01*
X95908617Y-69068933D01*
X95865000Y-69288212D01*
X95865000Y-69511788D01*
X95908617Y-69731067D01*
X95994176Y-69937624D01*
X96118388Y-70123520D01*
X96276480Y-70281612D01*
X96462376Y-70405824D01*
X96668933Y-70491383D01*
X96888212Y-70535000D01*
X97111788Y-70535000D01*
X97331067Y-70491383D01*
X97537624Y-70405824D01*
X97723520Y-70281612D01*
X97867060Y-70138072D01*
X100315783Y-70138072D01*
X100761928Y-70584218D01*
X100761928Y-70950000D01*
X100769064Y-71022454D01*
X100704494Y-70969463D01*
X100594180Y-70910498D01*
X100474482Y-70874188D01*
X100350000Y-70861928D01*
X99385750Y-70865000D01*
X99227000Y-71023750D01*
X99227000Y-71873000D01*
X100826250Y-71873000D01*
X100985000Y-71714250D01*
X100988072Y-71500000D01*
X100980936Y-71427546D01*
X101045506Y-71480537D01*
X101155820Y-71539502D01*
X101275518Y-71575812D01*
X101400000Y-71588072D01*
X102600000Y-71588072D01*
X102724482Y-71575812D01*
X102844180Y-71539502D01*
X102954494Y-71480537D01*
X103051185Y-71401185D01*
X103100000Y-71341704D01*
X103148815Y-71401185D01*
X103245506Y-71480537D01*
X103355820Y-71539502D01*
X103475518Y-71575812D01*
X103600000Y-71588072D01*
X104800000Y-71588072D01*
X104924482Y-71575812D01*
X105044180Y-71539502D01*
X105100000Y-71509665D01*
X105155820Y-71539502D01*
X105275518Y-71575812D01*
X105400000Y-71588072D01*
X106600000Y-71588072D01*
X106724482Y-71575812D01*
X106844180Y-71539502D01*
X106954494Y-71480537D01*
X107051185Y-71401185D01*
X107100000Y-71341704D01*
X107148815Y-71401185D01*
X107245506Y-71480537D01*
X107355820Y-71539502D01*
X107475518Y-71575812D01*
X107600000Y-71588072D01*
X107914250Y-71585000D01*
X108073000Y-71426250D01*
X108073000Y-70627000D01*
X108053000Y-70627000D01*
X108053000Y-70373000D01*
X108073000Y-70373000D01*
X108073000Y-69573750D01*
X108327000Y-69573750D01*
X108327000Y-70373000D01*
X109276250Y-70373000D01*
X109435000Y-70214250D01*
X109438072Y-70050000D01*
X109425812Y-69925518D01*
X109389502Y-69805820D01*
X109330537Y-69695506D01*
X109251185Y-69598815D01*
X109154494Y-69519463D01*
X109044180Y-69460498D01*
X108924482Y-69424188D01*
X108800000Y-69411928D01*
X108485750Y-69415000D01*
X108327000Y-69573750D01*
X108073000Y-69573750D01*
X107914250Y-69415000D01*
X107600000Y-69411928D01*
X107475518Y-69424188D01*
X107355820Y-69460498D01*
X107245506Y-69519463D01*
X107148815Y-69598815D01*
X107100000Y-69658296D01*
X107051185Y-69598815D01*
X106954494Y-69519463D01*
X106844180Y-69460498D01*
X106724482Y-69424188D01*
X106600000Y-69411928D01*
X105400000Y-69411928D01*
X105275518Y-69424188D01*
X105155820Y-69460498D01*
X105100000Y-69490335D01*
X105044180Y-69460498D01*
X104924482Y-69424188D01*
X104800000Y-69411928D01*
X104593665Y-69411928D01*
X104540313Y-69383411D01*
X104373490Y-69332805D01*
X104353085Y-69330795D01*
X103805381Y-68783091D01*
X103813072Y-68705000D01*
X103813072Y-68105000D01*
X103800812Y-67980518D01*
X103764502Y-67860820D01*
X103715957Y-67770000D01*
X103764502Y-67679180D01*
X103800812Y-67559482D01*
X103813072Y-67435000D01*
X103813072Y-66835000D01*
X103800812Y-66710518D01*
X103764502Y-66590820D01*
X103715957Y-66500000D01*
X103764502Y-66409180D01*
X103800812Y-66289482D01*
X103813072Y-66165000D01*
X103813072Y-65565000D01*
X103800812Y-65440518D01*
X103764502Y-65320820D01*
X103751949Y-65297335D01*
X103848029Y-65376186D01*
X104010461Y-65463007D01*
X104081321Y-65484502D01*
X104186709Y-65516472D01*
X104370001Y-65534524D01*
X104415936Y-65530000D01*
X106390375Y-65530000D01*
X106386928Y-65565000D01*
X106386928Y-66165000D01*
X106399188Y-66289482D01*
X106435498Y-66409180D01*
X106484043Y-66500000D01*
X106435498Y-66590820D01*
X106399188Y-66710518D01*
X106386928Y-66835000D01*
X106390000Y-66849250D01*
X106548750Y-67008000D01*
X107673000Y-67008000D01*
X107673000Y-66988000D01*
X107927000Y-66988000D01*
X107927000Y-67008000D01*
X107947000Y-67008000D01*
X107947000Y-67262000D01*
X107927000Y-67262000D01*
X107927000Y-67282000D01*
X107673000Y-67282000D01*
X107673000Y-67262000D01*
X106548750Y-67262000D01*
X106390000Y-67420750D01*
X106386928Y-67435000D01*
X106399188Y-67559482D01*
X106435498Y-67679180D01*
X106484043Y-67770000D01*
X106435498Y-67860820D01*
X106399188Y-67980518D01*
X106386928Y-68105000D01*
X106386928Y-68705000D01*
X106399188Y-68829482D01*
X106435498Y-68949180D01*
X106494463Y-69059494D01*
X106573815Y-69156185D01*
X106670506Y-69235537D01*
X106780820Y-69294502D01*
X106900518Y-69330812D01*
X107025000Y-69343072D01*
X108575000Y-69343072D01*
X108699482Y-69330812D01*
X108819180Y-69294502D01*
X108929494Y-69235537D01*
X109026185Y-69156185D01*
X109049197Y-69128144D01*
X109150000Y-69138072D01*
X110114250Y-69135000D01*
X110273000Y-68976250D01*
X110273000Y-68127000D01*
X110253000Y-68127000D01*
X110253000Y-67873000D01*
X110273000Y-67873000D01*
X110273000Y-67023750D01*
X110114250Y-66865000D01*
X109197172Y-66862078D01*
X109210000Y-66849250D01*
X109213072Y-66835000D01*
X109205682Y-66759962D01*
X109294540Y-66733007D01*
X109456972Y-66646186D01*
X109599344Y-66529344D01*
X109628630Y-66493659D01*
X109984217Y-66138072D01*
X111315000Y-66138072D01*
X111315000Y-66862995D01*
X110685750Y-66865000D01*
X110527000Y-67023750D01*
X110527000Y-67873000D01*
X110547000Y-67873000D01*
X110547000Y-68127000D01*
X110527000Y-68127000D01*
X110527000Y-68976250D01*
X110685750Y-69135000D01*
X111315000Y-69137005D01*
X111315000Y-71525115D01*
X111269987Y-71457748D01*
X111042252Y-71230013D01*
X110774463Y-71051082D01*
X110476912Y-70927832D01*
X110161033Y-70865000D01*
X109838967Y-70865000D01*
X109523088Y-70927832D01*
X109436732Y-70963602D01*
X109438072Y-70950000D01*
X109435000Y-70785750D01*
X109276250Y-70627000D01*
X108327000Y-70627000D01*
X108327000Y-71426250D01*
X108485750Y-71585000D01*
X108643953Y-71586547D01*
X108551082Y-71725537D01*
X108427832Y-72023088D01*
X108365000Y-72338967D01*
X108365000Y-72661033D01*
X108427832Y-72976912D01*
X108551082Y-73274463D01*
X108578168Y-73315000D01*
X97055014Y-73315000D01*
X97148918Y-73174463D01*
X97272168Y-72876912D01*
X97288245Y-72796089D01*
X97319463Y-72854494D01*
X97398815Y-72951185D01*
X97495506Y-73030537D01*
X97605820Y-73089502D01*
X97725518Y-73125812D01*
X97850000Y-73138072D01*
X98814250Y-73135000D01*
X98973000Y-72976250D01*
X98973000Y-72127000D01*
X99227000Y-72127000D01*
X99227000Y-72976250D01*
X99385750Y-73135000D01*
X100350000Y-73138072D01*
X100474482Y-73125812D01*
X100594180Y-73089502D01*
X100704494Y-73030537D01*
X100801185Y-72951185D01*
X100880537Y-72854494D01*
X100939502Y-72744180D01*
X100975812Y-72624482D01*
X100988072Y-72500000D01*
X100985000Y-72285750D01*
X100826250Y-72127000D01*
X99227000Y-72127000D01*
X98973000Y-72127000D01*
X98953000Y-72127000D01*
X98953000Y-71873000D01*
X98973000Y-71873000D01*
X98973000Y-71023750D01*
X98814250Y-70865000D01*
X97850000Y-70861928D01*
X97725518Y-70874188D01*
X97605820Y-70910498D01*
X97495506Y-70969463D01*
X97398815Y-71048815D01*
X97319463Y-71145506D01*
X97260498Y-71255820D01*
X97224188Y-71375518D01*
X97211928Y-71500000D01*
X97215000Y-71714250D01*
X97373748Y-71872998D01*
X97251420Y-71872998D01*
X97148918Y-71625537D01*
X96969987Y-71357748D01*
X96742252Y-71130013D01*
X96474463Y-70951082D01*
X96176912Y-70827832D01*
X95861033Y-70765000D01*
X95538967Y-70765000D01*
X95223088Y-70827832D01*
X94925537Y-70951082D01*
X94657748Y-71130013D01*
X94430013Y-71357748D01*
X94391758Y-71415000D01*
X94257454Y-71415000D01*
X94239502Y-71355820D01*
X94180537Y-71245506D01*
X94101185Y-71148815D01*
X94004494Y-71069463D01*
X93894180Y-71010498D01*
X93859573Y-71000000D01*
X93894180Y-70989502D01*
X94004494Y-70930537D01*
X94101185Y-70851185D01*
X94180537Y-70754494D01*
X94239502Y-70644180D01*
X94275812Y-70524482D01*
X94288072Y-70400000D01*
X94288072Y-68900000D01*
X94275812Y-68775518D01*
X94239502Y-68655820D01*
X94180537Y-68545506D01*
X94101185Y-68448815D01*
X94004494Y-68369463D01*
X93894180Y-68310498D01*
X93774482Y-68274188D01*
X93650000Y-68261928D01*
X92677048Y-68261928D01*
X92688072Y-68150000D01*
X92688072Y-66150000D01*
X92675812Y-66025518D01*
X92639502Y-65905820D01*
X92580537Y-65795506D01*
X92501185Y-65698815D01*
X92404494Y-65619463D01*
X92294180Y-65560498D01*
X92174482Y-65524188D01*
X92050000Y-65511928D01*
X90550000Y-65511928D01*
X90425518Y-65524188D01*
X90305820Y-65560498D01*
X90195506Y-65619463D01*
X90150000Y-65656809D01*
X90112307Y-65625875D01*
X90135000Y-65511788D01*
X90135000Y-65288212D01*
X90091383Y-65068933D01*
X90005824Y-64862376D01*
X89935000Y-64756381D01*
X89935000Y-63685000D01*
X90000000Y-63685000D01*
X90064145Y-63678710D01*
X90128356Y-63672867D01*
X90130662Y-63672188D01*
X90133051Y-63671954D01*
X90194723Y-63653334D01*
X90256606Y-63635121D01*
X90258736Y-63634008D01*
X90261033Y-63633314D01*
X90317886Y-63603084D01*
X90375081Y-63573184D01*
X90376955Y-63571677D01*
X90379073Y-63570551D01*
X90428986Y-63529843D01*
X90479269Y-63489414D01*
X90480813Y-63487573D01*
X90482674Y-63486056D01*
X90523766Y-63436384D01*
X90565203Y-63387002D01*
X90566360Y-63384898D01*
X90567891Y-63383047D01*
X90598541Y-63326361D01*
X90629608Y-63269850D01*
X90630335Y-63267558D01*
X90631476Y-63265448D01*
X90650524Y-63203916D01*
X90670031Y-63142420D01*
X90670299Y-63140032D01*
X90671009Y-63137738D01*
X90677746Y-63073634D01*
X90684933Y-63009564D01*
X90684965Y-63004950D01*
X90684983Y-63004782D01*
X90684968Y-63004614D01*
X90685000Y-63000000D01*
X90685000Y-62685000D01*
X92000000Y-62685000D01*
X92064145Y-62678710D01*
X92128356Y-62672867D01*
X92130662Y-62672188D01*
X92133051Y-62671954D01*
X92194723Y-62653334D01*
X92256606Y-62635121D01*
X92258736Y-62634008D01*
X92261033Y-62633314D01*
X92317886Y-62603084D01*
X92375081Y-62573184D01*
X92376955Y-62571677D01*
X92379073Y-62570551D01*
X92428986Y-62529843D01*
X92479269Y-62489414D01*
X92480813Y-62487573D01*
X92482674Y-62486056D01*
X92523766Y-62436384D01*
X92565203Y-62387002D01*
X92566360Y-62384898D01*
X92567891Y-62383047D01*
X92598541Y-62326361D01*
X92629608Y-62269850D01*
X92630335Y-62267558D01*
X92631476Y-62265448D01*
X92650524Y-62203916D01*
X92670031Y-62142420D01*
X92670299Y-62140032D01*
X92671009Y-62137738D01*
X92677746Y-62073634D01*
X92684933Y-62009564D01*
X92684965Y-62004950D01*
X92684983Y-62004782D01*
X92684968Y-62004614D01*
X92685000Y-62000000D01*
X92685000Y-59000000D01*
X92678710Y-58935855D01*
X92672867Y-58871644D01*
X92672188Y-58869338D01*
X92671954Y-58866949D01*
X92653334Y-58805277D01*
X92635121Y-58743394D01*
X92634008Y-58741264D01*
X92633314Y-58738967D01*
X92603084Y-58682114D01*
X92573184Y-58624919D01*
X92571677Y-58623045D01*
X92570551Y-58620927D01*
X92529843Y-58571014D01*
X92489414Y-58520731D01*
X92487573Y-58519187D01*
X92486056Y-58517326D01*
X92436384Y-58476234D01*
X92387002Y-58434797D01*
X92384898Y-58433640D01*
X92383047Y-58432109D01*
X92326361Y-58401459D01*
X92269850Y-58370392D01*
X92267558Y-58369665D01*
X92265448Y-58368524D01*
X92203916Y-58349476D01*
X92142420Y-58329969D01*
X92140032Y-58329701D01*
X92137738Y-58328991D01*
X92073634Y-58322254D01*
X92009564Y-58315067D01*
X92004950Y-58315035D01*
X92004782Y-58315017D01*
X92004614Y-58315032D01*
X92000000Y-58315000D01*
X91685000Y-58315000D01*
X91685000Y-55150000D01*
X92011928Y-55150000D01*
X92011928Y-56850000D01*
X92024188Y-56974482D01*
X92060498Y-57094180D01*
X92119463Y-57204494D01*
X92198815Y-57301185D01*
X92295506Y-57380537D01*
X92405820Y-57439502D01*
X92525518Y-57475812D01*
X92650000Y-57488072D01*
X94350000Y-57488072D01*
X94474482Y-57475812D01*
X94594180Y-57439502D01*
X94704494Y-57380537D01*
X94801185Y-57301185D01*
X94880537Y-57204494D01*
X94939502Y-57094180D01*
X94959457Y-57028397D01*
X95191208Y-57028397D01*
X95268843Y-57277472D01*
X95532883Y-57403371D01*
X95816411Y-57475339D01*
X96108531Y-57490611D01*
X96398019Y-57448599D01*
X96673747Y-57350919D01*
X96811157Y-57277472D01*
X96888792Y-57028397D01*
X97731208Y-57028397D01*
X97808843Y-57277472D01*
X98072883Y-57403371D01*
X98356411Y-57475339D01*
X98648531Y-57490611D01*
X98938019Y-57448599D01*
X99213747Y-57350919D01*
X99351157Y-57277472D01*
X99428792Y-57028397D01*
X100271208Y-57028397D01*
X100348843Y-57277472D01*
X100612883Y-57403371D01*
X100896411Y-57475339D01*
X101188531Y-57490611D01*
X101478019Y-57448599D01*
X101753747Y-57350919D01*
X101891157Y-57277472D01*
X101968792Y-57028397D01*
X101120000Y-56179605D01*
X100271208Y-57028397D01*
X99428792Y-57028397D01*
X98580000Y-56179605D01*
X97731208Y-57028397D01*
X96888792Y-57028397D01*
X96040000Y-56179605D01*
X95191208Y-57028397D01*
X94959457Y-57028397D01*
X94975812Y-56974482D01*
X94988072Y-56850000D01*
X94988072Y-56841458D01*
X95011603Y-56848792D01*
X95860395Y-56000000D01*
X96219605Y-56000000D01*
X97068397Y-56848792D01*
X97310000Y-56773486D01*
X97551603Y-56848792D01*
X98400395Y-56000000D01*
X98759605Y-56000000D01*
X99608397Y-56848792D01*
X99850000Y-56773486D01*
X100091603Y-56848792D01*
X100940395Y-56000000D01*
X100091603Y-55151208D01*
X99850000Y-55226514D01*
X99608397Y-55151208D01*
X98759605Y-56000000D01*
X98400395Y-56000000D01*
X97551603Y-55151208D01*
X97310000Y-55226514D01*
X97068397Y-55151208D01*
X96219605Y-56000000D01*
X95860395Y-56000000D01*
X95011603Y-55151208D01*
X94988072Y-55158542D01*
X94988072Y-55150000D01*
X94975812Y-55025518D01*
X94939502Y-54905820D01*
X94880537Y-54795506D01*
X94801185Y-54698815D01*
X94704494Y-54619463D01*
X94594180Y-54560498D01*
X94521620Y-54538487D01*
X94571710Y-54488397D01*
X95191208Y-54488397D01*
X95266514Y-54730000D01*
X95191208Y-54971603D01*
X96040000Y-55820395D01*
X96888792Y-54971603D01*
X96813486Y-54730000D01*
X96888792Y-54488397D01*
X97731208Y-54488397D01*
X97806514Y-54730000D01*
X97731208Y-54971603D01*
X98580000Y-55820395D01*
X99428792Y-54971603D01*
X99353486Y-54730000D01*
X99428792Y-54488397D01*
X100271208Y-54488397D01*
X100346514Y-54730000D01*
X100271208Y-54971603D01*
X101120000Y-55820395D01*
X101968792Y-54971603D01*
X101893486Y-54730000D01*
X101968792Y-54488397D01*
X101120000Y-53639605D01*
X100271208Y-54488397D01*
X99428792Y-54488397D01*
X98580000Y-53639605D01*
X97731208Y-54488397D01*
X96888792Y-54488397D01*
X96040000Y-53639605D01*
X95191208Y-54488397D01*
X94571710Y-54488397D01*
X94653475Y-54406632D01*
X94769311Y-54233271D01*
X95011603Y-54308792D01*
X95860395Y-53460000D01*
X96219605Y-53460000D01*
X97068397Y-54308792D01*
X97310000Y-54233486D01*
X97551603Y-54308792D01*
X98400395Y-53460000D01*
X98759605Y-53460000D01*
X99608397Y-54308792D01*
X99850000Y-54233486D01*
X100091603Y-54308792D01*
X100940395Y-53460000D01*
X100091603Y-52611208D01*
X99850000Y-52686514D01*
X99608397Y-52611208D01*
X98759605Y-53460000D01*
X98400395Y-53460000D01*
X97551603Y-52611208D01*
X97310000Y-52686514D01*
X97068397Y-52611208D01*
X96219605Y-53460000D01*
X95860395Y-53460000D01*
X95011603Y-52611208D01*
X94769311Y-52686729D01*
X94653475Y-52513368D01*
X94571710Y-52431603D01*
X95191208Y-52431603D01*
X96040000Y-53280395D01*
X96888792Y-52431603D01*
X97731208Y-52431603D01*
X98580000Y-53280395D01*
X99428792Y-52431603D01*
X100271208Y-52431603D01*
X101120000Y-53280395D01*
X101968792Y-52431603D01*
X101891157Y-52182528D01*
X101627117Y-52056629D01*
X101343589Y-51984661D01*
X101051469Y-51969389D01*
X100761981Y-52011401D01*
X100486253Y-52109081D01*
X100348843Y-52182528D01*
X100271208Y-52431603D01*
X99428792Y-52431603D01*
X99351157Y-52182528D01*
X99087117Y-52056629D01*
X98803589Y-51984661D01*
X98511469Y-51969389D01*
X98221981Y-52011401D01*
X97946253Y-52109081D01*
X97808843Y-52182528D01*
X97731208Y-52431603D01*
X96888792Y-52431603D01*
X96811157Y-52182528D01*
X96547117Y-52056629D01*
X96263589Y-51984661D01*
X95971469Y-51969389D01*
X95681981Y-52011401D01*
X95406253Y-52109081D01*
X95268843Y-52182528D01*
X95191208Y-52431603D01*
X94571710Y-52431603D01*
X94446632Y-52306525D01*
X94203411Y-52144010D01*
X93933158Y-52032068D01*
X93646260Y-51975000D01*
X93353740Y-51975000D01*
X93066842Y-52032068D01*
X92796589Y-52144010D01*
X92553368Y-52306525D01*
X92346525Y-52513368D01*
X92184010Y-52756589D01*
X92072068Y-53026842D01*
X92015000Y-53313740D01*
X92015000Y-53606260D01*
X92072068Y-53893158D01*
X92184010Y-54163411D01*
X92346525Y-54406632D01*
X92478380Y-54538487D01*
X92405820Y-54560498D01*
X92295506Y-54619463D01*
X92198815Y-54698815D01*
X92119463Y-54795506D01*
X92060498Y-54905820D01*
X92024188Y-55025518D01*
X92011928Y-55150000D01*
X91685000Y-55150000D01*
X91685000Y-55000000D01*
X91678710Y-54935855D01*
X91672867Y-54871644D01*
X91672188Y-54869338D01*
X91671954Y-54866949D01*
X91653334Y-54805277D01*
X91635121Y-54743394D01*
X91634008Y-54741264D01*
X91633314Y-54738967D01*
X91603084Y-54682114D01*
X91573184Y-54624919D01*
X91571677Y-54623045D01*
X91570551Y-54620927D01*
X91529843Y-54571014D01*
X91489414Y-54520731D01*
X91487573Y-54519187D01*
X91486056Y-54517326D01*
X91436384Y-54476234D01*
X91387002Y-54434797D01*
X91384898Y-54433640D01*
X91383047Y-54432109D01*
X91326361Y-54401459D01*
X91269850Y-54370392D01*
X91267558Y-54369665D01*
X91265448Y-54368524D01*
X91203916Y-54349476D01*
X91142420Y-54329969D01*
X91140032Y-54329701D01*
X91137738Y-54328991D01*
X91073634Y-54322254D01*
X91009564Y-54315067D01*
X91004950Y-54315035D01*
X91004782Y-54315017D01*
X91004614Y-54315032D01*
X91000000Y-54315000D01*
X85685000Y-54315000D01*
X85685000Y-52635413D01*
X86044192Y-52635413D01*
X86139956Y-52899814D01*
X86429571Y-53040704D01*
X86741108Y-53122384D01*
X87062595Y-53141718D01*
X87381675Y-53097961D01*
X87686088Y-52992795D01*
X87860044Y-52899814D01*
X87955808Y-52635413D01*
X87000000Y-51679605D01*
X86044192Y-52635413D01*
X85685000Y-52635413D01*
X85685000Y-52390763D01*
X85864587Y-52455808D01*
X86820395Y-51500000D01*
X87179605Y-51500000D01*
X88135413Y-52455808D01*
X88399814Y-52360044D01*
X88540704Y-52070429D01*
X88622384Y-51758892D01*
X88641718Y-51437405D01*
X88597961Y-51118325D01*
X88492795Y-50813912D01*
X88399814Y-50639956D01*
X88135413Y-50544192D01*
X87179605Y-51500000D01*
X86820395Y-51500000D01*
X85864587Y-50544192D01*
X85685000Y-50609237D01*
X85685000Y-50364587D01*
X86044192Y-50364587D01*
X87000000Y-51320395D01*
X87955808Y-50364587D01*
X87860044Y-50100186D01*
X87570429Y-49959296D01*
X87258892Y-49877616D01*
X86937405Y-49858282D01*
X86618325Y-49902039D01*
X86313912Y-50007205D01*
X86139956Y-50100186D01*
X86044192Y-50364587D01*
X85685000Y-50364587D01*
X85685000Y-49685000D01*
X111315001Y-49685000D01*
X111315001Y-50202762D01*
G36*
X88065000Y-64756380D02*
G01*
X87994176Y-64862376D01*
X87908617Y-65068933D01*
X87865000Y-65288212D01*
X87865000Y-65511788D01*
X87887693Y-65625875D01*
X87850000Y-65656809D01*
X87804494Y-65619463D01*
X87694180Y-65560498D01*
X87574482Y-65524188D01*
X87450000Y-65511928D01*
X86985750Y-65515000D01*
X86827000Y-65673750D01*
X86827000Y-67023000D01*
X86847000Y-67023000D01*
X86847000Y-67277000D01*
X86827000Y-67277000D01*
X86827000Y-68626250D01*
X86985750Y-68785000D01*
X87450000Y-68788072D01*
X87574482Y-68775812D01*
X87694180Y-68739502D01*
X87804494Y-68680537D01*
X87850000Y-68643191D01*
X87895506Y-68680537D01*
X88005820Y-68739502D01*
X88065000Y-68757454D01*
X88065000Y-69568330D01*
X88000000Y-69561928D01*
X86985750Y-69565000D01*
X86827000Y-69723750D01*
X86827000Y-70873000D01*
X86847000Y-70873000D01*
X86847000Y-71127000D01*
X86827000Y-71127000D01*
X86827000Y-72276250D01*
X86985750Y-72435000D01*
X88000000Y-72438072D01*
X88124482Y-72425812D01*
X88244180Y-72389502D01*
X88354494Y-72330537D01*
X88451185Y-72251185D01*
X88500000Y-72191704D01*
X88548815Y-72251185D01*
X88645506Y-72330537D01*
X88755820Y-72389502D01*
X88875518Y-72425812D01*
X89000000Y-72438072D01*
X91600000Y-72438072D01*
X91711928Y-72427048D01*
X91711928Y-73100000D01*
X91724188Y-73224482D01*
X91751646Y-73315000D01*
X85685000Y-73315000D01*
X85685000Y-72437209D01*
X86414250Y-72435000D01*
X86573000Y-72276250D01*
X86573000Y-71127000D01*
X86553000Y-71127000D01*
X86553000Y-70873000D01*
X86573000Y-70873000D01*
X86573000Y-69723750D01*
X86414250Y-69565000D01*
X85685000Y-69562791D01*
X85685000Y-68728373D01*
X85705820Y-68739502D01*
X85825518Y-68775812D01*
X85950000Y-68788072D01*
X86414250Y-68785000D01*
X86573000Y-68626250D01*
X86573000Y-67277000D01*
X86553000Y-67277000D01*
X86553000Y-67023000D01*
X86573000Y-67023000D01*
X86573000Y-65673750D01*
X86414250Y-65515000D01*
X85950000Y-65511928D01*
X85825518Y-65524188D01*
X85705820Y-65560498D01*
X85685000Y-65571627D01*
X85685000Y-63685000D01*
X88065000Y-63685000D01*
X88065000Y-64756380D01*
G37*
X88065000Y-64756380D02*
X87994176Y-64862376D01*
X87908617Y-65068933D01*
X87865000Y-65288212D01*
X87865000Y-65511788D01*
X87887693Y-65625875D01*
X87850000Y-65656809D01*
X87804494Y-65619463D01*
X87694180Y-65560498D01*
X87574482Y-65524188D01*
X87450000Y-65511928D01*
X86985750Y-65515000D01*
X86827000Y-65673750D01*
X86827000Y-67023000D01*
X86847000Y-67023000D01*
X86847000Y-67277000D01*
X86827000Y-67277000D01*
X86827000Y-68626250D01*
X86985750Y-68785000D01*
X87450000Y-68788072D01*
X87574482Y-68775812D01*
X87694180Y-68739502D01*
X87804494Y-68680537D01*
X87850000Y-68643191D01*
X87895506Y-68680537D01*
X88005820Y-68739502D01*
X88065000Y-68757454D01*
X88065000Y-69568330D01*
X88000000Y-69561928D01*
X86985750Y-69565000D01*
X86827000Y-69723750D01*
X86827000Y-70873000D01*
X86847000Y-70873000D01*
X86847000Y-71127000D01*
X86827000Y-71127000D01*
X86827000Y-72276250D01*
X86985750Y-72435000D01*
X88000000Y-72438072D01*
X88124482Y-72425812D01*
X88244180Y-72389502D01*
X88354494Y-72330537D01*
X88451185Y-72251185D01*
X88500000Y-72191704D01*
X88548815Y-72251185D01*
X88645506Y-72330537D01*
X88755820Y-72389502D01*
X88875518Y-72425812D01*
X89000000Y-72438072D01*
X91600000Y-72438072D01*
X91711928Y-72427048D01*
X91711928Y-73100000D01*
X91724188Y-73224482D01*
X91751646Y-73315000D01*
X85685000Y-73315000D01*
X85685000Y-72437209D01*
X86414250Y-72435000D01*
X86573000Y-72276250D01*
X86573000Y-71127000D01*
X86553000Y-71127000D01*
X86553000Y-70873000D01*
X86573000Y-70873000D01*
X86573000Y-69723750D01*
X86414250Y-69565000D01*
X85685000Y-69562791D01*
X85685000Y-68728373D01*
X85705820Y-68739502D01*
X85825518Y-68775812D01*
X85950000Y-68788072D01*
X86414250Y-68785000D01*
X86573000Y-68626250D01*
X86573000Y-67277000D01*
X86553000Y-67277000D01*
X86553000Y-67023000D01*
X86573000Y-67023000D01*
X86573000Y-65673750D01*
X86414250Y-65515000D01*
X85950000Y-65511928D01*
X85825518Y-65524188D01*
X85705820Y-65560498D01*
X85685000Y-65571627D01*
X85685000Y-63685000D01*
X88065000Y-63685000D01*
X88065000Y-64756380D01*
M02*
