M48
; DRILL file {KiCad (5.1.5)-3} date 12/10/2020 14:37:56
; FORMAT={-:-/ absolute / inch / decimal}
; #@! TF.CreationDate,2020-10-12T14:37:56+01:00
; #@! TF.GenerationSoftware,Kicad,Pcbnew,(5.1.5)-3
; #@! TF.FileFunction,NonPlated,1,2,NPTH
FMAT,2
INCH
T1C0.1181
T2C0.1260
T3C0.1378
T4C0.1969
T5C0.2362
T6C0.2756
%
G90
G05
T1
X4.1457Y-2.126
X6.0906Y-2.126
T3
X5.1181Y-4.2717
T4
X4.4488Y-3.4055
X5.7874Y-3.4055
T5
X5.1181Y-5.2756
X4.2913Y-5.2756
X5.5315Y-5.2756
X4.7047Y-5.2756
X5.9449Y-5.9449
X4.2913Y-5.9449
X5.5315Y-5.9449
X5.9449Y-5.2756
X4.7047Y-5.9449
T6
X4.5669Y-2.5394
X4.5079Y-4.2717
X5.6693Y-2.5394
X5.1181Y-3.4055
X5.7283Y-4.2717
T2
G00X5.9843Y-1.7244
M15
G01X6.0551Y-1.7244
M16
G05
G00X4.1811Y-6.5472
M15
G01X4.252Y-6.5472
M16
G05
G00X5.9843Y-6.5472
M15
G01X6.0551Y-6.5472
M16
G05
G00X4.1811Y-1.7244
M15
G01X4.252Y-1.7244
M16
G05
T0
M30
