G04 #@! TF.GenerationSoftware,KiCad,Pcbnew,(5.1.5)-3*
G04 #@! TF.CreationDate,2020-10-12T14:36:57+01:00*
G04 #@! TF.ProjectId,Retrospector_Controls,52657472-6f73-4706-9563-746f725f436f,rev?*
G04 #@! TF.SameCoordinates,Original*
G04 #@! TF.FileFunction,Legend,Bot*
G04 #@! TF.FilePolarity,Positive*
%FSLAX46Y46*%
G04 Gerber Fmt 4.6, Leading zero omitted, Abs format (unit mm)*
G04 Created by KiCad (PCBNEW (5.1.5)-3) date 2020-10-12 14:36:57*
%MOMM*%
%LPD*%
G04 APERTURE LIST*
%ADD10C,0.300000*%
%ADD11C,0.150000*%
%ADD12C,0.120000*%
G04 APERTURE END LIST*
D10*
X143900000Y-53003571D02*
X144400000Y-52289285D01*
X144757142Y-53003571D02*
X144757142Y-51503571D01*
X144185714Y-51503571D01*
X144042857Y-51575000D01*
X143971428Y-51646428D01*
X143900000Y-51789285D01*
X143900000Y-52003571D01*
X143971428Y-52146428D01*
X144042857Y-52217857D01*
X144185714Y-52289285D01*
X144757142Y-52289285D01*
X142685714Y-52932142D02*
X142828571Y-53003571D01*
X143114285Y-53003571D01*
X143257142Y-52932142D01*
X143328571Y-52789285D01*
X143328571Y-52217857D01*
X143257142Y-52075000D01*
X143114285Y-52003571D01*
X142828571Y-52003571D01*
X142685714Y-52075000D01*
X142614285Y-52217857D01*
X142614285Y-52360714D01*
X143328571Y-52503571D01*
X142185714Y-52003571D02*
X141614285Y-52003571D01*
X141971428Y-51503571D02*
X141971428Y-52789285D01*
X141900000Y-52932142D01*
X141757142Y-53003571D01*
X141614285Y-53003571D01*
X141114285Y-53003571D02*
X141114285Y-52003571D01*
X141114285Y-52289285D02*
X141042857Y-52146428D01*
X140971428Y-52075000D01*
X140828571Y-52003571D01*
X140685714Y-52003571D01*
X139971428Y-53003571D02*
X140114285Y-52932142D01*
X140185714Y-52860714D01*
X140257142Y-52717857D01*
X140257142Y-52289285D01*
X140185714Y-52146428D01*
X140114285Y-52075000D01*
X139971428Y-52003571D01*
X139757142Y-52003571D01*
X139614285Y-52075000D01*
X139542857Y-52146428D01*
X139471428Y-52289285D01*
X139471428Y-52717857D01*
X139542857Y-52860714D01*
X139614285Y-52932142D01*
X139757142Y-53003571D01*
X139971428Y-53003571D01*
X138900000Y-52932142D02*
X138757142Y-53003571D01*
X138471428Y-53003571D01*
X138328571Y-52932142D01*
X138257142Y-52789285D01*
X138257142Y-52717857D01*
X138328571Y-52575000D01*
X138471428Y-52503571D01*
X138685714Y-52503571D01*
X138828571Y-52432142D01*
X138900000Y-52289285D01*
X138900000Y-52217857D01*
X138828571Y-52075000D01*
X138685714Y-52003571D01*
X138471428Y-52003571D01*
X138328571Y-52075000D01*
X137614285Y-52003571D02*
X137614285Y-53503571D01*
X137614285Y-52075000D02*
X137471428Y-52003571D01*
X137185714Y-52003571D01*
X137042857Y-52075000D01*
X136971428Y-52146428D01*
X136900000Y-52289285D01*
X136900000Y-52717857D01*
X136971428Y-52860714D01*
X137042857Y-52932142D01*
X137185714Y-53003571D01*
X137471428Y-53003571D01*
X137614285Y-52932142D01*
X135685714Y-52932142D02*
X135828571Y-53003571D01*
X136114285Y-53003571D01*
X136257142Y-52932142D01*
X136328571Y-52789285D01*
X136328571Y-52217857D01*
X136257142Y-52075000D01*
X136114285Y-52003571D01*
X135828571Y-52003571D01*
X135685714Y-52075000D01*
X135614285Y-52217857D01*
X135614285Y-52360714D01*
X136328571Y-52503571D01*
X134328571Y-52932142D02*
X134471428Y-53003571D01*
X134757142Y-53003571D01*
X134900000Y-52932142D01*
X134971428Y-52860714D01*
X135042857Y-52717857D01*
X135042857Y-52289285D01*
X134971428Y-52146428D01*
X134900000Y-52075000D01*
X134757142Y-52003571D01*
X134471428Y-52003571D01*
X134328571Y-52075000D01*
X133900000Y-52003571D02*
X133328571Y-52003571D01*
X133685714Y-51503571D02*
X133685714Y-52789285D01*
X133614285Y-52932142D01*
X133471428Y-53003571D01*
X133328571Y-53003571D01*
X132614285Y-53003571D02*
X132757142Y-52932142D01*
X132828571Y-52860714D01*
X132900000Y-52717857D01*
X132900000Y-52289285D01*
X132828571Y-52146428D01*
X132757142Y-52075000D01*
X132614285Y-52003571D01*
X132400000Y-52003571D01*
X132257142Y-52075000D01*
X132185714Y-52146428D01*
X132114285Y-52289285D01*
X132114285Y-52717857D01*
X132185714Y-52860714D01*
X132257142Y-52932142D01*
X132400000Y-53003571D01*
X132614285Y-53003571D01*
X131471428Y-53003571D02*
X131471428Y-52003571D01*
X131471428Y-52289285D02*
X131400000Y-52146428D01*
X131328571Y-52075000D01*
X131185714Y-52003571D01*
X131042857Y-52003571D01*
X128542857Y-52860714D02*
X128614285Y-52932142D01*
X128828571Y-53003571D01*
X128971428Y-53003571D01*
X129185714Y-52932142D01*
X129328571Y-52789285D01*
X129400000Y-52646428D01*
X129471428Y-52360714D01*
X129471428Y-52146428D01*
X129400000Y-51860714D01*
X129328571Y-51717857D01*
X129185714Y-51575000D01*
X128971428Y-51503571D01*
X128828571Y-51503571D01*
X128614285Y-51575000D01*
X128542857Y-51646428D01*
X127685714Y-53003571D02*
X127828571Y-52932142D01*
X127900000Y-52860714D01*
X127971428Y-52717857D01*
X127971428Y-52289285D01*
X127900000Y-52146428D01*
X127828571Y-52075000D01*
X127685714Y-52003571D01*
X127471428Y-52003571D01*
X127328571Y-52075000D01*
X127257142Y-52146428D01*
X127185714Y-52289285D01*
X127185714Y-52717857D01*
X127257142Y-52860714D01*
X127328571Y-52932142D01*
X127471428Y-53003571D01*
X127685714Y-53003571D01*
X126542857Y-52003571D02*
X126542857Y-53003571D01*
X126542857Y-52146428D02*
X126471428Y-52075000D01*
X126328571Y-52003571D01*
X126114285Y-52003571D01*
X125971428Y-52075000D01*
X125900000Y-52217857D01*
X125900000Y-53003571D01*
X125400000Y-52003571D02*
X124828571Y-52003571D01*
X125185714Y-51503571D02*
X125185714Y-52789285D01*
X125114285Y-52932142D01*
X124971428Y-53003571D01*
X124828571Y-53003571D01*
X124328571Y-53003571D02*
X124328571Y-52003571D01*
X124328571Y-52289285D02*
X124257142Y-52146428D01*
X124185714Y-52075000D01*
X124042857Y-52003571D01*
X123900000Y-52003571D01*
X123185714Y-53003571D02*
X123328571Y-52932142D01*
X123400000Y-52860714D01*
X123471428Y-52717857D01*
X123471428Y-52289285D01*
X123400000Y-52146428D01*
X123328571Y-52075000D01*
X123185714Y-52003571D01*
X122971428Y-52003571D01*
X122828571Y-52075000D01*
X122757142Y-52146428D01*
X122685714Y-52289285D01*
X122685714Y-52717857D01*
X122757142Y-52860714D01*
X122828571Y-52932142D01*
X122971428Y-53003571D01*
X123185714Y-53003571D01*
X121828571Y-53003571D02*
X121971428Y-52932142D01*
X122042857Y-52789285D01*
X122042857Y-51503571D01*
X121328571Y-52932142D02*
X121185714Y-53003571D01*
X120900000Y-53003571D01*
X120757142Y-52932142D01*
X120685714Y-52789285D01*
X120685714Y-52717857D01*
X120757142Y-52575000D01*
X120900000Y-52503571D01*
X121114285Y-52503571D01*
X121257142Y-52432142D01*
X121328571Y-52289285D01*
X121328571Y-52217857D01*
X121257142Y-52075000D01*
X121114285Y-52003571D01*
X120900000Y-52003571D01*
X120757142Y-52075000D01*
X119042857Y-52003571D02*
X118685714Y-53003571D01*
X118328571Y-52003571D01*
X116971428Y-53003571D02*
X117828571Y-53003571D01*
X117400000Y-53003571D02*
X117400000Y-51503571D01*
X117542857Y-51717857D01*
X117685714Y-51860714D01*
X117828571Y-51932142D01*
X140471428Y-55553571D02*
X140471428Y-54053571D01*
X139971428Y-55125000D01*
X139471428Y-54053571D01*
X139471428Y-55553571D01*
X138542857Y-55553571D02*
X138685714Y-55482142D01*
X138757142Y-55410714D01*
X138828571Y-55267857D01*
X138828571Y-54839285D01*
X138757142Y-54696428D01*
X138685714Y-54625000D01*
X138542857Y-54553571D01*
X138328571Y-54553571D01*
X138185714Y-54625000D01*
X138114285Y-54696428D01*
X138042857Y-54839285D01*
X138042857Y-55267857D01*
X138114285Y-55410714D01*
X138185714Y-55482142D01*
X138328571Y-55553571D01*
X138542857Y-55553571D01*
X136757142Y-54553571D02*
X136757142Y-55553571D01*
X137400000Y-54553571D02*
X137400000Y-55339285D01*
X137328571Y-55482142D01*
X137185714Y-55553571D01*
X136971428Y-55553571D01*
X136828571Y-55482142D01*
X136757142Y-55410714D01*
X136042857Y-54553571D02*
X136042857Y-55553571D01*
X136042857Y-54696428D02*
X135971428Y-54625000D01*
X135828571Y-54553571D01*
X135614285Y-54553571D01*
X135471428Y-54625000D01*
X135400000Y-54767857D01*
X135400000Y-55553571D01*
X134900000Y-54553571D02*
X134328571Y-54553571D01*
X134685714Y-54053571D02*
X134685714Y-55339285D01*
X134614285Y-55482142D01*
X134471428Y-55553571D01*
X134328571Y-55553571D01*
X133828571Y-54553571D02*
X133828571Y-55839285D01*
X133900000Y-55982142D01*
X134042857Y-56053571D01*
X134114285Y-56053571D01*
X133828571Y-54053571D02*
X133900000Y-54125000D01*
X133828571Y-54196428D01*
X133757142Y-54125000D01*
X133828571Y-54053571D01*
X133828571Y-54196428D01*
X132900000Y-55553571D02*
X133042857Y-55482142D01*
X133114285Y-55410714D01*
X133185714Y-55267857D01*
X133185714Y-54839285D01*
X133114285Y-54696428D01*
X133042857Y-54625000D01*
X132900000Y-54553571D01*
X132685714Y-54553571D01*
X132542857Y-54625000D01*
X132471428Y-54696428D01*
X132400000Y-54839285D01*
X132400000Y-55267857D01*
X132471428Y-55410714D01*
X132542857Y-55482142D01*
X132685714Y-55553571D01*
X132900000Y-55553571D01*
X131900000Y-54553571D02*
X131542857Y-55553571D01*
X131185714Y-54553571D02*
X131542857Y-55553571D01*
X131685714Y-55910714D01*
X131757142Y-55982142D01*
X131900000Y-56053571D01*
X129471428Y-55553571D02*
X129471428Y-54053571D01*
X128971428Y-55125000D01*
X128471428Y-54053571D01*
X128471428Y-55553571D01*
X127542857Y-55553571D02*
X127685714Y-55482142D01*
X127757142Y-55410714D01*
X127828571Y-55267857D01*
X127828571Y-54839285D01*
X127757142Y-54696428D01*
X127685714Y-54625000D01*
X127542857Y-54553571D01*
X127328571Y-54553571D01*
X127185714Y-54625000D01*
X127114285Y-54696428D01*
X127042857Y-54839285D01*
X127042857Y-55267857D01*
X127114285Y-55410714D01*
X127185714Y-55482142D01*
X127328571Y-55553571D01*
X127542857Y-55553571D01*
X125757142Y-55553571D02*
X125757142Y-54053571D01*
X125757142Y-55482142D02*
X125900000Y-55553571D01*
X126185714Y-55553571D01*
X126328571Y-55482142D01*
X126400000Y-55410714D01*
X126471428Y-55267857D01*
X126471428Y-54839285D01*
X126400000Y-54696428D01*
X126328571Y-54625000D01*
X126185714Y-54553571D01*
X125900000Y-54553571D01*
X125757142Y-54625000D01*
X124400000Y-54553571D02*
X124400000Y-55553571D01*
X125042857Y-54553571D02*
X125042857Y-55339285D01*
X124971428Y-55482142D01*
X124828571Y-55553571D01*
X124614285Y-55553571D01*
X124471428Y-55482142D01*
X124400000Y-55410714D01*
X123471428Y-55553571D02*
X123614285Y-55482142D01*
X123685714Y-55339285D01*
X123685714Y-54053571D01*
X122257142Y-55553571D02*
X122257142Y-54767857D01*
X122328571Y-54625000D01*
X122471428Y-54553571D01*
X122757142Y-54553571D01*
X122900000Y-54625000D01*
X122257142Y-55482142D02*
X122400000Y-55553571D01*
X122757142Y-55553571D01*
X122900000Y-55482142D01*
X122971428Y-55339285D01*
X122971428Y-55196428D01*
X122900000Y-55053571D01*
X122757142Y-54982142D01*
X122400000Y-54982142D01*
X122257142Y-54910714D01*
X121542857Y-55553571D02*
X121542857Y-54553571D01*
X121542857Y-54839285D02*
X121471428Y-54696428D01*
X121400000Y-54625000D01*
X121257142Y-54553571D01*
X121114285Y-54553571D01*
D11*
X110300000Y-151000000D02*
G75*
G03X110300000Y-151000000I-1300000J0D01*
G01*
X104500000Y-157000000D02*
X113500000Y-157000000D01*
X104500000Y-146500000D02*
X113500000Y-146500000D01*
X104500000Y-157000000D02*
X104500000Y-146500000D01*
X113500000Y-157000000D02*
X113500000Y-146500000D01*
X110796051Y-151000000D02*
G75*
G03X110796051Y-151000000I-1796051J0D01*
G01*
X107095000Y-152905000D02*
X110905000Y-152905000D01*
X110905000Y-149095000D02*
X107095000Y-149095000D01*
X107095000Y-152905000D02*
G75*
G02X107095000Y-149095000I1905000J1905000D01*
G01*
X110905000Y-149095000D02*
G75*
G02X110905000Y-152905000I-1905000J-1905000D01*
G01*
X110905000Y-147190000D02*
X113445000Y-147190000D01*
X110905000Y-146555000D02*
X110905000Y-147190000D01*
X107095000Y-146555000D02*
X110905000Y-146555000D01*
X107095000Y-147190000D02*
X107095000Y-146555000D01*
X104555000Y-147190000D02*
X107095000Y-147190000D01*
X120800000Y-134000000D02*
G75*
G03X120800000Y-134000000I-1300000J0D01*
G01*
X115000000Y-140000000D02*
X124000000Y-140000000D01*
X115000000Y-129500000D02*
X124000000Y-129500000D01*
X115000000Y-140000000D02*
X115000000Y-129500000D01*
X124000000Y-140000000D02*
X124000000Y-129500000D01*
X121296051Y-134000000D02*
G75*
G03X121296051Y-134000000I-1796051J0D01*
G01*
X117595000Y-135905000D02*
X121405000Y-135905000D01*
X121405000Y-132095000D02*
X117595000Y-132095000D01*
X117595000Y-135905000D02*
G75*
G02X117595000Y-132095000I1905000J1905000D01*
G01*
X121405000Y-132095000D02*
G75*
G02X121405000Y-135905000I-1905000J-1905000D01*
G01*
X121405000Y-130190000D02*
X123945000Y-130190000D01*
X121405000Y-129555000D02*
X121405000Y-130190000D01*
X117595000Y-129555000D02*
X121405000Y-129555000D01*
X117595000Y-130190000D02*
X117595000Y-129555000D01*
X115055000Y-130190000D02*
X117595000Y-130190000D01*
X141800000Y-134000000D02*
G75*
G03X141800000Y-134000000I-1300000J0D01*
G01*
X136000000Y-140000000D02*
X145000000Y-140000000D01*
X136000000Y-129500000D02*
X145000000Y-129500000D01*
X136000000Y-140000000D02*
X136000000Y-129500000D01*
X145000000Y-140000000D02*
X145000000Y-129500000D01*
X142296051Y-134000000D02*
G75*
G03X142296051Y-134000000I-1796051J0D01*
G01*
X138595000Y-135905000D02*
X142405000Y-135905000D01*
X142405000Y-132095000D02*
X138595000Y-132095000D01*
X138595000Y-135905000D02*
G75*
G02X138595000Y-132095000I1905000J1905000D01*
G01*
X142405000Y-132095000D02*
G75*
G02X142405000Y-135905000I-1905000J-1905000D01*
G01*
X142405000Y-130190000D02*
X144945000Y-130190000D01*
X142405000Y-129555000D02*
X142405000Y-130190000D01*
X138595000Y-129555000D02*
X142405000Y-129555000D01*
X138595000Y-130190000D02*
X138595000Y-129555000D01*
X136055000Y-130190000D02*
X138595000Y-130190000D01*
D12*
X127750000Y-105250000D02*
X132250000Y-105250000D01*
X126500000Y-109250000D02*
X126500000Y-107750000D01*
X132250000Y-111750000D02*
X127750000Y-111750000D01*
X133500000Y-107750000D02*
X133500000Y-109250000D01*
D11*
X110300000Y-134000000D02*
G75*
G03X110300000Y-134000000I-1300000J0D01*
G01*
X104500000Y-140000000D02*
X113500000Y-140000000D01*
X104500000Y-129500000D02*
X113500000Y-129500000D01*
X104500000Y-140000000D02*
X104500000Y-129500000D01*
X113500000Y-140000000D02*
X113500000Y-129500000D01*
X110796051Y-134000000D02*
G75*
G03X110796051Y-134000000I-1796051J0D01*
G01*
X107095000Y-135905000D02*
X110905000Y-135905000D01*
X110905000Y-132095000D02*
X107095000Y-132095000D01*
X107095000Y-135905000D02*
G75*
G02X107095000Y-132095000I1905000J1905000D01*
G01*
X110905000Y-132095000D02*
G75*
G02X110905000Y-135905000I-1905000J-1905000D01*
G01*
X110905000Y-130190000D02*
X113445000Y-130190000D01*
X110905000Y-129555000D02*
X110905000Y-130190000D01*
X107095000Y-129555000D02*
X110905000Y-129555000D01*
X107095000Y-130190000D02*
X107095000Y-129555000D01*
X104555000Y-130190000D02*
X107095000Y-130190000D01*
X115681000Y-88201800D02*
X115681000Y-90501800D01*
X115681000Y-82409800D02*
X115681000Y-84609800D01*
X110319000Y-82384400D02*
X110319000Y-90551800D01*
X144319000Y-84746000D02*
X144319000Y-82446000D01*
X144319000Y-90538000D02*
X144319000Y-88338000D01*
X149681000Y-90563400D02*
X149681000Y-82396000D01*
D12*
X120961000Y-58940000D02*
X111040000Y-58940000D01*
X112675000Y-71060000D02*
X111040000Y-71060000D01*
X115175000Y-71060000D02*
X114325000Y-71060000D01*
X117675000Y-71060000D02*
X116825000Y-71060000D01*
X120961000Y-71060000D02*
X119325000Y-71060000D01*
X111040000Y-62805000D02*
X111040000Y-58940000D01*
X111040000Y-71060000D02*
X111040000Y-67194000D01*
X120961000Y-62805000D02*
X120961000Y-58940000D01*
X120961000Y-71060000D02*
X120961000Y-67194000D01*
X113702247Y-66428295D02*
G75*
G03X118298000Y-66428000I2297753J1928295D01*
G01*
X118762432Y-63328018D02*
G75*
G03X113238000Y-63327000I-2762432J-1171982D01*
G01*
X148961000Y-58940000D02*
X139040000Y-58940000D01*
X140675000Y-71060000D02*
X139040000Y-71060000D01*
X143175000Y-71060000D02*
X142325000Y-71060000D01*
X145675000Y-71060000D02*
X144825000Y-71060000D01*
X148961000Y-71060000D02*
X147325000Y-71060000D01*
X139040000Y-62805000D02*
X139040000Y-58940000D01*
X139040000Y-71060000D02*
X139040000Y-67194000D01*
X148961000Y-62805000D02*
X148961000Y-58940000D01*
X148961000Y-71060000D02*
X148961000Y-67194000D01*
X141702247Y-66428295D02*
G75*
G03X146298000Y-66428000I2297753J1928295D01*
G01*
X146762432Y-63328018D02*
G75*
G03X141238000Y-63327000I-2762432J-1171982D01*
G01*
X150461000Y-102940000D02*
X140540000Y-102940000D01*
X142175000Y-115060000D02*
X140540000Y-115060000D01*
X144675000Y-115060000D02*
X143825000Y-115060000D01*
X147175000Y-115060000D02*
X146325000Y-115060000D01*
X150461000Y-115060000D02*
X148825000Y-115060000D01*
X140540000Y-106805000D02*
X140540000Y-102940000D01*
X140540000Y-115060000D02*
X140540000Y-111194000D01*
X150461000Y-106805000D02*
X150461000Y-102940000D01*
X150461000Y-115060000D02*
X150461000Y-111194000D01*
X143202247Y-110428295D02*
G75*
G03X147798000Y-110428000I2297753J1928295D01*
G01*
X148262432Y-107328018D02*
G75*
G03X142738000Y-107327000I-2762432J-1171982D01*
G01*
X134961000Y-80940000D02*
X125040000Y-80940000D01*
X126675000Y-93060000D02*
X125040000Y-93060000D01*
X129175000Y-93060000D02*
X128325000Y-93060000D01*
X131675000Y-93060000D02*
X130825000Y-93060000D01*
X134961000Y-93060000D02*
X133325000Y-93060000D01*
X125040000Y-84805000D02*
X125040000Y-80940000D01*
X125040000Y-93060000D02*
X125040000Y-89194000D01*
X134961000Y-84805000D02*
X134961000Y-80940000D01*
X134961000Y-93060000D02*
X134961000Y-89194000D01*
X127702247Y-88428295D02*
G75*
G03X132298000Y-88428000I2297753J1928295D01*
G01*
X132762432Y-85328018D02*
G75*
G03X127238000Y-85327000I-2762432J-1171982D01*
G01*
X119461000Y-102940000D02*
X109540000Y-102940000D01*
X111175000Y-115060000D02*
X109540000Y-115060000D01*
X113675000Y-115060000D02*
X112825000Y-115060000D01*
X116175000Y-115060000D02*
X115325000Y-115060000D01*
X119461000Y-115060000D02*
X117825000Y-115060000D01*
X109540000Y-106805000D02*
X109540000Y-102940000D01*
X109540000Y-115060000D02*
X109540000Y-111194000D01*
X119461000Y-106805000D02*
X119461000Y-102940000D01*
X119461000Y-115060000D02*
X119461000Y-111194000D01*
X112202247Y-110428295D02*
G75*
G03X116798000Y-110428000I2297753J1928295D01*
G01*
X117262432Y-107328018D02*
G75*
G03X111738000Y-107327000I-2762432J-1171982D01*
G01*
D11*
X120800000Y-151000000D02*
G75*
G03X120800000Y-151000000I-1300000J0D01*
G01*
X115000000Y-157000000D02*
X124000000Y-157000000D01*
X115000000Y-146500000D02*
X124000000Y-146500000D01*
X115000000Y-157000000D02*
X115000000Y-146500000D01*
X124000000Y-157000000D02*
X124000000Y-146500000D01*
X121296051Y-151000000D02*
G75*
G03X121296051Y-151000000I-1796051J0D01*
G01*
X117595000Y-152905000D02*
X121405000Y-152905000D01*
X121405000Y-149095000D02*
X117595000Y-149095000D01*
X117595000Y-152905000D02*
G75*
G02X117595000Y-149095000I1905000J1905000D01*
G01*
X121405000Y-149095000D02*
G75*
G02X121405000Y-152905000I-1905000J-1905000D01*
G01*
X121405000Y-147190000D02*
X123945000Y-147190000D01*
X121405000Y-146555000D02*
X121405000Y-147190000D01*
X117595000Y-146555000D02*
X121405000Y-146555000D01*
X117595000Y-147190000D02*
X117595000Y-146555000D01*
X115055000Y-147190000D02*
X117595000Y-147190000D01*
X141800000Y-151000000D02*
G75*
G03X141800000Y-151000000I-1300000J0D01*
G01*
X136000000Y-157000000D02*
X145000000Y-157000000D01*
X136000000Y-146500000D02*
X145000000Y-146500000D01*
X136000000Y-157000000D02*
X136000000Y-146500000D01*
X145000000Y-157000000D02*
X145000000Y-146500000D01*
X142296051Y-151000000D02*
G75*
G03X142296051Y-151000000I-1796051J0D01*
G01*
X138595000Y-152905000D02*
X142405000Y-152905000D01*
X142405000Y-149095000D02*
X138595000Y-149095000D01*
X138595000Y-152905000D02*
G75*
G02X138595000Y-149095000I1905000J1905000D01*
G01*
X142405000Y-149095000D02*
G75*
G02X142405000Y-152905000I-1905000J-1905000D01*
G01*
X142405000Y-147190000D02*
X144945000Y-147190000D01*
X142405000Y-146555000D02*
X142405000Y-147190000D01*
X138595000Y-146555000D02*
X142405000Y-146555000D01*
X138595000Y-147190000D02*
X138595000Y-146555000D01*
X136055000Y-147190000D02*
X138595000Y-147190000D01*
X131300000Y-134000000D02*
G75*
G03X131300000Y-134000000I-1300000J0D01*
G01*
X125500000Y-140000000D02*
X134500000Y-140000000D01*
X125500000Y-129500000D02*
X134500000Y-129500000D01*
X125500000Y-140000000D02*
X125500000Y-129500000D01*
X134500000Y-140000000D02*
X134500000Y-129500000D01*
X131796051Y-134000000D02*
G75*
G03X131796051Y-134000000I-1796051J0D01*
G01*
X128095000Y-135905000D02*
X131905000Y-135905000D01*
X131905000Y-132095000D02*
X128095000Y-132095000D01*
X128095000Y-135905000D02*
G75*
G02X128095000Y-132095000I1905000J1905000D01*
G01*
X131905000Y-132095000D02*
G75*
G02X131905000Y-135905000I-1905000J-1905000D01*
G01*
X131905000Y-130190000D02*
X134445000Y-130190000D01*
X131905000Y-129555000D02*
X131905000Y-130190000D01*
X128095000Y-129555000D02*
X131905000Y-129555000D01*
X128095000Y-130190000D02*
X128095000Y-129555000D01*
X125555000Y-130190000D02*
X128095000Y-130190000D01*
X152300000Y-134000000D02*
G75*
G03X152300000Y-134000000I-1300000J0D01*
G01*
X146500000Y-140000000D02*
X155500000Y-140000000D01*
X146500000Y-129500000D02*
X155500000Y-129500000D01*
X146500000Y-140000000D02*
X146500000Y-129500000D01*
X155500000Y-140000000D02*
X155500000Y-129500000D01*
X152796051Y-134000000D02*
G75*
G03X152796051Y-134000000I-1796051J0D01*
G01*
X149095000Y-135905000D02*
X152905000Y-135905000D01*
X152905000Y-132095000D02*
X149095000Y-132095000D01*
X149095000Y-135905000D02*
G75*
G02X149095000Y-132095000I1905000J1905000D01*
G01*
X152905000Y-132095000D02*
G75*
G02X152905000Y-135905000I-1905000J-1905000D01*
G01*
X152905000Y-130190000D02*
X155445000Y-130190000D01*
X152905000Y-129555000D02*
X152905000Y-130190000D01*
X149095000Y-129555000D02*
X152905000Y-129555000D01*
X149095000Y-130190000D02*
X149095000Y-129555000D01*
X146555000Y-130190000D02*
X149095000Y-130190000D01*
X152300000Y-151000000D02*
G75*
G03X152300000Y-151000000I-1300000J0D01*
G01*
X146500000Y-157000000D02*
X155500000Y-157000000D01*
X146500000Y-146500000D02*
X155500000Y-146500000D01*
X146500000Y-157000000D02*
X146500000Y-146500000D01*
X155500000Y-157000000D02*
X155500000Y-146500000D01*
X152796051Y-151000000D02*
G75*
G03X152796051Y-151000000I-1796051J0D01*
G01*
X149095000Y-152905000D02*
X152905000Y-152905000D01*
X152905000Y-149095000D02*
X149095000Y-149095000D01*
X149095000Y-152905000D02*
G75*
G02X149095000Y-149095000I1905000J1905000D01*
G01*
X152905000Y-149095000D02*
G75*
G02X152905000Y-152905000I-1905000J-1905000D01*
G01*
X152905000Y-147190000D02*
X155445000Y-147190000D01*
X152905000Y-146555000D02*
X152905000Y-147190000D01*
X149095000Y-146555000D02*
X152905000Y-146555000D01*
X149095000Y-147190000D02*
X149095000Y-146555000D01*
X146555000Y-147190000D02*
X149095000Y-147190000D01*
D12*
X106942335Y-55078608D02*
G75*
G02X103710000Y-55235516I-1672335J1078608D01*
G01*
X106942335Y-52921392D02*
G75*
G03X103710000Y-52764484I-1672335J-1078608D01*
G01*
X106311130Y-55079837D02*
G75*
G02X104229039Y-55080000I-1041130J1079837D01*
G01*
X106311130Y-52920163D02*
G75*
G03X104229039Y-52920000I-1041130J-1079837D01*
G01*
X103710000Y-55236000D02*
X103710000Y-55080000D01*
X103710000Y-52920000D02*
X103710000Y-52764000D01*
X156392335Y-55078608D02*
G75*
G02X153160000Y-55235516I-1672335J1078608D01*
G01*
X156392335Y-52921392D02*
G75*
G03X153160000Y-52764484I-1672335J-1078608D01*
G01*
X155761130Y-55079837D02*
G75*
G02X153679039Y-55080000I-1041130J1079837D01*
G01*
X155761130Y-52920163D02*
G75*
G03X153679039Y-52920000I-1041130J-1079837D01*
G01*
X153160000Y-55236000D02*
X153160000Y-55080000D01*
X153160000Y-52920000D02*
X153160000Y-52764000D01*
D11*
X113357142Y-158786666D02*
X112880952Y-158786666D01*
X113452380Y-159072380D02*
X113119047Y-158072380D01*
X112785714Y-159072380D01*
X112023809Y-158405714D02*
X112023809Y-159072380D01*
X112452380Y-158405714D02*
X112452380Y-158929523D01*
X112404761Y-159024761D01*
X112309523Y-159072380D01*
X112166666Y-159072380D01*
X112071428Y-159024761D01*
X112023809Y-158977142D01*
X111119047Y-159072380D02*
X111119047Y-158072380D01*
X111119047Y-159024761D02*
X111214285Y-159072380D01*
X111404761Y-159072380D01*
X111500000Y-159024761D01*
X111547619Y-158977142D01*
X111595238Y-158881904D01*
X111595238Y-158596190D01*
X111547619Y-158500952D01*
X111500000Y-158453333D01*
X111404761Y-158405714D01*
X111214285Y-158405714D01*
X111119047Y-158453333D01*
X110642857Y-159072380D02*
X110642857Y-158405714D01*
X110642857Y-158072380D02*
X110690476Y-158120000D01*
X110642857Y-158167619D01*
X110595238Y-158120000D01*
X110642857Y-158072380D01*
X110642857Y-158167619D01*
X110023809Y-159072380D02*
X110119047Y-159024761D01*
X110166666Y-158977142D01*
X110214285Y-158881904D01*
X110214285Y-158596190D01*
X110166666Y-158500952D01*
X110119047Y-158453333D01*
X110023809Y-158405714D01*
X109880952Y-158405714D01*
X109785714Y-158453333D01*
X109738095Y-158500952D01*
X109690476Y-158596190D01*
X109690476Y-158881904D01*
X109738095Y-158977142D01*
X109785714Y-159024761D01*
X109880952Y-159072380D01*
X110023809Y-159072380D01*
X109500000Y-159167619D02*
X108738095Y-159167619D01*
X108309523Y-158072380D02*
X108119047Y-158072380D01*
X108023809Y-158120000D01*
X107928571Y-158215238D01*
X107880952Y-158405714D01*
X107880952Y-158739047D01*
X107928571Y-158929523D01*
X108023809Y-159024761D01*
X108119047Y-159072380D01*
X108309523Y-159072380D01*
X108404761Y-159024761D01*
X108500000Y-158929523D01*
X108547619Y-158739047D01*
X108547619Y-158405714D01*
X108500000Y-158215238D01*
X108404761Y-158120000D01*
X108309523Y-158072380D01*
X107023809Y-158405714D02*
X107023809Y-159072380D01*
X107452380Y-158405714D02*
X107452380Y-158929523D01*
X107404761Y-159024761D01*
X107309523Y-159072380D01*
X107166666Y-159072380D01*
X107071428Y-159024761D01*
X107023809Y-158977142D01*
X106690476Y-158405714D02*
X106309523Y-158405714D01*
X106547619Y-158072380D02*
X106547619Y-158929523D01*
X106500000Y-159024761D01*
X106404761Y-159072380D01*
X106309523Y-159072380D01*
X106214285Y-159167619D02*
X105452380Y-159167619D01*
X104642857Y-159072380D02*
X104976190Y-158596190D01*
X105214285Y-159072380D02*
X105214285Y-158072380D01*
X104833333Y-158072380D01*
X104738095Y-158120000D01*
X104690476Y-158167619D01*
X104642857Y-158262857D01*
X104642857Y-158405714D01*
X104690476Y-158500952D01*
X104738095Y-158548571D01*
X104833333Y-158596190D01*
X105214285Y-158596190D01*
X121785714Y-142072380D02*
X121785714Y-141072380D01*
X121452380Y-141786666D01*
X121119047Y-141072380D01*
X121119047Y-142072380D01*
X120642857Y-142072380D02*
X120642857Y-141405714D01*
X120642857Y-141072380D02*
X120690476Y-141120000D01*
X120642857Y-141167619D01*
X120595238Y-141120000D01*
X120642857Y-141072380D01*
X120642857Y-141167619D01*
X120261904Y-142072380D02*
X119738095Y-141405714D01*
X120261904Y-141405714D02*
X119738095Y-142072380D01*
X119595238Y-142167619D02*
X118833333Y-142167619D01*
X118023809Y-141977142D02*
X118071428Y-142024761D01*
X118214285Y-142072380D01*
X118309523Y-142072380D01*
X118452380Y-142024761D01*
X118547619Y-141929523D01*
X118595238Y-141834285D01*
X118642857Y-141643809D01*
X118642857Y-141500952D01*
X118595238Y-141310476D01*
X118547619Y-141215238D01*
X118452380Y-141120000D01*
X118309523Y-141072380D01*
X118214285Y-141072380D01*
X118071428Y-141120000D01*
X118023809Y-141167619D01*
X117738095Y-141072380D02*
X117404761Y-142072380D01*
X117071428Y-141072380D01*
X144714285Y-141548571D02*
X145047619Y-141548571D01*
X145047619Y-142072380D02*
X145047619Y-141072380D01*
X144571428Y-141072380D01*
X143809523Y-142024761D02*
X143904761Y-142072380D01*
X144095238Y-142072380D01*
X144190476Y-142024761D01*
X144238095Y-141929523D01*
X144238095Y-141548571D01*
X144190476Y-141453333D01*
X144095238Y-141405714D01*
X143904761Y-141405714D01*
X143809523Y-141453333D01*
X143761904Y-141548571D01*
X143761904Y-141643809D01*
X144238095Y-141739047D01*
X142952380Y-142024761D02*
X143047619Y-142072380D01*
X143238095Y-142072380D01*
X143333333Y-142024761D01*
X143380952Y-141929523D01*
X143380952Y-141548571D01*
X143333333Y-141453333D01*
X143238095Y-141405714D01*
X143047619Y-141405714D01*
X142952380Y-141453333D01*
X142904761Y-141548571D01*
X142904761Y-141643809D01*
X143380952Y-141739047D01*
X142047619Y-142072380D02*
X142047619Y-141072380D01*
X142047619Y-142024761D02*
X142142857Y-142072380D01*
X142333333Y-142072380D01*
X142428571Y-142024761D01*
X142476190Y-141977142D01*
X142523809Y-141881904D01*
X142523809Y-141596190D01*
X142476190Y-141500952D01*
X142428571Y-141453333D01*
X142333333Y-141405714D01*
X142142857Y-141405714D01*
X142047619Y-141453333D01*
X141571428Y-142072380D02*
X141571428Y-141072380D01*
X141571428Y-141453333D02*
X141476190Y-141405714D01*
X141285714Y-141405714D01*
X141190476Y-141453333D01*
X141142857Y-141500952D01*
X141095238Y-141596190D01*
X141095238Y-141881904D01*
X141142857Y-141977142D01*
X141190476Y-142024761D01*
X141285714Y-142072380D01*
X141476190Y-142072380D01*
X141571428Y-142024761D01*
X140238095Y-142072380D02*
X140238095Y-141548571D01*
X140285714Y-141453333D01*
X140380952Y-141405714D01*
X140571428Y-141405714D01*
X140666666Y-141453333D01*
X140238095Y-142024761D02*
X140333333Y-142072380D01*
X140571428Y-142072380D01*
X140666666Y-142024761D01*
X140714285Y-141929523D01*
X140714285Y-141834285D01*
X140666666Y-141739047D01*
X140571428Y-141691428D01*
X140333333Y-141691428D01*
X140238095Y-141643809D01*
X139333333Y-142024761D02*
X139428571Y-142072380D01*
X139619047Y-142072380D01*
X139714285Y-142024761D01*
X139761904Y-141977142D01*
X139809523Y-141881904D01*
X139809523Y-141596190D01*
X139761904Y-141500952D01*
X139714285Y-141453333D01*
X139619047Y-141405714D01*
X139428571Y-141405714D01*
X139333333Y-141453333D01*
X138904761Y-142072380D02*
X138904761Y-141072380D01*
X138809523Y-141691428D02*
X138523809Y-142072380D01*
X138523809Y-141405714D02*
X138904761Y-141786666D01*
X138333333Y-142167619D02*
X137571428Y-142167619D01*
X136761904Y-141977142D02*
X136809523Y-142024761D01*
X136952380Y-142072380D01*
X137047619Y-142072380D01*
X137190476Y-142024761D01*
X137285714Y-141929523D01*
X137333333Y-141834285D01*
X137380952Y-141643809D01*
X137380952Y-141500952D01*
X137333333Y-141310476D01*
X137285714Y-141215238D01*
X137190476Y-141120000D01*
X137047619Y-141072380D01*
X136952380Y-141072380D01*
X136809523Y-141120000D01*
X136761904Y-141167619D01*
X136476190Y-141072380D02*
X136142857Y-142072380D01*
X135809523Y-141072380D01*
X131928571Y-113202380D02*
X132261904Y-112726190D01*
X132500000Y-113202380D02*
X132500000Y-112202380D01*
X132119047Y-112202380D01*
X132023809Y-112250000D01*
X131976190Y-112297619D01*
X131928571Y-112392857D01*
X131928571Y-112535714D01*
X131976190Y-112630952D01*
X132023809Y-112678571D01*
X132119047Y-112726190D01*
X132500000Y-112726190D01*
X131500000Y-112678571D02*
X131166666Y-112678571D01*
X131023809Y-113202380D02*
X131500000Y-113202380D01*
X131500000Y-112202380D01*
X131023809Y-112202380D01*
X130642857Y-113154761D02*
X130500000Y-113202380D01*
X130261904Y-113202380D01*
X130166666Y-113154761D01*
X130119047Y-113107142D01*
X130071428Y-113011904D01*
X130071428Y-112916666D01*
X130119047Y-112821428D01*
X130166666Y-112773809D01*
X130261904Y-112726190D01*
X130452380Y-112678571D01*
X130547619Y-112630952D01*
X130595238Y-112583333D01*
X130642857Y-112488095D01*
X130642857Y-112392857D01*
X130595238Y-112297619D01*
X130547619Y-112250000D01*
X130452380Y-112202380D01*
X130214285Y-112202380D01*
X130071428Y-112250000D01*
X129642857Y-112678571D02*
X129309523Y-112678571D01*
X129166666Y-113202380D02*
X129642857Y-113202380D01*
X129642857Y-112202380D01*
X129166666Y-112202380D01*
X128880952Y-112202380D02*
X128309523Y-112202380D01*
X128595238Y-113202380D02*
X128595238Y-112202380D01*
X127452380Y-113202380D02*
X128023809Y-113202380D01*
X127738095Y-113202380D02*
X127738095Y-112202380D01*
X127833333Y-112345238D01*
X127928571Y-112440476D01*
X128023809Y-112488095D01*
X112976190Y-142072380D02*
X112976190Y-141072380D01*
X112738095Y-141072380D01*
X112595238Y-141120000D01*
X112500000Y-141215238D01*
X112452380Y-141310476D01*
X112404761Y-141500952D01*
X112404761Y-141643809D01*
X112452380Y-141834285D01*
X112500000Y-141929523D01*
X112595238Y-142024761D01*
X112738095Y-142072380D01*
X112976190Y-142072380D01*
X111595238Y-142024761D02*
X111690476Y-142072380D01*
X111880952Y-142072380D01*
X111976190Y-142024761D01*
X112023809Y-141929523D01*
X112023809Y-141548571D01*
X111976190Y-141453333D01*
X111880952Y-141405714D01*
X111690476Y-141405714D01*
X111595238Y-141453333D01*
X111547619Y-141548571D01*
X111547619Y-141643809D01*
X112023809Y-141739047D01*
X110976190Y-142072380D02*
X111071428Y-142024761D01*
X111119047Y-141929523D01*
X111119047Y-141072380D01*
X110166666Y-142072380D02*
X110166666Y-141548571D01*
X110214285Y-141453333D01*
X110309523Y-141405714D01*
X110500000Y-141405714D01*
X110595238Y-141453333D01*
X110166666Y-142024761D02*
X110261904Y-142072380D01*
X110500000Y-142072380D01*
X110595238Y-142024761D01*
X110642857Y-141929523D01*
X110642857Y-141834285D01*
X110595238Y-141739047D01*
X110500000Y-141691428D01*
X110261904Y-141691428D01*
X110166666Y-141643809D01*
X109785714Y-141405714D02*
X109547619Y-142072380D01*
X109309523Y-141405714D02*
X109547619Y-142072380D01*
X109642857Y-142310476D01*
X109690476Y-142358095D01*
X109785714Y-142405714D01*
X109166666Y-142167619D02*
X108404761Y-142167619D01*
X107595238Y-141977142D02*
X107642857Y-142024761D01*
X107785714Y-142072380D01*
X107880952Y-142072380D01*
X108023809Y-142024761D01*
X108119047Y-141929523D01*
X108166666Y-141834285D01*
X108214285Y-141643809D01*
X108214285Y-141500952D01*
X108166666Y-141310476D01*
X108119047Y-141215238D01*
X108023809Y-141120000D01*
X107880952Y-141072380D01*
X107785714Y-141072380D01*
X107642857Y-141120000D01*
X107595238Y-141167619D01*
X107309523Y-141072380D02*
X106976190Y-142072380D01*
X106642857Y-141072380D01*
X106547619Y-142167619D02*
X105785714Y-142167619D01*
X104976190Y-142072380D02*
X105309523Y-141596190D01*
X105547619Y-142072380D02*
X105547619Y-141072380D01*
X105166666Y-141072380D01*
X105071428Y-141120000D01*
X105023809Y-141167619D01*
X104976190Y-141262857D01*
X104976190Y-141405714D01*
X105023809Y-141500952D01*
X105071428Y-141548571D01*
X105166666Y-141596190D01*
X105547619Y-141596190D01*
X109328571Y-82490657D02*
X109328571Y-82157323D01*
X109852380Y-82157323D02*
X108852380Y-82157323D01*
X108852380Y-82633514D01*
X108852380Y-82919228D02*
X109852380Y-83585895D01*
X108852380Y-83585895D02*
X109852380Y-82919228D01*
X109852380Y-83966847D02*
X108852380Y-83966847D01*
X109566666Y-84300180D01*
X108852380Y-84633514D01*
X109852380Y-84633514D01*
X108852380Y-85300180D02*
X108852380Y-85490657D01*
X108900000Y-85585895D01*
X108995238Y-85681133D01*
X109185714Y-85728752D01*
X109519047Y-85728752D01*
X109709523Y-85681133D01*
X109804761Y-85585895D01*
X109852380Y-85490657D01*
X109852380Y-85300180D01*
X109804761Y-85204942D01*
X109709523Y-85109704D01*
X109519047Y-85062085D01*
X109185714Y-85062085D01*
X108995238Y-85109704D01*
X108900000Y-85204942D01*
X108852380Y-85300180D01*
X109852380Y-86157323D02*
X108852380Y-86157323D01*
X108852380Y-86395419D01*
X108900000Y-86538276D01*
X108995238Y-86633514D01*
X109090476Y-86681133D01*
X109280952Y-86728752D01*
X109423809Y-86728752D01*
X109614285Y-86681133D01*
X109709523Y-86633514D01*
X109804761Y-86538276D01*
X109852380Y-86395419D01*
X109852380Y-86157323D01*
X109328571Y-87157323D02*
X109328571Y-87490657D01*
X109852380Y-87633514D02*
X109852380Y-87157323D01*
X108852380Y-87157323D01*
X108852380Y-87633514D01*
X109852380Y-88585895D02*
X109852380Y-88014466D01*
X109852380Y-88300180D02*
X108852380Y-88300180D01*
X108995238Y-88204942D01*
X109090476Y-88109704D01*
X109138095Y-88014466D01*
X150528571Y-85028571D02*
X150528571Y-84695238D01*
X151052380Y-84695238D02*
X150052380Y-84695238D01*
X150052380Y-85171428D01*
X150052380Y-85457142D02*
X151052380Y-86123809D01*
X150052380Y-86123809D02*
X151052380Y-85457142D01*
X150052380Y-86361904D02*
X150052380Y-86933333D01*
X151052380Y-86647619D02*
X150052380Y-86647619D01*
X150576190Y-87457142D02*
X151052380Y-87457142D01*
X150052380Y-87123809D02*
X150576190Y-87457142D01*
X150052380Y-87790476D01*
X151052380Y-88123809D02*
X150052380Y-88123809D01*
X150052380Y-88504761D01*
X150100000Y-88600000D01*
X150147619Y-88647619D01*
X150242857Y-88695238D01*
X150385714Y-88695238D01*
X150480952Y-88647619D01*
X150528571Y-88600000D01*
X150576190Y-88504761D01*
X150576190Y-88123809D01*
X150528571Y-89123809D02*
X150528571Y-89457142D01*
X151052380Y-89600000D02*
X151052380Y-89123809D01*
X150052380Y-89123809D01*
X150052380Y-89600000D01*
X151052380Y-90552380D02*
X151052380Y-89980952D01*
X151052380Y-90266666D02*
X150052380Y-90266666D01*
X150195238Y-90171428D01*
X150290476Y-90076190D01*
X150338095Y-89980952D01*
X120801904Y-74992380D02*
X120801904Y-73992380D01*
X120563809Y-73992380D01*
X120420952Y-74040000D01*
X120325714Y-74135238D01*
X120278095Y-74230476D01*
X120230476Y-74420952D01*
X120230476Y-74563809D01*
X120278095Y-74754285D01*
X120325714Y-74849523D01*
X120420952Y-74944761D01*
X120563809Y-74992380D01*
X120801904Y-74992380D01*
X119420952Y-74944761D02*
X119516190Y-74992380D01*
X119706666Y-74992380D01*
X119801904Y-74944761D01*
X119849523Y-74849523D01*
X119849523Y-74468571D01*
X119801904Y-74373333D01*
X119706666Y-74325714D01*
X119516190Y-74325714D01*
X119420952Y-74373333D01*
X119373333Y-74468571D01*
X119373333Y-74563809D01*
X119849523Y-74659047D01*
X118801904Y-74992380D02*
X118897142Y-74944761D01*
X118944761Y-74849523D01*
X118944761Y-73992380D01*
X117992380Y-74992380D02*
X117992380Y-74468571D01*
X118040000Y-74373333D01*
X118135238Y-74325714D01*
X118325714Y-74325714D01*
X118420952Y-74373333D01*
X117992380Y-74944761D02*
X118087619Y-74992380D01*
X118325714Y-74992380D01*
X118420952Y-74944761D01*
X118468571Y-74849523D01*
X118468571Y-74754285D01*
X118420952Y-74659047D01*
X118325714Y-74611428D01*
X118087619Y-74611428D01*
X117992380Y-74563809D01*
X117611428Y-74325714D02*
X117373333Y-74992380D01*
X117135238Y-74325714D02*
X117373333Y-74992380D01*
X117468571Y-75230476D01*
X117516190Y-75278095D01*
X117611428Y-75325714D01*
X116992380Y-75087619D02*
X116230476Y-75087619D01*
X115992380Y-74992380D02*
X115992380Y-73992380D01*
X115611428Y-73992380D01*
X115516190Y-74040000D01*
X115468571Y-74087619D01*
X115420952Y-74182857D01*
X115420952Y-74325714D01*
X115468571Y-74420952D01*
X115516190Y-74468571D01*
X115611428Y-74516190D01*
X115992380Y-74516190D01*
X114849523Y-74992380D02*
X114944761Y-74944761D01*
X114992380Y-74897142D01*
X115040000Y-74801904D01*
X115040000Y-74516190D01*
X114992380Y-74420952D01*
X114944761Y-74373333D01*
X114849523Y-74325714D01*
X114706666Y-74325714D01*
X114611428Y-74373333D01*
X114563809Y-74420952D01*
X114516190Y-74516190D01*
X114516190Y-74801904D01*
X114563809Y-74897142D01*
X114611428Y-74944761D01*
X114706666Y-74992380D01*
X114849523Y-74992380D01*
X114230476Y-74325714D02*
X113849523Y-74325714D01*
X114087619Y-73992380D02*
X114087619Y-74849523D01*
X114040000Y-74944761D01*
X113944761Y-74992380D01*
X113849523Y-74992380D01*
X113754285Y-75087619D02*
X112992380Y-75087619D01*
X112182857Y-74992380D02*
X112516190Y-74516190D01*
X112754285Y-74992380D02*
X112754285Y-73992380D01*
X112373333Y-73992380D01*
X112278095Y-74040000D01*
X112230476Y-74087619D01*
X112182857Y-74182857D01*
X112182857Y-74325714D01*
X112230476Y-74420952D01*
X112278095Y-74468571D01*
X112373333Y-74516190D01*
X112754285Y-74516190D01*
X111230476Y-74992380D02*
X111801904Y-74992380D01*
X111516190Y-74992380D02*
X111516190Y-73992380D01*
X111611428Y-74135238D01*
X111706666Y-74230476D01*
X111801904Y-74278095D01*
X148706666Y-74992380D02*
X148706666Y-73992380D01*
X148468571Y-73992380D01*
X148325714Y-74040000D01*
X148230476Y-74135238D01*
X148182857Y-74230476D01*
X148135238Y-74420952D01*
X148135238Y-74563809D01*
X148182857Y-74754285D01*
X148230476Y-74849523D01*
X148325714Y-74944761D01*
X148468571Y-74992380D01*
X148706666Y-74992380D01*
X147325714Y-74944761D02*
X147420952Y-74992380D01*
X147611428Y-74992380D01*
X147706666Y-74944761D01*
X147754285Y-74849523D01*
X147754285Y-74468571D01*
X147706666Y-74373333D01*
X147611428Y-74325714D01*
X147420952Y-74325714D01*
X147325714Y-74373333D01*
X147278095Y-74468571D01*
X147278095Y-74563809D01*
X147754285Y-74659047D01*
X146706666Y-74992380D02*
X146801904Y-74944761D01*
X146849523Y-74849523D01*
X146849523Y-73992380D01*
X145897142Y-74992380D02*
X145897142Y-74468571D01*
X145944761Y-74373333D01*
X146040000Y-74325714D01*
X146230476Y-74325714D01*
X146325714Y-74373333D01*
X145897142Y-74944761D02*
X145992380Y-74992380D01*
X146230476Y-74992380D01*
X146325714Y-74944761D01*
X146373333Y-74849523D01*
X146373333Y-74754285D01*
X146325714Y-74659047D01*
X146230476Y-74611428D01*
X145992380Y-74611428D01*
X145897142Y-74563809D01*
X145516190Y-74325714D02*
X145278095Y-74992380D01*
X145040000Y-74325714D02*
X145278095Y-74992380D01*
X145373333Y-75230476D01*
X145420952Y-75278095D01*
X145516190Y-75325714D01*
X144897142Y-75087619D02*
X144135238Y-75087619D01*
X143897142Y-74992380D02*
X143897142Y-73992380D01*
X143516190Y-73992380D01*
X143420952Y-74040000D01*
X143373333Y-74087619D01*
X143325714Y-74182857D01*
X143325714Y-74325714D01*
X143373333Y-74420952D01*
X143420952Y-74468571D01*
X143516190Y-74516190D01*
X143897142Y-74516190D01*
X142754285Y-74992380D02*
X142849523Y-74944761D01*
X142897142Y-74897142D01*
X142944761Y-74801904D01*
X142944761Y-74516190D01*
X142897142Y-74420952D01*
X142849523Y-74373333D01*
X142754285Y-74325714D01*
X142611428Y-74325714D01*
X142516190Y-74373333D01*
X142468571Y-74420952D01*
X142420952Y-74516190D01*
X142420952Y-74801904D01*
X142468571Y-74897142D01*
X142516190Y-74944761D01*
X142611428Y-74992380D01*
X142754285Y-74992380D01*
X142135238Y-74325714D02*
X141754285Y-74325714D01*
X141992380Y-73992380D02*
X141992380Y-74849523D01*
X141944761Y-74944761D01*
X141849523Y-74992380D01*
X141754285Y-74992380D01*
X141659047Y-75087619D02*
X140897142Y-75087619D01*
X140182857Y-74992380D02*
X140659047Y-74992380D01*
X140659047Y-73992380D01*
X139325714Y-74992380D02*
X139897142Y-74992380D01*
X139611428Y-74992380D02*
X139611428Y-73992380D01*
X139706666Y-74135238D01*
X139801904Y-74230476D01*
X139897142Y-74278095D01*
X150540000Y-118468571D02*
X150873333Y-118468571D01*
X150873333Y-118992380D02*
X150873333Y-117992380D01*
X150397142Y-117992380D01*
X149635238Y-118944761D02*
X149730476Y-118992380D01*
X149920952Y-118992380D01*
X150016190Y-118944761D01*
X150063809Y-118849523D01*
X150063809Y-118468571D01*
X150016190Y-118373333D01*
X149920952Y-118325714D01*
X149730476Y-118325714D01*
X149635238Y-118373333D01*
X149587619Y-118468571D01*
X149587619Y-118563809D01*
X150063809Y-118659047D01*
X148778095Y-118944761D02*
X148873333Y-118992380D01*
X149063809Y-118992380D01*
X149159047Y-118944761D01*
X149206666Y-118849523D01*
X149206666Y-118468571D01*
X149159047Y-118373333D01*
X149063809Y-118325714D01*
X148873333Y-118325714D01*
X148778095Y-118373333D01*
X148730476Y-118468571D01*
X148730476Y-118563809D01*
X149206666Y-118659047D01*
X147873333Y-118992380D02*
X147873333Y-117992380D01*
X147873333Y-118944761D02*
X147968571Y-118992380D01*
X148159047Y-118992380D01*
X148254285Y-118944761D01*
X148301904Y-118897142D01*
X148349523Y-118801904D01*
X148349523Y-118516190D01*
X148301904Y-118420952D01*
X148254285Y-118373333D01*
X148159047Y-118325714D01*
X147968571Y-118325714D01*
X147873333Y-118373333D01*
X147397142Y-118992380D02*
X147397142Y-117992380D01*
X147397142Y-118373333D02*
X147301904Y-118325714D01*
X147111428Y-118325714D01*
X147016190Y-118373333D01*
X146968571Y-118420952D01*
X146920952Y-118516190D01*
X146920952Y-118801904D01*
X146968571Y-118897142D01*
X147016190Y-118944761D01*
X147111428Y-118992380D01*
X147301904Y-118992380D01*
X147397142Y-118944761D01*
X146063809Y-118992380D02*
X146063809Y-118468571D01*
X146111428Y-118373333D01*
X146206666Y-118325714D01*
X146397142Y-118325714D01*
X146492380Y-118373333D01*
X146063809Y-118944761D02*
X146159047Y-118992380D01*
X146397142Y-118992380D01*
X146492380Y-118944761D01*
X146540000Y-118849523D01*
X146540000Y-118754285D01*
X146492380Y-118659047D01*
X146397142Y-118611428D01*
X146159047Y-118611428D01*
X146063809Y-118563809D01*
X145159047Y-118944761D02*
X145254285Y-118992380D01*
X145444761Y-118992380D01*
X145540000Y-118944761D01*
X145587619Y-118897142D01*
X145635238Y-118801904D01*
X145635238Y-118516190D01*
X145587619Y-118420952D01*
X145540000Y-118373333D01*
X145444761Y-118325714D01*
X145254285Y-118325714D01*
X145159047Y-118373333D01*
X144730476Y-118992380D02*
X144730476Y-117992380D01*
X144635238Y-118611428D02*
X144349523Y-118992380D01*
X144349523Y-118325714D02*
X144730476Y-118706666D01*
X144159047Y-119087619D02*
X143397142Y-119087619D01*
X143159047Y-118992380D02*
X143159047Y-117992380D01*
X142778095Y-117992380D01*
X142682857Y-118040000D01*
X142635238Y-118087619D01*
X142587619Y-118182857D01*
X142587619Y-118325714D01*
X142635238Y-118420952D01*
X142682857Y-118468571D01*
X142778095Y-118516190D01*
X143159047Y-118516190D01*
X142016190Y-118992380D02*
X142111428Y-118944761D01*
X142159047Y-118897142D01*
X142206666Y-118801904D01*
X142206666Y-118516190D01*
X142159047Y-118420952D01*
X142111428Y-118373333D01*
X142016190Y-118325714D01*
X141873333Y-118325714D01*
X141778095Y-118373333D01*
X141730476Y-118420952D01*
X141682857Y-118516190D01*
X141682857Y-118801904D01*
X141730476Y-118897142D01*
X141778095Y-118944761D01*
X141873333Y-118992380D01*
X142016190Y-118992380D01*
X141397142Y-118325714D02*
X141016190Y-118325714D01*
X141254285Y-117992380D02*
X141254285Y-118849523D01*
X141206666Y-118944761D01*
X141111428Y-118992380D01*
X141016190Y-118992380D01*
X140159047Y-118992380D02*
X140730476Y-118992380D01*
X140444761Y-118992380D02*
X140444761Y-117992380D01*
X140540000Y-118135238D01*
X140635238Y-118230476D01*
X140730476Y-118278095D01*
X133754285Y-95992380D02*
X133182857Y-95992380D01*
X133468571Y-96992380D02*
X133468571Y-95992380D01*
X132706666Y-96992380D02*
X132801904Y-96944761D01*
X132849523Y-96897142D01*
X132897142Y-96801904D01*
X132897142Y-96516190D01*
X132849523Y-96420952D01*
X132801904Y-96373333D01*
X132706666Y-96325714D01*
X132563809Y-96325714D01*
X132468571Y-96373333D01*
X132420952Y-96420952D01*
X132373333Y-96516190D01*
X132373333Y-96801904D01*
X132420952Y-96897142D01*
X132468571Y-96944761D01*
X132563809Y-96992380D01*
X132706666Y-96992380D01*
X131944761Y-96325714D02*
X131944761Y-96992380D01*
X131944761Y-96420952D02*
X131897142Y-96373333D01*
X131801904Y-96325714D01*
X131659047Y-96325714D01*
X131563809Y-96373333D01*
X131516190Y-96468571D01*
X131516190Y-96992380D01*
X130659047Y-96944761D02*
X130754285Y-96992380D01*
X130944761Y-96992380D01*
X131040000Y-96944761D01*
X131087619Y-96849523D01*
X131087619Y-96468571D01*
X131040000Y-96373333D01*
X130944761Y-96325714D01*
X130754285Y-96325714D01*
X130659047Y-96373333D01*
X130611428Y-96468571D01*
X130611428Y-96563809D01*
X131087619Y-96659047D01*
X130420952Y-97087619D02*
X129659047Y-97087619D01*
X129420952Y-96992380D02*
X129420952Y-95992380D01*
X129040000Y-95992380D01*
X128944761Y-96040000D01*
X128897142Y-96087619D01*
X128849523Y-96182857D01*
X128849523Y-96325714D01*
X128897142Y-96420952D01*
X128944761Y-96468571D01*
X129040000Y-96516190D01*
X129420952Y-96516190D01*
X128278095Y-96992380D02*
X128373333Y-96944761D01*
X128420952Y-96897142D01*
X128468571Y-96801904D01*
X128468571Y-96516190D01*
X128420952Y-96420952D01*
X128373333Y-96373333D01*
X128278095Y-96325714D01*
X128135238Y-96325714D01*
X128040000Y-96373333D01*
X127992380Y-96420952D01*
X127944761Y-96516190D01*
X127944761Y-96801904D01*
X127992380Y-96897142D01*
X128040000Y-96944761D01*
X128135238Y-96992380D01*
X128278095Y-96992380D01*
X127659047Y-96325714D02*
X127278095Y-96325714D01*
X127516190Y-95992380D02*
X127516190Y-96849523D01*
X127468571Y-96944761D01*
X127373333Y-96992380D01*
X127278095Y-96992380D01*
X126420952Y-96992380D02*
X126992380Y-96992380D01*
X126706666Y-96992380D02*
X126706666Y-95992380D01*
X126801904Y-96135238D01*
X126897142Y-96230476D01*
X126992380Y-96278095D01*
X117611428Y-118992380D02*
X117611428Y-117992380D01*
X117278095Y-118706666D01*
X116944761Y-117992380D01*
X116944761Y-118992380D01*
X116468571Y-118992380D02*
X116468571Y-118325714D01*
X116468571Y-117992380D02*
X116516190Y-118040000D01*
X116468571Y-118087619D01*
X116420952Y-118040000D01*
X116468571Y-117992380D01*
X116468571Y-118087619D01*
X116087619Y-118992380D02*
X115563809Y-118325714D01*
X116087619Y-118325714D02*
X115563809Y-118992380D01*
X115420952Y-119087619D02*
X114659047Y-119087619D01*
X114420952Y-118992380D02*
X114420952Y-117992380D01*
X114040000Y-117992380D01*
X113944761Y-118040000D01*
X113897142Y-118087619D01*
X113849523Y-118182857D01*
X113849523Y-118325714D01*
X113897142Y-118420952D01*
X113944761Y-118468571D01*
X114040000Y-118516190D01*
X114420952Y-118516190D01*
X113278095Y-118992380D02*
X113373333Y-118944761D01*
X113420952Y-118897142D01*
X113468571Y-118801904D01*
X113468571Y-118516190D01*
X113420952Y-118420952D01*
X113373333Y-118373333D01*
X113278095Y-118325714D01*
X113135238Y-118325714D01*
X113040000Y-118373333D01*
X112992380Y-118420952D01*
X112944761Y-118516190D01*
X112944761Y-118801904D01*
X112992380Y-118897142D01*
X113040000Y-118944761D01*
X113135238Y-118992380D01*
X113278095Y-118992380D01*
X112659047Y-118325714D02*
X112278095Y-118325714D01*
X112516190Y-117992380D02*
X112516190Y-118849523D01*
X112468571Y-118944761D01*
X112373333Y-118992380D01*
X112278095Y-118992380D01*
X111420952Y-118992380D02*
X111992380Y-118992380D01*
X111706666Y-118992380D02*
X111706666Y-117992380D01*
X111801904Y-118135238D01*
X111897142Y-118230476D01*
X111992380Y-118278095D01*
X123761904Y-158786666D02*
X123285714Y-158786666D01*
X123857142Y-159072380D02*
X123523809Y-158072380D01*
X123190476Y-159072380D01*
X122428571Y-158405714D02*
X122428571Y-159072380D01*
X122857142Y-158405714D02*
X122857142Y-158929523D01*
X122809523Y-159024761D01*
X122714285Y-159072380D01*
X122571428Y-159072380D01*
X122476190Y-159024761D01*
X122428571Y-158977142D01*
X121523809Y-159072380D02*
X121523809Y-158072380D01*
X121523809Y-159024761D02*
X121619047Y-159072380D01*
X121809523Y-159072380D01*
X121904761Y-159024761D01*
X121952380Y-158977142D01*
X122000000Y-158881904D01*
X122000000Y-158596190D01*
X121952380Y-158500952D01*
X121904761Y-158453333D01*
X121809523Y-158405714D01*
X121619047Y-158405714D01*
X121523809Y-158453333D01*
X121047619Y-159072380D02*
X121047619Y-158405714D01*
X121047619Y-158072380D02*
X121095238Y-158120000D01*
X121047619Y-158167619D01*
X121000000Y-158120000D01*
X121047619Y-158072380D01*
X121047619Y-158167619D01*
X120428571Y-159072380D02*
X120523809Y-159024761D01*
X120571428Y-158977142D01*
X120619047Y-158881904D01*
X120619047Y-158596190D01*
X120571428Y-158500952D01*
X120523809Y-158453333D01*
X120428571Y-158405714D01*
X120285714Y-158405714D01*
X120190476Y-158453333D01*
X120142857Y-158500952D01*
X120095238Y-158596190D01*
X120095238Y-158881904D01*
X120142857Y-158977142D01*
X120190476Y-159024761D01*
X120285714Y-159072380D01*
X120428571Y-159072380D01*
X119904761Y-159167619D02*
X119142857Y-159167619D01*
X118714285Y-158072380D02*
X118523809Y-158072380D01*
X118428571Y-158120000D01*
X118333333Y-158215238D01*
X118285714Y-158405714D01*
X118285714Y-158739047D01*
X118333333Y-158929523D01*
X118428571Y-159024761D01*
X118523809Y-159072380D01*
X118714285Y-159072380D01*
X118809523Y-159024761D01*
X118904761Y-158929523D01*
X118952380Y-158739047D01*
X118952380Y-158405714D01*
X118904761Y-158215238D01*
X118809523Y-158120000D01*
X118714285Y-158072380D01*
X117428571Y-158405714D02*
X117428571Y-159072380D01*
X117857142Y-158405714D02*
X117857142Y-158929523D01*
X117809523Y-159024761D01*
X117714285Y-159072380D01*
X117571428Y-159072380D01*
X117476190Y-159024761D01*
X117428571Y-158977142D01*
X117095238Y-158405714D02*
X116714285Y-158405714D01*
X116952380Y-158072380D02*
X116952380Y-158929523D01*
X116904761Y-159024761D01*
X116809523Y-159072380D01*
X116714285Y-159072380D01*
X116619047Y-159167619D02*
X115857142Y-159167619D01*
X115142857Y-159072380D02*
X115619047Y-159072380D01*
X115619047Y-158072380D01*
X144285714Y-158786666D02*
X143809523Y-158786666D01*
X144380952Y-159072380D02*
X144047619Y-158072380D01*
X143714285Y-159072380D01*
X142952380Y-158405714D02*
X142952380Y-159072380D01*
X143380952Y-158405714D02*
X143380952Y-158929523D01*
X143333333Y-159024761D01*
X143238095Y-159072380D01*
X143095238Y-159072380D01*
X143000000Y-159024761D01*
X142952380Y-158977142D01*
X142047619Y-159072380D02*
X142047619Y-158072380D01*
X142047619Y-159024761D02*
X142142857Y-159072380D01*
X142333333Y-159072380D01*
X142428571Y-159024761D01*
X142476190Y-158977142D01*
X142523809Y-158881904D01*
X142523809Y-158596190D01*
X142476190Y-158500952D01*
X142428571Y-158453333D01*
X142333333Y-158405714D01*
X142142857Y-158405714D01*
X142047619Y-158453333D01*
X141571428Y-159072380D02*
X141571428Y-158405714D01*
X141571428Y-158072380D02*
X141619047Y-158120000D01*
X141571428Y-158167619D01*
X141523809Y-158120000D01*
X141571428Y-158072380D01*
X141571428Y-158167619D01*
X140952380Y-159072380D02*
X141047619Y-159024761D01*
X141095238Y-158977142D01*
X141142857Y-158881904D01*
X141142857Y-158596190D01*
X141095238Y-158500952D01*
X141047619Y-158453333D01*
X140952380Y-158405714D01*
X140809523Y-158405714D01*
X140714285Y-158453333D01*
X140666666Y-158500952D01*
X140619047Y-158596190D01*
X140619047Y-158881904D01*
X140666666Y-158977142D01*
X140714285Y-159024761D01*
X140809523Y-159072380D01*
X140952380Y-159072380D01*
X140428571Y-159167619D02*
X139666666Y-159167619D01*
X139428571Y-159072380D02*
X139428571Y-158072380D01*
X138952380Y-158405714D02*
X138952380Y-159072380D01*
X138952380Y-158500952D02*
X138904761Y-158453333D01*
X138809523Y-158405714D01*
X138666666Y-158405714D01*
X138571428Y-158453333D01*
X138523809Y-158548571D01*
X138523809Y-159072380D01*
X138285714Y-159167619D02*
X137523809Y-159167619D01*
X136714285Y-159072380D02*
X137047619Y-158596190D01*
X137285714Y-159072380D02*
X137285714Y-158072380D01*
X136904761Y-158072380D01*
X136809523Y-158120000D01*
X136761904Y-158167619D01*
X136714285Y-158262857D01*
X136714285Y-158405714D01*
X136761904Y-158500952D01*
X136809523Y-158548571D01*
X136904761Y-158596190D01*
X137285714Y-158596190D01*
X131238095Y-141977142D02*
X131285714Y-142024761D01*
X131428571Y-142072380D01*
X131523809Y-142072380D01*
X131666666Y-142024761D01*
X131761904Y-141929523D01*
X131809523Y-141834285D01*
X131857142Y-141643809D01*
X131857142Y-141500952D01*
X131809523Y-141310476D01*
X131761904Y-141215238D01*
X131666666Y-141120000D01*
X131523809Y-141072380D01*
X131428571Y-141072380D01*
X131285714Y-141120000D01*
X131238095Y-141167619D01*
X130666666Y-142072380D02*
X130761904Y-142024761D01*
X130809523Y-141929523D01*
X130809523Y-141072380D01*
X130142857Y-142072380D02*
X130238095Y-142024761D01*
X130285714Y-141977142D01*
X130333333Y-141881904D01*
X130333333Y-141596190D01*
X130285714Y-141500952D01*
X130238095Y-141453333D01*
X130142857Y-141405714D01*
X130000000Y-141405714D01*
X129904761Y-141453333D01*
X129857142Y-141500952D01*
X129809523Y-141596190D01*
X129809523Y-141881904D01*
X129857142Y-141977142D01*
X129904761Y-142024761D01*
X130000000Y-142072380D01*
X130142857Y-142072380D01*
X128952380Y-142024761D02*
X129047619Y-142072380D01*
X129238095Y-142072380D01*
X129333333Y-142024761D01*
X129380952Y-141977142D01*
X129428571Y-141881904D01*
X129428571Y-141596190D01*
X129380952Y-141500952D01*
X129333333Y-141453333D01*
X129238095Y-141405714D01*
X129047619Y-141405714D01*
X128952380Y-141453333D01*
X128523809Y-142072380D02*
X128523809Y-141072380D01*
X128428571Y-141691428D02*
X128142857Y-142072380D01*
X128142857Y-141405714D02*
X128523809Y-141786666D01*
X154880952Y-142072380D02*
X154880952Y-141072380D01*
X154642857Y-141072380D01*
X154500000Y-141120000D01*
X154404761Y-141215238D01*
X154357142Y-141310476D01*
X154309523Y-141500952D01*
X154309523Y-141643809D01*
X154357142Y-141834285D01*
X154404761Y-141929523D01*
X154500000Y-142024761D01*
X154642857Y-142072380D01*
X154880952Y-142072380D01*
X153500000Y-142024761D02*
X153595238Y-142072380D01*
X153785714Y-142072380D01*
X153880952Y-142024761D01*
X153928571Y-141929523D01*
X153928571Y-141548571D01*
X153880952Y-141453333D01*
X153785714Y-141405714D01*
X153595238Y-141405714D01*
X153500000Y-141453333D01*
X153452380Y-141548571D01*
X153452380Y-141643809D01*
X153928571Y-141739047D01*
X152880952Y-142072380D02*
X152976190Y-142024761D01*
X153023809Y-141929523D01*
X153023809Y-141072380D01*
X152071428Y-142072380D02*
X152071428Y-141548571D01*
X152119047Y-141453333D01*
X152214285Y-141405714D01*
X152404761Y-141405714D01*
X152500000Y-141453333D01*
X152071428Y-142024761D02*
X152166666Y-142072380D01*
X152404761Y-142072380D01*
X152500000Y-142024761D01*
X152547619Y-141929523D01*
X152547619Y-141834285D01*
X152500000Y-141739047D01*
X152404761Y-141691428D01*
X152166666Y-141691428D01*
X152071428Y-141643809D01*
X151690476Y-141405714D02*
X151452380Y-142072380D01*
X151214285Y-141405714D02*
X151452380Y-142072380D01*
X151547619Y-142310476D01*
X151595238Y-142358095D01*
X151690476Y-142405714D01*
X151071428Y-142167619D02*
X150309523Y-142167619D01*
X149500000Y-141977142D02*
X149547619Y-142024761D01*
X149690476Y-142072380D01*
X149785714Y-142072380D01*
X149928571Y-142024761D01*
X150023809Y-141929523D01*
X150071428Y-141834285D01*
X150119047Y-141643809D01*
X150119047Y-141500952D01*
X150071428Y-141310476D01*
X150023809Y-141215238D01*
X149928571Y-141120000D01*
X149785714Y-141072380D01*
X149690476Y-141072380D01*
X149547619Y-141120000D01*
X149500000Y-141167619D01*
X149214285Y-141072380D02*
X148880952Y-142072380D01*
X148547619Y-141072380D01*
X148452380Y-142167619D02*
X147690476Y-142167619D01*
X146976190Y-142072380D02*
X147452380Y-142072380D01*
X147452380Y-141072380D01*
X154690476Y-158786666D02*
X154214285Y-158786666D01*
X154785714Y-159072380D02*
X154452380Y-158072380D01*
X154119047Y-159072380D01*
X153357142Y-158405714D02*
X153357142Y-159072380D01*
X153785714Y-158405714D02*
X153785714Y-158929523D01*
X153738095Y-159024761D01*
X153642857Y-159072380D01*
X153500000Y-159072380D01*
X153404761Y-159024761D01*
X153357142Y-158977142D01*
X152452380Y-159072380D02*
X152452380Y-158072380D01*
X152452380Y-159024761D02*
X152547619Y-159072380D01*
X152738095Y-159072380D01*
X152833333Y-159024761D01*
X152880952Y-158977142D01*
X152928571Y-158881904D01*
X152928571Y-158596190D01*
X152880952Y-158500952D01*
X152833333Y-158453333D01*
X152738095Y-158405714D01*
X152547619Y-158405714D01*
X152452380Y-158453333D01*
X151976190Y-159072380D02*
X151976190Y-158405714D01*
X151976190Y-158072380D02*
X152023809Y-158120000D01*
X151976190Y-158167619D01*
X151928571Y-158120000D01*
X151976190Y-158072380D01*
X151976190Y-158167619D01*
X151357142Y-159072380D02*
X151452380Y-159024761D01*
X151500000Y-158977142D01*
X151547619Y-158881904D01*
X151547619Y-158596190D01*
X151500000Y-158500952D01*
X151452380Y-158453333D01*
X151357142Y-158405714D01*
X151214285Y-158405714D01*
X151119047Y-158453333D01*
X151071428Y-158500952D01*
X151023809Y-158596190D01*
X151023809Y-158881904D01*
X151071428Y-158977142D01*
X151119047Y-159024761D01*
X151214285Y-159072380D01*
X151357142Y-159072380D01*
X150833333Y-159167619D02*
X150071428Y-159167619D01*
X149833333Y-159072380D02*
X149833333Y-158072380D01*
X149357142Y-158405714D02*
X149357142Y-159072380D01*
X149357142Y-158500952D02*
X149309523Y-158453333D01*
X149214285Y-158405714D01*
X149071428Y-158405714D01*
X148976190Y-158453333D01*
X148928571Y-158548571D01*
X148928571Y-159072380D01*
X148690476Y-159167619D02*
X147928571Y-159167619D01*
X147214285Y-159072380D02*
X147690476Y-159072380D01*
X147690476Y-158072380D01*
X106008095Y-57412380D02*
X106008095Y-56412380D01*
X105770000Y-56412380D01*
X105627142Y-56460000D01*
X105531904Y-56555238D01*
X105484285Y-56650476D01*
X105436666Y-56840952D01*
X105436666Y-56983809D01*
X105484285Y-57174285D01*
X105531904Y-57269523D01*
X105627142Y-57364761D01*
X105770000Y-57412380D01*
X106008095Y-57412380D01*
X105055714Y-56507619D02*
X105008095Y-56460000D01*
X104912857Y-56412380D01*
X104674761Y-56412380D01*
X104579523Y-56460000D01*
X104531904Y-56507619D01*
X104484285Y-56602857D01*
X104484285Y-56698095D01*
X104531904Y-56840952D01*
X105103333Y-57412380D01*
X104484285Y-57412380D01*
X155458095Y-57412380D02*
X155458095Y-56412380D01*
X155220000Y-56412380D01*
X155077142Y-56460000D01*
X154981904Y-56555238D01*
X154934285Y-56650476D01*
X154886666Y-56840952D01*
X154886666Y-56983809D01*
X154934285Y-57174285D01*
X154981904Y-57269523D01*
X155077142Y-57364761D01*
X155220000Y-57412380D01*
X155458095Y-57412380D01*
X153934285Y-57412380D02*
X154505714Y-57412380D01*
X154220000Y-57412380D02*
X154220000Y-56412380D01*
X154315238Y-56555238D01*
X154410476Y-56650476D01*
X154505714Y-56698095D01*
M02*
