G04 #@! TF.GenerationSoftware,KiCad,Pcbnew,(5.1.5)-3*
G04 #@! TF.CreationDate,2020-10-12T14:36:57+01:00*
G04 #@! TF.ProjectId,Retrospector_Controls,52657472-6f73-4706-9563-746f725f436f,rev?*
G04 #@! TF.SameCoordinates,Original*
G04 #@! TF.FileFunction,Copper,L2,Bot*
G04 #@! TF.FilePolarity,Positive*
%FSLAX46Y46*%
G04 Gerber Fmt 4.6, Leading zero omitted, Abs format (unit mm)*
G04 Created by KiCad (PCBNEW (5.1.5)-3) date 2020-10-12 14:36:57*
%MOMM*%
%LPD*%
G04 APERTURE LIST*
%ADD10R,2.500000X1.000000*%
%ADD11C,2.000000*%
%ADD12O,2.500000X1.500000*%
%ADD13R,2.500000X1.500000*%
%ADD14C,4.000000*%
%ADD15C,1.800000*%
%ADD16R,1.700000X1.700000*%
%ADD17O,1.700000X1.700000*%
%ADD18R,1.800000X1.800000*%
%ADD19C,0.800000*%
%ADD20C,0.400000*%
%ADD21C,0.254000*%
G04 APERTURE END LIST*
D10*
X109000000Y-144520000D03*
X109000000Y-147620000D03*
X109000000Y-155920000D03*
X119500000Y-127520000D03*
X119500000Y-130620000D03*
X119500000Y-138920000D03*
X140500000Y-127520000D03*
X140500000Y-130620000D03*
X140500000Y-138920000D03*
D11*
X126750000Y-106250000D03*
X126750000Y-110750000D03*
X133250000Y-106250000D03*
X133250000Y-110750000D03*
D10*
X109000000Y-127520000D03*
X109000000Y-130620000D03*
X109000000Y-138920000D03*
D12*
X113000000Y-89027800D03*
X113000000Y-86487800D03*
D13*
X113000000Y-83947800D03*
D12*
X147000000Y-83920000D03*
X147000000Y-86460000D03*
D13*
X147000000Y-89000000D03*
D14*
X111600000Y-65000000D03*
X120400000Y-65000000D03*
D15*
X113500000Y-72000000D03*
X116000000Y-72000000D03*
X118500000Y-72000000D03*
D14*
X139600000Y-65000000D03*
X148400000Y-65000000D03*
D15*
X141500000Y-72000000D03*
X144000000Y-72000000D03*
X146500000Y-72000000D03*
D14*
X141100000Y-109000000D03*
X149900000Y-109000000D03*
D15*
X143000000Y-116000000D03*
X145500000Y-116000000D03*
X148000000Y-116000000D03*
D14*
X125600000Y-87000000D03*
X134400000Y-87000000D03*
D15*
X127500000Y-94000000D03*
X130000000Y-94000000D03*
X132500000Y-94000000D03*
D14*
X110100000Y-109000000D03*
X118900000Y-109000000D03*
D15*
X112000000Y-116000000D03*
X114500000Y-116000000D03*
X117000000Y-116000000D03*
D10*
X119500000Y-144520000D03*
X119500000Y-147620000D03*
X119500000Y-155920000D03*
X140500000Y-144520000D03*
X140500000Y-147620000D03*
X140500000Y-155920000D03*
X130000000Y-127520000D03*
X130000000Y-130620000D03*
X130000000Y-138920000D03*
D16*
X157500000Y-130000000D03*
D17*
X157500000Y-132540000D03*
X157500000Y-135080000D03*
X157500000Y-137620000D03*
X157500000Y-140160000D03*
X157500000Y-142700000D03*
X157500000Y-145240000D03*
X157500000Y-147780000D03*
D16*
X157500000Y-63500000D03*
D17*
X157500000Y-66040000D03*
X157500000Y-68580000D03*
X157500000Y-71120000D03*
X157500000Y-73660000D03*
X157500000Y-76200000D03*
X157500000Y-78740000D03*
X157500000Y-81280000D03*
D16*
X102500000Y-130000000D03*
D17*
X102500000Y-132540000D03*
X102500000Y-135080000D03*
X102500000Y-137620000D03*
X102500000Y-140160000D03*
X102500000Y-142700000D03*
X102500000Y-145240000D03*
X102500000Y-147780000D03*
D16*
X102500000Y-63500000D03*
D17*
X102500000Y-66040000D03*
X102500000Y-68580000D03*
X102500000Y-71120000D03*
X102500000Y-73660000D03*
X102500000Y-76200000D03*
X102500000Y-78740000D03*
X102500000Y-81280000D03*
D10*
X151000000Y-127520000D03*
X151000000Y-130620000D03*
X151000000Y-138920000D03*
X151000000Y-144520000D03*
X151000000Y-147620000D03*
X151000000Y-155920000D03*
D18*
X104000000Y-54000000D03*
D15*
X106540000Y-54000000D03*
D18*
X153450000Y-54000000D03*
D15*
X155990000Y-54000000D03*
D19*
X102500000Y-125700000D03*
X117000000Y-101200000D03*
X154500000Y-71800000D03*
X106200000Y-77400000D03*
X113400000Y-125900000D03*
D20*
X112000000Y-116200000D02*
X112000000Y-116000000D01*
X102500000Y-125700000D02*
X112000000Y-116200000D01*
X111000000Y-72000000D02*
X102500000Y-63500000D01*
X114000000Y-72000000D02*
X111000000Y-72000000D01*
X113300001Y-114699999D02*
X112000000Y-116000000D01*
X141699999Y-114699999D02*
X113300001Y-114699999D01*
X143000000Y-116000000D02*
X141699999Y-114699999D01*
X141500000Y-72000000D02*
X141500000Y-76347998D01*
X127500000Y-90347998D02*
X127500000Y-94000000D01*
X141500000Y-76347998D02*
X127500000Y-90347998D01*
X100500010Y-80739990D02*
X102500000Y-78740000D01*
X100500010Y-84700010D02*
X100500010Y-80739990D01*
X117000000Y-101200000D02*
X100500010Y-84700010D01*
X121150000Y-155920000D02*
X119500000Y-155920000D01*
X157500000Y-71120000D02*
X156249999Y-72370001D01*
X156249999Y-72370001D02*
X156249999Y-136140003D01*
X156249999Y-136140003D02*
X145670003Y-146719999D01*
X145670003Y-146719999D02*
X130350001Y-146719999D01*
X130350001Y-146719999D02*
X121150000Y-155920000D01*
X154500000Y-132942002D02*
X147642002Y-139800000D01*
X154500000Y-71800000D02*
X154500000Y-132942002D01*
X113570000Y-153000000D02*
X122400000Y-153000000D01*
X110650000Y-155920000D02*
X113570000Y-153000000D01*
X109000000Y-155920000D02*
X110650000Y-155920000D01*
X147642002Y-139848000D02*
X145390002Y-142100000D01*
X147642002Y-139800000D02*
X147642002Y-139848000D01*
X133300000Y-142100000D02*
X122400000Y-153000000D01*
X145390002Y-142100000D02*
X133300000Y-142100000D01*
X130000000Y-139820000D02*
X130000000Y-138920000D01*
X127120000Y-142700000D02*
X130000000Y-139820000D01*
X102500000Y-142700000D02*
X127120000Y-142700000D01*
X102500000Y-73660000D02*
X106200000Y-77360000D01*
X106200000Y-77360000D02*
X106200000Y-77400000D01*
X101249999Y-138909999D02*
X102500000Y-140160000D01*
X144000000Y-84424002D02*
X123324003Y-105099999D01*
X144000000Y-72000000D02*
X144000000Y-84424002D01*
X123324003Y-105099999D02*
X119247999Y-105099999D01*
X119247999Y-105099999D02*
X101249999Y-123097999D01*
X101249999Y-123097999D02*
X101249999Y-138909999D01*
X113400000Y-136170000D02*
X113400000Y-125900000D01*
X109000000Y-138920000D02*
X110650000Y-138920000D01*
X110650000Y-138920000D02*
X113400000Y-136170000D01*
X103750001Y-126749999D02*
X114500000Y-116000000D01*
X103750001Y-131289999D02*
X103750001Y-126749999D01*
X102500000Y-132540000D02*
X103750001Y-131289999D01*
X138850000Y-138920000D02*
X140500000Y-138920000D01*
X102500000Y-137620000D02*
X105300011Y-140420011D01*
X123780001Y-138019999D02*
X137949999Y-138019999D01*
X137949999Y-138019999D02*
X138850000Y-138920000D01*
X105300011Y-140420011D02*
X121379989Y-140420011D01*
X121379989Y-140420011D02*
X123780001Y-138019999D01*
X107240001Y-139820001D02*
X102500000Y-135080000D01*
X116122001Y-139820001D02*
X107240001Y-139820001D01*
X127522001Y-128420001D02*
X116122001Y-139820001D01*
X133079999Y-128420001D02*
X127522001Y-128420001D01*
X145500000Y-116000000D02*
X133079999Y-128420001D01*
X115317920Y-95300001D02*
X102500000Y-82482081D01*
X128699999Y-95300001D02*
X115317920Y-95300001D01*
X102500000Y-82482081D02*
X102500000Y-81280000D01*
X130000000Y-94000000D02*
X128699999Y-95300001D01*
D21*
G36*
X159265001Y-159265000D02*
G01*
X100735000Y-159265000D01*
X100735000Y-155420000D01*
X107111928Y-155420000D01*
X107111928Y-156420000D01*
X107124188Y-156544482D01*
X107160498Y-156664180D01*
X107219463Y-156774494D01*
X107298815Y-156871185D01*
X107395506Y-156950537D01*
X107505820Y-157009502D01*
X107625518Y-157045812D01*
X107750000Y-157058072D01*
X110250000Y-157058072D01*
X110374482Y-157045812D01*
X110494180Y-157009502D01*
X110604494Y-156950537D01*
X110701185Y-156871185D01*
X110780537Y-156774494D01*
X110796511Y-156744610D01*
X110813689Y-156742918D01*
X110971087Y-156695172D01*
X111116146Y-156617636D01*
X111243291Y-156513291D01*
X111269446Y-156481421D01*
X113915869Y-153835000D01*
X122054133Y-153835000D01*
X121036183Y-154852950D01*
X120994180Y-154830498D01*
X120874482Y-154794188D01*
X120750000Y-154781928D01*
X118250000Y-154781928D01*
X118125518Y-154794188D01*
X118005820Y-154830498D01*
X117895506Y-154889463D01*
X117798815Y-154968815D01*
X117719463Y-155065506D01*
X117660498Y-155175820D01*
X117624188Y-155295518D01*
X117611928Y-155420000D01*
X117611928Y-156420000D01*
X117624188Y-156544482D01*
X117660498Y-156664180D01*
X117719463Y-156774494D01*
X117798815Y-156871185D01*
X117895506Y-156950537D01*
X118005820Y-157009502D01*
X118125518Y-157045812D01*
X118250000Y-157058072D01*
X120750000Y-157058072D01*
X120874482Y-157045812D01*
X120994180Y-157009502D01*
X121104494Y-156950537D01*
X121201185Y-156871185D01*
X121280537Y-156774494D01*
X121296511Y-156744610D01*
X121313689Y-156742918D01*
X121471087Y-156695172D01*
X121616146Y-156617636D01*
X121743291Y-156513291D01*
X121769446Y-156481421D01*
X122830867Y-155420000D01*
X138611928Y-155420000D01*
X138611928Y-156420000D01*
X138624188Y-156544482D01*
X138660498Y-156664180D01*
X138719463Y-156774494D01*
X138798815Y-156871185D01*
X138895506Y-156950537D01*
X139005820Y-157009502D01*
X139125518Y-157045812D01*
X139250000Y-157058072D01*
X141750000Y-157058072D01*
X141874482Y-157045812D01*
X141994180Y-157009502D01*
X142104494Y-156950537D01*
X142201185Y-156871185D01*
X142280537Y-156774494D01*
X142339502Y-156664180D01*
X142375812Y-156544482D01*
X142388072Y-156420000D01*
X142388072Y-155420000D01*
X149111928Y-155420000D01*
X149111928Y-156420000D01*
X149124188Y-156544482D01*
X149160498Y-156664180D01*
X149219463Y-156774494D01*
X149298815Y-156871185D01*
X149395506Y-156950537D01*
X149505820Y-157009502D01*
X149625518Y-157045812D01*
X149750000Y-157058072D01*
X152250000Y-157058072D01*
X152374482Y-157045812D01*
X152494180Y-157009502D01*
X152604494Y-156950537D01*
X152701185Y-156871185D01*
X152780537Y-156774494D01*
X152839502Y-156664180D01*
X152875812Y-156544482D01*
X152888072Y-156420000D01*
X152888072Y-155420000D01*
X152875812Y-155295518D01*
X152839502Y-155175820D01*
X152780537Y-155065506D01*
X152701185Y-154968815D01*
X152604494Y-154889463D01*
X152494180Y-154830498D01*
X152374482Y-154794188D01*
X152250000Y-154781928D01*
X149750000Y-154781928D01*
X149625518Y-154794188D01*
X149505820Y-154830498D01*
X149395506Y-154889463D01*
X149298815Y-154968815D01*
X149219463Y-155065506D01*
X149160498Y-155175820D01*
X149124188Y-155295518D01*
X149111928Y-155420000D01*
X142388072Y-155420000D01*
X142375812Y-155295518D01*
X142339502Y-155175820D01*
X142280537Y-155065506D01*
X142201185Y-154968815D01*
X142104494Y-154889463D01*
X141994180Y-154830498D01*
X141874482Y-154794188D01*
X141750000Y-154781928D01*
X139250000Y-154781928D01*
X139125518Y-154794188D01*
X139005820Y-154830498D01*
X138895506Y-154889463D01*
X138798815Y-154968815D01*
X138719463Y-155065506D01*
X138660498Y-155175820D01*
X138624188Y-155295518D01*
X138611928Y-155420000D01*
X122830867Y-155420000D01*
X127436523Y-150814344D01*
X138615000Y-150814344D01*
X138615000Y-151185656D01*
X138687439Y-151549834D01*
X138829534Y-151892882D01*
X139035825Y-152201618D01*
X139298382Y-152464175D01*
X139607118Y-152670466D01*
X139950166Y-152812561D01*
X140314344Y-152885000D01*
X140685656Y-152885000D01*
X141049834Y-152812561D01*
X141392882Y-152670466D01*
X141701618Y-152464175D01*
X141964175Y-152201618D01*
X142170466Y-151892882D01*
X142312561Y-151549834D01*
X142385000Y-151185656D01*
X142385000Y-150814344D01*
X149115000Y-150814344D01*
X149115000Y-151185656D01*
X149187439Y-151549834D01*
X149329534Y-151892882D01*
X149535825Y-152201618D01*
X149798382Y-152464175D01*
X150107118Y-152670466D01*
X150450166Y-152812561D01*
X150814344Y-152885000D01*
X151185656Y-152885000D01*
X151549834Y-152812561D01*
X151892882Y-152670466D01*
X152201618Y-152464175D01*
X152464175Y-152201618D01*
X152670466Y-151892882D01*
X152812561Y-151549834D01*
X152885000Y-151185656D01*
X152885000Y-150814344D01*
X152812561Y-150450166D01*
X152670466Y-150107118D01*
X152464175Y-149798382D01*
X152201618Y-149535825D01*
X151892882Y-149329534D01*
X151549834Y-149187439D01*
X151185656Y-149115000D01*
X150814344Y-149115000D01*
X150450166Y-149187439D01*
X150107118Y-149329534D01*
X149798382Y-149535825D01*
X149535825Y-149798382D01*
X149329534Y-150107118D01*
X149187439Y-150450166D01*
X149115000Y-150814344D01*
X142385000Y-150814344D01*
X142312561Y-150450166D01*
X142170466Y-150107118D01*
X141964175Y-149798382D01*
X141701618Y-149535825D01*
X141392882Y-149329534D01*
X141049834Y-149187439D01*
X140685656Y-149115000D01*
X140314344Y-149115000D01*
X139950166Y-149187439D01*
X139607118Y-149329534D01*
X139298382Y-149535825D01*
X139035825Y-149798382D01*
X138829534Y-150107118D01*
X138687439Y-150450166D01*
X138615000Y-150814344D01*
X127436523Y-150814344D01*
X130695869Y-147554999D01*
X138611928Y-147554999D01*
X138611928Y-148120000D01*
X138624188Y-148244482D01*
X138660498Y-148364180D01*
X138719463Y-148474494D01*
X138798815Y-148571185D01*
X138895506Y-148650537D01*
X139005820Y-148709502D01*
X139125518Y-148745812D01*
X139250000Y-148758072D01*
X141750000Y-148758072D01*
X141874482Y-148745812D01*
X141994180Y-148709502D01*
X142104494Y-148650537D01*
X142201185Y-148571185D01*
X142280537Y-148474494D01*
X142339502Y-148364180D01*
X142375812Y-148244482D01*
X142388072Y-148120000D01*
X149111928Y-148120000D01*
X149124188Y-148244482D01*
X149160498Y-148364180D01*
X149219463Y-148474494D01*
X149298815Y-148571185D01*
X149395506Y-148650537D01*
X149505820Y-148709502D01*
X149625518Y-148745812D01*
X149750000Y-148758072D01*
X150714250Y-148755000D01*
X150873000Y-148596250D01*
X150873000Y-147747000D01*
X151127000Y-147747000D01*
X151127000Y-148596250D01*
X151285750Y-148755000D01*
X152250000Y-148758072D01*
X152374482Y-148745812D01*
X152494180Y-148709502D01*
X152604494Y-148650537D01*
X152701185Y-148571185D01*
X152780537Y-148474494D01*
X152839502Y-148364180D01*
X152875812Y-148244482D01*
X152886408Y-148136890D01*
X156058524Y-148136890D01*
X156103175Y-148284099D01*
X156228359Y-148546920D01*
X156402412Y-148780269D01*
X156618645Y-148975178D01*
X156868748Y-149124157D01*
X157143109Y-149221481D01*
X157373000Y-149100814D01*
X157373000Y-147907000D01*
X157627000Y-147907000D01*
X157627000Y-149100814D01*
X157856891Y-149221481D01*
X158131252Y-149124157D01*
X158381355Y-148975178D01*
X158597588Y-148780269D01*
X158771641Y-148546920D01*
X158896825Y-148284099D01*
X158941476Y-148136890D01*
X158820155Y-147907000D01*
X157627000Y-147907000D01*
X157373000Y-147907000D01*
X156179845Y-147907000D01*
X156058524Y-148136890D01*
X152886408Y-148136890D01*
X152888072Y-148120000D01*
X152885000Y-147905750D01*
X152726250Y-147747000D01*
X151127000Y-147747000D01*
X150873000Y-147747000D01*
X149273750Y-147747000D01*
X149115000Y-147905750D01*
X149111928Y-148120000D01*
X142388072Y-148120000D01*
X142388072Y-147554999D01*
X145628985Y-147554999D01*
X145670003Y-147559039D01*
X145711021Y-147554999D01*
X145711022Y-147554999D01*
X145833692Y-147542917D01*
X145991090Y-147495171D01*
X146136149Y-147417635D01*
X146263294Y-147313290D01*
X146289449Y-147281420D01*
X146450869Y-147120000D01*
X149111928Y-147120000D01*
X149115000Y-147334250D01*
X149273750Y-147493000D01*
X150873000Y-147493000D01*
X150873000Y-146643750D01*
X151127000Y-146643750D01*
X151127000Y-147493000D01*
X152726250Y-147493000D01*
X152885000Y-147334250D01*
X152888072Y-147120000D01*
X152875812Y-146995518D01*
X152839502Y-146875820D01*
X152780537Y-146765506D01*
X152701185Y-146668815D01*
X152604494Y-146589463D01*
X152494180Y-146530498D01*
X152374482Y-146494188D01*
X152250000Y-146481928D01*
X151285750Y-146485000D01*
X151127000Y-146643750D01*
X150873000Y-146643750D01*
X150714250Y-146485000D01*
X149750000Y-146481928D01*
X149625518Y-146494188D01*
X149505820Y-146530498D01*
X149395506Y-146589463D01*
X149298815Y-146668815D01*
X149219463Y-146765506D01*
X149160498Y-146875820D01*
X149124188Y-146995518D01*
X149111928Y-147120000D01*
X146450869Y-147120000D01*
X148550869Y-145020000D01*
X149111928Y-145020000D01*
X149124188Y-145144482D01*
X149160498Y-145264180D01*
X149219463Y-145374494D01*
X149298815Y-145471185D01*
X149395506Y-145550537D01*
X149505820Y-145609502D01*
X149625518Y-145645812D01*
X149750000Y-145658072D01*
X150714250Y-145655000D01*
X150873000Y-145496250D01*
X150873000Y-144647000D01*
X151127000Y-144647000D01*
X151127000Y-145496250D01*
X151285750Y-145655000D01*
X152250000Y-145658072D01*
X152374482Y-145645812D01*
X152494180Y-145609502D01*
X152517775Y-145596890D01*
X156058524Y-145596890D01*
X156103175Y-145744099D01*
X156228359Y-146006920D01*
X156402412Y-146240269D01*
X156618645Y-146435178D01*
X156744255Y-146510000D01*
X156618645Y-146584822D01*
X156402412Y-146779731D01*
X156228359Y-147013080D01*
X156103175Y-147275901D01*
X156058524Y-147423110D01*
X156179845Y-147653000D01*
X157373000Y-147653000D01*
X157373000Y-145367000D01*
X157627000Y-145367000D01*
X157627000Y-147653000D01*
X158820155Y-147653000D01*
X158941476Y-147423110D01*
X158896825Y-147275901D01*
X158771641Y-147013080D01*
X158597588Y-146779731D01*
X158381355Y-146584822D01*
X158255745Y-146510000D01*
X158381355Y-146435178D01*
X158597588Y-146240269D01*
X158771641Y-146006920D01*
X158896825Y-145744099D01*
X158941476Y-145596890D01*
X158820155Y-145367000D01*
X157627000Y-145367000D01*
X157373000Y-145367000D01*
X156179845Y-145367000D01*
X156058524Y-145596890D01*
X152517775Y-145596890D01*
X152604494Y-145550537D01*
X152701185Y-145471185D01*
X152780537Y-145374494D01*
X152839502Y-145264180D01*
X152875812Y-145144482D01*
X152888072Y-145020000D01*
X152885000Y-144805750D01*
X152726250Y-144647000D01*
X151127000Y-144647000D01*
X150873000Y-144647000D01*
X149273750Y-144647000D01*
X149115000Y-144805750D01*
X149111928Y-145020000D01*
X148550869Y-145020000D01*
X149225810Y-144345060D01*
X149273750Y-144393000D01*
X150873000Y-144393000D01*
X150873000Y-143543750D01*
X151127000Y-143543750D01*
X151127000Y-144393000D01*
X152726250Y-144393000D01*
X152885000Y-144234250D01*
X152888072Y-144020000D01*
X152875812Y-143895518D01*
X152839502Y-143775820D01*
X152780537Y-143665506D01*
X152701185Y-143568815D01*
X152604494Y-143489463D01*
X152494180Y-143430498D01*
X152374482Y-143394188D01*
X152250000Y-143381928D01*
X151285750Y-143385000D01*
X151127000Y-143543750D01*
X150873000Y-143543750D01*
X150714250Y-143385000D01*
X150187548Y-143383322D01*
X156015000Y-137555871D01*
X156015000Y-137766260D01*
X156072068Y-138053158D01*
X156184010Y-138323411D01*
X156346525Y-138566632D01*
X156553368Y-138773475D01*
X156727760Y-138890000D01*
X156553368Y-139006525D01*
X156346525Y-139213368D01*
X156184010Y-139456589D01*
X156072068Y-139726842D01*
X156015000Y-140013740D01*
X156015000Y-140306260D01*
X156072068Y-140593158D01*
X156184010Y-140863411D01*
X156346525Y-141106632D01*
X156553368Y-141313475D01*
X156727760Y-141430000D01*
X156553368Y-141546525D01*
X156346525Y-141753368D01*
X156184010Y-141996589D01*
X156072068Y-142266842D01*
X156015000Y-142553740D01*
X156015000Y-142846260D01*
X156072068Y-143133158D01*
X156184010Y-143403411D01*
X156346525Y-143646632D01*
X156553368Y-143853475D01*
X156735534Y-143975195D01*
X156618645Y-144044822D01*
X156402412Y-144239731D01*
X156228359Y-144473080D01*
X156103175Y-144735901D01*
X156058524Y-144883110D01*
X156179845Y-145113000D01*
X157373000Y-145113000D01*
X157373000Y-145093000D01*
X157627000Y-145093000D01*
X157627000Y-145113000D01*
X158820155Y-145113000D01*
X158941476Y-144883110D01*
X158896825Y-144735901D01*
X158771641Y-144473080D01*
X158597588Y-144239731D01*
X158381355Y-144044822D01*
X158264466Y-143975195D01*
X158446632Y-143853475D01*
X158653475Y-143646632D01*
X158815990Y-143403411D01*
X158927932Y-143133158D01*
X158985000Y-142846260D01*
X158985000Y-142553740D01*
X158927932Y-142266842D01*
X158815990Y-141996589D01*
X158653475Y-141753368D01*
X158446632Y-141546525D01*
X158272240Y-141430000D01*
X158446632Y-141313475D01*
X158653475Y-141106632D01*
X158815990Y-140863411D01*
X158927932Y-140593158D01*
X158985000Y-140306260D01*
X158985000Y-140013740D01*
X158927932Y-139726842D01*
X158815990Y-139456589D01*
X158653475Y-139213368D01*
X158446632Y-139006525D01*
X158272240Y-138890000D01*
X158446632Y-138773475D01*
X158653475Y-138566632D01*
X158815990Y-138323411D01*
X158927932Y-138053158D01*
X158985000Y-137766260D01*
X158985000Y-137473740D01*
X158927932Y-137186842D01*
X158815990Y-136916589D01*
X158653475Y-136673368D01*
X158446632Y-136466525D01*
X158272240Y-136350000D01*
X158446632Y-136233475D01*
X158653475Y-136026632D01*
X158815990Y-135783411D01*
X158927932Y-135513158D01*
X158985000Y-135226260D01*
X158985000Y-134933740D01*
X158927932Y-134646842D01*
X158815990Y-134376589D01*
X158653475Y-134133368D01*
X158446632Y-133926525D01*
X158272240Y-133810000D01*
X158446632Y-133693475D01*
X158653475Y-133486632D01*
X158815990Y-133243411D01*
X158927932Y-132973158D01*
X158985000Y-132686260D01*
X158985000Y-132393740D01*
X158927932Y-132106842D01*
X158815990Y-131836589D01*
X158653475Y-131593368D01*
X158521620Y-131461513D01*
X158594180Y-131439502D01*
X158704494Y-131380537D01*
X158801185Y-131301185D01*
X158880537Y-131204494D01*
X158939502Y-131094180D01*
X158975812Y-130974482D01*
X158988072Y-130850000D01*
X158988072Y-129150000D01*
X158975812Y-129025518D01*
X158939502Y-128905820D01*
X158880537Y-128795506D01*
X158801185Y-128698815D01*
X158704494Y-128619463D01*
X158594180Y-128560498D01*
X158474482Y-128524188D01*
X158350000Y-128511928D01*
X157084999Y-128511928D01*
X157084999Y-82711544D01*
X157353740Y-82765000D01*
X157646260Y-82765000D01*
X157933158Y-82707932D01*
X158203411Y-82595990D01*
X158446632Y-82433475D01*
X158653475Y-82226632D01*
X158815990Y-81983411D01*
X158927932Y-81713158D01*
X158985000Y-81426260D01*
X158985000Y-81133740D01*
X158927932Y-80846842D01*
X158815990Y-80576589D01*
X158653475Y-80333368D01*
X158446632Y-80126525D01*
X158272240Y-80010000D01*
X158446632Y-79893475D01*
X158653475Y-79686632D01*
X158815990Y-79443411D01*
X158927932Y-79173158D01*
X158985000Y-78886260D01*
X158985000Y-78593740D01*
X158927932Y-78306842D01*
X158815990Y-78036589D01*
X158653475Y-77793368D01*
X158446632Y-77586525D01*
X158272240Y-77470000D01*
X158446632Y-77353475D01*
X158653475Y-77146632D01*
X158815990Y-76903411D01*
X158927932Y-76633158D01*
X158985000Y-76346260D01*
X158985000Y-76053740D01*
X158927932Y-75766842D01*
X158815990Y-75496589D01*
X158653475Y-75253368D01*
X158446632Y-75046525D01*
X158272240Y-74930000D01*
X158446632Y-74813475D01*
X158653475Y-74606632D01*
X158815990Y-74363411D01*
X158927932Y-74093158D01*
X158985000Y-73806260D01*
X158985000Y-73513740D01*
X158927932Y-73226842D01*
X158815990Y-72956589D01*
X158653475Y-72713368D01*
X158446632Y-72506525D01*
X158272240Y-72390000D01*
X158446632Y-72273475D01*
X158653475Y-72066632D01*
X158815990Y-71823411D01*
X158927932Y-71553158D01*
X158985000Y-71266260D01*
X158985000Y-70973740D01*
X158927932Y-70686842D01*
X158815990Y-70416589D01*
X158653475Y-70173368D01*
X158446632Y-69966525D01*
X158264466Y-69844805D01*
X158381355Y-69775178D01*
X158597588Y-69580269D01*
X158771641Y-69346920D01*
X158896825Y-69084099D01*
X158941476Y-68936890D01*
X158820155Y-68707000D01*
X157627000Y-68707000D01*
X157627000Y-68727000D01*
X157373000Y-68727000D01*
X157373000Y-68707000D01*
X156179845Y-68707000D01*
X156058524Y-68936890D01*
X156103175Y-69084099D01*
X156228359Y-69346920D01*
X156402412Y-69580269D01*
X156618645Y-69775178D01*
X156735534Y-69844805D01*
X156553368Y-69966525D01*
X156346525Y-70173368D01*
X156184010Y-70416589D01*
X156072068Y-70686842D01*
X156015000Y-70973740D01*
X156015000Y-71266260D01*
X156041193Y-71397940D01*
X155688578Y-71750555D01*
X155656708Y-71776710D01*
X155597533Y-71848816D01*
X155552363Y-71903856D01*
X155524102Y-71956729D01*
X155535000Y-71901939D01*
X155535000Y-71698061D01*
X155495226Y-71498102D01*
X155417205Y-71309744D01*
X155303937Y-71140226D01*
X155159774Y-70996063D01*
X154990256Y-70882795D01*
X154801898Y-70804774D01*
X154601939Y-70765000D01*
X154398061Y-70765000D01*
X154198102Y-70804774D01*
X154009744Y-70882795D01*
X153840226Y-70996063D01*
X153696063Y-71140226D01*
X153582795Y-71309744D01*
X153504774Y-71498102D01*
X153465000Y-71698061D01*
X153465000Y-71901939D01*
X153504774Y-72101898D01*
X153582795Y-72290256D01*
X153665000Y-72413285D01*
X153665001Y-132596132D01*
X152812094Y-133449039D01*
X152670466Y-133107118D01*
X152464175Y-132798382D01*
X152201618Y-132535825D01*
X151892882Y-132329534D01*
X151549834Y-132187439D01*
X151185656Y-132115000D01*
X150814344Y-132115000D01*
X150450166Y-132187439D01*
X150107118Y-132329534D01*
X149798382Y-132535825D01*
X149535825Y-132798382D01*
X149329534Y-133107118D01*
X149187439Y-133450166D01*
X149115000Y-133814344D01*
X149115000Y-134185656D01*
X149187439Y-134549834D01*
X149329534Y-134892882D01*
X149535825Y-135201618D01*
X149798382Y-135464175D01*
X150107118Y-135670466D01*
X150449040Y-135812094D01*
X147080581Y-139180554D01*
X147048711Y-139206709D01*
X146944367Y-139333854D01*
X146944366Y-139333855D01*
X146908870Y-139400263D01*
X145044135Y-141265000D01*
X133341018Y-141265000D01*
X133300000Y-141260960D01*
X133258981Y-141265000D01*
X133136311Y-141277082D01*
X132978913Y-141324828D01*
X132833854Y-141402364D01*
X132706709Y-141506709D01*
X132680563Y-141538568D01*
X122054133Y-152165000D01*
X120988642Y-152165000D01*
X121170466Y-151892882D01*
X121312561Y-151549834D01*
X121385000Y-151185656D01*
X121385000Y-150814344D01*
X121312561Y-150450166D01*
X121170466Y-150107118D01*
X120964175Y-149798382D01*
X120701618Y-149535825D01*
X120392882Y-149329534D01*
X120049834Y-149187439D01*
X119685656Y-149115000D01*
X119314344Y-149115000D01*
X118950166Y-149187439D01*
X118607118Y-149329534D01*
X118298382Y-149535825D01*
X118035825Y-149798382D01*
X117829534Y-150107118D01*
X117687439Y-150450166D01*
X117615000Y-150814344D01*
X117615000Y-151185656D01*
X117687439Y-151549834D01*
X117829534Y-151892882D01*
X118011358Y-152165000D01*
X113611018Y-152165000D01*
X113570000Y-152160960D01*
X113528982Y-152165000D01*
X113528981Y-152165000D01*
X113406311Y-152177082D01*
X113248913Y-152224828D01*
X113103854Y-152302364D01*
X112976709Y-152406709D01*
X112950563Y-152438568D01*
X110536183Y-154852950D01*
X110494180Y-154830498D01*
X110374482Y-154794188D01*
X110250000Y-154781928D01*
X107750000Y-154781928D01*
X107625518Y-154794188D01*
X107505820Y-154830498D01*
X107395506Y-154889463D01*
X107298815Y-154968815D01*
X107219463Y-155065506D01*
X107160498Y-155175820D01*
X107124188Y-155295518D01*
X107111928Y-155420000D01*
X100735000Y-155420000D01*
X100735000Y-150814344D01*
X107115000Y-150814344D01*
X107115000Y-151185656D01*
X107187439Y-151549834D01*
X107329534Y-151892882D01*
X107535825Y-152201618D01*
X107798382Y-152464175D01*
X108107118Y-152670466D01*
X108450166Y-152812561D01*
X108814344Y-152885000D01*
X109185656Y-152885000D01*
X109549834Y-152812561D01*
X109892882Y-152670466D01*
X110201618Y-152464175D01*
X110464175Y-152201618D01*
X110670466Y-151892882D01*
X110812561Y-151549834D01*
X110885000Y-151185656D01*
X110885000Y-150814344D01*
X110812561Y-150450166D01*
X110670466Y-150107118D01*
X110464175Y-149798382D01*
X110201618Y-149535825D01*
X109892882Y-149329534D01*
X109549834Y-149187439D01*
X109185656Y-149115000D01*
X108814344Y-149115000D01*
X108450166Y-149187439D01*
X108107118Y-149329534D01*
X107798382Y-149535825D01*
X107535825Y-149798382D01*
X107329534Y-150107118D01*
X107187439Y-150450166D01*
X107115000Y-150814344D01*
X100735000Y-150814344D01*
X100735000Y-147633740D01*
X101015000Y-147633740D01*
X101015000Y-147926260D01*
X101072068Y-148213158D01*
X101184010Y-148483411D01*
X101346525Y-148726632D01*
X101553368Y-148933475D01*
X101796589Y-149095990D01*
X102066842Y-149207932D01*
X102353740Y-149265000D01*
X102646260Y-149265000D01*
X102933158Y-149207932D01*
X103203411Y-149095990D01*
X103446632Y-148933475D01*
X103653475Y-148726632D01*
X103815990Y-148483411D01*
X103927932Y-148213158D01*
X103985000Y-147926260D01*
X103985000Y-147633740D01*
X103927932Y-147346842D01*
X103833972Y-147120000D01*
X107111928Y-147120000D01*
X107111928Y-148120000D01*
X107124188Y-148244482D01*
X107160498Y-148364180D01*
X107219463Y-148474494D01*
X107298815Y-148571185D01*
X107395506Y-148650537D01*
X107505820Y-148709502D01*
X107625518Y-148745812D01*
X107750000Y-148758072D01*
X110250000Y-148758072D01*
X110374482Y-148745812D01*
X110494180Y-148709502D01*
X110604494Y-148650537D01*
X110701185Y-148571185D01*
X110780537Y-148474494D01*
X110839502Y-148364180D01*
X110875812Y-148244482D01*
X110888072Y-148120000D01*
X110888072Y-147120000D01*
X117611928Y-147120000D01*
X117611928Y-148120000D01*
X117624188Y-148244482D01*
X117660498Y-148364180D01*
X117719463Y-148474494D01*
X117798815Y-148571185D01*
X117895506Y-148650537D01*
X118005820Y-148709502D01*
X118125518Y-148745812D01*
X118250000Y-148758072D01*
X120750000Y-148758072D01*
X120874482Y-148745812D01*
X120994180Y-148709502D01*
X121104494Y-148650537D01*
X121201185Y-148571185D01*
X121280537Y-148474494D01*
X121339502Y-148364180D01*
X121375812Y-148244482D01*
X121388072Y-148120000D01*
X121388072Y-147120000D01*
X121375812Y-146995518D01*
X121339502Y-146875820D01*
X121280537Y-146765506D01*
X121201185Y-146668815D01*
X121104494Y-146589463D01*
X120994180Y-146530498D01*
X120874482Y-146494188D01*
X120750000Y-146481928D01*
X118250000Y-146481928D01*
X118125518Y-146494188D01*
X118005820Y-146530498D01*
X117895506Y-146589463D01*
X117798815Y-146668815D01*
X117719463Y-146765506D01*
X117660498Y-146875820D01*
X117624188Y-146995518D01*
X117611928Y-147120000D01*
X110888072Y-147120000D01*
X110875812Y-146995518D01*
X110839502Y-146875820D01*
X110780537Y-146765506D01*
X110701185Y-146668815D01*
X110604494Y-146589463D01*
X110494180Y-146530498D01*
X110374482Y-146494188D01*
X110250000Y-146481928D01*
X107750000Y-146481928D01*
X107625518Y-146494188D01*
X107505820Y-146530498D01*
X107395506Y-146589463D01*
X107298815Y-146668815D01*
X107219463Y-146765506D01*
X107160498Y-146875820D01*
X107124188Y-146995518D01*
X107111928Y-147120000D01*
X103833972Y-147120000D01*
X103815990Y-147076589D01*
X103653475Y-146833368D01*
X103446632Y-146626525D01*
X103264466Y-146504805D01*
X103381355Y-146435178D01*
X103597588Y-146240269D01*
X103771641Y-146006920D01*
X103896825Y-145744099D01*
X103941476Y-145596890D01*
X103820155Y-145367000D01*
X102627000Y-145367000D01*
X102627000Y-145387000D01*
X102373000Y-145387000D01*
X102373000Y-145367000D01*
X101179845Y-145367000D01*
X101058524Y-145596890D01*
X101103175Y-145744099D01*
X101228359Y-146006920D01*
X101402412Y-146240269D01*
X101618645Y-146435178D01*
X101735534Y-146504805D01*
X101553368Y-146626525D01*
X101346525Y-146833368D01*
X101184010Y-147076589D01*
X101072068Y-147346842D01*
X101015000Y-147633740D01*
X100735000Y-147633740D01*
X100735000Y-139575867D01*
X101041193Y-139882060D01*
X101015000Y-140013740D01*
X101015000Y-140306260D01*
X101072068Y-140593158D01*
X101184010Y-140863411D01*
X101346525Y-141106632D01*
X101553368Y-141313475D01*
X101727760Y-141430000D01*
X101553368Y-141546525D01*
X101346525Y-141753368D01*
X101184010Y-141996589D01*
X101072068Y-142266842D01*
X101015000Y-142553740D01*
X101015000Y-142846260D01*
X101072068Y-143133158D01*
X101184010Y-143403411D01*
X101346525Y-143646632D01*
X101553368Y-143853475D01*
X101735534Y-143975195D01*
X101618645Y-144044822D01*
X101402412Y-144239731D01*
X101228359Y-144473080D01*
X101103175Y-144735901D01*
X101058524Y-144883110D01*
X101179845Y-145113000D01*
X102373000Y-145113000D01*
X102373000Y-145093000D01*
X102627000Y-145093000D01*
X102627000Y-145113000D01*
X103820155Y-145113000D01*
X103869234Y-145020000D01*
X107111928Y-145020000D01*
X107124188Y-145144482D01*
X107160498Y-145264180D01*
X107219463Y-145374494D01*
X107298815Y-145471185D01*
X107395506Y-145550537D01*
X107505820Y-145609502D01*
X107625518Y-145645812D01*
X107750000Y-145658072D01*
X108714250Y-145655000D01*
X108873000Y-145496250D01*
X108873000Y-144647000D01*
X109127000Y-144647000D01*
X109127000Y-145496250D01*
X109285750Y-145655000D01*
X110250000Y-145658072D01*
X110374482Y-145645812D01*
X110494180Y-145609502D01*
X110604494Y-145550537D01*
X110701185Y-145471185D01*
X110780537Y-145374494D01*
X110839502Y-145264180D01*
X110875812Y-145144482D01*
X110888072Y-145020000D01*
X117611928Y-145020000D01*
X117624188Y-145144482D01*
X117660498Y-145264180D01*
X117719463Y-145374494D01*
X117798815Y-145471185D01*
X117895506Y-145550537D01*
X118005820Y-145609502D01*
X118125518Y-145645812D01*
X118250000Y-145658072D01*
X119214250Y-145655000D01*
X119373000Y-145496250D01*
X119373000Y-144647000D01*
X119627000Y-144647000D01*
X119627000Y-145496250D01*
X119785750Y-145655000D01*
X120750000Y-145658072D01*
X120874482Y-145645812D01*
X120994180Y-145609502D01*
X121104494Y-145550537D01*
X121201185Y-145471185D01*
X121280537Y-145374494D01*
X121339502Y-145264180D01*
X121375812Y-145144482D01*
X121388072Y-145020000D01*
X121385000Y-144805750D01*
X121226250Y-144647000D01*
X119627000Y-144647000D01*
X119373000Y-144647000D01*
X117773750Y-144647000D01*
X117615000Y-144805750D01*
X117611928Y-145020000D01*
X110888072Y-145020000D01*
X110885000Y-144805750D01*
X110726250Y-144647000D01*
X109127000Y-144647000D01*
X108873000Y-144647000D01*
X107273750Y-144647000D01*
X107115000Y-144805750D01*
X107111928Y-145020000D01*
X103869234Y-145020000D01*
X103941476Y-144883110D01*
X103896825Y-144735901D01*
X103771641Y-144473080D01*
X103597588Y-144239731D01*
X103381355Y-144044822D01*
X103264466Y-143975195D01*
X103446632Y-143853475D01*
X103653475Y-143646632D01*
X103728065Y-143535000D01*
X107340019Y-143535000D01*
X107298815Y-143568815D01*
X107219463Y-143665506D01*
X107160498Y-143775820D01*
X107124188Y-143895518D01*
X107111928Y-144020000D01*
X107115000Y-144234250D01*
X107273750Y-144393000D01*
X108873000Y-144393000D01*
X108873000Y-144373000D01*
X109127000Y-144373000D01*
X109127000Y-144393000D01*
X110726250Y-144393000D01*
X110885000Y-144234250D01*
X110888072Y-144020000D01*
X110875812Y-143895518D01*
X110839502Y-143775820D01*
X110780537Y-143665506D01*
X110701185Y-143568815D01*
X110659981Y-143535000D01*
X117840019Y-143535000D01*
X117798815Y-143568815D01*
X117719463Y-143665506D01*
X117660498Y-143775820D01*
X117624188Y-143895518D01*
X117611928Y-144020000D01*
X117615000Y-144234250D01*
X117773750Y-144393000D01*
X119373000Y-144393000D01*
X119373000Y-144373000D01*
X119627000Y-144373000D01*
X119627000Y-144393000D01*
X121226250Y-144393000D01*
X121385000Y-144234250D01*
X121388072Y-144020000D01*
X121375812Y-143895518D01*
X121339502Y-143775820D01*
X121280537Y-143665506D01*
X121201185Y-143568815D01*
X121159981Y-143535000D01*
X127078982Y-143535000D01*
X127120000Y-143539040D01*
X127161018Y-143535000D01*
X127161019Y-143535000D01*
X127283689Y-143522918D01*
X127441087Y-143475172D01*
X127586146Y-143397636D01*
X127713291Y-143293291D01*
X127739446Y-143261421D01*
X130561429Y-140439439D01*
X130593291Y-140413291D01*
X130697636Y-140286146D01*
X130775172Y-140141087D01*
X130800354Y-140058072D01*
X131250000Y-140058072D01*
X131374482Y-140045812D01*
X131494180Y-140009502D01*
X131604494Y-139950537D01*
X131701185Y-139871185D01*
X131780537Y-139774494D01*
X131839502Y-139664180D01*
X131875812Y-139544482D01*
X131888072Y-139420000D01*
X131888072Y-138854999D01*
X137604131Y-138854999D01*
X138230563Y-139481432D01*
X138256709Y-139513291D01*
X138383854Y-139617636D01*
X138528913Y-139695172D01*
X138686311Y-139742918D01*
X138703489Y-139744610D01*
X138719463Y-139774494D01*
X138798815Y-139871185D01*
X138895506Y-139950537D01*
X139005820Y-140009502D01*
X139125518Y-140045812D01*
X139250000Y-140058072D01*
X141750000Y-140058072D01*
X141874482Y-140045812D01*
X141994180Y-140009502D01*
X142104494Y-139950537D01*
X142201185Y-139871185D01*
X142280537Y-139774494D01*
X142339502Y-139664180D01*
X142375812Y-139544482D01*
X142388072Y-139420000D01*
X142388072Y-138420000D01*
X142375812Y-138295518D01*
X142339502Y-138175820D01*
X142280537Y-138065506D01*
X142201185Y-137968815D01*
X142104494Y-137889463D01*
X141994180Y-137830498D01*
X141874482Y-137794188D01*
X141750000Y-137781928D01*
X139250000Y-137781928D01*
X139125518Y-137794188D01*
X139005820Y-137830498D01*
X138963817Y-137852949D01*
X138569444Y-137458577D01*
X138543290Y-137426708D01*
X138416145Y-137322363D01*
X138271086Y-137244827D01*
X138113688Y-137197081D01*
X137991018Y-137184999D01*
X137991017Y-137184999D01*
X137949999Y-137180959D01*
X137908981Y-137184999D01*
X123821019Y-137184999D01*
X123780001Y-137180959D01*
X123738983Y-137184999D01*
X123738982Y-137184999D01*
X123616312Y-137197081D01*
X123458914Y-137244827D01*
X123313855Y-137322363D01*
X123186710Y-137426708D01*
X123160564Y-137458567D01*
X121388072Y-139231060D01*
X121388072Y-138420000D01*
X121375812Y-138295518D01*
X121339502Y-138175820D01*
X121280537Y-138065506D01*
X121201185Y-137968815D01*
X121104494Y-137889463D01*
X120994180Y-137830498D01*
X120874482Y-137794188D01*
X120750000Y-137781928D01*
X119340941Y-137781928D01*
X123308525Y-133814344D01*
X128115000Y-133814344D01*
X128115000Y-134185656D01*
X128187439Y-134549834D01*
X128329534Y-134892882D01*
X128535825Y-135201618D01*
X128798382Y-135464175D01*
X129107118Y-135670466D01*
X129450166Y-135812561D01*
X129814344Y-135885000D01*
X130185656Y-135885000D01*
X130549834Y-135812561D01*
X130892882Y-135670466D01*
X131201618Y-135464175D01*
X131464175Y-135201618D01*
X131670466Y-134892882D01*
X131812561Y-134549834D01*
X131885000Y-134185656D01*
X131885000Y-133814344D01*
X138615000Y-133814344D01*
X138615000Y-134185656D01*
X138687439Y-134549834D01*
X138829534Y-134892882D01*
X139035825Y-135201618D01*
X139298382Y-135464175D01*
X139607118Y-135670466D01*
X139950166Y-135812561D01*
X140314344Y-135885000D01*
X140685656Y-135885000D01*
X141049834Y-135812561D01*
X141392882Y-135670466D01*
X141701618Y-135464175D01*
X141964175Y-135201618D01*
X142170466Y-134892882D01*
X142312561Y-134549834D01*
X142385000Y-134185656D01*
X142385000Y-133814344D01*
X142312561Y-133450166D01*
X142170466Y-133107118D01*
X141964175Y-132798382D01*
X141701618Y-132535825D01*
X141392882Y-132329534D01*
X141049834Y-132187439D01*
X140685656Y-132115000D01*
X140314344Y-132115000D01*
X139950166Y-132187439D01*
X139607118Y-132329534D01*
X139298382Y-132535825D01*
X139035825Y-132798382D01*
X138829534Y-133107118D01*
X138687439Y-133450166D01*
X138615000Y-133814344D01*
X131885000Y-133814344D01*
X131812561Y-133450166D01*
X131670466Y-133107118D01*
X131464175Y-132798382D01*
X131201618Y-132535825D01*
X130892882Y-132329534D01*
X130549834Y-132187439D01*
X130185656Y-132115000D01*
X129814344Y-132115000D01*
X129450166Y-132187439D01*
X129107118Y-132329534D01*
X128798382Y-132535825D01*
X128535825Y-132798382D01*
X128329534Y-133107118D01*
X128187439Y-133450166D01*
X128115000Y-133814344D01*
X123308525Y-133814344D01*
X126002870Y-131120000D01*
X128111928Y-131120000D01*
X128124188Y-131244482D01*
X128160498Y-131364180D01*
X128219463Y-131474494D01*
X128298815Y-131571185D01*
X128395506Y-131650537D01*
X128505820Y-131709502D01*
X128625518Y-131745812D01*
X128750000Y-131758072D01*
X129714250Y-131755000D01*
X129873000Y-131596250D01*
X129873000Y-130747000D01*
X130127000Y-130747000D01*
X130127000Y-131596250D01*
X130285750Y-131755000D01*
X131250000Y-131758072D01*
X131374482Y-131745812D01*
X131494180Y-131709502D01*
X131604494Y-131650537D01*
X131701185Y-131571185D01*
X131780537Y-131474494D01*
X131839502Y-131364180D01*
X131875812Y-131244482D01*
X131888072Y-131120000D01*
X138611928Y-131120000D01*
X138624188Y-131244482D01*
X138660498Y-131364180D01*
X138719463Y-131474494D01*
X138798815Y-131571185D01*
X138895506Y-131650537D01*
X139005820Y-131709502D01*
X139125518Y-131745812D01*
X139250000Y-131758072D01*
X140214250Y-131755000D01*
X140373000Y-131596250D01*
X140373000Y-130747000D01*
X140627000Y-130747000D01*
X140627000Y-131596250D01*
X140785750Y-131755000D01*
X141750000Y-131758072D01*
X141874482Y-131745812D01*
X141994180Y-131709502D01*
X142104494Y-131650537D01*
X142201185Y-131571185D01*
X142280537Y-131474494D01*
X142339502Y-131364180D01*
X142375812Y-131244482D01*
X142388072Y-131120000D01*
X149111928Y-131120000D01*
X149124188Y-131244482D01*
X149160498Y-131364180D01*
X149219463Y-131474494D01*
X149298815Y-131571185D01*
X149395506Y-131650537D01*
X149505820Y-131709502D01*
X149625518Y-131745812D01*
X149750000Y-131758072D01*
X150714250Y-131755000D01*
X150873000Y-131596250D01*
X150873000Y-130747000D01*
X151127000Y-130747000D01*
X151127000Y-131596250D01*
X151285750Y-131755000D01*
X152250000Y-131758072D01*
X152374482Y-131745812D01*
X152494180Y-131709502D01*
X152604494Y-131650537D01*
X152701185Y-131571185D01*
X152780537Y-131474494D01*
X152839502Y-131364180D01*
X152875812Y-131244482D01*
X152888072Y-131120000D01*
X152885000Y-130905750D01*
X152726250Y-130747000D01*
X151127000Y-130747000D01*
X150873000Y-130747000D01*
X149273750Y-130747000D01*
X149115000Y-130905750D01*
X149111928Y-131120000D01*
X142388072Y-131120000D01*
X142385000Y-130905750D01*
X142226250Y-130747000D01*
X140627000Y-130747000D01*
X140373000Y-130747000D01*
X138773750Y-130747000D01*
X138615000Y-130905750D01*
X138611928Y-131120000D01*
X131888072Y-131120000D01*
X131885000Y-130905750D01*
X131726250Y-130747000D01*
X130127000Y-130747000D01*
X129873000Y-130747000D01*
X128273750Y-130747000D01*
X128115000Y-130905750D01*
X128111928Y-131120000D01*
X126002870Y-131120000D01*
X127002870Y-130120000D01*
X128111928Y-130120000D01*
X128115000Y-130334250D01*
X128273750Y-130493000D01*
X129873000Y-130493000D01*
X129873000Y-129643750D01*
X130127000Y-129643750D01*
X130127000Y-130493000D01*
X131726250Y-130493000D01*
X131885000Y-130334250D01*
X131888072Y-130120000D01*
X138611928Y-130120000D01*
X138615000Y-130334250D01*
X138773750Y-130493000D01*
X140373000Y-130493000D01*
X140373000Y-129643750D01*
X140627000Y-129643750D01*
X140627000Y-130493000D01*
X142226250Y-130493000D01*
X142385000Y-130334250D01*
X142388072Y-130120000D01*
X149111928Y-130120000D01*
X149115000Y-130334250D01*
X149273750Y-130493000D01*
X150873000Y-130493000D01*
X150873000Y-129643750D01*
X151127000Y-129643750D01*
X151127000Y-130493000D01*
X152726250Y-130493000D01*
X152885000Y-130334250D01*
X152888072Y-130120000D01*
X152875812Y-129995518D01*
X152839502Y-129875820D01*
X152780537Y-129765506D01*
X152701185Y-129668815D01*
X152604494Y-129589463D01*
X152494180Y-129530498D01*
X152374482Y-129494188D01*
X152250000Y-129481928D01*
X151285750Y-129485000D01*
X151127000Y-129643750D01*
X150873000Y-129643750D01*
X150714250Y-129485000D01*
X149750000Y-129481928D01*
X149625518Y-129494188D01*
X149505820Y-129530498D01*
X149395506Y-129589463D01*
X149298815Y-129668815D01*
X149219463Y-129765506D01*
X149160498Y-129875820D01*
X149124188Y-129995518D01*
X149111928Y-130120000D01*
X142388072Y-130120000D01*
X142375812Y-129995518D01*
X142339502Y-129875820D01*
X142280537Y-129765506D01*
X142201185Y-129668815D01*
X142104494Y-129589463D01*
X141994180Y-129530498D01*
X141874482Y-129494188D01*
X141750000Y-129481928D01*
X140785750Y-129485000D01*
X140627000Y-129643750D01*
X140373000Y-129643750D01*
X140214250Y-129485000D01*
X139250000Y-129481928D01*
X139125518Y-129494188D01*
X139005820Y-129530498D01*
X138895506Y-129589463D01*
X138798815Y-129668815D01*
X138719463Y-129765506D01*
X138660498Y-129875820D01*
X138624188Y-129995518D01*
X138611928Y-130120000D01*
X131888072Y-130120000D01*
X131875812Y-129995518D01*
X131839502Y-129875820D01*
X131780537Y-129765506D01*
X131701185Y-129668815D01*
X131604494Y-129589463D01*
X131494180Y-129530498D01*
X131374482Y-129494188D01*
X131250000Y-129481928D01*
X130285750Y-129485000D01*
X130127000Y-129643750D01*
X129873000Y-129643750D01*
X129714250Y-129485000D01*
X128750000Y-129481928D01*
X128625518Y-129494188D01*
X128505820Y-129530498D01*
X128395506Y-129589463D01*
X128298815Y-129668815D01*
X128219463Y-129765506D01*
X128160498Y-129875820D01*
X128124188Y-129995518D01*
X128111928Y-130120000D01*
X127002870Y-130120000D01*
X127867870Y-129255001D01*
X133038981Y-129255001D01*
X133079999Y-129259041D01*
X133121017Y-129255001D01*
X133121018Y-129255001D01*
X133243688Y-129242919D01*
X133401086Y-129195173D01*
X133546145Y-129117637D01*
X133673290Y-129013292D01*
X133699445Y-128981422D01*
X134660867Y-128020000D01*
X138611928Y-128020000D01*
X138624188Y-128144482D01*
X138660498Y-128264180D01*
X138719463Y-128374494D01*
X138798815Y-128471185D01*
X138895506Y-128550537D01*
X139005820Y-128609502D01*
X139125518Y-128645812D01*
X139250000Y-128658072D01*
X140214250Y-128655000D01*
X140373000Y-128496250D01*
X140373000Y-127647000D01*
X140627000Y-127647000D01*
X140627000Y-128496250D01*
X140785750Y-128655000D01*
X141750000Y-128658072D01*
X141874482Y-128645812D01*
X141994180Y-128609502D01*
X142104494Y-128550537D01*
X142201185Y-128471185D01*
X142280537Y-128374494D01*
X142339502Y-128264180D01*
X142375812Y-128144482D01*
X142388072Y-128020000D01*
X149111928Y-128020000D01*
X149124188Y-128144482D01*
X149160498Y-128264180D01*
X149219463Y-128374494D01*
X149298815Y-128471185D01*
X149395506Y-128550537D01*
X149505820Y-128609502D01*
X149625518Y-128645812D01*
X149750000Y-128658072D01*
X150714250Y-128655000D01*
X150873000Y-128496250D01*
X150873000Y-127647000D01*
X151127000Y-127647000D01*
X151127000Y-128496250D01*
X151285750Y-128655000D01*
X152250000Y-128658072D01*
X152374482Y-128645812D01*
X152494180Y-128609502D01*
X152604494Y-128550537D01*
X152701185Y-128471185D01*
X152780537Y-128374494D01*
X152839502Y-128264180D01*
X152875812Y-128144482D01*
X152888072Y-128020000D01*
X152885000Y-127805750D01*
X152726250Y-127647000D01*
X151127000Y-127647000D01*
X150873000Y-127647000D01*
X149273750Y-127647000D01*
X149115000Y-127805750D01*
X149111928Y-128020000D01*
X142388072Y-128020000D01*
X142385000Y-127805750D01*
X142226250Y-127647000D01*
X140627000Y-127647000D01*
X140373000Y-127647000D01*
X138773750Y-127647000D01*
X138615000Y-127805750D01*
X138611928Y-128020000D01*
X134660867Y-128020000D01*
X135660867Y-127020000D01*
X138611928Y-127020000D01*
X138615000Y-127234250D01*
X138773750Y-127393000D01*
X140373000Y-127393000D01*
X140373000Y-126543750D01*
X140627000Y-126543750D01*
X140627000Y-127393000D01*
X142226250Y-127393000D01*
X142385000Y-127234250D01*
X142388072Y-127020000D01*
X149111928Y-127020000D01*
X149115000Y-127234250D01*
X149273750Y-127393000D01*
X150873000Y-127393000D01*
X150873000Y-126543750D01*
X151127000Y-126543750D01*
X151127000Y-127393000D01*
X152726250Y-127393000D01*
X152885000Y-127234250D01*
X152888072Y-127020000D01*
X152875812Y-126895518D01*
X152839502Y-126775820D01*
X152780537Y-126665506D01*
X152701185Y-126568815D01*
X152604494Y-126489463D01*
X152494180Y-126430498D01*
X152374482Y-126394188D01*
X152250000Y-126381928D01*
X151285750Y-126385000D01*
X151127000Y-126543750D01*
X150873000Y-126543750D01*
X150714250Y-126385000D01*
X149750000Y-126381928D01*
X149625518Y-126394188D01*
X149505820Y-126430498D01*
X149395506Y-126489463D01*
X149298815Y-126568815D01*
X149219463Y-126665506D01*
X149160498Y-126775820D01*
X149124188Y-126895518D01*
X149111928Y-127020000D01*
X142388072Y-127020000D01*
X142375812Y-126895518D01*
X142339502Y-126775820D01*
X142280537Y-126665506D01*
X142201185Y-126568815D01*
X142104494Y-126489463D01*
X141994180Y-126430498D01*
X141874482Y-126394188D01*
X141750000Y-126381928D01*
X140785750Y-126385000D01*
X140627000Y-126543750D01*
X140373000Y-126543750D01*
X140214250Y-126385000D01*
X139250000Y-126381928D01*
X139125518Y-126394188D01*
X139005820Y-126430498D01*
X138895506Y-126489463D01*
X138798815Y-126568815D01*
X138719463Y-126665506D01*
X138660498Y-126775820D01*
X138624188Y-126895518D01*
X138611928Y-127020000D01*
X135660867Y-127020000D01*
X145179540Y-117501329D01*
X145348816Y-117535000D01*
X145651184Y-117535000D01*
X145947743Y-117476011D01*
X146227095Y-117360299D01*
X146478505Y-117192312D01*
X146606737Y-117064080D01*
X147115525Y-117064080D01*
X147199208Y-117318261D01*
X147471775Y-117449158D01*
X147764642Y-117524365D01*
X148066553Y-117540991D01*
X148365907Y-117498397D01*
X148651199Y-117398222D01*
X148800792Y-117318261D01*
X148884475Y-117064080D01*
X148000000Y-116179605D01*
X147115525Y-117064080D01*
X146606737Y-117064080D01*
X146692312Y-116978505D01*
X146787738Y-116835690D01*
X146935920Y-116884475D01*
X147820395Y-116000000D01*
X148179605Y-116000000D01*
X149064080Y-116884475D01*
X149318261Y-116800792D01*
X149449158Y-116528225D01*
X149524365Y-116235358D01*
X149540991Y-115933447D01*
X149498397Y-115634093D01*
X149398222Y-115348801D01*
X149318261Y-115199208D01*
X149064080Y-115115525D01*
X148179605Y-116000000D01*
X147820395Y-116000000D01*
X146935920Y-115115525D01*
X146787738Y-115164310D01*
X146692312Y-115021495D01*
X146606737Y-114935920D01*
X147115525Y-114935920D01*
X148000000Y-115820395D01*
X148884475Y-114935920D01*
X148800792Y-114681739D01*
X148528225Y-114550842D01*
X148235358Y-114475635D01*
X147933447Y-114459009D01*
X147634093Y-114501603D01*
X147348801Y-114601778D01*
X147199208Y-114681739D01*
X147115525Y-114935920D01*
X146606737Y-114935920D01*
X146478505Y-114807688D01*
X146227095Y-114639701D01*
X145947743Y-114523989D01*
X145651184Y-114465000D01*
X145348816Y-114465000D01*
X145052257Y-114523989D01*
X144772905Y-114639701D01*
X144521495Y-114807688D01*
X144307688Y-115021495D01*
X144250000Y-115107831D01*
X144192312Y-115021495D01*
X143978505Y-114807688D01*
X143727095Y-114639701D01*
X143447743Y-114523989D01*
X143151184Y-114465000D01*
X142848816Y-114465000D01*
X142679539Y-114498671D01*
X142319445Y-114138578D01*
X142293290Y-114106708D01*
X142166145Y-114002363D01*
X142021086Y-113924827D01*
X141863688Y-113877081D01*
X141741018Y-113864999D01*
X141741017Y-113864999D01*
X141699999Y-113860959D01*
X141658981Y-113864999D01*
X113341019Y-113864999D01*
X113300000Y-113860959D01*
X113258982Y-113864999D01*
X113136312Y-113877081D01*
X112978914Y-113924827D01*
X112833855Y-114002363D01*
X112706710Y-114106708D01*
X112680559Y-114138573D01*
X112320461Y-114498671D01*
X112151184Y-114465000D01*
X111848816Y-114465000D01*
X111552257Y-114523989D01*
X111272905Y-114639701D01*
X111021495Y-114807688D01*
X110807688Y-115021495D01*
X110639701Y-115272905D01*
X110523989Y-115552257D01*
X110465000Y-115848816D01*
X110465000Y-116151184D01*
X110523989Y-116447743D01*
X110537872Y-116481259D01*
X102343226Y-124675907D01*
X102198102Y-124704774D01*
X102084999Y-124751623D01*
X102084999Y-123443866D01*
X116265720Y-109263146D01*
X116366261Y-109768601D01*
X116564893Y-110248141D01*
X116853262Y-110679715D01*
X117220285Y-111046738D01*
X117651859Y-111335107D01*
X118131399Y-111533739D01*
X118640475Y-111635000D01*
X119159525Y-111635000D01*
X119668601Y-111533739D01*
X120148141Y-111335107D01*
X120579715Y-111046738D01*
X120946738Y-110679715D01*
X121007373Y-110588967D01*
X125115000Y-110588967D01*
X125115000Y-110911033D01*
X125177832Y-111226912D01*
X125301082Y-111524463D01*
X125480013Y-111792252D01*
X125707748Y-112019987D01*
X125975537Y-112198918D01*
X126273088Y-112322168D01*
X126588967Y-112385000D01*
X126911033Y-112385000D01*
X127226912Y-112322168D01*
X127524463Y-112198918D01*
X127792252Y-112019987D01*
X128019987Y-111792252D01*
X128198918Y-111524463D01*
X128322168Y-111226912D01*
X128385000Y-110911033D01*
X128385000Y-110588967D01*
X131615000Y-110588967D01*
X131615000Y-110911033D01*
X131677832Y-111226912D01*
X131801082Y-111524463D01*
X131980013Y-111792252D01*
X132207748Y-112019987D01*
X132475537Y-112198918D01*
X132773088Y-112322168D01*
X133088967Y-112385000D01*
X133411033Y-112385000D01*
X133726912Y-112322168D01*
X134024463Y-112198918D01*
X134292252Y-112019987D01*
X134519987Y-111792252D01*
X134698918Y-111524463D01*
X134822168Y-111226912D01*
X134885000Y-110911033D01*
X134885000Y-110588967D01*
X134822168Y-110273088D01*
X134698918Y-109975537D01*
X134519987Y-109707748D01*
X134292252Y-109480013D01*
X134024463Y-109301082D01*
X133726912Y-109177832D01*
X133411033Y-109115000D01*
X133088967Y-109115000D01*
X132773088Y-109177832D01*
X132475537Y-109301082D01*
X132207748Y-109480013D01*
X131980013Y-109707748D01*
X131801082Y-109975537D01*
X131677832Y-110273088D01*
X131615000Y-110588967D01*
X128385000Y-110588967D01*
X128322168Y-110273088D01*
X128198918Y-109975537D01*
X128019987Y-109707748D01*
X127792252Y-109480013D01*
X127524463Y-109301082D01*
X127226912Y-109177832D01*
X126911033Y-109115000D01*
X126588967Y-109115000D01*
X126273088Y-109177832D01*
X125975537Y-109301082D01*
X125707748Y-109480013D01*
X125480013Y-109707748D01*
X125301082Y-109975537D01*
X125177832Y-110273088D01*
X125115000Y-110588967D01*
X121007373Y-110588967D01*
X121235107Y-110248141D01*
X121433739Y-109768601D01*
X121535000Y-109259525D01*
X121535000Y-108740475D01*
X138465000Y-108740475D01*
X138465000Y-109259525D01*
X138566261Y-109768601D01*
X138764893Y-110248141D01*
X139053262Y-110679715D01*
X139420285Y-111046738D01*
X139851859Y-111335107D01*
X140331399Y-111533739D01*
X140840475Y-111635000D01*
X141359525Y-111635000D01*
X141868601Y-111533739D01*
X142348141Y-111335107D01*
X142779715Y-111046738D01*
X143146738Y-110679715D01*
X143435107Y-110248141D01*
X143633739Y-109768601D01*
X143735000Y-109259525D01*
X143735000Y-108740475D01*
X147265000Y-108740475D01*
X147265000Y-109259525D01*
X147366261Y-109768601D01*
X147564893Y-110248141D01*
X147853262Y-110679715D01*
X148220285Y-111046738D01*
X148651859Y-111335107D01*
X149131399Y-111533739D01*
X149640475Y-111635000D01*
X150159525Y-111635000D01*
X150668601Y-111533739D01*
X151148141Y-111335107D01*
X151579715Y-111046738D01*
X151946738Y-110679715D01*
X152235107Y-110248141D01*
X152433739Y-109768601D01*
X152535000Y-109259525D01*
X152535000Y-108740475D01*
X152433739Y-108231399D01*
X152235107Y-107751859D01*
X151946738Y-107320285D01*
X151579715Y-106953262D01*
X151148141Y-106664893D01*
X150668601Y-106466261D01*
X150159525Y-106365000D01*
X149640475Y-106365000D01*
X149131399Y-106466261D01*
X148651859Y-106664893D01*
X148220285Y-106953262D01*
X147853262Y-107320285D01*
X147564893Y-107751859D01*
X147366261Y-108231399D01*
X147265000Y-108740475D01*
X143735000Y-108740475D01*
X143633739Y-108231399D01*
X143435107Y-107751859D01*
X143146738Y-107320285D01*
X142779715Y-106953262D01*
X142348141Y-106664893D01*
X141868601Y-106466261D01*
X141359525Y-106365000D01*
X140840475Y-106365000D01*
X140331399Y-106466261D01*
X139851859Y-106664893D01*
X139420285Y-106953262D01*
X139053262Y-107320285D01*
X138764893Y-107751859D01*
X138566261Y-108231399D01*
X138465000Y-108740475D01*
X121535000Y-108740475D01*
X121433739Y-108231399D01*
X121235107Y-107751859D01*
X120990256Y-107385413D01*
X125794192Y-107385413D01*
X125889956Y-107649814D01*
X126179571Y-107790704D01*
X126491108Y-107872384D01*
X126812595Y-107891718D01*
X127131675Y-107847961D01*
X127436088Y-107742795D01*
X127610044Y-107649814D01*
X127705808Y-107385413D01*
X132294192Y-107385413D01*
X132389956Y-107649814D01*
X132679571Y-107790704D01*
X132991108Y-107872384D01*
X133312595Y-107891718D01*
X133631675Y-107847961D01*
X133936088Y-107742795D01*
X134110044Y-107649814D01*
X134205808Y-107385413D01*
X133250000Y-106429605D01*
X132294192Y-107385413D01*
X127705808Y-107385413D01*
X126750000Y-106429605D01*
X125794192Y-107385413D01*
X120990256Y-107385413D01*
X120946738Y-107320285D01*
X120579715Y-106953262D01*
X120148141Y-106664893D01*
X119668601Y-106466261D01*
X119163147Y-106365720D01*
X119216272Y-106312595D01*
X125108282Y-106312595D01*
X125152039Y-106631675D01*
X125257205Y-106936088D01*
X125350186Y-107110044D01*
X125614587Y-107205808D01*
X126570395Y-106250000D01*
X126929605Y-106250000D01*
X127885413Y-107205808D01*
X128149814Y-107110044D01*
X128290704Y-106820429D01*
X128372384Y-106508892D01*
X128384189Y-106312595D01*
X131608282Y-106312595D01*
X131652039Y-106631675D01*
X131757205Y-106936088D01*
X131850186Y-107110044D01*
X132114587Y-107205808D01*
X133070395Y-106250000D01*
X133429605Y-106250000D01*
X134385413Y-107205808D01*
X134649814Y-107110044D01*
X134790704Y-106820429D01*
X134872384Y-106508892D01*
X134891718Y-106187405D01*
X134847961Y-105868325D01*
X134742795Y-105563912D01*
X134649814Y-105389956D01*
X134385413Y-105294192D01*
X133429605Y-106250000D01*
X133070395Y-106250000D01*
X132114587Y-105294192D01*
X131850186Y-105389956D01*
X131709296Y-105679571D01*
X131627616Y-105991108D01*
X131608282Y-106312595D01*
X128384189Y-106312595D01*
X128391718Y-106187405D01*
X128347961Y-105868325D01*
X128242795Y-105563912D01*
X128149814Y-105389956D01*
X127885413Y-105294192D01*
X126929605Y-106250000D01*
X126570395Y-106250000D01*
X125614587Y-105294192D01*
X125350186Y-105389956D01*
X125209296Y-105679571D01*
X125127616Y-105991108D01*
X125108282Y-106312595D01*
X119216272Y-106312595D01*
X119593868Y-105934999D01*
X123282985Y-105934999D01*
X123324003Y-105939039D01*
X123365021Y-105934999D01*
X123365022Y-105934999D01*
X123487692Y-105922917D01*
X123645090Y-105875171D01*
X123790149Y-105797635D01*
X123917294Y-105693290D01*
X123943449Y-105661420D01*
X124490282Y-105114587D01*
X125794192Y-105114587D01*
X126750000Y-106070395D01*
X127705808Y-105114587D01*
X132294192Y-105114587D01*
X133250000Y-106070395D01*
X134205808Y-105114587D01*
X134110044Y-104850186D01*
X133820429Y-104709296D01*
X133508892Y-104627616D01*
X133187405Y-104608282D01*
X132868325Y-104652039D01*
X132563912Y-104757205D01*
X132389956Y-104850186D01*
X132294192Y-105114587D01*
X127705808Y-105114587D01*
X127610044Y-104850186D01*
X127320429Y-104709296D01*
X127008892Y-104627616D01*
X126687405Y-104608282D01*
X126368325Y-104652039D01*
X126063912Y-104757205D01*
X125889956Y-104850186D01*
X125794192Y-105114587D01*
X124490282Y-105114587D01*
X139854869Y-89750000D01*
X145111928Y-89750000D01*
X145124188Y-89874482D01*
X145160498Y-89994180D01*
X145219463Y-90104494D01*
X145298815Y-90201185D01*
X145395506Y-90280537D01*
X145505820Y-90339502D01*
X145625518Y-90375812D01*
X145750000Y-90388072D01*
X146714250Y-90385000D01*
X146873000Y-90226250D01*
X146873000Y-89127000D01*
X147127000Y-89127000D01*
X147127000Y-90226250D01*
X147285750Y-90385000D01*
X148250000Y-90388072D01*
X148374482Y-90375812D01*
X148494180Y-90339502D01*
X148604494Y-90280537D01*
X148701185Y-90201185D01*
X148780537Y-90104494D01*
X148839502Y-89994180D01*
X148875812Y-89874482D01*
X148888072Y-89750000D01*
X148885000Y-89285750D01*
X148726250Y-89127000D01*
X147127000Y-89127000D01*
X146873000Y-89127000D01*
X145273750Y-89127000D01*
X145115000Y-89285750D01*
X145111928Y-89750000D01*
X139854869Y-89750000D01*
X144561427Y-85043443D01*
X144593291Y-85017293D01*
X144697636Y-84890148D01*
X144775172Y-84745089D01*
X144822918Y-84587691D01*
X144835000Y-84465021D01*
X144835000Y-84465011D01*
X144839039Y-84424003D01*
X144835000Y-84382995D01*
X144835000Y-83920000D01*
X145108299Y-83920000D01*
X145135040Y-84191507D01*
X145214236Y-84452581D01*
X145342843Y-84693188D01*
X145515919Y-84904081D01*
X145726812Y-85077157D01*
X145937927Y-85190000D01*
X145726812Y-85302843D01*
X145515919Y-85475919D01*
X145342843Y-85686812D01*
X145214236Y-85927419D01*
X145135040Y-86188493D01*
X145108299Y-86460000D01*
X145135040Y-86731507D01*
X145214236Y-86992581D01*
X145342843Y-87233188D01*
X145515919Y-87444081D01*
X145723608Y-87614527D01*
X145625518Y-87624188D01*
X145505820Y-87660498D01*
X145395506Y-87719463D01*
X145298815Y-87798815D01*
X145219463Y-87895506D01*
X145160498Y-88005820D01*
X145124188Y-88125518D01*
X145111928Y-88250000D01*
X145115000Y-88714250D01*
X145273750Y-88873000D01*
X146873000Y-88873000D01*
X146873000Y-88853000D01*
X147127000Y-88853000D01*
X147127000Y-88873000D01*
X148726250Y-88873000D01*
X148885000Y-88714250D01*
X148888072Y-88250000D01*
X148875812Y-88125518D01*
X148839502Y-88005820D01*
X148780537Y-87895506D01*
X148701185Y-87798815D01*
X148604494Y-87719463D01*
X148494180Y-87660498D01*
X148374482Y-87624188D01*
X148276392Y-87614527D01*
X148484081Y-87444081D01*
X148657157Y-87233188D01*
X148785764Y-86992581D01*
X148864960Y-86731507D01*
X148891701Y-86460000D01*
X148864960Y-86188493D01*
X148785764Y-85927419D01*
X148657157Y-85686812D01*
X148484081Y-85475919D01*
X148273188Y-85302843D01*
X148062073Y-85190000D01*
X148273188Y-85077157D01*
X148484081Y-84904081D01*
X148657157Y-84693188D01*
X148785764Y-84452581D01*
X148864960Y-84191507D01*
X148891701Y-83920000D01*
X148864960Y-83648493D01*
X148785764Y-83387419D01*
X148657157Y-83146812D01*
X148484081Y-82935919D01*
X148273188Y-82762843D01*
X148032581Y-82634236D01*
X147771507Y-82555040D01*
X147568037Y-82535000D01*
X146431963Y-82535000D01*
X146228493Y-82555040D01*
X145967419Y-82634236D01*
X145726812Y-82762843D01*
X145515919Y-82935919D01*
X145342843Y-83146812D01*
X145214236Y-83387419D01*
X145135040Y-83648493D01*
X145108299Y-83920000D01*
X144835000Y-83920000D01*
X144835000Y-73288199D01*
X144978505Y-73192312D01*
X145106737Y-73064080D01*
X145615525Y-73064080D01*
X145699208Y-73318261D01*
X145971775Y-73449158D01*
X146264642Y-73524365D01*
X146566553Y-73540991D01*
X146865907Y-73498397D01*
X147151199Y-73398222D01*
X147300792Y-73318261D01*
X147384475Y-73064080D01*
X146500000Y-72179605D01*
X145615525Y-73064080D01*
X145106737Y-73064080D01*
X145192312Y-72978505D01*
X145287738Y-72835690D01*
X145435920Y-72884475D01*
X146320395Y-72000000D01*
X146679605Y-72000000D01*
X147564080Y-72884475D01*
X147818261Y-72800792D01*
X147949158Y-72528225D01*
X148024365Y-72235358D01*
X148040991Y-71933447D01*
X147998397Y-71634093D01*
X147898222Y-71348801D01*
X147818261Y-71199208D01*
X147564080Y-71115525D01*
X146679605Y-72000000D01*
X146320395Y-72000000D01*
X145435920Y-71115525D01*
X145287738Y-71164310D01*
X145192312Y-71021495D01*
X145106737Y-70935920D01*
X145615525Y-70935920D01*
X146500000Y-71820395D01*
X147384475Y-70935920D01*
X147300792Y-70681739D01*
X147028225Y-70550842D01*
X146735358Y-70475635D01*
X146433447Y-70459009D01*
X146134093Y-70501603D01*
X145848801Y-70601778D01*
X145699208Y-70681739D01*
X145615525Y-70935920D01*
X145106737Y-70935920D01*
X144978505Y-70807688D01*
X144727095Y-70639701D01*
X144447743Y-70523989D01*
X144151184Y-70465000D01*
X143848816Y-70465000D01*
X143552257Y-70523989D01*
X143272905Y-70639701D01*
X143021495Y-70807688D01*
X142807688Y-71021495D01*
X142750000Y-71107831D01*
X142692312Y-71021495D01*
X142478505Y-70807688D01*
X142227095Y-70639701D01*
X141947743Y-70523989D01*
X141651184Y-70465000D01*
X141348816Y-70465000D01*
X141052257Y-70523989D01*
X140772905Y-70639701D01*
X140521495Y-70807688D01*
X140307688Y-71021495D01*
X140139701Y-71272905D01*
X140023989Y-71552257D01*
X139965000Y-71848816D01*
X139965000Y-72151184D01*
X140023989Y-72447743D01*
X140139701Y-72727095D01*
X140307688Y-72978505D01*
X140521495Y-73192312D01*
X140665000Y-73288199D01*
X140665001Y-76002128D01*
X126938579Y-89728552D01*
X126906709Y-89754707D01*
X126808413Y-89874482D01*
X126802364Y-89881853D01*
X126724828Y-90026912D01*
X126677082Y-90184310D01*
X126660960Y-90347998D01*
X126665000Y-90389017D01*
X126665001Y-92711800D01*
X126521495Y-92807688D01*
X126307688Y-93021495D01*
X126139701Y-93272905D01*
X126023989Y-93552257D01*
X125965000Y-93848816D01*
X125965000Y-94151184D01*
X126023989Y-94447743D01*
X126031138Y-94465001D01*
X115663788Y-94465001D01*
X110226587Y-89027800D01*
X111108299Y-89027800D01*
X111135040Y-89299307D01*
X111214236Y-89560381D01*
X111342843Y-89800988D01*
X111515919Y-90011881D01*
X111726812Y-90184957D01*
X111967419Y-90313564D01*
X112228493Y-90392760D01*
X112431963Y-90412800D01*
X113568037Y-90412800D01*
X113771507Y-90392760D01*
X114032581Y-90313564D01*
X114273188Y-90184957D01*
X114484081Y-90011881D01*
X114657157Y-89800988D01*
X114785764Y-89560381D01*
X114864960Y-89299307D01*
X114891701Y-89027800D01*
X114864960Y-88756293D01*
X114785764Y-88495219D01*
X114657157Y-88254612D01*
X114484081Y-88043719D01*
X114273188Y-87870643D01*
X114057422Y-87755314D01*
X114147349Y-87718772D01*
X114375061Y-87568828D01*
X114569145Y-87377340D01*
X114722142Y-87151668D01*
X114828173Y-86900484D01*
X114842318Y-86828985D01*
X114791630Y-86740475D01*
X122965000Y-86740475D01*
X122965000Y-87259525D01*
X123066261Y-87768601D01*
X123264893Y-88248141D01*
X123553262Y-88679715D01*
X123920285Y-89046738D01*
X124351859Y-89335107D01*
X124831399Y-89533739D01*
X125340475Y-89635000D01*
X125859525Y-89635000D01*
X126368601Y-89533739D01*
X126848141Y-89335107D01*
X127279715Y-89046738D01*
X127646738Y-88679715D01*
X127935107Y-88248141D01*
X128133739Y-87768601D01*
X128235000Y-87259525D01*
X128235000Y-86740475D01*
X128133739Y-86231399D01*
X127935107Y-85751859D01*
X127646738Y-85320285D01*
X127279715Y-84953262D01*
X126848141Y-84664893D01*
X126368601Y-84466261D01*
X125859525Y-84365000D01*
X125340475Y-84365000D01*
X124831399Y-84466261D01*
X124351859Y-84664893D01*
X123920285Y-84953262D01*
X123553262Y-85320285D01*
X123264893Y-85751859D01*
X123066261Y-86231399D01*
X122965000Y-86740475D01*
X114791630Y-86740475D01*
X114719656Y-86614800D01*
X113127000Y-86614800D01*
X113127000Y-86634800D01*
X112873000Y-86634800D01*
X112873000Y-86614800D01*
X111280344Y-86614800D01*
X111157682Y-86828985D01*
X111171827Y-86900484D01*
X111277858Y-87151668D01*
X111430855Y-87377340D01*
X111624939Y-87568828D01*
X111852651Y-87718772D01*
X111942578Y-87755314D01*
X111726812Y-87870643D01*
X111515919Y-88043719D01*
X111342843Y-88254612D01*
X111214236Y-88495219D01*
X111135040Y-88756293D01*
X111108299Y-89027800D01*
X110226587Y-89027800D01*
X104396587Y-83197800D01*
X111111928Y-83197800D01*
X111111928Y-84697800D01*
X111124188Y-84822282D01*
X111160498Y-84941980D01*
X111219463Y-85052294D01*
X111298815Y-85148985D01*
X111395506Y-85228337D01*
X111505820Y-85287302D01*
X111625518Y-85323612D01*
X111734874Y-85334382D01*
X111624939Y-85406772D01*
X111430855Y-85598260D01*
X111277858Y-85823932D01*
X111171827Y-86075116D01*
X111157682Y-86146615D01*
X111280344Y-86360800D01*
X112873000Y-86360800D01*
X112873000Y-86340800D01*
X113127000Y-86340800D01*
X113127000Y-86360800D01*
X114719656Y-86360800D01*
X114842318Y-86146615D01*
X114828173Y-86075116D01*
X114722142Y-85823932D01*
X114569145Y-85598260D01*
X114375061Y-85406772D01*
X114265126Y-85334382D01*
X114374482Y-85323612D01*
X114494180Y-85287302D01*
X114604494Y-85228337D01*
X114701185Y-85148985D01*
X114780537Y-85052294D01*
X114839502Y-84941980D01*
X114875812Y-84822282D01*
X114888072Y-84697800D01*
X114888072Y-83197800D01*
X114875812Y-83073318D01*
X114839502Y-82953620D01*
X114780537Y-82843306D01*
X114701185Y-82746615D01*
X114604494Y-82667263D01*
X114494180Y-82608298D01*
X114374482Y-82571988D01*
X114250000Y-82559728D01*
X111750000Y-82559728D01*
X111625518Y-82571988D01*
X111505820Y-82608298D01*
X111395506Y-82667263D01*
X111298815Y-82746615D01*
X111219463Y-82843306D01*
X111160498Y-82953620D01*
X111124188Y-83073318D01*
X111111928Y-83197800D01*
X104396587Y-83197800D01*
X103539447Y-82340660D01*
X103653475Y-82226632D01*
X103815990Y-81983411D01*
X103927932Y-81713158D01*
X103985000Y-81426260D01*
X103985000Y-81133740D01*
X103927932Y-80846842D01*
X103815990Y-80576589D01*
X103653475Y-80333368D01*
X103446632Y-80126525D01*
X103272240Y-80010000D01*
X103446632Y-79893475D01*
X103653475Y-79686632D01*
X103815990Y-79443411D01*
X103927932Y-79173158D01*
X103985000Y-78886260D01*
X103985000Y-78593740D01*
X103927932Y-78306842D01*
X103815990Y-78036589D01*
X103653475Y-77793368D01*
X103446632Y-77586525D01*
X103272240Y-77470000D01*
X103446632Y-77353475D01*
X103653475Y-77146632D01*
X103815990Y-76903411D01*
X103927932Y-76633158D01*
X103985000Y-76346260D01*
X103985000Y-76325868D01*
X105165976Y-77506843D01*
X105204774Y-77701898D01*
X105282795Y-77890256D01*
X105396063Y-78059774D01*
X105540226Y-78203937D01*
X105709744Y-78317205D01*
X105898102Y-78395226D01*
X106098061Y-78435000D01*
X106301939Y-78435000D01*
X106501898Y-78395226D01*
X106690256Y-78317205D01*
X106859774Y-78203937D01*
X107003937Y-78059774D01*
X107117205Y-77890256D01*
X107195226Y-77701898D01*
X107235000Y-77501939D01*
X107235000Y-77298061D01*
X107195226Y-77098102D01*
X107117205Y-76909744D01*
X107003937Y-76740226D01*
X106859774Y-76596063D01*
X106690256Y-76482795D01*
X106501898Y-76404774D01*
X106406707Y-76385840D01*
X103958807Y-73937940D01*
X103985000Y-73806260D01*
X103985000Y-73513740D01*
X103927932Y-73226842D01*
X103815990Y-72956589D01*
X103653475Y-72713368D01*
X103446632Y-72506525D01*
X103272240Y-72390000D01*
X103446632Y-72273475D01*
X103653475Y-72066632D01*
X103815990Y-71823411D01*
X103927932Y-71553158D01*
X103985000Y-71266260D01*
X103985000Y-70973740D01*
X103927932Y-70686842D01*
X103815990Y-70416589D01*
X103653475Y-70173368D01*
X103446632Y-69966525D01*
X103272240Y-69850000D01*
X103446632Y-69733475D01*
X103653475Y-69526632D01*
X103815990Y-69283411D01*
X103927932Y-69013158D01*
X103985000Y-68726260D01*
X103985000Y-68433740D01*
X103927932Y-68146842D01*
X103815990Y-67876589D01*
X103653475Y-67633368D01*
X103446632Y-67426525D01*
X103264466Y-67304805D01*
X103381355Y-67235178D01*
X103597588Y-67040269D01*
X103771641Y-66806920D01*
X103896825Y-66544099D01*
X103941476Y-66396890D01*
X103820156Y-66167002D01*
X103985000Y-66167002D01*
X103985000Y-66165867D01*
X110380559Y-72561427D01*
X110406709Y-72593291D01*
X110533854Y-72697636D01*
X110678913Y-72775172D01*
X110836311Y-72822918D01*
X110958981Y-72835000D01*
X110958991Y-72835000D01*
X110999999Y-72839039D01*
X111041007Y-72835000D01*
X112211801Y-72835000D01*
X112307688Y-72978505D01*
X112521495Y-73192312D01*
X112772905Y-73360299D01*
X113052257Y-73476011D01*
X113348816Y-73535000D01*
X113651184Y-73535000D01*
X113947743Y-73476011D01*
X114227095Y-73360299D01*
X114478505Y-73192312D01*
X114692312Y-72978505D01*
X114750000Y-72892169D01*
X114807688Y-72978505D01*
X115021495Y-73192312D01*
X115272905Y-73360299D01*
X115552257Y-73476011D01*
X115848816Y-73535000D01*
X116151184Y-73535000D01*
X116447743Y-73476011D01*
X116727095Y-73360299D01*
X116978505Y-73192312D01*
X117106737Y-73064080D01*
X117615525Y-73064080D01*
X117699208Y-73318261D01*
X117971775Y-73449158D01*
X118264642Y-73524365D01*
X118566553Y-73540991D01*
X118865907Y-73498397D01*
X119151199Y-73398222D01*
X119300792Y-73318261D01*
X119384475Y-73064080D01*
X118500000Y-72179605D01*
X117615525Y-73064080D01*
X117106737Y-73064080D01*
X117192312Y-72978505D01*
X117287738Y-72835690D01*
X117435920Y-72884475D01*
X118320395Y-72000000D01*
X118679605Y-72000000D01*
X119564080Y-72884475D01*
X119818261Y-72800792D01*
X119949158Y-72528225D01*
X120024365Y-72235358D01*
X120040991Y-71933447D01*
X119998397Y-71634093D01*
X119898222Y-71348801D01*
X119818261Y-71199208D01*
X119564080Y-71115525D01*
X118679605Y-72000000D01*
X118320395Y-72000000D01*
X117435920Y-71115525D01*
X117287738Y-71164310D01*
X117192312Y-71021495D01*
X117106737Y-70935920D01*
X117615525Y-70935920D01*
X118500000Y-71820395D01*
X119384475Y-70935920D01*
X119300792Y-70681739D01*
X119028225Y-70550842D01*
X118735358Y-70475635D01*
X118433447Y-70459009D01*
X118134093Y-70501603D01*
X117848801Y-70601778D01*
X117699208Y-70681739D01*
X117615525Y-70935920D01*
X117106737Y-70935920D01*
X116978505Y-70807688D01*
X116727095Y-70639701D01*
X116447743Y-70523989D01*
X116151184Y-70465000D01*
X115848816Y-70465000D01*
X115552257Y-70523989D01*
X115272905Y-70639701D01*
X115021495Y-70807688D01*
X114807688Y-71021495D01*
X114750000Y-71107831D01*
X114692312Y-71021495D01*
X114478505Y-70807688D01*
X114227095Y-70639701D01*
X113947743Y-70523989D01*
X113651184Y-70465000D01*
X113348816Y-70465000D01*
X113052257Y-70523989D01*
X112772905Y-70639701D01*
X112521495Y-70807688D01*
X112307688Y-71021495D01*
X112211801Y-71165000D01*
X111345868Y-71165000D01*
X104921343Y-64740475D01*
X108965000Y-64740475D01*
X108965000Y-65259525D01*
X109066261Y-65768601D01*
X109264893Y-66248141D01*
X109553262Y-66679715D01*
X109920285Y-67046738D01*
X110351859Y-67335107D01*
X110831399Y-67533739D01*
X111340475Y-67635000D01*
X111859525Y-67635000D01*
X112368601Y-67533739D01*
X112848141Y-67335107D01*
X113279715Y-67046738D01*
X113646738Y-66679715D01*
X113935107Y-66248141D01*
X114133739Y-65768601D01*
X114235000Y-65259525D01*
X114235000Y-64740475D01*
X117765000Y-64740475D01*
X117765000Y-65259525D01*
X117866261Y-65768601D01*
X118064893Y-66248141D01*
X118353262Y-66679715D01*
X118720285Y-67046738D01*
X119151859Y-67335107D01*
X119631399Y-67533739D01*
X120140475Y-67635000D01*
X120659525Y-67635000D01*
X121168601Y-67533739D01*
X121648141Y-67335107D01*
X122079715Y-67046738D01*
X122446738Y-66679715D01*
X122735107Y-66248141D01*
X122933739Y-65768601D01*
X123035000Y-65259525D01*
X123035000Y-64740475D01*
X136965000Y-64740475D01*
X136965000Y-65259525D01*
X137066261Y-65768601D01*
X137264893Y-66248141D01*
X137553262Y-66679715D01*
X137920285Y-67046738D01*
X138351859Y-67335107D01*
X138831399Y-67533739D01*
X139340475Y-67635000D01*
X139859525Y-67635000D01*
X140368601Y-67533739D01*
X140848141Y-67335107D01*
X141279715Y-67046738D01*
X141646738Y-66679715D01*
X141935107Y-66248141D01*
X142133739Y-65768601D01*
X142235000Y-65259525D01*
X142235000Y-64740475D01*
X145765000Y-64740475D01*
X145765000Y-65259525D01*
X145866261Y-65768601D01*
X146064893Y-66248141D01*
X146353262Y-66679715D01*
X146720285Y-67046738D01*
X147151859Y-67335107D01*
X147631399Y-67533739D01*
X148140475Y-67635000D01*
X148659525Y-67635000D01*
X149168601Y-67533739D01*
X149648141Y-67335107D01*
X150079715Y-67046738D01*
X150446738Y-66679715D01*
X150635715Y-66396890D01*
X156058524Y-66396890D01*
X156103175Y-66544099D01*
X156228359Y-66806920D01*
X156402412Y-67040269D01*
X156618645Y-67235178D01*
X156744255Y-67310000D01*
X156618645Y-67384822D01*
X156402412Y-67579731D01*
X156228359Y-67813080D01*
X156103175Y-68075901D01*
X156058524Y-68223110D01*
X156179845Y-68453000D01*
X157373000Y-68453000D01*
X157373000Y-66167000D01*
X157627000Y-66167000D01*
X157627000Y-68453000D01*
X158820155Y-68453000D01*
X158941476Y-68223110D01*
X158896825Y-68075901D01*
X158771641Y-67813080D01*
X158597588Y-67579731D01*
X158381355Y-67384822D01*
X158255745Y-67310000D01*
X158381355Y-67235178D01*
X158597588Y-67040269D01*
X158771641Y-66806920D01*
X158896825Y-66544099D01*
X158941476Y-66396890D01*
X158820155Y-66167000D01*
X157627000Y-66167000D01*
X157373000Y-66167000D01*
X156179845Y-66167000D01*
X156058524Y-66396890D01*
X150635715Y-66396890D01*
X150735107Y-66248141D01*
X150933739Y-65768601D01*
X151035000Y-65259525D01*
X151035000Y-64740475D01*
X150957331Y-64350000D01*
X156011928Y-64350000D01*
X156024188Y-64474482D01*
X156060498Y-64594180D01*
X156119463Y-64704494D01*
X156198815Y-64801185D01*
X156295506Y-64880537D01*
X156405820Y-64939502D01*
X156486466Y-64963966D01*
X156402412Y-65039731D01*
X156228359Y-65273080D01*
X156103175Y-65535901D01*
X156058524Y-65683110D01*
X156179845Y-65913000D01*
X157373000Y-65913000D01*
X157373000Y-63627000D01*
X157627000Y-63627000D01*
X157627000Y-65913000D01*
X158820155Y-65913000D01*
X158941476Y-65683110D01*
X158896825Y-65535901D01*
X158771641Y-65273080D01*
X158597588Y-65039731D01*
X158513534Y-64963966D01*
X158594180Y-64939502D01*
X158704494Y-64880537D01*
X158801185Y-64801185D01*
X158880537Y-64704494D01*
X158939502Y-64594180D01*
X158975812Y-64474482D01*
X158988072Y-64350000D01*
X158985000Y-63785750D01*
X158826250Y-63627000D01*
X157627000Y-63627000D01*
X157373000Y-63627000D01*
X156173750Y-63627000D01*
X156015000Y-63785750D01*
X156011928Y-64350000D01*
X150957331Y-64350000D01*
X150933739Y-64231399D01*
X150735107Y-63751859D01*
X150446738Y-63320285D01*
X150079715Y-62953262D01*
X149648141Y-62664893D01*
X149612187Y-62650000D01*
X156011928Y-62650000D01*
X156015000Y-63214250D01*
X156173750Y-63373000D01*
X157373000Y-63373000D01*
X157373000Y-62173750D01*
X157627000Y-62173750D01*
X157627000Y-63373000D01*
X158826250Y-63373000D01*
X158985000Y-63214250D01*
X158988072Y-62650000D01*
X158975812Y-62525518D01*
X158939502Y-62405820D01*
X158880537Y-62295506D01*
X158801185Y-62198815D01*
X158704494Y-62119463D01*
X158594180Y-62060498D01*
X158474482Y-62024188D01*
X158350000Y-62011928D01*
X157785750Y-62015000D01*
X157627000Y-62173750D01*
X157373000Y-62173750D01*
X157214250Y-62015000D01*
X156650000Y-62011928D01*
X156525518Y-62024188D01*
X156405820Y-62060498D01*
X156295506Y-62119463D01*
X156198815Y-62198815D01*
X156119463Y-62295506D01*
X156060498Y-62405820D01*
X156024188Y-62525518D01*
X156011928Y-62650000D01*
X149612187Y-62650000D01*
X149168601Y-62466261D01*
X148659525Y-62365000D01*
X148140475Y-62365000D01*
X147631399Y-62466261D01*
X147151859Y-62664893D01*
X146720285Y-62953262D01*
X146353262Y-63320285D01*
X146064893Y-63751859D01*
X145866261Y-64231399D01*
X145765000Y-64740475D01*
X142235000Y-64740475D01*
X142133739Y-64231399D01*
X141935107Y-63751859D01*
X141646738Y-63320285D01*
X141279715Y-62953262D01*
X140848141Y-62664893D01*
X140368601Y-62466261D01*
X139859525Y-62365000D01*
X139340475Y-62365000D01*
X138831399Y-62466261D01*
X138351859Y-62664893D01*
X137920285Y-62953262D01*
X137553262Y-63320285D01*
X137264893Y-63751859D01*
X137066261Y-64231399D01*
X136965000Y-64740475D01*
X123035000Y-64740475D01*
X122933739Y-64231399D01*
X122735107Y-63751859D01*
X122446738Y-63320285D01*
X122079715Y-62953262D01*
X121648141Y-62664893D01*
X121168601Y-62466261D01*
X120659525Y-62365000D01*
X120140475Y-62365000D01*
X119631399Y-62466261D01*
X119151859Y-62664893D01*
X118720285Y-62953262D01*
X118353262Y-63320285D01*
X118064893Y-63751859D01*
X117866261Y-64231399D01*
X117765000Y-64740475D01*
X114235000Y-64740475D01*
X114133739Y-64231399D01*
X113935107Y-63751859D01*
X113646738Y-63320285D01*
X113279715Y-62953262D01*
X112848141Y-62664893D01*
X112368601Y-62466261D01*
X111859525Y-62365000D01*
X111340475Y-62365000D01*
X110831399Y-62466261D01*
X110351859Y-62664893D01*
X109920285Y-62953262D01*
X109553262Y-63320285D01*
X109264893Y-63751859D01*
X109066261Y-64231399D01*
X108965000Y-64740475D01*
X104921343Y-64740475D01*
X103988072Y-63807205D01*
X103988072Y-62650000D01*
X103975812Y-62525518D01*
X103939502Y-62405820D01*
X103880537Y-62295506D01*
X103801185Y-62198815D01*
X103704494Y-62119463D01*
X103594180Y-62060498D01*
X103474482Y-62024188D01*
X103350000Y-62011928D01*
X101650000Y-62011928D01*
X101525518Y-62024188D01*
X101405820Y-62060498D01*
X101295506Y-62119463D01*
X101198815Y-62198815D01*
X101119463Y-62295506D01*
X101060498Y-62405820D01*
X101024188Y-62525518D01*
X101011928Y-62650000D01*
X101011928Y-64350000D01*
X101024188Y-64474482D01*
X101060498Y-64594180D01*
X101119463Y-64704494D01*
X101198815Y-64801185D01*
X101295506Y-64880537D01*
X101405820Y-64939502D01*
X101486466Y-64963966D01*
X101402412Y-65039731D01*
X101228359Y-65273080D01*
X101103175Y-65535901D01*
X101058524Y-65683110D01*
X101179845Y-65913000D01*
X102373000Y-65913000D01*
X102373000Y-65893000D01*
X102627000Y-65893000D01*
X102627000Y-65913000D01*
X102647000Y-65913000D01*
X102647000Y-66167000D01*
X102627000Y-66167000D01*
X102627000Y-66187000D01*
X102373000Y-66187000D01*
X102373000Y-66167000D01*
X101179845Y-66167000D01*
X101058524Y-66396890D01*
X101103175Y-66544099D01*
X101228359Y-66806920D01*
X101402412Y-67040269D01*
X101618645Y-67235178D01*
X101735534Y-67304805D01*
X101553368Y-67426525D01*
X101346525Y-67633368D01*
X101184010Y-67876589D01*
X101072068Y-68146842D01*
X101015000Y-68433740D01*
X101015000Y-68726260D01*
X101072068Y-69013158D01*
X101184010Y-69283411D01*
X101346525Y-69526632D01*
X101553368Y-69733475D01*
X101727760Y-69850000D01*
X101553368Y-69966525D01*
X101346525Y-70173368D01*
X101184010Y-70416589D01*
X101072068Y-70686842D01*
X101015000Y-70973740D01*
X101015000Y-71266260D01*
X101072068Y-71553158D01*
X101184010Y-71823411D01*
X101346525Y-72066632D01*
X101553368Y-72273475D01*
X101727760Y-72390000D01*
X101553368Y-72506525D01*
X101346525Y-72713368D01*
X101184010Y-72956589D01*
X101072068Y-73226842D01*
X101015000Y-73513740D01*
X101015000Y-73806260D01*
X101072068Y-74093158D01*
X101184010Y-74363411D01*
X101346525Y-74606632D01*
X101553368Y-74813475D01*
X101727760Y-74930000D01*
X101553368Y-75046525D01*
X101346525Y-75253368D01*
X101184010Y-75496589D01*
X101072068Y-75766842D01*
X101015000Y-76053740D01*
X101015000Y-76346260D01*
X101072068Y-76633158D01*
X101184010Y-76903411D01*
X101346525Y-77146632D01*
X101553368Y-77353475D01*
X101727760Y-77470000D01*
X101553368Y-77586525D01*
X101346525Y-77793368D01*
X101184010Y-78036589D01*
X101072068Y-78306842D01*
X101015000Y-78593740D01*
X101015000Y-78886260D01*
X101041193Y-79017940D01*
X100735000Y-79324133D01*
X100735000Y-54900000D01*
X102461928Y-54900000D01*
X102474188Y-55024482D01*
X102510498Y-55144180D01*
X102569463Y-55254494D01*
X102648815Y-55351185D01*
X102745506Y-55430537D01*
X102855820Y-55489502D01*
X102975518Y-55525812D01*
X103100000Y-55538072D01*
X103714250Y-55535000D01*
X103873000Y-55376250D01*
X103873000Y-54127000D01*
X102623750Y-54127000D01*
X102465000Y-54285750D01*
X102461928Y-54900000D01*
X100735000Y-54900000D01*
X100735000Y-53100000D01*
X102461928Y-53100000D01*
X102465000Y-53714250D01*
X102623750Y-53873000D01*
X103873000Y-53873000D01*
X103873000Y-52623750D01*
X104127000Y-52623750D01*
X104127000Y-53873000D01*
X104147000Y-53873000D01*
X104147000Y-54127000D01*
X104127000Y-54127000D01*
X104127000Y-55376250D01*
X104285750Y-55535000D01*
X104900000Y-55538072D01*
X105024482Y-55525812D01*
X105144180Y-55489502D01*
X105254494Y-55430537D01*
X105351185Y-55351185D01*
X105430537Y-55254494D01*
X105489502Y-55144180D01*
X105495056Y-55125873D01*
X105561495Y-55192312D01*
X105812905Y-55360299D01*
X106092257Y-55476011D01*
X106388816Y-55535000D01*
X106691184Y-55535000D01*
X106987743Y-55476011D01*
X107267095Y-55360299D01*
X107518505Y-55192312D01*
X107732312Y-54978505D01*
X107784767Y-54900000D01*
X151911928Y-54900000D01*
X151924188Y-55024482D01*
X151960498Y-55144180D01*
X152019463Y-55254494D01*
X152098815Y-55351185D01*
X152195506Y-55430537D01*
X152305820Y-55489502D01*
X152425518Y-55525812D01*
X152550000Y-55538072D01*
X153164250Y-55535000D01*
X153323000Y-55376250D01*
X153323000Y-54127000D01*
X152073750Y-54127000D01*
X151915000Y-54285750D01*
X151911928Y-54900000D01*
X107784767Y-54900000D01*
X107900299Y-54727095D01*
X108016011Y-54447743D01*
X108075000Y-54151184D01*
X108075000Y-53848816D01*
X108016011Y-53552257D01*
X107900299Y-53272905D01*
X107784768Y-53100000D01*
X151911928Y-53100000D01*
X151915000Y-53714250D01*
X152073750Y-53873000D01*
X153323000Y-53873000D01*
X153323000Y-52623750D01*
X153577000Y-52623750D01*
X153577000Y-53873000D01*
X153597000Y-53873000D01*
X153597000Y-54127000D01*
X153577000Y-54127000D01*
X153577000Y-55376250D01*
X153735750Y-55535000D01*
X154350000Y-55538072D01*
X154474482Y-55525812D01*
X154594180Y-55489502D01*
X154704494Y-55430537D01*
X154801185Y-55351185D01*
X154880537Y-55254494D01*
X154939502Y-55144180D01*
X154945056Y-55125873D01*
X155011495Y-55192312D01*
X155262905Y-55360299D01*
X155542257Y-55476011D01*
X155838816Y-55535000D01*
X156141184Y-55535000D01*
X156437743Y-55476011D01*
X156717095Y-55360299D01*
X156968505Y-55192312D01*
X157182312Y-54978505D01*
X157350299Y-54727095D01*
X157466011Y-54447743D01*
X157525000Y-54151184D01*
X157525000Y-53848816D01*
X157466011Y-53552257D01*
X157350299Y-53272905D01*
X157182312Y-53021495D01*
X156968505Y-52807688D01*
X156717095Y-52639701D01*
X156437743Y-52523989D01*
X156141184Y-52465000D01*
X155838816Y-52465000D01*
X155542257Y-52523989D01*
X155262905Y-52639701D01*
X155011495Y-52807688D01*
X154945056Y-52874127D01*
X154939502Y-52855820D01*
X154880537Y-52745506D01*
X154801185Y-52648815D01*
X154704494Y-52569463D01*
X154594180Y-52510498D01*
X154474482Y-52474188D01*
X154350000Y-52461928D01*
X153735750Y-52465000D01*
X153577000Y-52623750D01*
X153323000Y-52623750D01*
X153164250Y-52465000D01*
X152550000Y-52461928D01*
X152425518Y-52474188D01*
X152305820Y-52510498D01*
X152195506Y-52569463D01*
X152098815Y-52648815D01*
X152019463Y-52745506D01*
X151960498Y-52855820D01*
X151924188Y-52975518D01*
X151911928Y-53100000D01*
X107784768Y-53100000D01*
X107732312Y-53021495D01*
X107518505Y-52807688D01*
X107267095Y-52639701D01*
X106987743Y-52523989D01*
X106691184Y-52465000D01*
X106388816Y-52465000D01*
X106092257Y-52523989D01*
X105812905Y-52639701D01*
X105561495Y-52807688D01*
X105495056Y-52874127D01*
X105489502Y-52855820D01*
X105430537Y-52745506D01*
X105351185Y-52648815D01*
X105254494Y-52569463D01*
X105144180Y-52510498D01*
X105024482Y-52474188D01*
X104900000Y-52461928D01*
X104285750Y-52465000D01*
X104127000Y-52623750D01*
X103873000Y-52623750D01*
X103714250Y-52465000D01*
X103100000Y-52461928D01*
X102975518Y-52474188D01*
X102855820Y-52510498D01*
X102745506Y-52569463D01*
X102648815Y-52648815D01*
X102569463Y-52745506D01*
X102510498Y-52855820D01*
X102474188Y-52975518D01*
X102461928Y-53100000D01*
X100735000Y-53100000D01*
X100735000Y-50735000D01*
X159265000Y-50735000D01*
X159265001Y-159265000D01*
G37*
X159265001Y-159265000D02*
X100735000Y-159265000D01*
X100735000Y-155420000D01*
X107111928Y-155420000D01*
X107111928Y-156420000D01*
X107124188Y-156544482D01*
X107160498Y-156664180D01*
X107219463Y-156774494D01*
X107298815Y-156871185D01*
X107395506Y-156950537D01*
X107505820Y-157009502D01*
X107625518Y-157045812D01*
X107750000Y-157058072D01*
X110250000Y-157058072D01*
X110374482Y-157045812D01*
X110494180Y-157009502D01*
X110604494Y-156950537D01*
X110701185Y-156871185D01*
X110780537Y-156774494D01*
X110796511Y-156744610D01*
X110813689Y-156742918D01*
X110971087Y-156695172D01*
X111116146Y-156617636D01*
X111243291Y-156513291D01*
X111269446Y-156481421D01*
X113915869Y-153835000D01*
X122054133Y-153835000D01*
X121036183Y-154852950D01*
X120994180Y-154830498D01*
X120874482Y-154794188D01*
X120750000Y-154781928D01*
X118250000Y-154781928D01*
X118125518Y-154794188D01*
X118005820Y-154830498D01*
X117895506Y-154889463D01*
X117798815Y-154968815D01*
X117719463Y-155065506D01*
X117660498Y-155175820D01*
X117624188Y-155295518D01*
X117611928Y-155420000D01*
X117611928Y-156420000D01*
X117624188Y-156544482D01*
X117660498Y-156664180D01*
X117719463Y-156774494D01*
X117798815Y-156871185D01*
X117895506Y-156950537D01*
X118005820Y-157009502D01*
X118125518Y-157045812D01*
X118250000Y-157058072D01*
X120750000Y-157058072D01*
X120874482Y-157045812D01*
X120994180Y-157009502D01*
X121104494Y-156950537D01*
X121201185Y-156871185D01*
X121280537Y-156774494D01*
X121296511Y-156744610D01*
X121313689Y-156742918D01*
X121471087Y-156695172D01*
X121616146Y-156617636D01*
X121743291Y-156513291D01*
X121769446Y-156481421D01*
X122830867Y-155420000D01*
X138611928Y-155420000D01*
X138611928Y-156420000D01*
X138624188Y-156544482D01*
X138660498Y-156664180D01*
X138719463Y-156774494D01*
X138798815Y-156871185D01*
X138895506Y-156950537D01*
X139005820Y-157009502D01*
X139125518Y-157045812D01*
X139250000Y-157058072D01*
X141750000Y-157058072D01*
X141874482Y-157045812D01*
X141994180Y-157009502D01*
X142104494Y-156950537D01*
X142201185Y-156871185D01*
X142280537Y-156774494D01*
X142339502Y-156664180D01*
X142375812Y-156544482D01*
X142388072Y-156420000D01*
X142388072Y-155420000D01*
X149111928Y-155420000D01*
X149111928Y-156420000D01*
X149124188Y-156544482D01*
X149160498Y-156664180D01*
X149219463Y-156774494D01*
X149298815Y-156871185D01*
X149395506Y-156950537D01*
X149505820Y-157009502D01*
X149625518Y-157045812D01*
X149750000Y-157058072D01*
X152250000Y-157058072D01*
X152374482Y-157045812D01*
X152494180Y-157009502D01*
X152604494Y-156950537D01*
X152701185Y-156871185D01*
X152780537Y-156774494D01*
X152839502Y-156664180D01*
X152875812Y-156544482D01*
X152888072Y-156420000D01*
X152888072Y-155420000D01*
X152875812Y-155295518D01*
X152839502Y-155175820D01*
X152780537Y-155065506D01*
X152701185Y-154968815D01*
X152604494Y-154889463D01*
X152494180Y-154830498D01*
X152374482Y-154794188D01*
X152250000Y-154781928D01*
X149750000Y-154781928D01*
X149625518Y-154794188D01*
X149505820Y-154830498D01*
X149395506Y-154889463D01*
X149298815Y-154968815D01*
X149219463Y-155065506D01*
X149160498Y-155175820D01*
X149124188Y-155295518D01*
X149111928Y-155420000D01*
X142388072Y-155420000D01*
X142375812Y-155295518D01*
X142339502Y-155175820D01*
X142280537Y-155065506D01*
X142201185Y-154968815D01*
X142104494Y-154889463D01*
X141994180Y-154830498D01*
X141874482Y-154794188D01*
X141750000Y-154781928D01*
X139250000Y-154781928D01*
X139125518Y-154794188D01*
X139005820Y-154830498D01*
X138895506Y-154889463D01*
X138798815Y-154968815D01*
X138719463Y-155065506D01*
X138660498Y-155175820D01*
X138624188Y-155295518D01*
X138611928Y-155420000D01*
X122830867Y-155420000D01*
X127436523Y-150814344D01*
X138615000Y-150814344D01*
X138615000Y-151185656D01*
X138687439Y-151549834D01*
X138829534Y-151892882D01*
X139035825Y-152201618D01*
X139298382Y-152464175D01*
X139607118Y-152670466D01*
X139950166Y-152812561D01*
X140314344Y-152885000D01*
X140685656Y-152885000D01*
X141049834Y-152812561D01*
X141392882Y-152670466D01*
X141701618Y-152464175D01*
X141964175Y-152201618D01*
X142170466Y-151892882D01*
X142312561Y-151549834D01*
X142385000Y-151185656D01*
X142385000Y-150814344D01*
X149115000Y-150814344D01*
X149115000Y-151185656D01*
X149187439Y-151549834D01*
X149329534Y-151892882D01*
X149535825Y-152201618D01*
X149798382Y-152464175D01*
X150107118Y-152670466D01*
X150450166Y-152812561D01*
X150814344Y-152885000D01*
X151185656Y-152885000D01*
X151549834Y-152812561D01*
X151892882Y-152670466D01*
X152201618Y-152464175D01*
X152464175Y-152201618D01*
X152670466Y-151892882D01*
X152812561Y-151549834D01*
X152885000Y-151185656D01*
X152885000Y-150814344D01*
X152812561Y-150450166D01*
X152670466Y-150107118D01*
X152464175Y-149798382D01*
X152201618Y-149535825D01*
X151892882Y-149329534D01*
X151549834Y-149187439D01*
X151185656Y-149115000D01*
X150814344Y-149115000D01*
X150450166Y-149187439D01*
X150107118Y-149329534D01*
X149798382Y-149535825D01*
X149535825Y-149798382D01*
X149329534Y-150107118D01*
X149187439Y-150450166D01*
X149115000Y-150814344D01*
X142385000Y-150814344D01*
X142312561Y-150450166D01*
X142170466Y-150107118D01*
X141964175Y-149798382D01*
X141701618Y-149535825D01*
X141392882Y-149329534D01*
X141049834Y-149187439D01*
X140685656Y-149115000D01*
X140314344Y-149115000D01*
X139950166Y-149187439D01*
X139607118Y-149329534D01*
X139298382Y-149535825D01*
X139035825Y-149798382D01*
X138829534Y-150107118D01*
X138687439Y-150450166D01*
X138615000Y-150814344D01*
X127436523Y-150814344D01*
X130695869Y-147554999D01*
X138611928Y-147554999D01*
X138611928Y-148120000D01*
X138624188Y-148244482D01*
X138660498Y-148364180D01*
X138719463Y-148474494D01*
X138798815Y-148571185D01*
X138895506Y-148650537D01*
X139005820Y-148709502D01*
X139125518Y-148745812D01*
X139250000Y-148758072D01*
X141750000Y-148758072D01*
X141874482Y-148745812D01*
X141994180Y-148709502D01*
X142104494Y-148650537D01*
X142201185Y-148571185D01*
X142280537Y-148474494D01*
X142339502Y-148364180D01*
X142375812Y-148244482D01*
X142388072Y-148120000D01*
X149111928Y-148120000D01*
X149124188Y-148244482D01*
X149160498Y-148364180D01*
X149219463Y-148474494D01*
X149298815Y-148571185D01*
X149395506Y-148650537D01*
X149505820Y-148709502D01*
X149625518Y-148745812D01*
X149750000Y-148758072D01*
X150714250Y-148755000D01*
X150873000Y-148596250D01*
X150873000Y-147747000D01*
X151127000Y-147747000D01*
X151127000Y-148596250D01*
X151285750Y-148755000D01*
X152250000Y-148758072D01*
X152374482Y-148745812D01*
X152494180Y-148709502D01*
X152604494Y-148650537D01*
X152701185Y-148571185D01*
X152780537Y-148474494D01*
X152839502Y-148364180D01*
X152875812Y-148244482D01*
X152886408Y-148136890D01*
X156058524Y-148136890D01*
X156103175Y-148284099D01*
X156228359Y-148546920D01*
X156402412Y-148780269D01*
X156618645Y-148975178D01*
X156868748Y-149124157D01*
X157143109Y-149221481D01*
X157373000Y-149100814D01*
X157373000Y-147907000D01*
X157627000Y-147907000D01*
X157627000Y-149100814D01*
X157856891Y-149221481D01*
X158131252Y-149124157D01*
X158381355Y-148975178D01*
X158597588Y-148780269D01*
X158771641Y-148546920D01*
X158896825Y-148284099D01*
X158941476Y-148136890D01*
X158820155Y-147907000D01*
X157627000Y-147907000D01*
X157373000Y-147907000D01*
X156179845Y-147907000D01*
X156058524Y-148136890D01*
X152886408Y-148136890D01*
X152888072Y-148120000D01*
X152885000Y-147905750D01*
X152726250Y-147747000D01*
X151127000Y-147747000D01*
X150873000Y-147747000D01*
X149273750Y-147747000D01*
X149115000Y-147905750D01*
X149111928Y-148120000D01*
X142388072Y-148120000D01*
X142388072Y-147554999D01*
X145628985Y-147554999D01*
X145670003Y-147559039D01*
X145711021Y-147554999D01*
X145711022Y-147554999D01*
X145833692Y-147542917D01*
X145991090Y-147495171D01*
X146136149Y-147417635D01*
X146263294Y-147313290D01*
X146289449Y-147281420D01*
X146450869Y-147120000D01*
X149111928Y-147120000D01*
X149115000Y-147334250D01*
X149273750Y-147493000D01*
X150873000Y-147493000D01*
X150873000Y-146643750D01*
X151127000Y-146643750D01*
X151127000Y-147493000D01*
X152726250Y-147493000D01*
X152885000Y-147334250D01*
X152888072Y-147120000D01*
X152875812Y-146995518D01*
X152839502Y-146875820D01*
X152780537Y-146765506D01*
X152701185Y-146668815D01*
X152604494Y-146589463D01*
X152494180Y-146530498D01*
X152374482Y-146494188D01*
X152250000Y-146481928D01*
X151285750Y-146485000D01*
X151127000Y-146643750D01*
X150873000Y-146643750D01*
X150714250Y-146485000D01*
X149750000Y-146481928D01*
X149625518Y-146494188D01*
X149505820Y-146530498D01*
X149395506Y-146589463D01*
X149298815Y-146668815D01*
X149219463Y-146765506D01*
X149160498Y-146875820D01*
X149124188Y-146995518D01*
X149111928Y-147120000D01*
X146450869Y-147120000D01*
X148550869Y-145020000D01*
X149111928Y-145020000D01*
X149124188Y-145144482D01*
X149160498Y-145264180D01*
X149219463Y-145374494D01*
X149298815Y-145471185D01*
X149395506Y-145550537D01*
X149505820Y-145609502D01*
X149625518Y-145645812D01*
X149750000Y-145658072D01*
X150714250Y-145655000D01*
X150873000Y-145496250D01*
X150873000Y-144647000D01*
X151127000Y-144647000D01*
X151127000Y-145496250D01*
X151285750Y-145655000D01*
X152250000Y-145658072D01*
X152374482Y-145645812D01*
X152494180Y-145609502D01*
X152517775Y-145596890D01*
X156058524Y-145596890D01*
X156103175Y-145744099D01*
X156228359Y-146006920D01*
X156402412Y-146240269D01*
X156618645Y-146435178D01*
X156744255Y-146510000D01*
X156618645Y-146584822D01*
X156402412Y-146779731D01*
X156228359Y-147013080D01*
X156103175Y-147275901D01*
X156058524Y-147423110D01*
X156179845Y-147653000D01*
X157373000Y-147653000D01*
X157373000Y-145367000D01*
X157627000Y-145367000D01*
X157627000Y-147653000D01*
X158820155Y-147653000D01*
X158941476Y-147423110D01*
X158896825Y-147275901D01*
X158771641Y-147013080D01*
X158597588Y-146779731D01*
X158381355Y-146584822D01*
X158255745Y-146510000D01*
X158381355Y-146435178D01*
X158597588Y-146240269D01*
X158771641Y-146006920D01*
X158896825Y-145744099D01*
X158941476Y-145596890D01*
X158820155Y-145367000D01*
X157627000Y-145367000D01*
X157373000Y-145367000D01*
X156179845Y-145367000D01*
X156058524Y-145596890D01*
X152517775Y-145596890D01*
X152604494Y-145550537D01*
X152701185Y-145471185D01*
X152780537Y-145374494D01*
X152839502Y-145264180D01*
X152875812Y-145144482D01*
X152888072Y-145020000D01*
X152885000Y-144805750D01*
X152726250Y-144647000D01*
X151127000Y-144647000D01*
X150873000Y-144647000D01*
X149273750Y-144647000D01*
X149115000Y-144805750D01*
X149111928Y-145020000D01*
X148550869Y-145020000D01*
X149225810Y-144345060D01*
X149273750Y-144393000D01*
X150873000Y-144393000D01*
X150873000Y-143543750D01*
X151127000Y-143543750D01*
X151127000Y-144393000D01*
X152726250Y-144393000D01*
X152885000Y-144234250D01*
X152888072Y-144020000D01*
X152875812Y-143895518D01*
X152839502Y-143775820D01*
X152780537Y-143665506D01*
X152701185Y-143568815D01*
X152604494Y-143489463D01*
X152494180Y-143430498D01*
X152374482Y-143394188D01*
X152250000Y-143381928D01*
X151285750Y-143385000D01*
X151127000Y-143543750D01*
X150873000Y-143543750D01*
X150714250Y-143385000D01*
X150187548Y-143383322D01*
X156015000Y-137555871D01*
X156015000Y-137766260D01*
X156072068Y-138053158D01*
X156184010Y-138323411D01*
X156346525Y-138566632D01*
X156553368Y-138773475D01*
X156727760Y-138890000D01*
X156553368Y-139006525D01*
X156346525Y-139213368D01*
X156184010Y-139456589D01*
X156072068Y-139726842D01*
X156015000Y-140013740D01*
X156015000Y-140306260D01*
X156072068Y-140593158D01*
X156184010Y-140863411D01*
X156346525Y-141106632D01*
X156553368Y-141313475D01*
X156727760Y-141430000D01*
X156553368Y-141546525D01*
X156346525Y-141753368D01*
X156184010Y-141996589D01*
X156072068Y-142266842D01*
X156015000Y-142553740D01*
X156015000Y-142846260D01*
X156072068Y-143133158D01*
X156184010Y-143403411D01*
X156346525Y-143646632D01*
X156553368Y-143853475D01*
X156735534Y-143975195D01*
X156618645Y-144044822D01*
X156402412Y-144239731D01*
X156228359Y-144473080D01*
X156103175Y-144735901D01*
X156058524Y-144883110D01*
X156179845Y-145113000D01*
X157373000Y-145113000D01*
X157373000Y-145093000D01*
X157627000Y-145093000D01*
X157627000Y-145113000D01*
X158820155Y-145113000D01*
X158941476Y-144883110D01*
X158896825Y-144735901D01*
X158771641Y-144473080D01*
X158597588Y-144239731D01*
X158381355Y-144044822D01*
X158264466Y-143975195D01*
X158446632Y-143853475D01*
X158653475Y-143646632D01*
X158815990Y-143403411D01*
X158927932Y-143133158D01*
X158985000Y-142846260D01*
X158985000Y-142553740D01*
X158927932Y-142266842D01*
X158815990Y-141996589D01*
X158653475Y-141753368D01*
X158446632Y-141546525D01*
X158272240Y-141430000D01*
X158446632Y-141313475D01*
X158653475Y-141106632D01*
X158815990Y-140863411D01*
X158927932Y-140593158D01*
X158985000Y-140306260D01*
X158985000Y-140013740D01*
X158927932Y-139726842D01*
X158815990Y-139456589D01*
X158653475Y-139213368D01*
X158446632Y-139006525D01*
X158272240Y-138890000D01*
X158446632Y-138773475D01*
X158653475Y-138566632D01*
X158815990Y-138323411D01*
X158927932Y-138053158D01*
X158985000Y-137766260D01*
X158985000Y-137473740D01*
X158927932Y-137186842D01*
X158815990Y-136916589D01*
X158653475Y-136673368D01*
X158446632Y-136466525D01*
X158272240Y-136350000D01*
X158446632Y-136233475D01*
X158653475Y-136026632D01*
X158815990Y-135783411D01*
X158927932Y-135513158D01*
X158985000Y-135226260D01*
X158985000Y-134933740D01*
X158927932Y-134646842D01*
X158815990Y-134376589D01*
X158653475Y-134133368D01*
X158446632Y-133926525D01*
X158272240Y-133810000D01*
X158446632Y-133693475D01*
X158653475Y-133486632D01*
X158815990Y-133243411D01*
X158927932Y-132973158D01*
X158985000Y-132686260D01*
X158985000Y-132393740D01*
X158927932Y-132106842D01*
X158815990Y-131836589D01*
X158653475Y-131593368D01*
X158521620Y-131461513D01*
X158594180Y-131439502D01*
X158704494Y-131380537D01*
X158801185Y-131301185D01*
X158880537Y-131204494D01*
X158939502Y-131094180D01*
X158975812Y-130974482D01*
X158988072Y-130850000D01*
X158988072Y-129150000D01*
X158975812Y-129025518D01*
X158939502Y-128905820D01*
X158880537Y-128795506D01*
X158801185Y-128698815D01*
X158704494Y-128619463D01*
X158594180Y-128560498D01*
X158474482Y-128524188D01*
X158350000Y-128511928D01*
X157084999Y-128511928D01*
X157084999Y-82711544D01*
X157353740Y-82765000D01*
X157646260Y-82765000D01*
X157933158Y-82707932D01*
X158203411Y-82595990D01*
X158446632Y-82433475D01*
X158653475Y-82226632D01*
X158815990Y-81983411D01*
X158927932Y-81713158D01*
X158985000Y-81426260D01*
X158985000Y-81133740D01*
X158927932Y-80846842D01*
X158815990Y-80576589D01*
X158653475Y-80333368D01*
X158446632Y-80126525D01*
X158272240Y-80010000D01*
X158446632Y-79893475D01*
X158653475Y-79686632D01*
X158815990Y-79443411D01*
X158927932Y-79173158D01*
X158985000Y-78886260D01*
X158985000Y-78593740D01*
X158927932Y-78306842D01*
X158815990Y-78036589D01*
X158653475Y-77793368D01*
X158446632Y-77586525D01*
X158272240Y-77470000D01*
X158446632Y-77353475D01*
X158653475Y-77146632D01*
X158815990Y-76903411D01*
X158927932Y-76633158D01*
X158985000Y-76346260D01*
X158985000Y-76053740D01*
X158927932Y-75766842D01*
X158815990Y-75496589D01*
X158653475Y-75253368D01*
X158446632Y-75046525D01*
X158272240Y-74930000D01*
X158446632Y-74813475D01*
X158653475Y-74606632D01*
X158815990Y-74363411D01*
X158927932Y-74093158D01*
X158985000Y-73806260D01*
X158985000Y-73513740D01*
X158927932Y-73226842D01*
X158815990Y-72956589D01*
X158653475Y-72713368D01*
X158446632Y-72506525D01*
X158272240Y-72390000D01*
X158446632Y-72273475D01*
X158653475Y-72066632D01*
X158815990Y-71823411D01*
X158927932Y-71553158D01*
X158985000Y-71266260D01*
X158985000Y-70973740D01*
X158927932Y-70686842D01*
X158815990Y-70416589D01*
X158653475Y-70173368D01*
X158446632Y-69966525D01*
X158264466Y-69844805D01*
X158381355Y-69775178D01*
X158597588Y-69580269D01*
X158771641Y-69346920D01*
X158896825Y-69084099D01*
X158941476Y-68936890D01*
X158820155Y-68707000D01*
X157627000Y-68707000D01*
X157627000Y-68727000D01*
X157373000Y-68727000D01*
X157373000Y-68707000D01*
X156179845Y-68707000D01*
X156058524Y-68936890D01*
X156103175Y-69084099D01*
X156228359Y-69346920D01*
X156402412Y-69580269D01*
X156618645Y-69775178D01*
X156735534Y-69844805D01*
X156553368Y-69966525D01*
X156346525Y-70173368D01*
X156184010Y-70416589D01*
X156072068Y-70686842D01*
X156015000Y-70973740D01*
X156015000Y-71266260D01*
X156041193Y-71397940D01*
X155688578Y-71750555D01*
X155656708Y-71776710D01*
X155597533Y-71848816D01*
X155552363Y-71903856D01*
X155524102Y-71956729D01*
X155535000Y-71901939D01*
X155535000Y-71698061D01*
X155495226Y-71498102D01*
X155417205Y-71309744D01*
X155303937Y-71140226D01*
X155159774Y-70996063D01*
X154990256Y-70882795D01*
X154801898Y-70804774D01*
X154601939Y-70765000D01*
X154398061Y-70765000D01*
X154198102Y-70804774D01*
X154009744Y-70882795D01*
X153840226Y-70996063D01*
X153696063Y-71140226D01*
X153582795Y-71309744D01*
X153504774Y-71498102D01*
X153465000Y-71698061D01*
X153465000Y-71901939D01*
X153504774Y-72101898D01*
X153582795Y-72290256D01*
X153665000Y-72413285D01*
X153665001Y-132596132D01*
X152812094Y-133449039D01*
X152670466Y-133107118D01*
X152464175Y-132798382D01*
X152201618Y-132535825D01*
X151892882Y-132329534D01*
X151549834Y-132187439D01*
X151185656Y-132115000D01*
X150814344Y-132115000D01*
X150450166Y-132187439D01*
X150107118Y-132329534D01*
X149798382Y-132535825D01*
X149535825Y-132798382D01*
X149329534Y-133107118D01*
X149187439Y-133450166D01*
X149115000Y-133814344D01*
X149115000Y-134185656D01*
X149187439Y-134549834D01*
X149329534Y-134892882D01*
X149535825Y-135201618D01*
X149798382Y-135464175D01*
X150107118Y-135670466D01*
X150449040Y-135812094D01*
X147080581Y-139180554D01*
X147048711Y-139206709D01*
X146944367Y-139333854D01*
X146944366Y-139333855D01*
X146908870Y-139400263D01*
X145044135Y-141265000D01*
X133341018Y-141265000D01*
X133300000Y-141260960D01*
X133258981Y-141265000D01*
X133136311Y-141277082D01*
X132978913Y-141324828D01*
X132833854Y-141402364D01*
X132706709Y-141506709D01*
X132680563Y-141538568D01*
X122054133Y-152165000D01*
X120988642Y-152165000D01*
X121170466Y-151892882D01*
X121312561Y-151549834D01*
X121385000Y-151185656D01*
X121385000Y-150814344D01*
X121312561Y-150450166D01*
X121170466Y-150107118D01*
X120964175Y-149798382D01*
X120701618Y-149535825D01*
X120392882Y-149329534D01*
X120049834Y-149187439D01*
X119685656Y-149115000D01*
X119314344Y-149115000D01*
X118950166Y-149187439D01*
X118607118Y-149329534D01*
X118298382Y-149535825D01*
X118035825Y-149798382D01*
X117829534Y-150107118D01*
X117687439Y-150450166D01*
X117615000Y-150814344D01*
X117615000Y-151185656D01*
X117687439Y-151549834D01*
X117829534Y-151892882D01*
X118011358Y-152165000D01*
X113611018Y-152165000D01*
X113570000Y-152160960D01*
X113528982Y-152165000D01*
X113528981Y-152165000D01*
X113406311Y-152177082D01*
X113248913Y-152224828D01*
X113103854Y-152302364D01*
X112976709Y-152406709D01*
X112950563Y-152438568D01*
X110536183Y-154852950D01*
X110494180Y-154830498D01*
X110374482Y-154794188D01*
X110250000Y-154781928D01*
X107750000Y-154781928D01*
X107625518Y-154794188D01*
X107505820Y-154830498D01*
X107395506Y-154889463D01*
X107298815Y-154968815D01*
X107219463Y-155065506D01*
X107160498Y-155175820D01*
X107124188Y-155295518D01*
X107111928Y-155420000D01*
X100735000Y-155420000D01*
X100735000Y-150814344D01*
X107115000Y-150814344D01*
X107115000Y-151185656D01*
X107187439Y-151549834D01*
X107329534Y-151892882D01*
X107535825Y-152201618D01*
X107798382Y-152464175D01*
X108107118Y-152670466D01*
X108450166Y-152812561D01*
X108814344Y-152885000D01*
X109185656Y-152885000D01*
X109549834Y-152812561D01*
X109892882Y-152670466D01*
X110201618Y-152464175D01*
X110464175Y-152201618D01*
X110670466Y-151892882D01*
X110812561Y-151549834D01*
X110885000Y-151185656D01*
X110885000Y-150814344D01*
X110812561Y-150450166D01*
X110670466Y-150107118D01*
X110464175Y-149798382D01*
X110201618Y-149535825D01*
X109892882Y-149329534D01*
X109549834Y-149187439D01*
X109185656Y-149115000D01*
X108814344Y-149115000D01*
X108450166Y-149187439D01*
X108107118Y-149329534D01*
X107798382Y-149535825D01*
X107535825Y-149798382D01*
X107329534Y-150107118D01*
X107187439Y-150450166D01*
X107115000Y-150814344D01*
X100735000Y-150814344D01*
X100735000Y-147633740D01*
X101015000Y-147633740D01*
X101015000Y-147926260D01*
X101072068Y-148213158D01*
X101184010Y-148483411D01*
X101346525Y-148726632D01*
X101553368Y-148933475D01*
X101796589Y-149095990D01*
X102066842Y-149207932D01*
X102353740Y-149265000D01*
X102646260Y-149265000D01*
X102933158Y-149207932D01*
X103203411Y-149095990D01*
X103446632Y-148933475D01*
X103653475Y-148726632D01*
X103815990Y-148483411D01*
X103927932Y-148213158D01*
X103985000Y-147926260D01*
X103985000Y-147633740D01*
X103927932Y-147346842D01*
X103833972Y-147120000D01*
X107111928Y-147120000D01*
X107111928Y-148120000D01*
X107124188Y-148244482D01*
X107160498Y-148364180D01*
X107219463Y-148474494D01*
X107298815Y-148571185D01*
X107395506Y-148650537D01*
X107505820Y-148709502D01*
X107625518Y-148745812D01*
X107750000Y-148758072D01*
X110250000Y-148758072D01*
X110374482Y-148745812D01*
X110494180Y-148709502D01*
X110604494Y-148650537D01*
X110701185Y-148571185D01*
X110780537Y-148474494D01*
X110839502Y-148364180D01*
X110875812Y-148244482D01*
X110888072Y-148120000D01*
X110888072Y-147120000D01*
X117611928Y-147120000D01*
X117611928Y-148120000D01*
X117624188Y-148244482D01*
X117660498Y-148364180D01*
X117719463Y-148474494D01*
X117798815Y-148571185D01*
X117895506Y-148650537D01*
X118005820Y-148709502D01*
X118125518Y-148745812D01*
X118250000Y-148758072D01*
X120750000Y-148758072D01*
X120874482Y-148745812D01*
X120994180Y-148709502D01*
X121104494Y-148650537D01*
X121201185Y-148571185D01*
X121280537Y-148474494D01*
X121339502Y-148364180D01*
X121375812Y-148244482D01*
X121388072Y-148120000D01*
X121388072Y-147120000D01*
X121375812Y-146995518D01*
X121339502Y-146875820D01*
X121280537Y-146765506D01*
X121201185Y-146668815D01*
X121104494Y-146589463D01*
X120994180Y-146530498D01*
X120874482Y-146494188D01*
X120750000Y-146481928D01*
X118250000Y-146481928D01*
X118125518Y-146494188D01*
X118005820Y-146530498D01*
X117895506Y-146589463D01*
X117798815Y-146668815D01*
X117719463Y-146765506D01*
X117660498Y-146875820D01*
X117624188Y-146995518D01*
X117611928Y-147120000D01*
X110888072Y-147120000D01*
X110875812Y-146995518D01*
X110839502Y-146875820D01*
X110780537Y-146765506D01*
X110701185Y-146668815D01*
X110604494Y-146589463D01*
X110494180Y-146530498D01*
X110374482Y-146494188D01*
X110250000Y-146481928D01*
X107750000Y-146481928D01*
X107625518Y-146494188D01*
X107505820Y-146530498D01*
X107395506Y-146589463D01*
X107298815Y-146668815D01*
X107219463Y-146765506D01*
X107160498Y-146875820D01*
X107124188Y-146995518D01*
X107111928Y-147120000D01*
X103833972Y-147120000D01*
X103815990Y-147076589D01*
X103653475Y-146833368D01*
X103446632Y-146626525D01*
X103264466Y-146504805D01*
X103381355Y-146435178D01*
X103597588Y-146240269D01*
X103771641Y-146006920D01*
X103896825Y-145744099D01*
X103941476Y-145596890D01*
X103820155Y-145367000D01*
X102627000Y-145367000D01*
X102627000Y-145387000D01*
X102373000Y-145387000D01*
X102373000Y-145367000D01*
X101179845Y-145367000D01*
X101058524Y-145596890D01*
X101103175Y-145744099D01*
X101228359Y-146006920D01*
X101402412Y-146240269D01*
X101618645Y-146435178D01*
X101735534Y-146504805D01*
X101553368Y-146626525D01*
X101346525Y-146833368D01*
X101184010Y-147076589D01*
X101072068Y-147346842D01*
X101015000Y-147633740D01*
X100735000Y-147633740D01*
X100735000Y-139575867D01*
X101041193Y-139882060D01*
X101015000Y-140013740D01*
X101015000Y-140306260D01*
X101072068Y-140593158D01*
X101184010Y-140863411D01*
X101346525Y-141106632D01*
X101553368Y-141313475D01*
X101727760Y-141430000D01*
X101553368Y-141546525D01*
X101346525Y-141753368D01*
X101184010Y-141996589D01*
X101072068Y-142266842D01*
X101015000Y-142553740D01*
X101015000Y-142846260D01*
X101072068Y-143133158D01*
X101184010Y-143403411D01*
X101346525Y-143646632D01*
X101553368Y-143853475D01*
X101735534Y-143975195D01*
X101618645Y-144044822D01*
X101402412Y-144239731D01*
X101228359Y-144473080D01*
X101103175Y-144735901D01*
X101058524Y-144883110D01*
X101179845Y-145113000D01*
X102373000Y-145113000D01*
X102373000Y-145093000D01*
X102627000Y-145093000D01*
X102627000Y-145113000D01*
X103820155Y-145113000D01*
X103869234Y-145020000D01*
X107111928Y-145020000D01*
X107124188Y-145144482D01*
X107160498Y-145264180D01*
X107219463Y-145374494D01*
X107298815Y-145471185D01*
X107395506Y-145550537D01*
X107505820Y-145609502D01*
X107625518Y-145645812D01*
X107750000Y-145658072D01*
X108714250Y-145655000D01*
X108873000Y-145496250D01*
X108873000Y-144647000D01*
X109127000Y-144647000D01*
X109127000Y-145496250D01*
X109285750Y-145655000D01*
X110250000Y-145658072D01*
X110374482Y-145645812D01*
X110494180Y-145609502D01*
X110604494Y-145550537D01*
X110701185Y-145471185D01*
X110780537Y-145374494D01*
X110839502Y-145264180D01*
X110875812Y-145144482D01*
X110888072Y-145020000D01*
X117611928Y-145020000D01*
X117624188Y-145144482D01*
X117660498Y-145264180D01*
X117719463Y-145374494D01*
X117798815Y-145471185D01*
X117895506Y-145550537D01*
X118005820Y-145609502D01*
X118125518Y-145645812D01*
X118250000Y-145658072D01*
X119214250Y-145655000D01*
X119373000Y-145496250D01*
X119373000Y-144647000D01*
X119627000Y-144647000D01*
X119627000Y-145496250D01*
X119785750Y-145655000D01*
X120750000Y-145658072D01*
X120874482Y-145645812D01*
X120994180Y-145609502D01*
X121104494Y-145550537D01*
X121201185Y-145471185D01*
X121280537Y-145374494D01*
X121339502Y-145264180D01*
X121375812Y-145144482D01*
X121388072Y-145020000D01*
X121385000Y-144805750D01*
X121226250Y-144647000D01*
X119627000Y-144647000D01*
X119373000Y-144647000D01*
X117773750Y-144647000D01*
X117615000Y-144805750D01*
X117611928Y-145020000D01*
X110888072Y-145020000D01*
X110885000Y-144805750D01*
X110726250Y-144647000D01*
X109127000Y-144647000D01*
X108873000Y-144647000D01*
X107273750Y-144647000D01*
X107115000Y-144805750D01*
X107111928Y-145020000D01*
X103869234Y-145020000D01*
X103941476Y-144883110D01*
X103896825Y-144735901D01*
X103771641Y-144473080D01*
X103597588Y-144239731D01*
X103381355Y-144044822D01*
X103264466Y-143975195D01*
X103446632Y-143853475D01*
X103653475Y-143646632D01*
X103728065Y-143535000D01*
X107340019Y-143535000D01*
X107298815Y-143568815D01*
X107219463Y-143665506D01*
X107160498Y-143775820D01*
X107124188Y-143895518D01*
X107111928Y-144020000D01*
X107115000Y-144234250D01*
X107273750Y-144393000D01*
X108873000Y-144393000D01*
X108873000Y-144373000D01*
X109127000Y-144373000D01*
X109127000Y-144393000D01*
X110726250Y-144393000D01*
X110885000Y-144234250D01*
X110888072Y-144020000D01*
X110875812Y-143895518D01*
X110839502Y-143775820D01*
X110780537Y-143665506D01*
X110701185Y-143568815D01*
X110659981Y-143535000D01*
X117840019Y-143535000D01*
X117798815Y-143568815D01*
X117719463Y-143665506D01*
X117660498Y-143775820D01*
X117624188Y-143895518D01*
X117611928Y-144020000D01*
X117615000Y-144234250D01*
X117773750Y-144393000D01*
X119373000Y-144393000D01*
X119373000Y-144373000D01*
X119627000Y-144373000D01*
X119627000Y-144393000D01*
X121226250Y-144393000D01*
X121385000Y-144234250D01*
X121388072Y-144020000D01*
X121375812Y-143895518D01*
X121339502Y-143775820D01*
X121280537Y-143665506D01*
X121201185Y-143568815D01*
X121159981Y-143535000D01*
X127078982Y-143535000D01*
X127120000Y-143539040D01*
X127161018Y-143535000D01*
X127161019Y-143535000D01*
X127283689Y-143522918D01*
X127441087Y-143475172D01*
X127586146Y-143397636D01*
X127713291Y-143293291D01*
X127739446Y-143261421D01*
X130561429Y-140439439D01*
X130593291Y-140413291D01*
X130697636Y-140286146D01*
X130775172Y-140141087D01*
X130800354Y-140058072D01*
X131250000Y-140058072D01*
X131374482Y-140045812D01*
X131494180Y-140009502D01*
X131604494Y-139950537D01*
X131701185Y-139871185D01*
X131780537Y-139774494D01*
X131839502Y-139664180D01*
X131875812Y-139544482D01*
X131888072Y-139420000D01*
X131888072Y-138854999D01*
X137604131Y-138854999D01*
X138230563Y-139481432D01*
X138256709Y-139513291D01*
X138383854Y-139617636D01*
X138528913Y-139695172D01*
X138686311Y-139742918D01*
X138703489Y-139744610D01*
X138719463Y-139774494D01*
X138798815Y-139871185D01*
X138895506Y-139950537D01*
X139005820Y-140009502D01*
X139125518Y-140045812D01*
X139250000Y-140058072D01*
X141750000Y-140058072D01*
X141874482Y-140045812D01*
X141994180Y-140009502D01*
X142104494Y-139950537D01*
X142201185Y-139871185D01*
X142280537Y-139774494D01*
X142339502Y-139664180D01*
X142375812Y-139544482D01*
X142388072Y-139420000D01*
X142388072Y-138420000D01*
X142375812Y-138295518D01*
X142339502Y-138175820D01*
X142280537Y-138065506D01*
X142201185Y-137968815D01*
X142104494Y-137889463D01*
X141994180Y-137830498D01*
X141874482Y-137794188D01*
X141750000Y-137781928D01*
X139250000Y-137781928D01*
X139125518Y-137794188D01*
X139005820Y-137830498D01*
X138963817Y-137852949D01*
X138569444Y-137458577D01*
X138543290Y-137426708D01*
X138416145Y-137322363D01*
X138271086Y-137244827D01*
X138113688Y-137197081D01*
X137991018Y-137184999D01*
X137991017Y-137184999D01*
X137949999Y-137180959D01*
X137908981Y-137184999D01*
X123821019Y-137184999D01*
X123780001Y-137180959D01*
X123738983Y-137184999D01*
X123738982Y-137184999D01*
X123616312Y-137197081D01*
X123458914Y-137244827D01*
X123313855Y-137322363D01*
X123186710Y-137426708D01*
X123160564Y-137458567D01*
X121388072Y-139231060D01*
X121388072Y-138420000D01*
X121375812Y-138295518D01*
X121339502Y-138175820D01*
X121280537Y-138065506D01*
X121201185Y-137968815D01*
X121104494Y-137889463D01*
X120994180Y-137830498D01*
X120874482Y-137794188D01*
X120750000Y-137781928D01*
X119340941Y-137781928D01*
X123308525Y-133814344D01*
X128115000Y-133814344D01*
X128115000Y-134185656D01*
X128187439Y-134549834D01*
X128329534Y-134892882D01*
X128535825Y-135201618D01*
X128798382Y-135464175D01*
X129107118Y-135670466D01*
X129450166Y-135812561D01*
X129814344Y-135885000D01*
X130185656Y-135885000D01*
X130549834Y-135812561D01*
X130892882Y-135670466D01*
X131201618Y-135464175D01*
X131464175Y-135201618D01*
X131670466Y-134892882D01*
X131812561Y-134549834D01*
X131885000Y-134185656D01*
X131885000Y-133814344D01*
X138615000Y-133814344D01*
X138615000Y-134185656D01*
X138687439Y-134549834D01*
X138829534Y-134892882D01*
X139035825Y-135201618D01*
X139298382Y-135464175D01*
X139607118Y-135670466D01*
X139950166Y-135812561D01*
X140314344Y-135885000D01*
X140685656Y-135885000D01*
X141049834Y-135812561D01*
X141392882Y-135670466D01*
X141701618Y-135464175D01*
X141964175Y-135201618D01*
X142170466Y-134892882D01*
X142312561Y-134549834D01*
X142385000Y-134185656D01*
X142385000Y-133814344D01*
X142312561Y-133450166D01*
X142170466Y-133107118D01*
X141964175Y-132798382D01*
X141701618Y-132535825D01*
X141392882Y-132329534D01*
X141049834Y-132187439D01*
X140685656Y-132115000D01*
X140314344Y-132115000D01*
X139950166Y-132187439D01*
X139607118Y-132329534D01*
X139298382Y-132535825D01*
X139035825Y-132798382D01*
X138829534Y-133107118D01*
X138687439Y-133450166D01*
X138615000Y-133814344D01*
X131885000Y-133814344D01*
X131812561Y-133450166D01*
X131670466Y-133107118D01*
X131464175Y-132798382D01*
X131201618Y-132535825D01*
X130892882Y-132329534D01*
X130549834Y-132187439D01*
X130185656Y-132115000D01*
X129814344Y-132115000D01*
X129450166Y-132187439D01*
X129107118Y-132329534D01*
X128798382Y-132535825D01*
X128535825Y-132798382D01*
X128329534Y-133107118D01*
X128187439Y-133450166D01*
X128115000Y-133814344D01*
X123308525Y-133814344D01*
X126002870Y-131120000D01*
X128111928Y-131120000D01*
X128124188Y-131244482D01*
X128160498Y-131364180D01*
X128219463Y-131474494D01*
X128298815Y-131571185D01*
X128395506Y-131650537D01*
X128505820Y-131709502D01*
X128625518Y-131745812D01*
X128750000Y-131758072D01*
X129714250Y-131755000D01*
X129873000Y-131596250D01*
X129873000Y-130747000D01*
X130127000Y-130747000D01*
X130127000Y-131596250D01*
X130285750Y-131755000D01*
X131250000Y-131758072D01*
X131374482Y-131745812D01*
X131494180Y-131709502D01*
X131604494Y-131650537D01*
X131701185Y-131571185D01*
X131780537Y-131474494D01*
X131839502Y-131364180D01*
X131875812Y-131244482D01*
X131888072Y-131120000D01*
X138611928Y-131120000D01*
X138624188Y-131244482D01*
X138660498Y-131364180D01*
X138719463Y-131474494D01*
X138798815Y-131571185D01*
X138895506Y-131650537D01*
X139005820Y-131709502D01*
X139125518Y-131745812D01*
X139250000Y-131758072D01*
X140214250Y-131755000D01*
X140373000Y-131596250D01*
X140373000Y-130747000D01*
X140627000Y-130747000D01*
X140627000Y-131596250D01*
X140785750Y-131755000D01*
X141750000Y-131758072D01*
X141874482Y-131745812D01*
X141994180Y-131709502D01*
X142104494Y-131650537D01*
X142201185Y-131571185D01*
X142280537Y-131474494D01*
X142339502Y-131364180D01*
X142375812Y-131244482D01*
X142388072Y-131120000D01*
X149111928Y-131120000D01*
X149124188Y-131244482D01*
X149160498Y-131364180D01*
X149219463Y-131474494D01*
X149298815Y-131571185D01*
X149395506Y-131650537D01*
X149505820Y-131709502D01*
X149625518Y-131745812D01*
X149750000Y-131758072D01*
X150714250Y-131755000D01*
X150873000Y-131596250D01*
X150873000Y-130747000D01*
X151127000Y-130747000D01*
X151127000Y-131596250D01*
X151285750Y-131755000D01*
X152250000Y-131758072D01*
X152374482Y-131745812D01*
X152494180Y-131709502D01*
X152604494Y-131650537D01*
X152701185Y-131571185D01*
X152780537Y-131474494D01*
X152839502Y-131364180D01*
X152875812Y-131244482D01*
X152888072Y-131120000D01*
X152885000Y-130905750D01*
X152726250Y-130747000D01*
X151127000Y-130747000D01*
X150873000Y-130747000D01*
X149273750Y-130747000D01*
X149115000Y-130905750D01*
X149111928Y-131120000D01*
X142388072Y-131120000D01*
X142385000Y-130905750D01*
X142226250Y-130747000D01*
X140627000Y-130747000D01*
X140373000Y-130747000D01*
X138773750Y-130747000D01*
X138615000Y-130905750D01*
X138611928Y-131120000D01*
X131888072Y-131120000D01*
X131885000Y-130905750D01*
X131726250Y-130747000D01*
X130127000Y-130747000D01*
X129873000Y-130747000D01*
X128273750Y-130747000D01*
X128115000Y-130905750D01*
X128111928Y-131120000D01*
X126002870Y-131120000D01*
X127002870Y-130120000D01*
X128111928Y-130120000D01*
X128115000Y-130334250D01*
X128273750Y-130493000D01*
X129873000Y-130493000D01*
X129873000Y-129643750D01*
X130127000Y-129643750D01*
X130127000Y-130493000D01*
X131726250Y-130493000D01*
X131885000Y-130334250D01*
X131888072Y-130120000D01*
X138611928Y-130120000D01*
X138615000Y-130334250D01*
X138773750Y-130493000D01*
X140373000Y-130493000D01*
X140373000Y-129643750D01*
X140627000Y-129643750D01*
X140627000Y-130493000D01*
X142226250Y-130493000D01*
X142385000Y-130334250D01*
X142388072Y-130120000D01*
X149111928Y-130120000D01*
X149115000Y-130334250D01*
X149273750Y-130493000D01*
X150873000Y-130493000D01*
X150873000Y-129643750D01*
X151127000Y-129643750D01*
X151127000Y-130493000D01*
X152726250Y-130493000D01*
X152885000Y-130334250D01*
X152888072Y-130120000D01*
X152875812Y-129995518D01*
X152839502Y-129875820D01*
X152780537Y-129765506D01*
X152701185Y-129668815D01*
X152604494Y-129589463D01*
X152494180Y-129530498D01*
X152374482Y-129494188D01*
X152250000Y-129481928D01*
X151285750Y-129485000D01*
X151127000Y-129643750D01*
X150873000Y-129643750D01*
X150714250Y-129485000D01*
X149750000Y-129481928D01*
X149625518Y-129494188D01*
X149505820Y-129530498D01*
X149395506Y-129589463D01*
X149298815Y-129668815D01*
X149219463Y-129765506D01*
X149160498Y-129875820D01*
X149124188Y-129995518D01*
X149111928Y-130120000D01*
X142388072Y-130120000D01*
X142375812Y-129995518D01*
X142339502Y-129875820D01*
X142280537Y-129765506D01*
X142201185Y-129668815D01*
X142104494Y-129589463D01*
X141994180Y-129530498D01*
X141874482Y-129494188D01*
X141750000Y-129481928D01*
X140785750Y-129485000D01*
X140627000Y-129643750D01*
X140373000Y-129643750D01*
X140214250Y-129485000D01*
X139250000Y-129481928D01*
X139125518Y-129494188D01*
X139005820Y-129530498D01*
X138895506Y-129589463D01*
X138798815Y-129668815D01*
X138719463Y-129765506D01*
X138660498Y-129875820D01*
X138624188Y-129995518D01*
X138611928Y-130120000D01*
X131888072Y-130120000D01*
X131875812Y-129995518D01*
X131839502Y-129875820D01*
X131780537Y-129765506D01*
X131701185Y-129668815D01*
X131604494Y-129589463D01*
X131494180Y-129530498D01*
X131374482Y-129494188D01*
X131250000Y-129481928D01*
X130285750Y-129485000D01*
X130127000Y-129643750D01*
X129873000Y-129643750D01*
X129714250Y-129485000D01*
X128750000Y-129481928D01*
X128625518Y-129494188D01*
X128505820Y-129530498D01*
X128395506Y-129589463D01*
X128298815Y-129668815D01*
X128219463Y-129765506D01*
X128160498Y-129875820D01*
X128124188Y-129995518D01*
X128111928Y-130120000D01*
X127002870Y-130120000D01*
X127867870Y-129255001D01*
X133038981Y-129255001D01*
X133079999Y-129259041D01*
X133121017Y-129255001D01*
X133121018Y-129255001D01*
X133243688Y-129242919D01*
X133401086Y-129195173D01*
X133546145Y-129117637D01*
X133673290Y-129013292D01*
X133699445Y-128981422D01*
X134660867Y-128020000D01*
X138611928Y-128020000D01*
X138624188Y-128144482D01*
X138660498Y-128264180D01*
X138719463Y-128374494D01*
X138798815Y-128471185D01*
X138895506Y-128550537D01*
X139005820Y-128609502D01*
X139125518Y-128645812D01*
X139250000Y-128658072D01*
X140214250Y-128655000D01*
X140373000Y-128496250D01*
X140373000Y-127647000D01*
X140627000Y-127647000D01*
X140627000Y-128496250D01*
X140785750Y-128655000D01*
X141750000Y-128658072D01*
X141874482Y-128645812D01*
X141994180Y-128609502D01*
X142104494Y-128550537D01*
X142201185Y-128471185D01*
X142280537Y-128374494D01*
X142339502Y-128264180D01*
X142375812Y-128144482D01*
X142388072Y-128020000D01*
X149111928Y-128020000D01*
X149124188Y-128144482D01*
X149160498Y-128264180D01*
X149219463Y-128374494D01*
X149298815Y-128471185D01*
X149395506Y-128550537D01*
X149505820Y-128609502D01*
X149625518Y-128645812D01*
X149750000Y-128658072D01*
X150714250Y-128655000D01*
X150873000Y-128496250D01*
X150873000Y-127647000D01*
X151127000Y-127647000D01*
X151127000Y-128496250D01*
X151285750Y-128655000D01*
X152250000Y-128658072D01*
X152374482Y-128645812D01*
X152494180Y-128609502D01*
X152604494Y-128550537D01*
X152701185Y-128471185D01*
X152780537Y-128374494D01*
X152839502Y-128264180D01*
X152875812Y-128144482D01*
X152888072Y-128020000D01*
X152885000Y-127805750D01*
X152726250Y-127647000D01*
X151127000Y-127647000D01*
X150873000Y-127647000D01*
X149273750Y-127647000D01*
X149115000Y-127805750D01*
X149111928Y-128020000D01*
X142388072Y-128020000D01*
X142385000Y-127805750D01*
X142226250Y-127647000D01*
X140627000Y-127647000D01*
X140373000Y-127647000D01*
X138773750Y-127647000D01*
X138615000Y-127805750D01*
X138611928Y-128020000D01*
X134660867Y-128020000D01*
X135660867Y-127020000D01*
X138611928Y-127020000D01*
X138615000Y-127234250D01*
X138773750Y-127393000D01*
X140373000Y-127393000D01*
X140373000Y-126543750D01*
X140627000Y-126543750D01*
X140627000Y-127393000D01*
X142226250Y-127393000D01*
X142385000Y-127234250D01*
X142388072Y-127020000D01*
X149111928Y-127020000D01*
X149115000Y-127234250D01*
X149273750Y-127393000D01*
X150873000Y-127393000D01*
X150873000Y-126543750D01*
X151127000Y-126543750D01*
X151127000Y-127393000D01*
X152726250Y-127393000D01*
X152885000Y-127234250D01*
X152888072Y-127020000D01*
X152875812Y-126895518D01*
X152839502Y-126775820D01*
X152780537Y-126665506D01*
X152701185Y-126568815D01*
X152604494Y-126489463D01*
X152494180Y-126430498D01*
X152374482Y-126394188D01*
X152250000Y-126381928D01*
X151285750Y-126385000D01*
X151127000Y-126543750D01*
X150873000Y-126543750D01*
X150714250Y-126385000D01*
X149750000Y-126381928D01*
X149625518Y-126394188D01*
X149505820Y-126430498D01*
X149395506Y-126489463D01*
X149298815Y-126568815D01*
X149219463Y-126665506D01*
X149160498Y-126775820D01*
X149124188Y-126895518D01*
X149111928Y-127020000D01*
X142388072Y-127020000D01*
X142375812Y-126895518D01*
X142339502Y-126775820D01*
X142280537Y-126665506D01*
X142201185Y-126568815D01*
X142104494Y-126489463D01*
X141994180Y-126430498D01*
X141874482Y-126394188D01*
X141750000Y-126381928D01*
X140785750Y-126385000D01*
X140627000Y-126543750D01*
X140373000Y-126543750D01*
X140214250Y-126385000D01*
X139250000Y-126381928D01*
X139125518Y-126394188D01*
X139005820Y-126430498D01*
X138895506Y-126489463D01*
X138798815Y-126568815D01*
X138719463Y-126665506D01*
X138660498Y-126775820D01*
X138624188Y-126895518D01*
X138611928Y-127020000D01*
X135660867Y-127020000D01*
X145179540Y-117501329D01*
X145348816Y-117535000D01*
X145651184Y-117535000D01*
X145947743Y-117476011D01*
X146227095Y-117360299D01*
X146478505Y-117192312D01*
X146606737Y-117064080D01*
X147115525Y-117064080D01*
X147199208Y-117318261D01*
X147471775Y-117449158D01*
X147764642Y-117524365D01*
X148066553Y-117540991D01*
X148365907Y-117498397D01*
X148651199Y-117398222D01*
X148800792Y-117318261D01*
X148884475Y-117064080D01*
X148000000Y-116179605D01*
X147115525Y-117064080D01*
X146606737Y-117064080D01*
X146692312Y-116978505D01*
X146787738Y-116835690D01*
X146935920Y-116884475D01*
X147820395Y-116000000D01*
X148179605Y-116000000D01*
X149064080Y-116884475D01*
X149318261Y-116800792D01*
X149449158Y-116528225D01*
X149524365Y-116235358D01*
X149540991Y-115933447D01*
X149498397Y-115634093D01*
X149398222Y-115348801D01*
X149318261Y-115199208D01*
X149064080Y-115115525D01*
X148179605Y-116000000D01*
X147820395Y-116000000D01*
X146935920Y-115115525D01*
X146787738Y-115164310D01*
X146692312Y-115021495D01*
X146606737Y-114935920D01*
X147115525Y-114935920D01*
X148000000Y-115820395D01*
X148884475Y-114935920D01*
X148800792Y-114681739D01*
X148528225Y-114550842D01*
X148235358Y-114475635D01*
X147933447Y-114459009D01*
X147634093Y-114501603D01*
X147348801Y-114601778D01*
X147199208Y-114681739D01*
X147115525Y-114935920D01*
X146606737Y-114935920D01*
X146478505Y-114807688D01*
X146227095Y-114639701D01*
X145947743Y-114523989D01*
X145651184Y-114465000D01*
X145348816Y-114465000D01*
X145052257Y-114523989D01*
X144772905Y-114639701D01*
X144521495Y-114807688D01*
X144307688Y-115021495D01*
X144250000Y-115107831D01*
X144192312Y-115021495D01*
X143978505Y-114807688D01*
X143727095Y-114639701D01*
X143447743Y-114523989D01*
X143151184Y-114465000D01*
X142848816Y-114465000D01*
X142679539Y-114498671D01*
X142319445Y-114138578D01*
X142293290Y-114106708D01*
X142166145Y-114002363D01*
X142021086Y-113924827D01*
X141863688Y-113877081D01*
X141741018Y-113864999D01*
X141741017Y-113864999D01*
X141699999Y-113860959D01*
X141658981Y-113864999D01*
X113341019Y-113864999D01*
X113300000Y-113860959D01*
X113258982Y-113864999D01*
X113136312Y-113877081D01*
X112978914Y-113924827D01*
X112833855Y-114002363D01*
X112706710Y-114106708D01*
X112680559Y-114138573D01*
X112320461Y-114498671D01*
X112151184Y-114465000D01*
X111848816Y-114465000D01*
X111552257Y-114523989D01*
X111272905Y-114639701D01*
X111021495Y-114807688D01*
X110807688Y-115021495D01*
X110639701Y-115272905D01*
X110523989Y-115552257D01*
X110465000Y-115848816D01*
X110465000Y-116151184D01*
X110523989Y-116447743D01*
X110537872Y-116481259D01*
X102343226Y-124675907D01*
X102198102Y-124704774D01*
X102084999Y-124751623D01*
X102084999Y-123443866D01*
X116265720Y-109263146D01*
X116366261Y-109768601D01*
X116564893Y-110248141D01*
X116853262Y-110679715D01*
X117220285Y-111046738D01*
X117651859Y-111335107D01*
X118131399Y-111533739D01*
X118640475Y-111635000D01*
X119159525Y-111635000D01*
X119668601Y-111533739D01*
X120148141Y-111335107D01*
X120579715Y-111046738D01*
X120946738Y-110679715D01*
X121007373Y-110588967D01*
X125115000Y-110588967D01*
X125115000Y-110911033D01*
X125177832Y-111226912D01*
X125301082Y-111524463D01*
X125480013Y-111792252D01*
X125707748Y-112019987D01*
X125975537Y-112198918D01*
X126273088Y-112322168D01*
X126588967Y-112385000D01*
X126911033Y-112385000D01*
X127226912Y-112322168D01*
X127524463Y-112198918D01*
X127792252Y-112019987D01*
X128019987Y-111792252D01*
X128198918Y-111524463D01*
X128322168Y-111226912D01*
X128385000Y-110911033D01*
X128385000Y-110588967D01*
X131615000Y-110588967D01*
X131615000Y-110911033D01*
X131677832Y-111226912D01*
X131801082Y-111524463D01*
X131980013Y-111792252D01*
X132207748Y-112019987D01*
X132475537Y-112198918D01*
X132773088Y-112322168D01*
X133088967Y-112385000D01*
X133411033Y-112385000D01*
X133726912Y-112322168D01*
X134024463Y-112198918D01*
X134292252Y-112019987D01*
X134519987Y-111792252D01*
X134698918Y-111524463D01*
X134822168Y-111226912D01*
X134885000Y-110911033D01*
X134885000Y-110588967D01*
X134822168Y-110273088D01*
X134698918Y-109975537D01*
X134519987Y-109707748D01*
X134292252Y-109480013D01*
X134024463Y-109301082D01*
X133726912Y-109177832D01*
X133411033Y-109115000D01*
X133088967Y-109115000D01*
X132773088Y-109177832D01*
X132475537Y-109301082D01*
X132207748Y-109480013D01*
X131980013Y-109707748D01*
X131801082Y-109975537D01*
X131677832Y-110273088D01*
X131615000Y-110588967D01*
X128385000Y-110588967D01*
X128322168Y-110273088D01*
X128198918Y-109975537D01*
X128019987Y-109707748D01*
X127792252Y-109480013D01*
X127524463Y-109301082D01*
X127226912Y-109177832D01*
X126911033Y-109115000D01*
X126588967Y-109115000D01*
X126273088Y-109177832D01*
X125975537Y-109301082D01*
X125707748Y-109480013D01*
X125480013Y-109707748D01*
X125301082Y-109975537D01*
X125177832Y-110273088D01*
X125115000Y-110588967D01*
X121007373Y-110588967D01*
X121235107Y-110248141D01*
X121433739Y-109768601D01*
X121535000Y-109259525D01*
X121535000Y-108740475D01*
X138465000Y-108740475D01*
X138465000Y-109259525D01*
X138566261Y-109768601D01*
X138764893Y-110248141D01*
X139053262Y-110679715D01*
X139420285Y-111046738D01*
X139851859Y-111335107D01*
X140331399Y-111533739D01*
X140840475Y-111635000D01*
X141359525Y-111635000D01*
X141868601Y-111533739D01*
X142348141Y-111335107D01*
X142779715Y-111046738D01*
X143146738Y-110679715D01*
X143435107Y-110248141D01*
X143633739Y-109768601D01*
X143735000Y-109259525D01*
X143735000Y-108740475D01*
X147265000Y-108740475D01*
X147265000Y-109259525D01*
X147366261Y-109768601D01*
X147564893Y-110248141D01*
X147853262Y-110679715D01*
X148220285Y-111046738D01*
X148651859Y-111335107D01*
X149131399Y-111533739D01*
X149640475Y-111635000D01*
X150159525Y-111635000D01*
X150668601Y-111533739D01*
X151148141Y-111335107D01*
X151579715Y-111046738D01*
X151946738Y-110679715D01*
X152235107Y-110248141D01*
X152433739Y-109768601D01*
X152535000Y-109259525D01*
X152535000Y-108740475D01*
X152433739Y-108231399D01*
X152235107Y-107751859D01*
X151946738Y-107320285D01*
X151579715Y-106953262D01*
X151148141Y-106664893D01*
X150668601Y-106466261D01*
X150159525Y-106365000D01*
X149640475Y-106365000D01*
X149131399Y-106466261D01*
X148651859Y-106664893D01*
X148220285Y-106953262D01*
X147853262Y-107320285D01*
X147564893Y-107751859D01*
X147366261Y-108231399D01*
X147265000Y-108740475D01*
X143735000Y-108740475D01*
X143633739Y-108231399D01*
X143435107Y-107751859D01*
X143146738Y-107320285D01*
X142779715Y-106953262D01*
X142348141Y-106664893D01*
X141868601Y-106466261D01*
X141359525Y-106365000D01*
X140840475Y-106365000D01*
X140331399Y-106466261D01*
X139851859Y-106664893D01*
X139420285Y-106953262D01*
X139053262Y-107320285D01*
X138764893Y-107751859D01*
X138566261Y-108231399D01*
X138465000Y-108740475D01*
X121535000Y-108740475D01*
X121433739Y-108231399D01*
X121235107Y-107751859D01*
X120990256Y-107385413D01*
X125794192Y-107385413D01*
X125889956Y-107649814D01*
X126179571Y-107790704D01*
X126491108Y-107872384D01*
X126812595Y-107891718D01*
X127131675Y-107847961D01*
X127436088Y-107742795D01*
X127610044Y-107649814D01*
X127705808Y-107385413D01*
X132294192Y-107385413D01*
X132389956Y-107649814D01*
X132679571Y-107790704D01*
X132991108Y-107872384D01*
X133312595Y-107891718D01*
X133631675Y-107847961D01*
X133936088Y-107742795D01*
X134110044Y-107649814D01*
X134205808Y-107385413D01*
X133250000Y-106429605D01*
X132294192Y-107385413D01*
X127705808Y-107385413D01*
X126750000Y-106429605D01*
X125794192Y-107385413D01*
X120990256Y-107385413D01*
X120946738Y-107320285D01*
X120579715Y-106953262D01*
X120148141Y-106664893D01*
X119668601Y-106466261D01*
X119163147Y-106365720D01*
X119216272Y-106312595D01*
X125108282Y-106312595D01*
X125152039Y-106631675D01*
X125257205Y-106936088D01*
X125350186Y-107110044D01*
X125614587Y-107205808D01*
X126570395Y-106250000D01*
X126929605Y-106250000D01*
X127885413Y-107205808D01*
X128149814Y-107110044D01*
X128290704Y-106820429D01*
X128372384Y-106508892D01*
X128384189Y-106312595D01*
X131608282Y-106312595D01*
X131652039Y-106631675D01*
X131757205Y-106936088D01*
X131850186Y-107110044D01*
X132114587Y-107205808D01*
X133070395Y-106250000D01*
X133429605Y-106250000D01*
X134385413Y-107205808D01*
X134649814Y-107110044D01*
X134790704Y-106820429D01*
X134872384Y-106508892D01*
X134891718Y-106187405D01*
X134847961Y-105868325D01*
X134742795Y-105563912D01*
X134649814Y-105389956D01*
X134385413Y-105294192D01*
X133429605Y-106250000D01*
X133070395Y-106250000D01*
X132114587Y-105294192D01*
X131850186Y-105389956D01*
X131709296Y-105679571D01*
X131627616Y-105991108D01*
X131608282Y-106312595D01*
X128384189Y-106312595D01*
X128391718Y-106187405D01*
X128347961Y-105868325D01*
X128242795Y-105563912D01*
X128149814Y-105389956D01*
X127885413Y-105294192D01*
X126929605Y-106250000D01*
X126570395Y-106250000D01*
X125614587Y-105294192D01*
X125350186Y-105389956D01*
X125209296Y-105679571D01*
X125127616Y-105991108D01*
X125108282Y-106312595D01*
X119216272Y-106312595D01*
X119593868Y-105934999D01*
X123282985Y-105934999D01*
X123324003Y-105939039D01*
X123365021Y-105934999D01*
X123365022Y-105934999D01*
X123487692Y-105922917D01*
X123645090Y-105875171D01*
X123790149Y-105797635D01*
X123917294Y-105693290D01*
X123943449Y-105661420D01*
X124490282Y-105114587D01*
X125794192Y-105114587D01*
X126750000Y-106070395D01*
X127705808Y-105114587D01*
X132294192Y-105114587D01*
X133250000Y-106070395D01*
X134205808Y-105114587D01*
X134110044Y-104850186D01*
X133820429Y-104709296D01*
X133508892Y-104627616D01*
X133187405Y-104608282D01*
X132868325Y-104652039D01*
X132563912Y-104757205D01*
X132389956Y-104850186D01*
X132294192Y-105114587D01*
X127705808Y-105114587D01*
X127610044Y-104850186D01*
X127320429Y-104709296D01*
X127008892Y-104627616D01*
X126687405Y-104608282D01*
X126368325Y-104652039D01*
X126063912Y-104757205D01*
X125889956Y-104850186D01*
X125794192Y-105114587D01*
X124490282Y-105114587D01*
X139854869Y-89750000D01*
X145111928Y-89750000D01*
X145124188Y-89874482D01*
X145160498Y-89994180D01*
X145219463Y-90104494D01*
X145298815Y-90201185D01*
X145395506Y-90280537D01*
X145505820Y-90339502D01*
X145625518Y-90375812D01*
X145750000Y-90388072D01*
X146714250Y-90385000D01*
X146873000Y-90226250D01*
X146873000Y-89127000D01*
X147127000Y-89127000D01*
X147127000Y-90226250D01*
X147285750Y-90385000D01*
X148250000Y-90388072D01*
X148374482Y-90375812D01*
X148494180Y-90339502D01*
X148604494Y-90280537D01*
X148701185Y-90201185D01*
X148780537Y-90104494D01*
X148839502Y-89994180D01*
X148875812Y-89874482D01*
X148888072Y-89750000D01*
X148885000Y-89285750D01*
X148726250Y-89127000D01*
X147127000Y-89127000D01*
X146873000Y-89127000D01*
X145273750Y-89127000D01*
X145115000Y-89285750D01*
X145111928Y-89750000D01*
X139854869Y-89750000D01*
X144561427Y-85043443D01*
X144593291Y-85017293D01*
X144697636Y-84890148D01*
X144775172Y-84745089D01*
X144822918Y-84587691D01*
X144835000Y-84465021D01*
X144835000Y-84465011D01*
X144839039Y-84424003D01*
X144835000Y-84382995D01*
X144835000Y-83920000D01*
X145108299Y-83920000D01*
X145135040Y-84191507D01*
X145214236Y-84452581D01*
X145342843Y-84693188D01*
X145515919Y-84904081D01*
X145726812Y-85077157D01*
X145937927Y-85190000D01*
X145726812Y-85302843D01*
X145515919Y-85475919D01*
X145342843Y-85686812D01*
X145214236Y-85927419D01*
X145135040Y-86188493D01*
X145108299Y-86460000D01*
X145135040Y-86731507D01*
X145214236Y-86992581D01*
X145342843Y-87233188D01*
X145515919Y-87444081D01*
X145723608Y-87614527D01*
X145625518Y-87624188D01*
X145505820Y-87660498D01*
X145395506Y-87719463D01*
X145298815Y-87798815D01*
X145219463Y-87895506D01*
X145160498Y-88005820D01*
X145124188Y-88125518D01*
X145111928Y-88250000D01*
X145115000Y-88714250D01*
X145273750Y-88873000D01*
X146873000Y-88873000D01*
X146873000Y-88853000D01*
X147127000Y-88853000D01*
X147127000Y-88873000D01*
X148726250Y-88873000D01*
X148885000Y-88714250D01*
X148888072Y-88250000D01*
X148875812Y-88125518D01*
X148839502Y-88005820D01*
X148780537Y-87895506D01*
X148701185Y-87798815D01*
X148604494Y-87719463D01*
X148494180Y-87660498D01*
X148374482Y-87624188D01*
X148276392Y-87614527D01*
X148484081Y-87444081D01*
X148657157Y-87233188D01*
X148785764Y-86992581D01*
X148864960Y-86731507D01*
X148891701Y-86460000D01*
X148864960Y-86188493D01*
X148785764Y-85927419D01*
X148657157Y-85686812D01*
X148484081Y-85475919D01*
X148273188Y-85302843D01*
X148062073Y-85190000D01*
X148273188Y-85077157D01*
X148484081Y-84904081D01*
X148657157Y-84693188D01*
X148785764Y-84452581D01*
X148864960Y-84191507D01*
X148891701Y-83920000D01*
X148864960Y-83648493D01*
X148785764Y-83387419D01*
X148657157Y-83146812D01*
X148484081Y-82935919D01*
X148273188Y-82762843D01*
X148032581Y-82634236D01*
X147771507Y-82555040D01*
X147568037Y-82535000D01*
X146431963Y-82535000D01*
X146228493Y-82555040D01*
X145967419Y-82634236D01*
X145726812Y-82762843D01*
X145515919Y-82935919D01*
X145342843Y-83146812D01*
X145214236Y-83387419D01*
X145135040Y-83648493D01*
X145108299Y-83920000D01*
X144835000Y-83920000D01*
X144835000Y-73288199D01*
X144978505Y-73192312D01*
X145106737Y-73064080D01*
X145615525Y-73064080D01*
X145699208Y-73318261D01*
X145971775Y-73449158D01*
X146264642Y-73524365D01*
X146566553Y-73540991D01*
X146865907Y-73498397D01*
X147151199Y-73398222D01*
X147300792Y-73318261D01*
X147384475Y-73064080D01*
X146500000Y-72179605D01*
X145615525Y-73064080D01*
X145106737Y-73064080D01*
X145192312Y-72978505D01*
X145287738Y-72835690D01*
X145435920Y-72884475D01*
X146320395Y-72000000D01*
X146679605Y-72000000D01*
X147564080Y-72884475D01*
X147818261Y-72800792D01*
X147949158Y-72528225D01*
X148024365Y-72235358D01*
X148040991Y-71933447D01*
X147998397Y-71634093D01*
X147898222Y-71348801D01*
X147818261Y-71199208D01*
X147564080Y-71115525D01*
X146679605Y-72000000D01*
X146320395Y-72000000D01*
X145435920Y-71115525D01*
X145287738Y-71164310D01*
X145192312Y-71021495D01*
X145106737Y-70935920D01*
X145615525Y-70935920D01*
X146500000Y-71820395D01*
X147384475Y-70935920D01*
X147300792Y-70681739D01*
X147028225Y-70550842D01*
X146735358Y-70475635D01*
X146433447Y-70459009D01*
X146134093Y-70501603D01*
X145848801Y-70601778D01*
X145699208Y-70681739D01*
X145615525Y-70935920D01*
X145106737Y-70935920D01*
X144978505Y-70807688D01*
X144727095Y-70639701D01*
X144447743Y-70523989D01*
X144151184Y-70465000D01*
X143848816Y-70465000D01*
X143552257Y-70523989D01*
X143272905Y-70639701D01*
X143021495Y-70807688D01*
X142807688Y-71021495D01*
X142750000Y-71107831D01*
X142692312Y-71021495D01*
X142478505Y-70807688D01*
X142227095Y-70639701D01*
X141947743Y-70523989D01*
X141651184Y-70465000D01*
X141348816Y-70465000D01*
X141052257Y-70523989D01*
X140772905Y-70639701D01*
X140521495Y-70807688D01*
X140307688Y-71021495D01*
X140139701Y-71272905D01*
X140023989Y-71552257D01*
X139965000Y-71848816D01*
X139965000Y-72151184D01*
X140023989Y-72447743D01*
X140139701Y-72727095D01*
X140307688Y-72978505D01*
X140521495Y-73192312D01*
X140665000Y-73288199D01*
X140665001Y-76002128D01*
X126938579Y-89728552D01*
X126906709Y-89754707D01*
X126808413Y-89874482D01*
X126802364Y-89881853D01*
X126724828Y-90026912D01*
X126677082Y-90184310D01*
X126660960Y-90347998D01*
X126665000Y-90389017D01*
X126665001Y-92711800D01*
X126521495Y-92807688D01*
X126307688Y-93021495D01*
X126139701Y-93272905D01*
X126023989Y-93552257D01*
X125965000Y-93848816D01*
X125965000Y-94151184D01*
X126023989Y-94447743D01*
X126031138Y-94465001D01*
X115663788Y-94465001D01*
X110226587Y-89027800D01*
X111108299Y-89027800D01*
X111135040Y-89299307D01*
X111214236Y-89560381D01*
X111342843Y-89800988D01*
X111515919Y-90011881D01*
X111726812Y-90184957D01*
X111967419Y-90313564D01*
X112228493Y-90392760D01*
X112431963Y-90412800D01*
X113568037Y-90412800D01*
X113771507Y-90392760D01*
X114032581Y-90313564D01*
X114273188Y-90184957D01*
X114484081Y-90011881D01*
X114657157Y-89800988D01*
X114785764Y-89560381D01*
X114864960Y-89299307D01*
X114891701Y-89027800D01*
X114864960Y-88756293D01*
X114785764Y-88495219D01*
X114657157Y-88254612D01*
X114484081Y-88043719D01*
X114273188Y-87870643D01*
X114057422Y-87755314D01*
X114147349Y-87718772D01*
X114375061Y-87568828D01*
X114569145Y-87377340D01*
X114722142Y-87151668D01*
X114828173Y-86900484D01*
X114842318Y-86828985D01*
X114791630Y-86740475D01*
X122965000Y-86740475D01*
X122965000Y-87259525D01*
X123066261Y-87768601D01*
X123264893Y-88248141D01*
X123553262Y-88679715D01*
X123920285Y-89046738D01*
X124351859Y-89335107D01*
X124831399Y-89533739D01*
X125340475Y-89635000D01*
X125859525Y-89635000D01*
X126368601Y-89533739D01*
X126848141Y-89335107D01*
X127279715Y-89046738D01*
X127646738Y-88679715D01*
X127935107Y-88248141D01*
X128133739Y-87768601D01*
X128235000Y-87259525D01*
X128235000Y-86740475D01*
X128133739Y-86231399D01*
X127935107Y-85751859D01*
X127646738Y-85320285D01*
X127279715Y-84953262D01*
X126848141Y-84664893D01*
X126368601Y-84466261D01*
X125859525Y-84365000D01*
X125340475Y-84365000D01*
X124831399Y-84466261D01*
X124351859Y-84664893D01*
X123920285Y-84953262D01*
X123553262Y-85320285D01*
X123264893Y-85751859D01*
X123066261Y-86231399D01*
X122965000Y-86740475D01*
X114791630Y-86740475D01*
X114719656Y-86614800D01*
X113127000Y-86614800D01*
X113127000Y-86634800D01*
X112873000Y-86634800D01*
X112873000Y-86614800D01*
X111280344Y-86614800D01*
X111157682Y-86828985D01*
X111171827Y-86900484D01*
X111277858Y-87151668D01*
X111430855Y-87377340D01*
X111624939Y-87568828D01*
X111852651Y-87718772D01*
X111942578Y-87755314D01*
X111726812Y-87870643D01*
X111515919Y-88043719D01*
X111342843Y-88254612D01*
X111214236Y-88495219D01*
X111135040Y-88756293D01*
X111108299Y-89027800D01*
X110226587Y-89027800D01*
X104396587Y-83197800D01*
X111111928Y-83197800D01*
X111111928Y-84697800D01*
X111124188Y-84822282D01*
X111160498Y-84941980D01*
X111219463Y-85052294D01*
X111298815Y-85148985D01*
X111395506Y-85228337D01*
X111505820Y-85287302D01*
X111625518Y-85323612D01*
X111734874Y-85334382D01*
X111624939Y-85406772D01*
X111430855Y-85598260D01*
X111277858Y-85823932D01*
X111171827Y-86075116D01*
X111157682Y-86146615D01*
X111280344Y-86360800D01*
X112873000Y-86360800D01*
X112873000Y-86340800D01*
X113127000Y-86340800D01*
X113127000Y-86360800D01*
X114719656Y-86360800D01*
X114842318Y-86146615D01*
X114828173Y-86075116D01*
X114722142Y-85823932D01*
X114569145Y-85598260D01*
X114375061Y-85406772D01*
X114265126Y-85334382D01*
X114374482Y-85323612D01*
X114494180Y-85287302D01*
X114604494Y-85228337D01*
X114701185Y-85148985D01*
X114780537Y-85052294D01*
X114839502Y-84941980D01*
X114875812Y-84822282D01*
X114888072Y-84697800D01*
X114888072Y-83197800D01*
X114875812Y-83073318D01*
X114839502Y-82953620D01*
X114780537Y-82843306D01*
X114701185Y-82746615D01*
X114604494Y-82667263D01*
X114494180Y-82608298D01*
X114374482Y-82571988D01*
X114250000Y-82559728D01*
X111750000Y-82559728D01*
X111625518Y-82571988D01*
X111505820Y-82608298D01*
X111395506Y-82667263D01*
X111298815Y-82746615D01*
X111219463Y-82843306D01*
X111160498Y-82953620D01*
X111124188Y-83073318D01*
X111111928Y-83197800D01*
X104396587Y-83197800D01*
X103539447Y-82340660D01*
X103653475Y-82226632D01*
X103815990Y-81983411D01*
X103927932Y-81713158D01*
X103985000Y-81426260D01*
X103985000Y-81133740D01*
X103927932Y-80846842D01*
X103815990Y-80576589D01*
X103653475Y-80333368D01*
X103446632Y-80126525D01*
X103272240Y-80010000D01*
X103446632Y-79893475D01*
X103653475Y-79686632D01*
X103815990Y-79443411D01*
X103927932Y-79173158D01*
X103985000Y-78886260D01*
X103985000Y-78593740D01*
X103927932Y-78306842D01*
X103815990Y-78036589D01*
X103653475Y-77793368D01*
X103446632Y-77586525D01*
X103272240Y-77470000D01*
X103446632Y-77353475D01*
X103653475Y-77146632D01*
X103815990Y-76903411D01*
X103927932Y-76633158D01*
X103985000Y-76346260D01*
X103985000Y-76325868D01*
X105165976Y-77506843D01*
X105204774Y-77701898D01*
X105282795Y-77890256D01*
X105396063Y-78059774D01*
X105540226Y-78203937D01*
X105709744Y-78317205D01*
X105898102Y-78395226D01*
X106098061Y-78435000D01*
X106301939Y-78435000D01*
X106501898Y-78395226D01*
X106690256Y-78317205D01*
X106859774Y-78203937D01*
X107003937Y-78059774D01*
X107117205Y-77890256D01*
X107195226Y-77701898D01*
X107235000Y-77501939D01*
X107235000Y-77298061D01*
X107195226Y-77098102D01*
X107117205Y-76909744D01*
X107003937Y-76740226D01*
X106859774Y-76596063D01*
X106690256Y-76482795D01*
X106501898Y-76404774D01*
X106406707Y-76385840D01*
X103958807Y-73937940D01*
X103985000Y-73806260D01*
X103985000Y-73513740D01*
X103927932Y-73226842D01*
X103815990Y-72956589D01*
X103653475Y-72713368D01*
X103446632Y-72506525D01*
X103272240Y-72390000D01*
X103446632Y-72273475D01*
X103653475Y-72066632D01*
X103815990Y-71823411D01*
X103927932Y-71553158D01*
X103985000Y-71266260D01*
X103985000Y-70973740D01*
X103927932Y-70686842D01*
X103815990Y-70416589D01*
X103653475Y-70173368D01*
X103446632Y-69966525D01*
X103272240Y-69850000D01*
X103446632Y-69733475D01*
X103653475Y-69526632D01*
X103815990Y-69283411D01*
X103927932Y-69013158D01*
X103985000Y-68726260D01*
X103985000Y-68433740D01*
X103927932Y-68146842D01*
X103815990Y-67876589D01*
X103653475Y-67633368D01*
X103446632Y-67426525D01*
X103264466Y-67304805D01*
X103381355Y-67235178D01*
X103597588Y-67040269D01*
X103771641Y-66806920D01*
X103896825Y-66544099D01*
X103941476Y-66396890D01*
X103820156Y-66167002D01*
X103985000Y-66167002D01*
X103985000Y-66165867D01*
X110380559Y-72561427D01*
X110406709Y-72593291D01*
X110533854Y-72697636D01*
X110678913Y-72775172D01*
X110836311Y-72822918D01*
X110958981Y-72835000D01*
X110958991Y-72835000D01*
X110999999Y-72839039D01*
X111041007Y-72835000D01*
X112211801Y-72835000D01*
X112307688Y-72978505D01*
X112521495Y-73192312D01*
X112772905Y-73360299D01*
X113052257Y-73476011D01*
X113348816Y-73535000D01*
X113651184Y-73535000D01*
X113947743Y-73476011D01*
X114227095Y-73360299D01*
X114478505Y-73192312D01*
X114692312Y-72978505D01*
X114750000Y-72892169D01*
X114807688Y-72978505D01*
X115021495Y-73192312D01*
X115272905Y-73360299D01*
X115552257Y-73476011D01*
X115848816Y-73535000D01*
X116151184Y-73535000D01*
X116447743Y-73476011D01*
X116727095Y-73360299D01*
X116978505Y-73192312D01*
X117106737Y-73064080D01*
X117615525Y-73064080D01*
X117699208Y-73318261D01*
X117971775Y-73449158D01*
X118264642Y-73524365D01*
X118566553Y-73540991D01*
X118865907Y-73498397D01*
X119151199Y-73398222D01*
X119300792Y-73318261D01*
X119384475Y-73064080D01*
X118500000Y-72179605D01*
X117615525Y-73064080D01*
X117106737Y-73064080D01*
X117192312Y-72978505D01*
X117287738Y-72835690D01*
X117435920Y-72884475D01*
X118320395Y-72000000D01*
X118679605Y-72000000D01*
X119564080Y-72884475D01*
X119818261Y-72800792D01*
X119949158Y-72528225D01*
X120024365Y-72235358D01*
X120040991Y-71933447D01*
X119998397Y-71634093D01*
X119898222Y-71348801D01*
X119818261Y-71199208D01*
X119564080Y-71115525D01*
X118679605Y-72000000D01*
X118320395Y-72000000D01*
X117435920Y-71115525D01*
X117287738Y-71164310D01*
X117192312Y-71021495D01*
X117106737Y-70935920D01*
X117615525Y-70935920D01*
X118500000Y-71820395D01*
X119384475Y-70935920D01*
X119300792Y-70681739D01*
X119028225Y-70550842D01*
X118735358Y-70475635D01*
X118433447Y-70459009D01*
X118134093Y-70501603D01*
X117848801Y-70601778D01*
X117699208Y-70681739D01*
X117615525Y-70935920D01*
X117106737Y-70935920D01*
X116978505Y-70807688D01*
X116727095Y-70639701D01*
X116447743Y-70523989D01*
X116151184Y-70465000D01*
X115848816Y-70465000D01*
X115552257Y-70523989D01*
X115272905Y-70639701D01*
X115021495Y-70807688D01*
X114807688Y-71021495D01*
X114750000Y-71107831D01*
X114692312Y-71021495D01*
X114478505Y-70807688D01*
X114227095Y-70639701D01*
X113947743Y-70523989D01*
X113651184Y-70465000D01*
X113348816Y-70465000D01*
X113052257Y-70523989D01*
X112772905Y-70639701D01*
X112521495Y-70807688D01*
X112307688Y-71021495D01*
X112211801Y-71165000D01*
X111345868Y-71165000D01*
X104921343Y-64740475D01*
X108965000Y-64740475D01*
X108965000Y-65259525D01*
X109066261Y-65768601D01*
X109264893Y-66248141D01*
X109553262Y-66679715D01*
X109920285Y-67046738D01*
X110351859Y-67335107D01*
X110831399Y-67533739D01*
X111340475Y-67635000D01*
X111859525Y-67635000D01*
X112368601Y-67533739D01*
X112848141Y-67335107D01*
X113279715Y-67046738D01*
X113646738Y-66679715D01*
X113935107Y-66248141D01*
X114133739Y-65768601D01*
X114235000Y-65259525D01*
X114235000Y-64740475D01*
X117765000Y-64740475D01*
X117765000Y-65259525D01*
X117866261Y-65768601D01*
X118064893Y-66248141D01*
X118353262Y-66679715D01*
X118720285Y-67046738D01*
X119151859Y-67335107D01*
X119631399Y-67533739D01*
X120140475Y-67635000D01*
X120659525Y-67635000D01*
X121168601Y-67533739D01*
X121648141Y-67335107D01*
X122079715Y-67046738D01*
X122446738Y-66679715D01*
X122735107Y-66248141D01*
X122933739Y-65768601D01*
X123035000Y-65259525D01*
X123035000Y-64740475D01*
X136965000Y-64740475D01*
X136965000Y-65259525D01*
X137066261Y-65768601D01*
X137264893Y-66248141D01*
X137553262Y-66679715D01*
X137920285Y-67046738D01*
X138351859Y-67335107D01*
X138831399Y-67533739D01*
X139340475Y-67635000D01*
X139859525Y-67635000D01*
X140368601Y-67533739D01*
X140848141Y-67335107D01*
X141279715Y-67046738D01*
X141646738Y-66679715D01*
X141935107Y-66248141D01*
X142133739Y-65768601D01*
X142235000Y-65259525D01*
X142235000Y-64740475D01*
X145765000Y-64740475D01*
X145765000Y-65259525D01*
X145866261Y-65768601D01*
X146064893Y-66248141D01*
X146353262Y-66679715D01*
X146720285Y-67046738D01*
X147151859Y-67335107D01*
X147631399Y-67533739D01*
X148140475Y-67635000D01*
X148659525Y-67635000D01*
X149168601Y-67533739D01*
X149648141Y-67335107D01*
X150079715Y-67046738D01*
X150446738Y-66679715D01*
X150635715Y-66396890D01*
X156058524Y-66396890D01*
X156103175Y-66544099D01*
X156228359Y-66806920D01*
X156402412Y-67040269D01*
X156618645Y-67235178D01*
X156744255Y-67310000D01*
X156618645Y-67384822D01*
X156402412Y-67579731D01*
X156228359Y-67813080D01*
X156103175Y-68075901D01*
X156058524Y-68223110D01*
X156179845Y-68453000D01*
X157373000Y-68453000D01*
X157373000Y-66167000D01*
X157627000Y-66167000D01*
X157627000Y-68453000D01*
X158820155Y-68453000D01*
X158941476Y-68223110D01*
X158896825Y-68075901D01*
X158771641Y-67813080D01*
X158597588Y-67579731D01*
X158381355Y-67384822D01*
X158255745Y-67310000D01*
X158381355Y-67235178D01*
X158597588Y-67040269D01*
X158771641Y-66806920D01*
X158896825Y-66544099D01*
X158941476Y-66396890D01*
X158820155Y-66167000D01*
X157627000Y-66167000D01*
X157373000Y-66167000D01*
X156179845Y-66167000D01*
X156058524Y-66396890D01*
X150635715Y-66396890D01*
X150735107Y-66248141D01*
X150933739Y-65768601D01*
X151035000Y-65259525D01*
X151035000Y-64740475D01*
X150957331Y-64350000D01*
X156011928Y-64350000D01*
X156024188Y-64474482D01*
X156060498Y-64594180D01*
X156119463Y-64704494D01*
X156198815Y-64801185D01*
X156295506Y-64880537D01*
X156405820Y-64939502D01*
X156486466Y-64963966D01*
X156402412Y-65039731D01*
X156228359Y-65273080D01*
X156103175Y-65535901D01*
X156058524Y-65683110D01*
X156179845Y-65913000D01*
X157373000Y-65913000D01*
X157373000Y-63627000D01*
X157627000Y-63627000D01*
X157627000Y-65913000D01*
X158820155Y-65913000D01*
X158941476Y-65683110D01*
X158896825Y-65535901D01*
X158771641Y-65273080D01*
X158597588Y-65039731D01*
X158513534Y-64963966D01*
X158594180Y-64939502D01*
X158704494Y-64880537D01*
X158801185Y-64801185D01*
X158880537Y-64704494D01*
X158939502Y-64594180D01*
X158975812Y-64474482D01*
X158988072Y-64350000D01*
X158985000Y-63785750D01*
X158826250Y-63627000D01*
X157627000Y-63627000D01*
X157373000Y-63627000D01*
X156173750Y-63627000D01*
X156015000Y-63785750D01*
X156011928Y-64350000D01*
X150957331Y-64350000D01*
X150933739Y-64231399D01*
X150735107Y-63751859D01*
X150446738Y-63320285D01*
X150079715Y-62953262D01*
X149648141Y-62664893D01*
X149612187Y-62650000D01*
X156011928Y-62650000D01*
X156015000Y-63214250D01*
X156173750Y-63373000D01*
X157373000Y-63373000D01*
X157373000Y-62173750D01*
X157627000Y-62173750D01*
X157627000Y-63373000D01*
X158826250Y-63373000D01*
X158985000Y-63214250D01*
X158988072Y-62650000D01*
X158975812Y-62525518D01*
X158939502Y-62405820D01*
X158880537Y-62295506D01*
X158801185Y-62198815D01*
X158704494Y-62119463D01*
X158594180Y-62060498D01*
X158474482Y-62024188D01*
X158350000Y-62011928D01*
X157785750Y-62015000D01*
X157627000Y-62173750D01*
X157373000Y-62173750D01*
X157214250Y-62015000D01*
X156650000Y-62011928D01*
X156525518Y-62024188D01*
X156405820Y-62060498D01*
X156295506Y-62119463D01*
X156198815Y-62198815D01*
X156119463Y-62295506D01*
X156060498Y-62405820D01*
X156024188Y-62525518D01*
X156011928Y-62650000D01*
X149612187Y-62650000D01*
X149168601Y-62466261D01*
X148659525Y-62365000D01*
X148140475Y-62365000D01*
X147631399Y-62466261D01*
X147151859Y-62664893D01*
X146720285Y-62953262D01*
X146353262Y-63320285D01*
X146064893Y-63751859D01*
X145866261Y-64231399D01*
X145765000Y-64740475D01*
X142235000Y-64740475D01*
X142133739Y-64231399D01*
X141935107Y-63751859D01*
X141646738Y-63320285D01*
X141279715Y-62953262D01*
X140848141Y-62664893D01*
X140368601Y-62466261D01*
X139859525Y-62365000D01*
X139340475Y-62365000D01*
X138831399Y-62466261D01*
X138351859Y-62664893D01*
X137920285Y-62953262D01*
X137553262Y-63320285D01*
X137264893Y-63751859D01*
X137066261Y-64231399D01*
X136965000Y-64740475D01*
X123035000Y-64740475D01*
X122933739Y-64231399D01*
X122735107Y-63751859D01*
X122446738Y-63320285D01*
X122079715Y-62953262D01*
X121648141Y-62664893D01*
X121168601Y-62466261D01*
X120659525Y-62365000D01*
X120140475Y-62365000D01*
X119631399Y-62466261D01*
X119151859Y-62664893D01*
X118720285Y-62953262D01*
X118353262Y-63320285D01*
X118064893Y-63751859D01*
X117866261Y-64231399D01*
X117765000Y-64740475D01*
X114235000Y-64740475D01*
X114133739Y-64231399D01*
X113935107Y-63751859D01*
X113646738Y-63320285D01*
X113279715Y-62953262D01*
X112848141Y-62664893D01*
X112368601Y-62466261D01*
X111859525Y-62365000D01*
X111340475Y-62365000D01*
X110831399Y-62466261D01*
X110351859Y-62664893D01*
X109920285Y-62953262D01*
X109553262Y-63320285D01*
X109264893Y-63751859D01*
X109066261Y-64231399D01*
X108965000Y-64740475D01*
X104921343Y-64740475D01*
X103988072Y-63807205D01*
X103988072Y-62650000D01*
X103975812Y-62525518D01*
X103939502Y-62405820D01*
X103880537Y-62295506D01*
X103801185Y-62198815D01*
X103704494Y-62119463D01*
X103594180Y-62060498D01*
X103474482Y-62024188D01*
X103350000Y-62011928D01*
X101650000Y-62011928D01*
X101525518Y-62024188D01*
X101405820Y-62060498D01*
X101295506Y-62119463D01*
X101198815Y-62198815D01*
X101119463Y-62295506D01*
X101060498Y-62405820D01*
X101024188Y-62525518D01*
X101011928Y-62650000D01*
X101011928Y-64350000D01*
X101024188Y-64474482D01*
X101060498Y-64594180D01*
X101119463Y-64704494D01*
X101198815Y-64801185D01*
X101295506Y-64880537D01*
X101405820Y-64939502D01*
X101486466Y-64963966D01*
X101402412Y-65039731D01*
X101228359Y-65273080D01*
X101103175Y-65535901D01*
X101058524Y-65683110D01*
X101179845Y-65913000D01*
X102373000Y-65913000D01*
X102373000Y-65893000D01*
X102627000Y-65893000D01*
X102627000Y-65913000D01*
X102647000Y-65913000D01*
X102647000Y-66167000D01*
X102627000Y-66167000D01*
X102627000Y-66187000D01*
X102373000Y-66187000D01*
X102373000Y-66167000D01*
X101179845Y-66167000D01*
X101058524Y-66396890D01*
X101103175Y-66544099D01*
X101228359Y-66806920D01*
X101402412Y-67040269D01*
X101618645Y-67235178D01*
X101735534Y-67304805D01*
X101553368Y-67426525D01*
X101346525Y-67633368D01*
X101184010Y-67876589D01*
X101072068Y-68146842D01*
X101015000Y-68433740D01*
X101015000Y-68726260D01*
X101072068Y-69013158D01*
X101184010Y-69283411D01*
X101346525Y-69526632D01*
X101553368Y-69733475D01*
X101727760Y-69850000D01*
X101553368Y-69966525D01*
X101346525Y-70173368D01*
X101184010Y-70416589D01*
X101072068Y-70686842D01*
X101015000Y-70973740D01*
X101015000Y-71266260D01*
X101072068Y-71553158D01*
X101184010Y-71823411D01*
X101346525Y-72066632D01*
X101553368Y-72273475D01*
X101727760Y-72390000D01*
X101553368Y-72506525D01*
X101346525Y-72713368D01*
X101184010Y-72956589D01*
X101072068Y-73226842D01*
X101015000Y-73513740D01*
X101015000Y-73806260D01*
X101072068Y-74093158D01*
X101184010Y-74363411D01*
X101346525Y-74606632D01*
X101553368Y-74813475D01*
X101727760Y-74930000D01*
X101553368Y-75046525D01*
X101346525Y-75253368D01*
X101184010Y-75496589D01*
X101072068Y-75766842D01*
X101015000Y-76053740D01*
X101015000Y-76346260D01*
X101072068Y-76633158D01*
X101184010Y-76903411D01*
X101346525Y-77146632D01*
X101553368Y-77353475D01*
X101727760Y-77470000D01*
X101553368Y-77586525D01*
X101346525Y-77793368D01*
X101184010Y-78036589D01*
X101072068Y-78306842D01*
X101015000Y-78593740D01*
X101015000Y-78886260D01*
X101041193Y-79017940D01*
X100735000Y-79324133D01*
X100735000Y-54900000D01*
X102461928Y-54900000D01*
X102474188Y-55024482D01*
X102510498Y-55144180D01*
X102569463Y-55254494D01*
X102648815Y-55351185D01*
X102745506Y-55430537D01*
X102855820Y-55489502D01*
X102975518Y-55525812D01*
X103100000Y-55538072D01*
X103714250Y-55535000D01*
X103873000Y-55376250D01*
X103873000Y-54127000D01*
X102623750Y-54127000D01*
X102465000Y-54285750D01*
X102461928Y-54900000D01*
X100735000Y-54900000D01*
X100735000Y-53100000D01*
X102461928Y-53100000D01*
X102465000Y-53714250D01*
X102623750Y-53873000D01*
X103873000Y-53873000D01*
X103873000Y-52623750D01*
X104127000Y-52623750D01*
X104127000Y-53873000D01*
X104147000Y-53873000D01*
X104147000Y-54127000D01*
X104127000Y-54127000D01*
X104127000Y-55376250D01*
X104285750Y-55535000D01*
X104900000Y-55538072D01*
X105024482Y-55525812D01*
X105144180Y-55489502D01*
X105254494Y-55430537D01*
X105351185Y-55351185D01*
X105430537Y-55254494D01*
X105489502Y-55144180D01*
X105495056Y-55125873D01*
X105561495Y-55192312D01*
X105812905Y-55360299D01*
X106092257Y-55476011D01*
X106388816Y-55535000D01*
X106691184Y-55535000D01*
X106987743Y-55476011D01*
X107267095Y-55360299D01*
X107518505Y-55192312D01*
X107732312Y-54978505D01*
X107784767Y-54900000D01*
X151911928Y-54900000D01*
X151924188Y-55024482D01*
X151960498Y-55144180D01*
X152019463Y-55254494D01*
X152098815Y-55351185D01*
X152195506Y-55430537D01*
X152305820Y-55489502D01*
X152425518Y-55525812D01*
X152550000Y-55538072D01*
X153164250Y-55535000D01*
X153323000Y-55376250D01*
X153323000Y-54127000D01*
X152073750Y-54127000D01*
X151915000Y-54285750D01*
X151911928Y-54900000D01*
X107784767Y-54900000D01*
X107900299Y-54727095D01*
X108016011Y-54447743D01*
X108075000Y-54151184D01*
X108075000Y-53848816D01*
X108016011Y-53552257D01*
X107900299Y-53272905D01*
X107784768Y-53100000D01*
X151911928Y-53100000D01*
X151915000Y-53714250D01*
X152073750Y-53873000D01*
X153323000Y-53873000D01*
X153323000Y-52623750D01*
X153577000Y-52623750D01*
X153577000Y-53873000D01*
X153597000Y-53873000D01*
X153597000Y-54127000D01*
X153577000Y-54127000D01*
X153577000Y-55376250D01*
X153735750Y-55535000D01*
X154350000Y-55538072D01*
X154474482Y-55525812D01*
X154594180Y-55489502D01*
X154704494Y-55430537D01*
X154801185Y-55351185D01*
X154880537Y-55254494D01*
X154939502Y-55144180D01*
X154945056Y-55125873D01*
X155011495Y-55192312D01*
X155262905Y-55360299D01*
X155542257Y-55476011D01*
X155838816Y-55535000D01*
X156141184Y-55535000D01*
X156437743Y-55476011D01*
X156717095Y-55360299D01*
X156968505Y-55192312D01*
X157182312Y-54978505D01*
X157350299Y-54727095D01*
X157466011Y-54447743D01*
X157525000Y-54151184D01*
X157525000Y-53848816D01*
X157466011Y-53552257D01*
X157350299Y-53272905D01*
X157182312Y-53021495D01*
X156968505Y-52807688D01*
X156717095Y-52639701D01*
X156437743Y-52523989D01*
X156141184Y-52465000D01*
X155838816Y-52465000D01*
X155542257Y-52523989D01*
X155262905Y-52639701D01*
X155011495Y-52807688D01*
X154945056Y-52874127D01*
X154939502Y-52855820D01*
X154880537Y-52745506D01*
X154801185Y-52648815D01*
X154704494Y-52569463D01*
X154594180Y-52510498D01*
X154474482Y-52474188D01*
X154350000Y-52461928D01*
X153735750Y-52465000D01*
X153577000Y-52623750D01*
X153323000Y-52623750D01*
X153164250Y-52465000D01*
X152550000Y-52461928D01*
X152425518Y-52474188D01*
X152305820Y-52510498D01*
X152195506Y-52569463D01*
X152098815Y-52648815D01*
X152019463Y-52745506D01*
X151960498Y-52855820D01*
X151924188Y-52975518D01*
X151911928Y-53100000D01*
X107784768Y-53100000D01*
X107732312Y-53021495D01*
X107518505Y-52807688D01*
X107267095Y-52639701D01*
X106987743Y-52523989D01*
X106691184Y-52465000D01*
X106388816Y-52465000D01*
X106092257Y-52523989D01*
X105812905Y-52639701D01*
X105561495Y-52807688D01*
X105495056Y-52874127D01*
X105489502Y-52855820D01*
X105430537Y-52745506D01*
X105351185Y-52648815D01*
X105254494Y-52569463D01*
X105144180Y-52510498D01*
X105024482Y-52474188D01*
X104900000Y-52461928D01*
X104285750Y-52465000D01*
X104127000Y-52623750D01*
X103873000Y-52623750D01*
X103714250Y-52465000D01*
X103100000Y-52461928D01*
X102975518Y-52474188D01*
X102855820Y-52510498D01*
X102745506Y-52569463D01*
X102648815Y-52648815D01*
X102569463Y-52745506D01*
X102510498Y-52855820D01*
X102474188Y-52975518D01*
X102461928Y-53100000D01*
X100735000Y-53100000D01*
X100735000Y-50735000D01*
X159265000Y-50735000D01*
X159265001Y-159265000D01*
G36*
X149124188Y-139544482D02*
G01*
X149160498Y-139664180D01*
X149219463Y-139774494D01*
X149298815Y-139871185D01*
X149395506Y-139950537D01*
X149505820Y-140009502D01*
X149625518Y-140045812D01*
X149750000Y-140058072D01*
X151151062Y-140058072D01*
X145324136Y-145884999D01*
X130695869Y-145884999D01*
X131560868Y-145020000D01*
X138611928Y-145020000D01*
X138624188Y-145144482D01*
X138660498Y-145264180D01*
X138719463Y-145374494D01*
X138798815Y-145471185D01*
X138895506Y-145550537D01*
X139005820Y-145609502D01*
X139125518Y-145645812D01*
X139250000Y-145658072D01*
X140214250Y-145655000D01*
X140373000Y-145496250D01*
X140373000Y-144647000D01*
X140627000Y-144647000D01*
X140627000Y-145496250D01*
X140785750Y-145655000D01*
X141750000Y-145658072D01*
X141874482Y-145645812D01*
X141994180Y-145609502D01*
X142104494Y-145550537D01*
X142201185Y-145471185D01*
X142280537Y-145374494D01*
X142339502Y-145264180D01*
X142375812Y-145144482D01*
X142388072Y-145020000D01*
X142385000Y-144805750D01*
X142226250Y-144647000D01*
X140627000Y-144647000D01*
X140373000Y-144647000D01*
X138773750Y-144647000D01*
X138615000Y-144805750D01*
X138611928Y-145020000D01*
X131560868Y-145020000D01*
X132560868Y-144020000D01*
X138611928Y-144020000D01*
X138615000Y-144234250D01*
X138773750Y-144393000D01*
X140373000Y-144393000D01*
X140373000Y-143543750D01*
X140627000Y-143543750D01*
X140627000Y-144393000D01*
X142226250Y-144393000D01*
X142385000Y-144234250D01*
X142388072Y-144020000D01*
X142375812Y-143895518D01*
X142339502Y-143775820D01*
X142280537Y-143665506D01*
X142201185Y-143568815D01*
X142104494Y-143489463D01*
X141994180Y-143430498D01*
X141874482Y-143394188D01*
X141750000Y-143381928D01*
X140785750Y-143385000D01*
X140627000Y-143543750D01*
X140373000Y-143543750D01*
X140214250Y-143385000D01*
X139250000Y-143381928D01*
X139125518Y-143394188D01*
X139005820Y-143430498D01*
X138895506Y-143489463D01*
X138798815Y-143568815D01*
X138719463Y-143665506D01*
X138660498Y-143775820D01*
X138624188Y-143895518D01*
X138611928Y-144020000D01*
X132560868Y-144020000D01*
X133645869Y-142935000D01*
X145348984Y-142935000D01*
X145390002Y-142939040D01*
X145431020Y-142935000D01*
X145431021Y-142935000D01*
X145553691Y-142922918D01*
X145711089Y-142875172D01*
X145856148Y-142797636D01*
X145983293Y-142693291D01*
X146009448Y-142661421D01*
X148203434Y-140467437D01*
X148235293Y-140441291D01*
X148261438Y-140409433D01*
X148261441Y-140409430D01*
X148339638Y-140314146D01*
X148375137Y-140247732D01*
X149120082Y-139502788D01*
X149124188Y-139544482D01*
G37*
X149124188Y-139544482D02*
X149160498Y-139664180D01*
X149219463Y-139774494D01*
X149298815Y-139871185D01*
X149395506Y-139950537D01*
X149505820Y-140009502D01*
X149625518Y-140045812D01*
X149750000Y-140058072D01*
X151151062Y-140058072D01*
X145324136Y-145884999D01*
X130695869Y-145884999D01*
X131560868Y-145020000D01*
X138611928Y-145020000D01*
X138624188Y-145144482D01*
X138660498Y-145264180D01*
X138719463Y-145374494D01*
X138798815Y-145471185D01*
X138895506Y-145550537D01*
X139005820Y-145609502D01*
X139125518Y-145645812D01*
X139250000Y-145658072D01*
X140214250Y-145655000D01*
X140373000Y-145496250D01*
X140373000Y-144647000D01*
X140627000Y-144647000D01*
X140627000Y-145496250D01*
X140785750Y-145655000D01*
X141750000Y-145658072D01*
X141874482Y-145645812D01*
X141994180Y-145609502D01*
X142104494Y-145550537D01*
X142201185Y-145471185D01*
X142280537Y-145374494D01*
X142339502Y-145264180D01*
X142375812Y-145144482D01*
X142388072Y-145020000D01*
X142385000Y-144805750D01*
X142226250Y-144647000D01*
X140627000Y-144647000D01*
X140373000Y-144647000D01*
X138773750Y-144647000D01*
X138615000Y-144805750D01*
X138611928Y-145020000D01*
X131560868Y-145020000D01*
X132560868Y-144020000D01*
X138611928Y-144020000D01*
X138615000Y-144234250D01*
X138773750Y-144393000D01*
X140373000Y-144393000D01*
X140373000Y-143543750D01*
X140627000Y-143543750D01*
X140627000Y-144393000D01*
X142226250Y-144393000D01*
X142385000Y-144234250D01*
X142388072Y-144020000D01*
X142375812Y-143895518D01*
X142339502Y-143775820D01*
X142280537Y-143665506D01*
X142201185Y-143568815D01*
X142104494Y-143489463D01*
X141994180Y-143430498D01*
X141874482Y-143394188D01*
X141750000Y-143381928D01*
X140785750Y-143385000D01*
X140627000Y-143543750D01*
X140373000Y-143543750D01*
X140214250Y-143385000D01*
X139250000Y-143381928D01*
X139125518Y-143394188D01*
X139005820Y-143430498D01*
X138895506Y-143489463D01*
X138798815Y-143568815D01*
X138719463Y-143665506D01*
X138660498Y-143775820D01*
X138624188Y-143895518D01*
X138611928Y-144020000D01*
X132560868Y-144020000D01*
X133645869Y-142935000D01*
X145348984Y-142935000D01*
X145390002Y-142939040D01*
X145431020Y-142935000D01*
X145431021Y-142935000D01*
X145553691Y-142922918D01*
X145711089Y-142875172D01*
X145856148Y-142797636D01*
X145983293Y-142693291D01*
X146009448Y-142661421D01*
X148203434Y-140467437D01*
X148235293Y-140441291D01*
X148261438Y-140409433D01*
X148261441Y-140409430D01*
X148339638Y-140314146D01*
X148375137Y-140247732D01*
X149120082Y-139502788D01*
X149124188Y-139544482D01*
G36*
X141498671Y-115679539D02*
G01*
X141465000Y-115848816D01*
X141465000Y-116151184D01*
X141523989Y-116447743D01*
X141639701Y-116727095D01*
X141807688Y-116978505D01*
X142021495Y-117192312D01*
X142272905Y-117360299D01*
X142552257Y-117476011D01*
X142794863Y-117524268D01*
X132734132Y-127585001D01*
X127563019Y-127585001D01*
X127522001Y-127580961D01*
X127480983Y-127585001D01*
X127480982Y-127585001D01*
X127358312Y-127597083D01*
X127200914Y-127644829D01*
X127055855Y-127722365D01*
X126928710Y-127826710D01*
X126902564Y-127858569D01*
X121312094Y-133449040D01*
X121170466Y-133107118D01*
X120964175Y-132798382D01*
X120701618Y-132535825D01*
X120392882Y-132329534D01*
X120049834Y-132187439D01*
X119685656Y-132115000D01*
X119314344Y-132115000D01*
X118950166Y-132187439D01*
X118607118Y-132329534D01*
X118298382Y-132535825D01*
X118035825Y-132798382D01*
X117829534Y-133107118D01*
X117687439Y-133450166D01*
X117615000Y-133814344D01*
X117615000Y-134185656D01*
X117687439Y-134549834D01*
X117829534Y-134892882D01*
X118035825Y-135201618D01*
X118298382Y-135464175D01*
X118607118Y-135670466D01*
X118949040Y-135812095D01*
X115776134Y-138985001D01*
X111765866Y-138985001D01*
X113961428Y-136789440D01*
X113993291Y-136763291D01*
X114097636Y-136636146D01*
X114175172Y-136491087D01*
X114222918Y-136333689D01*
X114235000Y-136211019D01*
X114235000Y-136211009D01*
X114239039Y-136170001D01*
X114235000Y-136128993D01*
X114235000Y-131120000D01*
X117611928Y-131120000D01*
X117624188Y-131244482D01*
X117660498Y-131364180D01*
X117719463Y-131474494D01*
X117798815Y-131571185D01*
X117895506Y-131650537D01*
X118005820Y-131709502D01*
X118125518Y-131745812D01*
X118250000Y-131758072D01*
X119214250Y-131755000D01*
X119373000Y-131596250D01*
X119373000Y-130747000D01*
X119627000Y-130747000D01*
X119627000Y-131596250D01*
X119785750Y-131755000D01*
X120750000Y-131758072D01*
X120874482Y-131745812D01*
X120994180Y-131709502D01*
X121104494Y-131650537D01*
X121201185Y-131571185D01*
X121280537Y-131474494D01*
X121339502Y-131364180D01*
X121375812Y-131244482D01*
X121388072Y-131120000D01*
X121385000Y-130905750D01*
X121226250Y-130747000D01*
X119627000Y-130747000D01*
X119373000Y-130747000D01*
X117773750Y-130747000D01*
X117615000Y-130905750D01*
X117611928Y-131120000D01*
X114235000Y-131120000D01*
X114235000Y-130120000D01*
X117611928Y-130120000D01*
X117615000Y-130334250D01*
X117773750Y-130493000D01*
X119373000Y-130493000D01*
X119373000Y-129643750D01*
X119627000Y-129643750D01*
X119627000Y-130493000D01*
X121226250Y-130493000D01*
X121385000Y-130334250D01*
X121388072Y-130120000D01*
X121375812Y-129995518D01*
X121339502Y-129875820D01*
X121280537Y-129765506D01*
X121201185Y-129668815D01*
X121104494Y-129589463D01*
X120994180Y-129530498D01*
X120874482Y-129494188D01*
X120750000Y-129481928D01*
X119785750Y-129485000D01*
X119627000Y-129643750D01*
X119373000Y-129643750D01*
X119214250Y-129485000D01*
X118250000Y-129481928D01*
X118125518Y-129494188D01*
X118005820Y-129530498D01*
X117895506Y-129589463D01*
X117798815Y-129668815D01*
X117719463Y-129765506D01*
X117660498Y-129875820D01*
X117624188Y-129995518D01*
X117611928Y-130120000D01*
X114235000Y-130120000D01*
X114235000Y-128020000D01*
X117611928Y-128020000D01*
X117624188Y-128144482D01*
X117660498Y-128264180D01*
X117719463Y-128374494D01*
X117798815Y-128471185D01*
X117895506Y-128550537D01*
X118005820Y-128609502D01*
X118125518Y-128645812D01*
X118250000Y-128658072D01*
X119214250Y-128655000D01*
X119373000Y-128496250D01*
X119373000Y-127647000D01*
X119627000Y-127647000D01*
X119627000Y-128496250D01*
X119785750Y-128655000D01*
X120750000Y-128658072D01*
X120874482Y-128645812D01*
X120994180Y-128609502D01*
X121104494Y-128550537D01*
X121201185Y-128471185D01*
X121280537Y-128374494D01*
X121339502Y-128264180D01*
X121375812Y-128144482D01*
X121388072Y-128020000D01*
X121385000Y-127805750D01*
X121226250Y-127647000D01*
X119627000Y-127647000D01*
X119373000Y-127647000D01*
X117773750Y-127647000D01*
X117615000Y-127805750D01*
X117611928Y-128020000D01*
X114235000Y-128020000D01*
X114235000Y-127020000D01*
X117611928Y-127020000D01*
X117615000Y-127234250D01*
X117773750Y-127393000D01*
X119373000Y-127393000D01*
X119373000Y-126543750D01*
X119627000Y-126543750D01*
X119627000Y-127393000D01*
X121226250Y-127393000D01*
X121385000Y-127234250D01*
X121388072Y-127020000D01*
X128111928Y-127020000D01*
X128115000Y-127234250D01*
X128273750Y-127393000D01*
X129873000Y-127393000D01*
X129873000Y-126543750D01*
X130127000Y-126543750D01*
X130127000Y-127393000D01*
X131726250Y-127393000D01*
X131885000Y-127234250D01*
X131888072Y-127020000D01*
X131875812Y-126895518D01*
X131839502Y-126775820D01*
X131780537Y-126665506D01*
X131701185Y-126568815D01*
X131604494Y-126489463D01*
X131494180Y-126430498D01*
X131374482Y-126394188D01*
X131250000Y-126381928D01*
X130285750Y-126385000D01*
X130127000Y-126543750D01*
X129873000Y-126543750D01*
X129714250Y-126385000D01*
X128750000Y-126381928D01*
X128625518Y-126394188D01*
X128505820Y-126430498D01*
X128395506Y-126489463D01*
X128298815Y-126568815D01*
X128219463Y-126665506D01*
X128160498Y-126775820D01*
X128124188Y-126895518D01*
X128111928Y-127020000D01*
X121388072Y-127020000D01*
X121375812Y-126895518D01*
X121339502Y-126775820D01*
X121280537Y-126665506D01*
X121201185Y-126568815D01*
X121104494Y-126489463D01*
X120994180Y-126430498D01*
X120874482Y-126394188D01*
X120750000Y-126381928D01*
X119785750Y-126385000D01*
X119627000Y-126543750D01*
X119373000Y-126543750D01*
X119214250Y-126385000D01*
X118250000Y-126381928D01*
X118125518Y-126394188D01*
X118005820Y-126430498D01*
X117895506Y-126489463D01*
X117798815Y-126568815D01*
X117719463Y-126665506D01*
X117660498Y-126775820D01*
X117624188Y-126895518D01*
X117611928Y-127020000D01*
X114235000Y-127020000D01*
X114235000Y-126513285D01*
X114317205Y-126390256D01*
X114395226Y-126201898D01*
X114435000Y-126001939D01*
X114435000Y-125798061D01*
X114395226Y-125598102D01*
X114317205Y-125409744D01*
X114203937Y-125240226D01*
X114059774Y-125096063D01*
X113890256Y-124982795D01*
X113701898Y-124904774D01*
X113501939Y-124865000D01*
X113298061Y-124865000D01*
X113098102Y-124904774D01*
X112909744Y-124982795D01*
X112740226Y-125096063D01*
X112596063Y-125240226D01*
X112482795Y-125409744D01*
X112404774Y-125598102D01*
X112365000Y-125798061D01*
X112365000Y-126001939D01*
X112404774Y-126201898D01*
X112482795Y-126390256D01*
X112565001Y-126513286D01*
X112565000Y-135824132D01*
X110536183Y-137852950D01*
X110494180Y-137830498D01*
X110374482Y-137794188D01*
X110250000Y-137781928D01*
X107750000Y-137781928D01*
X107625518Y-137794188D01*
X107505820Y-137830498D01*
X107395506Y-137889463D01*
X107298815Y-137968815D01*
X107219463Y-138065506D01*
X107160498Y-138175820D01*
X107124188Y-138295518D01*
X107111928Y-138420000D01*
X107111928Y-138511059D01*
X103958807Y-135357940D01*
X103985000Y-135226260D01*
X103985000Y-134933740D01*
X103927932Y-134646842D01*
X103815990Y-134376589D01*
X103653475Y-134133368D01*
X103446632Y-133926525D01*
X103278742Y-133814344D01*
X107115000Y-133814344D01*
X107115000Y-134185656D01*
X107187439Y-134549834D01*
X107329534Y-134892882D01*
X107535825Y-135201618D01*
X107798382Y-135464175D01*
X108107118Y-135670466D01*
X108450166Y-135812561D01*
X108814344Y-135885000D01*
X109185656Y-135885000D01*
X109549834Y-135812561D01*
X109892882Y-135670466D01*
X110201618Y-135464175D01*
X110464175Y-135201618D01*
X110670466Y-134892882D01*
X110812561Y-134549834D01*
X110885000Y-134185656D01*
X110885000Y-133814344D01*
X110812561Y-133450166D01*
X110670466Y-133107118D01*
X110464175Y-132798382D01*
X110201618Y-132535825D01*
X109892882Y-132329534D01*
X109549834Y-132187439D01*
X109185656Y-132115000D01*
X108814344Y-132115000D01*
X108450166Y-132187439D01*
X108107118Y-132329534D01*
X107798382Y-132535825D01*
X107535825Y-132798382D01*
X107329534Y-133107118D01*
X107187439Y-133450166D01*
X107115000Y-133814344D01*
X103278742Y-133814344D01*
X103272240Y-133810000D01*
X103446632Y-133693475D01*
X103653475Y-133486632D01*
X103815990Y-133243411D01*
X103927932Y-132973158D01*
X103985000Y-132686260D01*
X103985000Y-132393740D01*
X103958807Y-132262061D01*
X104311429Y-131909439D01*
X104343292Y-131883290D01*
X104447637Y-131756145D01*
X104525173Y-131611086D01*
X104572919Y-131453688D01*
X104585001Y-131331018D01*
X104585001Y-131331008D01*
X104589040Y-131290000D01*
X104585001Y-131248992D01*
X104585001Y-131120000D01*
X107111928Y-131120000D01*
X107124188Y-131244482D01*
X107160498Y-131364180D01*
X107219463Y-131474494D01*
X107298815Y-131571185D01*
X107395506Y-131650537D01*
X107505820Y-131709502D01*
X107625518Y-131745812D01*
X107750000Y-131758072D01*
X108714250Y-131755000D01*
X108873000Y-131596250D01*
X108873000Y-130747000D01*
X109127000Y-130747000D01*
X109127000Y-131596250D01*
X109285750Y-131755000D01*
X110250000Y-131758072D01*
X110374482Y-131745812D01*
X110494180Y-131709502D01*
X110604494Y-131650537D01*
X110701185Y-131571185D01*
X110780537Y-131474494D01*
X110839502Y-131364180D01*
X110875812Y-131244482D01*
X110888072Y-131120000D01*
X110885000Y-130905750D01*
X110726250Y-130747000D01*
X109127000Y-130747000D01*
X108873000Y-130747000D01*
X107273750Y-130747000D01*
X107115000Y-130905750D01*
X107111928Y-131120000D01*
X104585001Y-131120000D01*
X104585001Y-130120000D01*
X107111928Y-130120000D01*
X107115000Y-130334250D01*
X107273750Y-130493000D01*
X108873000Y-130493000D01*
X108873000Y-129643750D01*
X109127000Y-129643750D01*
X109127000Y-130493000D01*
X110726250Y-130493000D01*
X110885000Y-130334250D01*
X110888072Y-130120000D01*
X110875812Y-129995518D01*
X110839502Y-129875820D01*
X110780537Y-129765506D01*
X110701185Y-129668815D01*
X110604494Y-129589463D01*
X110494180Y-129530498D01*
X110374482Y-129494188D01*
X110250000Y-129481928D01*
X109285750Y-129485000D01*
X109127000Y-129643750D01*
X108873000Y-129643750D01*
X108714250Y-129485000D01*
X107750000Y-129481928D01*
X107625518Y-129494188D01*
X107505820Y-129530498D01*
X107395506Y-129589463D01*
X107298815Y-129668815D01*
X107219463Y-129765506D01*
X107160498Y-129875820D01*
X107124188Y-129995518D01*
X107111928Y-130120000D01*
X104585001Y-130120000D01*
X104585001Y-128020000D01*
X107111928Y-128020000D01*
X107124188Y-128144482D01*
X107160498Y-128264180D01*
X107219463Y-128374494D01*
X107298815Y-128471185D01*
X107395506Y-128550537D01*
X107505820Y-128609502D01*
X107625518Y-128645812D01*
X107750000Y-128658072D01*
X108714250Y-128655000D01*
X108873000Y-128496250D01*
X108873000Y-127647000D01*
X109127000Y-127647000D01*
X109127000Y-128496250D01*
X109285750Y-128655000D01*
X110250000Y-128658072D01*
X110374482Y-128645812D01*
X110494180Y-128609502D01*
X110604494Y-128550537D01*
X110701185Y-128471185D01*
X110780537Y-128374494D01*
X110839502Y-128264180D01*
X110875812Y-128144482D01*
X110888072Y-128020000D01*
X110885000Y-127805750D01*
X110726250Y-127647000D01*
X109127000Y-127647000D01*
X108873000Y-127647000D01*
X107273750Y-127647000D01*
X107115000Y-127805750D01*
X107111928Y-128020000D01*
X104585001Y-128020000D01*
X104585001Y-127095866D01*
X104660867Y-127020000D01*
X107111928Y-127020000D01*
X107115000Y-127234250D01*
X107273750Y-127393000D01*
X108873000Y-127393000D01*
X108873000Y-126543750D01*
X109127000Y-126543750D01*
X109127000Y-127393000D01*
X110726250Y-127393000D01*
X110885000Y-127234250D01*
X110888072Y-127020000D01*
X110875812Y-126895518D01*
X110839502Y-126775820D01*
X110780537Y-126665506D01*
X110701185Y-126568815D01*
X110604494Y-126489463D01*
X110494180Y-126430498D01*
X110374482Y-126394188D01*
X110250000Y-126381928D01*
X109285750Y-126385000D01*
X109127000Y-126543750D01*
X108873000Y-126543750D01*
X108714250Y-126385000D01*
X107750000Y-126381928D01*
X107625518Y-126394188D01*
X107505820Y-126430498D01*
X107395506Y-126489463D01*
X107298815Y-126568815D01*
X107219463Y-126665506D01*
X107160498Y-126775820D01*
X107124188Y-126895518D01*
X107111928Y-127020000D01*
X104660867Y-127020000D01*
X114179539Y-117501329D01*
X114348816Y-117535000D01*
X114651184Y-117535000D01*
X114947743Y-117476011D01*
X115227095Y-117360299D01*
X115478505Y-117192312D01*
X115606737Y-117064080D01*
X116115525Y-117064080D01*
X116199208Y-117318261D01*
X116471775Y-117449158D01*
X116764642Y-117524365D01*
X117066553Y-117540991D01*
X117365907Y-117498397D01*
X117651199Y-117398222D01*
X117800792Y-117318261D01*
X117884475Y-117064080D01*
X117000000Y-116179605D01*
X116115525Y-117064080D01*
X115606737Y-117064080D01*
X115692312Y-116978505D01*
X115787738Y-116835690D01*
X115935920Y-116884475D01*
X116820395Y-116000000D01*
X116806253Y-115985858D01*
X116985858Y-115806253D01*
X117000000Y-115820395D01*
X117014143Y-115806253D01*
X117193748Y-115985858D01*
X117179605Y-116000000D01*
X118064080Y-116884475D01*
X118318261Y-116800792D01*
X118449158Y-116528225D01*
X118524365Y-116235358D01*
X118540991Y-115933447D01*
X118498397Y-115634093D01*
X118463602Y-115534999D01*
X141354132Y-115534999D01*
X141498671Y-115679539D01*
G37*
X141498671Y-115679539D02*
X141465000Y-115848816D01*
X141465000Y-116151184D01*
X141523989Y-116447743D01*
X141639701Y-116727095D01*
X141807688Y-116978505D01*
X142021495Y-117192312D01*
X142272905Y-117360299D01*
X142552257Y-117476011D01*
X142794863Y-117524268D01*
X132734132Y-127585001D01*
X127563019Y-127585001D01*
X127522001Y-127580961D01*
X127480983Y-127585001D01*
X127480982Y-127585001D01*
X127358312Y-127597083D01*
X127200914Y-127644829D01*
X127055855Y-127722365D01*
X126928710Y-127826710D01*
X126902564Y-127858569D01*
X121312094Y-133449040D01*
X121170466Y-133107118D01*
X120964175Y-132798382D01*
X120701618Y-132535825D01*
X120392882Y-132329534D01*
X120049834Y-132187439D01*
X119685656Y-132115000D01*
X119314344Y-132115000D01*
X118950166Y-132187439D01*
X118607118Y-132329534D01*
X118298382Y-132535825D01*
X118035825Y-132798382D01*
X117829534Y-133107118D01*
X117687439Y-133450166D01*
X117615000Y-133814344D01*
X117615000Y-134185656D01*
X117687439Y-134549834D01*
X117829534Y-134892882D01*
X118035825Y-135201618D01*
X118298382Y-135464175D01*
X118607118Y-135670466D01*
X118949040Y-135812095D01*
X115776134Y-138985001D01*
X111765866Y-138985001D01*
X113961428Y-136789440D01*
X113993291Y-136763291D01*
X114097636Y-136636146D01*
X114175172Y-136491087D01*
X114222918Y-136333689D01*
X114235000Y-136211019D01*
X114235000Y-136211009D01*
X114239039Y-136170001D01*
X114235000Y-136128993D01*
X114235000Y-131120000D01*
X117611928Y-131120000D01*
X117624188Y-131244482D01*
X117660498Y-131364180D01*
X117719463Y-131474494D01*
X117798815Y-131571185D01*
X117895506Y-131650537D01*
X118005820Y-131709502D01*
X118125518Y-131745812D01*
X118250000Y-131758072D01*
X119214250Y-131755000D01*
X119373000Y-131596250D01*
X119373000Y-130747000D01*
X119627000Y-130747000D01*
X119627000Y-131596250D01*
X119785750Y-131755000D01*
X120750000Y-131758072D01*
X120874482Y-131745812D01*
X120994180Y-131709502D01*
X121104494Y-131650537D01*
X121201185Y-131571185D01*
X121280537Y-131474494D01*
X121339502Y-131364180D01*
X121375812Y-131244482D01*
X121388072Y-131120000D01*
X121385000Y-130905750D01*
X121226250Y-130747000D01*
X119627000Y-130747000D01*
X119373000Y-130747000D01*
X117773750Y-130747000D01*
X117615000Y-130905750D01*
X117611928Y-131120000D01*
X114235000Y-131120000D01*
X114235000Y-130120000D01*
X117611928Y-130120000D01*
X117615000Y-130334250D01*
X117773750Y-130493000D01*
X119373000Y-130493000D01*
X119373000Y-129643750D01*
X119627000Y-129643750D01*
X119627000Y-130493000D01*
X121226250Y-130493000D01*
X121385000Y-130334250D01*
X121388072Y-130120000D01*
X121375812Y-129995518D01*
X121339502Y-129875820D01*
X121280537Y-129765506D01*
X121201185Y-129668815D01*
X121104494Y-129589463D01*
X120994180Y-129530498D01*
X120874482Y-129494188D01*
X120750000Y-129481928D01*
X119785750Y-129485000D01*
X119627000Y-129643750D01*
X119373000Y-129643750D01*
X119214250Y-129485000D01*
X118250000Y-129481928D01*
X118125518Y-129494188D01*
X118005820Y-129530498D01*
X117895506Y-129589463D01*
X117798815Y-129668815D01*
X117719463Y-129765506D01*
X117660498Y-129875820D01*
X117624188Y-129995518D01*
X117611928Y-130120000D01*
X114235000Y-130120000D01*
X114235000Y-128020000D01*
X117611928Y-128020000D01*
X117624188Y-128144482D01*
X117660498Y-128264180D01*
X117719463Y-128374494D01*
X117798815Y-128471185D01*
X117895506Y-128550537D01*
X118005820Y-128609502D01*
X118125518Y-128645812D01*
X118250000Y-128658072D01*
X119214250Y-128655000D01*
X119373000Y-128496250D01*
X119373000Y-127647000D01*
X119627000Y-127647000D01*
X119627000Y-128496250D01*
X119785750Y-128655000D01*
X120750000Y-128658072D01*
X120874482Y-128645812D01*
X120994180Y-128609502D01*
X121104494Y-128550537D01*
X121201185Y-128471185D01*
X121280537Y-128374494D01*
X121339502Y-128264180D01*
X121375812Y-128144482D01*
X121388072Y-128020000D01*
X121385000Y-127805750D01*
X121226250Y-127647000D01*
X119627000Y-127647000D01*
X119373000Y-127647000D01*
X117773750Y-127647000D01*
X117615000Y-127805750D01*
X117611928Y-128020000D01*
X114235000Y-128020000D01*
X114235000Y-127020000D01*
X117611928Y-127020000D01*
X117615000Y-127234250D01*
X117773750Y-127393000D01*
X119373000Y-127393000D01*
X119373000Y-126543750D01*
X119627000Y-126543750D01*
X119627000Y-127393000D01*
X121226250Y-127393000D01*
X121385000Y-127234250D01*
X121388072Y-127020000D01*
X128111928Y-127020000D01*
X128115000Y-127234250D01*
X128273750Y-127393000D01*
X129873000Y-127393000D01*
X129873000Y-126543750D01*
X130127000Y-126543750D01*
X130127000Y-127393000D01*
X131726250Y-127393000D01*
X131885000Y-127234250D01*
X131888072Y-127020000D01*
X131875812Y-126895518D01*
X131839502Y-126775820D01*
X131780537Y-126665506D01*
X131701185Y-126568815D01*
X131604494Y-126489463D01*
X131494180Y-126430498D01*
X131374482Y-126394188D01*
X131250000Y-126381928D01*
X130285750Y-126385000D01*
X130127000Y-126543750D01*
X129873000Y-126543750D01*
X129714250Y-126385000D01*
X128750000Y-126381928D01*
X128625518Y-126394188D01*
X128505820Y-126430498D01*
X128395506Y-126489463D01*
X128298815Y-126568815D01*
X128219463Y-126665506D01*
X128160498Y-126775820D01*
X128124188Y-126895518D01*
X128111928Y-127020000D01*
X121388072Y-127020000D01*
X121375812Y-126895518D01*
X121339502Y-126775820D01*
X121280537Y-126665506D01*
X121201185Y-126568815D01*
X121104494Y-126489463D01*
X120994180Y-126430498D01*
X120874482Y-126394188D01*
X120750000Y-126381928D01*
X119785750Y-126385000D01*
X119627000Y-126543750D01*
X119373000Y-126543750D01*
X119214250Y-126385000D01*
X118250000Y-126381928D01*
X118125518Y-126394188D01*
X118005820Y-126430498D01*
X117895506Y-126489463D01*
X117798815Y-126568815D01*
X117719463Y-126665506D01*
X117660498Y-126775820D01*
X117624188Y-126895518D01*
X117611928Y-127020000D01*
X114235000Y-127020000D01*
X114235000Y-126513285D01*
X114317205Y-126390256D01*
X114395226Y-126201898D01*
X114435000Y-126001939D01*
X114435000Y-125798061D01*
X114395226Y-125598102D01*
X114317205Y-125409744D01*
X114203937Y-125240226D01*
X114059774Y-125096063D01*
X113890256Y-124982795D01*
X113701898Y-124904774D01*
X113501939Y-124865000D01*
X113298061Y-124865000D01*
X113098102Y-124904774D01*
X112909744Y-124982795D01*
X112740226Y-125096063D01*
X112596063Y-125240226D01*
X112482795Y-125409744D01*
X112404774Y-125598102D01*
X112365000Y-125798061D01*
X112365000Y-126001939D01*
X112404774Y-126201898D01*
X112482795Y-126390256D01*
X112565001Y-126513286D01*
X112565000Y-135824132D01*
X110536183Y-137852950D01*
X110494180Y-137830498D01*
X110374482Y-137794188D01*
X110250000Y-137781928D01*
X107750000Y-137781928D01*
X107625518Y-137794188D01*
X107505820Y-137830498D01*
X107395506Y-137889463D01*
X107298815Y-137968815D01*
X107219463Y-138065506D01*
X107160498Y-138175820D01*
X107124188Y-138295518D01*
X107111928Y-138420000D01*
X107111928Y-138511059D01*
X103958807Y-135357940D01*
X103985000Y-135226260D01*
X103985000Y-134933740D01*
X103927932Y-134646842D01*
X103815990Y-134376589D01*
X103653475Y-134133368D01*
X103446632Y-133926525D01*
X103278742Y-133814344D01*
X107115000Y-133814344D01*
X107115000Y-134185656D01*
X107187439Y-134549834D01*
X107329534Y-134892882D01*
X107535825Y-135201618D01*
X107798382Y-135464175D01*
X108107118Y-135670466D01*
X108450166Y-135812561D01*
X108814344Y-135885000D01*
X109185656Y-135885000D01*
X109549834Y-135812561D01*
X109892882Y-135670466D01*
X110201618Y-135464175D01*
X110464175Y-135201618D01*
X110670466Y-134892882D01*
X110812561Y-134549834D01*
X110885000Y-134185656D01*
X110885000Y-133814344D01*
X110812561Y-133450166D01*
X110670466Y-133107118D01*
X110464175Y-132798382D01*
X110201618Y-132535825D01*
X109892882Y-132329534D01*
X109549834Y-132187439D01*
X109185656Y-132115000D01*
X108814344Y-132115000D01*
X108450166Y-132187439D01*
X108107118Y-132329534D01*
X107798382Y-132535825D01*
X107535825Y-132798382D01*
X107329534Y-133107118D01*
X107187439Y-133450166D01*
X107115000Y-133814344D01*
X103278742Y-133814344D01*
X103272240Y-133810000D01*
X103446632Y-133693475D01*
X103653475Y-133486632D01*
X103815990Y-133243411D01*
X103927932Y-132973158D01*
X103985000Y-132686260D01*
X103985000Y-132393740D01*
X103958807Y-132262061D01*
X104311429Y-131909439D01*
X104343292Y-131883290D01*
X104447637Y-131756145D01*
X104525173Y-131611086D01*
X104572919Y-131453688D01*
X104585001Y-131331018D01*
X104585001Y-131331008D01*
X104589040Y-131290000D01*
X104585001Y-131248992D01*
X104585001Y-131120000D01*
X107111928Y-131120000D01*
X107124188Y-131244482D01*
X107160498Y-131364180D01*
X107219463Y-131474494D01*
X107298815Y-131571185D01*
X107395506Y-131650537D01*
X107505820Y-131709502D01*
X107625518Y-131745812D01*
X107750000Y-131758072D01*
X108714250Y-131755000D01*
X108873000Y-131596250D01*
X108873000Y-130747000D01*
X109127000Y-130747000D01*
X109127000Y-131596250D01*
X109285750Y-131755000D01*
X110250000Y-131758072D01*
X110374482Y-131745812D01*
X110494180Y-131709502D01*
X110604494Y-131650537D01*
X110701185Y-131571185D01*
X110780537Y-131474494D01*
X110839502Y-131364180D01*
X110875812Y-131244482D01*
X110888072Y-131120000D01*
X110885000Y-130905750D01*
X110726250Y-130747000D01*
X109127000Y-130747000D01*
X108873000Y-130747000D01*
X107273750Y-130747000D01*
X107115000Y-130905750D01*
X107111928Y-131120000D01*
X104585001Y-131120000D01*
X104585001Y-130120000D01*
X107111928Y-130120000D01*
X107115000Y-130334250D01*
X107273750Y-130493000D01*
X108873000Y-130493000D01*
X108873000Y-129643750D01*
X109127000Y-129643750D01*
X109127000Y-130493000D01*
X110726250Y-130493000D01*
X110885000Y-130334250D01*
X110888072Y-130120000D01*
X110875812Y-129995518D01*
X110839502Y-129875820D01*
X110780537Y-129765506D01*
X110701185Y-129668815D01*
X110604494Y-129589463D01*
X110494180Y-129530498D01*
X110374482Y-129494188D01*
X110250000Y-129481928D01*
X109285750Y-129485000D01*
X109127000Y-129643750D01*
X108873000Y-129643750D01*
X108714250Y-129485000D01*
X107750000Y-129481928D01*
X107625518Y-129494188D01*
X107505820Y-129530498D01*
X107395506Y-129589463D01*
X107298815Y-129668815D01*
X107219463Y-129765506D01*
X107160498Y-129875820D01*
X107124188Y-129995518D01*
X107111928Y-130120000D01*
X104585001Y-130120000D01*
X104585001Y-128020000D01*
X107111928Y-128020000D01*
X107124188Y-128144482D01*
X107160498Y-128264180D01*
X107219463Y-128374494D01*
X107298815Y-128471185D01*
X107395506Y-128550537D01*
X107505820Y-128609502D01*
X107625518Y-128645812D01*
X107750000Y-128658072D01*
X108714250Y-128655000D01*
X108873000Y-128496250D01*
X108873000Y-127647000D01*
X109127000Y-127647000D01*
X109127000Y-128496250D01*
X109285750Y-128655000D01*
X110250000Y-128658072D01*
X110374482Y-128645812D01*
X110494180Y-128609502D01*
X110604494Y-128550537D01*
X110701185Y-128471185D01*
X110780537Y-128374494D01*
X110839502Y-128264180D01*
X110875812Y-128144482D01*
X110888072Y-128020000D01*
X110885000Y-127805750D01*
X110726250Y-127647000D01*
X109127000Y-127647000D01*
X108873000Y-127647000D01*
X107273750Y-127647000D01*
X107115000Y-127805750D01*
X107111928Y-128020000D01*
X104585001Y-128020000D01*
X104585001Y-127095866D01*
X104660867Y-127020000D01*
X107111928Y-127020000D01*
X107115000Y-127234250D01*
X107273750Y-127393000D01*
X108873000Y-127393000D01*
X108873000Y-126543750D01*
X109127000Y-126543750D01*
X109127000Y-127393000D01*
X110726250Y-127393000D01*
X110885000Y-127234250D01*
X110888072Y-127020000D01*
X110875812Y-126895518D01*
X110839502Y-126775820D01*
X110780537Y-126665506D01*
X110701185Y-126568815D01*
X110604494Y-126489463D01*
X110494180Y-126430498D01*
X110374482Y-126394188D01*
X110250000Y-126381928D01*
X109285750Y-126385000D01*
X109127000Y-126543750D01*
X108873000Y-126543750D01*
X108714250Y-126385000D01*
X107750000Y-126381928D01*
X107625518Y-126394188D01*
X107505820Y-126430498D01*
X107395506Y-126489463D01*
X107298815Y-126568815D01*
X107219463Y-126665506D01*
X107160498Y-126775820D01*
X107124188Y-126895518D01*
X107111928Y-127020000D01*
X104660867Y-127020000D01*
X114179539Y-117501329D01*
X114348816Y-117535000D01*
X114651184Y-117535000D01*
X114947743Y-117476011D01*
X115227095Y-117360299D01*
X115478505Y-117192312D01*
X115606737Y-117064080D01*
X116115525Y-117064080D01*
X116199208Y-117318261D01*
X116471775Y-117449158D01*
X116764642Y-117524365D01*
X117066553Y-117540991D01*
X117365907Y-117498397D01*
X117651199Y-117398222D01*
X117800792Y-117318261D01*
X117884475Y-117064080D01*
X117000000Y-116179605D01*
X116115525Y-117064080D01*
X115606737Y-117064080D01*
X115692312Y-116978505D01*
X115787738Y-116835690D01*
X115935920Y-116884475D01*
X116820395Y-116000000D01*
X116806253Y-115985858D01*
X116985858Y-115806253D01*
X117000000Y-115820395D01*
X117014143Y-115806253D01*
X117193748Y-115985858D01*
X117179605Y-116000000D01*
X118064080Y-116884475D01*
X118318261Y-116800792D01*
X118449158Y-116528225D01*
X118524365Y-116235358D01*
X118540991Y-115933447D01*
X118498397Y-115634093D01*
X118463602Y-115534999D01*
X141354132Y-115534999D01*
X141498671Y-115679539D01*
G36*
X142807688Y-72978505D02*
G01*
X143021495Y-73192312D01*
X143165000Y-73288199D01*
X143165001Y-84078133D01*
X133896867Y-93346267D01*
X133818261Y-93199208D01*
X133564080Y-93115525D01*
X132679605Y-94000000D01*
X132693748Y-94014143D01*
X132514143Y-94193748D01*
X132500000Y-94179605D01*
X131615525Y-95064080D01*
X131699208Y-95318261D01*
X131851660Y-95391474D01*
X122978136Y-104264999D01*
X119289017Y-104264999D01*
X119247999Y-104260959D01*
X119206981Y-104264999D01*
X119206980Y-104264999D01*
X119084310Y-104277081D01*
X118926912Y-104324827D01*
X118781853Y-104402363D01*
X118654708Y-104506708D01*
X118628562Y-104538567D01*
X100735000Y-122432131D01*
X100735000Y-108740475D01*
X107465000Y-108740475D01*
X107465000Y-109259525D01*
X107566261Y-109768601D01*
X107764893Y-110248141D01*
X108053262Y-110679715D01*
X108420285Y-111046738D01*
X108851859Y-111335107D01*
X109331399Y-111533739D01*
X109840475Y-111635000D01*
X110359525Y-111635000D01*
X110868601Y-111533739D01*
X111348141Y-111335107D01*
X111779715Y-111046738D01*
X112146738Y-110679715D01*
X112435107Y-110248141D01*
X112633739Y-109768601D01*
X112735000Y-109259525D01*
X112735000Y-108740475D01*
X112633739Y-108231399D01*
X112435107Y-107751859D01*
X112146738Y-107320285D01*
X111779715Y-106953262D01*
X111348141Y-106664893D01*
X110868601Y-106466261D01*
X110359525Y-106365000D01*
X109840475Y-106365000D01*
X109331399Y-106466261D01*
X108851859Y-106664893D01*
X108420285Y-106953262D01*
X108053262Y-107320285D01*
X107764893Y-107751859D01*
X107566261Y-108231399D01*
X107465000Y-108740475D01*
X100735000Y-108740475D01*
X100735000Y-86115867D01*
X115975908Y-101356777D01*
X116004774Y-101501898D01*
X116082795Y-101690256D01*
X116196063Y-101859774D01*
X116340226Y-102003937D01*
X116509744Y-102117205D01*
X116698102Y-102195226D01*
X116898061Y-102235000D01*
X117101939Y-102235000D01*
X117301898Y-102195226D01*
X117490256Y-102117205D01*
X117659774Y-102003937D01*
X117803937Y-101859774D01*
X117917205Y-101690256D01*
X117995226Y-101501898D01*
X118035000Y-101301939D01*
X118035000Y-101098061D01*
X117995226Y-100898102D01*
X117917205Y-100709744D01*
X117803937Y-100540226D01*
X117659774Y-100396063D01*
X117490256Y-100282795D01*
X117301898Y-100204774D01*
X117156777Y-100175908D01*
X101335010Y-84354143D01*
X101335010Y-82209399D01*
X101346525Y-82226632D01*
X101553368Y-82433475D01*
X101663415Y-82507006D01*
X101665000Y-82523099D01*
X101677082Y-82645769D01*
X101724828Y-82803167D01*
X101802364Y-82948226D01*
X101906709Y-83075372D01*
X101938579Y-83101527D01*
X114698479Y-95861428D01*
X114724629Y-95893292D01*
X114851774Y-95997637D01*
X114996833Y-96075173D01*
X115154231Y-96122919D01*
X115276901Y-96135001D01*
X115276911Y-96135001D01*
X115317919Y-96139040D01*
X115358927Y-96135001D01*
X128658981Y-96135001D01*
X128699999Y-96139041D01*
X128741017Y-96135001D01*
X128741018Y-96135001D01*
X128863688Y-96122919D01*
X129021086Y-96075173D01*
X129166145Y-95997637D01*
X129293290Y-95893292D01*
X129319445Y-95861422D01*
X129679539Y-95501329D01*
X129848816Y-95535000D01*
X130151184Y-95535000D01*
X130447743Y-95476011D01*
X130727095Y-95360299D01*
X130978505Y-95192312D01*
X131192312Y-94978505D01*
X131287738Y-94835690D01*
X131435920Y-94884475D01*
X132320395Y-94000000D01*
X131435920Y-93115525D01*
X131287738Y-93164310D01*
X131192312Y-93021495D01*
X131106737Y-92935920D01*
X131615525Y-92935920D01*
X132500000Y-93820395D01*
X133384475Y-92935920D01*
X133300792Y-92681739D01*
X133028225Y-92550842D01*
X132735358Y-92475635D01*
X132433447Y-92459009D01*
X132134093Y-92501603D01*
X131848801Y-92601778D01*
X131699208Y-92681739D01*
X131615525Y-92935920D01*
X131106737Y-92935920D01*
X130978505Y-92807688D01*
X130727095Y-92639701D01*
X130447743Y-92523989D01*
X130151184Y-92465000D01*
X129848816Y-92465000D01*
X129552257Y-92523989D01*
X129272905Y-92639701D01*
X129021495Y-92807688D01*
X128807688Y-93021495D01*
X128750000Y-93107831D01*
X128692312Y-93021495D01*
X128478505Y-92807688D01*
X128335000Y-92711801D01*
X128335000Y-90693865D01*
X131765720Y-87263145D01*
X131866261Y-87768601D01*
X132064893Y-88248141D01*
X132353262Y-88679715D01*
X132720285Y-89046738D01*
X133151859Y-89335107D01*
X133631399Y-89533739D01*
X134140475Y-89635000D01*
X134659525Y-89635000D01*
X135168601Y-89533739D01*
X135648141Y-89335107D01*
X136079715Y-89046738D01*
X136446738Y-88679715D01*
X136735107Y-88248141D01*
X136933739Y-87768601D01*
X137035000Y-87259525D01*
X137035000Y-86740475D01*
X136933739Y-86231399D01*
X136735107Y-85751859D01*
X136446738Y-85320285D01*
X136079715Y-84953262D01*
X135648141Y-84664893D01*
X135168601Y-84466261D01*
X134663146Y-84365720D01*
X142061432Y-76967435D01*
X142093291Y-76941289D01*
X142197636Y-76814144D01*
X142275172Y-76669085D01*
X142322918Y-76511687D01*
X142335000Y-76389017D01*
X142339040Y-76347998D01*
X142335000Y-76306980D01*
X142335000Y-73288199D01*
X142478505Y-73192312D01*
X142692312Y-72978505D01*
X142750000Y-72892169D01*
X142807688Y-72978505D01*
G37*
X142807688Y-72978505D02*
X143021495Y-73192312D01*
X143165000Y-73288199D01*
X143165001Y-84078133D01*
X133896867Y-93346267D01*
X133818261Y-93199208D01*
X133564080Y-93115525D01*
X132679605Y-94000000D01*
X132693748Y-94014143D01*
X132514143Y-94193748D01*
X132500000Y-94179605D01*
X131615525Y-95064080D01*
X131699208Y-95318261D01*
X131851660Y-95391474D01*
X122978136Y-104264999D01*
X119289017Y-104264999D01*
X119247999Y-104260959D01*
X119206981Y-104264999D01*
X119206980Y-104264999D01*
X119084310Y-104277081D01*
X118926912Y-104324827D01*
X118781853Y-104402363D01*
X118654708Y-104506708D01*
X118628562Y-104538567D01*
X100735000Y-122432131D01*
X100735000Y-108740475D01*
X107465000Y-108740475D01*
X107465000Y-109259525D01*
X107566261Y-109768601D01*
X107764893Y-110248141D01*
X108053262Y-110679715D01*
X108420285Y-111046738D01*
X108851859Y-111335107D01*
X109331399Y-111533739D01*
X109840475Y-111635000D01*
X110359525Y-111635000D01*
X110868601Y-111533739D01*
X111348141Y-111335107D01*
X111779715Y-111046738D01*
X112146738Y-110679715D01*
X112435107Y-110248141D01*
X112633739Y-109768601D01*
X112735000Y-109259525D01*
X112735000Y-108740475D01*
X112633739Y-108231399D01*
X112435107Y-107751859D01*
X112146738Y-107320285D01*
X111779715Y-106953262D01*
X111348141Y-106664893D01*
X110868601Y-106466261D01*
X110359525Y-106365000D01*
X109840475Y-106365000D01*
X109331399Y-106466261D01*
X108851859Y-106664893D01*
X108420285Y-106953262D01*
X108053262Y-107320285D01*
X107764893Y-107751859D01*
X107566261Y-108231399D01*
X107465000Y-108740475D01*
X100735000Y-108740475D01*
X100735000Y-86115867D01*
X115975908Y-101356777D01*
X116004774Y-101501898D01*
X116082795Y-101690256D01*
X116196063Y-101859774D01*
X116340226Y-102003937D01*
X116509744Y-102117205D01*
X116698102Y-102195226D01*
X116898061Y-102235000D01*
X117101939Y-102235000D01*
X117301898Y-102195226D01*
X117490256Y-102117205D01*
X117659774Y-102003937D01*
X117803937Y-101859774D01*
X117917205Y-101690256D01*
X117995226Y-101501898D01*
X118035000Y-101301939D01*
X118035000Y-101098061D01*
X117995226Y-100898102D01*
X117917205Y-100709744D01*
X117803937Y-100540226D01*
X117659774Y-100396063D01*
X117490256Y-100282795D01*
X117301898Y-100204774D01*
X117156777Y-100175908D01*
X101335010Y-84354143D01*
X101335010Y-82209399D01*
X101346525Y-82226632D01*
X101553368Y-82433475D01*
X101663415Y-82507006D01*
X101665000Y-82523099D01*
X101677082Y-82645769D01*
X101724828Y-82803167D01*
X101802364Y-82948226D01*
X101906709Y-83075372D01*
X101938579Y-83101527D01*
X114698479Y-95861428D01*
X114724629Y-95893292D01*
X114851774Y-95997637D01*
X114996833Y-96075173D01*
X115154231Y-96122919D01*
X115276901Y-96135001D01*
X115276911Y-96135001D01*
X115317919Y-96139040D01*
X115358927Y-96135001D01*
X128658981Y-96135001D01*
X128699999Y-96139041D01*
X128741017Y-96135001D01*
X128741018Y-96135001D01*
X128863688Y-96122919D01*
X129021086Y-96075173D01*
X129166145Y-95997637D01*
X129293290Y-95893292D01*
X129319445Y-95861422D01*
X129679539Y-95501329D01*
X129848816Y-95535000D01*
X130151184Y-95535000D01*
X130447743Y-95476011D01*
X130727095Y-95360299D01*
X130978505Y-95192312D01*
X131192312Y-94978505D01*
X131287738Y-94835690D01*
X131435920Y-94884475D01*
X132320395Y-94000000D01*
X131435920Y-93115525D01*
X131287738Y-93164310D01*
X131192312Y-93021495D01*
X131106737Y-92935920D01*
X131615525Y-92935920D01*
X132500000Y-93820395D01*
X133384475Y-92935920D01*
X133300792Y-92681739D01*
X133028225Y-92550842D01*
X132735358Y-92475635D01*
X132433447Y-92459009D01*
X132134093Y-92501603D01*
X131848801Y-92601778D01*
X131699208Y-92681739D01*
X131615525Y-92935920D01*
X131106737Y-92935920D01*
X130978505Y-92807688D01*
X130727095Y-92639701D01*
X130447743Y-92523989D01*
X130151184Y-92465000D01*
X129848816Y-92465000D01*
X129552257Y-92523989D01*
X129272905Y-92639701D01*
X129021495Y-92807688D01*
X128807688Y-93021495D01*
X128750000Y-93107831D01*
X128692312Y-93021495D01*
X128478505Y-92807688D01*
X128335000Y-92711801D01*
X128335000Y-90693865D01*
X131765720Y-87263145D01*
X131866261Y-87768601D01*
X132064893Y-88248141D01*
X132353262Y-88679715D01*
X132720285Y-89046738D01*
X133151859Y-89335107D01*
X133631399Y-89533739D01*
X134140475Y-89635000D01*
X134659525Y-89635000D01*
X135168601Y-89533739D01*
X135648141Y-89335107D01*
X136079715Y-89046738D01*
X136446738Y-88679715D01*
X136735107Y-88248141D01*
X136933739Y-87768601D01*
X137035000Y-87259525D01*
X137035000Y-86740475D01*
X136933739Y-86231399D01*
X136735107Y-85751859D01*
X136446738Y-85320285D01*
X136079715Y-84953262D01*
X135648141Y-84664893D01*
X135168601Y-84466261D01*
X134663146Y-84365720D01*
X142061432Y-76967435D01*
X142093291Y-76941289D01*
X142197636Y-76814144D01*
X142275172Y-76669085D01*
X142322918Y-76511687D01*
X142335000Y-76389017D01*
X142339040Y-76347998D01*
X142335000Y-76306980D01*
X142335000Y-73288199D01*
X142478505Y-73192312D01*
X142692312Y-72978505D01*
X142750000Y-72892169D01*
X142807688Y-72978505D01*
M02*
