G04 #@! TF.GenerationSoftware,KiCad,Pcbnew,(5.1.9)-1*
G04 #@! TF.CreationDate,2021-03-14T15:16:18+00:00*
G04 #@! TF.ProjectId,Retrospector_Controls,52657472-6f73-4706-9563-746f725f436f,rev?*
G04 #@! TF.SameCoordinates,Original*
G04 #@! TF.FileFunction,Soldermask,Top*
G04 #@! TF.FilePolarity,Negative*
%FSLAX46Y46*%
G04 Gerber Fmt 4.6, Leading zero omitted, Abs format (unit mm)*
G04 Created by KiCad (PCBNEW (5.1.9)-1) date 2021-03-14 15:16:18*
%MOMM*%
%LPD*%
G01*
G04 APERTURE LIST*
%ADD10C,4.000000*%
%ADD11C,1.800000*%
%ADD12O,2.500000X1.500000*%
%ADD13R,2.500000X1.500000*%
%ADD14O,1.500000X2.500000*%
%ADD15R,1.500000X2.500000*%
%ADD16C,2.500000*%
%ADD17R,2.500000X1.000000*%
%ADD18C,2.000000*%
%ADD19R,3.000000X1.600000*%
%ADD20R,1.700000X1.700000*%
%ADD21O,1.700000X1.700000*%
G04 APERTURE END LIST*
D10*
X110100000Y-65000000D03*
X118900000Y-65000000D03*
D11*
X112000000Y-72000000D03*
X114500000Y-72000000D03*
X117000000Y-72000000D03*
D12*
X149700000Y-89040000D03*
X149700000Y-86500000D03*
D13*
X149700000Y-83960000D03*
D14*
X132540000Y-111000000D03*
X130000000Y-111000000D03*
D15*
X127460000Y-111000000D03*
D12*
X110300000Y-89040000D03*
X110300000Y-86500000D03*
D13*
X110300000Y-83960000D03*
D16*
X130000000Y-127000000D03*
D17*
X130000000Y-120520000D03*
X130000000Y-123620000D03*
X130000000Y-131920000D03*
D16*
X109000000Y-151000000D03*
D17*
X109000000Y-144520000D03*
X109000000Y-147620000D03*
X109000000Y-155920000D03*
D16*
X119500000Y-134000000D03*
D17*
X119500000Y-127520000D03*
X119500000Y-130620000D03*
X119500000Y-138920000D03*
D16*
X140500000Y-134000000D03*
D17*
X140500000Y-127520000D03*
X140500000Y-130620000D03*
X140500000Y-138920000D03*
D16*
X109000000Y-134000000D03*
D17*
X109000000Y-127520000D03*
X109000000Y-130620000D03*
X109000000Y-138920000D03*
D16*
X119500000Y-151000000D03*
D17*
X119500000Y-144520000D03*
X119500000Y-147620000D03*
X119500000Y-155920000D03*
D16*
X140500000Y-151000000D03*
D17*
X140500000Y-144520000D03*
X140500000Y-147620000D03*
X140500000Y-155920000D03*
D16*
X130000000Y-151000000D03*
D17*
X130000000Y-144520000D03*
X130000000Y-147620000D03*
X130000000Y-155920000D03*
D16*
X151000000Y-134000000D03*
D17*
X151000000Y-127520000D03*
X151000000Y-130620000D03*
X151000000Y-138920000D03*
D16*
X151000000Y-151000000D03*
D17*
X151000000Y-144520000D03*
X151000000Y-147620000D03*
X151000000Y-155920000D03*
D10*
X125600000Y-87000000D03*
X134400000Y-87000000D03*
D11*
X127500000Y-94000000D03*
X130000000Y-94000000D03*
X132500000Y-94000000D03*
D10*
X110100000Y-109000000D03*
X118900000Y-109000000D03*
D11*
X112000000Y-116000000D03*
X114500000Y-116000000D03*
X117000000Y-116000000D03*
D10*
X141100000Y-109000000D03*
X149900000Y-109000000D03*
D11*
X143000000Y-116000000D03*
X145500000Y-116000000D03*
X148000000Y-116000000D03*
D10*
X141100000Y-65000000D03*
X149900000Y-65000000D03*
D11*
X143000000Y-72000000D03*
X145500000Y-72000000D03*
X148000000Y-72000000D03*
D18*
X126750000Y-136150000D03*
X126750000Y-140650000D03*
X133250000Y-136150000D03*
X133250000Y-140650000D03*
X126750000Y-62250000D03*
X126750000Y-66750000D03*
X133250000Y-62250000D03*
X133250000Y-66750000D03*
D19*
X149000000Y-54200000D03*
X144600000Y-54200000D03*
D20*
X157500000Y-130000000D03*
D21*
X157500000Y-132540000D03*
X157500000Y-135080000D03*
X157500000Y-137620000D03*
X157500000Y-140160000D03*
X157500000Y-142700000D03*
X157500000Y-145240000D03*
X157500000Y-147780000D03*
D20*
X157500000Y-63500000D03*
D21*
X157500000Y-66040000D03*
X157500000Y-68580000D03*
X157500000Y-71120000D03*
X157500000Y-73660000D03*
X157500000Y-76200000D03*
X157500000Y-78740000D03*
X157500000Y-81280000D03*
D20*
X102500000Y-130000000D03*
D21*
X102500000Y-132540000D03*
X102500000Y-135080000D03*
X102500000Y-137620000D03*
X102500000Y-140160000D03*
X102500000Y-142700000D03*
X102500000Y-145240000D03*
X102500000Y-147780000D03*
D20*
X102500000Y-63500000D03*
D21*
X102500000Y-66040000D03*
X102500000Y-68580000D03*
X102500000Y-71120000D03*
X102500000Y-73660000D03*
X102500000Y-76200000D03*
X102500000Y-78740000D03*
X102500000Y-81280000D03*
M02*
