M48
; DRILL file {KiCad (5.1.9)-1} date 03/14/21 15:16:20
; FORMAT={-:-/ absolute / inch / decimal}
; #@! TF.CreationDate,2021-03-14T15:16:20+00:00
; #@! TF.GenerationSoftware,Kicad,Pcbnew,(5.1.9)-1
; #@! TF.FileFunction,Plated,1,2,PTH
FMAT,2
INCH
T1C0.0157
T2C0.0197
T3C0.0394
T4C0.0430
T5C0.0433
%
G90
G05
T1
X4.6929Y-3.9528
X5.0827Y-3.1378
X5.1102Y-3.1969
X5.1142Y-2.937
X5.1693Y-2.9724
X5.2244Y-3.1772
X5.2756Y-3.1614
X5.2992Y-3.1102
X5.3681Y-3.1201
X5.3898Y-2.7539
X5.6417Y-3.0039
T3
X4.0354Y-2.5
X4.0354Y-2.6
X4.0354Y-2.7
X4.0354Y-2.8
X4.0354Y-2.9
X4.0354Y-3.0
X4.0354Y-3.1
X4.0354Y-3.2
X4.0354Y-5.1181
X4.0354Y-5.2181
X4.0354Y-5.3181
X4.0354Y-5.4181
X4.0354Y-5.5181
X4.0354Y-5.6181
X4.0354Y-5.7181
X4.0354Y-5.8181
X4.4094Y-2.8346
X4.4094Y-4.5669
X4.5079Y-2.8346
X4.5079Y-4.5669
X4.6063Y-2.8346
X4.6063Y-4.5669
X5.0197Y-3.7008
X5.1181Y-3.7008
X5.2165Y-3.7008
X5.6299Y-2.8346
X5.6299Y-4.5669
X5.7283Y-2.8346
X5.7283Y-4.5669
X5.8268Y-2.8346
X5.8268Y-4.5669
X6.2008Y-2.5
X6.2008Y-2.6
X6.2008Y-2.7
X6.2008Y-2.8
X6.2008Y-2.9
X6.2008Y-3.0
X6.2008Y-3.1
X6.2008Y-3.2
X6.2008Y-5.1181
X6.2008Y-5.2181
X6.2008Y-5.3181
X6.2008Y-5.4181
X6.2008Y-5.5181
X6.2008Y-5.6181
X6.2008Y-5.7181
X6.2008Y-5.8181
T4
X4.3425Y-3.3055
X4.3425Y-3.4055
X4.3425Y-3.5055
X5.0181Y-4.3701
X5.1181Y-4.3701
X5.2181Y-4.3701
X5.8937Y-3.3055
X5.8937Y-3.4055
X5.8937Y-3.5055
T5
X4.9902Y-2.4508
X4.9902Y-2.628
X4.9902Y-5.3602
X4.9902Y-5.5374
X5.2461Y-2.4508
X5.2461Y-2.628
X5.2461Y-5.3602
X5.2461Y-5.5374
T2
G00X4.2717Y-5.0205
M15
G01X4.311Y-5.0205
M16
G05
G00X4.2717Y-5.1425
M15
G01X4.311Y-5.1425
M16
G05
G00X4.2717Y-5.4693
M15
G01X4.311Y-5.4693
M16
G05
G00X4.2717Y-5.6898
M15
G01X4.311Y-5.6898
M16
G05
G00X4.2717Y-5.8118
M15
G01X4.311Y-5.8118
M16
G05
G00X4.2717Y-6.1386
M15
G01X4.311Y-6.1386
M16
G05
G00X4.685Y-5.0205
M15
G01X4.7244Y-5.0205
M16
G05
G00X4.685Y-5.1425
M15
G01X4.7244Y-5.1425
M16
G05
G00X4.685Y-5.4693
M15
G01X4.7244Y-5.4693
M16
G05
G00X4.685Y-5.6898
M15
G01X4.7244Y-5.6898
M16
G05
G00X4.685Y-5.8118
M15
G01X4.7244Y-5.8118
M16
G05
G00X4.685Y-6.1386
M15
G01X4.7244Y-6.1386
M16
G05
G00X5.0984Y-4.7449
M15
G01X5.1378Y-4.7449
M16
G05
G00X5.0984Y-4.8669
M15
G01X5.1378Y-4.8669
M16
G05
G00X5.0984Y-5.1937
M15
G01X5.1378Y-5.1937
M16
G05
G00X5.0984Y-5.6898
M15
G01X5.1378Y-5.6898
M16
G05
G00X5.0984Y-5.8118
M15
G01X5.1378Y-5.8118
M16
G05
G00X5.0984Y-6.1386
M15
G01X5.1378Y-6.1386
M16
G05
G00X5.5118Y-5.0205
M15
G01X5.5512Y-5.0205
M16
G05
G00X5.5118Y-5.1425
M15
G01X5.5512Y-5.1425
M16
G05
G00X5.5118Y-5.4693
M15
G01X5.5512Y-5.4693
M16
G05
G00X5.5118Y-5.6898
M15
G01X5.5512Y-5.6898
M16
G05
G00X5.5118Y-5.8118
M15
G01X5.5512Y-5.8118
M16
G05
G00X5.5118Y-6.1386
M15
G01X5.5512Y-6.1386
M16
G05
G00X5.9252Y-5.0205
M15
G01X5.9646Y-5.0205
M16
G05
G00X5.9252Y-5.1425
M15
G01X5.9646Y-5.1425
M16
G05
G00X5.9252Y-5.4693
M15
G01X5.9646Y-5.4693
M16
G05
G00X5.9252Y-5.6898
M15
G01X5.9646Y-5.6898
M16
G05
G00X5.9252Y-5.8118
M15
G01X5.9646Y-5.8118
M16
G05
G00X5.9252Y-6.1386
M15
G01X5.9646Y-6.1386
M16
G05
T0
M30
