M48
; DRILL file {KiCad (5.1.9)-1} date 03/14/21 15:16:20
; FORMAT={-:-/ absolute / inch / decimal}
; #@! TF.CreationDate,2021-03-14T15:16:20+00:00
; #@! TF.GenerationSoftware,Kicad,Pcbnew,(5.1.9)-1
; #@! TF.FileFunction,NonPlated,1,2,NPTH
FMAT,2
INCH
T1C0.0787
T2C0.0984
%
G90
G05
T1
X4.3346Y-2.5591
X4.3346Y-4.2913
X4.6811Y-2.5591
X4.6811Y-4.2913
X4.9449Y-3.4252
X5.2913Y-3.4252
X5.5551Y-2.5591
X5.5551Y-4.2913
X5.9016Y-2.5591
X5.9016Y-4.2913
T2
X4.2913Y-5.2756
X4.2913Y-5.9449
X4.7047Y-5.2756
X4.7047Y-5.9449
X5.1181Y-5.0
X5.1181Y-5.9449
X5.5315Y-5.2756
X5.5315Y-5.9449
X5.9449Y-5.2756
X5.9449Y-5.9449
T0
M30
