M48
; DRILL file {KiCad (5.1.5)-3} date 12/10/2020 14:37:02
; FORMAT={-:-/ absolute / inch / decimal}
; #@! TF.CreationDate,2020-10-12T14:37:02+01:00
; #@! TF.GenerationSoftware,Kicad,Pcbnew,(5.1.5)-3
; #@! TF.FileFunction,Plated,1,2,PTH
FMAT,2
INCH
T1C0.0157
T2C0.0197
T3C0.0354
T4C0.0394
T5C0.0430
T6C0.0433
%
G90
G05
T1
X4.0354Y-4.9488
X4.1811Y-3.0472
X4.4646Y-4.9567
X4.6063Y-3.9843
X6.0827Y-2.8268
T3
X4.0945Y-2.126
X4.1945Y-2.126
X6.0413Y-2.126
X6.1413Y-2.126
T4
X5.5709Y-2.8346
X5.6693Y-2.8346
X5.7677Y-2.8346
X4.4685Y-2.8346
X4.5669Y-2.8346
X4.6654Y-2.8346
X4.4094Y-4.5669
X4.5079Y-4.5669
X4.6063Y-4.5669
X6.2008Y-2.5
X6.2008Y-2.6
X6.2008Y-2.7
X6.2008Y-2.8
X6.2008Y-2.9
X6.2008Y-3.0
X6.2008Y-3.1
X6.2008Y-3.2
X5.6299Y-4.5669
X5.7283Y-4.5669
X5.8268Y-4.5669
X6.2008Y-5.1181
X6.2008Y-5.2181
X6.2008Y-5.3181
X6.2008Y-5.4181
X6.2008Y-5.5181
X6.2008Y-5.6181
X6.2008Y-5.7181
X6.2008Y-5.8181
X5.0197Y-3.7008
X5.1181Y-3.7008
X5.2165Y-3.7008
X4.0354Y-5.1181
X4.0354Y-5.2181
X4.0354Y-5.3181
X4.0354Y-5.4181
X4.0354Y-5.5181
X4.0354Y-5.6181
X4.0354Y-5.7181
X4.0354Y-5.8181
X4.0354Y-2.5
X4.0354Y-2.6
X4.0354Y-2.7
X4.0354Y-2.8
X4.0354Y-2.9
X4.0354Y-3.0
X4.0354Y-3.1
X4.0354Y-3.2
T5
X4.4488Y-3.305
X4.4488Y-3.405
X4.4488Y-3.505
X5.7874Y-3.3039
X5.7874Y-3.4039
X5.7874Y-3.5039
T6
X4.9902Y-4.1831
X4.9902Y-4.3602
X5.2461Y-4.1831
X5.2461Y-4.3602
T2
G00X4.685Y-5.0205
M15
G01X4.7244Y-5.0205
M16
G05
G00X4.685Y-5.1425
M15
G01X4.7244Y-5.1425
M16
G05
G00X4.685Y-5.4693
M15
G01X4.7244Y-5.4693
M16
G05
G00X5.0984Y-5.0205
M15
G01X5.1378Y-5.0205
M16
G05
G00X5.0984Y-5.1425
M15
G01X5.1378Y-5.1425
M16
G05
G00X5.0984Y-5.4693
M15
G01X5.1378Y-5.4693
M16
G05
G00X4.685Y-5.6898
M15
G01X4.7244Y-5.6898
M16
G05
G00X4.685Y-5.8118
M15
G01X4.7244Y-5.8118
M16
G05
G00X4.685Y-6.1386
M15
G01X4.7244Y-6.1386
M16
G05
G00X5.5118Y-5.0205
M15
G01X5.5512Y-5.0205
M16
G05
G00X5.5118Y-5.1425
M15
G01X5.5512Y-5.1425
M16
G05
G00X5.5118Y-5.4693
M15
G01X5.5512Y-5.4693
M16
G05
G00X5.9252Y-5.0205
M15
G01X5.9646Y-5.0205
M16
G05
G00X5.9252Y-5.1425
M15
G01X5.9646Y-5.1425
M16
G05
G00X5.9252Y-5.4693
M15
G01X5.9646Y-5.4693
M16
G05
G00X5.5118Y-5.6898
M15
G01X5.5512Y-5.6898
M16
G05
G00X5.5118Y-5.8118
M15
G01X5.5512Y-5.8118
M16
G05
G00X5.5118Y-6.1386
M15
G01X5.5512Y-6.1386
M16
G05
G00X5.9252Y-5.6898
M15
G01X5.9646Y-5.6898
M16
G05
G00X5.9252Y-5.8118
M15
G01X5.9646Y-5.8118
M16
G05
G00X5.9252Y-6.1386
M15
G01X5.9646Y-6.1386
M16
G05
G00X4.2717Y-5.0205
M15
G01X4.311Y-5.0205
M16
G05
G00X4.2717Y-5.1425
M15
G01X4.311Y-5.1425
M16
G05
G00X4.2717Y-5.4693
M15
G01X4.311Y-5.4693
M16
G05
G00X4.2717Y-5.6898
M15
G01X4.311Y-5.6898
M16
G05
G00X4.2717Y-5.8118
M15
G01X4.311Y-5.8118
M16
G05
G00X4.2717Y-6.1386
M15
G01X4.311Y-6.1386
M16
G05
T0
M30
