G04 #@! TF.GenerationSoftware,KiCad,Pcbnew,(5.1.9)-1*
G04 #@! TF.CreationDate,2021-03-14T15:16:18+00:00*
G04 #@! TF.ProjectId,Retrospector_Controls,52657472-6f73-4706-9563-746f725f436f,rev?*
G04 #@! TF.SameCoordinates,Original*
G04 #@! TF.FileFunction,Legend,Bot*
G04 #@! TF.FilePolarity,Positive*
%FSLAX46Y46*%
G04 Gerber Fmt 4.6, Leading zero omitted, Abs format (unit mm)*
G04 Created by KiCad (PCBNEW (5.1.9)-1) date 2021-03-14 15:16:18*
%MOMM*%
%LPD*%
G01*
G04 APERTURE LIST*
%ADD10C,0.300000*%
%ADD11C,0.120000*%
%ADD12C,0.150000*%
G04 APERTURE END LIST*
D10*
X143100000Y-53403571D02*
X143600000Y-52689285D01*
X143957142Y-53403571D02*
X143957142Y-51903571D01*
X143385714Y-51903571D01*
X143242857Y-51975000D01*
X143171428Y-52046428D01*
X143100000Y-52189285D01*
X143100000Y-52403571D01*
X143171428Y-52546428D01*
X143242857Y-52617857D01*
X143385714Y-52689285D01*
X143957142Y-52689285D01*
X141885714Y-53332142D02*
X142028571Y-53403571D01*
X142314285Y-53403571D01*
X142457142Y-53332142D01*
X142528571Y-53189285D01*
X142528571Y-52617857D01*
X142457142Y-52475000D01*
X142314285Y-52403571D01*
X142028571Y-52403571D01*
X141885714Y-52475000D01*
X141814285Y-52617857D01*
X141814285Y-52760714D01*
X142528571Y-52903571D01*
X141385714Y-52403571D02*
X140814285Y-52403571D01*
X141171428Y-51903571D02*
X141171428Y-53189285D01*
X141100000Y-53332142D01*
X140957142Y-53403571D01*
X140814285Y-53403571D01*
X140314285Y-53403571D02*
X140314285Y-52403571D01*
X140314285Y-52689285D02*
X140242857Y-52546428D01*
X140171428Y-52475000D01*
X140028571Y-52403571D01*
X139885714Y-52403571D01*
X139171428Y-53403571D02*
X139314285Y-53332142D01*
X139385714Y-53260714D01*
X139457142Y-53117857D01*
X139457142Y-52689285D01*
X139385714Y-52546428D01*
X139314285Y-52475000D01*
X139171428Y-52403571D01*
X138957142Y-52403571D01*
X138814285Y-52475000D01*
X138742857Y-52546428D01*
X138671428Y-52689285D01*
X138671428Y-53117857D01*
X138742857Y-53260714D01*
X138814285Y-53332142D01*
X138957142Y-53403571D01*
X139171428Y-53403571D01*
X138100000Y-53332142D02*
X137957142Y-53403571D01*
X137671428Y-53403571D01*
X137528571Y-53332142D01*
X137457142Y-53189285D01*
X137457142Y-53117857D01*
X137528571Y-52975000D01*
X137671428Y-52903571D01*
X137885714Y-52903571D01*
X138028571Y-52832142D01*
X138100000Y-52689285D01*
X138100000Y-52617857D01*
X138028571Y-52475000D01*
X137885714Y-52403571D01*
X137671428Y-52403571D01*
X137528571Y-52475000D01*
X136814285Y-52403571D02*
X136814285Y-53903571D01*
X136814285Y-52475000D02*
X136671428Y-52403571D01*
X136385714Y-52403571D01*
X136242857Y-52475000D01*
X136171428Y-52546428D01*
X136100000Y-52689285D01*
X136100000Y-53117857D01*
X136171428Y-53260714D01*
X136242857Y-53332142D01*
X136385714Y-53403571D01*
X136671428Y-53403571D01*
X136814285Y-53332142D01*
X134885714Y-53332142D02*
X135028571Y-53403571D01*
X135314285Y-53403571D01*
X135457142Y-53332142D01*
X135528571Y-53189285D01*
X135528571Y-52617857D01*
X135457142Y-52475000D01*
X135314285Y-52403571D01*
X135028571Y-52403571D01*
X134885714Y-52475000D01*
X134814285Y-52617857D01*
X134814285Y-52760714D01*
X135528571Y-52903571D01*
X133528571Y-53332142D02*
X133671428Y-53403571D01*
X133957142Y-53403571D01*
X134100000Y-53332142D01*
X134171428Y-53260714D01*
X134242857Y-53117857D01*
X134242857Y-52689285D01*
X134171428Y-52546428D01*
X134100000Y-52475000D01*
X133957142Y-52403571D01*
X133671428Y-52403571D01*
X133528571Y-52475000D01*
X133100000Y-52403571D02*
X132528571Y-52403571D01*
X132885714Y-51903571D02*
X132885714Y-53189285D01*
X132814285Y-53332142D01*
X132671428Y-53403571D01*
X132528571Y-53403571D01*
X131814285Y-53403571D02*
X131957142Y-53332142D01*
X132028571Y-53260714D01*
X132100000Y-53117857D01*
X132100000Y-52689285D01*
X132028571Y-52546428D01*
X131957142Y-52475000D01*
X131814285Y-52403571D01*
X131600000Y-52403571D01*
X131457142Y-52475000D01*
X131385714Y-52546428D01*
X131314285Y-52689285D01*
X131314285Y-53117857D01*
X131385714Y-53260714D01*
X131457142Y-53332142D01*
X131600000Y-53403571D01*
X131814285Y-53403571D01*
X130671428Y-53403571D02*
X130671428Y-52403571D01*
X130671428Y-52689285D02*
X130600000Y-52546428D01*
X130528571Y-52475000D01*
X130385714Y-52403571D01*
X130242857Y-52403571D01*
X127742857Y-53260714D02*
X127814285Y-53332142D01*
X128028571Y-53403571D01*
X128171428Y-53403571D01*
X128385714Y-53332142D01*
X128528571Y-53189285D01*
X128600000Y-53046428D01*
X128671428Y-52760714D01*
X128671428Y-52546428D01*
X128600000Y-52260714D01*
X128528571Y-52117857D01*
X128385714Y-51975000D01*
X128171428Y-51903571D01*
X128028571Y-51903571D01*
X127814285Y-51975000D01*
X127742857Y-52046428D01*
X126885714Y-53403571D02*
X127028571Y-53332142D01*
X127100000Y-53260714D01*
X127171428Y-53117857D01*
X127171428Y-52689285D01*
X127100000Y-52546428D01*
X127028571Y-52475000D01*
X126885714Y-52403571D01*
X126671428Y-52403571D01*
X126528571Y-52475000D01*
X126457142Y-52546428D01*
X126385714Y-52689285D01*
X126385714Y-53117857D01*
X126457142Y-53260714D01*
X126528571Y-53332142D01*
X126671428Y-53403571D01*
X126885714Y-53403571D01*
X125742857Y-52403571D02*
X125742857Y-53403571D01*
X125742857Y-52546428D02*
X125671428Y-52475000D01*
X125528571Y-52403571D01*
X125314285Y-52403571D01*
X125171428Y-52475000D01*
X125100000Y-52617857D01*
X125100000Y-53403571D01*
X124600000Y-52403571D02*
X124028571Y-52403571D01*
X124385714Y-51903571D02*
X124385714Y-53189285D01*
X124314285Y-53332142D01*
X124171428Y-53403571D01*
X124028571Y-53403571D01*
X123528571Y-53403571D02*
X123528571Y-52403571D01*
X123528571Y-52689285D02*
X123457142Y-52546428D01*
X123385714Y-52475000D01*
X123242857Y-52403571D01*
X123100000Y-52403571D01*
X122385714Y-53403571D02*
X122528571Y-53332142D01*
X122600000Y-53260714D01*
X122671428Y-53117857D01*
X122671428Y-52689285D01*
X122600000Y-52546428D01*
X122528571Y-52475000D01*
X122385714Y-52403571D01*
X122171428Y-52403571D01*
X122028571Y-52475000D01*
X121957142Y-52546428D01*
X121885714Y-52689285D01*
X121885714Y-53117857D01*
X121957142Y-53260714D01*
X122028571Y-53332142D01*
X122171428Y-53403571D01*
X122385714Y-53403571D01*
X121028571Y-53403571D02*
X121171428Y-53332142D01*
X121242857Y-53189285D01*
X121242857Y-51903571D01*
X120528571Y-53332142D02*
X120385714Y-53403571D01*
X120100000Y-53403571D01*
X119957142Y-53332142D01*
X119885714Y-53189285D01*
X119885714Y-53117857D01*
X119957142Y-52975000D01*
X120100000Y-52903571D01*
X120314285Y-52903571D01*
X120457142Y-52832142D01*
X120528571Y-52689285D01*
X120528571Y-52617857D01*
X120457142Y-52475000D01*
X120314285Y-52403571D01*
X120100000Y-52403571D01*
X119957142Y-52475000D01*
X118242857Y-52403571D02*
X117885714Y-53403571D01*
X117528571Y-52403571D01*
X117028571Y-52046428D02*
X116957142Y-51975000D01*
X116814285Y-51903571D01*
X116457142Y-51903571D01*
X116314285Y-51975000D01*
X116242857Y-52046428D01*
X116171428Y-52189285D01*
X116171428Y-52332142D01*
X116242857Y-52546428D01*
X117100000Y-53403571D01*
X116171428Y-53403571D01*
X139671428Y-55953571D02*
X139671428Y-54453571D01*
X139171428Y-55525000D01*
X138671428Y-54453571D01*
X138671428Y-55953571D01*
X137742857Y-55953571D02*
X137885714Y-55882142D01*
X137957142Y-55810714D01*
X138028571Y-55667857D01*
X138028571Y-55239285D01*
X137957142Y-55096428D01*
X137885714Y-55025000D01*
X137742857Y-54953571D01*
X137528571Y-54953571D01*
X137385714Y-55025000D01*
X137314285Y-55096428D01*
X137242857Y-55239285D01*
X137242857Y-55667857D01*
X137314285Y-55810714D01*
X137385714Y-55882142D01*
X137528571Y-55953571D01*
X137742857Y-55953571D01*
X135957142Y-54953571D02*
X135957142Y-55953571D01*
X136600000Y-54953571D02*
X136600000Y-55739285D01*
X136528571Y-55882142D01*
X136385714Y-55953571D01*
X136171428Y-55953571D01*
X136028571Y-55882142D01*
X135957142Y-55810714D01*
X135242857Y-54953571D02*
X135242857Y-55953571D01*
X135242857Y-55096428D02*
X135171428Y-55025000D01*
X135028571Y-54953571D01*
X134814285Y-54953571D01*
X134671428Y-55025000D01*
X134600000Y-55167857D01*
X134600000Y-55953571D01*
X134100000Y-54953571D02*
X133528571Y-54953571D01*
X133885714Y-54453571D02*
X133885714Y-55739285D01*
X133814285Y-55882142D01*
X133671428Y-55953571D01*
X133528571Y-55953571D01*
X133028571Y-54953571D02*
X133028571Y-56239285D01*
X133100000Y-56382142D01*
X133242857Y-56453571D01*
X133314285Y-56453571D01*
X133028571Y-54453571D02*
X133100000Y-54525000D01*
X133028571Y-54596428D01*
X132957142Y-54525000D01*
X133028571Y-54453571D01*
X133028571Y-54596428D01*
X132100000Y-55953571D02*
X132242857Y-55882142D01*
X132314285Y-55810714D01*
X132385714Y-55667857D01*
X132385714Y-55239285D01*
X132314285Y-55096428D01*
X132242857Y-55025000D01*
X132100000Y-54953571D01*
X131885714Y-54953571D01*
X131742857Y-55025000D01*
X131671428Y-55096428D01*
X131600000Y-55239285D01*
X131600000Y-55667857D01*
X131671428Y-55810714D01*
X131742857Y-55882142D01*
X131885714Y-55953571D01*
X132100000Y-55953571D01*
X131100000Y-54953571D02*
X130742857Y-55953571D01*
X130385714Y-54953571D02*
X130742857Y-55953571D01*
X130885714Y-56310714D01*
X130957142Y-56382142D01*
X131100000Y-56453571D01*
X128671428Y-55953571D02*
X128671428Y-54453571D01*
X128171428Y-55525000D01*
X127671428Y-54453571D01*
X127671428Y-55953571D01*
X126742857Y-55953571D02*
X126885714Y-55882142D01*
X126957142Y-55810714D01*
X127028571Y-55667857D01*
X127028571Y-55239285D01*
X126957142Y-55096428D01*
X126885714Y-55025000D01*
X126742857Y-54953571D01*
X126528571Y-54953571D01*
X126385714Y-55025000D01*
X126314285Y-55096428D01*
X126242857Y-55239285D01*
X126242857Y-55667857D01*
X126314285Y-55810714D01*
X126385714Y-55882142D01*
X126528571Y-55953571D01*
X126742857Y-55953571D01*
X124957142Y-55953571D02*
X124957142Y-54453571D01*
X124957142Y-55882142D02*
X125100000Y-55953571D01*
X125385714Y-55953571D01*
X125528571Y-55882142D01*
X125600000Y-55810714D01*
X125671428Y-55667857D01*
X125671428Y-55239285D01*
X125600000Y-55096428D01*
X125528571Y-55025000D01*
X125385714Y-54953571D01*
X125100000Y-54953571D01*
X124957142Y-55025000D01*
X123600000Y-54953571D02*
X123600000Y-55953571D01*
X124242857Y-54953571D02*
X124242857Y-55739285D01*
X124171428Y-55882142D01*
X124028571Y-55953571D01*
X123814285Y-55953571D01*
X123671428Y-55882142D01*
X123600000Y-55810714D01*
X122671428Y-55953571D02*
X122814285Y-55882142D01*
X122885714Y-55739285D01*
X122885714Y-54453571D01*
X121457142Y-55953571D02*
X121457142Y-55167857D01*
X121528571Y-55025000D01*
X121671428Y-54953571D01*
X121957142Y-54953571D01*
X122100000Y-55025000D01*
X121457142Y-55882142D02*
X121600000Y-55953571D01*
X121957142Y-55953571D01*
X122100000Y-55882142D01*
X122171428Y-55739285D01*
X122171428Y-55596428D01*
X122100000Y-55453571D01*
X121957142Y-55382142D01*
X121600000Y-55382142D01*
X121457142Y-55310714D01*
X120742857Y-55953571D02*
X120742857Y-54953571D01*
X120742857Y-55239285D02*
X120671428Y-55096428D01*
X120600000Y-55025000D01*
X120457142Y-54953571D01*
X120314285Y-54953571D01*
D11*
X119461000Y-58940000D02*
X109540000Y-58940000D01*
X111175000Y-71060000D02*
X109540000Y-71060000D01*
X113675000Y-71060000D02*
X112825000Y-71060000D01*
X116175000Y-71060000D02*
X115325000Y-71060000D01*
X119461000Y-71060000D02*
X117825000Y-71060000D01*
X109540000Y-62805000D02*
X109540000Y-58940000D01*
X109540000Y-71060000D02*
X109540000Y-67194000D01*
X119461000Y-62805000D02*
X119461000Y-58940000D01*
X119461000Y-71060000D02*
X119461000Y-67194000D01*
X112202247Y-66428295D02*
G75*
G03*
X116798000Y-66428000I2297753J1928295D01*
G01*
X117262432Y-63328018D02*
G75*
G03*
X111738000Y-63327000I-2762432J-1171982D01*
G01*
D12*
X147019000Y-82396600D02*
X147019000Y-90564000D01*
X152381000Y-82422000D02*
X152381000Y-84622000D01*
X152381000Y-88214000D02*
X152381000Y-90514000D01*
X125896600Y-113681000D02*
X134064000Y-113681000D01*
X125922000Y-108319000D02*
X128122000Y-108319000D01*
X131714000Y-108319000D02*
X134014000Y-108319000D01*
X107619000Y-82396600D02*
X107619000Y-90564000D01*
X112981000Y-82422000D02*
X112981000Y-84622000D01*
X112981000Y-88214000D02*
X112981000Y-90514000D01*
X128100000Y-99200000D02*
G75*
G03*
X128100000Y-99200000I-100000J0D01*
G01*
X128425000Y-98525000D02*
X129100000Y-99200000D01*
X128400000Y-96400000D02*
X131600000Y-96400000D01*
X128400000Y-99200000D02*
X131600000Y-99200000D01*
X131600000Y-96400000D02*
X131600000Y-99200000D01*
X128400000Y-96400000D02*
X128400000Y-99200000D01*
X153400000Y-52000000D02*
G75*
G03*
X153400000Y-52000000I-100000J0D01*
G01*
X153975000Y-52425000D02*
X153300000Y-53100000D01*
X156100000Y-52400000D02*
X156100000Y-55600000D01*
X153300000Y-52400000D02*
X153300000Y-55600000D01*
X156100000Y-55600000D02*
X153300000Y-55600000D01*
X156100000Y-52400000D02*
X153300000Y-52400000D01*
X104000000Y-52000000D02*
G75*
G03*
X104000000Y-52000000I-100000J0D01*
G01*
X104575000Y-52425000D02*
X103900000Y-53100000D01*
X106700000Y-52400000D02*
X106700000Y-55600000D01*
X103900000Y-52400000D02*
X103900000Y-55600000D01*
X106700000Y-55600000D02*
X103900000Y-55600000D01*
X106700000Y-52400000D02*
X103900000Y-52400000D01*
X131300000Y-127000000D02*
G75*
G03*
X131300000Y-127000000I-1300000J0D01*
G01*
X125500000Y-133000000D02*
X134500000Y-133000000D01*
X125500000Y-122500000D02*
X134500000Y-122500000D01*
X125500000Y-133000000D02*
X125500000Y-122500000D01*
X134500000Y-133000000D02*
X134500000Y-122500000D01*
X131796051Y-127000000D02*
G75*
G03*
X131796051Y-127000000I-1796051J0D01*
G01*
X128095000Y-128905000D02*
X131905000Y-128905000D01*
X131905000Y-125095000D02*
X128095000Y-125095000D01*
X131905000Y-123190000D02*
X134445000Y-123190000D01*
X131905000Y-122555000D02*
X131905000Y-123190000D01*
X128095000Y-122555000D02*
X131905000Y-122555000D01*
X128095000Y-123190000D02*
X128095000Y-122555000D01*
X125555000Y-123190000D02*
X128095000Y-123190000D01*
X128095000Y-128905000D02*
G75*
G02*
X128095000Y-125095000I1905000J1905000D01*
G01*
X131905000Y-125095000D02*
G75*
G02*
X131905000Y-128905000I-1905000J-1905000D01*
G01*
X110300000Y-151000000D02*
G75*
G03*
X110300000Y-151000000I-1300000J0D01*
G01*
X104500000Y-157000000D02*
X113500000Y-157000000D01*
X104500000Y-146500000D02*
X113500000Y-146500000D01*
X104500000Y-157000000D02*
X104500000Y-146500000D01*
X113500000Y-157000000D02*
X113500000Y-146500000D01*
X110796051Y-151000000D02*
G75*
G03*
X110796051Y-151000000I-1796051J0D01*
G01*
X107095000Y-152905000D02*
X110905000Y-152905000D01*
X110905000Y-149095000D02*
X107095000Y-149095000D01*
X110905000Y-147190000D02*
X113445000Y-147190000D01*
X110905000Y-146555000D02*
X110905000Y-147190000D01*
X107095000Y-146555000D02*
X110905000Y-146555000D01*
X107095000Y-147190000D02*
X107095000Y-146555000D01*
X104555000Y-147190000D02*
X107095000Y-147190000D01*
X107095000Y-152905000D02*
G75*
G02*
X107095000Y-149095000I1905000J1905000D01*
G01*
X110905000Y-149095000D02*
G75*
G02*
X110905000Y-152905000I-1905000J-1905000D01*
G01*
X120800000Y-134000000D02*
G75*
G03*
X120800000Y-134000000I-1300000J0D01*
G01*
X115000000Y-140000000D02*
X124000000Y-140000000D01*
X115000000Y-129500000D02*
X124000000Y-129500000D01*
X115000000Y-140000000D02*
X115000000Y-129500000D01*
X124000000Y-140000000D02*
X124000000Y-129500000D01*
X121296051Y-134000000D02*
G75*
G03*
X121296051Y-134000000I-1796051J0D01*
G01*
X117595000Y-135905000D02*
X121405000Y-135905000D01*
X121405000Y-132095000D02*
X117595000Y-132095000D01*
X121405000Y-130190000D02*
X123945000Y-130190000D01*
X121405000Y-129555000D02*
X121405000Y-130190000D01*
X117595000Y-129555000D02*
X121405000Y-129555000D01*
X117595000Y-130190000D02*
X117595000Y-129555000D01*
X115055000Y-130190000D02*
X117595000Y-130190000D01*
X117595000Y-135905000D02*
G75*
G02*
X117595000Y-132095000I1905000J1905000D01*
G01*
X121405000Y-132095000D02*
G75*
G02*
X121405000Y-135905000I-1905000J-1905000D01*
G01*
X141800000Y-134000000D02*
G75*
G03*
X141800000Y-134000000I-1300000J0D01*
G01*
X136000000Y-140000000D02*
X145000000Y-140000000D01*
X136000000Y-129500000D02*
X145000000Y-129500000D01*
X136000000Y-140000000D02*
X136000000Y-129500000D01*
X145000000Y-140000000D02*
X145000000Y-129500000D01*
X142296051Y-134000000D02*
G75*
G03*
X142296051Y-134000000I-1796051J0D01*
G01*
X138595000Y-135905000D02*
X142405000Y-135905000D01*
X142405000Y-132095000D02*
X138595000Y-132095000D01*
X142405000Y-130190000D02*
X144945000Y-130190000D01*
X142405000Y-129555000D02*
X142405000Y-130190000D01*
X138595000Y-129555000D02*
X142405000Y-129555000D01*
X138595000Y-130190000D02*
X138595000Y-129555000D01*
X136055000Y-130190000D02*
X138595000Y-130190000D01*
X138595000Y-135905000D02*
G75*
G02*
X138595000Y-132095000I1905000J1905000D01*
G01*
X142405000Y-132095000D02*
G75*
G02*
X142405000Y-135905000I-1905000J-1905000D01*
G01*
X110300000Y-134000000D02*
G75*
G03*
X110300000Y-134000000I-1300000J0D01*
G01*
X104500000Y-140000000D02*
X113500000Y-140000000D01*
X104500000Y-129500000D02*
X113500000Y-129500000D01*
X104500000Y-140000000D02*
X104500000Y-129500000D01*
X113500000Y-140000000D02*
X113500000Y-129500000D01*
X110796051Y-134000000D02*
G75*
G03*
X110796051Y-134000000I-1796051J0D01*
G01*
X107095000Y-135905000D02*
X110905000Y-135905000D01*
X110905000Y-132095000D02*
X107095000Y-132095000D01*
X110905000Y-130190000D02*
X113445000Y-130190000D01*
X110905000Y-129555000D02*
X110905000Y-130190000D01*
X107095000Y-129555000D02*
X110905000Y-129555000D01*
X107095000Y-130190000D02*
X107095000Y-129555000D01*
X104555000Y-130190000D02*
X107095000Y-130190000D01*
X107095000Y-135905000D02*
G75*
G02*
X107095000Y-132095000I1905000J1905000D01*
G01*
X110905000Y-132095000D02*
G75*
G02*
X110905000Y-135905000I-1905000J-1905000D01*
G01*
X120800000Y-151000000D02*
G75*
G03*
X120800000Y-151000000I-1300000J0D01*
G01*
X115000000Y-157000000D02*
X124000000Y-157000000D01*
X115000000Y-146500000D02*
X124000000Y-146500000D01*
X115000000Y-157000000D02*
X115000000Y-146500000D01*
X124000000Y-157000000D02*
X124000000Y-146500000D01*
X121296051Y-151000000D02*
G75*
G03*
X121296051Y-151000000I-1796051J0D01*
G01*
X117595000Y-152905000D02*
X121405000Y-152905000D01*
X121405000Y-149095000D02*
X117595000Y-149095000D01*
X121405000Y-147190000D02*
X123945000Y-147190000D01*
X121405000Y-146555000D02*
X121405000Y-147190000D01*
X117595000Y-146555000D02*
X121405000Y-146555000D01*
X117595000Y-147190000D02*
X117595000Y-146555000D01*
X115055000Y-147190000D02*
X117595000Y-147190000D01*
X117595000Y-152905000D02*
G75*
G02*
X117595000Y-149095000I1905000J1905000D01*
G01*
X121405000Y-149095000D02*
G75*
G02*
X121405000Y-152905000I-1905000J-1905000D01*
G01*
X141800000Y-151000000D02*
G75*
G03*
X141800000Y-151000000I-1300000J0D01*
G01*
X136000000Y-157000000D02*
X145000000Y-157000000D01*
X136000000Y-146500000D02*
X145000000Y-146500000D01*
X136000000Y-157000000D02*
X136000000Y-146500000D01*
X145000000Y-157000000D02*
X145000000Y-146500000D01*
X142296051Y-151000000D02*
G75*
G03*
X142296051Y-151000000I-1796051J0D01*
G01*
X138595000Y-152905000D02*
X142405000Y-152905000D01*
X142405000Y-149095000D02*
X138595000Y-149095000D01*
X142405000Y-147190000D02*
X144945000Y-147190000D01*
X142405000Y-146555000D02*
X142405000Y-147190000D01*
X138595000Y-146555000D02*
X142405000Y-146555000D01*
X138595000Y-147190000D02*
X138595000Y-146555000D01*
X136055000Y-147190000D02*
X138595000Y-147190000D01*
X138595000Y-152905000D02*
G75*
G02*
X138595000Y-149095000I1905000J1905000D01*
G01*
X142405000Y-149095000D02*
G75*
G02*
X142405000Y-152905000I-1905000J-1905000D01*
G01*
X131300000Y-151000000D02*
G75*
G03*
X131300000Y-151000000I-1300000J0D01*
G01*
X125500000Y-157000000D02*
X134500000Y-157000000D01*
X125500000Y-146500000D02*
X134500000Y-146500000D01*
X125500000Y-157000000D02*
X125500000Y-146500000D01*
X134500000Y-157000000D02*
X134500000Y-146500000D01*
X131796051Y-151000000D02*
G75*
G03*
X131796051Y-151000000I-1796051J0D01*
G01*
X128095000Y-152905000D02*
X131905000Y-152905000D01*
X131905000Y-149095000D02*
X128095000Y-149095000D01*
X131905000Y-147190000D02*
X134445000Y-147190000D01*
X131905000Y-146555000D02*
X131905000Y-147190000D01*
X128095000Y-146555000D02*
X131905000Y-146555000D01*
X128095000Y-147190000D02*
X128095000Y-146555000D01*
X125555000Y-147190000D02*
X128095000Y-147190000D01*
X128095000Y-152905000D02*
G75*
G02*
X128095000Y-149095000I1905000J1905000D01*
G01*
X131905000Y-149095000D02*
G75*
G02*
X131905000Y-152905000I-1905000J-1905000D01*
G01*
X152300000Y-134000000D02*
G75*
G03*
X152300000Y-134000000I-1300000J0D01*
G01*
X146500000Y-140000000D02*
X155500000Y-140000000D01*
X146500000Y-129500000D02*
X155500000Y-129500000D01*
X146500000Y-140000000D02*
X146500000Y-129500000D01*
X155500000Y-140000000D02*
X155500000Y-129500000D01*
X152796051Y-134000000D02*
G75*
G03*
X152796051Y-134000000I-1796051J0D01*
G01*
X149095000Y-135905000D02*
X152905000Y-135905000D01*
X152905000Y-132095000D02*
X149095000Y-132095000D01*
X152905000Y-130190000D02*
X155445000Y-130190000D01*
X152905000Y-129555000D02*
X152905000Y-130190000D01*
X149095000Y-129555000D02*
X152905000Y-129555000D01*
X149095000Y-130190000D02*
X149095000Y-129555000D01*
X146555000Y-130190000D02*
X149095000Y-130190000D01*
X149095000Y-135905000D02*
G75*
G02*
X149095000Y-132095000I1905000J1905000D01*
G01*
X152905000Y-132095000D02*
G75*
G02*
X152905000Y-135905000I-1905000J-1905000D01*
G01*
X152300000Y-151000000D02*
G75*
G03*
X152300000Y-151000000I-1300000J0D01*
G01*
X146500000Y-157000000D02*
X155500000Y-157000000D01*
X146500000Y-146500000D02*
X155500000Y-146500000D01*
X146500000Y-157000000D02*
X146500000Y-146500000D01*
X155500000Y-157000000D02*
X155500000Y-146500000D01*
X152796051Y-151000000D02*
G75*
G03*
X152796051Y-151000000I-1796051J0D01*
G01*
X149095000Y-152905000D02*
X152905000Y-152905000D01*
X152905000Y-149095000D02*
X149095000Y-149095000D01*
X152905000Y-147190000D02*
X155445000Y-147190000D01*
X152905000Y-146555000D02*
X152905000Y-147190000D01*
X149095000Y-146555000D02*
X152905000Y-146555000D01*
X149095000Y-147190000D02*
X149095000Y-146555000D01*
X146555000Y-147190000D02*
X149095000Y-147190000D01*
X149095000Y-152905000D02*
G75*
G02*
X149095000Y-149095000I1905000J1905000D01*
G01*
X152905000Y-149095000D02*
G75*
G02*
X152905000Y-152905000I-1905000J-1905000D01*
G01*
D11*
X134961000Y-80940000D02*
X125040000Y-80940000D01*
X126675000Y-93060000D02*
X125040000Y-93060000D01*
X129175000Y-93060000D02*
X128325000Y-93060000D01*
X131675000Y-93060000D02*
X130825000Y-93060000D01*
X134961000Y-93060000D02*
X133325000Y-93060000D01*
X125040000Y-84805000D02*
X125040000Y-80940000D01*
X125040000Y-93060000D02*
X125040000Y-89194000D01*
X134961000Y-84805000D02*
X134961000Y-80940000D01*
X134961000Y-93060000D02*
X134961000Y-89194000D01*
X127702247Y-88428295D02*
G75*
G03*
X132298000Y-88428000I2297753J1928295D01*
G01*
X132762432Y-85328018D02*
G75*
G03*
X127238000Y-85327000I-2762432J-1171982D01*
G01*
X119461000Y-102940000D02*
X109540000Y-102940000D01*
X111175000Y-115060000D02*
X109540000Y-115060000D01*
X113675000Y-115060000D02*
X112825000Y-115060000D01*
X116175000Y-115060000D02*
X115325000Y-115060000D01*
X119461000Y-115060000D02*
X117825000Y-115060000D01*
X109540000Y-106805000D02*
X109540000Y-102940000D01*
X109540000Y-115060000D02*
X109540000Y-111194000D01*
X119461000Y-106805000D02*
X119461000Y-102940000D01*
X119461000Y-115060000D02*
X119461000Y-111194000D01*
X112202247Y-110428295D02*
G75*
G03*
X116798000Y-110428000I2297753J1928295D01*
G01*
X117262432Y-107328018D02*
G75*
G03*
X111738000Y-107327000I-2762432J-1171982D01*
G01*
X150461000Y-102940000D02*
X140540000Y-102940000D01*
X142175000Y-115060000D02*
X140540000Y-115060000D01*
X144675000Y-115060000D02*
X143825000Y-115060000D01*
X147175000Y-115060000D02*
X146325000Y-115060000D01*
X150461000Y-115060000D02*
X148825000Y-115060000D01*
X140540000Y-106805000D02*
X140540000Y-102940000D01*
X140540000Y-115060000D02*
X140540000Y-111194000D01*
X150461000Y-106805000D02*
X150461000Y-102940000D01*
X150461000Y-115060000D02*
X150461000Y-111194000D01*
X143202247Y-110428295D02*
G75*
G03*
X147798000Y-110428000I2297753J1928295D01*
G01*
X148262432Y-107328018D02*
G75*
G03*
X142738000Y-107327000I-2762432J-1171982D01*
G01*
X150461000Y-58940000D02*
X140540000Y-58940000D01*
X142175000Y-71060000D02*
X140540000Y-71060000D01*
X144675000Y-71060000D02*
X143825000Y-71060000D01*
X147175000Y-71060000D02*
X146325000Y-71060000D01*
X150461000Y-71060000D02*
X148825000Y-71060000D01*
X140540000Y-62805000D02*
X140540000Y-58940000D01*
X140540000Y-71060000D02*
X140540000Y-67194000D01*
X150461000Y-62805000D02*
X150461000Y-58940000D01*
X150461000Y-71060000D02*
X150461000Y-67194000D01*
X143202247Y-66428295D02*
G75*
G03*
X147798000Y-66428000I2297753J1928295D01*
G01*
X148262432Y-63328018D02*
G75*
G03*
X142738000Y-63327000I-2762432J-1171982D01*
G01*
X127750000Y-135150000D02*
X132250000Y-135150000D01*
X126500000Y-139150000D02*
X126500000Y-137650000D01*
X132250000Y-141650000D02*
X127750000Y-141650000D01*
X133500000Y-137650000D02*
X133500000Y-139150000D01*
X127750000Y-61250000D02*
X132250000Y-61250000D01*
X126500000Y-65250000D02*
X126500000Y-63750000D01*
X132250000Y-67750000D02*
X127750000Y-67750000D01*
X133500000Y-63750000D02*
X133500000Y-65250000D01*
D12*
X126825000Y-76525000D02*
X126825000Y-71875000D01*
X133650000Y-77600000D02*
X133650000Y-71875000D01*
X126825000Y-76525000D02*
X126850000Y-76525000D01*
X126825000Y-71875000D02*
X126850000Y-71875000D01*
X133650000Y-71875000D02*
X133550000Y-71875000D01*
D11*
X122580000Y-74700000D02*
X122580000Y-73700000D01*
X121220000Y-73700000D02*
X121220000Y-74700000D01*
X125980000Y-74700000D02*
X125980000Y-73700000D01*
X124620000Y-73700000D02*
X124620000Y-74700000D01*
X124280000Y-74700000D02*
X124280000Y-73700000D01*
X122920000Y-73700000D02*
X122920000Y-74700000D01*
D12*
X119301904Y-74992380D02*
X119301904Y-73992380D01*
X119063809Y-73992380D01*
X118920952Y-74040000D01*
X118825714Y-74135238D01*
X118778095Y-74230476D01*
X118730476Y-74420952D01*
X118730476Y-74563809D01*
X118778095Y-74754285D01*
X118825714Y-74849523D01*
X118920952Y-74944761D01*
X119063809Y-74992380D01*
X119301904Y-74992380D01*
X117920952Y-74944761D02*
X118016190Y-74992380D01*
X118206666Y-74992380D01*
X118301904Y-74944761D01*
X118349523Y-74849523D01*
X118349523Y-74468571D01*
X118301904Y-74373333D01*
X118206666Y-74325714D01*
X118016190Y-74325714D01*
X117920952Y-74373333D01*
X117873333Y-74468571D01*
X117873333Y-74563809D01*
X118349523Y-74659047D01*
X117301904Y-74992380D02*
X117397142Y-74944761D01*
X117444761Y-74849523D01*
X117444761Y-73992380D01*
X116492380Y-74992380D02*
X116492380Y-74468571D01*
X116540000Y-74373333D01*
X116635238Y-74325714D01*
X116825714Y-74325714D01*
X116920952Y-74373333D01*
X116492380Y-74944761D02*
X116587619Y-74992380D01*
X116825714Y-74992380D01*
X116920952Y-74944761D01*
X116968571Y-74849523D01*
X116968571Y-74754285D01*
X116920952Y-74659047D01*
X116825714Y-74611428D01*
X116587619Y-74611428D01*
X116492380Y-74563809D01*
X116111428Y-74325714D02*
X115873333Y-74992380D01*
X115635238Y-74325714D02*
X115873333Y-74992380D01*
X115968571Y-75230476D01*
X116016190Y-75278095D01*
X116111428Y-75325714D01*
X115492380Y-75087619D02*
X114730476Y-75087619D01*
X114492380Y-74992380D02*
X114492380Y-73992380D01*
X114111428Y-73992380D01*
X114016190Y-74040000D01*
X113968571Y-74087619D01*
X113920952Y-74182857D01*
X113920952Y-74325714D01*
X113968571Y-74420952D01*
X114016190Y-74468571D01*
X114111428Y-74516190D01*
X114492380Y-74516190D01*
X113349523Y-74992380D02*
X113444761Y-74944761D01*
X113492380Y-74897142D01*
X113540000Y-74801904D01*
X113540000Y-74516190D01*
X113492380Y-74420952D01*
X113444761Y-74373333D01*
X113349523Y-74325714D01*
X113206666Y-74325714D01*
X113111428Y-74373333D01*
X113063809Y-74420952D01*
X113016190Y-74516190D01*
X113016190Y-74801904D01*
X113063809Y-74897142D01*
X113111428Y-74944761D01*
X113206666Y-74992380D01*
X113349523Y-74992380D01*
X112730476Y-74325714D02*
X112349523Y-74325714D01*
X112587619Y-73992380D02*
X112587619Y-74849523D01*
X112540000Y-74944761D01*
X112444761Y-74992380D01*
X112349523Y-74992380D01*
X112254285Y-75087619D02*
X111492380Y-75087619D01*
X110682857Y-74992380D02*
X111016190Y-74516190D01*
X111254285Y-74992380D02*
X111254285Y-73992380D01*
X110873333Y-73992380D01*
X110778095Y-74040000D01*
X110730476Y-74087619D01*
X110682857Y-74182857D01*
X110682857Y-74325714D01*
X110730476Y-74420952D01*
X110778095Y-74468571D01*
X110873333Y-74516190D01*
X111254285Y-74516190D01*
X109730476Y-74992380D02*
X110301904Y-74992380D01*
X110016190Y-74992380D02*
X110016190Y-73992380D01*
X110111428Y-74135238D01*
X110206666Y-74230476D01*
X110301904Y-74278095D01*
X154676190Y-91552380D02*
X154438095Y-92552380D01*
X154247619Y-91838095D01*
X154057142Y-92552380D01*
X153819047Y-91552380D01*
X153438095Y-92552380D02*
X153438095Y-91552380D01*
X152961904Y-92552380D02*
X152961904Y-91552380D01*
X152723809Y-91552380D01*
X152580952Y-91600000D01*
X152485714Y-91695238D01*
X152438095Y-91790476D01*
X152390476Y-91980952D01*
X152390476Y-92123809D01*
X152438095Y-92314285D01*
X152485714Y-92409523D01*
X152580952Y-92504761D01*
X152723809Y-92552380D01*
X152961904Y-92552380D01*
X152104761Y-91552380D02*
X151533333Y-91552380D01*
X151819047Y-92552380D02*
X151819047Y-91552380D01*
X151200000Y-92552380D02*
X151200000Y-91552380D01*
X151200000Y-92028571D02*
X150628571Y-92028571D01*
X150628571Y-92552380D02*
X150628571Y-91552380D01*
X150390476Y-92647619D02*
X149628571Y-92647619D01*
X149390476Y-92552380D02*
X149390476Y-91552380D01*
X149057142Y-92266666D01*
X148723809Y-91552380D01*
X148723809Y-92552380D01*
X148057142Y-91552380D02*
X147866666Y-91552380D01*
X147771428Y-91600000D01*
X147676190Y-91695238D01*
X147628571Y-91885714D01*
X147628571Y-92219047D01*
X147676190Y-92409523D01*
X147771428Y-92504761D01*
X147866666Y-92552380D01*
X148057142Y-92552380D01*
X148152380Y-92504761D01*
X148247619Y-92409523D01*
X148295238Y-92219047D01*
X148295238Y-91885714D01*
X148247619Y-91695238D01*
X148152380Y-91600000D01*
X148057142Y-91552380D01*
X147200000Y-92552380D02*
X147200000Y-91552380D01*
X146961904Y-91552380D01*
X146819047Y-91600000D01*
X146723809Y-91695238D01*
X146676190Y-91790476D01*
X146628571Y-91980952D01*
X146628571Y-92123809D01*
X146676190Y-92314285D01*
X146723809Y-92409523D01*
X146819047Y-92504761D01*
X146961904Y-92552380D01*
X147200000Y-92552380D01*
X146200000Y-92028571D02*
X145866666Y-92028571D01*
X145723809Y-92552380D02*
X146200000Y-92552380D01*
X146200000Y-91552380D01*
X145723809Y-91552380D01*
X144771428Y-92552380D02*
X145342857Y-92552380D01*
X145057142Y-92552380D02*
X145057142Y-91552380D01*
X145152380Y-91695238D01*
X145247619Y-91790476D01*
X145342857Y-91838095D01*
X133598095Y-114528571D02*
X133931428Y-114528571D01*
X133931428Y-115052380D02*
X133931428Y-114052380D01*
X133455238Y-114052380D01*
X133074285Y-115052380D02*
X133074285Y-114052380D01*
X132121904Y-115052380D02*
X132598095Y-115052380D01*
X132598095Y-114052380D01*
X131931428Y-114052380D02*
X131360000Y-114052380D01*
X131645714Y-115052380D02*
X131645714Y-114052380D01*
X131026666Y-114528571D02*
X130693333Y-114528571D01*
X130550476Y-115052380D02*
X131026666Y-115052380D01*
X131026666Y-114052380D01*
X130550476Y-114052380D01*
X129550476Y-115052380D02*
X129883809Y-114576190D01*
X130121904Y-115052380D02*
X130121904Y-114052380D01*
X129740952Y-114052380D01*
X129645714Y-114100000D01*
X129598095Y-114147619D01*
X129550476Y-114242857D01*
X129550476Y-114385714D01*
X129598095Y-114480952D01*
X129645714Y-114528571D01*
X129740952Y-114576190D01*
X130121904Y-114576190D01*
X129360000Y-115147619D02*
X128598095Y-115147619D01*
X128360000Y-115052380D02*
X128360000Y-114052380D01*
X128026666Y-114766666D01*
X127693333Y-114052380D01*
X127693333Y-115052380D01*
X127026666Y-114052380D02*
X126836190Y-114052380D01*
X126740952Y-114100000D01*
X126645714Y-114195238D01*
X126598095Y-114385714D01*
X126598095Y-114719047D01*
X126645714Y-114909523D01*
X126740952Y-115004761D01*
X126836190Y-115052380D01*
X127026666Y-115052380D01*
X127121904Y-115004761D01*
X127217142Y-114909523D01*
X127264761Y-114719047D01*
X127264761Y-114385714D01*
X127217142Y-114195238D01*
X127121904Y-114100000D01*
X127026666Y-114052380D01*
X126169523Y-115052380D02*
X126169523Y-114052380D01*
X125931428Y-114052380D01*
X125788571Y-114100000D01*
X125693333Y-114195238D01*
X125645714Y-114290476D01*
X125598095Y-114480952D01*
X125598095Y-114623809D01*
X125645714Y-114814285D01*
X125693333Y-114909523D01*
X125788571Y-115004761D01*
X125931428Y-115052380D01*
X126169523Y-115052380D01*
X125169523Y-114528571D02*
X124836190Y-114528571D01*
X124693333Y-115052380D02*
X125169523Y-115052380D01*
X125169523Y-114052380D01*
X124693333Y-114052380D01*
X123740952Y-115052380D02*
X124312380Y-115052380D01*
X124026666Y-115052380D02*
X124026666Y-114052380D01*
X124121904Y-114195238D01*
X124217142Y-114290476D01*
X124312380Y-114338095D01*
X115030952Y-92552380D02*
X115030952Y-91552380D01*
X114792857Y-91552380D01*
X114650000Y-91600000D01*
X114554761Y-91695238D01*
X114507142Y-91790476D01*
X114459523Y-91980952D01*
X114459523Y-92123809D01*
X114507142Y-92314285D01*
X114554761Y-92409523D01*
X114650000Y-92504761D01*
X114792857Y-92552380D01*
X115030952Y-92552380D01*
X114030952Y-92028571D02*
X113697619Y-92028571D01*
X113554761Y-92552380D02*
X114030952Y-92552380D01*
X114030952Y-91552380D01*
X113554761Y-91552380D01*
X112650000Y-92552380D02*
X113126190Y-92552380D01*
X113126190Y-91552380D01*
X112364285Y-92266666D02*
X111888095Y-92266666D01*
X112459523Y-92552380D02*
X112126190Y-91552380D01*
X111792857Y-92552380D01*
X111269047Y-92076190D02*
X111269047Y-92552380D01*
X111602380Y-91552380D02*
X111269047Y-92076190D01*
X110935714Y-91552380D01*
X110840476Y-92647619D02*
X110078571Y-92647619D01*
X109840476Y-92552380D02*
X109840476Y-91552380D01*
X109507142Y-92266666D01*
X109173809Y-91552380D01*
X109173809Y-92552380D01*
X108507142Y-91552380D02*
X108316666Y-91552380D01*
X108221428Y-91600000D01*
X108126190Y-91695238D01*
X108078571Y-91885714D01*
X108078571Y-92219047D01*
X108126190Y-92409523D01*
X108221428Y-92504761D01*
X108316666Y-92552380D01*
X108507142Y-92552380D01*
X108602380Y-92504761D01*
X108697619Y-92409523D01*
X108745238Y-92219047D01*
X108745238Y-91885714D01*
X108697619Y-91695238D01*
X108602380Y-91600000D01*
X108507142Y-91552380D01*
X107650000Y-92552380D02*
X107650000Y-91552380D01*
X107411904Y-91552380D01*
X107269047Y-91600000D01*
X107173809Y-91695238D01*
X107126190Y-91790476D01*
X107078571Y-91980952D01*
X107078571Y-92123809D01*
X107126190Y-92314285D01*
X107173809Y-92409523D01*
X107269047Y-92504761D01*
X107411904Y-92552380D01*
X107650000Y-92552380D01*
X106650000Y-92028571D02*
X106316666Y-92028571D01*
X106173809Y-92552380D02*
X106650000Y-92552380D01*
X106650000Y-91552380D01*
X106173809Y-91552380D01*
X105221428Y-92552380D02*
X105792857Y-92552380D01*
X105507142Y-92552380D02*
X105507142Y-91552380D01*
X105602380Y-91695238D01*
X105697619Y-91790476D01*
X105792857Y-91838095D01*
X130738095Y-100852380D02*
X130738095Y-99852380D01*
X130500000Y-99852380D01*
X130357142Y-99900000D01*
X130261904Y-99995238D01*
X130214285Y-100090476D01*
X130166666Y-100280952D01*
X130166666Y-100423809D01*
X130214285Y-100614285D01*
X130261904Y-100709523D01*
X130357142Y-100804761D01*
X130500000Y-100852380D01*
X130738095Y-100852380D01*
X129833333Y-99852380D02*
X129214285Y-99852380D01*
X129547619Y-100233333D01*
X129404761Y-100233333D01*
X129309523Y-100280952D01*
X129261904Y-100328571D01*
X129214285Y-100423809D01*
X129214285Y-100661904D01*
X129261904Y-100757142D01*
X129309523Y-100804761D01*
X129404761Y-100852380D01*
X129690476Y-100852380D01*
X129785714Y-100804761D01*
X129833333Y-100757142D01*
X155438095Y-58052380D02*
X155438095Y-57052380D01*
X155200000Y-57052380D01*
X155057142Y-57100000D01*
X154961904Y-57195238D01*
X154914285Y-57290476D01*
X154866666Y-57480952D01*
X154866666Y-57623809D01*
X154914285Y-57814285D01*
X154961904Y-57909523D01*
X155057142Y-58004761D01*
X155200000Y-58052380D01*
X155438095Y-58052380D01*
X154485714Y-57147619D02*
X154438095Y-57100000D01*
X154342857Y-57052380D01*
X154104761Y-57052380D01*
X154009523Y-57100000D01*
X153961904Y-57147619D01*
X153914285Y-57242857D01*
X153914285Y-57338095D01*
X153961904Y-57480952D01*
X154533333Y-58052380D01*
X153914285Y-58052380D01*
X106038095Y-58052380D02*
X106038095Y-57052380D01*
X105800000Y-57052380D01*
X105657142Y-57100000D01*
X105561904Y-57195238D01*
X105514285Y-57290476D01*
X105466666Y-57480952D01*
X105466666Y-57623809D01*
X105514285Y-57814285D01*
X105561904Y-57909523D01*
X105657142Y-58004761D01*
X105800000Y-58052380D01*
X106038095Y-58052380D01*
X104514285Y-58052380D02*
X105085714Y-58052380D01*
X104800000Y-58052380D02*
X104800000Y-57052380D01*
X104895238Y-57195238D01*
X104990476Y-57290476D01*
X105085714Y-57338095D01*
X131380952Y-133828571D02*
X131714285Y-133828571D01*
X131714285Y-134352380D02*
X131714285Y-133352380D01*
X131238095Y-133352380D01*
X130857142Y-134352380D02*
X130857142Y-133685714D01*
X130857142Y-133352380D02*
X130904761Y-133400000D01*
X130857142Y-133447619D01*
X130809523Y-133400000D01*
X130857142Y-133352380D01*
X130857142Y-133447619D01*
X130238095Y-134352380D02*
X130333333Y-134304761D01*
X130380952Y-134209523D01*
X130380952Y-133352380D01*
X130000000Y-133685714D02*
X129619047Y-133685714D01*
X129857142Y-133352380D02*
X129857142Y-134209523D01*
X129809523Y-134304761D01*
X129714285Y-134352380D01*
X129619047Y-134352380D01*
X128904761Y-134304761D02*
X129000000Y-134352380D01*
X129190476Y-134352380D01*
X129285714Y-134304761D01*
X129333333Y-134209523D01*
X129333333Y-133828571D01*
X129285714Y-133733333D01*
X129190476Y-133685714D01*
X129000000Y-133685714D01*
X128904761Y-133733333D01*
X128857142Y-133828571D01*
X128857142Y-133923809D01*
X129333333Y-134019047D01*
X128428571Y-134352380D02*
X128428571Y-133685714D01*
X128428571Y-133876190D02*
X128380952Y-133780952D01*
X128333333Y-133733333D01*
X128238095Y-133685714D01*
X128142857Y-133685714D01*
X113357142Y-158786666D02*
X112880952Y-158786666D01*
X113452380Y-159072380D02*
X113119047Y-158072380D01*
X112785714Y-159072380D01*
X112023809Y-158405714D02*
X112023809Y-159072380D01*
X112452380Y-158405714D02*
X112452380Y-158929523D01*
X112404761Y-159024761D01*
X112309523Y-159072380D01*
X112166666Y-159072380D01*
X112071428Y-159024761D01*
X112023809Y-158977142D01*
X111119047Y-159072380D02*
X111119047Y-158072380D01*
X111119047Y-159024761D02*
X111214285Y-159072380D01*
X111404761Y-159072380D01*
X111500000Y-159024761D01*
X111547619Y-158977142D01*
X111595238Y-158881904D01*
X111595238Y-158596190D01*
X111547619Y-158500952D01*
X111500000Y-158453333D01*
X111404761Y-158405714D01*
X111214285Y-158405714D01*
X111119047Y-158453333D01*
X110642857Y-159072380D02*
X110642857Y-158405714D01*
X110642857Y-158072380D02*
X110690476Y-158120000D01*
X110642857Y-158167619D01*
X110595238Y-158120000D01*
X110642857Y-158072380D01*
X110642857Y-158167619D01*
X110023809Y-159072380D02*
X110119047Y-159024761D01*
X110166666Y-158977142D01*
X110214285Y-158881904D01*
X110214285Y-158596190D01*
X110166666Y-158500952D01*
X110119047Y-158453333D01*
X110023809Y-158405714D01*
X109880952Y-158405714D01*
X109785714Y-158453333D01*
X109738095Y-158500952D01*
X109690476Y-158596190D01*
X109690476Y-158881904D01*
X109738095Y-158977142D01*
X109785714Y-159024761D01*
X109880952Y-159072380D01*
X110023809Y-159072380D01*
X109500000Y-159167619D02*
X108738095Y-159167619D01*
X108309523Y-158072380D02*
X108119047Y-158072380D01*
X108023809Y-158120000D01*
X107928571Y-158215238D01*
X107880952Y-158405714D01*
X107880952Y-158739047D01*
X107928571Y-158929523D01*
X108023809Y-159024761D01*
X108119047Y-159072380D01*
X108309523Y-159072380D01*
X108404761Y-159024761D01*
X108500000Y-158929523D01*
X108547619Y-158739047D01*
X108547619Y-158405714D01*
X108500000Y-158215238D01*
X108404761Y-158120000D01*
X108309523Y-158072380D01*
X107023809Y-158405714D02*
X107023809Y-159072380D01*
X107452380Y-158405714D02*
X107452380Y-158929523D01*
X107404761Y-159024761D01*
X107309523Y-159072380D01*
X107166666Y-159072380D01*
X107071428Y-159024761D01*
X107023809Y-158977142D01*
X106690476Y-158405714D02*
X106309523Y-158405714D01*
X106547619Y-158072380D02*
X106547619Y-158929523D01*
X106500000Y-159024761D01*
X106404761Y-159072380D01*
X106309523Y-159072380D01*
X106214285Y-159167619D02*
X105452380Y-159167619D01*
X104642857Y-159072380D02*
X104976190Y-158596190D01*
X105214285Y-159072380D02*
X105214285Y-158072380D01*
X104833333Y-158072380D01*
X104738095Y-158120000D01*
X104690476Y-158167619D01*
X104642857Y-158262857D01*
X104642857Y-158405714D01*
X104690476Y-158500952D01*
X104738095Y-158548571D01*
X104833333Y-158596190D01*
X105214285Y-158596190D01*
X121785714Y-142072380D02*
X121785714Y-141072380D01*
X121452380Y-141786666D01*
X121119047Y-141072380D01*
X121119047Y-142072380D01*
X120642857Y-142072380D02*
X120642857Y-141405714D01*
X120642857Y-141072380D02*
X120690476Y-141120000D01*
X120642857Y-141167619D01*
X120595238Y-141120000D01*
X120642857Y-141072380D01*
X120642857Y-141167619D01*
X120261904Y-142072380D02*
X119738095Y-141405714D01*
X120261904Y-141405714D02*
X119738095Y-142072380D01*
X119595238Y-142167619D02*
X118833333Y-142167619D01*
X118023809Y-141977142D02*
X118071428Y-142024761D01*
X118214285Y-142072380D01*
X118309523Y-142072380D01*
X118452380Y-142024761D01*
X118547619Y-141929523D01*
X118595238Y-141834285D01*
X118642857Y-141643809D01*
X118642857Y-141500952D01*
X118595238Y-141310476D01*
X118547619Y-141215238D01*
X118452380Y-141120000D01*
X118309523Y-141072380D01*
X118214285Y-141072380D01*
X118071428Y-141120000D01*
X118023809Y-141167619D01*
X117738095Y-141072380D02*
X117404761Y-142072380D01*
X117071428Y-141072380D01*
X144714285Y-141548571D02*
X145047619Y-141548571D01*
X145047619Y-142072380D02*
X145047619Y-141072380D01*
X144571428Y-141072380D01*
X143809523Y-142024761D02*
X143904761Y-142072380D01*
X144095238Y-142072380D01*
X144190476Y-142024761D01*
X144238095Y-141929523D01*
X144238095Y-141548571D01*
X144190476Y-141453333D01*
X144095238Y-141405714D01*
X143904761Y-141405714D01*
X143809523Y-141453333D01*
X143761904Y-141548571D01*
X143761904Y-141643809D01*
X144238095Y-141739047D01*
X142952380Y-142024761D02*
X143047619Y-142072380D01*
X143238095Y-142072380D01*
X143333333Y-142024761D01*
X143380952Y-141929523D01*
X143380952Y-141548571D01*
X143333333Y-141453333D01*
X143238095Y-141405714D01*
X143047619Y-141405714D01*
X142952380Y-141453333D01*
X142904761Y-141548571D01*
X142904761Y-141643809D01*
X143380952Y-141739047D01*
X142047619Y-142072380D02*
X142047619Y-141072380D01*
X142047619Y-142024761D02*
X142142857Y-142072380D01*
X142333333Y-142072380D01*
X142428571Y-142024761D01*
X142476190Y-141977142D01*
X142523809Y-141881904D01*
X142523809Y-141596190D01*
X142476190Y-141500952D01*
X142428571Y-141453333D01*
X142333333Y-141405714D01*
X142142857Y-141405714D01*
X142047619Y-141453333D01*
X141571428Y-142072380D02*
X141571428Y-141072380D01*
X141571428Y-141453333D02*
X141476190Y-141405714D01*
X141285714Y-141405714D01*
X141190476Y-141453333D01*
X141142857Y-141500952D01*
X141095238Y-141596190D01*
X141095238Y-141881904D01*
X141142857Y-141977142D01*
X141190476Y-142024761D01*
X141285714Y-142072380D01*
X141476190Y-142072380D01*
X141571428Y-142024761D01*
X140238095Y-142072380D02*
X140238095Y-141548571D01*
X140285714Y-141453333D01*
X140380952Y-141405714D01*
X140571428Y-141405714D01*
X140666666Y-141453333D01*
X140238095Y-142024761D02*
X140333333Y-142072380D01*
X140571428Y-142072380D01*
X140666666Y-142024761D01*
X140714285Y-141929523D01*
X140714285Y-141834285D01*
X140666666Y-141739047D01*
X140571428Y-141691428D01*
X140333333Y-141691428D01*
X140238095Y-141643809D01*
X139333333Y-142024761D02*
X139428571Y-142072380D01*
X139619047Y-142072380D01*
X139714285Y-142024761D01*
X139761904Y-141977142D01*
X139809523Y-141881904D01*
X139809523Y-141596190D01*
X139761904Y-141500952D01*
X139714285Y-141453333D01*
X139619047Y-141405714D01*
X139428571Y-141405714D01*
X139333333Y-141453333D01*
X138904761Y-142072380D02*
X138904761Y-141072380D01*
X138809523Y-141691428D02*
X138523809Y-142072380D01*
X138523809Y-141405714D02*
X138904761Y-141786666D01*
X138333333Y-142167619D02*
X137571428Y-142167619D01*
X136761904Y-141977142D02*
X136809523Y-142024761D01*
X136952380Y-142072380D01*
X137047619Y-142072380D01*
X137190476Y-142024761D01*
X137285714Y-141929523D01*
X137333333Y-141834285D01*
X137380952Y-141643809D01*
X137380952Y-141500952D01*
X137333333Y-141310476D01*
X137285714Y-141215238D01*
X137190476Y-141120000D01*
X137047619Y-141072380D01*
X136952380Y-141072380D01*
X136809523Y-141120000D01*
X136761904Y-141167619D01*
X136476190Y-141072380D02*
X136142857Y-142072380D01*
X135809523Y-141072380D01*
X112976190Y-142072380D02*
X112976190Y-141072380D01*
X112738095Y-141072380D01*
X112595238Y-141120000D01*
X112500000Y-141215238D01*
X112452380Y-141310476D01*
X112404761Y-141500952D01*
X112404761Y-141643809D01*
X112452380Y-141834285D01*
X112500000Y-141929523D01*
X112595238Y-142024761D01*
X112738095Y-142072380D01*
X112976190Y-142072380D01*
X111595238Y-142024761D02*
X111690476Y-142072380D01*
X111880952Y-142072380D01*
X111976190Y-142024761D01*
X112023809Y-141929523D01*
X112023809Y-141548571D01*
X111976190Y-141453333D01*
X111880952Y-141405714D01*
X111690476Y-141405714D01*
X111595238Y-141453333D01*
X111547619Y-141548571D01*
X111547619Y-141643809D01*
X112023809Y-141739047D01*
X110976190Y-142072380D02*
X111071428Y-142024761D01*
X111119047Y-141929523D01*
X111119047Y-141072380D01*
X110166666Y-142072380D02*
X110166666Y-141548571D01*
X110214285Y-141453333D01*
X110309523Y-141405714D01*
X110500000Y-141405714D01*
X110595238Y-141453333D01*
X110166666Y-142024761D02*
X110261904Y-142072380D01*
X110500000Y-142072380D01*
X110595238Y-142024761D01*
X110642857Y-141929523D01*
X110642857Y-141834285D01*
X110595238Y-141739047D01*
X110500000Y-141691428D01*
X110261904Y-141691428D01*
X110166666Y-141643809D01*
X109785714Y-141405714D02*
X109547619Y-142072380D01*
X109309523Y-141405714D02*
X109547619Y-142072380D01*
X109642857Y-142310476D01*
X109690476Y-142358095D01*
X109785714Y-142405714D01*
X109166666Y-142167619D02*
X108404761Y-142167619D01*
X107595238Y-141977142D02*
X107642857Y-142024761D01*
X107785714Y-142072380D01*
X107880952Y-142072380D01*
X108023809Y-142024761D01*
X108119047Y-141929523D01*
X108166666Y-141834285D01*
X108214285Y-141643809D01*
X108214285Y-141500952D01*
X108166666Y-141310476D01*
X108119047Y-141215238D01*
X108023809Y-141120000D01*
X107880952Y-141072380D01*
X107785714Y-141072380D01*
X107642857Y-141120000D01*
X107595238Y-141167619D01*
X107309523Y-141072380D02*
X106976190Y-142072380D01*
X106642857Y-141072380D01*
X106547619Y-142167619D02*
X105785714Y-142167619D01*
X104976190Y-142072380D02*
X105309523Y-141596190D01*
X105547619Y-142072380D02*
X105547619Y-141072380D01*
X105166666Y-141072380D01*
X105071428Y-141120000D01*
X105023809Y-141167619D01*
X104976190Y-141262857D01*
X104976190Y-141405714D01*
X105023809Y-141500952D01*
X105071428Y-141548571D01*
X105166666Y-141596190D01*
X105547619Y-141596190D01*
X123761904Y-158786666D02*
X123285714Y-158786666D01*
X123857142Y-159072380D02*
X123523809Y-158072380D01*
X123190476Y-159072380D01*
X122428571Y-158405714D02*
X122428571Y-159072380D01*
X122857142Y-158405714D02*
X122857142Y-158929523D01*
X122809523Y-159024761D01*
X122714285Y-159072380D01*
X122571428Y-159072380D01*
X122476190Y-159024761D01*
X122428571Y-158977142D01*
X121523809Y-159072380D02*
X121523809Y-158072380D01*
X121523809Y-159024761D02*
X121619047Y-159072380D01*
X121809523Y-159072380D01*
X121904761Y-159024761D01*
X121952380Y-158977142D01*
X122000000Y-158881904D01*
X122000000Y-158596190D01*
X121952380Y-158500952D01*
X121904761Y-158453333D01*
X121809523Y-158405714D01*
X121619047Y-158405714D01*
X121523809Y-158453333D01*
X121047619Y-159072380D02*
X121047619Y-158405714D01*
X121047619Y-158072380D02*
X121095238Y-158120000D01*
X121047619Y-158167619D01*
X121000000Y-158120000D01*
X121047619Y-158072380D01*
X121047619Y-158167619D01*
X120428571Y-159072380D02*
X120523809Y-159024761D01*
X120571428Y-158977142D01*
X120619047Y-158881904D01*
X120619047Y-158596190D01*
X120571428Y-158500952D01*
X120523809Y-158453333D01*
X120428571Y-158405714D01*
X120285714Y-158405714D01*
X120190476Y-158453333D01*
X120142857Y-158500952D01*
X120095238Y-158596190D01*
X120095238Y-158881904D01*
X120142857Y-158977142D01*
X120190476Y-159024761D01*
X120285714Y-159072380D01*
X120428571Y-159072380D01*
X119904761Y-159167619D02*
X119142857Y-159167619D01*
X118714285Y-158072380D02*
X118523809Y-158072380D01*
X118428571Y-158120000D01*
X118333333Y-158215238D01*
X118285714Y-158405714D01*
X118285714Y-158739047D01*
X118333333Y-158929523D01*
X118428571Y-159024761D01*
X118523809Y-159072380D01*
X118714285Y-159072380D01*
X118809523Y-159024761D01*
X118904761Y-158929523D01*
X118952380Y-158739047D01*
X118952380Y-158405714D01*
X118904761Y-158215238D01*
X118809523Y-158120000D01*
X118714285Y-158072380D01*
X117428571Y-158405714D02*
X117428571Y-159072380D01*
X117857142Y-158405714D02*
X117857142Y-158929523D01*
X117809523Y-159024761D01*
X117714285Y-159072380D01*
X117571428Y-159072380D01*
X117476190Y-159024761D01*
X117428571Y-158977142D01*
X117095238Y-158405714D02*
X116714285Y-158405714D01*
X116952380Y-158072380D02*
X116952380Y-158929523D01*
X116904761Y-159024761D01*
X116809523Y-159072380D01*
X116714285Y-159072380D01*
X116619047Y-159167619D02*
X115857142Y-159167619D01*
X115142857Y-159072380D02*
X115619047Y-159072380D01*
X115619047Y-158072380D01*
X144285714Y-158786666D02*
X143809523Y-158786666D01*
X144380952Y-159072380D02*
X144047619Y-158072380D01*
X143714285Y-159072380D01*
X142952380Y-158405714D02*
X142952380Y-159072380D01*
X143380952Y-158405714D02*
X143380952Y-158929523D01*
X143333333Y-159024761D01*
X143238095Y-159072380D01*
X143095238Y-159072380D01*
X143000000Y-159024761D01*
X142952380Y-158977142D01*
X142047619Y-159072380D02*
X142047619Y-158072380D01*
X142047619Y-159024761D02*
X142142857Y-159072380D01*
X142333333Y-159072380D01*
X142428571Y-159024761D01*
X142476190Y-158977142D01*
X142523809Y-158881904D01*
X142523809Y-158596190D01*
X142476190Y-158500952D01*
X142428571Y-158453333D01*
X142333333Y-158405714D01*
X142142857Y-158405714D01*
X142047619Y-158453333D01*
X141571428Y-159072380D02*
X141571428Y-158405714D01*
X141571428Y-158072380D02*
X141619047Y-158120000D01*
X141571428Y-158167619D01*
X141523809Y-158120000D01*
X141571428Y-158072380D01*
X141571428Y-158167619D01*
X140952380Y-159072380D02*
X141047619Y-159024761D01*
X141095238Y-158977142D01*
X141142857Y-158881904D01*
X141142857Y-158596190D01*
X141095238Y-158500952D01*
X141047619Y-158453333D01*
X140952380Y-158405714D01*
X140809523Y-158405714D01*
X140714285Y-158453333D01*
X140666666Y-158500952D01*
X140619047Y-158596190D01*
X140619047Y-158881904D01*
X140666666Y-158977142D01*
X140714285Y-159024761D01*
X140809523Y-159072380D01*
X140952380Y-159072380D01*
X140428571Y-159167619D02*
X139666666Y-159167619D01*
X139428571Y-159072380D02*
X139428571Y-158072380D01*
X138952380Y-158405714D02*
X138952380Y-159072380D01*
X138952380Y-158500952D02*
X138904761Y-158453333D01*
X138809523Y-158405714D01*
X138666666Y-158405714D01*
X138571428Y-158453333D01*
X138523809Y-158548571D01*
X138523809Y-159072380D01*
X138285714Y-159167619D02*
X137523809Y-159167619D01*
X136714285Y-159072380D02*
X137047619Y-158596190D01*
X137285714Y-159072380D02*
X137285714Y-158072380D01*
X136904761Y-158072380D01*
X136809523Y-158120000D01*
X136761904Y-158167619D01*
X136714285Y-158262857D01*
X136714285Y-158405714D01*
X136761904Y-158500952D01*
X136809523Y-158548571D01*
X136904761Y-158596190D01*
X137285714Y-158596190D01*
X131238095Y-158977142D02*
X131285714Y-159024761D01*
X131428571Y-159072380D01*
X131523809Y-159072380D01*
X131666666Y-159024761D01*
X131761904Y-158929523D01*
X131809523Y-158834285D01*
X131857142Y-158643809D01*
X131857142Y-158500952D01*
X131809523Y-158310476D01*
X131761904Y-158215238D01*
X131666666Y-158120000D01*
X131523809Y-158072380D01*
X131428571Y-158072380D01*
X131285714Y-158120000D01*
X131238095Y-158167619D01*
X130666666Y-159072380D02*
X130761904Y-159024761D01*
X130809523Y-158929523D01*
X130809523Y-158072380D01*
X130142857Y-159072380D02*
X130238095Y-159024761D01*
X130285714Y-158977142D01*
X130333333Y-158881904D01*
X130333333Y-158596190D01*
X130285714Y-158500952D01*
X130238095Y-158453333D01*
X130142857Y-158405714D01*
X130000000Y-158405714D01*
X129904761Y-158453333D01*
X129857142Y-158500952D01*
X129809523Y-158596190D01*
X129809523Y-158881904D01*
X129857142Y-158977142D01*
X129904761Y-159024761D01*
X130000000Y-159072380D01*
X130142857Y-159072380D01*
X128952380Y-159024761D02*
X129047619Y-159072380D01*
X129238095Y-159072380D01*
X129333333Y-159024761D01*
X129380952Y-158977142D01*
X129428571Y-158881904D01*
X129428571Y-158596190D01*
X129380952Y-158500952D01*
X129333333Y-158453333D01*
X129238095Y-158405714D01*
X129047619Y-158405714D01*
X128952380Y-158453333D01*
X128523809Y-159072380D02*
X128523809Y-158072380D01*
X128428571Y-158691428D02*
X128142857Y-159072380D01*
X128142857Y-158405714D02*
X128523809Y-158786666D01*
X154880952Y-142072380D02*
X154880952Y-141072380D01*
X154642857Y-141072380D01*
X154500000Y-141120000D01*
X154404761Y-141215238D01*
X154357142Y-141310476D01*
X154309523Y-141500952D01*
X154309523Y-141643809D01*
X154357142Y-141834285D01*
X154404761Y-141929523D01*
X154500000Y-142024761D01*
X154642857Y-142072380D01*
X154880952Y-142072380D01*
X153500000Y-142024761D02*
X153595238Y-142072380D01*
X153785714Y-142072380D01*
X153880952Y-142024761D01*
X153928571Y-141929523D01*
X153928571Y-141548571D01*
X153880952Y-141453333D01*
X153785714Y-141405714D01*
X153595238Y-141405714D01*
X153500000Y-141453333D01*
X153452380Y-141548571D01*
X153452380Y-141643809D01*
X153928571Y-141739047D01*
X152880952Y-142072380D02*
X152976190Y-142024761D01*
X153023809Y-141929523D01*
X153023809Y-141072380D01*
X152071428Y-142072380D02*
X152071428Y-141548571D01*
X152119047Y-141453333D01*
X152214285Y-141405714D01*
X152404761Y-141405714D01*
X152500000Y-141453333D01*
X152071428Y-142024761D02*
X152166666Y-142072380D01*
X152404761Y-142072380D01*
X152500000Y-142024761D01*
X152547619Y-141929523D01*
X152547619Y-141834285D01*
X152500000Y-141739047D01*
X152404761Y-141691428D01*
X152166666Y-141691428D01*
X152071428Y-141643809D01*
X151690476Y-141405714D02*
X151452380Y-142072380D01*
X151214285Y-141405714D02*
X151452380Y-142072380D01*
X151547619Y-142310476D01*
X151595238Y-142358095D01*
X151690476Y-142405714D01*
X151071428Y-142167619D02*
X150309523Y-142167619D01*
X149500000Y-141977142D02*
X149547619Y-142024761D01*
X149690476Y-142072380D01*
X149785714Y-142072380D01*
X149928571Y-142024761D01*
X150023809Y-141929523D01*
X150071428Y-141834285D01*
X150119047Y-141643809D01*
X150119047Y-141500952D01*
X150071428Y-141310476D01*
X150023809Y-141215238D01*
X149928571Y-141120000D01*
X149785714Y-141072380D01*
X149690476Y-141072380D01*
X149547619Y-141120000D01*
X149500000Y-141167619D01*
X149214285Y-141072380D02*
X148880952Y-142072380D01*
X148547619Y-141072380D01*
X148452380Y-142167619D02*
X147690476Y-142167619D01*
X146976190Y-142072380D02*
X147452380Y-142072380D01*
X147452380Y-141072380D01*
X154690476Y-158786666D02*
X154214285Y-158786666D01*
X154785714Y-159072380D02*
X154452380Y-158072380D01*
X154119047Y-159072380D01*
X153357142Y-158405714D02*
X153357142Y-159072380D01*
X153785714Y-158405714D02*
X153785714Y-158929523D01*
X153738095Y-159024761D01*
X153642857Y-159072380D01*
X153500000Y-159072380D01*
X153404761Y-159024761D01*
X153357142Y-158977142D01*
X152452380Y-159072380D02*
X152452380Y-158072380D01*
X152452380Y-159024761D02*
X152547619Y-159072380D01*
X152738095Y-159072380D01*
X152833333Y-159024761D01*
X152880952Y-158977142D01*
X152928571Y-158881904D01*
X152928571Y-158596190D01*
X152880952Y-158500952D01*
X152833333Y-158453333D01*
X152738095Y-158405714D01*
X152547619Y-158405714D01*
X152452380Y-158453333D01*
X151976190Y-159072380D02*
X151976190Y-158405714D01*
X151976190Y-158072380D02*
X152023809Y-158120000D01*
X151976190Y-158167619D01*
X151928571Y-158120000D01*
X151976190Y-158072380D01*
X151976190Y-158167619D01*
X151357142Y-159072380D02*
X151452380Y-159024761D01*
X151500000Y-158977142D01*
X151547619Y-158881904D01*
X151547619Y-158596190D01*
X151500000Y-158500952D01*
X151452380Y-158453333D01*
X151357142Y-158405714D01*
X151214285Y-158405714D01*
X151119047Y-158453333D01*
X151071428Y-158500952D01*
X151023809Y-158596190D01*
X151023809Y-158881904D01*
X151071428Y-158977142D01*
X151119047Y-159024761D01*
X151214285Y-159072380D01*
X151357142Y-159072380D01*
X150833333Y-159167619D02*
X150071428Y-159167619D01*
X149833333Y-159072380D02*
X149833333Y-158072380D01*
X149357142Y-158405714D02*
X149357142Y-159072380D01*
X149357142Y-158500952D02*
X149309523Y-158453333D01*
X149214285Y-158405714D01*
X149071428Y-158405714D01*
X148976190Y-158453333D01*
X148928571Y-158548571D01*
X148928571Y-159072380D01*
X148690476Y-159167619D02*
X147928571Y-159167619D01*
X147214285Y-159072380D02*
X147690476Y-159072380D01*
X147690476Y-158072380D01*
X133664285Y-79352380D02*
X133092857Y-79352380D01*
X133378571Y-80352380D02*
X133378571Y-79352380D01*
X132616666Y-80352380D02*
X132711904Y-80304761D01*
X132759523Y-80257142D01*
X132807142Y-80161904D01*
X132807142Y-79876190D01*
X132759523Y-79780952D01*
X132711904Y-79733333D01*
X132616666Y-79685714D01*
X132473809Y-79685714D01*
X132378571Y-79733333D01*
X132330952Y-79780952D01*
X132283333Y-79876190D01*
X132283333Y-80161904D01*
X132330952Y-80257142D01*
X132378571Y-80304761D01*
X132473809Y-80352380D01*
X132616666Y-80352380D01*
X131854761Y-79685714D02*
X131854761Y-80352380D01*
X131854761Y-79780952D02*
X131807142Y-79733333D01*
X131711904Y-79685714D01*
X131569047Y-79685714D01*
X131473809Y-79733333D01*
X131426190Y-79828571D01*
X131426190Y-80352380D01*
X130569047Y-80304761D02*
X130664285Y-80352380D01*
X130854761Y-80352380D01*
X130950000Y-80304761D01*
X130997619Y-80209523D01*
X130997619Y-79828571D01*
X130950000Y-79733333D01*
X130854761Y-79685714D01*
X130664285Y-79685714D01*
X130569047Y-79733333D01*
X130521428Y-79828571D01*
X130521428Y-79923809D01*
X130997619Y-80019047D01*
X130330952Y-80447619D02*
X129569047Y-80447619D01*
X129330952Y-80352380D02*
X129330952Y-79352380D01*
X128950000Y-79352380D01*
X128854761Y-79400000D01*
X128807142Y-79447619D01*
X128759523Y-79542857D01*
X128759523Y-79685714D01*
X128807142Y-79780952D01*
X128854761Y-79828571D01*
X128950000Y-79876190D01*
X129330952Y-79876190D01*
X128188095Y-80352380D02*
X128283333Y-80304761D01*
X128330952Y-80257142D01*
X128378571Y-80161904D01*
X128378571Y-79876190D01*
X128330952Y-79780952D01*
X128283333Y-79733333D01*
X128188095Y-79685714D01*
X128045238Y-79685714D01*
X127950000Y-79733333D01*
X127902380Y-79780952D01*
X127854761Y-79876190D01*
X127854761Y-80161904D01*
X127902380Y-80257142D01*
X127950000Y-80304761D01*
X128045238Y-80352380D01*
X128188095Y-80352380D01*
X127569047Y-79685714D02*
X127188095Y-79685714D01*
X127426190Y-79352380D02*
X127426190Y-80209523D01*
X127378571Y-80304761D01*
X127283333Y-80352380D01*
X127188095Y-80352380D01*
X126330952Y-80352380D02*
X126902380Y-80352380D01*
X126616666Y-80352380D02*
X126616666Y-79352380D01*
X126711904Y-79495238D01*
X126807142Y-79590476D01*
X126902380Y-79638095D01*
X117611428Y-118992380D02*
X117611428Y-117992380D01*
X117278095Y-118706666D01*
X116944761Y-117992380D01*
X116944761Y-118992380D01*
X116468571Y-118992380D02*
X116468571Y-118325714D01*
X116468571Y-117992380D02*
X116516190Y-118040000D01*
X116468571Y-118087619D01*
X116420952Y-118040000D01*
X116468571Y-117992380D01*
X116468571Y-118087619D01*
X116087619Y-118992380D02*
X115563809Y-118325714D01*
X116087619Y-118325714D02*
X115563809Y-118992380D01*
X115420952Y-119087619D02*
X114659047Y-119087619D01*
X114420952Y-118992380D02*
X114420952Y-117992380D01*
X114040000Y-117992380D01*
X113944761Y-118040000D01*
X113897142Y-118087619D01*
X113849523Y-118182857D01*
X113849523Y-118325714D01*
X113897142Y-118420952D01*
X113944761Y-118468571D01*
X114040000Y-118516190D01*
X114420952Y-118516190D01*
X113278095Y-118992380D02*
X113373333Y-118944761D01*
X113420952Y-118897142D01*
X113468571Y-118801904D01*
X113468571Y-118516190D01*
X113420952Y-118420952D01*
X113373333Y-118373333D01*
X113278095Y-118325714D01*
X113135238Y-118325714D01*
X113040000Y-118373333D01*
X112992380Y-118420952D01*
X112944761Y-118516190D01*
X112944761Y-118801904D01*
X112992380Y-118897142D01*
X113040000Y-118944761D01*
X113135238Y-118992380D01*
X113278095Y-118992380D01*
X112659047Y-118325714D02*
X112278095Y-118325714D01*
X112516190Y-117992380D02*
X112516190Y-118849523D01*
X112468571Y-118944761D01*
X112373333Y-118992380D01*
X112278095Y-118992380D01*
X111420952Y-118992380D02*
X111992380Y-118992380D01*
X111706666Y-118992380D02*
X111706666Y-117992380D01*
X111801904Y-118135238D01*
X111897142Y-118230476D01*
X111992380Y-118278095D01*
X150540000Y-118468571D02*
X150873333Y-118468571D01*
X150873333Y-118992380D02*
X150873333Y-117992380D01*
X150397142Y-117992380D01*
X149635238Y-118944761D02*
X149730476Y-118992380D01*
X149920952Y-118992380D01*
X150016190Y-118944761D01*
X150063809Y-118849523D01*
X150063809Y-118468571D01*
X150016190Y-118373333D01*
X149920952Y-118325714D01*
X149730476Y-118325714D01*
X149635238Y-118373333D01*
X149587619Y-118468571D01*
X149587619Y-118563809D01*
X150063809Y-118659047D01*
X148778095Y-118944761D02*
X148873333Y-118992380D01*
X149063809Y-118992380D01*
X149159047Y-118944761D01*
X149206666Y-118849523D01*
X149206666Y-118468571D01*
X149159047Y-118373333D01*
X149063809Y-118325714D01*
X148873333Y-118325714D01*
X148778095Y-118373333D01*
X148730476Y-118468571D01*
X148730476Y-118563809D01*
X149206666Y-118659047D01*
X147873333Y-118992380D02*
X147873333Y-117992380D01*
X147873333Y-118944761D02*
X147968571Y-118992380D01*
X148159047Y-118992380D01*
X148254285Y-118944761D01*
X148301904Y-118897142D01*
X148349523Y-118801904D01*
X148349523Y-118516190D01*
X148301904Y-118420952D01*
X148254285Y-118373333D01*
X148159047Y-118325714D01*
X147968571Y-118325714D01*
X147873333Y-118373333D01*
X147397142Y-118992380D02*
X147397142Y-117992380D01*
X147397142Y-118373333D02*
X147301904Y-118325714D01*
X147111428Y-118325714D01*
X147016190Y-118373333D01*
X146968571Y-118420952D01*
X146920952Y-118516190D01*
X146920952Y-118801904D01*
X146968571Y-118897142D01*
X147016190Y-118944761D01*
X147111428Y-118992380D01*
X147301904Y-118992380D01*
X147397142Y-118944761D01*
X146063809Y-118992380D02*
X146063809Y-118468571D01*
X146111428Y-118373333D01*
X146206666Y-118325714D01*
X146397142Y-118325714D01*
X146492380Y-118373333D01*
X146063809Y-118944761D02*
X146159047Y-118992380D01*
X146397142Y-118992380D01*
X146492380Y-118944761D01*
X146540000Y-118849523D01*
X146540000Y-118754285D01*
X146492380Y-118659047D01*
X146397142Y-118611428D01*
X146159047Y-118611428D01*
X146063809Y-118563809D01*
X145159047Y-118944761D02*
X145254285Y-118992380D01*
X145444761Y-118992380D01*
X145540000Y-118944761D01*
X145587619Y-118897142D01*
X145635238Y-118801904D01*
X145635238Y-118516190D01*
X145587619Y-118420952D01*
X145540000Y-118373333D01*
X145444761Y-118325714D01*
X145254285Y-118325714D01*
X145159047Y-118373333D01*
X144730476Y-118992380D02*
X144730476Y-117992380D01*
X144635238Y-118611428D02*
X144349523Y-118992380D01*
X144349523Y-118325714D02*
X144730476Y-118706666D01*
X144159047Y-119087619D02*
X143397142Y-119087619D01*
X143159047Y-118992380D02*
X143159047Y-117992380D01*
X142778095Y-117992380D01*
X142682857Y-118040000D01*
X142635238Y-118087619D01*
X142587619Y-118182857D01*
X142587619Y-118325714D01*
X142635238Y-118420952D01*
X142682857Y-118468571D01*
X142778095Y-118516190D01*
X143159047Y-118516190D01*
X142016190Y-118992380D02*
X142111428Y-118944761D01*
X142159047Y-118897142D01*
X142206666Y-118801904D01*
X142206666Y-118516190D01*
X142159047Y-118420952D01*
X142111428Y-118373333D01*
X142016190Y-118325714D01*
X141873333Y-118325714D01*
X141778095Y-118373333D01*
X141730476Y-118420952D01*
X141682857Y-118516190D01*
X141682857Y-118801904D01*
X141730476Y-118897142D01*
X141778095Y-118944761D01*
X141873333Y-118992380D01*
X142016190Y-118992380D01*
X141397142Y-118325714D02*
X141016190Y-118325714D01*
X141254285Y-117992380D02*
X141254285Y-118849523D01*
X141206666Y-118944761D01*
X141111428Y-118992380D01*
X141016190Y-118992380D01*
X140159047Y-118992380D02*
X140730476Y-118992380D01*
X140444761Y-118992380D02*
X140444761Y-117992380D01*
X140540000Y-118135238D01*
X140635238Y-118230476D01*
X140730476Y-118278095D01*
X150206666Y-74992380D02*
X150206666Y-73992380D01*
X149968571Y-73992380D01*
X149825714Y-74040000D01*
X149730476Y-74135238D01*
X149682857Y-74230476D01*
X149635238Y-74420952D01*
X149635238Y-74563809D01*
X149682857Y-74754285D01*
X149730476Y-74849523D01*
X149825714Y-74944761D01*
X149968571Y-74992380D01*
X150206666Y-74992380D01*
X148825714Y-74944761D02*
X148920952Y-74992380D01*
X149111428Y-74992380D01*
X149206666Y-74944761D01*
X149254285Y-74849523D01*
X149254285Y-74468571D01*
X149206666Y-74373333D01*
X149111428Y-74325714D01*
X148920952Y-74325714D01*
X148825714Y-74373333D01*
X148778095Y-74468571D01*
X148778095Y-74563809D01*
X149254285Y-74659047D01*
X148206666Y-74992380D02*
X148301904Y-74944761D01*
X148349523Y-74849523D01*
X148349523Y-73992380D01*
X147397142Y-74992380D02*
X147397142Y-74468571D01*
X147444761Y-74373333D01*
X147540000Y-74325714D01*
X147730476Y-74325714D01*
X147825714Y-74373333D01*
X147397142Y-74944761D02*
X147492380Y-74992380D01*
X147730476Y-74992380D01*
X147825714Y-74944761D01*
X147873333Y-74849523D01*
X147873333Y-74754285D01*
X147825714Y-74659047D01*
X147730476Y-74611428D01*
X147492380Y-74611428D01*
X147397142Y-74563809D01*
X147016190Y-74325714D02*
X146778095Y-74992380D01*
X146540000Y-74325714D02*
X146778095Y-74992380D01*
X146873333Y-75230476D01*
X146920952Y-75278095D01*
X147016190Y-75325714D01*
X146397142Y-75087619D02*
X145635238Y-75087619D01*
X145397142Y-74992380D02*
X145397142Y-73992380D01*
X145016190Y-73992380D01*
X144920952Y-74040000D01*
X144873333Y-74087619D01*
X144825714Y-74182857D01*
X144825714Y-74325714D01*
X144873333Y-74420952D01*
X144920952Y-74468571D01*
X145016190Y-74516190D01*
X145397142Y-74516190D01*
X144254285Y-74992380D02*
X144349523Y-74944761D01*
X144397142Y-74897142D01*
X144444761Y-74801904D01*
X144444761Y-74516190D01*
X144397142Y-74420952D01*
X144349523Y-74373333D01*
X144254285Y-74325714D01*
X144111428Y-74325714D01*
X144016190Y-74373333D01*
X143968571Y-74420952D01*
X143920952Y-74516190D01*
X143920952Y-74801904D01*
X143968571Y-74897142D01*
X144016190Y-74944761D01*
X144111428Y-74992380D01*
X144254285Y-74992380D01*
X143635238Y-74325714D02*
X143254285Y-74325714D01*
X143492380Y-73992380D02*
X143492380Y-74849523D01*
X143444761Y-74944761D01*
X143349523Y-74992380D01*
X143254285Y-74992380D01*
X143159047Y-75087619D02*
X142397142Y-75087619D01*
X141682857Y-74992380D02*
X142159047Y-74992380D01*
X142159047Y-73992380D01*
X140825714Y-74992380D02*
X141397142Y-74992380D01*
X141111428Y-74992380D02*
X141111428Y-73992380D01*
X141206666Y-74135238D01*
X141301904Y-74230476D01*
X141397142Y-74278095D01*
X131928571Y-143102380D02*
X132261904Y-142626190D01*
X132500000Y-143102380D02*
X132500000Y-142102380D01*
X132119047Y-142102380D01*
X132023809Y-142150000D01*
X131976190Y-142197619D01*
X131928571Y-142292857D01*
X131928571Y-142435714D01*
X131976190Y-142530952D01*
X132023809Y-142578571D01*
X132119047Y-142626190D01*
X132500000Y-142626190D01*
X131500000Y-142578571D02*
X131166666Y-142578571D01*
X131023809Y-143102380D02*
X131500000Y-143102380D01*
X131500000Y-142102380D01*
X131023809Y-142102380D01*
X130642857Y-143054761D02*
X130500000Y-143102380D01*
X130261904Y-143102380D01*
X130166666Y-143054761D01*
X130119047Y-143007142D01*
X130071428Y-142911904D01*
X130071428Y-142816666D01*
X130119047Y-142721428D01*
X130166666Y-142673809D01*
X130261904Y-142626190D01*
X130452380Y-142578571D01*
X130547619Y-142530952D01*
X130595238Y-142483333D01*
X130642857Y-142388095D01*
X130642857Y-142292857D01*
X130595238Y-142197619D01*
X130547619Y-142150000D01*
X130452380Y-142102380D01*
X130214285Y-142102380D01*
X130071428Y-142150000D01*
X129642857Y-142578571D02*
X129309523Y-142578571D01*
X129166666Y-143102380D02*
X129642857Y-143102380D01*
X129642857Y-142102380D01*
X129166666Y-142102380D01*
X128880952Y-142102380D02*
X128309523Y-142102380D01*
X128595238Y-143102380D02*
X128595238Y-142102380D01*
X127452380Y-143102380D02*
X128023809Y-143102380D01*
X127738095Y-143102380D02*
X127738095Y-142102380D01*
X127833333Y-142245238D01*
X127928571Y-142340476D01*
X128023809Y-142388095D01*
X131690476Y-60252380D02*
X132166666Y-60252380D01*
X132166666Y-59252380D01*
X131166666Y-59252380D02*
X130976190Y-59252380D01*
X130880952Y-59300000D01*
X130785714Y-59395238D01*
X130738095Y-59585714D01*
X130738095Y-59919047D01*
X130785714Y-60109523D01*
X130880952Y-60204761D01*
X130976190Y-60252380D01*
X131166666Y-60252380D01*
X131261904Y-60204761D01*
X131357142Y-60109523D01*
X131404761Y-59919047D01*
X131404761Y-59585714D01*
X131357142Y-59395238D01*
X131261904Y-59300000D01*
X131166666Y-59252380D01*
X129738095Y-60157142D02*
X129785714Y-60204761D01*
X129928571Y-60252380D01*
X130023809Y-60252380D01*
X130166666Y-60204761D01*
X130261904Y-60109523D01*
X130309523Y-60014285D01*
X130357142Y-59823809D01*
X130357142Y-59680952D01*
X130309523Y-59490476D01*
X130261904Y-59395238D01*
X130166666Y-59300000D01*
X130023809Y-59252380D01*
X129928571Y-59252380D01*
X129785714Y-59300000D01*
X129738095Y-59347619D01*
X129309523Y-60252380D02*
X129309523Y-59252380D01*
X128738095Y-60252380D02*
X129166666Y-59680952D01*
X128738095Y-59252380D02*
X129309523Y-59823809D01*
X127785714Y-60252380D02*
X128357142Y-60252380D01*
X128071428Y-60252380D02*
X128071428Y-59252380D01*
X128166666Y-59395238D01*
X128261904Y-59490476D01*
X128357142Y-59538095D01*
X133952380Y-73438095D02*
X134761904Y-73438095D01*
X134857142Y-73485714D01*
X134904761Y-73533333D01*
X134952380Y-73628571D01*
X134952380Y-73819047D01*
X134904761Y-73914285D01*
X134857142Y-73961904D01*
X134761904Y-74009523D01*
X133952380Y-74009523D01*
X134952380Y-75009523D02*
X134952380Y-74438095D01*
X134952380Y-74723809D02*
X133952380Y-74723809D01*
X134095238Y-74628571D01*
X134190476Y-74533333D01*
X134238095Y-74438095D01*
X122352380Y-77033333D02*
X121876190Y-76700000D01*
X122352380Y-76461904D02*
X121352380Y-76461904D01*
X121352380Y-76842857D01*
X121400000Y-76938095D01*
X121447619Y-76985714D01*
X121542857Y-77033333D01*
X121685714Y-77033333D01*
X121780952Y-76985714D01*
X121828571Y-76938095D01*
X121876190Y-76842857D01*
X121876190Y-76461904D01*
X121352380Y-77366666D02*
X121352380Y-77985714D01*
X121733333Y-77652380D01*
X121733333Y-77795238D01*
X121780952Y-77890476D01*
X121828571Y-77938095D01*
X121923809Y-77985714D01*
X122161904Y-77985714D01*
X122257142Y-77938095D01*
X122304761Y-77890476D01*
X122352380Y-77795238D01*
X122352380Y-77509523D01*
X122304761Y-77414285D01*
X122257142Y-77366666D01*
X125752380Y-77033333D02*
X125276190Y-76700000D01*
X125752380Y-76461904D02*
X124752380Y-76461904D01*
X124752380Y-76842857D01*
X124800000Y-76938095D01*
X124847619Y-76985714D01*
X124942857Y-77033333D01*
X125085714Y-77033333D01*
X125180952Y-76985714D01*
X125228571Y-76938095D01*
X125276190Y-76842857D01*
X125276190Y-76461904D01*
X124847619Y-77414285D02*
X124800000Y-77461904D01*
X124752380Y-77557142D01*
X124752380Y-77795238D01*
X124800000Y-77890476D01*
X124847619Y-77938095D01*
X124942857Y-77985714D01*
X125038095Y-77985714D01*
X125180952Y-77938095D01*
X125752380Y-77366666D01*
X125752380Y-77985714D01*
X124052380Y-77033333D02*
X123576190Y-76700000D01*
X124052380Y-76461904D02*
X123052380Y-76461904D01*
X123052380Y-76842857D01*
X123100000Y-76938095D01*
X123147619Y-76985714D01*
X123242857Y-77033333D01*
X123385714Y-77033333D01*
X123480952Y-76985714D01*
X123528571Y-76938095D01*
X123576190Y-76842857D01*
X123576190Y-76461904D01*
X124052380Y-77985714D02*
X124052380Y-77414285D01*
X124052380Y-77700000D02*
X123052380Y-77700000D01*
X123195238Y-77604761D01*
X123290476Y-77509523D01*
X123338095Y-77414285D01*
M02*
