G04 #@! TF.GenerationSoftware,KiCad,Pcbnew,(5.1.9)-1*
G04 #@! TF.CreationDate,2021-03-14T15:16:18+00:00*
G04 #@! TF.ProjectId,Retrospector_Controls,52657472-6f73-4706-9563-746f725f436f,rev?*
G04 #@! TF.SameCoordinates,Original*
G04 #@! TF.FileFunction,Legend,Top*
G04 #@! TF.FilePolarity,Positive*
%FSLAX46Y46*%
G04 Gerber Fmt 4.6, Leading zero omitted, Abs format (unit mm)*
G04 Created by KiCad (PCBNEW (5.1.9)-1) date 2021-03-14 15:16:18*
%MOMM*%
%LPD*%
G01*
G04 APERTURE LIST*
%ADD10C,0.120000*%
%ADD11C,0.150000*%
G04 APERTURE END LIST*
D10*
X148710000Y-51530000D02*
X144130000Y-51530000D01*
X149470000Y-52290000D02*
X148710000Y-51530000D01*
X148710000Y-56870000D02*
X149470000Y-56110000D01*
X144130000Y-56870000D02*
X148710000Y-56870000D01*
X149470000Y-56110000D02*
X149470000Y-55320000D01*
X149470000Y-52290000D02*
X149470000Y-53080000D01*
X144130000Y-56870000D02*
X144130000Y-55320000D01*
X144130000Y-51530000D02*
X144130000Y-53080000D01*
X156170000Y-128670000D02*
X157500000Y-128670000D01*
X156170000Y-130000000D02*
X156170000Y-128670000D01*
X158830000Y-131270000D02*
X156170000Y-131270000D01*
X158830000Y-149110000D02*
X158830000Y-131270000D01*
X156170000Y-149110000D02*
X158830000Y-149110000D01*
X156170000Y-131270000D02*
X156170000Y-149110000D01*
X156170000Y-62170000D02*
X157500000Y-62170000D01*
X156170000Y-63500000D02*
X156170000Y-62170000D01*
X158830000Y-64770000D02*
X156170000Y-64770000D01*
X158830000Y-82610000D02*
X158830000Y-64770000D01*
X156170000Y-82610000D02*
X158830000Y-82610000D01*
X156170000Y-64770000D02*
X156170000Y-82610000D01*
X101170000Y-128670000D02*
X102500000Y-128670000D01*
X101170000Y-130000000D02*
X101170000Y-128670000D01*
X103830000Y-131270000D02*
X101170000Y-131270000D01*
X103830000Y-149110000D02*
X103830000Y-131270000D01*
X101170000Y-149110000D02*
X103830000Y-149110000D01*
X101170000Y-131270000D02*
X101170000Y-149110000D01*
X101170000Y-62170000D02*
X102500000Y-62170000D01*
X101170000Y-63500000D02*
X101170000Y-62170000D01*
X103830000Y-64770000D02*
X101170000Y-64770000D01*
X103830000Y-82610000D02*
X103830000Y-64770000D01*
X101170000Y-82610000D02*
X103830000Y-82610000D01*
X101170000Y-64770000D02*
X101170000Y-82610000D01*
D11*
X141533333Y-54557142D02*
X141485714Y-54604761D01*
X141342857Y-54652380D01*
X141247619Y-54652380D01*
X141104761Y-54604761D01*
X141009523Y-54509523D01*
X140961904Y-54414285D01*
X140914285Y-54223809D01*
X140914285Y-54080952D01*
X140961904Y-53890476D01*
X141009523Y-53795238D01*
X141104761Y-53700000D01*
X141247619Y-53652380D01*
X141342857Y-53652380D01*
X141485714Y-53700000D01*
X141533333Y-53747619D01*
X142485714Y-54652380D02*
X141914285Y-54652380D01*
X142200000Y-54652380D02*
X142200000Y-53652380D01*
X142104761Y-53795238D01*
X142009523Y-53890476D01*
X141914285Y-53938095D01*
X149799047Y-51921428D02*
X150560952Y-51921428D01*
X150180000Y-52302380D02*
X150180000Y-51540476D01*
X157166666Y-127122380D02*
X157166666Y-127836666D01*
X157119047Y-127979523D01*
X157023809Y-128074761D01*
X156880952Y-128122380D01*
X156785714Y-128122380D01*
X158071428Y-127455714D02*
X158071428Y-128122380D01*
X157833333Y-127074761D02*
X157595238Y-127789047D01*
X158214285Y-127789047D01*
X157166666Y-60622380D02*
X157166666Y-61336666D01*
X157119047Y-61479523D01*
X157023809Y-61574761D01*
X156880952Y-61622380D01*
X156785714Y-61622380D01*
X157595238Y-60717619D02*
X157642857Y-60670000D01*
X157738095Y-60622380D01*
X157976190Y-60622380D01*
X158071428Y-60670000D01*
X158119047Y-60717619D01*
X158166666Y-60812857D01*
X158166666Y-60908095D01*
X158119047Y-61050952D01*
X157547619Y-61622380D01*
X158166666Y-61622380D01*
X102166666Y-127122380D02*
X102166666Y-127836666D01*
X102119047Y-127979523D01*
X102023809Y-128074761D01*
X101880952Y-128122380D01*
X101785714Y-128122380D01*
X102547619Y-127122380D02*
X103166666Y-127122380D01*
X102833333Y-127503333D01*
X102976190Y-127503333D01*
X103071428Y-127550952D01*
X103119047Y-127598571D01*
X103166666Y-127693809D01*
X103166666Y-127931904D01*
X103119047Y-128027142D01*
X103071428Y-128074761D01*
X102976190Y-128122380D01*
X102690476Y-128122380D01*
X102595238Y-128074761D01*
X102547619Y-128027142D01*
X102166666Y-60622380D02*
X102166666Y-61336666D01*
X102119047Y-61479523D01*
X102023809Y-61574761D01*
X101880952Y-61622380D01*
X101785714Y-61622380D01*
X103166666Y-61622380D02*
X102595238Y-61622380D01*
X102880952Y-61622380D02*
X102880952Y-60622380D01*
X102785714Y-60765238D01*
X102690476Y-60860476D01*
X102595238Y-60908095D01*
M02*
